<?xml version="1.0" encoding="UTF-8"?>
<!DOCTYPE svg PUBLIC "-//W3C//DTD SVG 1.1//EN" "http://www.w3.org/Graphics/SVG/1.1/DTD/svg11.dtd">
<!-- Creator: CorelDRAW 2017 -->
<svg xmlns="http://www.w3.org/2000/svg" xml:space="preserve" width="203px" height="79px" version="1.1" style="shape-rendering:geometricPrecision; text-rendering:geometricPrecision; image-rendering:optimizeQuality; fill-rule:evenodd; clip-rule:evenodd"
viewBox="0 0 2.26 0.87"
 xmlns:xlink="http://www.w3.org/1999/xlink">
 <defs>
  <style type="text/css">
   <![CDATA[
    .fil0 {fill:#FEFEFE}
    .fil1 {fill:#FEFEFE;fill-rule:nonzero}
   ]]>
  </style>
 </defs>
 <g id="图层_x0020_1">
  <metadata id="CorelCorpID_0Corel-Layer"/>
  <g id="_1528534570336">
   <path class="fil0" d="M0.8 0.33l0.04 -0.04 0.05 0.04 -0.05 0.05 -0.04 -0.05zm0.45 0l0.04 -0.04 0.04 0.04 -0.04 0.04 -0.04 -0.04zm0.64 0.24l0.02 -0.04c-0.04,0 -0.06,0 -0.1,0l0.02 0.04c0.03,0 0.03,0 0.06,0zm-1.69 -0.12l-0.01 0 0 -0.1 0.03 0 0 0.1 -0.01 0 -0.01 0zm0.37 0.03l0 0.09 -0.01 0 0 -0.09 0 0 0.01 0zm0.55 0l0 0.09 0 0 0 -0.09 0 0 0 0zm0.58 0l0 0.09 -0.01 0 0 -0.09 0 0 0.01 0zm-0.01 -0.07l0 -0.1 0.01 0 0 0.1 -0.01 -0.01 0 0.01zm-0.03 0.03l0.03 -0.03 0.04 0.03 -0.04 0.03 -0.03 -0.03zm0.02 0l0.01 -0.01 0.02 0.01 -0.02 0.02 -0.01 -0.02zm-0.56 -0.03l0 -0.1 0 0 0 0.1 0 -0.01 0 0.01zm-0.03 0.03l0.03 -0.03 0.03 0.03 -0.03 0.03 -0.03 -0.03zm0.02 0l0.01 -0.01 0.01 0.01 -0.01 0.02 -0.01 -0.02zm-0.55 -0.03l0 -0.1 0.01 0 0 0.1 -0.01 -0.01 0 0.01zm-0.03 0.03l0.03 -0.03 0.03 0.03 -0.03 0.03 -0.03 -0.03zm0.02 0l0.01 -0.01 0.02 0.01 -0.02 0.02 -0.01 -0.02zm-0.36 0.05l0.01 0 0.01 0 0.07 0 0 -0.14 0.02 0 0 0.14 0.07 0 0.01 -0.04 -0.02 0 0 -0.1 0.03 0 0 0.21 0.06 0 0 -0.24 -0.33 0 0 0.24 0.25 0 0.02 -0.03 -0.2 0 0 -0.04zm1.74 0.08c0.05,0 0.09,-0.02 0.11,-0.05l0.04 0.05 0.05 0 0.01 -0.04 -0.03 0 -0.02 -0.03 0.05 0 0 -0.03 -0.08 0c0.01,-0.01 0.01,-0.03 0.01,-0.06l-0.05 0c0,0.03 0,0.05 -0.01,0.06l-0.08 0 0 0.03 0.06 0c-0.01,0.02 -0.03,0.03 -0.06,0.04l0 0.03zm0 -0.19l0 0.03 0.16 0 0 0.06 0.05 -0.02 0 -0.07 -0.08 0 0 -0.02 0.07 0 0 -0.03 -0.07 0 0 -0.01 -0.06 0 0 0.01 -0.07 0 0 0.03 0.07 0 0 0.02 -0.07 0zm-0.02 0.04l0 -0.03 -0.04 0 0.05 -0.07 -0.06 0 -0.05 0.08 0 0.02 0.04 0 -0.04 0.07 0 0.02 0.1 0 0 -0.03 -0.04 0 0.04 -0.06zm0.02 -0.01l0 0.03 0.07 0 0.01 -0.03 -0.08 0zm0 0.03l0 0.03 0.07 0 0.01 -0.03 -0.08 0zm-0.68 0.13l-0.02 -0.04c0.01,0 0.03,0 0.04,0l0 -0.13 -0.02 0 0 -0.03 0.02 0 0.02 0.02 0.03 -0.02 0.01 0 0 0.2c-0.03,0 -0.06,0 -0.08,0zm0.09 -0.23l0 0.03 0.03 0 -0.02 0.05 0 0.03 0.09 0 0 0.02 -0.1 0 0 0.04 0.1 0 0 0.02 0.06 0 0 -0.02 0.07 0 0 -0.04 -0.07 0 0 -0.02 0.06 0 0.01 -0.03 -0.07 0 0 -0.03 -0.06 0 0 0.03 -0.03 0 0.03 -0.05 0.13 0 0 -0.03 -0.12 0 0.01 -0.02 -0.06 0 -0.01 0.02 -0.05 0zm0.22 0.23l0.02 -0.04 -0.25 0 0.02 0.04 0.21 0zm-0.68 -0.04l0.04 0 0 -0.09 -0.11 0 -0.02 0.13 -0.11 0 0 -0.04 0.04 0 0.03 -0.16 -0.08 0 0 -0.03 0.12 0 0.03 0.03 0 0 -0.01 0.04 0.18 0 0 0.16 -0.1 0 -0.01 -0.03 0 -0.01zm0.01 -0.19l0.12 0 0 0.03 -0.15 0 0.03 -0.03z"/>
   <path class="fil0" d="M0.12 0l2.02 0 0.11 0.11 -0.11 0.11 -2.02 0 -0.1 -0.11 0.1 -0.11zm0.19 0.05l-0.04 0 0 0.14 -0.04 0 0 -0.14 -0.04 0 0 -0.02 0.12 0 0 0.02zm0.14 0.14l-0.04 0 0 -0.08 -0.04 0 0 0.08 -0.04 0 0 -0.16 0.04 0 0 0.06 0.04 0 0 -0.06 0.04 0 0 0.16zm0.14 0l-0.13 0 0 -0.16 0.13 0 0 0.02 -0.09 0 0 0.04 0.09 0 0 0.02 -0.09 0 0 0.06 0.09 0 0 0.02zm0.25 0l-0.13 0 0 -0.16 0.13 0 0 0.06 -0.05 0 0 -0.04 -0.04 0 0 0.12 0.04 0 0 -0.04 0.05 0 0 0.06zm0.13 0l-0.12 0 0 -0.16 0.12 0 0 0.16zm-0.04 -0.02l0 -0.12 -0.04 0 0 0.12 0.04 0zm0.22 0.02l-0.1 0 0 -0.14 -0.02 0 0 0.14 -0.04 0 0 -0.16 0.1 0 0 0.14 0.02 0 0 -0.14 0.04 0 0 0.16zm0.14 -0.14l-0.04 0 0 0.14 -0.04 0 0 -0.14 -0.04 0 0 -0.02 0.12 0 0 0.02zm0.05 0.14l-0.04 0 0 -0.16 0.04 0 0 0.16zm0.18 0l-0.1 0 0 -0.14 -0.02 0 0 0.14 -0.04 0 0 -0.16 0.1 0 0 0.14 0.02 0 0 -0.14 0.04 0 0 0.16zm0.14 0l-0.12 0 0 -0.16 0.04 0 0 0.14 0.04 0 0 -0.14 0.04 0 0 0.16zm0.14 0l-0.12 0 0 -0.16 0.12 0 0 0.16zm-0.04 -0.02l0 -0.12 -0.04 0 0 0.12 0.04 0zm0.18 0.02l-0.13 0 0 -0.16 0.04 0 0 0.14 0.05 0 0 -0.14 0.04 0 0 0.16zm0.13 0l-0.12 0 0 -0.02 0.08 0 0 -0.06 -0.08 0 0 -0.08 0.12 0 0 0.02 -0.08 0 0 0.04 0.08 0 0 0.1z"/>
   <path class="fil1" d="M0.43 0.72l0 -0.02 0.06 0 0 -0.01 0.03 0 0 0.01 0.07 0 0 0.02 -0.03 0c0,0.03 -0.02,0.05 -0.04,0.07 0.02,0.01 0.04,0.02 0.07,0.02l0 0.02c-0.04,-0.01 -0.07,-0.02 -0.08,-0.03 -0.02,0.01 -0.05,0.02 -0.08,0.03l0 -0.02c0.02,0 0.04,-0.01 0.06,-0.02 -0.02,-0.02 -0.03,-0.04 -0.04,-0.07l-0.02 0zm0.08 0.06c0.01,-0.02 0.02,-0.04 0.03,-0.06l-0.07 0c0.01,0.02 0.02,0.04 0.04,0.06z"/>
   <polygon id="1" class="fil1" points="0.7,0.77 0.7,0.75 0.73,0.75 0.73,0.77 "/>
   <path id="2" class="fil1" d="M0.95 0.82c-0.02,0 -0.03,0 -0.03,-0.02l0 -0.02c0,0 -0.01,0 -0.02,0 0,0 0,0 -0.01,0l0 -0.01c0,0 0.01,0 0.01,0 0.01,-0.01 0.02,-0.01 0.02,-0.01l0 -0.07 0.02 0 0 0.06c0.02,-0.01 0.03,-0.03 0.04,-0.04l0.02 0c-0.01,0.02 -0.03,0.04 -0.06,0.06l0 0.03c0,0.01 0.01,0.01 0.02,0.01l0.01 0c0.01,0 0.01,0 0.01,-0.01l0 -0.01 0.02 0 0 0.02c0,0.01 -0.01,0.01 -0.02,0.01l-0.03 0zm-0.09 0.01l0 -0.09c-0.01,0 -0.01,0 -0.02,0.01l0 -0.01c0.02,-0.01 0.03,-0.03 0.03,-0.05l0.03 0c-0.01,0.01 -0.01,0.02 -0.02,0.03l0 0.11 -0.02 0z"/>
   <polygon id="3" class="fil1" points="1.12,0.77 1.12,0.75 1.14,0.75 1.14,0.77 "/>
   <path id="4" class="fil1" d="M1.31 0.71l0 -0.01 0.03 0c0,0 0,-0.01 0,-0.01l0.03 0 0 0.01 0.05 0 0 0.01 -0.06 0c0,0.01 0,0.02 0,0.02l0.06 0 0 0.02 -0.07 0c0,0 0,0.01 -0.01,0.01l0.07 0 0 0.02c-0.01,0.01 -0.02,0.02 -0.03,0.03 0,0 0.01,0 0.01,0 0.01,0 0.01,0 0.02,0l0 0.02c-0.03,-0.01 -0.06,-0.02 -0.09,-0.03l0 -0.01c0.01,0 0.03,0.01 0.04,0.01 0.01,-0.01 0.02,-0.01 0.03,-0.02l-0.07 0 0 -0.02c0,0 0.01,-0.01 0.01,-0.01l-0.03 0 0 -0.02 0.03 0c0.01,0 0.01,-0.01 0.01,-0.02l-0.03 0zm-0.03 0.12l0 -0.09c-0.01,0 -0.02,0.01 -0.02,0.01l0 -0.01c0.01,-0.01 0.02,-0.03 0.03,-0.05l0.02 0c0,0.01 -0.01,0.02 -0.01,0.03l0 0.11 -0.02 0z"/>
   <polygon id="5" class="fil1" points="1.53,0.77 1.53,0.75 1.56,0.75 1.56,0.77 "/>
   <path id="6" class="fil1" d="M1.73 0.71l0 -0.01 0.01 0 0 -0.01 0.02 0 0 0.01 0.04 0 0 -0.01 0.02 0 0 0.01 0.02 0 0 0.01 -0.02 0 0 0.03c0,0.01 0,0.02 -0.02,0.02l-0.01 0 0 0.01 0.05 0 0 0.01 -0.02 0c0,0.02 0,0.03 0.02,0.03l0 0.01c-0.03,0 -0.04,-0.02 -0.04,-0.04l-0.01 0 0 0.05 -0.02 0 0 -0.05 0 0c0,0.02 -0.02,0.04 -0.04,0.04l0 -0.01c0.01,0 0.02,-0.01 0.02,-0.03l-0.02 0 0 -0.01 0.04 0 0 -0.01 -0.03 0 0 -0.05 -0.01 0zm-0.06 0.01l0 -0.01 0.01 0 0 -0.02 0.01 0 0 0.02 0.02 0 0 -0.02 0.01 0 0 0.02 0.01 0 0 0.01 -0.01 0 0 0.03c0,0.02 0,0.04 -0.01,0.05 0.01,0.01 0.01,0.01 0.02,0.02l0 0.01c-0.01,-0.01 -0.02,-0.01 -0.03,-0.02 -0.01,0.01 -0.02,0.01 -0.03,0.02l0 -0.01c0.01,-0.01 0.02,-0.01 0.02,-0.02 -0.01,-0.01 -0.01,-0.03 -0.01,-0.05l0 -0.03 -0.01 0zm0.03 0.07c0.01,-0.01 0.01,-0.03 0.01,-0.04l0 -0.03 -0.02 0 0 0.03c0,0.01 0.01,0.03 0.01,0.04zm0.09 -0.05c0.01,0.01 0.01,0 0.01,0l0 -0.01 -0.04 0 0 0.01 0.03 0zm-0.03 -0.03l0 0.01 0.04 0 0 -0.01 -0.04 0z"/>
   <path class="fil1" d="M0.12 0.64l1.01 0 1.01 0 0 0 0.09 0.09c-0.01,0 -0.01,0.01 -0.01,0.01l-0.09 -0.08 -1 0 -1 0 -0.09 0.08c0,0 0,-0.01 -0.01,-0.01l0.09 -0.09 0 0zm1.01 0.23l1.01 0 0.09 -0.08c-0.01,-0.01 -0.01,-0.01 -0.01,-0.01l-0.09 0.08 -1 0 -1 0 -0.09 -0.08c0,0 0,0 -0.01,0.01l0.09 0.08 1.01 0zm1.12 -0.13c-0.01,0 -0.02,0.01 -0.02,0.02 0,0.01 0.01,0.01 0.02,0.01 0.01,0 0.01,0 0.01,-0.01 0,-0.01 0,-0.02 -0.01,-0.02zm-0.29 -0.01c-0.01,0 -0.02,0.01 -0.02,0.03 0,0.01 0.01,0.02 0.02,0.02 0.02,0 0.02,0 0.03,-0.01l0.22 0c0,-0.01 0,-0.01 0,-0.01 0,0 0,-0.01 0,-0.01l-0.22 0c-0.01,-0.01 -0.01,-0.02 -0.03,-0.02zm-1.94 0.01c0,0 0.01,0.01 0.01,0.02 0,0.01 -0.01,0.01 -0.01,0.01 -0.01,0 -0.02,0 -0.02,-0.01 0,-0.01 0.01,-0.02 0.02,-0.02zm0.28 -0.01c0.01,0 0.02,0.01 0.02,0.03 0,0.01 -0.01,0.02 -0.02,0.02 -0.01,0 -0.02,0 -0.03,-0.01l-0.22 0c0,-0.01 0,-0.01 0,-0.01 0,0 0,-0.01 0,-0.01l0.22 0c0.01,-0.01 0.02,-0.02 0.03,-0.02z"/>
  </g>
 </g>
</svg>
