<?xml version="1.0" encoding="UTF-8"?>
<!DOCTYPE svg PUBLIC "-//W3C//DTD SVG 1.1//EN" "http://www.w3.org/Graphics/SVG/1.1/DTD/svg11.dtd">
<!-- Creator: CorelDRAW 2017 -->
<svg xmlns="http://www.w3.org/2000/svg" xml:space="preserve" width="79px" height="120px" version="1.1" style="shape-rendering:geometricPrecision; text-rendering:geometricPrecision; image-rendering:optimizeQuality; fill-rule:evenodd; clip-rule:evenodd"
viewBox="0 0 0.38 0.57"
 xmlns:xlink="http://www.w3.org/1999/xlink">
 <defs>
  <style type="text/css">
   <![CDATA[
    .fil0 {fill:white}
   ]]>
  </style>
 </defs>
 <g id="图层_x0020_1">
  <metadata id="CorelCorpID_0Corel-Layer"/>
  <path class="fil0" d="M0.38 0.29l-0.29 0.28 -0.09 0 0 -0.01c0.09,-0.09 0.18,-0.18 0.27,-0.27 -0.09,-0.09 -0.18,-0.18 -0.27,-0.27l0 -0.02 0.09 0 0.29 0.29zm-0.38 0.11l0.01 -0.02 0.06 0.06 -0.07 0.06 0 -0.1zm0 -0.33l0.07 0.07 -0.06 0.05 -0.01 -0.01 0 -0.11zm0.18 0.28l-0.07 -0.06 0.07 -0.07 0.06 0.07 -0.06 0.06zm-0.03 -0.16l-0.04 0.04 -0.06 0.06 0.1 0.09 -0.06 0.06 -0.09 -0.1 0 -0.11 0.1 -0.09 0.05 0.05z"/>
 </g>
</svg>
