<?xml version="1.0" encoding="UTF-8"?>
<!DOCTYPE svg PUBLIC "-//W3C//DTD SVG 1.1//EN" "http://www.w3.org/Graphics/SVG/1.1/DTD/svg11.dtd">
<!-- Creator: CorelDRAW 2017 -->
<svg xmlns="http://www.w3.org/2000/svg" xml:space="preserve" width="436px" height="30px" version="1.1" style="shape-rendering:geometricPrecision; text-rendering:geometricPrecision; image-rendering:optimizeQuality; fill-rule:evenodd; clip-rule:evenodd"
viewBox="0 0 11.17 0.77"
 xmlns:xlink="http://www.w3.org/1999/xlink">
 <defs>
  <style type="text/css">
   <![CDATA[
    .fil1 {fill:#FEFEFE}
    .fil0 {fill:#FEFEFE;fill-rule:nonzero}
   ]]>
  </style>
 </defs>
 <g id="图层_x0020_1">
  <metadata id="CorelCorpID_0Corel-Layer"/>
  <g id="_1528407555712">
   <g>
    <path class="fil0" d="M0 0l0.06 0.02c0.03,0.01 0.05,0.02 0.06,0.02l0.5 0c0.01,-0.01 0.02,-0.01 0.03,-0.02 0.01,-0.01 0.02,-0.01 0.02,-0.02 0.01,0.01 0.02,0.02 0.05,0.04 0.02,0.02 0.03,0.03 0.03,0.03l0 0.03 -0.63 0 0 0.19c0,0 0.01,-0.01 0.02,-0.02 0,0 0.01,-0.01 0.01,-0.01 0.02,0.01 0.03,0.02 0.05,0.03 0.01,0.01 0.02,0.02 0.05,0.03 0,-0.01 0.01,-0.02 0.01,-0.03 0.01,-0.02 0.01,-0.03 0.02,-0.04 0,0.01 0.01,0.01 0.02,0.02 -0.01,0.03 -0.02,0.07 -0.04,0.13 -0.02,0.06 -0.03,0.1 -0.04,0.13 0.01,0.02 0.02,0.04 0.04,0.05 0.01,0.02 0.02,0.04 0.02,0.05l-0.03 0.01c-0.02,0.01 -0.03,0.01 -0.04,0.02 -0.01,0 -0.01,0.01 -0.02,0.02l0.15 0 0 -0.24c-0.01,0 -0.01,0 -0.02,0.01 -0.01,0.01 -0.01,0.02 -0.02,0.03 -0.01,-0.01 -0.01,-0.02 -0.02,-0.03l-0.01 -0.01c0.03,-0.06 0.05,-0.12 0.06,-0.17 0.01,-0.04 0.03,-0.09 0.03,-0.14 0.01,0 0.01,-0.01 0.01,-0.02l0.05 0.01c0.02,0.01 0.04,0.01 0.05,0.02 0,0.01 0,0.02 -0.01,0.03 0,0.01 0,0.02 0,0.03l0.05 0c0,-0.02 0,-0.03 0,-0.05l0.01 -0.04 0.05 0.01c0.02,0 0.04,0.01 0.06,0.01 -0.01,0.01 -0.01,0.02 -0.01,0.04 0,0.01 0,0.02 -0.01,0.03 0.01,0 0.02,-0.01 0.03,-0.02 0.02,-0.01 0.03,-0.02 0.03,-0.02 0.02,0.01 0.04,0.02 0.04,0.03 0.01,0.01 0.02,0.02 0.03,0.03l0 0.03 -0.13 0 0 0.08c0,-0.01 0.01,-0.01 0.03,-0.02 0.02,-0.02 0.03,-0.03 0.03,-0.03l0.04 0.03c0.02,0.02 0.03,0.03 0.04,0.04l0 0.02 -0.14 0 0 0.09c0,-0.01 0.01,-0.01 0.03,-0.02 0,-0.01 0.01,-0.01 0.03,-0.03l0 0c0.02,0.01 0.03,0.03 0.04,0.03 0.02,0.02 0.03,0.03 0.04,0.04l0 0.02 -0.14 0 0 0.08 0.02 0c0.01,-0.01 0.02,-0.01 0.03,-0.02 0,-0.01 0.01,-0.01 0.02,-0.02 0.01,0.01 0.02,0.02 0.04,0.04 0.01,0.01 0.02,0.02 0.03,0.03l0 0.02 -0.07 0c0.01,0.01 0.02,0.02 0.04,0.04 0.01,0.01 0.03,0.03 0.04,0.03l0 0.03 -0.64 0 0 0.01 -0.06 0.02c-0.02,0 -0.04,0 -0.06,0.01l0 -0.01 0 -0.76zm0.2 0.11c0.02,0.01 0.04,0.02 0.06,0.04 0.02,0.01 0.03,0.02 0.04,0.03l-0.02 0.03c-0.02,0.01 -0.04,0.02 -0.05,0.03 -0.01,-0.02 -0.02,-0.03 -0.03,-0.05 -0.01,-0.02 -0.02,-0.03 -0.03,-0.05 0.01,0 0.01,-0.01 0.02,-0.01 0,-0.01 0.01,-0.01 0.01,-0.02zm0.24 0.14l0 0.07 0.07 0 0 -0.07 -0.07 0zm-0.32 0.04l0 0.39 0.06 0c0,-0.02 -0.01,-0.05 -0.02,-0.08 -0.01,-0.04 -0.01,-0.06 -0.02,-0.08l0.04 -0.07c0.02,-0.05 0.04,-0.08 0.05,-0.11 0,0.01 -0.01,0.01 -0.03,0.02 -0.01,0.02 -0.02,0.02 -0.03,0.02 0,-0.01 -0.01,-0.02 -0.02,-0.04 0,-0.01 -0.01,-0.02 -0.03,-0.05zm0.32 0.08l0 0.08 0.07 0 0 -0.08 -0.07 0zm0 0.13l0 0.08 0.07 0 0 -0.08 -0.07 0zm0 0.13c0,0.01 0,0.01 0,0.02 -0.02,0 -0.03,0 -0.05,0.01 -0.02,0.01 -0.03,0.01 -0.05,0.02l0.29 0 0.02 -0.02c0.01,-0.01 0.02,-0.02 0.02,-0.03l-0.23 0zm0.51 -0.63l0.07 0.01c0.03,0.01 0.05,0.02 0.07,0.02 -0.01,0.01 -0.01,0.02 -0.01,0.02 0,0.01 -0.01,0.01 -0.01,0.02 0,0 0,0.01 0,0.02l0.13 0c0.01,-0.02 0.01,-0.03 0.01,-0.05 0.01,-0.01 0.01,-0.02 0.02,-0.04l0.06 0.01 0.07 0.02c-0.01,0.01 -0.01,0.02 -0.02,0.03 -0.01,0.01 -0.01,0.02 -0.01,0.03l0.13 0c0.01,-0.01 0.01,-0.02 0.02,-0.02 0.01,-0.01 0.02,-0.02 0.03,-0.02 0.01,0.01 0.02,0.02 0.03,0.03 0.02,0.01 0.03,0.02 0.04,0.03l0 0.03 -0.25 0 0 0.05 0.13 0 0.01 -0.02c0.01,-0.01 0.02,-0.01 0.03,-0.01 0.01,0.01 0.02,0.01 0.03,0.02 0.01,0.01 0.02,0.02 0.03,0.03l0 0.03 -0.23 0 0 0.04 0.12 0c0.01,0 0.01,0 0.03,-0.02 0.01,0 0.01,-0.01 0.02,-0.01 0,0.01 0.02,0.02 0.03,0.03 0.02,0.02 0.03,0.03 0.03,0.03l0 0.03 -0.23 0 0 0.05 0.14 0 0.02 -0.02c0.01,-0.01 0.02,-0.01 0.03,-0.02 0.01,0.01 0.03,0.02 0.03,0.03 0.02,0.01 0.03,0.02 0.03,0.02l0.01 0.01 0 0.03 -0.42 0c0.01,0 0.03,0.01 0.05,0.02 0.02,0 0.03,0.01 0.05,0.01l0.01 0 0 0.03 0.18 0c0.01,-0.01 0.02,-0.01 0.03,-0.02 0.01,-0.01 0.01,-0.01 0.02,-0.02 0.01,0.01 0.02,0.02 0.03,0.03 0.01,0.01 0.02,0.02 0.03,0.02l0.01 0.02 0 0.02 -0.25 0c0.03,0.02 0.07,0.04 0.12,0.05 0.04,0.02 0.09,0.03 0.14,0.04l-0.04 0.06c-0.01,0.02 -0.02,0.04 -0.03,0.04 -0.04,-0.01 -0.08,-0.03 -0.12,-0.05 -0.03,-0.02 -0.07,-0.05 -0.1,-0.08 -0.01,0 -0.02,-0.01 -0.02,-0.01l0 0.14c-0.02,0.01 -0.05,0.01 -0.07,0.01l-0.07 0.02 0 0 0 -0.15c-0.06,0.03 -0.1,0.06 -0.14,0.07 -0.07,0.03 -0.12,0.05 -0.16,0.05 0,-0.01 -0.01,-0.01 -0.01,-0.02 0,-0.01 -0.01,-0.02 -0.01,-0.02 0.05,-0.03 0.1,-0.05 0.13,-0.07 0.02,-0.01 0.05,-0.04 0.1,-0.08l-0.22 0 0 -0.05 0.31 0 0 -0.06 -0.11 0 0 0.02c-0.01,0 -0.03,0.01 -0.06,0.01 -0.02,0 -0.04,0.01 -0.06,0.01l0 0 0 -0.19c-0.01,0.01 -0.02,0.02 -0.03,0.03 -0.01,0 -0.03,0.01 -0.03,0.02 -0.01,-0.01 -0.01,-0.02 -0.02,-0.03 0,0 0,-0.01 -0.01,-0.02 0.04,-0.06 0.07,-0.12 0.09,-0.17l0.04 -0.12zm0.08 0.14l0 0.04 0.17 0 0 -0.04 -0.17 0zm0 0.09l0 0.05 0.17 0 0 -0.05 -0.17 0zm0 0.11l0 0.05 0.17 0 0 -0.05 -0.17 0zm0.61 -0.34c0.01,0.01 0.03,0.01 0.06,0.02 0.02,0.01 0.05,0.02 0.06,0.03l0.01 0 0.44 0c0.01,0 0.02,-0.01 0.03,-0.02 0,0 0.01,-0.01 0.03,-0.03 0.01,0.01 0.02,0.02 0.04,0.03l0.07 0.05 0 0.01c0,0 -0.01,0.01 -0.01,0.01 -0.01,0.01 -0.02,0.01 -0.02,0.02l0 0.61c-0.01,0.01 -0.03,0.01 -0.06,0.02 -0.03,0 -0.05,0.01 -0.07,0.01l0 0 0 -0.06 -0.45 0 0 0.04 -0.06 0.02c-0.02,0 -0.05,0 -0.06,0.01l-0.01 0 0 -0.77zm0.13 0.1l0 0.38c0,0 0.01,-0.01 0.02,-0.02 0.01,-0.02 0.01,-0.03 0.02,-0.04 0,-0.02 0.01,-0.04 0.02,-0.07 0,-0.02 0.01,-0.04 0.01,-0.08l0 -0.17 -0.07 0zm0.19 0l0 0.15c0,0.01 0,0.02 0,0.03 -0.01,0.02 -0.01,0.03 -0.01,0.03 -0.01,0.05 -0.03,0.09 -0.06,0.13 -0.02,0.03 -0.04,0.07 -0.07,0.11 -0.01,0 -0.02,-0.01 -0.03,-0.02l-0.02 -0.01 0 0.13 0.45 0 0 -0.11 -0.13 0c0,0 -0.01,0 -0.02,-0.01 0,0 -0.01,0 -0.02,-0.01 0,0 -0.01,-0.01 -0.02,-0.02 0,-0.01 -0.01,-0.02 -0.01,-0.03l0 -0.37 -0.06 0zm0.18 0l0 0.33c0,0.01 0.01,0.01 0.02,0.02l0.06 0 0 -0.35 -0.08 0zm0.64 -0.1l0.06 0.01c0.03,0.01 0.05,0.01 0.07,0.02l0.01 0 0 0.1 0.2 0c0,-0.01 0.01,-0.01 0.02,-0.02 0.01,-0.01 0.02,-0.02 0.02,-0.02 0.02,0.02 0.03,0.03 0.04,0.03 0.01,0.01 0.02,0.02 0.03,0.04l0 0.02 -0.45 0 0 0.14 0.22 0 0.02 -0.02c0.02,-0.01 0.03,-0.02 0.04,-0.03l0.05 0.04c0.02,0.02 0.04,0.04 0.06,0.06l-0.01 0.01c-0.01,0 -0.02,0.01 -0.02,0.02l0 0.07 -0.01 0.03 -0.01 0.11c-0.01,0.06 -0.03,0.1 -0.05,0.12 -0.01,0.01 -0.03,0.01 -0.04,0.02 -0.01,0 -0.02,0 -0.04,0.01l-0.01 0 -0.08 0 0 -0.02c0,-0.03 -0.01,-0.05 -0.03,-0.06 -0.01,0 -0.03,-0.01 -0.05,-0.01l-0.01 -0.01 0 -0.02 0 -0.01 0 0 0.02 0c0.01,0 0.02,0 0.03,0l0.02 0 0.03 0 0.05 0c0.02,0 0.03,-0.02 0.03,-0.06 0,-0.01 0,-0.03 0.01,-0.08l0 -0.03 0 -0.05 0 -0.03 -0.22 0 0 0.03c-0.01,0.08 -0.04,0.14 -0.08,0.2 -0.04,0.04 -0.09,0.09 -0.17,0.14 -0.01,0.01 -0.01,0.01 -0.02,0.02 -0.02,-0.02 -0.02,-0.03 -0.03,-0.03 0,-0.01 -0.01,-0.02 -0.01,-0.02 0.05,-0.05 0.09,-0.1 0.12,-0.14 0.02,-0.05 0.04,-0.1 0.06,-0.18l0 -0.01 0 -0.03 0 -0.18 -0.19 0 0 -0.05 0.32 0 0 -0.13zm0.61 0c0.02,0.01 0.04,0.02 0.07,0.03 0.02,0 0.04,0.01 0.05,0.02l0.01 0 0.27 0c0.01,-0.01 0.02,-0.02 0.03,-0.03 0.01,-0.01 0.02,-0.01 0.02,-0.01l0.01 -0.01 0.04 0.04c0.02,0.01 0.04,0.03 0.06,0.04l0 0c0,0.01 -0.01,0.01 -0.02,0.02 0,0.01 -0.01,0.01 -0.01,0.01l0 0.21c-0.02,0 -0.04,0 -0.06,0.01 -0.02,0 -0.04,0 -0.07,0.01l0 0 0 -0.06 -0.27 0 0 0.04 -0.06 0.01c-0.02,0 -0.04,0.01 -0.06,0.01l-0.01 0 0 -0.34zm0.13 0.1l0 0.13 0.27 0 0 -0.13 -0.27 0zm-0.24 0.25l0.07 0.03c0.03,0.01 0.05,0.01 0.06,0.02l0.01 0 0.06 0 0.03 -0.03c0.01,-0.01 0.02,-0.01 0.02,-0.01l0.01 -0.01 0.05 0.04c0.02,0.02 0.04,0.03 0.04,0.03l0.01 0.01c0,0 -0.01,0.01 -0.02,0.02 0,0.01 -0.01,0.01 -0.01,0.02l0 0.27 -0.06 0.01 -0.07 0.01 0 0 0 -0.05 -0.07 0 0 0.03 -0.06 0.02c-0.02,0 -0.04,0 -0.06,0.01l-0.01 0 0 -0.42zm0.38 0l0.02 0.01c0.01,0 0.03,0.01 0.05,0.02 0.03,0.01 0.05,0.02 0.06,0.02l0.07 0c0.01,-0.01 0.02,-0.01 0.03,-0.02 0.01,-0.01 0.02,-0.02 0.04,-0.03 0.01,0.01 0.03,0.02 0.05,0.04l0.05 0.04c0,0 -0.01,0.01 -0.01,0.02 -0.01,0 -0.02,0.01 -0.02,0.01l0 0.28 -0.01 0 -0.06 0.01 -0.06 0.01 0 -0.05 -0.08 0 0 0.03 0 0.01c-0.03,0 -0.05,0 -0.06,0.01 -0.02,0 -0.04,0 -0.07,0.01l0 -0.42zm-0.25 0.1l0 0.21 0.07 0 0 -0.21 -0.07 0zm0.38 0l0 0.21 0.08 0 0 -0.21 -0.08 0zm0.49 -0.45l0.04 0.01c0.02,0 0.03,0 0.04,0.01l0.01 0 0 0.22c0,0 0.01,0 0.01,-0.01 0.01,0 0.01,-0.01 0.01,-0.01 0.01,0 0.01,0.01 0.02,0.02 0,0 0.01,0.01 0.01,0.01l0 -0.2 0.05 0.02c0.02,0.01 0.04,0.02 0.06,0.02 0,0 0.01,-0.01 0.03,-0.05 0.01,-0.01 0.02,-0.03 0.03,-0.04 0.01,0 0.03,0.01 0.06,0.02 0.02,0 0.04,0.01 0.06,0.01l-0.05 0.03c-0.02,0.02 -0.03,0.03 -0.05,0.04l0.11 0c0.01,-0.01 0.02,-0.01 0.03,-0.02 0.01,-0.02 0.02,-0.02 0.03,-0.03l0.03 0.03c0.02,0.02 0.04,0.03 0.06,0.05 -0.01,0.01 -0.01,0.01 -0.02,0.02 -0.01,0 -0.01,0.01 -0.01,0.01l0 0.26c-0.02,0 -0.04,0.01 -0.05,0.01 -0.01,0 -0.03,0.01 -0.04,0.01l-0.01 0 0 -0.04 -0.08 0 -0.01 0.02 -0.01 0.01c0.01,0 0.02,0.01 0.03,0.01 0.01,0 0.02,0.01 0.03,0.01l0.01 0 0 0.08 0.04 0c0.01,0 0.02,-0.01 0.03,-0.02l0.02 -0.02c0.01,0.01 0.02,0.02 0.03,0.03 0.01,0.01 0.02,0.02 0.04,0.03l0 0.01 0 0.02 -0.16 0 0 0.16 -0.06 0.02c-0.02,0 -0.04,0 -0.06,0.01l0 -0.01 0 -0.18 -0.19 0 0 -0.05 0.05 0c0,0 -0.01,-0.01 -0.01,-0.02l0 -0.02c0.03,-0.01 0.05,-0.02 0.05,-0.03 0.02,-0.01 0.04,-0.02 0.06,-0.04 0,0 0.01,-0.01 0.01,-0.02 0,0 -0.01,0 -0.02,0 -0.01,0 -0.01,0 -0.02,0l0 0.02c-0.02,0 -0.03,0 -0.05,0.01 -0.02,0 -0.03,0 -0.05,0.01 0,0 -0.01,0.01 -0.02,0.02l-0.01 0.01 0 0.28c-0.02,0 -0.04,0 -0.05,0.01 -0.01,0 -0.03,0 -0.05,0.01l0 0 0 -0.31 -0.05 0 0 0.03 0 0.02 0 0.01c-0.01,0.05 -0.02,0.08 -0.02,0.1 -0.01,0.02 -0.02,0.05 -0.04,0.09l-0.02 0.03c0,0.01 -0.01,0.02 -0.02,0.02l-0.01 -0.01c-0.01,-0.01 -0.02,-0.01 -0.02,-0.02 0,-0.04 0.01,-0.09 0.02,-0.13 0,-0.02 0,-0.04 0,-0.06l0 -0.03 0 -0.05 0 -0.44c0.02,0 0.03,0.01 0.05,0.01 0.03,0 0.04,0.01 0.05,0.01l0.01 0 0 0.21 0.04 0 0 -0.25zm0.24 0.15l0 0.07 0.07 0 0 -0.07 -0.07 0zm0.16 0l0 0.07 0.06 0 0 -0.07 -0.06 0zm-0.16 0.12l0 0.08 0.05 0c0.01,0 0.01,-0.01 0.01,-0.02 0,0 0,-0.01 0,-0.03l0 -0.03 -0.06 0zm0.16 0c0,0.01 -0.01,0.02 -0.01,0.03 0,0.02 0,0.04 0,0.05l0.07 0 0 -0.08 -0.06 0zm-0.44 0.03l0 0.11 0.04 0 0.02 -0.03c0.01,-0.01 0.02,-0.01 0.02,-0.02 0.01,0.01 0.02,0.02 0.04,0.04 0.03,0.03 0.05,0.04 0.07,0.05l0 -0.15 -0.19 0zm0.35 0.17c-0.01,0.01 -0.01,0.01 -0.02,0.01 -0.01,0.01 -0.02,0.02 -0.04,0.03 -0.02,0.01 -0.03,0.02 -0.04,0.02l0.1 0 0 -0.06zm1.91 -0.47l0.06 0.02c0.03,0 0.05,0.01 0.07,0.01 -0.01,0.01 -0.01,0.02 -0.01,0.02 0.04,0.03 0.07,0.04 0.08,0.04 0.03,0.02 0.06,0.03 0.08,0.05 0.01,0 0.01,0 0.02,0.01l0 -0.08c0.02,0.01 0.03,0.01 0.05,0.01 0.01,0.01 0.03,0.01 0.05,0.01l0 0.01 0 0.49c-0.01,0 -0.03,0 -0.05,0.01l-0.05 0.01 0 0 0 -0.04c0,0 -0.01,0 -0.02,0.01 -0.01,0.01 -0.01,0.01 -0.01,0.02l0 0.15 -0.06 0 -0.05 0.01 0 -0.03 -0.1 0 0 0.02 -0.05 0.01 -0.06 0.01 0 -0.16c-0.02,0.03 -0.03,0.05 -0.05,0.08 -0.02,0.02 -0.04,0.05 -0.06,0.07l-0.02 -0.02 -0.02 -0.01c0.01,-0.04 0.02,-0.07 0.03,-0.1 0.02,-0.03 0.03,-0.06 0.03,-0.1 0,0 0,-0.01 0,-0.02 0.01,0 0.01,-0.01 0.01,-0.01l0 -0.21c-0.01,0 -0.02,0 -0.03,0.01 0,0 -0.01,0 -0.01,0.01l-0.02 -0.03c0,0 -0.01,-0.01 -0.01,-0.02 0.05,-0.04 0.09,-0.08 0.12,-0.11 0.04,-0.05 0.06,-0.1 0.08,-0.15zm0.45 0.01c0.01,-0.01 0.03,0 0.05,0l0.05 0.01 0 0.21 0 0.46c-0.01,0.01 -0.01,0.02 -0.02,0.03 0,0.01 0,0.02 -0.01,0.02 0,0.01 -0.01,0.01 -0.02,0.01 0,0.01 -0.01,0.01 -0.02,0.01l-0.07 0 0 -0.01c0,-0.02 -0.01,-0.03 -0.02,-0.04 -0.01,-0.01 -0.02,-0.02 -0.03,-0.02 -0.01,-0.01 -0.02,-0.01 -0.03,-0.01 0,0 0,-0.01 0,-0.01l0 -0.02 0.06 0 0.04 0c0,-0.01 0.01,-0.01 0.02,-0.02l0 -0.62zm-0.36 0.08c-0.01,0.01 -0.01,0.01 -0.01,0.02 -0.01,0.01 -0.02,0.02 -0.03,0.03 -0.01,0.01 -0.02,0.02 -0.03,0.03 0.01,0 0.03,0 0.05,0.01 0.02,0 0.04,0.01 0.05,0.01l0 0.07c0,0 0.01,0 0.02,0 0,-0.01 0.01,-0.01 0.02,-0.02 0,-0.01 0.01,-0.01 0.02,-0.02 0.01,0.02 0.03,0.03 0.04,0.04 0.01,0.01 0.03,0.02 0.04,0.03 0,0 0,0.01 -0.01,0.01 0,0.01 -0.01,0.01 -0.01,0.02l0 0.16c-0.01,0 -0.03,0.01 -0.05,0.01 -0.03,0 -0.04,0.01 -0.05,0.01l0 -0.03 -0.17 0 0 0.03c0.01,0.01 0.03,0.01 0.05,0.02 0,0 0.02,0.01 0.04,0.02l0.09 0c0.01,0 0.01,-0.01 0.02,-0.01 0.01,-0.01 0.02,-0.02 0.02,-0.02 0.03,0.01 0.04,0.03 0.05,0.03 0.02,0.01 0.04,0.03 0.06,0.03l0 -0.43c-0.01,0.01 -0.01,0.01 -0.02,0.02 -0.01,0.01 -0.02,0.02 -0.03,0.03 -0.01,0.02 -0.02,0.03 -0.02,0.04 -0.04,-0.03 -0.06,-0.06 -0.07,-0.07 -0.02,-0.02 -0.05,-0.04 -0.07,-0.07zm-0.07 0.1c-0.01,0 -0.02,0.01 -0.04,0.02 -0.01,0.01 -0.02,0.02 -0.03,0.03 0.01,0.01 0.01,0.01 0.02,0.02l0.05 0 0 -0.07zm-0.05 0.12l0 0.03 0.17 0 0 -0.03 -0.17 0zm0 0.08l0 0.04 0.17 0 0 -0.04 -0.17 0zm0.09 0.2l0 0.09 0.1 0 0 -0.09 -0.1 0zm0.86 -0.59c0.02,0 0.04,0.01 0.06,0.01l0.06 0.01 0 0 0 0.04 0.21 0c0.01,-0.01 0.01,-0.01 0.02,-0.02 0.01,-0.01 0.01,-0.01 0.02,-0.01 0.01,0 0.02,0.01 0.03,0.02 0.01,0.02 0.03,0.02 0.03,0.03l0 0.03 -0.18 0c0,0 0.01,0.01 0.03,0.01 0.01,0.01 0.02,0.01 0.02,0.01 0,0.01 -0.01,0.02 -0.03,0.03 0,0.01 -0.01,0.01 -0.03,0.03l0.1 0c0.01,-0.01 0.02,-0.01 0.02,-0.02 0.01,-0.01 0.02,-0.02 0.02,-0.02 0.02,0.02 0.03,0.03 0.04,0.03 0.01,0.01 0.03,0.02 0.03,0.03l0 0.03 -0.15 0c0.01,0.01 0.03,0.02 0.05,0.04 0.02,0.01 0.03,0.01 0.04,0.02l0.01 0.01c-0.01,0 -0.01,0.01 -0.02,0.01 0,0.01 0,0.01 -0.01,0.01l0 0.18c-0.01,0 -0.03,0.01 -0.05,0.01 -0.03,0.01 -0.05,0.01 -0.07,0.01l0 -0.03 -0.35 0 0 0.02 -0.05 0.01c-0.02,0 -0.04,0 -0.06,0.01l0 0 0 -0.3 -0.09 0 0 -0.05 0.19 0c-0.01,-0.02 -0.02,-0.03 -0.03,-0.05 -0.02,-0.01 -0.03,-0.02 -0.05,-0.03l-0.08 0 0 -0.05 0.27 0 0 -0.06zm-0.07 0.11c0.01,0.01 0.03,0.01 0.04,0.02l0.04 0.03c-0.01,0.01 -0.01,0.01 -0.02,0.02 0,0 0,0 -0.01,0.01l0.14 0c0.01,-0.01 0.02,-0.03 0.04,-0.04 0.01,-0.01 0.02,-0.03 0.02,-0.04l-0.25 0zm-0.14 0.13c0.01,0 0.03,0.01 0.06,0.02 0.02,0.01 0.04,0.01 0.05,0.02l0.35 0c0,-0.01 0,-0.01 0.02,-0.02 0.01,-0.01 0.02,-0.01 0.02,-0.02l-0.5 0zm0.11 0.09l0 0.03 0.35 0 0 -0.03 -0.35 0zm0 0.08l0 0.04 0.35 0 0 -0.04 -0.35 0zm0.18 0.11c0.02,0.01 0.04,0.02 0.05,0.03 0.02,0.01 0.03,0.02 0.05,0.04 -0.01,0.01 -0.02,0.02 -0.04,0.03l-0.03 0.03 0.09 0c0.01,0 0.01,-0.01 0.02,-0.03l0.01 -0.05c0.01,0 0.02,0 0.02,0 0.01,0 0.02,0 0.03,0.01l0 0 0 0.03c0,0.02 0.01,0.03 0.02,0.05 0,0.01 0.01,0.02 0.02,0.02 -0.01,0.03 -0.02,0.04 -0.04,0.05 -0.01,0.01 -0.02,0.02 -0.03,0.02l-0.29 0c-0.02,0 -0.04,-0.01 -0.05,-0.02 -0.02,-0.01 -0.03,-0.03 -0.03,-0.06l0 -0.13 0 0c0.03,0.01 0.05,0.01 0.06,0.01 0.02,0 0.04,0.01 0.06,0.01l0 0.07c0,0.01 0,0.01 0,0.02 0.01,0 0.02,0 0.02,0l0.09 0c-0.01,-0.01 -0.02,-0.03 -0.04,-0.05 -0.03,-0.03 -0.04,-0.05 -0.04,-0.05l0.02 -0.02c0.01,-0.01 0.02,-0.02 0.03,-0.01zm0.26 0.02c0.02,0.02 0.04,0.03 0.06,0.05 0.02,0.02 0.03,0.04 0.05,0.07l0.01 0.01 -0.04 0.03 -0.05 0.04c-0.01,-0.02 -0.02,-0.05 -0.04,-0.09 0,-0.01 -0.01,-0.04 -0.03,-0.08 0.01,-0.01 0.01,-0.01 0.02,-0.02 0.01,0 0.02,-0.01 0.02,-0.01zm-0.55 0.01c0.02,0.01 0.03,0.01 0.04,0.02 0.01,0 0.02,0 0.03,0.01 -0.01,0.03 -0.02,0.06 -0.03,0.08 -0.02,0.03 -0.03,0.05 -0.05,0.08l-0.04 -0.03c-0.01,-0.01 -0.03,-0.02 -0.04,-0.03 0.03,-0.04 0.06,-0.07 0.06,-0.08 0.01,-0.01 0.02,-0.03 0.03,-0.05zm1.17 -0.55l0.05 0.01c0.03,0 0.05,0.01 0.05,0.01l0.01 0 0 0.06 0.11 0c0.01,-0.01 0.01,-0.01 0.02,-0.02 0.01,-0.01 0.01,-0.01 0.02,-0.02l0.03 0.03c0.01,0.01 0.03,0.02 0.03,0.03l0 0.03 -0.21 0 0 0.05 0.06 0c0.01,-0.01 0.01,-0.01 0.02,-0.02 0.01,0 0.02,-0.01 0.03,-0.01l0.04 0.03c0.02,0.01 0.03,0.02 0.05,0.03 -0.01,0 -0.01,0.01 -0.02,0.01 0,0.01 -0.01,0.01 -0.01,0.01l0 0.22c-0.02,0.01 -0.03,0.01 -0.05,0.01 -0.01,0.01 -0.03,0.01 -0.05,0.01l-0.01 0 0 -0.02 -0.06 0 0 0.06 0.12 0c0,0 0.01,-0.01 0.01,-0.01 0.01,-0.01 0.02,-0.02 0.02,-0.02l0.04 0.03c0.01,0.01 0.02,0.02 0.03,0.02l0 0.03 -0.22 0 0 0.06c-0.01,0.01 -0.03,0.01 -0.04,0.01l-0.05 0.01c0,0 -0.01,0.01 -0.02,0.01l0.18 0 0.15 0.01c-0.01,0.01 -0.01,0.02 -0.01,0.04 -0.01,0.02 -0.01,0.04 -0.01,0.05l-0.01 0 -0.44 0 -0.01 0c-0.03,-0.01 -0.06,-0.02 -0.08,-0.03 -0.02,-0.02 -0.04,-0.04 -0.06,-0.07 0,-0.01 0,-0.02 -0.01,-0.03 0,0.02 -0.01,0.04 -0.03,0.08 0,0.02 -0.01,0.04 -0.02,0.06l0 0c-0.02,-0.01 -0.04,-0.02 -0.06,-0.04l-0.02 -0.03 -0.01 0c0.02,-0.04 0.04,-0.07 0.05,-0.09 0.01,-0.03 0.02,-0.07 0.03,-0.1l0 -0.19 -0.08 0 0 -0.05 0.07 0c0,-0.01 0.01,-0.01 0.03,-0.03 0.01,-0.01 0.02,-0.01 0.02,-0.02 0.02,0.01 0.03,0.02 0.05,0.04 0.03,0.02 0.04,0.03 0.05,0.04l-0.01 0.02c-0.01,0 -0.01,0.01 -0.02,0.01l0 0.22c0,0.02 0.01,0.04 0.02,0.05 0.01,0.02 0.02,0.04 0.04,0.05 0.01,0 0.02,0.01 0.03,0.01 0.01,0 0.02,0.01 0.03,0l0.13 0 0 -0.09 -0.22 0 0 -0.05 0.22 0 0 -0.06 -0.06 0 0 0.02c-0.02,0 -0.04,0 -0.06,0.01l-0.05 0.01 0 0 0 -0.34c0.01,0 0.02,0.01 0.04,0.01 0.02,0 0.04,0.01 0.05,0.01l0.01 0.01 0.07 0 0 -0.05 -0.21 0 0 -0.05 0.21 0 0 -0.08zm-0.38 0.01c0.03,0.01 0.05,0.03 0.07,0.04 0.02,0.02 0.04,0.03 0.05,0.06l0.01 0c-0.01,0.01 -0.02,0.02 -0.03,0.03 -0.02,0.01 -0.04,0.03 -0.06,0.04l-0.02 -0.04c0,-0.01 -0.01,-0.02 -0.02,-0.03l-0.02 -0.04c-0.01,-0.01 -0.01,-0.02 -0.02,-0.03 0.01,0 0.01,-0.01 0.02,-0.02 0.01,0 0.02,-0.01 0.02,-0.01zm0.32 0.22l0 0.06 0.06 0 0 -0.06 -0.06 0zm0.17 0l0 0.06 0.06 0 0 -0.06 -0.06 0zm-0.17 0.11l0 0.06 0.06 0 0 -0.06 -0.06 0zm0.17 0l0 0.06 0.06 0 0 -0.06 -0.06 0z"/>
    <path class="fil0" d="M8.88 0.01l0.06 0.01c0.02,0.01 0.04,0.02 0.06,0.02 -0.02,0.03 -0.04,0.06 -0.07,0.1l-0.04 0.08c0,0 0,0.01 0.01,0.02 0.01,0 0.02,0.01 0.02,0.01 0.01,-0.01 0.02,-0.03 0.04,-0.06 0.02,-0.03 0.03,-0.05 0.04,-0.06 0,0.01 0.01,0.02 0.02,0.02l0.03 0.03c0.01,0 0.01,0 0.02,0l0 -0.05 0.14 0 0 -0.04 -0.18 0 0 -0.04 0.18 0 0 -0.05 0.05 0.01c0.03,0 0.04,0.01 0.06,0.01l0.01 0 0 0.03 0.11 0c0.01,0 0.01,-0.01 0.01,-0.01 0.01,0 0.01,-0.01 0.02,-0.01 0.01,0.01 0.02,0.01 0.02,0.02 0.01,0.01 0.02,0.02 0.04,0.03l0 0.02 -0.09 0c0,0 0.01,0.01 0.02,0.02 0.01,0.01 0.02,0.02 0.03,0.03l0 0.02 -0.04 0c0.01,0.01 0.02,0.03 0.03,0.04 0.02,0.01 0.03,0.02 0.04,0.03 0,0 -0.01,0.01 -0.02,0.01l0 0.1c0,0 -0.01,0 -0.03,0.01 -0.02,0 -0.03,0 -0.04,0 0.01,0.01 0.02,0.02 0.04,0.03 0.01,0.01 0.03,0.02 0.03,0.03 0,0 0,0.01 -0.01,0.01 0,0.01 -0.01,0.01 -0.01,0.02l0 0.19c-0.01,0 -0.03,0 -0.05,0.01 -0.02,0.01 -0.04,0.01 -0.05,0.01 0.02,0 0.04,0.01 0.07,0.02 0.03,0.01 0.05,0.01 0.07,0.02l-0.04 0.03c-0.01,0.01 -0.02,0.03 -0.03,0.04l-0.09 -0.05c-0.03,-0.01 -0.05,-0.02 -0.06,-0.03 0,0 0,-0.01 0,-0.01 0.01,-0.01 0.01,-0.02 0.01,-0.02l0.03 0c0.01,0 0.02,0 0.03,0l0 -0.02 -0.17 0c0.01,0.01 0.02,0.02 0.03,0.04 0.01,0 0.02,0.01 0.04,0.02 -0.05,0.02 -0.08,0.03 -0.11,0.04 -0.04,0.01 -0.08,0.02 -0.11,0.03 -0.01,-0.01 -0.01,-0.02 -0.01,-0.02 -0.01,-0.01 -0.01,-0.02 -0.01,-0.02 0.02,-0.01 0.04,-0.02 0.06,-0.03 0.02,-0.01 0.04,-0.03 0.07,-0.04 -0.01,0 -0.02,0 -0.03,0 -0.02,0 -0.03,0 -0.04,0.01l0 0 0 -0.03c-0.01,0 -0.02,0.01 -0.04,0.02 -0.01,0.01 -0.02,0.02 -0.03,0.03 0,-0.02 -0.01,-0.04 -0.02,-0.07 -0.01,-0.02 -0.01,-0.04 -0.02,-0.06l0 0.19c-0.02,0 -0.04,0.01 -0.05,0.01 -0.02,0 -0.04,0 -0.05,0.01l0 0 0 -0.15c-0.02,0.01 -0.03,0.03 -0.04,0.05 -0.02,0.03 -0.04,0.05 -0.04,0.06l-0.02 -0.02 -0.02 -0.02c0.01,-0.03 0.02,-0.06 0.03,-0.09 0.01,-0.03 0.01,-0.05 0.02,-0.07 0,0 0.01,0 0.02,0 0.01,0 0.02,0.01 0.03,0.01 0,0 0.01,0 0.02,0l0 -0.05c-0.02,0 -0.04,0 -0.06,0 -0.01,0.01 -0.03,0.01 -0.05,0.01 0,-0.01 0,-0.02 0,-0.04 -0.01,-0.02 -0.01,-0.03 -0.01,-0.04l0 -0.01c0,0 0.01,0 0.02,0 0.01,0 0.02,0 0.02,0 0.01,-0.01 0.02,-0.02 0.02,-0.03 0.01,-0.01 0.02,-0.01 0.02,-0.02l0.01 -0.02c-0.01,-0.02 -0.03,-0.05 -0.04,-0.07 -0.02,-0.02 -0.03,-0.05 -0.05,-0.07 0.01,-0.01 0.01,-0.02 0.02,-0.02 0,-0.01 0.01,-0.01 0.02,-0.02 0,0 0,0 0.01,0.01 0.01,0 0.01,0.01 0.02,0.01 0.01,-0.03 0.01,-0.05 0.02,-0.08 0.01,-0.03 0.02,-0.06 0.03,-0.08l0 -0.01zm0.45 0.08l0 0.04 0.08 0c0,0 0,-0.01 0.01,-0.02 0.01,-0.01 0.01,-0.01 0.02,-0.02l-0.11 0zm-0.26 0.08c0,0.01 0.01,0.01 0.01,0.02 0.02,0 0.03,0 0.04,0.01 0.02,0 0.02,0 0.03,0l0.26 0 0.01 -0.01c0.01,-0.01 0.01,-0.02 0.02,-0.02l-0.37 0zm-0.02 0.05c-0.02,0.03 -0.05,0.06 -0.08,0.1 -0.03,0.02 -0.06,0.05 -0.09,0.08 0.01,0 0.03,0 0.05,-0.01l0.05 0 -0.01 -0.02c0,-0.01 -0.01,-0.02 -0.01,-0.02 0.01,-0.01 0.01,-0.01 0.02,-0.01 0,-0.01 0.01,-0.01 0.02,-0.02 0.01,0.01 0.01,0.02 0.02,0.03 0.01,0.01 0.02,0.01 0.03,0.02l0 -0.15zm0.09 0.03l0 0.05 0.04 0 0 -0.05 -0.04 0zm0.12 0l0 0.05 0.04 0 0 -0.05 -0.04 0zm0.11 0l0 0.05 0.04 0 0 -0.05 -0.04 0zm-0.23 0.09c0,0.01 0.01,0.02 0.03,0.03 0.01,0 0.02,0.01 0.03,0.01l0.16 0c0.01,0 0.01,-0.01 0.02,-0.01 0.01,-0.01 0.02,-0.02 0.03,-0.03l-0.27 0zm-0.05 0.02c0,0 -0.01,0 -0.02,0 -0.01,0.01 -0.02,0.01 -0.02,0.01 0,0.01 0.01,0.01 0.02,0.02 0.01,0.01 0.01,0.02 0.02,0.02l0 -0.05zm0.11 0.07l0 0.03 0.17 0 0 -0.03 -0.17 0zm-0.2 0.02c-0.01,0 -0.02,0 -0.03,0.01l0 0.09c0.01,0 0.02,-0.01 0.03,-0.02 0.01,0 0.01,-0.01 0.02,-0.01 0.01,0.01 0.02,0.02 0.04,0.04 0.01,0.02 0.02,0.03 0.03,0.04l0 -0.15c-0.01,0 -0.01,0.01 -0.02,0.01l-0.02 0.02c-0.01,0 -0.02,0.01 -0.03,0.01 0,-0.01 -0.01,-0.02 -0.01,-0.02 0,-0.01 -0.01,-0.02 -0.01,-0.02zm0.2 0.04l0 0.03 0.17 0 0 -0.03 -0.17 0zm0 0.07l0 0.04 0.17 0 0 -0.04 -0.17 0zm0.72 -0.56c0.02,0 0.04,0.01 0.07,0.01l0.06 0.01 0 0.01 0 0.15 0.17 0c0,-0.01 0.01,-0.01 0.02,-0.03 0.02,-0.01 0.02,-0.01 0.03,-0.02 0.01,0.01 0.03,0.03 0.04,0.04 0.01,0.01 0.02,0.02 0.03,0.03l0 0.02 -0.29 0 0 0.21 0.16 0c0,0 0,0 0.02,-0.02 0.01,-0.01 0.02,-0.01 0.02,-0.02 0.01,0.01 0.03,0.02 0.04,0.04l0.03 0.02 0.01 0.01 0 0.02 -0.28 0 0 0.22 0.18 0c0,0 0.01,-0.01 0.02,-0.02 0.01,0 0.02,-0.01 0.03,-0.02 0.01,0.01 0.02,0.02 0.03,0.03 0.01,0.01 0.03,0.02 0.04,0.03l0 0.03 -0.76 0 0 -0.05 0.33 0 0 -0.22 -0.26 0 0 -0.05 0.26 0 0 -0.21 -0.14 0c-0.03,0.06 -0.06,0.1 -0.08,0.13 -0.02,0.03 -0.04,0.05 -0.06,0.06 -0.01,-0.01 -0.02,-0.01 -0.03,-0.02 -0.01,-0.01 -0.02,-0.02 -0.03,-0.03 0.03,-0.05 0.05,-0.1 0.06,-0.13 0.02,-0.04 0.04,-0.09 0.05,-0.14 0,-0.02 0,-0.03 0.01,-0.03 0,-0.01 0,-0.02 0.01,-0.03l0.07 0.01 0.07 0.02c-0.01,0.02 -0.02,0.04 -0.02,0.06 -0.01,0.02 -0.02,0.04 -0.02,0.06l0.11 0 0 -0.18zm0.57 0c0.03,0.02 0.06,0.04 0.08,0.06 0.01,0.01 0.02,0.03 0.04,0.05l0 0c-0.01,0.01 -0.02,0.02 -0.04,0.04 -0.01,0.02 -0.03,0.03 -0.04,0.04 -0.01,-0.02 -0.02,-0.05 -0.04,-0.08 -0.01,-0.03 -0.02,-0.05 -0.04,-0.08 0.01,0 0.02,-0.01 0.02,-0.01 0.01,-0.01 0.01,-0.01 0.02,-0.02zm0.57 0c0.01,0.01 0.02,0.03 0.04,0.04 0.02,0.02 0.03,0.03 0.04,0.05 -0.02,0 -0.05,0.01 -0.09,0.02 -0.02,0.01 -0.05,0.02 -0.08,0.02l-0.01 0.01 0 0.12 0.09 0c0,0 0.01,-0.01 0.02,-0.02 0.01,-0.01 0.02,-0.02 0.02,-0.02 0.02,0.01 0.04,0.02 0.05,0.03 0.01,0.01 0.02,0.03 0.03,0.03l0 0.03 -0.21 0 0 0.14 0.05 0c0.01,-0.01 0.02,-0.01 0.02,-0.02 0.01,-0.01 0.02,-0.01 0.03,-0.02 0.02,0.01 0.03,0.03 0.05,0.04l0.05 0.04c0,0 -0.01,0 -0.02,0.01 0,0.01 -0.01,0.01 -0.01,0.01l0 0.23 -0.05 0.01 -0.06 0.01 0 0 0 -0.05 -0.25 0 0 0.04 -0.06 0.01 -0.06 0.01 0 0 0 -0.36 0.01 0 0.04 0.02 0.07 0.02 0.06 0 0 -0.14 -0.19 0 0 -0.04c-0.02,0.04 -0.04,0.09 -0.07,0.14 -0.02,0.05 -0.04,0.09 -0.06,0.14 0.02,0.02 0.03,0.04 0.05,0.07 0,0.01 0.01,0.03 0.03,0.05l0 0.01 -0.05 0.04c-0.02,0.01 -0.04,0.02 -0.06,0.04 0,-0.04 -0.01,-0.08 -0.02,-0.12 -0.01,-0.03 -0.02,-0.05 -0.02,-0.07 -0.01,-0.01 -0.01,-0.02 -0.01,-0.03 0.01,-0.02 0.03,-0.06 0.07,-0.12 0.05,-0.08 0.09,-0.16 0.14,-0.23 0.01,0 0.01,0.01 0.02,0.01 0,0.01 0,0.01 -0.01,0.02 0,0.01 0,0.01 -0.01,0.02 0,0.01 0,0.01 0,0.02l0.19 0 0 -0.11 -0.07 0.01 -0.06 0 -0.01 0c-0.01,-0.01 -0.01,-0.02 -0.01,-0.02 0,-0.01 0,-0.02 0,-0.03 0.06,-0.01 0.12,-0.03 0.17,-0.04 0.06,-0.02 0.12,-0.03 0.16,-0.05 0.01,0 0.01,0 0.02,-0.01 0.01,0 0.02,0 0.03,-0.01zm-0.62 0.18l0.08 0.05c0.01,0.02 0.03,0.04 0.04,0.05 -0.02,0.02 -0.03,0.03 -0.04,0.04 -0.01,0.01 -0.02,0.02 -0.04,0.04 -0.02,-0.04 -0.04,-0.08 -0.05,-0.1 -0.02,-0.03 -0.03,-0.05 -0.03,-0.05 0.01,-0.01 0.02,-0.02 0.02,-0.02 0,0 0.01,-0.01 0.02,-0.01zm0.33 0.33l0 0.15 0.25 0 0 -0.15 -0.25 0z"/>
   </g>
   <path class="fil1" d="M5.96 0.38c-0.13,0.13 -0.25,0.25 -0.38,0.38l-0.02 -0.03 -0.08 -0.08 -0.03 -0.03 0.03 -0.02c0.04,-0.04 0.08,-0.08 0.12,-0.12l0.05 0.05 -0.09 0.09 0.02 0.03c0.09,-0.09 0.18,-0.18 0.27,-0.27 -0.09,-0.09 -0.18,-0.17 -0.27,-0.26l-0.02 0.02 0.09 0.1 -0.05 0.05c-0.04,-0.04 -0.08,-0.08 -0.12,-0.12l-0.03 -0.03 0.03 -0.02 0.08 -0.08 0.02 -0.03c0.13,0.12 0.25,0.25 0.38,0.37zm-0.2 0.07l-0.07 -0.07 0.07 -0.06 0.07 0.06 -0.07 0.07zm-0.5 -0.01l-0.05 -0.06 0.05 -0.05 0.06 0.05 -0.06 0.06zm0.47 -0.15l-0.04 0.04 -0.05 0.05 0.09 0.1 -0.05 0.05c-0.05,-0.05 -0.1,-0.1 -0.15,-0.15l0 0 0 0c0.05,-0.05 0.1,-0.09 0.15,-0.14l0.05 0.05zm-0.16 0.16l-0.12 0.12 0 0 -0.03 0.03 -0.02 -0.03 -0.08 -0.08 -0.03 -0.03 0.03 -0.02 0.05 -0.06 -0.05 -0.05 -0.03 -0.03 0.03 -0.02 0.08 -0.08 0.02 -0.03 0.03 0.03 0.12 0.12 -0.05 0.05 -0.1 -0.09 -0.02 0.02 0.08 0.08 0 0 0 0 -0.08 0.08 0.02 0.03 0.1 -0.09 0.05 0.05z"/>
  </g>
 </g>
</svg>
