<?xml version="1.0" encoding="UTF-8"?>
<!DOCTYPE svg PUBLIC "-//W3C//DTD SVG 1.1//EN" "http://www.w3.org/Graphics/SVG/1.1/DTD/svg11.dtd">
<!-- Creator: CorelDRAW 2017 -->
<svg xmlns="http://www.w3.org/2000/svg" xml:space="preserve" width="322px" height="90px" version="1.1" style="shape-rendering:geometricPrecision; text-rendering:geometricPrecision; image-rendering:optimizeQuality; fill-rule:evenodd; clip-rule:evenodd"
viewBox="0 0 7.78 2.16"
 xmlns:xlink="http://www.w3.org/1999/xlink">
 <defs>
  <style type="text/css">
   <![CDATA[
    .fil1 {fill:white}
    .fil0 {fill:white;fill-rule:nonzero}
   ]]>
  </style>
 </defs>
 <g id="图层_x0020_1">
  <metadata id="CorelCorpID_0Corel-Layer"/>
  <g id="_1916855601344">
   <path class="fil0" d="M3.25 0.57c0.05,0.02 0.09,0.04 0.13,0.06 0.01,0 0.02,0.01 0.01,0.03 0,0.01 0,0.02 -0.01,0.02l0.24 0 0.04 -0.05 0.11 0.09 -0.02 0.05 -0.27 0 0.07 0.02c-0.02,0.03 -0.05,0.06 -0.09,0.09l0.09 0 0.04 -0.05 0.13 0.08 -0.04 0.05 0 0.41c0.02,0.08 -0.03,0.13 -0.14,0.13 0,-0.04 -0.03,-0.06 -0.08,-0.06l-0.01 -0.05c0.07,0 0.11,-0.01 0.1,-0.04l0 -0.26c-0.01,0.02 -0.02,0.04 -0.02,0.04 -0.01,0.02 -0.02,0.02 -0.03,0.01 -0.04,-0.04 -0.09,-0.09 -0.16,-0.14l0.04 -0.04c0.06,0.02 0.12,0.04 0.17,0.07l0 -0.07 -0.33 0 0.08 0.06c-0.03,0.02 -0.06,0.05 -0.1,0.06l0.04 0 0 0.02 0.12 0 0.03 -0.03 0.11 0.08 -0.02 0.02 0 0.2 -0.12 0 0 -0.04 -0.12 0 0 0.05 -0.11 0 0 -0.26c0,0.01 -0.01,0.01 -0.02,0.01 -0.01,0.01 -0.01,0.01 -0.02,0.01l-0.03 -0.02 0 0.38 -0.13 0 0 -0.65 0.13 0 0 0.03 0.1 0c-0.02,-0.03 -0.04,-0.06 -0.07,-0.09l0.03 -0.02 -0.24 0 -0.02 -0.09 0.41 0c-0.02,-0.03 -0.04,-0.05 -0.06,-0.08l0.04 -0.03zm0 0.28c0,0.01 -0.01,0.02 -0.02,0.03l0.14 0c0.02,-0.04 0.04,-0.08 0.05,-0.11l-0.26 0c0,0 0,0 0.01,0 0.02,0.01 0.05,0.02 0.07,0.04 0.02,0.01 0.02,0.02 0.01,0.04zm-0.01 0.33l0 0.08 0.12 0 0 -0.08 -0.12 0zm-0.18 -0.09c0.06,-0.04 0.1,-0.09 0.13,-0.13l-0.13 0 0 0.13z"/>
   <path id="1" class="fil0" d="M3.9 1.35l0.28 0 0 -0.28c-0.02,0.03 -0.04,0.06 -0.07,0.1 -0.01,0.01 -0.02,0.02 -0.02,0.02 -0.01,-0.01 -0.02,-0.02 -0.03,-0.03 -0.03,-0.11 -0.07,-0.21 -0.12,-0.31l0.06 -0.04c0.06,0.06 0.12,0.13 0.18,0.21l0 -0.41 0.14 0 0 0.74 0.08 0 0 -0.74 0.14 0 0 0.74 0.12 0 0.05 -0.07 0.14 0.11 -0.03 0.05 -0.9 0 -0.02 -0.09zm0.64 -0.16c0.06,-0.14 0.09,-0.28 0.11,-0.42l0.17 0.07c-0.06,0.14 -0.13,0.27 -0.22,0.38l-0.06 -0.03z"/>
   <path id="2" class="fil0" d="M5.28 0.69c0.2,-0.03 0.35,-0.06 0.46,-0.11l0.08 0.13c-0.03,0.01 -0.1,0.02 -0.19,0.03 -0.01,0 -0.02,0 -0.02,0l0 0.12 0.13 0 0.04 -0.04 0.11 0.08 -0.04 0.05 -0.24 0 0 0.13 0.05 0 0.04 -0.05 0.14 0.09 -0.04 0.05 0 0.31 -0.13 0 0 -0.06 -0.24 0 0 0.06 -0.14 0 0 -0.42 0.14 0 0 0.02 0.04 0 0 -0.13 -0.21 0 -0.03 -0.09 0.24 0 0 -0.11c-0.06,0.01 -0.12,0.01 -0.17,0l-0.02 -0.06zm-0.32 0.47c0.08,0.01 0.13,0.01 0.13,-0.02 0.03,-0.06 0.07,-0.13 0.1,-0.21l0.06 0.02c-0.02,0.07 -0.04,0.14 -0.07,0.23 -0.02,0.06 -0.03,0.14 -0.01,0.25 0.01,0.03 0,0.04 -0.03,0.05 -0.02,0 -0.05,0 -0.09,0 -0.03,0.01 -0.04,-0.01 -0.03,-0.04 0.02,-0.07 0.03,-0.12 0.03,-0.14 0.01,-0.04 -0.02,-0.07 -0.08,-0.07l-0.01 -0.07zm0.47 0.01l0 0.17 0.24 0 0 -0.17 -0.24 0zm-0.44 -0.36c0.06,0.02 0.11,0.04 0.15,0.06 0.01,0.01 0.02,0.02 0.01,0.04 -0.01,0.03 -0.02,0.05 -0.04,0.08 -0.01,0.02 -0.02,0.02 -0.04,0 -0.04,-0.05 -0.08,-0.09 -0.12,-0.13l0.04 -0.05zm0.08 -0.21c0.06,0.02 0.11,0.04 0.15,0.06 0.01,0 0.02,0.01 0.01,0.03 -0.01,0.03 -0.02,0.06 -0.03,0.08 -0.01,0.02 -0.03,0.02 -0.04,0.01 -0.06,-0.07 -0.1,-0.11 -0.12,-0.13l0.03 -0.05z"/>
   <path id="3" class="fil0" d="M6.47 0.8l0.1 0 0 -0.22 0.13 0 0 0.22 0.06 0 0.05 -0.05 0.13 0.1 -0.03 0.03c-0.01,0.22 -0.01,0.38 -0.02,0.48 0.01,0.07 -0.05,0.11 -0.17,0.11 0,-0.05 -0.03,-0.07 -0.09,-0.08l0 -0.05c0,0 0.02,0 0.04,0 0.03,0.01 0.04,0.01 0.05,0.01 0.02,0 0.03,-0.02 0.03,-0.05 0.01,-0.09 0.02,-0.23 0.02,-0.41l-0.07 0 0 0c0,0.26 -0.08,0.46 -0.25,0.6l-0.06 -0.03c0.12,-0.14 0.18,-0.33 0.18,-0.56l0 -0.01 -0.09 0 -0.01 -0.09zm-0.11 0.26c0.05,0.04 0.1,0.09 0.14,0.13 0.02,0.02 0.02,0.03 0.01,0.04 -0.02,0.03 -0.05,0.06 -0.08,0.08 -0.02,0.01 -0.03,0.01 -0.03,-0.01 0,0 0,-0.01 -0.01,-0.02 0,-0.01 0,-0.01 0,-0.02 -0.14,0.06 -0.25,0.1 -0.33,0.11l-0.04 -0.15c0.04,-0.01 0.07,-0.03 0.09,-0.06 0.02,-0.04 0.04,-0.1 0.06,-0.17l-0.13 0 -0.02 -0.09 0.35 0 0.04 -0.05 0.11 0.09 -0.04 0.05 -0.22 0 0.07 0.02c-0.05,0.08 -0.1,0.15 -0.14,0.2l0.16 -0.03c-0.01,-0.03 -0.02,-0.07 -0.04,-0.1l0.05 -0.02zm-0.29 -0.38l0.26 0 0.04 -0.04 0.1 0.08 -0.03 0.05 -0.35 0 -0.02 -0.09z"/>
   <path class="fil0" d="M0.1 0l2.06 0 0 0.65 0.52 0.43 -0.52 0.43 0 0.65 -2.16 0 0 -2.16 0.1 0zm1.86 0.2l-1.76 0 0 1.76 1.76 0 0 -0.54 0.41 -0.34 -0.41 -0.34 0 -0.54z"/>
   <polygon class="fil1" points="2.18,1.08 2.07,1 1.96,0.92 1.96,1.08 1.96,1.24 2.07,1.16 "/>
   <path class="fil0" d="M2.41 1.85c0,-0.02 0.01,-0.03 0.02,-0.04 0,-0.01 0.02,-0.01 0.03,-0.01l0.07 0c0.01,0 0.03,0 0.03,0.01 0.01,0.01 0.02,0.02 0.02,0.04l0 0.04 -0.06 0.03 0 -0.07 -0.05 0 0 0.25 0.05 0 0 -0.05 0.06 -0.03 0 0.09c0,0.02 -0.01,0.03 -0.02,0.04 0,0.01 -0.02,0.01 -0.03,0.01l-0.07 0c-0.01,0 -0.03,0 -0.03,-0.01 -0.01,-0.01 -0.02,-0.02 -0.02,-0.04l0 -0.26z"/>
   <polygon id="1" class="fil0" points="5.76,2.16 5.61,2.16 5.61,1.8 5.76,1.8 5.76,1.85 5.67,1.85 5.67,1.95 5.76,1.91 5.76,1.97 5.67,2.01 5.67,2.1 5.76,2.1 "/>
   <path id="2" class="fil0" d="M2.63 1.85c0,-0.02 0.01,-0.03 0.02,-0.04 0,-0.01 0.02,-0.01 0.03,-0.01l0.07 0c0.01,0 0.03,0 0.03,0.01 0.01,0.01 0.02,0.02 0.02,0.04l0 0.26c0,0.02 -0.01,0.03 -0.02,0.04 0,0.01 -0.02,0.01 -0.03,0.01l-0.07 0c-0.01,0 -0.03,0 -0.03,-0.01 -0.01,-0.01 -0.02,-0.02 -0.02,-0.04l0 -0.26zm0.11 0l-0.05 0 0 0.25 0.05 0 0 -0.25z"/>
   <path id="3" class="fil0" d="M2.91 2.16l-0.05 0 0 -0.36 0.05 0 0.01 0.02c0,-0.01 0,-0.01 0.01,-0.02 0,0 0.01,0 0.02,0l0.02 0c0.02,0 0.03,0 0.04,0.01 0,0.01 0.01,0.02 0.01,0.04l0 0.31 -0.06 0 0 -0.31 -0.05 0 0 0.31z"/>
   <polygon id="4" class="fil0" points="3.08,2.16 3.08,1.8 3.22,1.8 3.22,1.85 3.14,1.85 3.14,1.95 3.22,1.91 3.22,1.97 3.14,2.01 3.14,2.16 "/>
   <polygon id="5" class="fil0" points="3.41,2.16 3.27,2.16 3.27,1.8 3.41,1.8 3.41,1.85 3.33,1.85 3.33,1.95 3.41,1.91 3.41,1.97 3.33,2.01 3.33,2.1 3.41,2.1 "/>
   <path id="6" class="fil0" d="M3.62 1.98l-0.04 0.02 0.07 0.16 -0.06 0 -0.06 -0.14 -0.01 0.01 0 0.13 -0.06 0 0 -0.36 0.12 0c0.01,0 0.02,0 0.03,0.01 0.01,0.01 0.01,0.02 0.01,0.04l0 0.13zm-0.06 -0.04l0 -0.09 -0.04 0 0 0.11 0.04 -0.02z"/>
   <polygon id="7" class="fil0" points="3.83,2.16 3.68,2.16 3.68,1.8 3.83,1.8 3.83,1.85 3.74,1.85 3.74,1.95 3.83,1.91 3.83,1.97 3.74,2.01 3.74,2.1 3.83,2.1 "/>
   <path id="8" class="fil0" d="M3.94 2.16l-0.06 0 0 -0.36 0.06 0 0 0.02c0,-0.01 0,-0.01 0.01,-0.02 0,0 0.01,0 0.02,0l0.02 0c0.02,0 0.03,0 0.04,0.01 0.01,0.01 0.01,0.02 0.01,0.04l0 0.31 -0.06 0 0 -0.31 -0.04 0 0 0.31z"/>
   <path id="9" class="fil0" d="M4.1 1.85c0,-0.02 0,-0.03 0.01,-0.04 0.01,-0.01 0.02,-0.01 0.04,-0.01l0.06 0c0.02,0 0.03,0 0.04,0.01 0.01,0.01 0.01,0.02 0.01,0.04l0 0.04 -0.06 0.03 0 -0.07 -0.04 0 0 0.25 0.04 0 0 -0.05 0.06 -0.03 0 0.09c0,0.02 0,0.03 -0.01,0.04 -0.01,0.01 -0.02,0.01 -0.04,0.01l-0.06 0c-0.02,0 -0.03,0 -0.04,-0.01 -0.01,-0.01 -0.01,-0.02 -0.01,-0.04l0 -0.26z"/>
   <polygon id="10" class="fil0" points="4.46,2.16 4.32,2.16 4.32,1.8 4.46,1.8 4.46,1.85 4.38,1.85 4.38,1.95 4.46,1.91 4.46,1.97 4.38,2.01 4.38,2.1 4.46,2.1 "/>
   <path id="11" class="fil0" d="M4.51 1.85c0,-0.02 0.01,-0.03 0.02,-0.04 0.01,-0.01 0.02,-0.01 0.03,-0.01l0.07 0c0.01,0 0.03,0 0.04,0.01 0,0.01 0.01,0.02 0.01,0.04l0 0 -0.06 0.04 0 -0.04 -0.05 0 0 0.09 0.11 -0.05 0 0.22c0,0.02 -0.01,0.03 -0.01,0.04 -0.01,0.01 -0.03,0.01 -0.04,0.01l-0.07 0c-0.01,0 -0.02,0 -0.03,-0.01 -0.01,-0.01 -0.02,-0.02 -0.02,-0.04l0 -0.03 0.06 -0.04 0 0.06 0.05 0 0 -0.11 -0.11 0.05 0 -0.19z"/>
   <path id="12" class="fil0" d="M4.94 1.94l0 -0.09 -0.04 0 0 0.11 0.04 -0.02zm0.06 0.22l-0.06 0 0 -0.15 -0.04 0.02 0 0.13 -0.06 0 0 -0.31c0,-0.02 0,-0.03 0.01,-0.04 0.01,-0.01 0.02,-0.01 0.04,-0.01l0.07 0c0.01,0 0.02,0 0.03,0.01 0.01,0.01 0.01,0.02 0.01,0.04l0 0.31z"/>
   <path id="13" class="fil0" d="M5.12 2.16l-0.06 0 0 -0.36 0.06 0 0 0.02c0,-0.01 0.01,-0.01 0.01,-0.02 0.01,0 0.02,0 0.03,0l0.02 0c0.01,0 0.03,0 0.03,0.01 0.01,0.01 0.02,0.02 0.02,0.04l0 0.31 -0.06 0 0 -0.31 -0.05 0 0 0.31z"/>
   <path id="14" class="fil0" d="M5.4 1.8c0.01,0 0.03,0 0.04,0.01 0,0.01 0.01,0.02 0.01,0.04l0 0.26c0,0.02 -0.01,0.03 -0.01,0.04 -0.01,0.01 -0.02,0.01 -0.04,0.01l-0.12 0 0 -0.36 0.12 0zm-0.01 0.05l-0.05 0 0 0.25 0.05 0 0 -0.25z"/>
   <polygon id="15" class="fil0" points="5.84,1.97 5.79,1.8 5.85,1.8 5.88,1.89 5.9,1.8 5.96,1.8 5.91,1.97 5.97,2.16 5.91,2.16 5.88,2.06 5.85,2.16 5.79,2.16 "/>
   <polygon id="16" class="fil0" points="6.17,1.8 6.17,2.16 6.11,2.16 6.11,1.99 6.06,2.01 6.06,2.16 6,2.16 6,1.8 6.06,1.8 6.06,1.95 6.11,1.93 6.11,1.8 "/>
   <polygon id="17" class="fil0" points="6.29,2.16 6.23,2.16 6.23,1.8 6.29,1.8 "/>
   <path id="18" class="fil0" d="M6.45 2.1l0 -0.11 -0.05 0.02 0 0.09 0.05 0zm0.06 -0.13l0 0.14c0,0.02 -0.01,0.03 -0.01,0.04 -0.01,0.01 -0.03,0.01 -0.04,0.01l-0.12 0 0 -0.36 0.12 0c0.02,0 0.03,0 0.04,0.01 0,0.01 0.01,0.02 0.01,0.04l0 0.07c0,0.01 0,0.02 -0.01,0.03 0,0.01 -0.01,0.01 -0.02,0.02l0.03 0zm-0.06 -0.04l0 -0.08 -0.05 0 0 0.1 0.05 -0.02z"/>
   <polygon id="19" class="fil0" points="6.63,2.16 6.57,2.16 6.57,1.8 6.63,1.8 "/>
   <polygon id="20" class="fil0" points="6.72,2.16 6.72,1.85 6.67,1.85 6.67,1.8 6.84,1.8 6.84,1.85 6.78,1.85 6.78,2.16 "/>
   <polygon id="21" class="fil0" points="6.94,2.16 6.88,2.16 6.88,1.8 6.94,1.8 "/>
   <path id="22" class="fil0" d="M7 1.85c0,-0.02 0,-0.03 0.01,-0.04 0.01,-0.01 0.02,-0.01 0.04,-0.01l0.07 0c0.01,0 0.02,0 0.03,0.01 0.01,0.01 0.01,0.02 0.01,0.04l0 0.26c0,0.02 0,0.03 -0.01,0.04 -0.01,0.01 -0.02,0.01 -0.03,0.01l-0.07 0c-0.02,0 -0.03,0 -0.04,-0.01 -0.01,-0.01 -0.01,-0.02 -0.01,-0.04l0 -0.26zm0.1 0l-0.04 0 0 0.25 0.04 0 0 -0.25z"/>
   <path id="23" class="fil0" d="M7.28 2.16l-0.06 0 0 -0.36 0.06 0 0 0.02c0,-0.01 0.01,-0.01 0.01,-0.02 0.01,0 0.02,0 0.03,0l0.02 0c0.01,0 0.02,0 0.03,0.01 0.01,0.01 0.02,0.02 0.02,0.04l0 0.31 -0.06 0 0 -0.31 -0.05 0 0 0.31z"/>
   <rect class="fil1" x="5.14" width="2.64" height="0.2"/>
   <rect class="fil1" transform="matrix(1.10478E-14 0.757736 -0.342784 1.6491E-14 7.77926 -2.42434E-05)" width="2.85" height="0.57"/>
   <path class="fil1" d="M1.89 0.27l-1.63 0 0 1.63 1.63 0 0 -1.63zm-0.63 0.53l-0.17 -0.17 -0.4 0.07 -0.07 0.39 0.09 0.09 0.55 -0.38zm-0.4 -0.02c0.02,0.03 0.02,0.06 0,0.09 -0.02,0.02 -0.06,0.02 -0.08,0 -0.02,-0.03 -0.02,-0.06 0,-0.09 0.02,-0.02 0.06,-0.02 0.08,0zm-0.23 0.45l-0.09 -0.09c-0.01,-0.01 -0.02,-0.02 -0.02,-0.04l0.08 -0.45 0 0c0.01,-0.02 0.02,-0.04 0.04,-0.04l0.45 -0.08c0.02,-0.01 0.03,0 0.05,0.01l0.21 0.22c0.01,0 0.02,0.01 0.03,0.01 0.01,0.03 0.01,0.06 -0.01,0.07l-0.73 0.5c-0.02,0.01 -0.05,0 -0.06,-0.02 -0.02,-0.02 -0.01,-0.05 0.01,-0.06l0.04 -0.03zm0.27 0.14l0.14 0.14c0.02,0.02 0.05,0.03 0.08,0.03 0.02,0 0.05,-0.01 0.07,-0.03 0,0 0,0 0,0l0 0 0.32 -0.31c0.02,-0.02 0.03,-0.05 0.03,-0.08 0,-0.02 -0.01,-0.05 -0.03,-0.07 0,0 0,0 0,0l0 0 -0.06 -0.06 -0.55 0.38zm0.07 0.21l0 0 -0.16 -0.17c-0.01,0 -0.02,-0.01 -0.03,-0.02 -0.01,-0.02 -0.01,-0.05 0.01,-0.06l0.73 -0.5c0.02,-0.01 0.05,-0.01 0.06,0.01 0.02,0.03 0.01,0.06 -0.01,0.07l-0.04 0.03 0.05 0.04c0,0 0,0 0,0 0.04,0.04 0.05,0.09 0.05,0.14 0,0.05 -0.02,0.1 -0.05,0.14l0 0 -0.32 0.32c0,0 0,0 0,0 -0.04,0.04 -0.09,0.06 -0.14,0.06 -0.05,0 -0.11,-0.02 -0.15,-0.06z"/>
   <path class="fil0" d="M2.48 0.16l0 -0.06 -0.03 0.01 0 0.05 0.03 0zm0.04 -0.07l0 0.08c0,0.01 0,0.01 -0.01,0.02 0,0 -0.01,0 -0.02,0l-0.08 0 0 -0.19 0.08 0c0.01,0 0.02,0 0.02,0.01 0.01,0 0.01,0.01 0.01,0.02l0 0.04c0,0 0,0.01 0,0.01 0,0.01 -0.01,0.01 -0.02,0.01l0.02 0zm-0.04 -0.02l0 -0.04 -0.03 0 0 0.05 0.03 -0.01z"/>
   <path id="1" class="fil0" d="M2.62 0l0.04 0 0 0.16 0.03 0 0 -0.16 0.04 0 0 0.17c0,0.01 0,0.01 -0.01,0.02 0,0 -0.01,0 -0.02,0l-0.05 0c-0.01,0 -0.01,0 -0.02,0 -0.01,-0.01 -0.01,-0.01 -0.01,-0.02l0 -0.17z"/>
   <path id="2" class="fil0" d="M2.83 0.03c0,-0.01 0,-0.02 0.01,-0.02 0,-0.01 0.01,-0.01 0.02,-0.01l0.05 0c0.01,0 0.01,0 0.02,0.01 0.01,0 0.01,0.01 0.01,0.02l0 0 -0.04 0.02 0 -0.02 -0.03 0 0 0.05 0.07 -0.03 0 0.12c0,0.01 0,0.01 -0.01,0.02 -0.01,0 -0.01,0 -0.02,0l-0.05 0c-0.01,0 -0.02,0 -0.02,0 -0.01,-0.01 -0.01,-0.01 -0.01,-0.02l0 -0.02 0.04 -0.02 0 0.03 0.03 0 0 -0.06 -0.07 0.03 0 -0.1z"/>
   <polygon id="3" class="fil0" points="3.08,0.19 3.04,0.19 3.04,0 3.08,0 "/>
   <path id="4" class="fil0" d="M3.22 0.19l-0.04 0 0 -0.19 0.04 0 0 0.02c0,-0.01 0,-0.01 0.01,-0.01 0,-0.01 0,-0.01 0.01,-0.01l0.01 0c0.01,0 0.02,0 0.03,0.01 0,0 0.01,0.01 0.01,0.02l0 0.16 -0.04 0 0 -0.16 -0.03 0 0 0.16z"/>
   <polygon id="5" class="fil0" points="3.48,0.19 3.39,0.19 3.39,0 3.48,0 3.48,0.03 3.43,0.03 3.43,0.08 3.48,0.06 3.48,0.09 3.43,0.12 3.43,0.16 3.48,0.16 "/>
   <path id="6" class="fil0" d="M3.58 0.03c0,-0.01 0,-0.02 0.01,-0.02 0,-0.01 0.01,-0.01 0.02,-0.01l0.04 0c0.01,0 0.02,0 0.03,0.01 0,0 0.01,0.01 0.01,0.02l0 0 -0.04 0.02 0 -0.02 -0.03 0 0 0.05 0.07 -0.03 0 0.12c0,0.01 -0.01,0.01 -0.01,0.02 -0.01,0 -0.02,0 -0.03,0l-0.04 0c-0.01,0 -0.02,0 -0.02,0 -0.01,-0.01 -0.01,-0.01 -0.01,-0.02l0 -0.02 0.04 -0.02 0 0.03 0.03 0 0 -0.06 -0.07 0.03 0 -0.1z"/>
   <path id="7" class="fil0" d="M3.79 0.03c0,-0.01 0,-0.02 0,-0.02 0.01,-0.01 0.02,-0.01 0.03,-0.01l0.04 0c0.01,0 0.02,0 0.03,0.01 0,0 0,0.01 0,0.02l0 0 -0.04 0.02 0 -0.02 -0.02 0 0 0.05 0.06 -0.03 0 0.12c0,0.01 0,0.01 0,0.02 -0.01,0 -0.02,0 -0.03,0l-0.04 0c-0.01,0 -0.02,0 -0.03,0 0,-0.01 0,-0.01 0,-0.02l0 -0.02 0.04 -0.02 0 0.03 0.02 0 0 -0.06 -0.06 0.03 0 -0.1z"/>
   <polygon id="8" class="fil0" points="4.16,0.19 4.06,0.19 4.06,0 4.16,0 4.16,0.03 4.1,0.03 4.1,0.08 4.16,0.06 4.16,0.09 4.1,0.12 4.1,0.16 4.16,0.16 "/>
   <polygon id="9" class="fil0" points="4.28,0.19 4.24,0 4.28,0 4.3,0.12 4.33,0 4.37,0 4.33,0.19 "/>
   <polygon id="10" class="fil0" points="4.55,0.19 4.45,0.19 4.45,0 4.55,0 4.55,0.03 4.49,0.03 4.49,0.08 4.55,0.06 4.55,0.09 4.49,0.12 4.49,0.16 4.55,0.16 "/>
   <path id="11" class="fil0" d="M4.68 0.19l-0.04 0 0 -0.19 0.04 0 0 0.02c0,-0.01 0.01,-0.01 0.01,-0.01 0,-0.01 0.01,-0.01 0.02,-0.01l0.01 0c0.01,0 0.02,0 0.02,0.01 0.01,0 0.01,0.01 0.01,0.02l0 0.16 -0.04 0 0 -0.16 -0.03 0 0 0.16z"/>
   <polygon id="12" class="fil0" points="4.88,0.19 4.88,0.03 4.84,0.03 4.84,0 4.96,0 4.96,0.03 4.92,0.03 4.92,0.19 "/>
  </g>
 </g>
</svg>
