<?xml version="1.0" encoding="UTF-8"?>
<!DOCTYPE svg PUBLIC "-//W3C//DTD SVG 1.1//EN" "http://www.w3.org/Graphics/SVG/1.1/DTD/svg11.dtd">
<!-- Creator: CorelDRAW 2017 -->
<svg xmlns="http://www.w3.org/2000/svg" xml:space="preserve" width="1698px" height="647px" version="1.1" style="shape-rendering:geometricPrecision; text-rendering:geometricPrecision; image-rendering:optimizeQuality; fill-rule:evenodd; clip-rule:evenodd"
viewBox="0 0 240.93 91.82"
 xmlns:xlink="http://www.w3.org/1999/xlink">
 <defs>
  <style type="text/css">
   <![CDATA[
    .fil2 {fill:white}
    .fil0 {fill:#FEFEFE;fill-rule:nonzero}
    .fil1 {fill:white;fill-rule:nonzero}
   ]]>
  </style>
 </defs>
 <g id="图层_x0020_1">
  <metadata id="CorelCorpID_0Corel-Layer"/>
  <polygon class="fil0" points="1.03,1.72 0.92,1.97 0,1.97 0,0 1.03,0 0.92,0.25 0.34,0.25 0.34,0.86 0.8,0.86 0.69,1.11 0.34,1.11 0.34,1.72 "/>
  <polygon id="1" class="fil0" points="15.36,1.97 15,1.97 14.74,1.36 14.48,1.97 14.11,1.97 14.54,0.98 14.11,0 14.48,0 14.74,0.61 15,0 15.36,0 14.94,0.98 "/>
  <polygon id="2" class="fil0" points="29.63,1.97 29.29,1.97 29.29,1.11 28.83,1.11 28.83,1.97 28.49,1.97 28.49,0 28.83,0 28.83,0.86 29.29,0.86 29.29,0 29.63,0 "/>
  <polygon id="3" class="fil0" points="43.11,1.97 42.77,1.97 42.77,0 43.11,0 "/>
  <path id="4" class="fil0" d="M57.4 1.77c0,0.06 -0.02,0.11 -0.05,0.14 -0.04,0.04 -0.08,0.06 -0.13,0.06l-0.96 0 0 -1.97 0.96 0c0.05,0 0.09,0.02 0.13,0.06 0.03,0.04 0.05,0.08 0.05,0.14l0 0.59c0,0.05 -0.02,0.1 -0.05,0.14 -0.04,0.04 -0.08,0.06 -0.13,0.06 0.05,0 0.09,0.02 0.13,0.05 0.03,0.04 0.05,0.09 0.05,0.14l0 0.59zm-0.34 -0.91l0 -0.61 -0.46 0 0 0.61 0.46 0zm0 0.86l0 -0.61 -0.46 0 0 0.61 0.46 0z"/>
  <polygon id="5" class="fil0" points="70.88,1.97 70.54,1.97 70.54,0 70.88,0 "/>
  <polygon id="6" class="fil0" points="85.11,0 85,0.25 84.71,0.25 84.71,1.97 84.37,1.97 84.37,0.25 83.97,0.25 84.08,0 "/>
  <polygon id="7" class="fil0" points="98.53,1.97 98.19,1.97 98.19,0 98.53,0 "/>
  <path id="8" class="fil0" d="M112.82 1.77c0,0.06 -0.02,0.11 -0.06,0.14 -0.03,0.04 -0.08,0.06 -0.13,0.06l-0.77 0c-0.05,0 -0.1,-0.02 -0.13,-0.06 -0.04,-0.03 -0.06,-0.08 -0.06,-0.14l0 -1.57c0,-0.06 0.02,-0.1 0.06,-0.14 0.03,-0.04 0.08,-0.06 0.13,-0.06l0.77 0c0.05,0 0.1,0.02 0.13,0.06 0.04,0.04 0.06,0.08 0.06,0.14l0 1.57zm-0.35 -0.05l0 -1.47 -0.45 0 0 1.47 0.45 0z"/>
  <path id="9" class="fil0" d="M127.1 1.97l-0.35 0 0 -1.72 -0.45 0 0 1.72 -0.35 0 0 -1.97 0.97 0c0.05,0 0.09,0.02 0.12,0.06 0.04,0.04 0.06,0.08 0.06,0.14l0 1.77z"/>
  <path id="10" class="fil0" d="M141.86 1.03c0,0.06 -0.02,0.11 -0.06,0.14 -0.03,0.04 -0.08,0.06 -0.13,0.06l-0.61 0 0 0.74 -0.35 0 0 -1.97 0.96 0c0.05,0 0.1,0.02 0.13,0.06 0.04,0.04 0.06,0.08 0.06,0.14l0 0.83zm-0.35 -0.05l0 -0.73 -0.45 0 0 0.73 0.45 0z"/>
  <polygon id="11" class="fil0" points="155.97,1.72 155.85,1.97 154.94,1.97 154.94,0 155.28,0 155.28,1.72 "/>
  <polygon id="12" class="fil0" points="170.37,1.97 169.56,1.97 169.67,1.72 169.94,1.72 169.67,0.61 169.34,1.97 168.98,1.97 169.49,0 169.85,0 "/>
  <path id="13" class="fil0" d="M184.6 1.97l-0.34 0 0 -1.72 -0.46 0 0 1.72 -0.34 0 0 -1.97 0.96 0c0.05,0 0.09,0.02 0.13,0.06 0.03,0.04 0.05,0.08 0.05,0.14l0 1.77z"/>
  <path id="14" class="fil0" d="M198.88 1.97l-0.34 0 0 -1.72 -0.46 0 0 1.72 -0.34 0 0 -1.97 0.96 0c0.05,0 0.09,0.02 0.13,0.06 0.03,0.04 0.05,0.08 0.05,0.14l0 1.77z"/>
  <polygon id="15" class="fil0" points="212.36,1.97 212.02,1.97 212.02,0 212.36,0 "/>
  <path id="16" class="fil0" d="M226.65 1.97l-0.35 0 0 -1.72 -0.45 0 0 1.72 -0.35 0 0 -1.97 0.96 0c0.05,0 0.1,0.02 0.13,0.06 0.04,0.04 0.06,0.08 0.06,0.14l0 1.77z"/>
  <path id="17" class="fil0" d="M240.93 1.97l-0.96 0c-0.05,0 -0.1,-0.02 -0.13,-0.06 -0.04,-0.03 -0.06,-0.08 -0.06,-0.14l0 -1.57c0,-0.06 0.02,-0.1 0.06,-0.14 0.03,-0.04 0.08,-0.06 0.13,-0.06l0.96 0 -0.12 0.25 -0.68 0 0 1.47 0.45 0 0 -0.61 -0.22 0 0 -0.25 0.57 0 0 1.11z"/>
  <g id="_1916946863104">
   <path class="fil1" d="M12.04 69.99c-0.69,-0.21 -1.29,-0.44 -1.8,-0.7l0 0.73 -4.57 0 0 -0.73c-0.47,0.26 -1.04,0.49 -1.74,0.7l0 -0.7c1.5,-0.6 2.65,-1.5 3.43,-2.7l1.22 0c0.76,1.2 1.91,2.1 3.46,2.7l0 0.7zm-7.86 1.73l0 -0.76 7.62 0 0 0.76 -4.23 0c-0.37,0.67 -0.86,1.26 -1.49,1.77 1.55,0 2.8,-0.05 3.74,-0.14 -0.11,-0.34 -0.27,-0.68 -0.48,-1l0.97 0c0.41,0.67 0.73,1.38 0.93,2.15l-1.04 0c-0.02,-0.19 -0.07,-0.35 -0.13,-0.49 -1.3,0.16 -2.75,0.24 -4.37,0.24l-0.76 0 0 -0.76c0.65,-0.62 1.1,-1.21 1.35,-1.77l-2.11 0zm3.81 -4.05c-0.7,0.71 -1.45,1.26 -2.25,1.63l4.5 0c-0.81,-0.37 -1.56,-0.92 -2.25,-1.63z"/>
   <path id="1" class="fil1" d="M13.49 74.63l0 -0.76c0.44,-0.39 0.64,-1.04 0.62,-1.94l0 -4.95 6.89 0 0 0.97c0.03,0.74 -0.33,1.09 -1.07,1.07l-0.2 0 0 0.76 1.35 0 0 0.62 -1.35 0 0 0.83 1.62 0 0 0.63 -4.57 0 0 1.7c0.09,-0.03 0.22,-0.06 0.38,-0.11 0.35,-0.07 0.65,-0.15 0.9,-0.24l0 0.66c-0.55,0.27 -1.33,0.54 -2.32,0.79l0 -2.8 -0.55 0c0.04,1.29 -0.52,2.22 -1.7,2.77zm7.83 -0.14c-2.01,-0.28 -3.35,-1.08 -4.02,-2.42l1.14 0c0.23,0.37 0.5,0.68 0.8,0.93 0.34,-0.23 0.59,-0.54 0.73,-0.93l1 0c-0.3,0.64 -0.68,1.08 -1.14,1.31 0.32,0.19 0.82,0.35 1.49,0.49l0 0.62zm-6.14 -6.82l0 0.69 4.37 0c0.3,0.03 0.44,-0.11 0.41,-0.41l0 -0.28 -4.78 0zm0 2.73l0 0.83 1.25 0 0 -0.83 -1.25 0zm2.29 0l0 0.83 1.22 0 0 -0.83 -1.22 0zm-2.29 -1.38l0 0.76 1.25 0 0 -0.76 -1.25 0zm2.29 0l0 0.76 1.22 0 0 -0.76 -1.22 0z"/>
   <path id="2" class="fil1" d="M30.84 74.56c-1.66,-0.6 -2.79,-1.27 -3.4,-2.01l0 2.12 -1.1 0 0 -2.12c-0.65,0.74 -1.78,1.41 -3.4,2.01l0 -0.69c1.57,-0.69 2.67,-1.6 3.29,-2.7l-1.63 0 0 1.38 -1.01 0 0 -2.08 2.75 0 0 -0.62 -3.33 0 0 -0.69 3.33 0 0 -0.42 0.31 0 0 -0.55c0.58,-0.3 0.93,-0.85 1.07,-1.63l1.08 0c-0.03,0.09 -0.06,0.21 -0.11,0.38 -0.02,0.02 -0.03,0.04 -0.03,0.07l2.21 0 0 0.69 -1.24 0c0.14,0.3 0.24,0.66 0.31,1.07l-0.94 0c-0.02,-0.37 -0.1,-0.72 -0.24,-1.07l-0.45 0c-0.32,0.51 -0.88,0.86 -1.66,1.04l0.79 0 0 0.42 3.36 0 0 0.69 -3.36 0 0 0.62 2.84 0 0 1.15c0.03,0.69 -0.28,1.02 -0.93,1l-0.55 0c0.53,0.49 1.21,0.9 2.04,1.25l0 0.69zm-8.01 -5.72l0 -0.55c0.65,-0.4 1.04,-0.97 1.18,-1.73l1.04 0c-0.02,0.07 -0.05,0.17 -0.07,0.31 -0.04,0.07 -0.07,0.12 -0.07,0.17l2.01 0 0 0.66 -1.14 0c0.14,0.3 0.24,0.67 0.31,1.11l-0.94 0c-0.07,-0.42 -0.16,-0.79 -0.27,-1.11l-0.31 0c-0.33,0.53 -0.91,0.91 -1.74,1.14zm6.45 2.33l-1.77 0c0.3,0.48 0.67,0.93 1.11,1.35l0 -0.52 0.38 0c0.19,0 0.28,-0.09 0.28,-0.28l0 -0.55z"/>
   <path id="3" class="fil1" d="M35.85 74.59c-0.81,0 -1.41,-0.43 -1.8,-1.31 -0.39,0.25 -0.95,0.52 -1.66,0.79l0 -0.69c0.3,-0.16 0.71,-0.41 1.24,-0.76 0.07,-0.05 0.12,-0.08 0.14,-0.11 -0.09,-0.27 -0.16,-0.57 -0.21,-0.9 -0.11,-0.64 -0.2,-1.43 -0.27,-2.35l-0.97 0 0 -0.73 0.93 0c0,-0.55 0,-1.18 0,-1.87l1.08 0c0,0.69 0,1.32 0,1.87l2.53 0 0 0.73 -2.5 0c0.05,0.88 0.1,1.63 0.17,2.25l0.04 0.21c0.39,-0.39 0.75,-1.03 1.07,-1.91l1.04 0c-0.53,1.34 -1.15,2.31 -1.87,2.91 0.26,0.72 0.59,1.09 1.01,1.11 0.32,0.02 0.47,-0.17 0.45,-0.59l0.76 0c0.02,0.93 -0.37,1.38 -1.18,1.35zm2.15 -0.03l0 -0.73 0.59 0c0.27,0.03 0.41,-0.09 0.41,-0.34l0 -6.79 1.01 0 0 6.82c0.02,0.72 -0.33,1.07 -1.04,1.04l-0.97 0zm-0.76 -1.7l0 -5.54 1 0 0 5.54 -1 0zm-1.98 -4.64c-0.07,-0.51 -0.19,-0.96 -0.38,-1.35l0.87 0c0.2,0.37 0.36,0.82 0.45,1.35l-0.94 0z"/>
   <path class="fil1" d="M9.89 78.59c0.22,-0.3 0.39,-0.65 0.52,-1.04l0.22 0.08c-0.06,0.13 -0.11,0.25 -0.16,0.37l1.24 0c-0.02,0.98 -0.04,1.59 -0.06,1.82 0,0.21 -0.05,0.34 -0.13,0.42 -0.08,0.07 -0.22,0.11 -0.43,0.11 -0.15,0 -0.31,0 -0.48,-0.01 -0.01,-0.08 -0.03,-0.16 -0.05,-0.26 0.19,0.02 0.37,0.04 0.52,0.04 0.13,0 0.22,-0.02 0.27,-0.07 0.05,-0.04 0.07,-0.13 0.08,-0.26 0.01,-0.26 0.03,-0.79 0.05,-1.58l-1.11 0c-0.1,0.2 -0.2,0.37 -0.3,0.5 -0.05,-0.03 -0.11,-0.07 -0.18,-0.12zm-0.95 0.79c0.2,-0.31 0.34,-0.66 0.43,-1.03l-0.41 0 0 -0.19 0.41 0 0 -0.57 0.2 0 0 0.57 0.37 0 0 0.19 -0.37 0 0 0.39 0.08 -0.08c0.13,0.12 0.27,0.25 0.41,0.38l-0.16 0.16c-0.12,-0.14 -0.23,-0.26 -0.33,-0.36l0 1.55 -0.2 0 0 -1.48c-0.1,0.3 -0.21,0.54 -0.34,0.72 -0.02,-0.08 -0.05,-0.17 -0.09,-0.25zm1.78 -0.41l0.17 -0.1c0.14,0.25 0.29,0.51 0.44,0.8l-0.21 0.11c-0.02,-0.06 -0.04,-0.11 -0.07,-0.16 -0.25,0.02 -0.49,0.03 -0.74,0.05 -0.06,0.01 -0.14,0.02 -0.25,0.05l-0.1 -0.21c0.06,-0.04 0.11,-0.1 0.16,-0.16 0.15,-0.25 0.31,-0.55 0.46,-0.91l0.22 0.09c-0.11,0.25 -0.29,0.56 -0.52,0.93 0.28,0 0.51,-0.01 0.69,-0.02 -0.08,-0.16 -0.16,-0.32 -0.25,-0.47z"/>
   <path id="1" class="fil1" d="M13.97 79.54l0.73 0 0 -0.25 -0.64 0 0 -0.17 0.64 0 0 -0.26 -0.6 0 0 -0.17 0.6 0 0 -0.25 -0.75 0 0 -0.18 0.75 0 0 -0.25 -0.6 0 0 -0.17 0.6 0 0 -0.29 0.22 0 0 0.29 0.67 0 0 0.42 0.3 0 0 0.18 -0.3 0 0 0.5 -0.21 0 0 -0.08 -0.46 0 0 0.26 0.73 0 0 0.17 -0.73 0 0 0.25 0.86 0 0 0.17 -0.86 0 0 0.3 -0.22 0 0 -0.3 -0.73 0 0 -0.17zm-0.69 -0.49c0.06,0.24 0.14,0.43 0.25,0.58 0.1,-0.21 0.16,-0.45 0.19,-0.73l-0.58 0 0 -0.21 0.53 -0.66 -0.59 0 0 -0.19 0.86 0 0 0.19 -0.54 0.67 0.54 0 0 0.17c-0.04,0.36 -0.13,0.67 -0.26,0.93 0.21,0.18 0.53,0.28 0.97,0.28 0.37,0 0.79,0 1.28,-0.02 -0.04,0.08 -0.07,0.16 -0.1,0.23 -0.44,0 -0.87,0 -1.28,-0.01 -0.43,0 -0.76,-0.1 -0.99,-0.3 -0.1,0.16 -0.24,0.3 -0.39,0.42 -0.03,-0.06 -0.07,-0.12 -0.12,-0.19 0.14,-0.11 0.27,-0.24 0.36,-0.38 -0.13,-0.17 -0.23,-0.4 -0.32,-0.71l0.19 -0.07zm1.64 -0.36l0.46 0 0 -0.25 -0.46 0 0 0.25zm0.46 -0.68l-0.46 0 0 0.25 0.46 0 0 -0.25z"/>
   <path id="2" class="fil1" d="M19.02 79.56c0.28,0.25 0.52,0.48 0.73,0.7l-0.19 0.16c-0.06,-0.07 -0.13,-0.15 -0.22,-0.23 -0.47,0.03 -0.96,0.06 -1.46,0.09 -0.09,0.01 -0.17,0.03 -0.25,0.07l-0.13 -0.24c0.09,-0.04 0.17,-0.08 0.24,-0.14 0.17,-0.16 0.33,-0.35 0.48,-0.57l-0.96 0 0 -0.22 2.65 0 0 0.22 -1.39 0c-0.2,0.24 -0.39,0.46 -0.58,0.66 0.43,-0.02 0.83,-0.04 1.22,-0.06 -0.09,-0.09 -0.19,-0.19 -0.29,-0.3l0.15 -0.14zm-0.43 -1.75c-0.39,0.46 -0.82,0.82 -1.3,1.1 -0.04,-0.07 -0.1,-0.14 -0.16,-0.21 0.56,-0.28 1,-0.66 1.35,-1.12l0.3 0 -0.05 0.07c0.33,0.45 0.77,0.77 1.32,0.98 -0.06,0.08 -0.11,0.16 -0.16,0.25 -0.56,-0.28 -0.99,-0.63 -1.3,-1.07zm-0.8 0.78l1.59 0 0 0.21 -1.59 0 0 -0.21z"/>
   <path id="3" class="fil1" d="M21.89 78.67l0.47 0 0 -0.25 0.22 0 0 0.25 0.59 0 0 -0.25 0.22 0 0 0.25 0.54 0 0 0.19 -0.54 0 0 0.32 0.67 0 0 0.19 -1.21 0c0.08,0.14 0.19,0.26 0.32,0.36 0.15,-0.07 0.34,-0.17 0.58,-0.3l0.12 0.21c-0.2,0.09 -0.38,0.16 -0.52,0.22 0.21,0.13 0.47,0.21 0.77,0.25 -0.06,0.07 -0.11,0.15 -0.16,0.22 -0.63,-0.14 -1.08,-0.46 -1.34,-0.96l-0.31 0 0 0.72c0.03,-0.01 0.22,-0.07 0.58,-0.18 -0.01,0.07 -0.01,0.15 0,0.23 -0.18,0.05 -0.35,0.11 -0.52,0.17 -0.05,0.02 -0.12,0.05 -0.21,0.09l-0.13 -0.17c0.05,-0.03 0.07,-0.1 0.07,-0.2l0 -0.66 -0.34 0c-0.02,0.39 -0.13,0.73 -0.34,1.03 -0.04,-0.07 -0.1,-0.14 -0.16,-0.21 0.2,-0.26 0.3,-0.68 0.3,-1.26l0 -1.25 2.35 0 0 0.76 -0.21 0 0 -0.09 -1.92 0 0 0.38c0,0.16 0,0.31 -0.01,0.45l0.59 0 0 -0.32 -0.47 0 0 -0.19zm1.81 -0.8l-1.92 0 0 0.28 1.92 0 0 -0.28zm-1.12 1.31l0.59 0 0 -0.32 -0.59 0 0 0.32z"/>
   <path id="4" class="fil1" d="M25.39 80.09l0.35 0 0 -0.76 2.13 0 0 0.76 0.34 0 0 0.2 -2.82 0 0 -0.2zm0 -2.31l0.84 0 0 -0.23 0.21 0 0 0.23 0.72 0 0 -0.23 0.22 0 0 0.23 0.82 0 0 0.21 -0.82 0 0 0.16 -0.22 0 0 -0.16 -0.72 0 0 0.16 -0.21 0 0 -0.16 -0.84 0 0 -0.21zm1.23 1.3c0.17,-0.26 0.3,-0.56 0.39,-0.89l0.22 0.05c-0.02,0.07 -0.05,0.14 -0.07,0.2l1 0 0 0.2 -1.07 0c-0.08,0.21 -0.18,0.4 -0.28,0.57 -0.09,-0.07 -0.15,-0.11 -0.19,-0.13zm1.05 0.45l-0.44 0 0 0.56 0.44 0 0 -0.56zm-1.08 0.56l0.44 0 0 -0.56 -0.44 0 0 0.56zm-0.64 0l0.44 0 0 -0.56 -0.44 0 0 0.56zm0.33 -1.86l0.22 0 0 0.98 -0.22 0 0 -0.98zm-0.6 0.06l0.21 0 0 0.89 -0.21 0 0 -0.89zm1.53 0.58l0.13 -0.16c0.2,0.13 0.38,0.26 0.54,0.39l-0.14 0.16c-0.17,-0.13 -0.34,-0.27 -0.53,-0.39z"/>
   <path id="5" class="fil1" d="M29.62 77.66l2.54 0 0 2.72 -0.21 0 0 -0.14 -2.11 0 0 0.14 -0.22 0 0 -2.72zm2.33 0.21l-2.11 0 0 2.16 2.11 0 0 -2.16zm-2.02 0.71c0.27,-0.19 0.48,-0.42 0.65,-0.67l0.19 0.09c-0.03,0.05 -0.07,0.1 -0.11,0.15l1.02 0 0 0.17c-0.14,0.17 -0.32,0.33 -0.54,0.47 0.2,0.06 0.45,0.12 0.74,0.16 -0.04,0.08 -0.07,0.15 -0.09,0.21 -0.34,-0.08 -0.63,-0.16 -0.87,-0.26 -0.23,0.1 -0.55,0.21 -0.93,0.31 -0.03,-0.07 -0.06,-0.13 -0.1,-0.19 0.34,-0.07 0.61,-0.15 0.83,-0.23 -0.13,-0.1 -0.25,-0.21 -0.35,-0.33 -0.09,0.09 -0.19,0.18 -0.3,0.26 -0.03,-0.04 -0.08,-0.09 -0.14,-0.14zm0.21 1.12l0.06 -0.2c0.48,0.06 0.95,0.13 1.39,0.22l-0.08 0.22c-0.42,-0.1 -0.88,-0.18 -1.37,-0.24zm1.25 -1.37l-0.89 0c0,0 0,0.01 0,0.01 0.11,0.14 0.25,0.26 0.42,0.35 0.2,-0.1 0.36,-0.22 0.47,-0.36zm-0.95 0.98l0.06 -0.19c0.29,0.04 0.58,0.09 0.89,0.14l-0.06 0.2c-0.31,-0.06 -0.61,-0.11 -0.89,-0.15z"/>
   <path id="6" class="fil1" d="M9.66 83.43c0.26,0.11 0.53,0.24 0.83,0.38l0.65 -0.57 -1.62 0 0 -0.21 0.14 -0.36 -0.68 0 0 -0.22 0.77 0 0.16 -0.39 -0.76 0 0 -0.22 0.84 0 0.16 -0.39 0.26 0 -0.15 0.39 1.36 0 0 0.22 -1.45 0 -0.16 0.39 1.8 0 0 0.22 -1.88 0 -0.14 0.36 1.68 0 0 0.22 -0.77 0.66c0.13,0.06 0.26,0.12 0.4,0.19l-0.14 0.22c-0.48,-0.26 -0.96,-0.49 -1.42,-0.7l0.12 -0.19z"/>
   <path id="7" class="fil1" d="M13.06 83.89l0.93 0 0 -2.39 0.24 0 0 2.39 0.51 0 0 -2.39 0.24 0 0 2.39 0.93 0 0 0.21 -2.85 0 0 -0.21zm0.34 -1.82c0.15,0.37 0.31,0.76 0.46,1.18l-0.24 0.11c-0.13,-0.41 -0.27,-0.81 -0.43,-1.2l0.21 -0.09zm1.68 1.21c0.2,-0.41 0.36,-0.81 0.49,-1.19l0.23 0.1c-0.18,0.46 -0.35,0.85 -0.51,1.18l-0.21 -0.09z"/>
   <path id="8" class="fil1" d="M17.27 81.93l0.3 0c0.07,-0.18 0.13,-0.34 0.17,-0.48l0.24 0.07c-0.06,0.15 -0.11,0.28 -0.17,0.41l0.58 0 0 2.3 -0.23 0 0 -0.23 -0.65 0 0 0.25 -0.24 0 0 -2.32zm1.16 0.59c0.18,-0.29 0.33,-0.64 0.46,-1.07l0.24 0.06c-0.05,0.15 -0.1,0.28 -0.15,0.41l0.93 0c-0.02,0.99 -0.04,1.61 -0.06,1.87 -0.01,0.3 -0.17,0.45 -0.47,0.45 -0.18,0 -0.36,0 -0.54,-0.02 -0.01,-0.09 -0.02,-0.18 -0.04,-0.25l0 0c0.2,0.02 0.37,0.04 0.53,0.04 0.18,0 0.27,-0.09 0.29,-0.28 0.02,-0.29 0.03,-0.82 0.04,-1.59l-0.77 0c-0.09,0.18 -0.17,0.35 -0.26,0.49 -0.05,-0.04 -0.12,-0.07 -0.2,-0.11zm-0.92 1.26l0.65 0 0 -0.73 -0.65 0 0 0.73zm0.65 -1.63l-0.65 0 0 0.7 0.65 0 0 -0.7zm0.52 0.57l0.18 -0.13c0.21,0.25 0.38,0.47 0.51,0.65l-0.21 0.15c-0.14,-0.22 -0.3,-0.45 -0.48,-0.67z"/>
   <path id="9" class="fil1" d="M22.24 82.93l0 -0.2 1.58 0 0 0.2c-0.15,0.33 -0.34,0.6 -0.57,0.79 0.25,0.16 0.54,0.27 0.89,0.33 -0.07,0.09 -0.13,0.17 -0.18,0.24 -0.34,-0.1 -0.64,-0.25 -0.89,-0.43 -0.27,0.17 -0.6,0.32 -1,0.45 -0.05,-0.07 -0.1,-0.14 -0.15,-0.21 0.39,-0.1 0.7,-0.23 0.96,-0.39 -0.22,-0.22 -0.38,-0.48 -0.48,-0.78l-0.16 0zm1.22 -1.13l-0.73 0 0 0.09c0,0.35 -0.16,0.62 -0.48,0.79 -0.05,-0.06 -0.11,-0.12 -0.17,-0.18 0.29,-0.15 0.43,-0.35 0.43,-0.61l0 -0.3 1.17 0 0 0.59c0,0.09 0.05,0.13 0.13,0.13l0.32 0c-0.01,0.08 -0.02,0.15 -0.02,0.21l-0.38 0c-0.18,0 -0.27,-0.1 -0.27,-0.3l0 -0.42zm-1.21 1.63c0.01,0.09 0.01,0.18 0.02,0.26 -0.26,0.17 -0.46,0.31 -0.59,0.41l-0.13 -0.19c0.06,-0.06 0.09,-0.15 0.09,-0.26l0 -1.03 -0.36 0 0 -0.2 0.58 0 0 1.28c0.13,-0.08 0.26,-0.17 0.39,-0.27zm-0.58 -1.89c0.15,0.15 0.29,0.29 0.42,0.44l-0.2 0.17c-0.14,-0.18 -0.27,-0.33 -0.39,-0.46l0.17 -0.15zm0.94 1.39c0.1,0.25 0.25,0.46 0.46,0.65 0.21,-0.16 0.37,-0.38 0.49,-0.65l-0.95 0z"/>
   <path id="10" class="fil1" d="M26.29 82.45l0.84 0 0 -0.99 0.24 0 0 0.99 0.85 0 0 0.21 -0.85 0 0 1.63 -0.24 0 0 -1.63 -0.84 0 0 -0.21zm0.26 1.04c0.01,0.1 0.01,0.18 0.02,0.25 -0.31,0.19 -0.56,0.36 -0.76,0.5l-0.14 -0.19c0.07,-0.06 0.1,-0.15 0.1,-0.27l0 -1.14 -0.41 0 0 -0.21 0.64 0 0 1.41c0.17,-0.11 0.35,-0.22 0.55,-0.35zm-0.89 -1.99c0.21,0.21 0.36,0.37 0.45,0.48l-0.2 0.17c-0.12,-0.16 -0.26,-0.33 -0.43,-0.5l0.18 -0.15z"/>
   <path id="11" class="fil1" d="M29.96 82.81l0 -0.22 0.11 -1.14 0.24 0 -0.04 0.46 2.04 0 0 0.22 -2.06 0 -0.05 0.46 1.9 0c-0.02,0.4 -0.04,0.78 -0.07,1.13 -0.03,0.2 -0.09,0.34 -0.18,0.41 -0.09,0.07 -0.23,0.1 -0.43,0.1 -0.19,0 -0.41,0 -0.66,-0.01 -0.01,-0.06 -0.03,-0.15 -0.05,-0.25 0.29,0.02 0.51,0.03 0.65,0.03 0.26,0.02 0.4,-0.08 0.43,-0.3 0.02,-0.25 0.04,-0.55 0.06,-0.89l-1.89 0zm-0.49 0.45l2.14 0 0 0.22 -2.14 0 0 -0.22z"/>
   <path id="12" class="fil1" d="M35.37 82.04l0.22 0 0 0.43c0,0.26 -0.02,0.48 -0.06,0.67l0.19 0 0 0.72c0,0.11 0.05,0.16 0.16,0.16l0.14 0c0.1,0 0.15,-0.04 0.16,-0.14 0.01,-0.11 0.02,-0.24 0.03,-0.39 0.09,0.04 0.17,0.07 0.23,0.09 -0.02,0.14 -0.03,0.26 -0.05,0.37 -0.03,0.18 -0.14,0.28 -0.33,0.28l-0.24 0c-0.21,0 -0.31,-0.11 -0.31,-0.34l0 -0.66c-0.09,0.38 -0.35,0.74 -0.8,1.08 -0.07,-0.08 -0.13,-0.15 -0.17,-0.18 0.34,-0.25 0.57,-0.5 0.68,-0.73 0.1,-0.21 0.15,-0.52 0.15,-0.93l0 -0.43zm-1.78 0.69l0.44 0c0,-0.1 0.01,-0.27 0.01,-0.52l-0.42 0 0 -0.2 0.42 0 0 -0.53 0.21 0 0 0.53 0.42 0 0 0.2 -0.42 0c0,0.14 0,0.31 0,0.52l0.46 0 0 0.19 -0.47 0c-0.01,0.06 -0.01,0.13 -0.02,0.19 0.18,0.17 0.38,0.36 0.59,0.57l-0.18 0.17c-0.14,-0.18 -0.29,-0.35 -0.45,-0.52 -0.08,0.37 -0.24,0.69 -0.48,0.96 -0.03,-0.05 -0.08,-0.12 -0.13,-0.21 0.29,-0.36 0.44,-0.74 0.45,-1.16l-0.43 0 0 -0.19zm1.21 -1.13l1.4 0 0 1.73 -0.22 0 0 -1.53 -0.97 0 0 1.57 -0.21 0 0 -1.77z"/>
   <path id="13" class="fil1" d="M37.66 83.92c0.25,-0.13 0.48,-0.28 0.68,-0.46 -0.08,-0.22 -0.13,-0.54 -0.16,-0.96l-0.44 0.08 -0.03 -0.21 0.46 -0.08c-0.01,-0.24 -0.02,-0.51 -0.03,-0.81l0.23 0c0,0.28 0.01,0.54 0.02,0.77l0.94 -0.16 0.02 0.2 -0.95 0.17c0.02,0.36 0.06,0.63 0.12,0.83 0.21,-0.21 0.4,-0.45 0.56,-0.72l0.19 0.12c-0.2,0.32 -0.42,0.59 -0.67,0.83 0.09,0.23 0.2,0.39 0.34,0.48 0.11,0.06 0.17,0.03 0.2,-0.09 0.03,-0.13 0.05,-0.28 0.07,-0.44 0.09,0.04 0.17,0.06 0.23,0.08 -0.04,0.22 -0.07,0.38 -0.11,0.49 -0.03,0.16 -0.12,0.23 -0.26,0.23 -0.11,0 -0.21,-0.03 -0.31,-0.11 -0.13,-0.11 -0.25,-0.27 -0.34,-0.48 -0.18,0.16 -0.38,0.3 -0.6,0.42 -0.04,-0.05 -0.09,-0.11 -0.16,-0.18zm2.47 -2.45l0.23 0 0 2.41c0,0.24 -0.11,0.37 -0.34,0.37 -0.1,0 -0.24,0 -0.43,-0.01 -0.01,-0.08 -0.02,-0.17 -0.04,-0.24 0.14,0.01 0.27,0.02 0.4,0.02 0.12,0 0.18,-0.06 0.18,-0.19l0 -2.36zm-0.38 2.04l-0.23 0 0 -1.76 0.23 0 0 1.76zm-1.2 -1.82l0.13 -0.14c0.14,0.09 0.27,0.2 0.39,0.31l-0.15 0.16c-0.1,-0.1 -0.23,-0.22 -0.37,-0.33z"/>
   <path class="fil1" d="M6.17 90.9c0.15,0.23 0.27,0.47 0.36,0.74l-0.19 0c-0.02,-0.03 -0.03,-0.08 -0.04,-0.14 -0.01,-0.01 -0.01,-0.02 -0.01,-0.02 -0.51,0.04 -1.04,0.06 -1.59,0.06l-0.25 0 0 -0.14c0.26,-0.23 0.44,-0.5 0.55,-0.78l-0.83 0 0 -0.13 2.57 0 0 0.13 -1.51 0c-0.16,0.32 -0.36,0.58 -0.61,0.78 0.7,0.01 1.24,0 1.62,-0.03 -0.04,-0.1 -0.11,-0.24 -0.22,-0.44 0,0.01 0,0 -0.02,-0.03l0.17 0zm-2.12 -0.93c0.57,-0.23 1.01,-0.58 1.32,-1.04l0.17 0c0.32,0.46 0.76,0.81 1.32,1.04l0 0.11c-0.59,-0.2 -1.05,-0.51 -1.4,-0.92 -0.35,0.41 -0.82,0.72 -1.41,0.92l0 -0.11zm0.65 -0.06l1.51 0 0 0.13 -1.51 0 0 -0.13z"/>
   <path id="1" class="fil1" d="M7.93 90.16l0 -0.12 0.47 0 0 -0.24 0.18 0 0 0.24 0.6 0 0 -0.24 0.19 0 0 0.24 0.53 0 0 0.12 -0.53 0 0 0.4 0.66 0 0 0.12 -1.7 0 0 0.79c0.15,-0.02 0.35,-0.06 0.58,-0.12l0 0.09c-0.18,0.09 -0.44,0.17 -0.77,0.25l0 -1.01 -0.36 0 0 0.06c0.03,0.42 -0.13,0.74 -0.47,0.95l0 -0.13c0.21,-0.19 0.31,-0.46 0.3,-0.81l0 -1.65 2.28 0 0 0.3c0.01,0.19 -0.1,0.29 -0.32,0.28l-1.79 0 0 0.88 0.62 0 0 -0.4 -0.47 0zm-0.15 -0.94l0 0.34 1.75 0c0.13,0.01 0.19,-0.04 0.18,-0.16l0 -0.18 -1.93 0zm2.25 2.29l0 0.11c-0.68,-0.1 -1.14,-0.39 -1.36,-0.86l0.19 0c0.11,0.19 0.24,0.35 0.4,0.47 0.21,-0.13 0.35,-0.28 0.4,-0.47l0.19 0c-0.09,0.26 -0.25,0.44 -0.48,0.54 0.14,0.08 0.36,0.15 0.66,0.21zm-1.45 -1.35l0 0.4 0.6 0 0 -0.4 -0.6 0z"/>
   <path id="2" class="fil1" d="M11.67 90.8l0 -1.7 1.45 0 0 1.7 -0.18 0 0 -1.57 -1.09 0 0 1.57 -0.18 0zm0.63 -1.29l0.18 0 0 0.57c0,0.2 -0.01,0.36 -0.04,0.5l0.15 0 0 0.72c-0.02,0.13 0.08,0.2 0.28,0.19 0.2,0.01 0.29,-0.06 0.29,-0.19l0 -0.1 0.13 0 0 0.1c0.01,0.21 -0.12,0.32 -0.38,0.31l-0.13 0c-0.25,0 -0.37,-0.11 -0.37,-0.32l0 -0.59c-0.08,0.39 -0.4,0.72 -0.95,0.99l0 -0.12c0.6,-0.32 0.88,-0.81 0.84,-1.47l0 -0.59zm-1.72 -0.32l0.98 0 0 0.12 -0.39 0 0 0.81 0.36 0 0 0.12 -0.36 0 0 0.9c0.02,0 0.06,-0.01 0.11,-0.02 0.06,-0.02 0.17,-0.05 0.32,-0.1l0 0.12c-0.28,0.12 -0.63,0.21 -1.05,0.25l0 -0.16c0.16,-0.01 0.3,-0.03 0.43,-0.05l0 -0.94 -0.37 0 0 -0.12 0.37 0 0 -0.81 -0.4 0 0 -0.12z"/>
   <path id="3" class="fil1" d="M16.29 91.29l0 -1.19 -0.44 0c0.01,0.69 -0.21,1.23 -0.65,1.6l0 -0.15c0.33,-0.38 0.48,-0.86 0.48,-1.45l-0.47 0c0,0.67 -0.22,1.2 -0.65,1.59l0 -0.16c0.32,-0.36 0.48,-0.84 0.47,-1.43l-0.25 0 0 -0.13c0.53,-0.2 0.94,-0.44 1.25,-0.71l-1.17 0 0 -0.11 1.47 0 0 0.11c-0.4,0.32 -0.8,0.55 -1.2,0.71l1.34 0 0 1.23c0.02,0.31 -0.13,0.46 -0.44,0.44l-0.2 0 0 -0.12 0.2 0c0.18,0 0.26,-0.08 0.26,-0.23zm-1.55 -0.27c-0.26,0.15 -0.56,0.24 -0.93,0.29l0 -0.17c0.14,-0.01 0.27,-0.03 0.39,-0.06l0 -1.32 -0.37 0 0 -0.13 0.37 0 0 -0.64 0.18 0 0 0.64 0.35 0 0 0.13 -0.35 0 0 1.28c0.14,-0.04 0.25,-0.09 0.36,-0.13l0 0.11z"/>
   <path id="4" class="fil1" d="M17.1 89.4l0 -0.14 0.26 0 0 -0.29 0.17 0 0 0.29 0.74 0 0 -0.29 0.17 0 0 0.29 0.23 0 0 0.14 -0.23 0 0 1.1 0.29 0 0 0.13 -1.33 0 0 0.6c-0.01,0.12 0.06,0.18 0.21,0.18l0.87 0 0 0.13 -0.94 0c-0.21,0 -0.32,-0.09 -0.31,-0.28l0 -0.63 -0.17 0 0 -0.13 0.3 0 0 -1.1 -0.26 0zm1.86 -0.04l0 -0.39 0.16 0 0 0.24c0,0.1 0,0.21 0,0.32l0.57 0 0 1.79c0.01,0.22 -0.1,0.32 -0.34,0.31l-0.24 0 0 -0.13 0.23 0c0.12,0.01 0.18,-0.05 0.17,-0.18l0 -1.67 -0.39 0c0.01,0.97 -0.19,1.66 -0.59,2.05l0 -0.18c0.29,-0.38 0.43,-1 0.41,-1.87l-0.25 0 0 -0.12 0.27 0 0 -0.17zm-1.43 0.84l0 0.3 0.74 0 0 -0.3 -0.74 0zm0 -0.8l0 0.28 0.74 0 0 -0.28 -0.74 0zm0 0.4l0 0.28 0.74 0 0 -0.28 -0.74 0zm-0.03 1.37c0.16,-0.1 0.24,-0.23 0.27,-0.4l0.16 0c-0.04,0.26 -0.19,0.43 -0.43,0.52l0 -0.12zm1.02 0l0 0.12c-0.24,-0.09 -0.38,-0.26 -0.43,-0.52l0.16 0c0.03,0.17 0.11,0.3 0.27,0.4z"/>
   <path id="5" class="fil1" d="M21 90.91l0 -1.79 1.06 0 0 1.79 -0.16 0 0 -1.66 -0.74 0 0 1.66 -0.16 0zm1.32 0.19l0 -1.95 0.17 0 0 1.95 -0.17 0zm0.63 -2.13l0 2.36c0.01,0.23 -0.1,0.33 -0.31,0.32l-0.23 0 0 -0.11 0.17 0c0.13,0 0.2,-0.06 0.19,-0.18l0 -2.39 0.18 0zm-2.4 0.04c0.06,0.15 0.12,0.34 0.19,0.59l-0.17 0c-0.05,-0.19 -0.11,-0.39 -0.19,-0.59l0.17 0zm-0.02 2.63l-0.2 0c0.15,-0.33 0.25,-0.71 0.3,-1.14l0.14 0c-0.03,0.43 -0.11,0.81 -0.24,1.14zm0.04 -1.91c0.08,0.19 0.14,0.38 0.19,0.58l-0.17 0c-0.03,-0.17 -0.09,-0.37 -0.17,-0.58l0.15 0zm0.96 1.22c-0.11,0.3 -0.36,0.55 -0.73,0.74l0 -0.12c0.45,-0.28 0.67,-0.67 0.65,-1.15l0 -0.94 0.16 0 0 0.94c-0.01,0.47 0.19,0.86 0.61,1.15l0 0.12c-0.34,-0.18 -0.57,-0.43 -0.69,-0.74z"/>
   <path id="6" class="fil1" d="M29.49 90.8l0 -1.7 1.45 0 0 1.7 -0.18 0 0 -1.57 -1.09 0 0 1.57 -0.18 0zm0.63 -1.29l0.18 0 0 0.57c0,0.2 -0.01,0.36 -0.04,0.5l0.14 0 0 0.72c-0.01,0.13 0.08,0.2 0.29,0.19 0.2,0.01 0.29,-0.06 0.28,-0.19l0 -0.1 0.14 0 0 0.1c0,0.21 -0.12,0.32 -0.39,0.31l-0.13 0c-0.24,0 -0.36,-0.11 -0.36,-0.32l0 -0.59c-0.08,0.39 -0.4,0.72 -0.96,0.99l0 -0.12c0.61,-0.32 0.89,-0.81 0.85,-1.47l0 -0.59zm-1.73 -0.32l0.99 0 0 0.12 -0.39 0 0 0.81 0.36 0 0 0.12 -0.36 0 0 0.9c0.02,0 0.06,-0.01 0.11,-0.02 0.06,-0.02 0.17,-0.05 0.32,-0.1l0 0.12c-0.28,0.12 -0.63,0.21 -1.05,0.25l0 -0.16c0.16,-0.01 0.3,-0.03 0.43,-0.05l0 -0.94 -0.37 0 0 -0.12 0.37 0 0 -0.81 -0.41 0 0 -0.12z"/>
   <path id="7" class="fil1" d="M34.11 91.29l0 -1.19 -0.44 0c0.01,0.69 -0.21,1.23 -0.65,1.6l0 -0.15c0.32,-0.38 0.48,-0.86 0.47,-1.45l-0.46 0c0,0.67 -0.22,1.2 -0.65,1.59l0 -0.16c0.32,-0.36 0.48,-0.84 0.47,-1.43l-0.25 0 0 -0.13c0.53,-0.2 0.94,-0.44 1.25,-0.71l-1.18 0 0 -0.11 1.48 0 0 0.11c-0.4,0.32 -0.8,0.55 -1.2,0.71l1.34 0 0 1.23c0.02,0.31 -0.13,0.46 -0.44,0.44l-0.2 0 0 -0.12 0.2 0c0.17,0 0.26,-0.08 0.26,-0.23zm-1.55 -0.27c-0.26,0.15 -0.57,0.24 -0.93,0.29l0 -0.17c0.14,-0.01 0.27,-0.03 0.39,-0.06l0 -1.32 -0.37 0 0 -0.13 0.37 0 0 -0.64 0.18 0 0 0.64 0.34 0 0 0.13 -0.34 0 0 1.28c0.13,-0.04 0.25,-0.09 0.36,-0.13l0 0.11z"/>
   <path id="8" class="fil1" d="M35.83 90.36l0.21 0c0.13,0.31 0.31,0.55 0.54,0.74 0.28,-0.2 0.49,-0.48 0.62,-0.84l-1.47 0 0 -0.12 1.67 0 0 0.12c-0.17,0.42 -0.4,0.72 -0.7,0.93 0.2,0.14 0.51,0.27 0.93,0.39l0 0.11c-0.45,-0.13 -0.8,-0.26 -1.05,-0.4 -0.27,0.15 -0.61,0.28 -1.02,0.4l0 -0.11c0.42,-0.15 0.72,-0.28 0.89,-0.4 -0.24,-0.18 -0.44,-0.45 -0.62,-0.82zm1.17 -1.13l-0.82 0 0 0.26c0.02,0.27 -0.14,0.44 -0.49,0.51l0 -0.11c0.22,-0.06 0.33,-0.19 0.31,-0.4l0 -0.38 1.18 0 0 0.52c-0.01,0.12 0.04,0.18 0.15,0.17l0.26 0 0 0.12 -0.32 0c-0.18,0 -0.27,-0.09 -0.27,-0.27l0 -0.42zm-1.63 2.07c0.12,-0.06 0.25,-0.13 0.39,-0.23l0 0.13c-0.13,0.13 -0.33,0.24 -0.58,0.33l0 -1.56 -0.31 0 0 -0.12 0.5 0 0 1.45zm-0.12 -2.32c0.1,0.2 0.19,0.4 0.25,0.61l-0.18 0c-0.04,-0.19 -0.12,-0.4 -0.22,-0.61l0.15 0z"/>
   <path id="9" class="fil1" d="M40.88 89.9l0 0.14 -0.83 0 0 1.67 -0.2 0 0 -1.67 -0.83 0 0 -0.14 0.83 0 0 -0.93 0.2 0 0 0.93 0.83 0zm-2.19 1.47c0.18,-0.05 0.37,-0.14 0.56,-0.26l0 0.14c-0.21,0.15 -0.46,0.27 -0.75,0.37l0 -1.64 -0.38 0 0 -0.13 0.57 0 0 1.52zm-0.15 -2.39c0.1,0.17 0.18,0.37 0.25,0.62l-0.18 0c-0.05,-0.22 -0.13,-0.42 -0.22,-0.62l0.15 0z"/>
   <path id="10" class="fil1" d="M41.4 89.29l1.26 0 0 -0.32 0.2 0 0 0.32 1.22 0 0 0.14 -1.9 0 0 0.54 1.52 0 0 1.27c0.01,0.25 -0.1,0.37 -0.34,0.37l-0.31 0 0 -0.13 0.22 0c0.17,0 0.25,-0.07 0.24,-0.23l0 -1.17 -1.33 0 0 0.13c0.02,0.65 -0.24,1.15 -0.78,1.49l0 -0.14c0.42,-0.32 0.62,-0.79 0.59,-1.42l0 -0.71 -0.59 0 0 -0.14z"/>
   <path id="11" class="fil1" d="M46.7 89.66l0 -0.18 0.19 0 0 0.15c0,0.03 0,0.05 0,0.06l0.42 0 0 0.12 -0.45 0c-0.06,0.24 -0.26,0.42 -0.59,0.53 0.26,0.04 0.6,0.08 1.01,0.12l0 0.1c-0.55,-0.02 -0.98,-0.07 -1.3,-0.14 -0.31,0.07 -0.75,0.12 -1.29,0.14l0 -0.1c0.41,-0.04 0.75,-0.08 1.01,-0.12 -0.35,-0.12 -0.55,-0.3 -0.6,-0.53l-0.44 0 0 -0.12 0.42 0c0,-0.01 0,-0.03 0,-0.06l0 -0.15 0.19 0 0 0.18 0 0.03 1.43 0c0,-0.01 0,-0.02 0,-0.03zm-2.06 1.16l1.25 0 0 -0.25 0.19 0 0 0.25 1.24 0 0 0.12 -0.66 0c0.1,0.26 0.33,0.45 0.67,0.57l0 0.12c-0.45,-0.14 -0.74,-0.37 -0.87,-0.69l-0.38 0 0 0.78 -0.19 0 0 -0.78 -0.38 0c-0.13,0.32 -0.42,0.55 -0.87,0.69l0 -0.12c0.34,-0.13 0.56,-0.32 0.67,-0.57l-0.67 0 0 -0.12zm1.34 -0.54c0.41,-0.11 0.64,-0.26 0.69,-0.47l-1.38 0c0.06,0.21 0.29,0.36 0.69,0.47zm1.26 -1.11l0 0.33 -0.19 0 0 -0.21 -2.14 0 0 0.21 -0.19 0 0 -0.33 1.17 0 0 -0.2 0.19 0 0 0.2 1.16 0z"/>
   <path id="12" class="fil1" d="M53.8 90.8l0 -1.7 1.45 0 0 1.7 -0.18 0 0 -1.57 -1.1 0 0 1.57 -0.17 0zm0.63 -1.29l0.17 0 0 0.57c0,0.2 -0.01,0.36 -0.03,0.5l0.14 0 0 0.72c-0.02,0.13 0.08,0.2 0.29,0.19 0.19,0.01 0.29,-0.06 0.28,-0.19l0 -0.1 0.13 0 0 0.1c0.01,0.21 -0.12,0.32 -0.38,0.31l-0.13 0c-0.25,0 -0.37,-0.11 -0.37,-0.32l0 -0.59c-0.08,0.39 -0.39,0.72 -0.95,0.99l0 -0.12c0.6,-0.32 0.88,-0.81 0.85,-1.47l0 -0.59zm-1.73 -0.32l0.99 0 0 0.12 -0.4 0 0 0.81 0.36 0 0 0.12 -0.36 0 0 0.9c0.03,0 0.06,-0.01 0.11,-0.02 0.06,-0.02 0.17,-0.05 0.32,-0.1l0 0.12c-0.28,0.12 -0.62,0.21 -1.04,0.25l0 -0.16c0.15,-0.01 0.3,-0.03 0.42,-0.05l0 -0.94 -0.36 0 0 -0.12 0.36 0 0 -0.81 -0.4 0 0 -0.12z"/>
   <path id="13" class="fil1" d="M58.42 91.29l0 -1.19 -0.44 0c0.01,0.69 -0.21,1.23 -0.66,1.6l0 -0.15c0.33,-0.38 0.49,-0.86 0.48,-1.45l-0.46 0c0,0.67 -0.22,1.2 -0.66,1.59l0 -0.16c0.33,-0.36 0.49,-0.84 0.48,-1.43l-0.25 0 0 -0.13c0.52,-0.2 0.94,-0.44 1.25,-0.71l-1.18 0 0 -0.11 1.47 0 0 0.11c-0.39,0.32 -0.79,0.55 -1.2,0.71l1.35 0 0 1.23c0.01,0.31 -0.13,0.46 -0.44,0.44l-0.21 0 0 -0.12 0.21 0c0.17,0 0.26,-0.08 0.26,-0.23zm-1.56 -0.27c-0.25,0.15 -0.56,0.24 -0.93,0.29l0 -0.17c0.15,-0.01 0.28,-0.03 0.4,-0.06l0 -1.32 -0.37 0 0 -0.13 0.37 0 0 -0.64 0.18 0 0 0.64 0.34 0 0 0.13 -0.34 0 0 1.28c0.13,-0.04 0.25,-0.09 0.35,-0.13l0 0.11z"/>
   <path id="14" class="fil1" d="M60.22 91.62l0 -0.89 1.45 0 0 0.57c0.01,0.22 -0.11,0.33 -0.35,0.32l-1.1 0zm-0.71 -2.65l0.19 0 0 0.53 0.29 0 0 0.12 -0.29 0 0 0.72c0.08,-0.03 0.18,-0.06 0.3,-0.11l0 0.11c0.42,-0.23 0.69,-0.5 0.83,-0.81l0.24 0c0.13,0.31 0.42,0.59 0.85,0.82l0 0.12c-0.46,-0.19 -0.78,-0.45 -0.97,-0.77 -0.19,0.32 -0.52,0.58 -0.98,0.77l0 -0.11c-0.1,0.05 -0.19,0.09 -0.27,0.12l0 0.91c-0.01,0.17 -0.1,0.26 -0.27,0.26l-0.22 0 0 -0.11 0.15 0c0.1,0 0.15,-0.05 0.15,-0.15l0 -0.85c-0.09,0.03 -0.2,0.06 -0.34,0.08l0 -0.15c0.12,-0.03 0.24,-0.06 0.34,-0.09l0 -0.76 -0.31 0 0 -0.12 0.31 0 0 -0.53zm2 2.33l0 -0.44 -1.12 0 0 0.63 0.9 0c0.15,0.01 0.22,-0.06 0.22,-0.19zm-1.06 -1.69l0 -0.26 -0.42 0 0 -0.13 0.42 0 0 -0.24 0.18 0 0 0.24 0.63 0 0 -0.24 0.18 0 0 0.24 0.45 0 0 0.13 -0.45 0 0 0.26 -0.18 0 0 -0.26 -0.63 0 0 0.26 -0.18 0zm-0.01 0.8l0 -0.12 1.02 0 0 0.12 -1.02 0z"/>
   <path id="15" class="fil1" d="M64.9 89.19l0 0.41 0.27 0 0 0.12 -0.27 0 0 0.13c0.01,0.21 -0.09,0.31 -0.32,0.31l-0.35 0 0 0.3 0.75 0 0 0.12 -0.75 0 0 0.34 0.84 0 0 0.12 -0.84 0 0 0.31 -0.19 0 0 -0.31 -0.73 0 0 -0.12 0.73 0 0 -0.34 -0.63 0 0 -0.12 0.63 0 0 -0.3 -0.6 0 0 -0.12 0.6 0 0 -0.32 -0.74 0 0 -0.12 0.74 0 0 -0.29 -0.58 0 0 -0.12 0.58 0 0 -0.22 0.19 0 0 0.22 0.67 0zm-2.28 1.29c0.06,0.32 0.16,0.56 0.3,0.71 0.12,-0.14 0.17,-0.33 0.17,-0.56l0 -0.45 -0.6 0 0 -0.13c0.26,-0.24 0.45,-0.48 0.57,-0.73l-0.6 0 0 -0.13 0.8 0 0 0.13c-0.13,0.28 -0.33,0.52 -0.59,0.73l0.58 0 0 0.55c0,0.31 -0.07,0.54 -0.21,0.7 0.16,0.09 0.39,0.14 0.66,0.14l1.47 0 0 0.14 -1.5 0c-0.31,0 -0.56,-0.06 -0.75,-0.17 -0.12,0.08 -0.28,0.16 -0.49,0.25l0 -0.11c0.03,-0.02 0.07,-0.04 0.12,-0.07 0.13,-0.07 0.21,-0.12 0.26,-0.17 -0.17,-0.17 -0.29,-0.45 -0.35,-0.83l0.16 0zm1.93 -0.44c0.13,0 0.19,-0.06 0.19,-0.18l0 -0.14 -0.51 0 0 0.32 0.32 0zm0.19 -0.73l-0.51 0 0 0.29 0.51 0 0 -0.29z"/>
   <path id="16" class="fil1" d="M66.71 89.51l0 -0.13 0.35 0 0 -0.41 0.18 0 0 0.39 0 0.02 0.67 0 0 1.95c-0.01,0.12 0.06,0.18 0.19,0.17 0.14,0.01 0.2,-0.04 0.19,-0.15l0 -0.15 0.16 0 0 0.15c0.01,0.19 -0.1,0.28 -0.31,0.27l-0.07 0c-0.23,0.01 -0.34,-0.09 -0.34,-0.29l0 -1.82 -0.5 0c0,0.31 -0.01,0.56 -0.04,0.78 0.12,0.03 0.25,0.07 0.37,0.12l0 0.17c-0.04,-0.01 -0.08,-0.03 -0.14,-0.05 -0.1,-0.05 -0.18,-0.08 -0.24,-0.1 -0.08,0.48 -0.29,0.91 -0.65,1.27l0 -0.16c0.27,-0.36 0.42,-0.75 0.48,-1.16 -0.04,-0.01 -0.1,-0.02 -0.18,-0.03 -0.06,-0.01 -0.11,-0.02 -0.15,-0.03l0 -0.12c0.12,0.01 0.24,0.03 0.34,0.05 0.03,-0.2 0.04,-0.45 0.04,-0.74l-0.35 0zm-0.66 -0.54l0.17 0 0 0.52 0.33 0 0 0.13 -0.33 0 0 0.71c0.04,-0.01 0.1,-0.04 0.18,-0.07 0.05,-0.02 0.09,-0.04 0.12,-0.04l0 0.13c-0.09,0.04 -0.19,0.09 -0.3,0.13l0 0.93c0,0.17 -0.09,0.26 -0.29,0.26l-0.19 0 0 -0.13 0.14 0c0.11,0 0.17,-0.05 0.17,-0.13l0 -0.87c-0.11,0.03 -0.24,0.06 -0.4,0.08l0 -0.17c0.15,0 0.28,-0.03 0.4,-0.07l0 -0.76 -0.37 0 0 -0.13 0.37 0 0 -0.52z"/>
   <path id="17" class="fil1" d="M69.93 90.07l0 -0.14 1.76 0 0 0.14 -0.54 0 0 1.25c0,0.23 -0.11,0.34 -0.34,0.33l-0.31 0 0 -0.13 0.25 0c0.15,0 0.21,-0.05 0.21,-0.16l0 -1.29 -1.03 0zm-0.58 1.63l0 -1.35c-0.14,0.08 -0.29,0.15 -0.43,0.2l0 -0.12c0.36,-0.15 0.6,-0.4 0.7,-0.74l0.19 0c-0.07,0.22 -0.16,0.39 -0.28,0.51l0 1.5 -0.18 0zm0.75 -2.53l1.43 0 0 0.14 -1.43 0 0 -0.14zm-1.17 0.53c0.36,-0.15 0.59,-0.4 0.69,-0.73l0.2 0c-0.09,0.39 -0.39,0.68 -0.89,0.85l0 -0.12z"/>
   <polygon id="18" class="fil1" points="25.86,90.49 25.56,90.49 25.56,90.18 25.86,90.18 "/>
   <polygon id="19" class="fil1" points="50.17,90.49 49.87,90.49 49.87,90.18 50.17,90.18 "/>
   <polygon id="20" class="fil2" points="3.93,91.68 23.2,91.68 23.2,91.82 3.93,91.82 "/>
   <polygon id="21" class="fil2" points="28.24,91.68 47.5,91.68 47.5,91.82 28.24,91.82 "/>
   <polygon id="22" class="fil2" points="52.55,91.68 71.81,91.68 71.81,91.82 52.55,91.82 "/>
   <g>
    <rect class="fil2" x="4.57" y="77.38" width="0.63" height="7.09"/>
    <rect class="fil2" x="5.71" y="77.38" width="0.32" height="7.09"/>
   </g>
  </g>
 </g>
</svg>
