<?xml version="1.0" encoding="UTF-8"?>
<!DOCTYPE svg PUBLIC "-//W3C//DTD SVG 1.1//EN" "http://www.w3.org/Graphics/SVG/1.1/DTD/svg11.dtd">
<!-- Creator: CorelDRAW 2017 -->
<svg xmlns="http://www.w3.org/2000/svg" xml:space="preserve" width="322px" height="90px" version="1.1" style="shape-rendering:geometricPrecision; text-rendering:geometricPrecision; image-rendering:optimizeQuality; fill-rule:evenodd; clip-rule:evenodd"
viewBox="0 0 7.1 1.97"
 xmlns:xlink="http://www.w3.org/1999/xlink">
 <defs>
  <style type="text/css">
   <![CDATA[
    .fil1 {fill:white}
    .fil0 {fill:white;fill-rule:nonzero}
   ]]>
  </style>
 </defs>
 <g id="图层_x0020_1">
  <metadata id="CorelCorpID_0Corel-Layer"/>
  <g id="_1916855613664">
   <path class="fil0" d="M3.14 1.11c0.07,0.04 0.14,0.08 0.2,0.13 0.01,0 0.01,0.01 0,0.03 -0.01,0.03 -0.03,0.06 -0.05,0.08 -0.02,0.02 -0.03,0.02 -0.04,0 -0.01,-0.01 -0.02,-0.04 -0.04,-0.07 -0.16,0.03 -0.3,0.05 -0.43,0.07l-0.04 -0.13c0.04,0 0.07,-0.01 0.09,-0.04 0.03,-0.03 0.05,-0.06 0.06,-0.1l-0.22 0 -0.02 -0.08 0.64 0 0.05 -0.06 0.12 0.09 -0.03 0.05 -0.46 0 0.07 0.02c-0.04,0.05 -0.08,0.09 -0.11,0.12 0.07,0 0.14,-0.01 0.22,-0.01 0,-0.01 -0.01,-0.02 -0.02,-0.03 -0.01,-0.02 -0.02,-0.03 -0.03,-0.04l0.04 -0.03zm-0.52 -0.21c0.16,-0.1 0.28,-0.23 0.36,-0.38l0.16 0.05c-0.01,0 -0.02,0.02 -0.03,0.04 0.01,-0.02 0,-0.01 -0.01,0 0.12,0.1 0.25,0.16 0.39,0.19 -0.04,0.04 -0.07,0.08 -0.1,0.14 -0.14,-0.08 -0.25,-0.17 -0.34,-0.28 -0.06,0.07 -0.13,0.13 -0.21,0.18l0.28 0 0.03 -0.04 0.11 0.08 -0.02 0.04 -0.4 0 -0.02 -0.07c-0.05,0.03 -0.1,0.06 -0.15,0.09l-0.05 -0.04z"/>
   <path id="1" class="fil0" d="M3.69 0.54l0.12 0 0 0.02 0.44 0 0.03 -0.04 0.12 0.07 -0.03 0.03 0 0.17 -0.12 0 0 -0.01 -0.44 0 0 0.08c0,0.05 0,0.1 -0.01,0.15l0.1 0 0 -0.07 -0.08 0 0 -0.08 0.08 0 0 -0.06 0.12 0 0 0.06 0.1 0 0 -0.06 0.12 0 0 0.06 0.04 0 0.02 -0.04 0.1 0.07 -0.03 0.05 -0.13 0 0 0.07 0.08 0 0.03 -0.04 0.09 0.07 -0.02 0.04 -0.11 0 0.06 0.06c-0.03,0.01 -0.07,0.04 -0.11,0.06 0.05,0.02 0.11,0.03 0.18,0.04 -0.03,0.03 -0.06,0.08 -0.09,0.13 -0.16,-0.05 -0.26,-0.15 -0.32,-0.29l-0.07 0 0 0.13 0.09 -0.02 0.02 0.07c-0.06,0.04 -0.14,0.07 -0.22,0.11l-0.05 -0.11c0.03,-0.01 0.04,-0.04 0.04,-0.07l0 -0.11 -0.05 0c-0.03,0.1 -0.08,0.19 -0.15,0.26l-0.05 -0.03c0.07,-0.1 0.1,-0.26 0.1,-0.45l0 -0.32zm0.12 0.09l0 0.07 0.44 0 0 -0.07 -0.44 0zm0.21 0.31l0 0.07 0.1 0 0 -0.07 -0.1 0zm0.09 0.14c0.02,0.03 0.05,0.06 0.08,0.08 0.01,0 0.01,0 0.01,-0.01 0.03,-0.03 0.05,-0.05 0.06,-0.07l-0.15 0z"/>
   <path id="2" class="fil0" d="M4.57 0.81l0.35 0 0 -0.05 0.09 0 -0.06 -0.03c0.05,-0.06 0.08,-0.14 0.1,-0.21l0.12 0.03c-0.01,0.02 -0.02,0.04 -0.04,0.06l0.14 0 0.03 -0.04 0.09 0.06 -0.03 0.05 -0.19 0c0.03,0.01 0.06,0.02 0.08,0.03 0.01,0 0.01,0.01 0.01,0.02 -0.01,0.02 -0.02,0.04 -0.03,0.06 -0.01,0.01 -0.02,0.01 -0.03,0 -0.02,-0.03 -0.04,-0.06 -0.08,-0.09l0.02 -0.02 -0.06 0c-0.02,0.02 -0.04,0.05 -0.07,0.08l0.03 0 0 0.05 0.21 0 0.03 -0.05 0.11 0.08 -0.02 0.04 -0.33 0 0 0.06 0.14 0 0.03 -0.05 0.12 0.07c0,0 0,0.01 0,0.01l-0.03 0.04 0 0.05c0.01,0.06 -0.03,0.09 -0.11,0.09 0.05,0.03 0.12,0.06 0.21,0.08 -0.03,0.03 -0.06,0.07 -0.08,0.12 -0.12,-0.05 -0.21,-0.11 -0.28,-0.19l0 0.2 -0.12 0 0 -0.17c-0.09,0.06 -0.2,0.11 -0.33,0.15l-0.03 -0.05c0.14,-0.06 0.26,-0.14 0.36,-0.25l0 -0.03 -0.14 0 0 0.14 -0.12 0 0 -0.23 0.12 0 0 0.02 0.14 0 0 -0.06 -0.33 0 -0.02 -0.07zm0 -0.05c0.05,-0.07 0.09,-0.15 0.12,-0.24l0.12 0.03c-0.01,0.02 -0.02,0.04 -0.03,0.06l0.1 0 0.03 -0.04 0.08 0.06 -0.03 0.05 -0.16 0c0.01,0 0.03,0.01 0.04,0.02 0.02,0 0.03,0.01 0.03,0.01 0.01,0 0.01,0.01 0.01,0.03 0,0 -0.01,0.01 -0.02,0.03 0,0.01 -0.01,0.02 -0.01,0.02 -0.01,0.02 -0.02,0.01 -0.03,0 -0.01,-0.02 -0.03,-0.04 -0.05,-0.07 -0.01,-0.01 -0.02,-0.02 -0.02,-0.02l0.01 -0.02 -0.03 0c-0.03,0.04 -0.07,0.08 -0.11,0.11l-0.05 -0.03zm0.47 0.3c0.05,0.04 0.1,0.07 0.14,0.09 0,-0.03 -0.02,-0.04 -0.06,-0.05l-0.01 -0.04c0.05,0.01 0.07,0 0.07,-0.01l0 -0.04 -0.14 0 0 0.05z"/>
   <path id="3" class="fil0" d="M5.52 1.26c0.06,-0.04 0.12,-0.08 0.18,-0.13 -0.03,-0.08 -0.05,-0.16 -0.06,-0.25l-0.1 0.02 -0.03 -0.08 0.13 -0.02c-0.01,-0.04 -0.01,-0.09 -0.01,-0.13l0 -0.13 0.12 0 0 0.17 0 0.07 0.14 -0.02 0.03 -0.05 0.1 0.06 -0.03 0.06 -0.23 0.03c0.01,0.06 0.02,0.11 0.03,0.16 0.04,-0.04 0.07,-0.09 0.1,-0.15l0.11 0.08c-0.05,0.07 -0.11,0.12 -0.16,0.18 0.01,0.02 0.02,0.04 0.04,0.06 0.02,0.03 0.04,0.02 0.06,-0.01 0.01,-0.03 0.02,-0.04 0.02,-0.05l0.06 0.02c-0.02,0.06 -0.01,0.09 0.02,0.11 -0.02,0.06 -0.06,0.09 -0.11,0.09 -0.06,0 -0.12,-0.03 -0.17,-0.1 0,-0.01 -0.01,-0.02 -0.01,-0.02 -0.01,-0.01 -0.01,-0.02 -0.02,-0.03 -0.05,0.04 -0.11,0.07 -0.17,0.1l-0.04 -0.04zm0.67 -0.72l0.12 0 0 0.72c0.01,0.07 -0.04,0.1 -0.14,0.11 0,-0.05 -0.03,-0.08 -0.08,-0.07l-0.01 -0.06c0.08,0.01 0.12,0 0.11,-0.03l0 -0.67zm-0.17 0.61l0 -0.52 0.12 0 0 0.52 -0.12 0zm-0.19 -0.6c0.04,0.02 0.07,0.05 0.1,0.08 0.01,0.01 0.02,0.02 0.01,0.04 -0.02,0.02 -0.04,0.03 -0.06,0.05 -0.03,0.01 -0.04,0 -0.04,-0.01 0,-0.01 0,-0.01 -0.01,-0.01 -0.02,-0.06 -0.03,-0.1 -0.04,-0.12l0.04 -0.03z"/>
   <path class="fil0" d="M0.09 0l1.88 0 0 0.59 0.48 0.4 -0.48 0.39 0 0.59 -1.97 0 0 -1.97 0.09 0zm1.7 0.18l-1.61 0 0 1.61 1.61 0 0 -0.5 0.38 -0.3 -0.38 -0.31 0 -0.5z"/>
   <polygon class="fil1" points="1.99,0.99 1.89,0.91 1.79,0.84 1.79,0.99 1.79,1.14 1.89,1.06 "/>
   <path class="fil0" d="M2.2 1.68c0,-0.01 0.01,-0.02 0.01,-0.03 0.01,-0.01 0.02,-0.01 0.04,-0.01l0.06 0c0.01,0 0.02,0 0.03,0.01 0.01,0.01 0.01,0.02 0.01,0.03l0 0.05 -0.05 0.02 0 -0.06 -0.04 0 0 0.23 0.04 0 0 -0.05 0.05 -0.03 0 0.09c0,0.01 0,0.02 -0.01,0.03 -0.01,0.01 -0.02,0.01 -0.03,0.01l-0.06 0c-0.02,0 -0.03,0 -0.04,-0.01 0,-0.01 -0.01,-0.02 -0.01,-0.03l0 -0.25z"/>
   <polygon id="1" class="fil0" points="5.25,1.97 5.12,1.97 5.12,1.64 5.25,1.64 5.25,1.69 5.17,1.69 5.17,1.78 5.25,1.74 5.25,1.8 5.17,1.84 5.17,1.92 5.25,1.92 "/>
   <path id="2" class="fil0" d="M2.4 1.68c0,-0.01 0.01,-0.02 0.01,-0.03 0.01,-0.01 0.02,-0.01 0.04,-0.01l0.06 0c0.01,0 0.02,0 0.03,0.01 0.01,0.01 0.01,0.02 0.01,0.03l0 0.25c0,0.01 0,0.02 -0.01,0.03 -0.01,0.01 -0.02,0.01 -0.03,0.01l-0.06 0c-0.02,0 -0.03,0 -0.04,-0.01 0,-0.01 -0.01,-0.02 -0.01,-0.03l0 -0.25zm0.1 0.01l-0.04 0 0 0.23 0.04 0 0 -0.23z"/>
   <path id="3" class="fil0" d="M2.66 1.97l-0.05 0 0 -0.33 0.05 0 0 0.02c0,0 0,-0.01 0.01,-0.02 0.01,0 0.01,0 0.02,0l0.02 0c0.01,0 0.03,0 0.03,0.01 0.01,0.01 0.01,0.02 0.01,0.03l0 0.29 -0.05 0 0 -0.28 -0.04 0 0 0.28z"/>
   <polygon id="4" class="fil0" points="2.81,1.97 2.81,1.64 2.94,1.64 2.94,1.69 2.86,1.69 2.86,1.78 2.94,1.74 2.94,1.8 2.86,1.84 2.86,1.97 "/>
   <polygon id="5" class="fil0" points="3.11,1.97 2.98,1.97 2.98,1.64 3.11,1.64 3.11,1.69 3.03,1.69 3.03,1.78 3.11,1.74 3.11,1.8 3.03,1.84 3.03,1.92 3.11,1.92 "/>
   <path id="6" class="fil0" d="M3.31 1.8l-0.04 0.02 0.06 0.15 -0.06 0 -0.05 -0.12 -0.01 0 0 0.12 -0.05 0 0 -0.33 0.1 0c0.02,0 0.03,0 0.04,0.01 0,0.01 0.01,0.02 0.01,0.03l0 0.12zm-0.06 -0.03l0 -0.08 -0.04 0 0 0.1 0.04 -0.02z"/>
   <polygon id="7" class="fil0" points="3.49,1.97 3.36,1.97 3.36,1.64 3.49,1.64 3.49,1.69 3.41,1.69 3.41,1.78 3.49,1.74 3.49,1.8 3.41,1.84 3.41,1.92 3.49,1.92 "/>
   <path id="8" class="fil0" d="M3.59 1.97l-0.05 0 0 -0.33 0.05 0 0 0.02c0,0 0.01,-0.01 0.01,-0.02 0.01,0 0.02,0 0.02,0l0.02 0c0.02,0 0.03,0 0.04,0.01 0,0.01 0.01,0.02 0.01,0.03l0 0.29 -0.06 0 0 -0.28 -0.04 0 0 0.28z"/>
   <path id="9" class="fil0" d="M3.74 1.68c0,-0.01 0,-0.02 0.01,-0.03 0.01,-0.01 0.02,-0.01 0.03,-0.01l0.06 0c0.02,0 0.03,0 0.04,0.01 0.01,0.01 0.01,0.02 0.01,0.03l0 0.05 -0.06 0.02 0 -0.06 -0.04 0 0 0.23 0.04 0 0 -0.05 0.06 -0.03 0 0.09c0,0.01 0,0.02 -0.01,0.03 -0.01,0.01 -0.02,0.01 -0.04,0.01l-0.06 0c-0.01,0 -0.02,0 -0.03,-0.01 -0.01,-0.01 -0.01,-0.02 -0.01,-0.03l0 -0.25z"/>
   <polygon id="10" class="fil0" points="4.07,1.97 3.94,1.97 3.94,1.64 4.07,1.64 4.07,1.69 4,1.69 4,1.78 4.07,1.74 4.07,1.8 4,1.84 4,1.92 4.07,1.92 "/>
   <path id="11" class="fil0" d="M4.12 1.68c0,-0.01 0,-0.02 0.01,-0.03 0.01,-0.01 0.02,-0.01 0.03,-0.01l0.06 0c0.02,0 0.03,0 0.04,0.01 0.01,0.01 0.01,0.02 0.01,0.03l0 0.01 -0.06 0.03 0 -0.03 -0.04 0 0 0.08 0.1 -0.04 0 0.2c0,0.01 0,0.02 -0.01,0.03 -0.01,0.01 -0.02,0.01 -0.04,0.01l-0.06 0c-0.01,0 -0.02,0 -0.03,-0.01 -0.01,-0.01 -0.01,-0.02 -0.01,-0.03l0 -0.04 0.05 -0.02 0 0.05 0.04 0 0 -0.11 -0.09 0.05 0 -0.18z"/>
   <path id="12" class="fil0" d="M4.51 1.77l0 -0.08 -0.04 0 0 0.1 0.04 -0.02zm0.06 0.2l-0.06 0 0 -0.14 -0.04 0.02 0 0.12 -0.05 0 0 -0.29c0,-0.01 0,-0.02 0.01,-0.03 0.01,-0.01 0.02,-0.01 0.03,-0.01l0.06 0c0.02,0 0.03,0 0.04,0.01 0,0.01 0.01,0.02 0.01,0.03l0 0.29z"/>
   <path id="13" class="fil0" d="M4.67 1.97l-0.05 0 0 -0.33 0.05 0 0 0.02c0.01,0 0.01,-0.01 0.01,-0.02 0.01,0 0.02,0 0.03,0l0.01 0c0.02,0 0.03,0 0.04,0.01 0.01,0.01 0.01,0.02 0.01,0.03l0 0.29 -0.06 0 0 -0.28 -0.04 0 0 0.28z"/>
   <path id="14" class="fil0" d="M4.93 1.64c0.01,0 0.02,0 0.03,0.01 0.01,0.01 0.01,0.02 0.01,0.03l0 0.25c0,0.01 0,0.02 -0.01,0.03 -0.01,0.01 -0.02,0.01 -0.03,0.01l-0.11 0 0 -0.33 0.11 0zm-0.01 0.05l-0.04 0 0 0.23 0.04 0 0 -0.23z"/>
   <polygon id="15" class="fil0" points="5.33,1.8 5.28,1.64 5.34,1.64 5.36,1.72 5.39,1.64 5.44,1.64 5.4,1.8 5.45,1.97 5.39,1.97 5.36,1.88 5.34,1.97 5.28,1.97 "/>
   <polygon id="16" class="fil0" points="5.63,1.64 5.63,1.97 5.58,1.97 5.58,1.82 5.53,1.84 5.53,1.97 5.48,1.97 5.48,1.64 5.53,1.64 5.53,1.78 5.58,1.76 5.58,1.64 "/>
   <polygon id="17" class="fil0" points="5.74,1.97 5.68,1.97 5.68,1.64 5.74,1.64 "/>
   <path id="18" class="fil0" d="M5.89 1.92l0 -0.11 -0.05 0.02 0 0.09 0.05 0zm0.05 -0.13l0 0.13c0,0.02 0,0.03 -0.01,0.04 -0.01,0.01 -0.02,0.01 -0.04,0.01l-0.1 0 0 -0.33 0.1 0c0.02,0 0.03,0 0.04,0.01 0.01,0.01 0.01,0.02 0.01,0.03l0 0.07c0,0.01 0,0.02 -0.01,0.03 0,0.01 -0.01,0.01 -0.01,0.01l0.02 0zm-0.05 -0.03l0 -0.07 -0.05 0 0 0.09 0.05 -0.02z"/>
   <polygon id="19" class="fil0" points="6.05,1.97 5.99,1.97 5.99,1.64 6.05,1.64 "/>
   <polygon id="20" class="fil0" points="6.14,1.97 6.14,1.69 6.08,1.69 6.08,1.64 6.24,1.64 6.24,1.69 6.19,1.69 6.19,1.97 "/>
   <polygon id="21" class="fil0" points="6.34,1.97 6.28,1.97 6.28,1.64 6.34,1.64 "/>
   <path id="22" class="fil0" d="M6.39 1.68c0,-0.01 0,-0.02 0.01,-0.03 0.01,-0.01 0.02,-0.01 0.03,-0.01l0.06 0c0.02,0 0.03,0 0.04,0.01 0,0.01 0.01,0.02 0.01,0.03l0 0.25c0,0.01 -0.01,0.02 -0.01,0.03 -0.01,0.01 -0.02,0.01 -0.04,0.01l-0.06 0c-0.01,0 -0.02,0 -0.03,-0.01 -0.01,-0.01 -0.01,-0.02 -0.01,-0.03l0 -0.25zm0.09 0.01l-0.04 0 0 0.23 0.04 0 0 -0.23z"/>
   <path id="23" class="fil0" d="M6.64 1.97l-0.05 0 0 -0.33 0.05 0 0 0.02c0.01,0 0.01,-0.01 0.02,-0.02 0,0 0.01,0 0.02,0l0.02 0c0.01,0 0.02,0 0.03,0.01 0.01,0.01 0.01,0.02 0.01,0.03l0 0.29 -0.05 0 0 -0.28 -0.05 0 0 0.28z"/>
   <rect class="fil1" x="5.52" width="1.58" height="0.18"/>
   <rect class="fil1" transform="matrix(1.10478E-14 0.757736 -0.342784 1.6491E-14 7.09877 -2.21227E-05)" width="2.6" height="0.52"/>
   <path class="fil1" d="M1.73 0.24l-1.49 0 0 1.49 1.49 0 0 -1.49zm-0.19 0.59c-0.02,0 -0.03,-0.03 -0.03,-0.04 0.01,-0.02 0.03,-0.03 0.05,-0.03 0.02,0.01 0.04,0.02 0.05,0.03 0.02,0.01 0.03,0.03 0.03,0.05 0.02,0.05 -0.04,0.11 -0.15,0.17 -0.01,0.14 -0.07,0.26 -0.16,0.35 -0.09,0.08 -0.21,0.14 -0.35,0.14 -0.09,0 -0.18,-0.03 -0.26,-0.07 -0.08,-0.05 -0.14,-0.11 -0.19,-0.19 0,0 0,-0.01 0,-0.01 -0.12,0 -0.19,-0.03 -0.21,-0.09 0,-0.02 0,-0.04 0.01,-0.06 0.01,-0.02 0.03,-0.03 0.05,-0.05 0.01,-0.01 0.04,-0.01 0.05,0 0.01,0.02 0.01,0.04 0,0.05 -0.02,0.02 -0.03,0.03 -0.03,0.04 -0.01,0 -0.01,0 -0.01,0.01 0.01,0.02 0.07,0.03 0.18,0.03 0.11,0 0.27,-0.02 0.44,-0.06 0.17,-0.04 0.32,-0.09 0.42,-0.14 0.1,-0.05 0.15,-0.09 0.14,-0.11 0,0 0,0 0,0 -0.01,-0.01 -0.02,-0.02 -0.03,-0.02zm-0.14 0.23c-0.1,0.04 -0.23,0.08 -0.37,0.11 -0.15,0.04 -0.28,0.06 -0.4,0.06 0.04,0.05 0.08,0.09 0.14,0.12 0.03,0.02 0.06,0.03 0.09,0.04 0.01,0 0.01,0 0.01,-0.01l0.09 -0.07c0,0 0.01,-0.01 0.02,-0.01l0.05 0 0.05 -0.08c0,-0.02 0.03,-0.02 0.04,-0.02 0.01,0.01 0.02,0.02 0.02,0.02l0.05 0.11c0.01,0.01 0.01,0.01 0.01,0.02 0.02,-0.02 0.05,-0.03 0.07,-0.06 0.07,-0.06 0.11,-0.14 0.13,-0.23zm-0.3 -0.47c0,0 0,0 0.01,0l0.01 0c-0.05,-0.02 -0.09,-0.03 -0.14,-0.03 -0.07,0 -0.14,0.02 -0.19,0.05 0,0.01 0,0.03 0,0.03 0.01,0 0.01,0.01 0.02,0.01 0.01,0 0.02,0.01 0.04,0.01 0.05,0 0.09,0.06 0.09,0.06 0.01,0.01 0.01,0.01 0.01,0.01l0 0c0,0 0.01,0.07 0.01,0.09l0 0c0.01,-0.01 0.02,-0.01 0.02,-0.02 0,0 0,0 0.01,0 0,0 0,0 0.01,-0.01l0 0 0 0c0,0 0.02,-0.01 0.02,-0.01 0,0 0,-0.02 0,-0.04l0 0c0,-0.03 -0.01,-0.07 0,-0.08 0.01,-0.03 0.06,-0.06 0.08,-0.07zm0.11 0.04l0 0 -0.08 0.03c-0.01,0 -0.04,0.02 -0.04,0.02 0,0.01 0,0.03 0,0.06l0 0c0,0.02 0,0.04 0,0.05 -0.01,0.04 -0.04,0.05 -0.06,0.07l0 0c0,0 0,0 0,0l0 0 -0.02 0.02c-0.02,0.03 -0.04,0.06 -0.07,0.06 -0.02,0 -0.04,-0.01 -0.04,-0.04 0,0 0,-0.01 0,-0.02 -0.01,-0.02 -0.01,-0.04 -0.01,-0.06 0,-0.01 -0.01,-0.05 -0.01,-0.07 -0.01,0 -0.02,-0.02 -0.03,-0.02 -0.03,0 -0.05,-0.01 -0.07,-0.02l-0.01 0c-0.02,-0.01 -0.04,-0.04 -0.05,-0.06 -0.1,0.08 -0.16,0.2 -0.16,0.34 0,0.01 0,0.03 0,0.04 0,0.01 0,0.02 0,0.04 0.01,0.02 -0.01,0.04 -0.03,0.05 -0.02,0 -0.05,-0.01 -0.05,-0.04 0,-0.01 -0.01,-0.03 -0.01,-0.04 0,-0.02 0,-0.04 0,-0.05 0,-0.28 0.23,-0.51 0.51,-0.51 0.11,0 0.22,0.03 0.31,0.1 0.08,0.06 0.15,0.16 0.18,0.26 0.01,0.03 -0.01,0.05 -0.03,0.06 -0.02,0.01 -0.05,-0.01 -0.05,-0.03 -0.03,-0.09 -0.08,-0.17 -0.16,-0.22 0,-0.01 -0.01,-0.01 -0.02,-0.02zm-0.1 0.76l0.01 -0.04 -0.01 -0.03 -0.02 0.03c-0.01,0.01 -0.02,0.02 -0.03,0.02l-0.06 0 -0.05 0.04c0.01,0 0.02,0 0.03,0 0.05,0 0.09,-0.01 0.13,-0.02z"/>
   <polygon class="fil0" points="2.29,0.18 2.2,0.18 2.2,0 2.29,0 2.29,0.03 2.24,0.03 2.24,0.07 2.29,0.05 2.29,0.09 2.24,0.11 2.24,0.15 2.29,0.15 "/>
   <polygon id="1" class="fil0" points="2.4,0.09 2.37,0 2.4,0 2.42,0.05 2.44,0 2.47,0 2.44,0.09 2.47,0.18 2.44,0.18 2.42,0.13 2.4,0.18 2.36,0.18 "/>
   <polygon id="2" class="fil0" points="2.65,0 2.65,0.18 2.62,0.18 2.62,0.1 2.59,0.11 2.59,0.18 2.55,0.18 2.55,0 2.59,0 2.59,0.08 2.62,0.06 2.62,0 "/>
   <polygon id="3" class="fil0" points="2.78,0.18 2.74,0.18 2.74,0 2.78,0 "/>
   <path id="4" class="fil0" d="M2.94 0.15l0 -0.06 -0.03 0.01 0 0.05 0.03 0zm0.03 -0.07l0 0.07c0,0.01 0,0.02 -0.01,0.02 0,0 -0.01,0.01 -0.02,0.01l-0.07 0 0 -0.18 0.07 0c0.01,0 0.02,0 0.02,0.01 0.01,0 0.01,0.01 0.01,0.02l0 0.03c0,0.01 0,0.01 0,0.02 -0.01,0 -0.01,0 -0.02,0l0.02 0zm-0.03 -0.02l0 -0.03 -0.03 0 0 0.05 0.03 -0.02z"/>
   <polygon id="5" class="fil0" points="3.1,0.18 3.06,0.18 3.06,0 3.1,0 "/>
   <polygon id="6" class="fil0" points="3.21,0.18 3.21,0.03 3.18,0.03 3.18,0 3.28,0 3.28,0.03 3.25,0.03 3.25,0.18 "/>
   <polygon id="7" class="fil0" points="3.4,0.18 3.36,0.18 3.36,0 3.4,0 "/>
   <path id="8" class="fil0" d="M3.49 0.03c0,-0.01 0,-0.02 0.01,-0.02 0.01,-0.01 0.01,-0.01 0.02,-0.01l0.04 0c0.01,0 0.02,0 0.02,0.01 0.01,0 0.01,0.01 0.01,0.02l0 0.12c0,0.01 0,0.02 -0.01,0.02 0,0 -0.01,0.01 -0.02,0.01l-0.04 0c-0.01,0 -0.01,-0.01 -0.02,-0.01 -0.01,0 -0.01,-0.01 -0.01,-0.02l0 -0.12zm0.06 0l-0.02 0 0 0.12 0.02 0 0 -0.12z"/>
   <path id="9" class="fil0" d="M3.72 0.18l-0.04 0 0 -0.18 0.04 0 0 0.02c0,-0.01 0,-0.01 0.01,-0.01 0,-0.01 0,-0.01 0.01,-0.01l0.01 0c0.01,0 0.02,0 0.02,0.01 0.01,0 0.01,0.01 0.01,0.02l0 0.15 -0.03 0 0 -0.15 -0.03 0 0 0.15z"/>
   <path id="10" class="fil0" d="M4 0.07l0 -0.04 -0.03 0 0 0.06 0.03 -0.02zm0.04 0.02l-0.07 0.03 0 0.06 -0.03 0 0 -0.18 0.07 0c0.01,0 0.01,0 0.02,0.01 0,0 0.01,0.01 0.01,0.02l0 0.06z"/>
   <polygon id="11" class="fil0" points="4.21,0.15 4.21,0.18 4.12,0.18 4.12,0 4.16,0 4.16,0.15 "/>
   <path id="12" class="fil0" d="M4.35 0.07l0 -0.04 -0.02 0 0 0.05 0.02 -0.01zm0.04 0.11l-0.04 0 0 -0.08 -0.02 0.01 0 0.07 -0.04 0 0 -0.15c0,-0.01 0,-0.02 0.01,-0.02 0,-0.01 0.01,-0.01 0.02,-0.01l0.04 0c0.01,0 0.02,0 0.02,0.01 0.01,0 0.01,0.01 0.01,0.02l0 0.15z"/>
   <path id="13" class="fil0" d="M4.52 0.18l-0.04 0 0 -0.18 0.04 0 0 0.02c0,-0.01 0,-0.01 0,-0.01 0.01,-0.01 0.01,-0.01 0.02,-0.01l0.01 0c0.01,0 0.02,0 0.02,0.01 0.01,0 0.01,0.01 0.01,0.02l0 0.15 -0.04 0 0 -0.15 -0.02 0 0 0.15z"/>
   <path id="14" class="fil0" d="M4.71 0.18l-0.04 0 0 -0.18 0.04 0 0 0.02c0,-0.01 0,-0.01 0,-0.01 0.01,-0.01 0.01,-0.01 0.02,-0.01l0.01 0c0.01,0 0.02,0 0.02,0.01 0.01,0 0.01,0.01 0.01,0.02l0 0.15 -0.04 0 0 -0.15 -0.02 0 0 0.15z"/>
   <polygon id="15" class="fil0" points="4.9,0.18 4.86,0.18 4.86,0 4.9,0 "/>
   <path id="16" class="fil0" d="M5.02 0.18l-0.03 0 0 -0.18 0.03 0 0 0.02c0.01,-0.01 0.01,-0.01 0.01,-0.01 0,-0.01 0.01,-0.01 0.02,-0.01l0.01 0c0.01,0 0.01,0 0.02,0.01 0,0 0.01,0.01 0.01,0.02l0 0.15 -0.04 0 0 -0.15 -0.03 0 0 0.15z"/>
   <path id="17" class="fil0" d="M5.18 0.03c0,-0.01 0,-0.02 0.01,-0.02 0,-0.01 0.01,-0.01 0.02,-0.01l0.04 0c0.01,0 0.01,0 0.02,0.01 0,0 0.01,0.01 0.01,0.02l0 0.02 -0.04 0.02 0 -0.04 -0.03 0 0 0.12 0.03 0 0 -0.04 -0.01 0.01 0 -0.04 0.05 -0.02 0 0.12 -0.07 0c-0.01,0 -0.02,-0.01 -0.02,-0.01 -0.01,0 -0.01,-0.01 -0.01,-0.02l0 -0.12z"/>
  </g>
 </g>
</svg>
