<?xml version="1.0" encoding="UTF-8"?>
<!DOCTYPE svg PUBLIC "-//W3C//DTD SVG 1.1//EN" "http://www.w3.org/Graphics/SVG/1.1/DTD/svg11.dtd">
<!-- Creator: CorelDRAW 2017 -->
<svg xmlns="http://www.w3.org/2000/svg" xml:space="preserve" width="111px" height="90px" version="1.1" style="shape-rendering:geometricPrecision; text-rendering:geometricPrecision; image-rendering:optimizeQuality; fill-rule:evenodd; clip-rule:evenodd"
viewBox="0 0 0.92 0.74"
 xmlns:xlink="http://www.w3.org/1999/xlink">
 <defs>
  <style type="text/css">
   <![CDATA[
    .fil1 {fill:white}
    .fil0 {fill:white;fill-rule:nonzero}
   ]]>
  </style>
 </defs>
 <g id="图层_x0020_1">
  <metadata id="CorelCorpID_0Corel-Layer"/>
  <path class="fil0" d="M0.03 0l0.71 0 0 0.22 0.18 0.15 -0.18 0.15 0 0.22 -0.74 0 0 -0.74 0.03 0zm0.65 0.07l-0.61 0 0 0.61 0.61 0 0 -0.19 0.14 -0.12 -0.14 -0.11 0 -0.19z"/>
  <polygon class="fil1" points="0.75,0.37 0.71,0.34 0.68,0.32 0.68,0.37 0.68,0.43 0.71,0.4 "/>
  <path class="fil1" d="M0.65 0.09l-0.56 0 0 0.56 0.56 0 0 -0.56zm-0.22 0.19l-0.06 -0.06 -0.13 0.02 -0.03 0.14 0.03 0.03 0.19 -0.13zm-0.13 -0.01c0.01,0.01 0.01,0.02 0,0.03 -0.01,0.01 -0.02,0.01 -0.03,0 -0.01,-0.01 -0.01,-0.02 0,-0.03 0.01,-0.01 0.02,-0.01 0.03,0zm-0.08 0.15l-0.03 -0.03c-0.01,0 -0.01,-0.01 -0.01,-0.01l0.03 -0.16 0 0c0,0 0,-0.01 0.01,-0.01l0.16 -0.03c0,0 0.01,0 0.01,0.01l0.08 0.07c0,0 0,0 0.01,0.01 0,0 0,0.01 -0.01,0.02l-0.25 0.17c-0.01,0.01 -0.02,0 -0.02,0 -0.01,-0.01 0,-0.02 0,-0.03l0.02 -0.01zm0.09 0.05l0.05 0.05c0.01,0.01 0.02,0.01 0.03,0.01 0,0 0.01,0 0.02,-0.01 0,0 0,0 0,0l0 0 0.11 -0.11c0.01,0 0.01,-0.01 0.01,-0.02 0,-0.01 0,-0.02 -0.01,-0.03 0,0 0,0 0,0l0 0 -0.02 -0.02 -0.19 0.13zm0.03 0.07l0 0 -0.06 -0.05c-0.01,0 -0.01,-0.01 -0.01,-0.01 -0.01,-0.01 0,-0.02 0,-0.02l0.25 -0.17c0.01,-0.01 0.02,-0.01 0.03,0 0,0.01 0,0.02 -0.01,0.02l-0.01 0.01 0.01 0.02c0,0 0,0 0,0 0.02,0.01 0.02,0.03 0.02,0.05 0,0.01 0,0.03 -0.02,0.05l0 0 -0.11 0.1c0,0 0,0.01 0,0.01 -0.01,0.01 -0.03,0.01 -0.04,0.01 -0.02,0 -0.04,0 -0.05,-0.02z"/>
 </g>
</svg>
