<?xml version="1.0" encoding="UTF-8"?>
<!DOCTYPE svg PUBLIC "-//W3C//DTD SVG 1.1//EN" "http://www.w3.org/Graphics/SVG/1.1/DTD/svg11.dtd">
<!-- Creator: CorelDRAW 2017 -->
<svg xmlns="http://www.w3.org/2000/svg" xml:space="preserve" width="322px" height="90px" version="1.1" style="shape-rendering:geometricPrecision; text-rendering:geometricPrecision; image-rendering:optimizeQuality; fill-rule:evenodd; clip-rule:evenodd"
viewBox="0 0 8.6 2.39"
 xmlns:xlink="http://www.w3.org/1999/xlink">
 <defs>
  <style type="text/css">
   <![CDATA[
    .fil1 {fill:white}
    .fil0 {fill:white;fill-rule:nonzero}
   ]]>
  </style>
 </defs>
 <g id="图层_x0020_1">
  <metadata id="CorelCorpID_0Corel-Layer"/>
  <g id="_1916939511056">
   <path class="fil0" d="M0.11 0l2.28 0 0 0.72 0.57 0.47 -0.57 0.48 0 0.72 -2.39 0 0 -2.39 0.11 0zm2.06 0.22l-1.95 0 0 1.95 1.95 0 0 -0.6 0.46 -0.38 -0.46 -0.37 0 -0.6z"/>
   <polygon class="fil1" points="2.41,1.19 2.29,1.1 2.17,1.01 2.17,1.19 2.17,1.38 2.29,1.29 "/>
   <path class="fil0" d="M2.67 2.04c0,-0.02 0,-0.03 0.01,-0.04 0.01,-0.01 0.03,-0.01 0.04,-0.01l0.08 0c0.01,0 0.03,0 0.04,0.01 0.01,0.01 0.01,0.02 0.01,0.04l0 0.05 -0.07 0.04 0 -0.08 -0.05 0 0 0.27 0.05 0 0 -0.05 0.07 -0.04 0 0.1c0,0.02 0,0.03 -0.01,0.04 -0.01,0.01 -0.03,0.02 -0.04,0.02l-0.08 0c-0.01,0 -0.03,-0.01 -0.04,-0.02 -0.01,-0.01 -0.01,-0.02 -0.01,-0.04l0 -0.29z"/>
   <polygon id="1" class="fil0" points="6.37,2.39 6.21,2.39 6.21,1.99 6.37,1.99 6.37,2.05 6.27,2.05 6.27,2.15 6.37,2.11 6.37,2.18 6.27,2.23 6.27,2.32 6.37,2.32 "/>
   <path id="2" class="fil0" d="M2.91 2.04c0,-0.02 0.01,-0.03 0.02,-0.04 0.01,-0.01 0.02,-0.01 0.04,-0.01l0.07 0c0.02,0 0.03,0 0.04,0.01 0.01,0.01 0.01,0.02 0.01,0.04l0 0.29c0,0.02 0,0.03 -0.01,0.04 -0.01,0.01 -0.02,0.02 -0.04,0.02l-0.07 0c-0.02,0 -0.03,-0.01 -0.04,-0.02 -0.01,-0.01 -0.02,-0.02 -0.02,-0.04l0 -0.29zm0.12 0.01l-0.05 0 0 0.27 0.05 0 0 -0.27z"/>
   <path id="3" class="fil0" d="M3.22 2.39l-0.06 0 0 -0.4 0.06 0 0 0.03c0.01,-0.01 0.01,-0.02 0.02,-0.03 0,0 0.01,0 0.02,0l0.03 0c0.01,0 0.03,0 0.03,0.01 0.01,0.01 0.02,0.02 0.02,0.04l0 0.35 -0.07 0 0 -0.34 -0.05 0 0 0.34z"/>
   <polygon id="4" class="fil0" points="3.4,2.39 3.4,1.99 3.56,1.99 3.56,2.05 3.47,2.05 3.47,2.15 3.56,2.11 3.56,2.18 3.47,2.23 3.47,2.39 "/>
   <polygon id="5" class="fil0" points="3.77,2.39 3.61,2.39 3.61,1.99 3.77,1.99 3.77,2.05 3.68,2.05 3.68,2.15 3.77,2.11 3.77,2.18 3.68,2.23 3.68,2.32 3.77,2.32 "/>
   <path id="6" class="fil0" d="M4.01 2.19l-0.05 0.02 0.08 0.18 -0.07 0 -0.07 -0.15 -0.01 0 0 0.15 -0.06 0 0 -0.4 0.13 0c0.01,0 0.03,0 0.03,0.01 0.01,0.01 0.02,0.02 0.02,0.04l0 0.15zm-0.07 -0.04l0 -0.1 -0.05 0 0 0.12 0.05 -0.02z"/>
   <polygon id="7" class="fil0" points="4.23,2.39 4.07,2.39 4.07,1.99 4.23,1.99 4.23,2.05 4.14,2.05 4.14,2.15 4.23,2.11 4.23,2.18 4.14,2.23 4.14,2.32 4.23,2.32 "/>
   <path id="8" class="fil0" d="M4.35 2.39l-0.06 0 0 -0.4 0.06 0 0 0.03c0.01,-0.01 0.01,-0.02 0.02,-0.03 0,0 0.01,0 0.02,0l0.03 0c0.01,0 0.03,0 0.03,0.01 0.01,0.01 0.02,0.02 0.02,0.04l0 0.35 -0.07 0 0 -0.34 -0.05 0 0 0.34z"/>
   <path id="9" class="fil0" d="M4.53 2.04c0,-0.02 0.01,-0.03 0.02,-0.04 0.01,-0.01 0.02,-0.01 0.04,-0.01l0.07 0c0.02,0 0.03,0 0.04,0.01 0.01,0.01 0.01,0.02 0.01,0.04l0 0.05 -0.06 0.04 0 -0.08 -0.05 0 0 0.27 0.05 0 0 -0.05 0.06 -0.04 0 0.1c0,0.02 0,0.03 -0.01,0.04 -0.01,0.01 -0.02,0.02 -0.04,0.02l-0.07 0c-0.02,0 -0.03,-0.01 -0.04,-0.02 -0.01,-0.01 -0.02,-0.02 -0.02,-0.04l0 -0.29z"/>
   <polygon id="10" class="fil0" points="4.94,2.39 4.78,2.39 4.78,1.99 4.94,1.99 4.94,2.05 4.84,2.05 4.84,2.15 4.94,2.11 4.94,2.18 4.84,2.23 4.84,2.32 4.94,2.32 "/>
   <path id="11" class="fil0" d="M4.99 2.04c0,-0.02 0.01,-0.03 0.02,-0.04 0.01,-0.01 0.02,-0.01 0.04,-0.01l0.07 0c0.02,0 0.03,0 0.04,0.01 0.01,0.01 0.01,0.02 0.01,0.04l0 0.01 -0.06 0.04 0 -0.04 -0.05 0 0 0.1 0.11 -0.06 0 0.24c0,0.02 0,0.03 -0.01,0.04 -0.01,0.01 -0.02,0.02 -0.04,0.02l-0.07 0c-0.02,0 -0.03,-0.01 -0.04,-0.02 -0.01,-0.01 -0.02,-0.02 -0.02,-0.04l0 -0.03 0.07 -0.04 0 0.06 0.05 0 0 -0.12 -0.12 0.06 0 -0.22z"/>
   <path id="12" class="fil0" d="M5.47 2.15l0 -0.1 -0.05 0 0 0.12 0.05 -0.02zm0.07 0.24l-0.07 0 0 -0.17 -0.05 0.02 0 0.15 -0.07 0 0 -0.35c0,-0.02 0.01,-0.03 0.02,-0.04 0.01,-0.01 0.02,-0.01 0.04,-0.01l0.07 0c0.02,0 0.03,0 0.04,0.01 0.01,0.01 0.02,0.02 0.02,0.04l0 0.35z"/>
   <path id="13" class="fil0" d="M5.67 2.39l-0.07 0 0 -0.4 0.07 0 0 0.03c0,-0.01 0,-0.02 0.01,-0.03 0,0 0.01,0 0.02,0l0.03 0c0.01,0 0.03,0 0.04,0.01 0.01,0.01 0.01,0.02 0.01,0.04l0 0.35 -0.07 0 0 -0.34 -0.04 0 0 0.34z"/>
   <path id="14" class="fil0" d="M5.97 1.99c0.02,0 0.03,0 0.04,0.01 0.01,0.01 0.02,0.02 0.02,0.04l0 0.29c0,0.02 -0.01,0.03 -0.02,0.04 -0.01,0.01 -0.02,0.02 -0.04,0.02l-0.13 0 0 -0.4 0.13 0zm-0.01 0.06l-0.05 0 0 0.27 0.05 0 0 -0.27z"/>
   <polygon id="15" class="fil0" points="6.46,2.18 6.4,1.99 6.47,1.99 6.5,2.09 6.53,1.99 6.6,1.99 6.54,2.18 6.6,2.39 6.53,2.39 6.5,2.27 6.47,2.39 6.4,2.39 "/>
   <polygon id="16" class="fil0" points="6.82,1.99 6.82,2.39 6.76,2.39 6.76,2.2 6.71,2.23 6.71,2.39 6.64,2.39 6.64,1.99 6.71,1.99 6.71,2.15 6.76,2.13 6.76,1.99 "/>
   <polygon id="17" class="fil0" points="6.95,2.39 6.89,2.39 6.89,1.99 6.95,1.99 "/>
   <path id="18" class="fil0" d="M7.13 2.33l0 -0.13 -0.05 0.02 0 0.11 0.05 0zm0.07 -0.16l0 0.16c0,0.02 -0.01,0.04 -0.02,0.05 -0.01,0 -0.02,0.01 -0.04,0.01l-0.12 0 0 -0.4 0.12 0c0.02,0 0.04,0 0.04,0.01 0.01,0.01 0.02,0.02 0.02,0.04l0 0.09c0,0.01 0,0.02 -0.01,0.03 0,0.01 -0.01,0.01 -0.02,0.01l0.03 0zm-0.07 -0.04l0 -0.08 -0.05 0 0 0.11 0.05 -0.03z"/>
   <polygon id="19" class="fil0" points="7.33,2.39 7.26,2.39 7.26,1.99 7.33,1.99 "/>
   <polygon id="20" class="fil0" points="7.44,2.39 7.44,2.05 7.37,2.05 7.37,1.99 7.57,1.99 7.57,2.05 7.5,2.05 7.5,2.39 "/>
   <polygon id="21" class="fil0" points="7.68,2.39 7.61,2.39 7.61,1.99 7.68,1.99 "/>
   <path id="22" class="fil0" d="M7.74 2.04c0,-0.02 0.01,-0.03 0.02,-0.04 0.01,-0.01 0.02,-0.01 0.04,-0.01l0.07 0c0.02,0 0.03,0 0.04,0.01 0.01,0.01 0.01,0.02 0.01,0.04l0 0.29c0,0.02 0,0.03 -0.01,0.04 -0.01,0.01 -0.02,0.02 -0.04,0.02l-0.07 0c-0.02,0 -0.03,-0.01 -0.04,-0.02 -0.01,-0.01 -0.02,-0.02 -0.02,-0.04l0 -0.29zm0.12 0.01l-0.05 0 0 0.27 0.05 0 0 -0.27z"/>
   <path id="23" class="fil0" d="M8.05 2.39l-0.06 0 0 -0.4 0.06 0 0 0.03c0.01,-0.01 0.01,-0.02 0.02,-0.03 0,0 0.01,0 0.02,0l0.02 0c0.02,0 0.03,0 0.04,0.01 0.01,0.01 0.02,0.02 0.02,0.04l0 0.35 -0.07 0 0 -0.34 -0.05 0 0 0.34z"/>
   <rect class="fil1" x="6.84" width="1.76" height="0.22"/>
   <rect class="fil1" transform="matrix(1.10478E-14 0.757736 -0.342784 1.6491E-14 8.60404 -2.68137E-05)" width="3.15" height="0.63"/>
   <path class="fil0" d="M3.77 1.35c0.09,0.04 0.17,0.09 0.24,0.15 0.02,0.01 0.02,0.02 0.01,0.04 -0.02,0.04 -0.04,0.07 -0.07,0.1 -0.01,0.02 -0.03,0.02 -0.04,0 -0.01,-0.02 -0.03,-0.05 -0.05,-0.08 -0.19,0.03 -0.36,0.06 -0.52,0.07l-0.04 -0.15c0.04,0 0.07,-0.01 0.1,-0.05 0.03,-0.03 0.06,-0.07 0.07,-0.12l-0.26 0 -0.03 -0.1 0.78 0 0.06 -0.07 0.14 0.11 -0.03 0.06 -0.56 0 0.08 0.03c-0.04,0.06 -0.09,0.1 -0.13,0.14 0.09,0 0.18,-0.01 0.27,-0.02 0,0 -0.01,-0.02 -0.02,-0.03 -0.02,-0.03 -0.03,-0.04 -0.04,-0.05l0.04 -0.03zm-0.62 -0.26c0.19,-0.12 0.34,-0.27 0.44,-0.46l0.18 0.06c0,0.01 -0.02,0.02 -0.03,0.04 0.01,-0.01 0,-0.01 -0.01,0.01 0.14,0.12 0.3,0.2 0.47,0.23 -0.05,0.05 -0.09,0.1 -0.12,0.16 -0.17,-0.09 -0.3,-0.2 -0.41,-0.33 -0.08,0.08 -0.16,0.16 -0.26,0.22l0.34 0 0.04 -0.05 0.13 0.1 -0.03 0.05 -0.48 0 -0.02 -0.09c-0.06,0.04 -0.12,0.08 -0.19,0.11l-0.05 -0.05z"/>
   <path id="1" class="fil0" d="M5.11 0.75l0.17 0.03c-0.04,0.22 -0.1,0.39 -0.19,0.52 0.08,0.07 0.17,0.13 0.27,0.18 -0.05,0.04 -0.1,0.1 -0.14,0.16 -0.09,-0.06 -0.17,-0.12 -0.24,-0.19 -0.08,0.07 -0.18,0.14 -0.29,0.2l-0.07 -0.06c0.1,-0.06 0.19,-0.15 0.27,-0.26 -0.08,-0.11 -0.14,-0.27 -0.19,-0.48l0.09 -0.02c0.04,0.13 0.11,0.26 0.19,0.36 0.07,-0.13 0.11,-0.28 0.13,-0.44zm-0.78 0.2l0.13 0 0.05 -0.05 0.13 0.1 -0.03 0.03 0 0.3c0.03,-0.02 0.07,-0.06 0.11,-0.11l0.05 0.08c-0.07,0.1 -0.16,0.21 -0.27,0.34l-0.09 -0.12c0.04,-0.04 0.06,-0.09 0.06,-0.14l0 -0.33 -0.12 0 -0.02 -0.1zm0.55 -0.32c0.08,0.06 0.13,0.1 0.16,0.13 0.01,0.02 0.01,0.04 0,0.05 -0.03,0.03 -0.05,0.06 -0.08,0.08 -0.02,0.02 -0.03,0.02 -0.04,-0.01 -0.03,-0.08 -0.06,-0.15 -0.09,-0.22l0.05 -0.03zm-0.42 0.01c0.06,0.03 0.11,0.06 0.15,0.09 0.02,0.01 0.02,0.03 0.01,0.05 -0.01,0.04 -0.03,0.08 -0.05,0.09 -0.02,0.02 -0.03,0.02 -0.05,-0.01 -0.03,-0.06 -0.07,-0.12 -0.11,-0.17l0.05 -0.05z"/>
   <path id="2" class="fil0" d="M5.98 0.67l0.14 0 0 0.03 0.18 0 0.04 -0.05 0.15 0.09 -0.04 0.05 -0.01 0.11c0.01,0.09 -0.05,0.13 -0.17,0.13 0,-0.04 -0.02,-0.06 -0.08,-0.06l-0.01 -0.07c0.09,0.01 0.13,0 0.12,-0.03l0 -0.07 -0.18 0 0 0.27 0.2 0 0.04 -0.04 0.14 0.1 -0.05 0.05c-0.01,0.09 -0.03,0.17 -0.08,0.24 0.05,0.03 0.1,0.05 0.16,0.07 -0.03,0.03 -0.07,0.08 -0.1,0.15 -0.05,-0.04 -0.1,-0.07 -0.13,-0.11 -0.04,0.04 -0.09,0.07 -0.15,0.11l-0.03 -0.03 0 0.04 -0.14 0 0 -0.98zm-0.42 0l0.14 0 0 0.03 0.08 0 0.04 -0.06 0.14 0.09 -0.04 0.06 0 0.74c0.01,0.06 -0.04,0.1 -0.15,0.11 -0.01,-0.05 -0.04,-0.07 -0.09,-0.08l-0.01 -0.05c0.02,0 0.05,0 0.09,0 0.02,0 0.03,-0.01 0.03,-0.03l0 -0.23 -0.1 0c0,0.15 -0.05,0.28 -0.14,0.4l-0.06 -0.03c0.05,-0.1 0.07,-0.23 0.07,-0.41l0 -0.54zm0.67 0.77c-0.05,-0.08 -0.08,-0.17 -0.09,-0.27l-0.02 0 0 0.4c0.04,-0.04 0.08,-0.08 0.11,-0.13zm-0.53 -0.42l0 0.13 0.09 0 0 -0.13 -0.09 0zm0 -0.22l0 0.12 0.09 0 0 -0.12 -0.09 0zm0.52 0.37c0.02,0.05 0.04,0.1 0.06,0.15 0.02,-0.05 0.03,-0.1 0.03,-0.15l-0.09 0z"/>
   <path id="3" class="fil0" d="M6.82 1.25l0.21 0c0.01,-0.03 0.01,-0.06 0.02,-0.09 -0.09,0.05 -0.21,0.08 -0.36,0.1l-0.04 -0.07c0.17,-0.04 0.31,-0.1 0.43,-0.19 -0.04,-0.03 -0.08,-0.07 -0.12,-0.1 -0.06,0.06 -0.12,0.11 -0.18,0.15l-0.06 -0.04c0.11,-0.11 0.18,-0.24 0.23,-0.38l0.19 0.04c0,0.01 -0.01,0.02 -0.02,0.03 -0.01,0.01 -0.01,0.02 -0.02,0.03l0.2 0 0.05 -0.06 0.16 0.13c0,0 0,0.01 -0.01,0.02l-0.07 0.04c-0.04,0.05 -0.08,0.1 -0.12,0.14 0.1,0.03 0.23,0.06 0.38,0.07 -0.03,0.04 -0.06,0.09 -0.09,0.18 -0.15,-0.04 -0.29,-0.09 -0.41,-0.16 -0.04,0.02 -0.09,0.05 -0.13,0.07l0.15 0.01c0,0.03 0,0.05 -0.01,0.08l0.13 0 0.05 -0.05 0.15 0.1 -0.05 0.05c0,0.05 0,0.11 -0.01,0.18 0.01,0.08 -0.06,0.12 -0.19,0.13 0,-0.05 -0.03,-0.08 -0.1,-0.1l0 -0.04c0.03,0 0.06,0 0.09,0 0.03,0 0.05,-0.01 0.05,-0.04 0,-0.04 0.01,-0.09 0.01,-0.13l-0.16 0c-0.06,0.15 -0.21,0.26 -0.44,0.31l-0.04 -0.07c0.16,-0.05 0.26,-0.13 0.31,-0.24l-0.17 0 -0.01 -0.1zm0.2 -0.42c0.05,0.03 0.09,0.07 0.14,0.1 0.04,-0.03 0.07,-0.07 0.1,-0.1l-0.24 0c0,0 0,0 0,0z"/>
   <path class="fil1" d="M2.1 0.29l-1.81 0 0 1.81 1.81 0 0 -1.81zm-0.38 0.72c-0.04,0 -0.07,0.04 -0.07,0.08 0,0.04 0.03,0.07 0.07,0.07 0.04,0 0.07,-0.03 0.07,-0.07 0,-0.04 -0.03,-0.08 -0.07,-0.08zm-1.06 0l0 0c-0.04,0 -0.07,0.04 -0.07,0.08 0,0.04 0.03,0.07 0.07,0.07 0.04,0 0.08,-0.03 0.08,-0.07 0,-0.04 -0.04,-0.08 -0.08,-0.08zm0.84 -0.13l0 0c-0.06,0 -0.11,0.05 -0.11,0.11 0,0.06 0.05,0.11 0.11,0.11 0.06,0 0.11,-0.05 0.11,-0.11 0,-0.06 -0.05,-0.11 -0.11,-0.11zm0.34 0.67l0 0 -0.12 0 0 -0.23c0,-0.04 -0.02,-0.08 -0.03,-0.11 0.01,-0.01 0.02,-0.01 0.03,-0.01 0.07,0 0.12,0.06 0.12,0.12l0 0.23zm-0.96 -0.67l0 0c-0.06,0 -0.11,0.05 -0.11,0.11 0,0.06 0.05,0.11 0.11,0.11 0.06,0 0.11,-0.05 0.11,-0.11 0,-0.06 -0.05,-0.11 -0.11,-0.11zm-0.22 0.32l0 0c0.02,0 0.03,0 0.04,0.01 -0.02,0.03 -0.03,0.07 -0.03,0.11l0 0.23 -0.13 0 0 -0.23c0,-0.06 0.06,-0.12 0.12,-0.12zm0.53 -0.54l0 0c-0.09,0 -0.16,0.07 -0.16,0.16 0,0.09 0.07,0.17 0.16,0.17 0.09,0 0.16,-0.08 0.16,-0.17 0,-0.09 -0.07,-0.16 -0.16,-0.16zm0.49 0.97l0 0 -0.19 0 0 -0.35c0,-0.05 -0.02,-0.09 -0.04,-0.13 0.02,-0.01 0.03,-0.01 0.05,-0.01 0.1,0 0.18,0.08 0.18,0.18l0 0.31zm-0.78 -0.35l0 0 0 0.35 -0.19 0 0 -0.31c0,-0.1 0.08,-0.18 0.17,-0.18 0.02,0 0.04,0 0.05,0.01 -0.02,0.04 -0.03,0.08 -0.03,0.13zm0.04 0.45l0 0 0.51 0 0 -0.45c0,-0.14 -0.12,-0.25 -0.26,-0.25 -0.14,0 -0.25,0.11 -0.25,0.25l0 0.45z"/>
   <path class="fil0" d="M2.67 0.03c0,-0.01 0,-0.02 0.01,-0.02 0,-0.01 0.01,-0.01 0.02,-0.01l0.05 0c0.01,0 0.02,0 0.03,0.01 0.01,0 0.01,0.01 0.01,0.02l0 0.03 -0.05 0.02 0 -0.04 -0.03 0 0 0.14 0.03 0 0 -0.03 0.05 -0.02 0 0.05c0,0.01 0,0.02 -0.01,0.03 -0.01,0 -0.02,0 -0.03,0l-0.05 0c-0.01,0 -0.02,0 -0.02,0 -0.01,-0.01 -0.01,-0.02 -0.01,-0.03l0 -0.15z"/>
   <path id="1" class="fil0" d="M2.9 0.03c0,-0.01 0,-0.02 0.01,-0.02 0,-0.01 0.01,-0.01 0.02,-0.01l0.05 0c0.01,0 0.02,0 0.03,0.01 0.01,0 0.01,0.01 0.01,0.02l0 0.15c0,0.01 0,0.02 -0.01,0.03 -0.01,0 -0.02,0 -0.03,0l-0.05 0c-0.01,0 -0.02,0 -0.02,0 -0.01,-0.01 -0.01,-0.02 -0.01,-0.03l0 -0.15zm0.07 0.01l-0.03 0 0 0.14 0.03 0 0 -0.14z"/>
   <path id="2" class="fil0" d="M3.17 0.21l-0.04 0 0 -0.21 0.04 0 0 0.02c0,-0.01 0.01,-0.01 0.01,-0.01 0.01,-0.01 0.01,-0.01 0.02,-0.01l0.01 0c0.01,0 0.02,0 0.03,0.01 0.01,0 0.01,0.01 0.01,0.02l0 0.18 -0.04 0 0 -0.17 -0.04 0 0 0.17z"/>
   <polygon id="3" class="fil0" points="3.36,0.21 3.36,0 3.47,0 3.47,0.04 3.4,0.04 3.4,0.09 3.47,0.07 3.47,0.1 3.4,0.13 3.4,0.21 "/>
   <polygon id="4" class="fil0" points="3.67,0.21 3.57,0.21 3.57,0 3.67,0 3.67,0.04 3.61,0.04 3.61,0.09 3.67,0.07 3.67,0.1 3.61,0.13 3.61,0.18 3.67,0.18 "/>
   <path id="5" class="fil0" d="M3.9 0.11l-0.03 0.01 0.05 0.09 -0.05 0 -0.04 -0.07 -0.01 0 0 0.07 -0.04 0 0 -0.21 0.08 0c0.01,0 0.02,0 0.03,0.01 0,0 0.01,0.01 0.01,0.02l0 0.08zm-0.05 -0.02l0 -0.05 -0.03 0 0 0.06 0.03 -0.01z"/>
   <polygon id="6" class="fil0" points="4.11,0.21 4.01,0.21 4.01,0 4.11,0 4.11,0.04 4.05,0.04 4.05,0.09 4.11,0.07 4.11,0.1 4.05,0.13 4.05,0.18 4.11,0.18 "/>
   <path id="7" class="fil0" d="M4.26 0.21l-0.04 0 0 -0.21 0.04 0 0 0.02c0,-0.01 0.01,-0.01 0.01,-0.01 0.01,-0.01 0.01,-0.01 0.02,-0.01l0.01 0c0.01,0 0.02,0 0.03,0.01 0.01,0 0.01,0.01 0.01,0.02l0 0.18 -0.04 0 0 -0.17 -0.04 0 0 0.17z"/>
   <path id="8" class="fil0" d="M4.45 0.03c0,-0.01 0,-0.02 0.01,-0.02 0.01,-0.01 0.01,-0.01 0.03,-0.01l0.04 0c0.02,0 0.02,0 0.03,0.01 0.01,0 0.01,0.01 0.01,0.02l0 0.03 -0.04 0.02 0 -0.04 -0.04 0 0 0.14 0.04 0 0 -0.03 0.04 -0.02 0 0.05c0,0.01 0,0.02 -0.01,0.03 -0.01,0 -0.01,0 -0.03,0l-0.04 0c-0.02,0 -0.02,0 -0.03,0 -0.01,-0.01 -0.01,-0.02 -0.01,-0.03l0 -0.15z"/>
   <polygon id="9" class="fil0" points="4.79,0.21 4.68,0.21 4.68,0 4.79,0 4.79,0.04 4.72,0.04 4.72,0.09 4.79,0.07 4.79,0.1 4.72,0.13 4.72,0.18 4.79,0.18 "/>
   <path id="10" class="fil0" d="M4.89 0.03c0,-0.01 0,-0.02 0.01,-0.02 0.01,-0.01 0.02,-0.01 0.03,-0.01l0.05 0c0.01,0 0.02,0 0.02,0.01 0.01,0 0.01,0.01 0.01,0.02l0 0.01 -0.04 0.01 0 -0.01 -0.04 0 0 0.05 0.08 -0.03 0 0.12c0,0.01 0,0.02 -0.01,0.03 0,0 -0.01,0 -0.02,0l-0.05 0c-0.01,0 -0.02,0 -0.03,0 -0.01,-0.01 -0.01,-0.02 -0.01,-0.03l0 -0.02 0.04 -0.01 0 0.03 0.04 0 0 -0.07 -0.08 0.04 0 -0.12z"/>
   <path id="11" class="fil0" d="M5.2 0.03c0,-0.01 0,-0.02 0.01,-0.02 0,-0.01 0.01,-0.01 0.02,-0.01l0.05 0c0.01,0 0.02,0 0.03,0.01 0.01,0 0.01,0.01 0.01,0.02l0 0.01 -0.05 0.01 0 -0.01 -0.03 0 0 0.05 0.08 -0.03 0 0.12c0,0.01 0,0.02 -0.01,0.03 -0.01,0 -0.02,0 -0.03,0l-0.05 0c-0.01,0 -0.02,0 -0.02,0 -0.01,-0.01 -0.01,-0.02 -0.01,-0.03l0 -0.02 0.04 -0.01 0 0.03 0.03 0 0 -0.07 -0.07 0.04 0 -0.12z"/>
   <polygon id="12" class="fil0" points="5.53,0.21 5.43,0.21 5.43,0 5.53,0 5.53,0.04 5.47,0.04 5.47,0.09 5.53,0.07 5.53,0.1 5.47,0.13 5.47,0.18 5.53,0.18 "/>
   <path id="13" class="fil0" d="M5.76 0.11l-0.03 0.01 0.05 0.09 -0.05 0 -0.04 -0.07 -0.01 0 0 0.07 -0.04 0 0 -0.21 0.08 0c0.02,0 0.02,0 0.03,0.01 0.01,0 0.01,0.01 0.01,0.02l0 0.08zm-0.04 -0.02l0 -0.05 -0.04 0 0 0.06 0.04 -0.01z"/>
   <polygon id="14" class="fil0" points="5.9,0.21 5.85,0 5.9,0 5.92,0.14 5.95,0 6,0 5.95,0.21 "/>
   <polygon id="15" class="fil0" points="6.13,0.21 6.09,0.21 6.09,0 6.13,0 "/>
   <path id="16" class="fil0" d="M6.24 0.03c0,-0.01 0.01,-0.02 0.01,-0.02 0.01,-0.01 0.02,-0.01 0.03,-0.01l0.05 0c0.01,0 0.02,0 0.02,0.01 0.01,0 0.01,0.01 0.01,0.02l0 0.03 -0.04 0.02 0 -0.04 -0.03 0 0 0.14 0.03 0 0 -0.03 0.04 -0.02 0 0.05c0,0.01 0,0.02 -0.01,0.03 0,0 -0.01,0 -0.02,0l-0.05 0c-0.01,0 -0.02,0 -0.03,0 0,-0.01 -0.01,-0.02 -0.01,-0.03l0 -0.15z"/>
   <polygon id="17" class="fil0" points="6.58,0.21 6.47,0.21 6.47,0 6.58,0 6.58,0.04 6.52,0.04 6.52,0.09 6.58,0.07 6.58,0.1 6.52,0.13 6.52,0.18 6.58,0.18 "/>
  </g>
 </g>
</svg>
