<?xml version="1.0" encoding="UTF-8"?>
<!DOCTYPE svg PUBLIC "-//W3C//DTD SVG 1.1//EN" "http://www.w3.org/Graphics/SVG/1.1/DTD/svg11.dtd">
<!-- Creator: CorelDRAW 2017 -->
<svg xmlns="http://www.w3.org/2000/svg" xml:space="preserve" width="111px" height="90px" version="1.1" style="shape-rendering:geometricPrecision; text-rendering:geometricPrecision; image-rendering:optimizeQuality; fill-rule:evenodd; clip-rule:evenodd"
viewBox="0 0 0.84 0.68"
 xmlns:xlink="http://www.w3.org/1999/xlink">
 <defs>
  <style type="text/css">
   <![CDATA[
    .fil1 {fill:white}
    .fil0 {fill:white;fill-rule:nonzero}
   ]]>
  </style>
 </defs>
 <g id="图层_x0020_1">
  <metadata id="CorelCorpID_0Corel-Layer"/>
  <path class="fil0" d="M0.03 0l0.65 0 0 0.2 0.16 0.14 -0.16 0.14 0 0.2 -0.68 0 0 -0.68 0.03 0zm0.59 0.06l-0.56 0 0 0.56 0.56 0 0 -0.17 0.13 -0.11 -0.13 -0.11 0 -0.17z"/>
  <polygon class="fil1" points="0.69,0.34 0.65,0.31 0.62,0.29 0.62,0.34 0.62,0.39 0.65,0.37 "/>
  <path class="fil1" d="M0.6 0.08l-0.52 0 0 0.52 0.52 0 0 -0.52zm-0.07 0.21c-0.01,-0.01 -0.01,-0.01 -0.01,-0.02 0,-0.01 0.01,-0.01 0.02,-0.01 0,0 0.01,0.01 0.02,0.01 0,0.01 0.01,0.01 0.01,0.02 0,0.02 -0.02,0.04 -0.06,0.06 0,0.05 -0.02,0.09 -0.05,0.12 -0.03,0.03 -0.08,0.05 -0.12,0.05 -0.03,0 -0.06,-0.01 -0.09,-0.03 -0.03,-0.01 -0.05,-0.04 -0.07,-0.06 0,0 0,0 0,0 -0.04,-0.01 -0.06,-0.02 -0.07,-0.04 0,0 0,-0.01 0.01,-0.02 0,0 0,-0.01 0.01,-0.02 0.01,0 0.01,0 0.02,0.01 0,0 0,0.01 0,0.01 -0.01,0.01 -0.01,0.01 -0.01,0.01 0,0.01 0,0.01 0,0.01 0,0.01 0.02,0.01 0.06,0.01 0.04,0 0.09,-0.01 0.15,-0.02 0.06,-0.01 0.11,-0.03 0.14,-0.05 0.04,-0.01 0.05,-0.03 0.05,-0.04 0,0 0,0 0,0 0,0 -0.01,0 -0.01,0zm-0.05 0.07c-0.03,0.02 -0.08,0.03 -0.13,0.04 -0.05,0.02 -0.09,0.02 -0.13,0.02 0.01,0.02 0.03,0.04 0.04,0.05 0.01,0 0.03,0.01 0.04,0.01 0,0 0,0 0,0l0.03 -0.03c0,0 0,0 0.01,0l0.02 0 0.01 -0.03c0,-0.01 0.01,-0.01 0.02,0 0,0 0,0 0,0l0.02 0.04c0,0 0,0 0,0.01 0.01,-0.01 0.02,-0.02 0.03,-0.02 0.02,-0.03 0.04,-0.05 0.04,-0.09zm-0.1 -0.16c0,0 0,0 0,0l0 0c-0.01,0 -0.03,-0.01 -0.04,-0.01 -0.03,0 -0.05,0.01 -0.07,0.02 0,0 0,0.01 0,0.01 0.01,0 0.01,0 0.01,0 0,0.01 0.01,0.01 0.01,0.01 0.02,0 0.04,0.02 0.04,0.02 0,0 0,0 0,0l0 0c0,0 0,0.02 0,0.03l0 0c0,0 0.01,0 0.01,0 0,0 0,0 0,0 0,0 0,-0.01 0,-0.01l0 0 0 0c0.01,0 0.01,0 0.01,0 0,0 0,-0.01 0,-0.02l0 0c0,-0.01 0,-0.02 0,-0.02 0.01,-0.01 0.02,-0.02 0.03,-0.03zm0.04 0.02l0 0 -0.03 0.01c0,0 -0.01,0 -0.01,0.01 -0.01,0 0,0.01 0,0.01l0 0c0,0.01 0,0.02 0,0.02 -0.01,0.01 -0.02,0.02 -0.02,0.02l0 0c0,0.01 -0.01,0.01 -0.01,0.01l0 0 0 0c-0.01,0.01 -0.02,0.02 -0.02,0.02 -0.01,0.01 -0.02,0 -0.02,-0.01 0,0 0,0 0,-0.01 0,0 0,-0.01 0,-0.02 0,0 -0.01,-0.01 -0.01,-0.02 0,0 0,-0.01 -0.01,-0.01 -0.01,0 -0.01,0 -0.02,0l0 -0.01c-0.01,0 -0.02,-0.01 -0.02,-0.02 -0.04,0.03 -0.06,0.07 -0.06,0.12 0,0.01 0,0.01 0,0.01 0,0.01 0,0.01 0,0.02 0.01,0.01 0,0.01 -0.01,0.02 -0.01,0 -0.01,-0.01 -0.02,-0.02 0,0 0,-0.01 0,-0.01 0,-0.01 0,-0.01 0,-0.02 0,-0.1 0.08,-0.18 0.18,-0.18 0.04,0 0.07,0.02 0.1,0.04 0.03,0.02 0.06,0.05 0.07,0.09 0,0.01 -0.01,0.02 -0.01,0.02 -0.01,0 -0.02,0 -0.02,-0.01 -0.01,-0.03 -0.03,-0.06 -0.05,-0.08 -0.01,0 -0.01,0 -0.01,0zm-0.04 0.26l0.01 -0.01 -0.01 -0.02 0 0.01c-0.01,0.01 -0.01,0.01 -0.01,0.01l-0.03 0 -0.01 0.02c0,0 0,0 0.01,0 0.01,0 0.03,-0.01 0.04,-0.01z"/>
 </g>
</svg>
