<?xml version="1.0" encoding="UTF-8"?>
<!DOCTYPE svg PUBLIC "-//W3C//DTD SVG 1.1//EN" "http://www.w3.org/Graphics/SVG/1.1/DTD/svg11.dtd">
<!-- Creator: CorelDRAW 2017 -->
<svg xmlns="http://www.w3.org/2000/svg" xml:space="preserve" width="111px" height="90px" version="1.1" style="shape-rendering:geometricPrecision; text-rendering:geometricPrecision; image-rendering:optimizeQuality; fill-rule:evenodd; clip-rule:evenodd"
viewBox="0 0 1.02 0.82"
 xmlns:xlink="http://www.w3.org/1999/xlink">
 <defs>
  <style type="text/css">
   <![CDATA[
    .fil1 {fill:white}
    .fil0 {fill:white;fill-rule:nonzero}
   ]]>
  </style>
 </defs>
 <g id="图层_x0020_1">
  <metadata id="CorelCorpID_0Corel-Layer"/>
  <path class="fil0" d="M0.04 0l0.78 0 0 0.25 0.2 0.16 -0.2 0.17 0 0.24 -0.82 0 0 -0.82 0.04 0zm0.71 0.07l-0.68 0 0 0.68 0.68 0 0 -0.21 0.16 -0.13 -0.16 -0.13 0 -0.21z"/>
  <polygon class="fil1" points="0.83,0.41 0.79,0.38 0.75,0.35 0.75,0.41 0.75,0.47 0.79,0.44 "/>
  <path class="fil1" d="M0.72 0.1l-0.62 0 0 0.62 0.62 0 0 -0.62zm-0.13 0.25c-0.01,0 -0.02,0.01 -0.02,0.02 0,0.02 0.01,0.03 0.02,0.03 0.02,0 0.03,-0.01 0.03,-0.03 0,-0.01 -0.01,-0.02 -0.03,-0.02zm-0.36 0l0 0c-0.02,0 -0.03,0.01 -0.03,0.02 0,0.02 0.01,0.03 0.03,0.03 0.01,0 0.02,-0.01 0.02,-0.03 0,-0.01 -0.01,-0.02 -0.02,-0.02zm0.29 -0.05l0 0c-0.02,0 -0.04,0.02 -0.04,0.04 0,0.02 0.02,0.04 0.04,0.04 0.02,0 0.04,-0.02 0.04,-0.04 0,-0.02 -0.02,-0.04 -0.04,-0.04zm0.11 0.23l0 0 -0.04 0 0 -0.08c0,-0.01 0,-0.02 -0.01,-0.03 0.01,0 0.01,-0.01 0.01,-0.01 0.03,0 0.04,0.02 0.04,0.05l0 0.07zm-0.33 -0.23l0 0c-0.02,0 -0.03,0.02 -0.03,0.04 0,0.02 0.01,0.04 0.03,0.04 0.03,0 0.04,-0.02 0.04,-0.04 0,-0.02 -0.01,-0.04 -0.04,-0.04zm-0.07 0.11l0 0c0,0 0.01,0.01 0.01,0.01 -0.01,0.01 -0.01,0.02 -0.01,0.03l0 0.08 -0.04 0 0 -0.07c0,-0.03 0.02,-0.05 0.04,-0.05zm0.18 -0.18l0 0c-0.03,0 -0.05,0.02 -0.05,0.05 0,0.03 0.02,0.06 0.05,0.06 0.03,0 0.06,-0.03 0.06,-0.06 0,-0.03 -0.03,-0.05 -0.06,-0.05zm0.17 0.33l0 0 -0.07 0 0 -0.12c0,-0.01 0,-0.03 -0.01,-0.04 0.01,-0.01 0.01,-0.01 0.02,-0.01 0.03,0 0.06,0.03 0.06,0.06l0 0.11zm-0.27 -0.12l0 0 0 0.12 -0.07 0 0 -0.11c0,-0.03 0.03,-0.06 0.06,-0.06 0.01,0 0.02,0 0.02,0.01 -0.01,0.01 -0.01,0.03 -0.01,0.04zm0.01 0.16l0 0 0.18 0 0 -0.16c0,-0.05 -0.04,-0.09 -0.09,-0.09 -0.05,0 -0.09,0.04 -0.09,0.09l0 0.16z"/>
 </g>
</svg>
