<?xml version="1.0" encoding="UTF-8"?>
<!DOCTYPE svg PUBLIC "-//W3C//DTD SVG 1.1//EN" "http://www.w3.org/Graphics/SVG/1.1/DTD/svg11.dtd">
<!-- Creator: CorelDRAW 2017 -->
<svg xmlns="http://www.w3.org/2000/svg" xml:space="preserve" width="1644px" height="253px" version="1.1" style="shape-rendering:geometricPrecision; text-rendering:geometricPrecision; image-rendering:optimizeQuality; fill-rule:evenodd; clip-rule:evenodd"
viewBox="0 0 224.82 34.65"
 xmlns:xlink="http://www.w3.org/1999/xlink">
 <defs>
  <style type="text/css">
   <![CDATA[
    .fil2 {fill:white}
    .fil0 {fill:#FEFEFE;fill-rule:nonzero}
    .fil1 {fill:white;fill-rule:nonzero}
   ]]>
  </style>
 </defs>
 <g id="图层_x0020_1">
  <metadata id="CorelCorpID_0Corel-Layer"/>
  <path class="fil0" d="M1.1 1.71c0,0.05 -0.01,0.1 -0.05,0.13 -0.03,0.04 -0.08,0.06 -0.12,0.06l-0.93 0 0 -1.9 0.93 0c0.04,0 0.09,0.02 0.12,0.06 0.04,0.03 0.05,0.08 0.05,0.13l0 0.57c0,0.05 -0.01,0.1 -0.05,0.13 -0.03,0.04 -0.08,0.06 -0.12,0.06 0.04,0 0.09,0.02 0.12,0.06 0.04,0.03 0.05,0.08 0.05,0.13l0 0.57zm-0.33 -0.88l0 -0.59 -0.44 0 0 0.59 0.44 0zm0 0.83l0 -0.59 -0.44 0 0 0.59 0.44 0z"/>
  <path id="1" class="fil0" d="M19.81 1.9l-0.93 0c-0.05,0 -0.09,-0.02 -0.12,-0.06 -0.04,-0.03 -0.05,-0.08 -0.05,-0.13l0 -1.71 0.33 0 0 1.66 0.44 0 0 -1.66 0.33 0 0 1.9z"/>
  <path id="2" class="fil0" d="M38.5 1.71c0,0.05 -0.02,0.1 -0.05,0.13 -0.04,0.04 -0.08,0.06 -0.13,0.06l-0.92 0 0.11 -0.24 0.66 0 0 -0.59 -0.6 0c-0.05,0 -0.09,-0.02 -0.12,-0.06 -0.04,-0.03 -0.05,-0.08 -0.05,-0.13l0 -0.69c0,-0.05 0.01,-0.1 0.05,-0.13 0.03,-0.04 0.07,-0.06 0.12,-0.06l0.93 0 -0.11 0.24 -0.66 0 0 0.59 0.59 0c0.05,0 0.09,0.02 0.13,0.06 0.03,0.03 0.05,0.08 0.05,0.13l0 0.69z"/>
  <polygon id="3" class="fil0" points="56.42,1.9 56.09,1.9 56.09,0 56.42,0 "/>
  <path id="4" class="fil0" d="M75.13 1.9l-0.33 0 0 -1.66 -0.44 0 0 1.66 -0.33 0 0 -1.9 0.92 0c0.05,0 0.09,0.02 0.13,0.06 0.03,0.03 0.05,0.08 0.05,0.13l0 1.71z"/>
  <polygon id="5" class="fil0" points="93.73,1.66 93.62,1.9 92.74,1.9 92.74,0 93.73,0 93.62,0.24 93.07,0.24 93.07,0.83 93.51,0.83 93.4,1.07 93.07,1.07 93.07,1.66 "/>
  <path id="6" class="fil0" d="M112.38 1.71c0,0.05 -0.02,0.1 -0.05,0.13 -0.04,0.04 -0.08,0.06 -0.13,0.06l-0.92 0 0.11 -0.24 0.66 0 0 -0.59 -0.6 0c-0.05,0 -0.09,-0.02 -0.12,-0.06 -0.04,-0.03 -0.05,-0.08 -0.05,-0.13l0 -0.69c0,-0.05 0.01,-0.1 0.05,-0.13 0.03,-0.04 0.07,-0.06 0.12,-0.06l0.93 0 -0.11 0.24 -0.66 0 0 0.59 0.59 0c0.05,0 0.09,0.02 0.13,0.06 0.03,0.03 0.05,0.08 0.05,0.13l0 0.69z"/>
  <path id="7" class="fil0" d="M131.05 1.71c0,0.05 -0.01,0.1 -0.05,0.13 -0.03,0.04 -0.07,0.06 -0.12,0.06l-0.93 0 0.11 -0.24 0.66 0 0 -0.59 -0.59 0c-0.05,0 -0.09,-0.02 -0.13,-0.06 -0.03,-0.03 -0.05,-0.08 -0.05,-0.13l0 -0.69c0,-0.05 0.02,-0.1 0.05,-0.13 0.04,-0.04 0.08,-0.06 0.13,-0.06l0.92 0 -0.11 0.24 -0.66 0 0 0.59 0.6 0c0.05,0 0.09,0.02 0.12,0.06 0.04,0.03 0.05,0.08 0.05,0.13l0 0.69z"/>
  <polygon id="8" class="fil0" points="150.1,1.66 149.99,1.9 149.11,1.9 149.11,0 150.1,0 149.99,0.24 149.44,0.24 149.44,0.83 149.88,0.83 149.77,1.07 149.44,1.07 149.44,1.66 "/>
  <polygon id="9" class="fil0" points="168.95,0 168.46,1.9 168.11,1.9 167.61,0 167.97,0 168.28,1.31 168.6,0 "/>
  <polygon id="10" class="fil0" points="187.51,1.66 187.39,1.9 186.51,1.9 186.51,0 187.51,0 187.39,0.24 186.84,0.24 186.84,0.83 187.28,0.83 187.17,1.07 186.84,1.07 186.84,1.66 "/>
  <path id="11" class="fil0" d="M206.17 1.9l-0.33 0 0 -1.66 -0.44 0 0 1.66 -0.33 0 0 -1.9 0.93 0c0.04,0 0.09,0.02 0.12,0.06 0.03,0.03 0.05,0.08 0.05,0.13l0 1.71z"/>
  <polygon id="12" class="fil0" points="224.82,0 224.71,0.24 224.44,0.24 224.44,1.9 224.11,1.9 224.11,0.24 223.72,0.24 223.83,0 "/>
  <g id="_1916863817584">
   <path class="fil1" d="M0.57 18.08l0 -5.44 1.6 0c-0.11,-0.22 -0.2,-0.51 -0.27,-0.87l1.03 0c0.07,0.34 0.16,0.63 0.27,0.87l1.6 0c0.11,-0.24 0.2,-0.53 0.27,-0.87l1.03 0c-0.04,0.36 -0.13,0.65 -0.26,0.87l1.56 0 0 4.24c0.03,0.76 -0.33,1.13 -1.06,1.1l-0.8 0 0 -0.7 0.4 0c0.31,0.03 0.45,-0.1 0.43,-0.36l0 -3.61 -4.77 0 0 4.77 -1.03 0zm1.86 -0.97l0 -2.13c-0.22,0.11 -0.47,0.2 -0.73,0.27l0 -0.6c0.53,-0.25 0.9,-0.63 1.1,-1.14l0.97 0c-0.27,0.65 -0.61,1.08 -1.04,1.3l2.51 0c-0.47,-0.26 -0.81,-0.7 -1.04,-1.3l0.97 0c0.2,0.51 0.57,0.89 1.1,1.14l0 0.6c-0.26,-0.07 -0.5,-0.15 -0.7,-0.24l0 1.1c0.03,0.69 -0.31,1.03 -1,1l-2.14 0zm-2.27 -5.54l0 -0.66 3.24 0 0 -0.5 1.23 0 0 0.5 3.21 0 0 0.66 -7.68 0zm3.11 4.91l1 0c0.31,0.02 0.46,-0.12 0.44,-0.43l0 -0.6 -1.44 0 0 1.03z"/>
   <path id="1" class="fil1" d="M9.28 17.72l0 -0.67 2.23 0 0 -6.54 1.07 0 0 6.54 1.07 0 0 -6.54 1.03 0 0 6.54 2.27 0 0 0.67 -7.67 0zm5.9 -2.27c0.29,-1.11 0.49,-2.33 0.6,-3.64l1 0c-0.18,1.56 -0.41,2.77 -0.7,3.64l-0.9 0zm-5.04 0c-0.29,-0.87 -0.52,-2.08 -0.7,-3.64l1 0c0.07,1.11 0.27,2.32 0.6,3.64l-0.9 0z"/>
   <path id="2" class="fil1" d="M20.79 11.54l0 -0.7 3.47 0c0.47,0 0.98,-0.07 1.53,-0.2l0 0.73c-0.46,0.12 -0.95,0.17 -1.46,0.17l-0.54 0 0 1.17 2.3 0 0 0.7 -2.3 0 0 1.23 1.9 0 0 2.04c0.02,0.82 -0.39,1.23 -1.23,1.2l-3.58 0 0 -3.24 1.84 0 0 -1.23 -2.2 0 0 -0.7 2.2 0 0 -1.17 -1.93 0zm1.1 5.71l2.2 0c0.4,0 0.59,-0.19 0.56,-0.57l0 -1.34 -2.76 0 0 1.91zm-3.54 0.7c0.53,-1.07 0.85,-2.17 0.96,-3.3l0.94 0c-0.11,1.22 -0.38,2.32 -0.8,3.3l-1.1 0zm0.86 -3.7c-0.15,-0.54 -0.37,-1.09 -0.66,-1.67l0.96 0c0.32,0.51 0.56,1.06 0.74,1.67l-1.04 0zm-0.06 -2.01c-0.16,-0.58 -0.38,-1.13 -0.67,-1.67l1 0c0.29,0.49 0.51,1.05 0.67,1.67l-1 0z"/>
   <path id="3" class="fil1" d="M27.45 13.68l0 -0.67 3.74 0 0 0.67 -1.6 0c-0.25,1 -0.64,1.88 -1.17,2.64 0.67,0 1.24,-0.04 1.7,-0.1 -0.04,-0.27 -0.14,-0.66 -0.3,-1.17 -0.06,-0.2 -0.11,-0.36 -0.13,-0.47l0.77 0c0.33,0.91 0.56,1.74 0.7,2.47 0.33,-0.67 0.55,-1.34 0.67,-2 0.11,-0.65 0.16,-1.58 0.16,-2.81l-0.76 0 0 -0.7 0.8 0 0 -1.13 0.96 0 0 0.7 0 0.43 2.01 0 0 5.21c0.02,0.82 -0.35,1.22 -1.13,1.2l-0.8 0 0 -0.67 0.5 0c0.31,0 0.45,-0.15 0.43,-0.46l0 -4.58 -1 0c0.04,2.76 -0.61,4.72 -1.94,5.88l0 -0.84 -0.74 0 -0.06 -0.36c-0.92,0.11 -1.82,0.16 -2.71,0.16l0 -0.8c0.47,-0.82 0.8,-1.69 1,-2.6l-1.1 0zm0.37 -2.04l0 -0.7 3.07 0 0 0.7 -3.07 0z"/>
   <path class="fil1" d="M4.94 23.28l0.65 0 0.16 -1.09 -0.63 0 0 -0.21 0.67 0 0.1 -0.68 -0.85 0 0 -0.21 2.52 0 0 0.21 -1.44 0 -0.1 0.68 1.22 0 0 1.3 0.45 0 0 0.21 -2.75 0 0 -0.21zm2.07 -1.09l-1.02 0 -0.17 1.09 1.19 0 0 -1.09z"/>
   <path id="1" class="fil1" d="M9.64 23.29l1.08 0c0.14,-0.35 0.29,-0.86 0.47,-1.52l0.25 0.07c-0.12,0.35 -0.27,0.83 -0.48,1.45l0.69 0 0 0.21 -2.01 0 0 -0.21zm-0.76 -1.04c0.26,-0.4 0.46,-0.85 0.6,-1.35l0.23 0.06c-0.07,0.23 -0.15,0.45 -0.24,0.66l0 2.03 -0.21 0 0 -1.6c-0.09,0.16 -0.18,0.32 -0.28,0.45 -0.02,-0.07 -0.06,-0.15 -0.1,-0.25zm0.82 -0.85l0.98 0c-0.09,-0.14 -0.18,-0.27 -0.28,-0.39l0.19 -0.13c0.08,0.1 0.18,0.23 0.3,0.39l-0.2 0.13 0.91 0 0 0.21 -1.9 0 0 -0.21zm0.37 0.39c0.13,0.34 0.26,0.74 0.4,1.22l-0.23 0.06c-0.12,-0.45 -0.25,-0.85 -0.38,-1.2l0.21 -0.08z"/>
   <polygon id="2" class="fil1" points="12.84,22.06 15.61,22.06 15.61,22.31 12.84,22.31 "/>
   <path id="3" class="fil1" d="M19.58 22.92c-0.07,0.08 -0.12,0.15 -0.17,0.21 -0.37,-0.29 -0.64,-0.77 -0.81,-1.45l0 1.17 0.4 0 0 0.2 -0.4 0 0 0.58 -0.21 0 0 -0.58 -0.41 0 0 -0.2 0.41 0 0 -1.17 -0.01 0c-0.17,0.64 -0.45,1.14 -0.85,1.49 -0.04,-0.05 -0.09,-0.11 -0.15,-0.17 0.36,-0.33 0.63,-0.77 0.81,-1.32l-0.66 0 0 -0.2 0.86 0 0 -0.57 0.21 0 0 0.57 0.88 0 0 0.2 -0.71 0c0.18,0.57 0.45,0.99 0.81,1.24zm-2.8 -0.68c0.26,-0.39 0.46,-0.84 0.6,-1.34l0.21 0.06c-0.07,0.24 -0.16,0.46 -0.25,0.67l0 2 -0.2 0 0 -1.58c-0.09,0.15 -0.18,0.29 -0.27,0.42 -0.03,-0.07 -0.06,-0.15 -0.09,-0.23z"/>
   <path id="4" class="fil1" d="M20.79 21.99l1.09 0c0.04,-0.2 0.07,-0.41 0.07,-0.65l-0.94 0 0 -0.22 2.26 0 0 0.22 -1.08 0c-0.01,0.24 -0.04,0.45 -0.07,0.65l1.36 0 0 0.21 -1.41 0c-0.14,0.63 -0.53,1.12 -1.16,1.46 -0.04,-0.06 -0.1,-0.13 -0.15,-0.2 0.55,-0.27 0.91,-0.69 1.08,-1.26l-1.05 0 0 -0.21zm1.43 0.41l0.22 0 0 0.73c0,0.15 0.07,0.22 0.21,0.22l0.38 0c0.12,0 0.2,-0.05 0.21,-0.16 0.02,-0.11 0.03,-0.24 0.04,-0.41 0.07,0.02 0.14,0.05 0.23,0.08 -0.02,0.18 -0.04,0.32 -0.05,0.41 -0.02,0.19 -0.16,0.28 -0.4,0.28l-0.48 0c-0.24,0 -0.36,-0.13 -0.36,-0.38l0 -0.77z"/>
   <path id="5" class="fil1" d="M26.36 20.9l0.21 0c-0.03,0.06 -0.07,0.13 -0.1,0.19l0.81 0 0 0.15c-0.11,0.17 -0.25,0.31 -0.42,0.43 0.17,0.08 0.37,0.14 0.6,0.17 -0.03,0.07 -0.06,0.13 -0.08,0.18 -0.27,-0.04 -0.5,-0.12 -0.69,-0.24 -0.19,0.11 -0.42,0.19 -0.68,0.25 -0.03,-0.06 -0.06,-0.12 -0.09,-0.17 0.23,-0.04 0.44,-0.11 0.61,-0.2 -0.09,-0.07 -0.18,-0.17 -0.25,-0.27 -0.06,0.09 -0.13,0.17 -0.21,0.24 -0.03,-0.04 -0.08,-0.08 -0.13,-0.13 0.19,-0.18 0.33,-0.38 0.42,-0.6zm-0.43 1.96l0.65 0 0 -0.2 -0.52 0 0 -0.16 0.52 0 0 -0.2 -0.56 0 0 -0.16 0.56 0 0 -0.19 0.2 0 0 0.19 0.56 0 0 0.16 -0.56 0 0 0.2 0.51 0 0 0.16 -0.51 0 0 0.2 0.65 0 0 0.16 -0.65 0 0 0.26 -0.2 0 0 -0.26 -0.65 0 0 -0.16zm0.44 0.5c0.31,0.01 0.68,0.01 1.09,-0.01 -0.03,0.08 -0.05,0.15 -0.08,0.22 -0.32,0 -0.66,0 -1.03,-0.01 -0.27,-0.01 -0.47,-0.11 -0.62,-0.31 -0.08,0.11 -0.17,0.24 -0.27,0.39l-0.14 -0.19c0.12,-0.14 0.22,-0.27 0.31,-0.37l0 -0.99 -0.18 0 0 -0.19 0.38 0 0 1.18c0.11,0.19 0.29,0.28 0.54,0.28zm-1.32 -0.82c0.13,-0.01 0.29,-0.03 0.46,-0.05 -0.01,0.07 -0.01,0.14 -0.02,0.2 -0.27,0.02 -0.49,0.04 -0.68,0.06l-0.04 -0.18c0.11,-0.13 0.23,-0.32 0.36,-0.56 -0.15,0.01 -0.28,0.02 -0.38,0.03l-0.05 -0.18c0.17,-0.26 0.32,-0.58 0.47,-0.95l0.21 0.07c-0.16,0.32 -0.31,0.61 -0.45,0.87 0.09,-0.01 0.19,-0.01 0.29,-0.02 0.04,-0.09 0.09,-0.19 0.14,-0.3l0.2 0.08c-0.18,0.37 -0.35,0.67 -0.51,0.93zm-0.36 0.59c0.24,-0.03 0.5,-0.07 0.8,-0.13 -0.01,0.06 -0.01,0.13 -0.02,0.2 -0.33,0.05 -0.57,0.1 -0.73,0.14l-0.05 -0.21zm2.37 -1.88l-0.68 0c0,0 0,0 -0.01,0 0.09,0.13 0.2,0.24 0.33,0.32 0.14,-0.09 0.27,-0.2 0.36,-0.32zm-1.38 -0.32c0.07,0.17 0.14,0.35 0.21,0.54 -0.06,0.01 -0.12,0.04 -0.19,0.07 -0.07,-0.21 -0.13,-0.39 -0.19,-0.55l0.17 -0.06z"/>
   <path id="6" class="fil1" d="M30.02 21.5l0.32 0c0,-0.19 0.01,-0.38 0.01,-0.57l0.22 0c0,0.19 0,0.38 -0.01,0.57l0.71 0c-0.02,0.9 -0.04,1.45 -0.05,1.65 -0.02,0.29 -0.15,0.43 -0.39,0.43 -0.06,0 -0.18,0 -0.37,-0.01 -0.02,-0.08 -0.03,-0.17 -0.05,-0.25 0.15,0.02 0.28,0.03 0.39,0.03 0.12,0 0.18,-0.07 0.2,-0.23 0.01,-0.23 0.03,-0.7 0.05,-1.42l-0.49 0c-0.01,0.47 -0.04,0.82 -0.09,1.04 -0.09,0.36 -0.27,0.66 -0.56,0.91 -0.03,-0.07 -0.08,-0.14 -0.14,-0.21 0.11,-0.08 0.2,-0.17 0.27,-0.28 -0.41,0.06 -0.85,0.13 -1.35,0.2l-0.03 -0.22c0.08,-0.01 0.15,-0.02 0.23,-0.03l0 -2.02 0.98 0 0 1.9c0.06,-0.01 0.13,-0.02 0.19,-0.03 0,0.04 0,0.1 -0.01,0.18 0.09,-0.13 0.16,-0.28 0.2,-0.45 0.05,-0.2 0.08,-0.53 0.09,-0.99l-0.32 0 0 -0.2zm-0.36 1.52l0 -0.45 -0.56 0 0 0.52c0.19,-0.02 0.37,-0.05 0.56,-0.07zm0 -1.74l-0.56 0 0 0.46 0.56 0 0 -0.46zm-0.56 1.11l0.56 0 0 -0.47 -0.56 0 0 0.47z"/>
   <path id="7" class="fil1" d="M32.75 21.52l0.9 0c0,-0.2 0.01,-0.41 0.01,-0.62l0.24 0c0,0.2 -0.01,0.4 -0.01,0.62l1.28 0c-0.03,0.73 -0.05,1.24 -0.07,1.54 -0.02,0.32 -0.19,0.48 -0.51,0.49 -0.15,0 -0.34,-0.01 -0.55,-0.01 -0.01,-0.08 -0.02,-0.16 -0.04,-0.27l0.01 0c0.24,0.02 0.42,0.03 0.56,0.03 0.18,0 0.28,-0.1 0.3,-0.3 0.02,-0.33 0.03,-0.75 0.05,-1.25l-1.04 0c-0.01,0.49 -0.09,0.85 -0.23,1.09 -0.14,0.27 -0.43,0.53 -0.85,0.78 -0.06,-0.06 -0.11,-0.13 -0.17,-0.21 0.4,-0.22 0.66,-0.45 0.79,-0.68 0.13,-0.21 0.21,-0.54 0.22,-0.98l-0.89 0 0 -0.23z"/>
   <path id="8" class="fil1" d="M5.05 27.07l1.15 0 0 -0.48 -0.9 0 0 -0.2 0.9 0 0 -0.43 -0.8 0 0 -0.21 1.83 0 0 0.21 -0.8 0 0 0.43 0.9 0 0 0.2 -0.9 0 0 0.48 1.15 0 0 0.21 -2.53 0 0 -0.21zm1.46 -2.37l-0.05 0.07c0.31,0.4 0.72,0.71 1.24,0.92 -0.06,0.08 -0.11,0.15 -0.15,0.22 -0.49,-0.24 -0.9,-0.56 -1.23,-0.97 -0.28,0.37 -0.7,0.7 -1.26,1.01 -0.04,-0.07 -0.08,-0.14 -0.14,-0.21 0.58,-0.29 1.01,-0.64 1.3,-1.04l0.29 0z"/>
   <path id="9" class="fil1" d="M10.07 24.79l1.38 0 0 0.95 -0.22 0 0 -0.11 -0.95 0 0 0.11 -0.21 0 0 -0.95zm-1.21 1.84c0.18,-0.27 0.33,-0.59 0.42,-0.96l-0.39 0 0 -0.18 0.44 0 0 -0.44c-0.12,0.02 -0.24,0.04 -0.36,0.05 -0.02,-0.06 -0.04,-0.13 -0.06,-0.19 0.32,-0.03 0.63,-0.08 0.95,-0.15l0.07 0.19c-0.13,0.03 -0.27,0.05 -0.4,0.08l0 0.46 0.39 0 0 0.18 -0.39 0 0 0.37 0.11 -0.09c0.07,0.07 0.18,0.19 0.32,0.36l-0.16 0.14c-0.11,-0.14 -0.2,-0.25 -0.27,-0.34l0 1.29 -0.2 0 0 -1.33c-0.1,0.32 -0.22,0.58 -0.37,0.8 -0.03,-0.08 -0.07,-0.16 -0.1,-0.24zm0.98 0.43l0.8 0 0 -0.41 -0.63 0 0 -0.18 0.63 0 0 -0.38 -0.7 0 0 -0.19 1.62 0 0 0.19 -0.7 0 0 0.38 0.63 0 0 0.18 -0.63 0 0 0.41 0.8 0 0 0.19 -1.82 0 0 -0.19zm1.39 -2.08l-0.95 0 0 0.46 0.95 0 0 -0.46z"/>
   <path id="10" class="fil1" d="M13.54 24.65l0.22 0.06c-0.04,0.1 -0.08,0.19 -0.12,0.29l1.6 0c-0.01,0.66 -0.02,1.12 -0.05,1.37 -0.02,0.31 -0.17,0.46 -0.45,0.46 -0.08,0 -0.21,-0.01 -0.4,-0.01 -0.01,-0.07 -0.03,-0.15 -0.04,-0.23 0.15,0.01 0.29,0.02 0.4,0.02 0.17,0 0.26,-0.09 0.28,-0.27 0.02,-0.24 0.03,-0.62 0.04,-1.14l-1.49 0c-0.06,0.11 -0.13,0.23 -0.21,0.34l1.16 0 0 0.81 -1.01 0 0 0.52c0,0.15 0.08,0.22 0.24,0.22l1.29 0c0.18,0 0.28,-0.05 0.31,-0.17 0.03,-0.1 0.05,-0.24 0.07,-0.41 0.08,0.04 0.15,0.06 0.22,0.08 -0.02,0.17 -0.05,0.3 -0.07,0.41 -0.05,0.2 -0.21,0.31 -0.47,0.31l-1.4 0c-0.27,0 -0.41,-0.14 -0.41,-0.4l0 -1.26c-0.09,0.12 -0.19,0.24 -0.29,0.35 -0.04,-0.07 -0.09,-0.14 -0.14,-0.2 0.33,-0.35 0.56,-0.73 0.72,-1.15zm0.73 1.08l-0.8 0 0 0.43 0.8 0 0 -0.43z"/>
   <path id="11" class="fil1" d="M16.95 25.17l0.82 0c0.01,-0.16 0.01,-0.33 0.01,-0.5l0.24 0c-0.01,0.17 -0.01,0.34 -0.02,0.5l1.03 0c-0.02,0.76 -0.03,1.28 -0.05,1.59 -0.02,0.36 -0.18,0.55 -0.48,0.55 -0.16,0 -0.34,0 -0.53,-0.01 -0.01,-0.08 -0.02,-0.16 -0.04,-0.27 0.2,0.02 0.38,0.03 0.54,0.03 0.18,0 0.28,-0.12 0.29,-0.36 0.02,-0.38 0.03,-0.81 0.04,-1.3l-0.81 0c-0.03,0.58 -0.1,0.99 -0.23,1.23 -0.12,0.26 -0.37,0.51 -0.76,0.75 -0.05,-0.06 -0.1,-0.13 -0.15,-0.19 0.37,-0.24 0.61,-0.47 0.71,-0.7 0.11,-0.19 0.17,-0.56 0.2,-1.09l-0.81 0 0 -0.23zm0.23 0.48l0.22 0.08c-0.11,0.28 -0.25,0.56 -0.39,0.84 -0.06,-0.03 -0.13,-0.07 -0.21,-0.11 0.15,-0.25 0.27,-0.52 0.38,-0.81zm1.89 0.08l0.2 -0.06c0.1,0.22 0.19,0.47 0.29,0.74l-0.22 0.08c-0.08,-0.25 -0.17,-0.5 -0.27,-0.76z"/>
   <path id="12" class="fil1" d="M20.79 25.75l1.09 0c0.04,-0.2 0.07,-0.41 0.07,-0.65l-0.94 0 0 -0.22 2.26 0 0 0.22 -1.08 0c-0.01,0.24 -0.04,0.45 -0.07,0.65l1.36 0 0 0.21 -1.41 0c-0.14,0.63 -0.53,1.12 -1.16,1.46 -0.04,-0.06 -0.1,-0.13 -0.15,-0.2 0.55,-0.27 0.91,-0.69 1.08,-1.26l-1.05 0 0 -0.21zm1.43 0.41l0.22 0 0 0.74c0,0.14 0.07,0.22 0.21,0.22l0.38 0c0.12,0 0.2,-0.06 0.21,-0.17 0.02,-0.11 0.03,-0.24 0.04,-0.41 0.07,0.02 0.14,0.05 0.23,0.08 -0.02,0.18 -0.04,0.32 -0.05,0.41 -0.02,0.19 -0.16,0.28 -0.4,0.28l-0.48 0c-0.24,0 -0.36,-0.13 -0.36,-0.38l0 -0.77z"/>
   <path id="13" class="fil1" d="M25.69 25.35l0.44 0c0.01,-0.19 0.02,-0.42 0.01,-0.67l0.22 0c0,0.25 0,0.47 -0.01,0.67l1.06 0 0 0.21 -0.7 0 0 1.38c0,0.11 0.04,0.16 0.13,0.16l0.19 0c0.09,0 0.15,-0.05 0.17,-0.15 0.02,-0.13 0.04,-0.27 0.05,-0.43 0.07,0.04 0.15,0.06 0.22,0.09 -0.02,0.17 -0.04,0.3 -0.06,0.41 -0.04,0.2 -0.17,0.3 -0.38,0.3l-0.26 0c-0.19,0 -0.28,-0.11 -0.28,-0.33l0 -1.43 -0.15 0c-0.02,0.71 -0.26,1.33 -0.75,1.84 -0.05,-0.06 -0.11,-0.12 -0.18,-0.17 0.45,-0.46 0.69,-1.01 0.71,-1.67l-0.43 0 0 -0.21zm-0.85 -0.07l0.18 0.02c-0.03,0.26 -0.07,0.49 -0.12,0.72 -0.06,-0.02 -0.12,-0.03 -0.2,-0.05 0.06,-0.19 0.1,-0.42 0.14,-0.69zm1.79 -0.39l0.13 -0.14c0.19,0.12 0.33,0.23 0.44,0.33l-0.14 0.16c-0.15,-0.13 -0.29,-0.24 -0.43,-0.35zm-1.55 -0.2l0.21 0 0 0.59 0.12 -0.08c0.11,0.14 0.2,0.28 0.28,0.42l-0.18 0.1c-0.07,-0.15 -0.15,-0.27 -0.22,-0.37l0 2.03 -0.21 0 0 -2.69z"/>
   <path class="fil1" d="M2.25 33.77c0.15,0.22 0.26,0.45 0.34,0.71l-0.18 0c-0.01,-0.03 -0.02,-0.07 -0.03,-0.14 -0.01,0 -0.01,-0.01 -0.01,-0.02 -0.49,0.04 -1,0.06 -1.54,0.06l-0.24 0 0 -0.13c0.25,-0.23 0.43,-0.48 0.54,-0.75l-0.8 0 0 -0.13 2.47 0 0 0.13 -1.45 0c-0.16,0.3 -0.35,0.55 -0.59,0.75 0.67,0.01 1.19,0 1.56,-0.03 -0.04,-0.09 -0.11,-0.23 -0.22,-0.43 0.01,0.01 0.01,0 -0.01,-0.02l0.16 0zm-2.04 -0.9c0.54,-0.22 0.97,-0.56 1.27,-1l0.16 0c0.31,0.44 0.73,0.78 1.28,1l0 0.11c-0.57,-0.2 -1.02,-0.5 -1.36,-0.89 -0.33,0.39 -0.78,0.69 -1.35,0.89l0 -0.11zm0.62 -0.06l1.46 0 0 0.13 -1.46 0 0 -0.13z"/>
   <path id="1" class="fil1" d="M6.02 34.4l0 0.13c-0.42,-0.22 -0.74,-0.44 -0.95,-0.67 -0.23,0.23 -0.55,0.45 -0.96,0.67l0 -0.13c0.33,-0.19 0.62,-0.41 0.86,-0.65 -0.33,-0.38 -0.56,-0.89 -0.69,-1.51l0.18 0c0.12,0.57 0.32,1.03 0.61,1.38 0.27,-0.33 0.46,-0.8 0.59,-1.38l0.19 0c-0.13,0.62 -0.36,1.13 -0.69,1.51 0.23,0.24 0.52,0.45 0.86,0.65zm-2.15 -0.38c0.1,-0.04 0.24,-0.11 0.4,-0.21l0 0.14c-0.15,0.13 -0.34,0.23 -0.58,0.33l0 -1.4 -0.33 0 0 -0.12 0.51 0 0 1.26zm1.14 -2.1c0.09,0.18 0.15,0.39 0.2,0.63l-0.18 0c-0.03,-0.22 -0.08,-0.43 -0.17,-0.63l0.15 0zm-1.28 0c0.1,0.19 0.18,0.38 0.24,0.58l-0.17 0c-0.05,-0.18 -0.12,-0.38 -0.22,-0.58l0.15 0z"/>
   <path id="2" class="fil1" d="M6.72 34.52l0 -0.87 0.87 0c0.04,-0.09 0.07,-0.18 0.08,-0.28l-1.17 0 0 -0.11 2.65 0 0 0.11 -1.3 0c-0.01,0.08 -0.04,0.18 -0.09,0.28l1.16 0 0 0.53c0,0.22 -0.11,0.32 -0.36,0.31l-0.12 0 0 -0.11 0.11 0c0.14,0.01 0.2,-0.06 0.19,-0.2l0 -0.42 -0.51 0 0 0.69 -0.16 0 0 -0.69 -0.52 0 0 0.69 -0.16 0 0 -0.69 -0.5 0 0 0.76 -0.17 0zm0.01 -2.48l2.18 0 0 0.12 -1 0 0 0.21 1.16 0 0 0.53 -0.18 0 0 -0.41 -0.98 0 0 0.63 -0.18 0 0 -0.63 -1 0 0 0.41 -0.16 0 0 -0.53 1.16 0 0 -0.21 -1 0 0 -0.12zm0.2 0.64l0.61 0 0 0.11 -0.61 0 0 -0.11zm0 0.29l0.61 0 0 0.1 -0.61 0 0 -0.1zm1.16 0l0.61 0 0 0.1 -0.61 0 0 -0.1zm0 -0.29l0.61 0 0 0.11 -0.61 0 0 -0.11z"/>
   <path id="3" class="fil1" d="M11.05 31.89l0 0.48 0.57 0 0 -0.41 0.18 0 0 0.41 0.44 0 0 0.14 -1.19 0 0 0.3c0.29,0.56 0.69,1.01 1.2,1.34l0 0.11c-0.53,-0.29 -0.93,-0.68 -1.2,-1.14l0 1.03c0,0.23 -0.12,0.34 -0.38,0.33l-0.22 0 0 -0.12 0.21 0c0.13,0 0.2,-0.07 0.2,-0.21l0 -1.64 -1.21 0 0 -0.14 1.21 0 0 -0.48 0.19 0zm-0.43 1.65c-0.29,0.27 -0.61,0.48 -0.96,0.62l0 -0.18c0.3,-0.12 0.62,-0.31 0.96,-0.6l0 0.16zm-0.68 -0.82l0.19 0c0.02,0.2 0.09,0.39 0.19,0.58l-0.16 0c-0.11,-0.17 -0.19,-0.37 -0.22,-0.58zm2.01 0c-0.04,0.21 -0.11,0.41 -0.23,0.58l-0.16 0c0.11,-0.19 0.17,-0.38 0.2,-0.58l0.19 0z"/>
   <path id="4" class="fil1" d="M13.14 33.04l1.77 0 0 1.05c0,0.25 -0.12,0.36 -0.37,0.36l-0.24 0 0 -0.12 0.19 0c0.17,0.01 0.25,-0.07 0.24,-0.23l0 -0.94 -0.89 0c-0.02,0.67 -0.34,1.13 -0.96,1.39l0 -0.12c0.51,-0.26 0.77,-0.68 0.79,-1.27l-0.53 0 0 -0.12zm2.25 0.1c-0.58,-0.2 -0.94,-0.6 -1.07,-1.19l0.19 0c0.11,0.5 0.4,0.86 0.88,1.08l0 0.11zm-2.64 0l0 -0.11c0.48,-0.22 0.77,-0.58 0.88,-1.08l0.19 0c-0.13,0.59 -0.49,0.99 -1.07,1.19z"/>
   <path id="5" class="fil1" d="M18.06 34.53l-0.2 0 0 -1.54 -0.63 0 0 0.47c0.02,0.53 -0.13,0.88 -0.46,1.06l0 -0.14c0.19,-0.15 0.28,-0.44 0.27,-0.87l0 -1.42 0.85 0c0.18,0.01 0.37,-0.03 0.56,-0.1l0 0.13c-0.14,0.06 -0.3,0.09 -0.5,0.08l-0.72 0 0 0.67 1.31 0 0 0.12 -0.48 0 0 1.54zm-2.17 -2.04l0 -0.12 0.4 0 0 -0.46 0.17 0 0 0.46 0.42 0 0 0.12 -0.41 0c0.1,0.39 0.23,0.72 0.39,0.99l0 0.2c-0.18,-0.25 -0.31,-0.51 -0.4,-0.76l0 1.61 -0.17 0 0 -1.49c-0.08,0.3 -0.23,0.62 -0.43,0.94l0 -0.2c0.17,-0.36 0.31,-0.79 0.41,-1.29l-0.38 0z"/>
   <path id="6" class="fil1" d="M22.17 32.48l0 -0.12 0.41 0 0 -0.45 0.17 0 0 0.45 0.38 0 0 0.12 -0.37 0c0.08,0.29 0.21,0.58 0.38,0.89l0 0.19c-0.17,-0.24 -0.3,-0.47 -0.39,-0.67l0 1.65 -0.17 0 0 -1.53c-0.08,0.28 -0.24,0.6 -0.46,0.96l0 -0.19c0.21,-0.4 0.36,-0.84 0.46,-1.3l-0.41 0zm0.96 0.17c0.25,-0.18 0.38,-0.43 0.4,-0.73l0.18 0c-0.02,0.12 -0.05,0.22 -0.08,0.31l1.06 0 0 1.92c0.01,0.22 -0.11,0.33 -0.35,0.32l-0.31 0 0 -0.13 0.31 0c0.12,0 0.17,-0.04 0.16,-0.13l0 -1.86 -0.92 0c-0.09,0.16 -0.24,0.3 -0.45,0.43l0 -0.13zm0.89 0.45c0.08,0.23 0.15,0.52 0.21,0.86l-0.15 0 -0.02 -0.18c-0.25,0.06 -0.45,0.08 -0.59,0.08l-0.24 0 0 -0.12c0.14,-0.32 0.24,-0.66 0.29,-1l0.18 0c-0.07,0.38 -0.18,0.71 -0.32,1 0.26,0 0.48,-0.02 0.67,-0.05 -0.03,-0.16 -0.08,-0.36 -0.15,-0.59l0.12 0z"/>
   <path id="7" class="fil1" d="M27.64 32.12l0 0.39 0.25 0 0 0.12 -0.25 0 0 0.12c0.01,0.21 -0.09,0.31 -0.31,0.3l-0.34 0 0 0.3 0.72 0 0 0.11 -0.72 0 0 0.32 0.81 0 0 0.12 -0.81 0 0 0.3 -0.18 0 0 -0.3 -0.7 0 0 -0.12 0.7 0 0 -0.32 -0.61 0 0 -0.11 0.61 0 0 -0.3 -0.58 0 0 -0.11 0.58 0 0 -0.31 -0.71 0 0 -0.12 0.71 0 0 -0.28 -0.57 0 0 -0.11 0.57 0 0 -0.22 0.18 0 0 0.22 0.65 0zm-2.2 1.24c0.05,0.31 0.15,0.54 0.29,0.69 0.11,-0.14 0.17,-0.32 0.16,-0.54l0 -0.44 -0.58 0 0 -0.12c0.26,-0.23 0.44,-0.47 0.55,-0.7l-0.58 0 0 -0.13 0.78 0 0 0.13c-0.13,0.27 -0.32,0.5 -0.57,0.7l0.56 0 0 0.53c0,0.29 -0.07,0.52 -0.21,0.67 0.16,0.09 0.38,0.14 0.64,0.14l1.41 0 0 0.14 -1.44 0c-0.3,0 -0.54,-0.06 -0.72,-0.18 -0.12,0.08 -0.27,0.16 -0.47,0.25l0 -0.11c0.03,-0.01 0.07,-0.04 0.11,-0.07 0.12,-0.06 0.21,-0.11 0.25,-0.16 -0.16,-0.17 -0.28,-0.43 -0.34,-0.8l0.16 0zm1.86 -0.42c0.12,0 0.18,-0.06 0.18,-0.18l0 -0.13 -0.49 0 0 0.31 0.31 0zm0.18 -0.71l-0.49 0 0 0.28 0.49 0 0 -0.28z"/>
   <path id="8" class="fil1" d="M29.58 34.52l0 -0.12c0.28,-0.15 0.49,-0.3 0.63,-0.43 -0.19,-0.22 -0.34,-0.52 -0.46,-0.91l0.17 0c0.12,0.34 0.25,0.61 0.4,0.79 0.2,-0.24 0.34,-0.57 0.43,-1l-1.14 0 0 0.62c0.03,0.5 -0.12,0.85 -0.44,1.07l0 -0.14c0.19,-0.21 0.29,-0.49 0.27,-0.86l0 -1.45 0.97 0c0.19,0 0.39,-0.03 0.6,-0.08l0 0.14c-0.23,0.04 -0.42,0.06 -0.57,0.06l-0.83 0 0 0.52 1.32 0 0 0.12c-0.11,0.51 -0.28,0.88 -0.52,1.13 0.12,0.12 0.33,0.26 0.62,0.42l0 0.12c-0.32,-0.15 -0.56,-0.29 -0.72,-0.44 -0.13,0.12 -0.37,0.27 -0.73,0.44zm-1.25 -0.81c0.2,-0.39 0.34,-0.8 0.43,-1.22l-0.39 0 0 -0.12 0.4 0 0 -0.47 0.18 0 0 0.47 0.35 0 0 0.12 -0.35 0c0.1,0.4 0.23,0.7 0.36,0.9l0 0.19c-0.15,-0.22 -0.27,-0.44 -0.36,-0.66l0 1.61 -0.18 0 0 -1.55c-0.08,0.27 -0.23,0.58 -0.44,0.94l0 -0.21z"/>
   <path id="9" class="fil1" d="M33.89 32.32l0 0.96 0.26 0 0 0.13 -0.94 0c0.04,0.43 0.36,0.77 0.94,1.02l0 0.12c-0.52,-0.2 -0.87,-0.47 -1.05,-0.8 -0.15,0.34 -0.47,0.6 -0.96,0.8l0 -0.12c0.53,-0.25 0.82,-0.59 0.86,-1.02l-0.65 0 0 -0.13 0.66 0 0 -0.06 0 -0.78 -0.52 0 0 -0.12 0.52 0 0 -0.4 0.19 0 0 0.4 0.69 0zm-1.46 1.53c-0.24,0.14 -0.55,0.23 -0.93,0.28l0 -0.16c0.14,-0.02 0.26,-0.04 0.37,-0.06l0 -1.21 -0.35 0 0 -0.12 0.35 0 0 -0.66 0.18 0 0 0.66 0.35 0 0 0.12 -0.35 0 0 1.16c0.01,0 0.03,0 0.06,-0.01 0.08,-0.02 0.18,-0.06 0.32,-0.11l0 0.11zm1.28 -1.41l-0.51 0 0 0.78 0 0.06 0.51 0 0 -0.84z"/>
   <path id="10" class="fil1" d="M36.84 32.57c0.11,0.19 0.21,0.4 0.29,0.63l-0.18 0c0,-0.02 -0.01,-0.05 -0.03,-0.09 -0.01,-0.05 -0.03,-0.08 -0.03,-0.09 -0.36,0.07 -0.79,0.11 -1.28,0.11l-0.19 0 0 -0.15c0.21,-0.18 0.37,-0.41 0.5,-0.67l-0.58 0 0 -0.12 0.87 0 0 -0.29 0.17 0 0 0.29 0.82 0 0 0.12 -1.08 0c-0.11,0.25 -0.28,0.47 -0.52,0.67 0.54,0 0.96,-0.02 1.25,-0.07 -0.03,-0.07 -0.08,-0.17 -0.16,-0.32 0,0.01 0,0 -0.01,-0.02l0.16 0zm-0.2 0.71l0.16 0 0 0.92c-0.01,0.1 0.06,0.15 0.21,0.15 0.12,0 0.17,-0.05 0.16,-0.15l0 -0.08 0.13 0 0 0.09c0.01,0.18 -0.09,0.27 -0.28,0.26l-0.07 0c-0.21,0.01 -0.31,-0.09 -0.31,-0.3l0 -0.89zm-1.06 0.01l0.16 0 0 0.42c0.01,0.37 -0.14,0.65 -0.47,0.83l0 -0.13c0.21,-0.16 0.32,-0.39 0.31,-0.68l0 -0.44zm0.55 -0.01l0.16 0 0 1.2 -0.16 0 0 -1.2zm-1.24 1.2l-0.19 0c0.17,-0.33 0.29,-0.7 0.34,-1.11l0.15 0c-0.05,0.42 -0.15,0.79 -0.3,1.11zm0.02 -2.53c0.13,0.21 0.21,0.4 0.26,0.57l-0.16 0c-0.07,-0.2 -0.15,-0.39 -0.26,-0.57l0.16 0zm0.03 0.7c0.1,0.17 0.18,0.36 0.25,0.58l-0.17 0c-0.05,-0.19 -0.13,-0.38 -0.24,-0.58l0.16 0z"/>
   <path id="11" class="fil1" d="M38.91 32.81l0 -0.73 1.33 0 0 0.42c0.02,0.21 -0.1,0.32 -0.34,0.31l-0.99 0zm-1.19 1.05c0.2,-0.32 0.35,-0.67 0.46,-1.05l-0.41 0 0 -0.13 0.42 0 0 -0.48 -0.39 0 0 -0.11 0.48 0c0.13,0 0.28,-0.03 0.46,-0.08l0 0.14c-0.15,0.03 -0.28,0.05 -0.37,0.05l0 0.48 0.36 0 0 0.13 -0.33 0c0.07,0.27 0.19,0.53 0.35,0.76l0 0.17c-0.18,-0.22 -0.31,-0.41 -0.38,-0.59l0 1.4 -0.18 0 0 -1.34c-0.08,0.24 -0.24,0.52 -0.47,0.84l0 -0.19zm2.72 0.42l0 0.12 -1.79 0 0 -0.12 0.82 0 0 -0.47 -0.61 0 0 -0.12 0.61 0 0 -0.46 -0.68 0 0 -0.11 1.56 0 0 0.11 -0.7 0 0 0.46 0.63 0 0 0.12 -0.63 0 0 0.47 0.79 0zm-0.37 -1.79l0 -0.3 -0.99 0 0 0.49 0.78 0c0.15,0.01 0.22,-0.05 0.21,-0.19z"/>
   <path id="12" class="fil1" d="M45.07 33.67l0 -1.64 1.4 0 0 1.64 -0.17 0 0 -1.51 -1.05 0 0 1.51 -0.18 0zm0.61 -1.24l0.17 0 0 0.55c0,0.18 -0.01,0.35 -0.03,0.48l0.14 0 0 0.69c-0.02,0.13 0.07,0.19 0.27,0.18 0.19,0.01 0.28,-0.05 0.27,-0.18l0 -0.09 0.13 0 0 0.09c0.01,0.21 -0.11,0.31 -0.37,0.3l-0.12 0c-0.24,0 -0.36,-0.11 -0.36,-0.31l0 -0.56c-0.07,0.37 -0.38,0.69 -0.91,0.95l0 -0.12c0.58,-0.31 0.85,-0.78 0.81,-1.42l0 -0.56zm-1.66 -0.31l0.95 0 0 0.11 -0.38 0 0 0.79 0.34 0 0 0.11 -0.34 0 0 0.87c0.02,-0.01 0.06,-0.01 0.1,-0.02 0.06,-0.02 0.17,-0.05 0.31,-0.09l0 0.11c-0.26,0.12 -0.6,0.2 -1.01,0.24l0 -0.16c0.16,-0.01 0.3,-0.02 0.42,-0.04l0 -0.91 -0.36 0 0 -0.11 0.36 0 0 -0.79 -0.39 0 0 -0.11z"/>
   <path id="13" class="fil1" d="M49.53 34.14l0 -1.15 -0.42 0c0,0.67 -0.21,1.19 -0.64,1.55l0 -0.15c0.32,-0.36 0.47,-0.83 0.46,-1.4l-0.44 0c0,0.65 -0.21,1.16 -0.63,1.54l0 -0.15c0.31,-0.35 0.46,-0.82 0.45,-1.39l-0.24 0 0 -0.12c0.51,-0.19 0.91,-0.42 1.21,-0.68l-1.14 0 0 -0.11 1.42 0 0 0.11c-0.38,0.31 -0.76,0.53 -1.15,0.68l1.29 0 0 1.19c0.02,0.3 -0.12,0.44 -0.42,0.42l-0.2 0 0 -0.11 0.2 0c0.17,0 0.25,-0.08 0.25,-0.23zm-1.5 -0.25c-0.25,0.13 -0.54,0.23 -0.89,0.27l0 -0.16c0.13,-0.01 0.26,-0.03 0.37,-0.06l0 -1.27 -0.35 0 0 -0.12 0.35 0 0 -0.62 0.18 0 0 0.62 0.33 0 0 0.12 -0.33 0 0 1.23c0.13,-0.04 0.24,-0.08 0.34,-0.13l0 0.12z"/>
   <path id="14" class="fil1" d="M51.33 34.46l0 -1.3 1.42 0 0 0.98c0.01,0.22 -0.12,0.33 -0.37,0.32l-1.05 0zm-0.7 -2.56l0.17 0 0 0.53 0.33 0 0 0.12 -0.33 0 0 0.66c0.11,-0.03 0.23,-0.07 0.34,-0.11l0 0.11c-0.11,0.05 -0.23,0.1 -0.34,0.14l0 0.9c0,0.17 -0.09,0.26 -0.26,0.27l-0.21 0 0 -0.13 0.15 0c0.1,0 0.15,-0.04 0.15,-0.14l0 -0.84c-0.15,0.03 -0.28,0.05 -0.39,0.06l0 -0.14c0.14,-0.03 0.27,-0.05 0.39,-0.07l0 -0.71 -0.35 0 0 -0.12 0.35 0 0 -0.53zm0.85 -0.01l0 0.46c0.55,-0.05 0.91,-0.17 1.07,-0.37l0.22 0c-0.21,0.28 -0.65,0.44 -1.29,0.49l0 0.06c-0.01,0.17 0.06,0.25 0.22,0.24l0.84 0c0.14,0.01 0.21,-0.04 0.2,-0.17l0 -0.12 0.14 0 0 0.13c0,0.2 -0.1,0.29 -0.31,0.29l-0.91 0c-0.25,0.01 -0.36,-0.11 -0.36,-0.35l0 -0.66 0.18 0zm1.1 2.24l0 -0.27 -1.08 0 0 0.47 0.86 0c0.15,0.01 0.22,-0.06 0.22,-0.2zm-1.08 -0.84l0 0.46 1.08 0 0 -0.46 -1.08 0z"/>
   <path id="15" class="fil1" d="M55.35 32.72l-1.48 0 0 0.18c-0.01,0.15 0.06,0.23 0.22,0.22l1.6 0c0.13,0.01 0.19,-0.05 0.19,-0.17l0 -0.11 0.12 0 0 0.09c0.01,0.22 -0.09,0.32 -0.3,0.31l-1.66 0c-0.23,0 -0.34,-0.11 -0.34,-0.34l0 -0.87 1.96 0 0 0.37c0,0.2 -0.11,0.31 -0.31,0.32zm-1.48 -0.56l0 0.44 1.42 0c0.13,0.01 0.2,-0.05 0.2,-0.19l0 -0.25 -1.62 0zm1.59 1.17l0 0.2 0.6 0 0 0.13 -0.6 0 0 0.54c0,0.2 -0.11,0.31 -0.32,0.31l-0.32 0 0 -0.12 0.26 0c0.14,0 0.21,-0.05 0.2,-0.16l0 -0.57 -1.9 0 0 -0.13 1.9 0 0 -0.2 0.18 0zm-1.43 0.45c0.14,0.16 0.26,0.32 0.34,0.48l-0.18 0c-0.07,-0.15 -0.18,-0.31 -0.32,-0.48l0.16 0z"/>
   <path id="16" class="fil1" d="M57.52 32.43l0 -0.12 0.34 0 0 -0.41 0.17 0 0 0.38 0 0.03 0.65 0 0 1.88c-0.01,0.11 0.05,0.16 0.18,0.16 0.13,0 0.19,-0.05 0.19,-0.15l0 -0.14 0.15 0 0 0.14c0,0.18 -0.1,0.27 -0.3,0.26l-0.07 0c-0.22,0.01 -0.33,-0.08 -0.32,-0.27l0 -1.76 -0.48 0c0,0.29 -0.02,0.54 -0.05,0.75 0.12,0.03 0.24,0.07 0.36,0.11l0 0.17c-0.03,-0.01 -0.08,-0.03 -0.13,-0.05 -0.1,-0.05 -0.18,-0.08 -0.24,-0.1 -0.07,0.47 -0.27,0.88 -0.62,1.23l0 -0.16c0.25,-0.34 0.41,-0.71 0.46,-1.11 -0.04,-0.01 -0.1,-0.02 -0.17,-0.04 -0.06,0 -0.11,-0.01 -0.15,-0.02l0 -0.11c0.12,0 0.23,0.02 0.33,0.04 0.02,-0.2 0.04,-0.43 0.04,-0.71l-0.34 0zm-0.64 -0.53l0.17 0 0 0.51 0.31 0 0 0.12 -0.31 0 0 0.69c0.04,-0.01 0.1,-0.04 0.18,-0.07 0.04,-0.02 0.08,-0.03 0.11,-0.04l0 0.12c-0.09,0.05 -0.19,0.09 -0.29,0.13l0 0.89c0,0.17 -0.09,0.26 -0.28,0.26l-0.19 0 0 -0.13 0.14 0c0.11,0 0.16,-0.04 0.16,-0.13l0 -0.83c-0.1,0.03 -0.22,0.05 -0.38,0.08l0 -0.16c0.14,-0.01 0.27,-0.03 0.38,-0.07l0 -0.74 -0.35 0 0 -0.12 0.35 0 0 -0.51z"/>
   <path id="17" class="fil1" d="M60.63 32.97l0 -0.14 1.69 0 0 0.14 -0.52 0 0 1.2c0,0.22 -0.11,0.33 -0.32,0.32l-0.3 0 0 -0.12 0.24 0c0.14,0 0.2,-0.06 0.19,-0.16l0 -1.24 -0.98 0zm-0.57 1.57l0 -1.31c-0.13,0.09 -0.27,0.15 -0.41,0.2l0 -0.12c0.35,-0.14 0.58,-0.38 0.68,-0.71l0.18 0c-0.07,0.22 -0.16,0.38 -0.27,0.5l0 1.44 -0.18 0zm0.73 -2.44l1.37 0 0 0.14 -1.37 0 0 -0.14zm-1.13 0.51c0.35,-0.15 0.57,-0.38 0.67,-0.71l0.19 0c-0.09,0.39 -0.37,0.66 -0.86,0.83l0 -0.12z"/>
   <polygon id="18" class="fil1" points="20.46,33.37 20.17,33.37 20.17,33.07 20.46,33.07 "/>
   <polygon id="19" class="fil1" points="42.35,33.37 42.06,33.37 42.06,33.07 42.35,33.07 "/>
   <polygon id="20" class="fil2" points="0.1,34.52 18.86,34.52 18.86,34.65 0.1,34.65 "/>
   <polygon id="21" class="fil2" points="21.98,34.52 40.74,34.52 40.74,34.65 21.98,34.65 "/>
   <polygon id="22" class="fil2" points="43.87,34.52 62.44,34.52 62.44,34.65 43.87,34.65 "/>
   <g>
    <rect class="fil2" x="0.71" y="20.73" width="0.61" height="6.84"/>
    <rect class="fil2" x="1.8" y="20.73" width="0.31" height="6.84"/>
   </g>
  </g>
 </g>
</svg>
