<?xml version="1.0" encoding="UTF-8"?>
<!DOCTYPE svg PUBLIC "-//W3C//DTD SVG 1.1//EN" "http://www.w3.org/Graphics/SVG/1.1/DTD/svg11.dtd">
<!-- Creator: CorelDRAW 2017 -->
<svg xmlns="http://www.w3.org/2000/svg" xml:space="preserve" width="1624px" height="500px" version="1.1" style="shape-rendering:geometricPrecision; text-rendering:geometricPrecision; image-rendering:optimizeQuality; fill-rule:evenodd; clip-rule:evenodd"
viewBox="0 0 219.09 67.42"
 xmlns:xlink="http://www.w3.org/1999/xlink">
 <defs>
  <style type="text/css">
   <![CDATA[
    .fil2 {fill:white}
    .fil0 {fill:#FEFEFE;fill-rule:nonzero}
    .fil1 {fill:white;fill-rule:nonzero}
   ]]>
  </style>
 </defs>
 <g id="图层_x0020_1">
  <metadata id="CorelCorpID_0Corel-Layer"/>
  <path class="fil0" d="M0.98 1.64l-0.11 0.23 -0.7 0c-0.04,0 -0.09,-0.01 -0.12,-0.05 -0.03,-0.04 -0.05,-0.08 -0.05,-0.13l0 -1.5c0,-0.05 0.02,-0.1 0.05,-0.14 0.03,-0.03 0.08,-0.05 0.12,-0.05l0.81 0 -0.11 0.23 -0.54 0 0 1.41 0.65 0z"/>
  <path id="1" class="fil0" d="M13.85 1.69c0,0.05 -0.01,0.09 -0.05,0.13 -0.03,0.04 -0.07,0.05 -0.12,0.05l-0.74 0c-0.05,0 -0.09,-0.01 -0.12,-0.05 -0.04,-0.04 -0.05,-0.08 -0.05,-0.13l0 -1.5c0,-0.05 0.01,-0.1 0.05,-0.14 0.03,-0.03 0.07,-0.05 0.12,-0.05l0.74 0c0.05,0 0.09,0.02 0.12,0.05 0.04,0.04 0.05,0.09 0.05,0.14l0 1.5zm-0.32 -0.05l0 -1.41 -0.44 0 0 1.41 0.44 0z"/>
  <path id="2" class="fil0" d="M26.77 1.87l-0.33 0 0 -1.64 -0.43 0 0 1.64 -0.33 0 0 -1.87 0.92 0c0.04,0 0.08,0.02 0.12,0.05 0.03,0.04 0.05,0.09 0.05,0.14l0 1.68z"/>
  <polygon id="3" class="fil0" points="39.58,0 39.47,0.23 38.93,0.23 38.93,0.82 39.36,0.82 39.25,1.06 38.93,1.06 38.93,1.87 38.6,1.87 38.6,0 "/>
  <polygon id="4" class="fil0" points="52.31,1.64 52.2,1.87 51.33,1.87 51.33,0 52.31,0 52.2,0.23 51.66,0.23 51.66,0.82 52.09,0.82 51.98,1.06 51.66,1.06 51.66,1.64 "/>
  <path id="5" class="fil0" d="M65.18 1.87l-0.32 0 -0.33 -1.05 0.33 0 0 -0.59 -0.44 0 0 1.64 -0.32 0 0 -1.87 0.91 0c0.05,0 0.09,0.02 0.12,0.05 0.04,0.04 0.05,0.09 0.05,0.14l0 0.68c0,0.05 -0.01,0.09 -0.05,0.13 -0.03,0.04 -0.07,0.05 -0.12,0.05l-0.08 0 0.25 0.82z"/>
  <polygon id="6" class="fil0" points="77.99,1.64 77.88,1.87 77.01,1.87 77.01,0 77.99,0 77.88,0.23 77.34,0.23 77.34,0.82 77.77,0.82 77.66,1.06 77.34,1.06 77.34,1.64 "/>
  <path id="7" class="fil0" d="M90.86 1.87l-0.32 0 0 -1.64 -0.44 0 0 1.64 -0.32 0 0 -1.87 0.91 0c0.05,0 0.09,0.02 0.12,0.05 0.04,0.04 0.05,0.09 0.05,0.14l0 1.68z"/>
  <path id="8" class="fil0" d="M103.67 1.64l-0.11 0.23 -0.69 0c-0.05,0 -0.09,-0.01 -0.12,-0.05 -0.04,-0.04 -0.06,-0.08 -0.06,-0.13l0 -1.5c0,-0.05 0.02,-0.1 0.06,-0.14 0.03,-0.03 0.07,-0.05 0.12,-0.05l0.8 0 -0.11 0.23 -0.54 0 0 1.41 0.65 0z"/>
  <polygon id="9" class="fil0" points="116.44,1.64 116.33,1.87 115.46,1.87 115.46,0 116.44,0 116.33,0.23 115.79,0.23 115.79,0.82 116.23,0.82 116.12,1.06 115.79,1.06 115.79,1.64 "/>
  <path id="10" class="fil0" d="M129.3 1.69c0,0.05 -0.02,0.09 -0.05,0.13 -0.03,0.04 -0.07,0.05 -0.12,0.05l-0.92 0 0.11 -0.23 0.65 0 0 -0.58 -0.58 0c-0.05,0 -0.09,-0.02 -0.12,-0.06 -0.04,-0.04 -0.06,-0.08 -0.06,-0.13l0 -0.68c0,-0.05 0.02,-0.1 0.06,-0.13 0.03,-0.04 0.07,-0.06 0.12,-0.06l0.91 0 -0.11 0.23 -0.65 0 0 0.59 0.59 0c0.05,0 0.09,0.02 0.12,0.06 0.03,0.03 0.05,0.08 0.05,0.13l0 0.68z"/>
  <path id="11" class="fil0" d="M142.64 1.69c0,0.05 -0.02,0.09 -0.05,0.13 -0.04,0.04 -0.08,0.05 -0.12,0.05l-0.92 0 0.11 -0.23 0.65 0 0 -0.58 -0.58 0c-0.05,0 -0.09,-0.02 -0.13,-0.06 -0.03,-0.04 -0.05,-0.08 -0.05,-0.13l0 -0.68c0,-0.05 0.02,-0.1 0.05,-0.13 0.04,-0.04 0.08,-0.06 0.13,-0.06l0.91 0 -0.11 0.23 -0.65 0 0 0.59 0.59 0c0.04,0 0.08,0.02 0.12,0.06 0.03,0.03 0.05,0.08 0.05,0.13l0 0.68z"/>
  <polygon id="12" class="fil0" points="155.43,1.64 155.32,1.87 154.45,1.87 154.45,0 155.43,0 155.32,0.23 154.78,0.23 154.78,0.82 155.22,0.82 155.11,1.06 154.78,1.06 154.78,1.64 "/>
  <path id="13" class="fil0" d="M168.31 1.87l-0.33 0 -0.33 -1.05 0.33 0 0 -0.59 -0.43 0 0 1.64 -0.33 0 0 -1.87 0.91 0c0.05,0 0.09,0.02 0.13,0.05 0.03,0.04 0.05,0.09 0.05,0.14l0 0.68c0,0.05 -0.02,0.09 -0.05,0.13 -0.04,0.04 -0.08,0.05 -0.13,0.05l-0.08 0 0.26 0.82z"/>
  <polygon id="14" class="fil0" points="181.4,0 180.92,1.87 180.57,1.87 180.08,0 180.43,0 180.74,1.29 181.06,0 "/>
  <polygon id="15" class="fil0" points="193.51,1.87 193.18,1.87 193.18,0 193.51,0 "/>
  <path id="16" class="fil0" d="M206.32 1.64l-0.11 0.23 -0.69 0c-0.05,0 -0.09,-0.01 -0.12,-0.05 -0.04,-0.04 -0.06,-0.08 -0.06,-0.13l0 -1.5c0,-0.05 0.02,-0.1 0.06,-0.14 0.03,-0.03 0.07,-0.05 0.12,-0.05l0.8 0 -0.11 0.23 -0.54 0 0 1.41 0.65 0z"/>
  <polygon id="17" class="fil0" points="219.09,1.64 218.98,1.87 218.11,1.87 218.11,0 219.09,0 218.98,0.23 218.44,0.23 218.44,0.82 218.88,0.82 218.77,1.06 218.44,1.06 218.44,1.64 "/>
  <path class="fil1" d="M99.96 23.7c-0.66,-0.19 -1.23,-0.41 -1.71,-0.65l0 0.69 -4.35 0 0 -0.69c-0.44,0.24 -0.99,0.46 -1.65,0.65l0 -0.65c1.43,-0.57 2.52,-1.43 3.26,-2.57l1.16 0c0.72,1.14 1.82,2 3.29,2.57l0 0.65zm-7.48 1.66l0 -0.73 7.25 0 0 0.73 -4.02 0c-0.35,0.63 -0.82,1.19 -1.41,1.67 1.47,0 2.65,-0.04 3.55,-0.13 -0.11,-0.33 -0.26,-0.65 -0.46,-0.95l0.92 0c0.4,0.63 0.69,1.31 0.89,2.04l-0.99 0c-0.02,-0.18 -0.06,-0.33 -0.13,-0.46 -1.23,0.15 -2.61,0.23 -4.15,0.23l-0.72 0 0 -0.73c0.61,-0.59 1.04,-1.15 1.28,-1.67l-2.01 0zm3.63 -3.86c-0.66,0.68 -1.38,1.2 -2.14,1.55l4.28 0c-0.77,-0.35 -1.48,-0.87 -2.14,-1.55z"/>
  <path id="1" class="fil1" d="M108.87 28.12c-1.22,-0.59 -2.1,-1.15 -2.63,-1.68 -0.57,0.53 -1.46,1.09 -2.67,1.68l0 -0.76c0.79,-0.42 1.49,-0.93 2.08,-1.55 -0.92,-1.01 -1.54,-2.48 -1.85,-4.41l1.03 0c0.3,1.62 0.77,2.86 1.41,3.72 0.64,-0.88 1.11,-2.12 1.42,-3.72l1.02 0c-0.38,1.95 -1,3.43 -1.88,4.41 0.48,0.53 1.18,1.05 2.07,1.55l0 0.76zm-6.87 -0.46l0 -4.08 -0.73 0 0 -0.66 1.78 0 0 3.39c0.06,-0.04 0.16,-0.1 0.3,-0.17 0.26,-0.13 0.46,-0.24 0.59,-0.32l0 0.82c-0.49,0.39 -1.13,0.73 -1.94,1.02zm3.88 -5.3c-0.05,-0.51 -0.19,-1.09 -0.43,-1.75l0.89 0c0.26,0.59 0.43,1.18 0.49,1.75l-0.95 0zm-3.59 -0.1c-0.13,-0.64 -0.31,-1.19 -0.53,-1.65l0.92 0c0.27,0.55 0.45,1.1 0.57,1.65l-0.96 0z"/>
  <path id="2" class="fil1" d="M114.83 28.12l0 -0.76c0.24,-0.11 0.51,-0.33 0.82,-0.65 -0.44,-0.51 -0.76,-1.2 -0.95,-2.08l0.85 0c0.15,0.55 0.34,1.01 0.56,1.38 0.26,-0.46 0.44,-1.03 0.53,-1.71l-2.01 0 0 3.85 -0.96 0 0 -7.25 3.83 0 0 1.23c0.04,0.72 -0.32,1.06 -1.09,1.02l-0.89 0 0 -0.66 0.56 0c0.31,0.02 0.45,-0.12 0.43,-0.43l0 -0.46 -1.88 0 0 2.01 2.93 0 0 0.69c-0.15,1.01 -0.45,1.8 -0.89,2.37 0.18,0.22 0.53,0.47 1.05,0.76l0 0.69c-0.63,-0.33 -1.15,-0.62 -1.54,-0.89 -0.36,0.27 -0.8,0.56 -1.35,0.89zm-4.55 0.03l0 -0.76c0.29,-0.3 0.42,-0.94 0.4,-1.91l0 -4.61 2.47 0 0 6.29c0.02,0.62 -0.28,0.92 -0.92,0.89l-0.56 0 0 -0.65 0.33 0c0.24,0.02 0.35,-0.07 0.33,-0.27l0 -1.61 -0.83 0c0.07,1.18 -0.34,2.06 -1.22,2.63zm1.22 -4.64l0 1.38 0.83 0 0 -1.38 -0.83 0zm0 -2.01l0 1.35 0.83 0 0 -1.35 -0.83 0z"/>
  <path id="3" class="fil1" d="M126.84 24.5c-1.65,-0.16 -2.91,-0.38 -3.79,-0.66 -0.92,0.28 -2.18,0.52 -3.78,0.72l0 -0.59c1.01,-0.15 1.92,-0.35 2.73,-0.59 -0.53,-0.31 -1.02,-0.67 -1.48,-1.09 -0.33,0.11 -0.7,0.2 -1.12,0.26l0 -0.52c0.92,-0.29 1.59,-0.78 2.01,-1.49l1.18 0c-0.02,0.05 -0.06,0.11 -0.13,0.2 -0.04,0.07 -0.11,0.17 -0.2,0.3l3.86 0 0 0.72c-0.62,0.73 -1.28,1.27 -1.98,1.62 0.72,0.22 1.63,0.4 2.7,0.56l0 0.56zm-7.41 3.69l0 -0.66c1.47,-0.4 2.27,-1.02 2.4,-1.88l-2.14 0 0 -0.69 2.24 0 0 -0.07 0 -0.59 1.09 0 0 0.46c0,0.02 0,0.06 0,0.1 -0.02,0.04 -0.03,0.08 -0.03,0.1l3.06 0 0 1.91c0.02,0.79 -0.34,1.17 -1.09,1.15l-1.19 0 0 -0.69 0.73 0c0.35,0 0.52,-0.16 0.49,-0.46l0 -1.22 -2.07 0c-0.11,1.25 -1.27,2.1 -3.49,2.54zm5.37 -6.46l-3.23 0c-0.17,0.15 -0.36,0.27 -0.56,0.36l0.6 0c0.46,0.35 0.94,0.64 1.44,0.86 0.57,-0.26 1.16,-0.67 1.75,-1.22z"/>
  <path class="fil1" d="M80.8 33.24l0.64 0 0.16 -1.07 -0.62 0 0 -0.21 0.65 0 0.1 -0.67 -0.83 0 0 -0.21 2.49 0 0 0.21 -1.43 0 -0.09 0.67 1.2 0 0 1.28 0.45 0 0 0.21 -2.72 0 0 -0.21zm2.04 -1.07l-1.01 0 -0.16 1.07 1.17 0 0 -1.07z"/>
  <path id="1" class="fil1" d="M85.43 33.25l1.07 0c0.14,-0.35 0.29,-0.85 0.46,-1.5l0.25 0.07c-0.11,0.34 -0.27,0.82 -0.47,1.43l0.68 0 0 0.21 -1.99 0 0 -0.21zm-0.75 -1.03c0.27,-0.39 0.46,-0.84 0.6,-1.33l0.23 0.06c-0.08,0.23 -0.16,0.45 -0.24,0.65l0 2 -0.21 0 0 -1.57c-0.09,0.16 -0.18,0.31 -0.27,0.45 -0.03,-0.07 -0.06,-0.16 -0.11,-0.26zm0.81 -0.83l0.97 0c-0.08,-0.14 -0.17,-0.27 -0.27,-0.38l0.18 -0.13c0.08,0.09 0.18,0.22 0.3,0.37l-0.2 0.14 0.9 0 0 0.2 -1.88 0 0 -0.2zm0.37 0.38c0.13,0.33 0.26,0.73 0.4,1.2l-0.23 0.07c-0.12,-0.45 -0.25,-0.85 -0.37,-1.19l0.2 -0.08z"/>
  <polygon id="2" class="fil1" points="88.59,32.04 91.32,32.04 91.32,32.28 88.59,32.28 "/>
  <path id="3" class="fil1" d="M95.24 32.89c-0.07,0.07 -0.12,0.14 -0.16,0.2 -0.37,-0.28 -0.64,-0.76 -0.81,-1.43l0 1.16 0.4 0 0 0.2 -0.4 0 0 0.57 -0.2 0 0 -0.57 -0.41 0 0 -0.2 0.41 0 0 -1.16 -0.01 0c-0.17,0.63 -0.45,1.12 -0.84,1.47 -0.04,-0.05 -0.09,-0.11 -0.15,-0.17 0.36,-0.32 0.62,-0.76 0.79,-1.3l-0.64 0 0 -0.2 0.85 0 0 -0.56 0.2 0 0 0.56 0.87 0 0 0.2 -0.69 0c0.17,0.57 0.43,0.98 0.79,1.23zm-2.77 -0.67c0.27,-0.39 0.47,-0.83 0.6,-1.33l0.21 0.06c-0.08,0.24 -0.16,0.46 -0.25,0.66l0 1.98 -0.2 0 0 -1.56c-0.08,0.14 -0.17,0.28 -0.26,0.41 -0.03,-0.07 -0.06,-0.15 -0.1,-0.22z"/>
  <path id="4" class="fil1" d="M96.44 31.96l1.07 0c0.04,-0.19 0.06,-0.4 0.07,-0.63l-0.93 0 0 -0.22 2.22 0 0 0.22 -1.06 0c-0.01,0.23 -0.03,0.44 -0.07,0.63l1.34 0 0 0.22 -1.39 0c-0.13,0.62 -0.52,1.1 -1.14,1.44 -0.04,-0.07 -0.09,-0.13 -0.15,-0.2 0.54,-0.27 0.9,-0.69 1.06,-1.24l-1.02 0 0 -0.22zm1.4 0.42l0.22 0 0 0.72c0,0.14 0.07,0.21 0.2,0.21l0.38 0c0.13,0 0.2,-0.05 0.21,-0.16 0.02,-0.1 0.03,-0.24 0.03,-0.4 0.07,0.02 0.15,0.05 0.24,0.08 -0.02,0.18 -0.04,0.31 -0.05,0.41 -0.03,0.18 -0.16,0.27 -0.39,0.27l-0.48 0c-0.24,0 -0.36,-0.13 -0.36,-0.38l0 -0.75z"/>
  <path id="5" class="fil1" d="M101.93 30.89l0.2 0c-0.03,0.06 -0.06,0.13 -0.09,0.19l0.79 0 0 0.15c-0.1,0.16 -0.24,0.3 -0.41,0.42 0.17,0.09 0.37,0.14 0.59,0.17 -0.03,0.07 -0.06,0.13 -0.08,0.18 -0.26,-0.04 -0.49,-0.12 -0.68,-0.24 -0.19,0.11 -0.41,0.19 -0.67,0.25 -0.02,-0.06 -0.06,-0.12 -0.09,-0.17 0.23,-0.04 0.43,-0.11 0.61,-0.19 -0.1,-0.08 -0.18,-0.17 -0.25,-0.27 -0.07,0.08 -0.13,0.17 -0.21,0.24 -0.03,-0.05 -0.07,-0.09 -0.13,-0.13 0.19,-0.18 0.32,-0.38 0.42,-0.6zm-0.43 1.94l0.65 0 0 -0.2 -0.52 0 0 -0.15 0.52 0 0 -0.2 -0.56 0 0 -0.16 0.56 0 0 -0.19 0.19 0 0 0.19 0.55 0 0 0.16 -0.55 0 0 0.2 0.51 0 0 0.15 -0.51 0 0 0.2 0.64 0 0 0.16 -0.64 0 0 0.25 -0.19 0 0 -0.25 -0.65 0 0 -0.16zm0.43 0.49c0.32,0.01 0.67,0.01 1.08,-0.01 -0.03,0.07 -0.05,0.15 -0.08,0.21 -0.31,0.01 -0.65,0.01 -1.01,0 -0.27,-0.01 -0.47,-0.11 -0.61,-0.31 -0.09,0.11 -0.18,0.24 -0.27,0.39l-0.14 -0.19c0.12,-0.14 0.22,-0.27 0.3,-0.37l0 -0.97 -0.17 0 0 -0.19 0.37 0 0 1.17c0.11,0.18 0.29,0.27 0.53,0.27zm-1.3 -0.81c0.14,-0.01 0.29,-0.03 0.46,-0.04 -0.01,0.06 -0.02,0.13 -0.02,0.19 -0.26,0.02 -0.49,0.04 -0.67,0.06l-0.04 -0.18c0.11,-0.13 0.23,-0.32 0.35,-0.55 -0.14,0.01 -0.27,0.02 -0.37,0.03l-0.05 -0.18c0.16,-0.26 0.32,-0.57 0.46,-0.94l0.21 0.07c-0.15,0.32 -0.3,0.6 -0.44,0.86 0.08,-0.01 0.18,-0.01 0.28,-0.02 0.04,-0.09 0.09,-0.19 0.14,-0.3l0.19 0.09c-0.17,0.36 -0.34,0.66 -0.5,0.91zm-0.35 0.59c0.24,-0.04 0.5,-0.08 0.79,-0.13 -0.01,0.06 -0.01,0.12 -0.02,0.19 -0.32,0.05 -0.56,0.1 -0.72,0.14l-0.05 -0.2zm2.34 -1.87l-0.68 0c0,0.01 0,0.01 0,0.01 0.09,0.13 0.19,0.23 0.32,0.32 0.14,-0.09 0.26,-0.2 0.36,-0.33zm-1.37 -0.31c0.08,0.17 0.15,0.35 0.21,0.53 -0.05,0.02 -0.12,0.04 -0.19,0.07 -0.06,-0.2 -0.12,-0.38 -0.19,-0.54l0.17 -0.06z"/>
  <path id="6" class="fil1" d="M105.54 31.49l0.31 0c0.01,-0.19 0.01,-0.38 0.01,-0.57l0.22 0c0,0.19 -0.01,0.37 -0.01,0.57l0.7 0c-0.02,0.88 -0.04,1.42 -0.05,1.62 -0.02,0.29 -0.14,0.43 -0.38,0.43 -0.06,0 -0.19,0 -0.37,-0.01 -0.02,-0.09 -0.03,-0.17 -0.05,-0.25 0.15,0.02 0.28,0.03 0.39,0.03 0.11,0 0.18,-0.07 0.19,-0.23 0.01,-0.22 0.03,-0.69 0.05,-1.39l-0.48 0c-0.01,0.46 -0.04,0.8 -0.09,1.02 -0.09,0.35 -0.27,0.65 -0.55,0.89 -0.04,-0.06 -0.08,-0.13 -0.14,-0.2 0.11,-0.08 0.2,-0.17 0.27,-0.28 -0.4,0.06 -0.85,0.13 -1.33,0.2l-0.04 -0.22c0.08,-0.01 0.16,-0.02 0.23,-0.02l0 -2 0.97 0 0 1.87c0.06,-0.01 0.13,-0.02 0.19,-0.02 0,0.03 -0.01,0.09 -0.01,0.18 0.09,-0.14 0.15,-0.29 0.19,-0.45 0.06,-0.2 0.08,-0.53 0.09,-0.97l-0.31 0 0 -0.2zm-0.36 1.49l0 -0.44 -0.55 0 0 0.51c0.18,-0.02 0.37,-0.04 0.55,-0.07zm0 -1.71l-0.55 0 0 0.45 0.55 0 0 -0.45zm-0.55 1.09l0.55 0 0 -0.46 -0.55 0 0 0.46z"/>
  <path id="7" class="fil1" d="M108.23 31.51l0.88 0c0.01,-0.2 0.01,-0.41 0.02,-0.62l0.24 0c-0.01,0.2 -0.01,0.4 -0.02,0.62l1.26 0c-0.02,0.71 -0.04,1.22 -0.06,1.52 -0.03,0.31 -0.19,0.47 -0.51,0.47 -0.15,0 -0.33,0 -0.54,-0.01 -0.01,-0.07 -0.02,-0.16 -0.04,-0.26l0.01 0c0.23,0.02 0.42,0.03 0.55,0.03 0.18,0 0.28,-0.1 0.29,-0.29 0.03,-0.33 0.04,-0.74 0.05,-1.24l-1.01 0c-0.02,0.48 -0.1,0.84 -0.23,1.08 -0.15,0.27 -0.43,0.52 -0.85,0.77 -0.05,-0.07 -0.1,-0.13 -0.16,-0.21 0.4,-0.22 0.66,-0.45 0.78,-0.67 0.13,-0.21 0.2,-0.53 0.22,-0.97l-0.88 0 0 -0.22z"/>
  <path id="8" class="fil1" d="M116.13 33.27l1.14 0 0 -0.47 -0.89 0 0 -0.2 0.89 0 0 -0.43 -0.79 0 0 -0.2 1.81 0 0 0.2 -0.8 0 0 0.43 0.9 0 0 0.2 -0.9 0 0 0.47 1.13 0 0 0.21 -2.49 0 0 -0.21zm1.45 -2.34l-0.06 0.07c0.31,0.4 0.72,0.7 1.23,0.91 -0.06,0.08 -0.11,0.15 -0.15,0.22 -0.48,-0.24 -0.89,-0.56 -1.22,-0.96 -0.28,0.36 -0.69,0.69 -1.24,0.99 -0.03,-0.06 -0.08,-0.13 -0.13,-0.2 0.56,-0.29 0.99,-0.63 1.28,-1.03l0.29 0z"/>
  <path id="9" class="fil1" d="M121.08 31.02l1.36 0 0 0.94 -0.21 0 0 -0.11 -0.94 0 0 0.11 -0.21 0 0 -0.94zm-1.19 1.81c0.18,-0.26 0.32,-0.58 0.42,-0.94l-0.39 0 0 -0.18 0.43 0 0 -0.43c-0.11,0.02 -0.23,0.03 -0.35,0.05 -0.02,-0.06 -0.04,-0.13 -0.06,-0.19 0.31,-0.03 0.63,-0.08 0.94,-0.15l0.06 0.19c-0.12,0.03 -0.26,0.05 -0.39,0.07l0 0.46 0.38 0 0 0.18 -0.38 0 0 0.37 0.11 -0.1c0.07,0.08 0.18,0.2 0.32,0.36l-0.17 0.14c-0.1,-0.14 -0.19,-0.25 -0.26,-0.33l0 1.27 -0.2 0 0 -1.32c-0.09,0.32 -0.22,0.58 -0.37,0.79 -0.02,-0.08 -0.06,-0.16 -0.09,-0.24zm0.97 0.43l0.78 0 0 -0.4 -0.62 0 0 -0.19 0.62 0 0 -0.37 -0.68 0 0 -0.18 1.6 0 0 0.18 -0.7 0 0 0.37 0.63 0 0 0.19 -0.63 0 0 0.4 0.79 0 0 0.19 -1.79 0 0 -0.19zm1.37 -2.05l-0.94 0 0 0.45 0.94 0 0 -0.45z"/>
  <path id="10" class="fil1" d="M124.5 30.89l0.23 0.06c-0.04,0.09 -0.09,0.18 -0.13,0.27l1.58 0c-0.01,0.66 -0.02,1.11 -0.04,1.36 -0.02,0.3 -0.18,0.45 -0.46,0.45 -0.07,0 -0.2,0 -0.38,-0.01 -0.02,-0.07 -0.03,-0.14 -0.05,-0.23 0.15,0.02 0.29,0.02 0.4,0.02 0.17,0.01 0.26,-0.08 0.27,-0.26 0.02,-0.23 0.04,-0.61 0.04,-1.13l-1.46 0c-0.06,0.12 -0.13,0.23 -0.21,0.34l1.15 0 0 0.8 -1 0 0 0.52c0,0.14 0.08,0.21 0.23,0.21l1.28 0c0.17,0 0.27,-0.05 0.3,-0.17 0.03,-0.1 0.05,-0.23 0.07,-0.4 0.08,0.03 0.15,0.06 0.22,0.08 -0.02,0.16 -0.05,0.3 -0.07,0.4 -0.05,0.2 -0.2,0.3 -0.47,0.3l-1.38 0c-0.26,0 -0.4,-0.13 -0.4,-0.39l0 -1.24c-0.09,0.12 -0.18,0.23 -0.28,0.34 -0.05,-0.07 -0.09,-0.13 -0.14,-0.19 0.32,-0.34 0.55,-0.72 0.7,-1.13zm0.72 1.06l-0.78 0 0 0.42 0.78 0 0 -0.42z"/>
  <path id="11" class="fil1" d="M127.87 31.4l0.81 0c0,-0.16 0.01,-0.33 0.01,-0.5l0.23 0c0,0.17 -0.01,0.33 -0.01,0.5l1.01 0c-0.02,0.74 -0.03,1.26 -0.05,1.56 -0.02,0.36 -0.18,0.54 -0.47,0.55 -0.16,0 -0.34,-0.01 -0.52,-0.01 -0.01,-0.08 -0.02,-0.17 -0.04,-0.27 0.19,0.02 0.37,0.03 0.53,0.03 0.17,0 0.27,-0.12 0.28,-0.35 0.02,-0.38 0.03,-0.8 0.04,-1.29l-0.8 0c-0.02,0.57 -0.1,0.98 -0.22,1.21 -0.12,0.26 -0.37,0.51 -0.76,0.75 -0.04,-0.07 -0.09,-0.13 -0.14,-0.19 0.37,-0.24 0.6,-0.47 0.7,-0.69 0.11,-0.19 0.17,-0.55 0.2,-1.08l-0.8 0 0 -0.22zm0.23 0.47l0.22 0.08c-0.12,0.27 -0.25,0.55 -0.39,0.83 -0.06,-0.04 -0.13,-0.07 -0.21,-0.11 0.14,-0.25 0.27,-0.52 0.38,-0.8zm1.86 0.08l0.2 -0.06c0.09,0.21 0.19,0.46 0.29,0.73l-0.23 0.08c-0.08,-0.25 -0.16,-0.5 -0.26,-0.75z"/>
  <path id="12" class="fil1" d="M131.66 31.96l1.08 0c0.03,-0.19 0.06,-0.4 0.06,-0.63l-0.93 0 0 -0.22 2.23 0 0 0.22 -1.06 0c-0.02,0.23 -0.04,0.44 -0.08,0.63l1.35 0 0 0.22 -1.39 0c-0.14,0.62 -0.52,1.1 -1.15,1.44 -0.04,-0.07 -0.09,-0.13 -0.15,-0.2 0.55,-0.27 0.9,-0.69 1.07,-1.24l-1.03 0 0 -0.22zm1.41 0.42l0.22 0 0 0.72c0,0.14 0.06,0.21 0.2,0.21l0.37 0c0.13,0 0.2,-0.05 0.22,-0.16 0.01,-0.1 0.02,-0.24 0.03,-0.4 0.07,0.02 0.14,0.05 0.23,0.08 -0.02,0.18 -0.04,0.31 -0.05,0.41 -0.02,0.18 -0.15,0.27 -0.39,0.27l-0.48 0c-0.23,0 -0.35,-0.13 -0.35,-0.38l0 -0.75z"/>
  <path id="13" class="fil1" d="M136.49 31.58l0.43 0c0.01,-0.2 0.02,-0.42 0.02,-0.67l0.21 0c0,0.25 0,0.47 -0.01,0.67l1.04 0 0 0.2 -0.69 0 0 1.36c0,0.11 0.04,0.16 0.13,0.16l0.19 0c0.09,0 0.14,-0.05 0.17,-0.15 0.02,-0.12 0.04,-0.26 0.04,-0.42 0.08,0.03 0.15,0.06 0.22,0.08 -0.02,0.17 -0.04,0.31 -0.06,0.41 -0.04,0.19 -0.16,0.29 -0.37,0.29l-0.26 0c-0.18,0 -0.27,-0.11 -0.27,-0.32l0 -1.41 -0.15 0c-0.02,0.7 -0.26,1.31 -0.74,1.82 -0.05,-0.06 -0.11,-0.12 -0.17,-0.17 0.44,-0.45 0.67,-1 0.69,-1.65l-0.42 0 0 -0.2zm-0.84 -0.08l0.18 0.03c-0.03,0.25 -0.07,0.48 -0.12,0.7 -0.06,-0.01 -0.12,-0.03 -0.19,-0.04 0.05,-0.19 0.09,-0.42 0.13,-0.69zm1.77 -0.38l0.12 -0.14c0.19,0.12 0.33,0.23 0.44,0.32l-0.14 0.17c-0.15,-0.13 -0.29,-0.24 -0.42,-0.35zm-1.54 -0.2l0.22 0 0 0.58 0.12 -0.07c0.1,0.13 0.19,0.27 0.27,0.41l-0.18 0.1c-0.07,-0.15 -0.14,-0.27 -0.21,-0.36l0 2 -0.22 0 0 -2.66z"/>
  <path id="14" class="fil1" d="M113.7 32.3c0,-0.05 0.02,-0.09 0.06,-0.12 0.03,-0.04 0.07,-0.05 0.12,-0.05 0.05,0 0.09,0.01 0.13,0.05 0.03,0.03 0.05,0.07 0.05,0.12 0,0.05 -0.02,0.09 -0.05,0.12 -0.04,0.04 -0.08,0.06 -0.13,0.06 -0.05,0 -0.09,-0.02 -0.13,-0.06 -0.03,-0.03 -0.05,-0.07 -0.05,-0.12z"/>
  <path class="fil1" d="M102.52 52.84c0.14,0.21 0.25,0.44 0.34,0.7l-0.19 0c-0.01,-0.03 -0.02,-0.08 -0.03,-0.14 -0.01,-0.01 -0.01,-0.01 -0.01,-0.02 -0.48,0.04 -0.99,0.06 -1.52,0.06l-0.23 0 0 -0.13c0.25,-0.22 0.42,-0.47 0.53,-0.74l-0.79 0 0 -0.13 2.44 0 0 0.13 -1.44 0c-0.15,0.3 -0.34,0.55 -0.57,0.74 0.66,0.01 1.17,0 1.53,-0.03 -0.03,-0.09 -0.11,-0.23 -0.21,-0.42 0.01,0.01 0,0 -0.01,-0.02l0.16 0zm-2.02 -0.9c0.54,-0.21 0.96,-0.54 1.26,-0.98l0.16 0c0.3,0.44 0.72,0.77 1.25,0.98l0 0.12c-0.56,-0.2 -1,-0.49 -1.33,-0.88 -0.33,0.39 -0.78,0.68 -1.34,0.88l0 -0.12zm0.61 -0.05l1.44 0 0 0.12 -1.44 0 0 -0.12z"/>
  <path id="1" class="fil1" d="M106.23 53.46l0 0.12c-0.41,-0.22 -0.72,-0.43 -0.94,-0.65 -0.22,0.22 -0.54,0.43 -0.94,0.65l0 -0.12c0.33,-0.19 0.61,-0.4 0.84,-0.65 -0.32,-0.37 -0.55,-0.87 -0.68,-1.49l0.19 0c0.11,0.57 0.31,1.02 0.59,1.37 0.27,-0.33 0.46,-0.79 0.59,-1.37l0.18 0c-0.12,0.62 -0.35,1.12 -0.67,1.49 0.22,0.24 0.5,0.45 0.84,0.65zm-2.12 -0.37c0.1,-0.05 0.24,-0.12 0.39,-0.22l0 0.15c-0.14,0.12 -0.33,0.22 -0.56,0.31l0 -1.37 -0.33 0 0 -0.12 0.5 0 0 1.25zm1.13 -2.08c0.08,0.18 0.15,0.38 0.19,0.62l-0.17 0c-0.03,-0.21 -0.09,-0.42 -0.17,-0.62l0.15 0zm-1.27 0c0.1,0.18 0.18,0.38 0.24,0.57l-0.17 0c-0.05,-0.18 -0.12,-0.37 -0.21,-0.57l0.14 0z"/>
  <path id="2" class="fil1" d="M106.92 53.57l0 -0.86 0.86 0c0.04,-0.08 0.07,-0.17 0.08,-0.27l-1.15 0 0 -0.11 2.61 0 0 0.11 -1.28 0c-0.02,0.08 -0.05,0.17 -0.09,0.27l1.14 0 0 0.53c0.01,0.22 -0.11,0.32 -0.35,0.31l-0.13 0 0 -0.11 0.12 0c0.13,0 0.2,-0.06 0.19,-0.2l0 -0.41 -0.51 0 0 0.67 -0.16 0 0 -0.67 -0.51 0 0 0.67 -0.15 0 0 -0.67 -0.5 0 0 0.74 -0.17 0zm0.01 -2.44l2.15 0 0 0.11 -0.98 0 0 0.22 1.14 0 0 0.52 -0.17 0 0 -0.41 -0.97 0 0 0.62 -0.18 0 0 -0.62 -0.99 0 0 0.41 -0.16 0 0 -0.52 1.15 0 0 -0.22 -0.99 0 0 -0.11zm0.2 0.63l0.6 0 0 0.11 -0.6 0 0 -0.11zm0 0.29l0.6 0 0 0.1 -0.6 0 0 -0.1zm1.15 0l0.6 0 0 0.1 -0.6 0 0 -0.1zm0 -0.29l0.6 0 0 0.11 -0.6 0 0 -0.11z"/>
  <path id="3" class="fil1" d="M111.19 50.98l0 0.48 0.57 0 0 -0.41 0.18 0 0 0.41 0.43 0 0 0.13 -1.18 0 0 0.3c0.29,0.56 0.69,1 1.19,1.32l0 0.11c-0.52,-0.29 -0.92,-0.67 -1.19,-1.13l0 1.02c0.01,0.23 -0.12,0.34 -0.37,0.33l-0.22 0 0 -0.13 0.21 0c0.13,0 0.2,-0.06 0.2,-0.2l0 -1.62 -1.2 0 0 -0.13 1.2 0 0 -0.48 0.18 0zm-0.42 1.63c-0.28,0.27 -0.6,0.47 -0.95,0.61l0 -0.18c0.3,-0.11 0.61,-0.31 0.95,-0.59l0 0.16zm-0.68 -0.81l0.2 0c0.02,0.19 0.08,0.39 0.19,0.57l-0.16 0c-0.11,-0.17 -0.19,-0.36 -0.23,-0.57zm1.99 0c-0.03,0.21 -0.11,0.4 -0.22,0.57l-0.16 0c0.1,-0.18 0.17,-0.38 0.19,-0.57l0.19 0z"/>
  <path id="4" class="fil1" d="M113.26 52.11l1.74 0 0 1.04c0,0.24 -0.12,0.36 -0.37,0.35l-0.23 0 0 -0.11 0.19 0c0.17,0.01 0.24,-0.07 0.24,-0.23l0 -0.92 -0.88 0c-0.02,0.65 -0.34,1.11 -0.95,1.37l0 -0.13c0.5,-0.25 0.76,-0.66 0.78,-1.24l-0.52 0 0 -0.13zm2.21 0.11c-0.57,-0.21 -0.92,-0.6 -1.05,-1.18l0.18 0c0.11,0.49 0.41,0.84 0.87,1.06l0 0.12zm-2.6 0l0 -0.12c0.47,-0.22 0.76,-0.57 0.87,-1.06l0.18 0c-0.12,0.58 -0.47,0.97 -1.05,1.18z"/>
  <path id="5" class="fil1" d="M118.1 53.58l-0.19 0 0 -1.51 -0.62 0 0 0.46c0.02,0.52 -0.13,0.87 -0.45,1.04l0 -0.13c0.18,-0.15 0.27,-0.43 0.26,-0.86l0 -1.4 0.84 0c0.18,0 0.36,-0.03 0.55,-0.11l0 0.14c-0.14,0.06 -0.3,0.09 -0.49,0.08l-0.71 0 0 0.65 1.29 0 0 0.13 -0.48 0 0 1.51zm-2.13 -2.01l0 -0.11 0.39 0 0 -0.45 0.17 0 0 0.45 0.41 0 0 0.11 -0.4 0c0.09,0.38 0.22,0.71 0.39,0.98l0 0.2c-0.18,-0.25 -0.32,-0.5 -0.4,-0.75l0 1.58 -0.17 0 0 -1.47c-0.08,0.3 -0.22,0.61 -0.43,0.93l0 -0.19c0.18,-0.36 0.31,-0.78 0.41,-1.28l-0.37 0z"/>
  <path id="6" class="fil1" d="M100.57 58.42l0 -0.12 0.41 0 0 -0.44 0.17 0 0 0.44 0.37 0 0 0.12 -0.36 0c0.08,0.28 0.2,0.58 0.37,0.88l0 0.19c-0.16,-0.24 -0.29,-0.46 -0.38,-0.67l0 1.63 -0.17 0 0 -1.5c-0.08,0.27 -0.23,0.58 -0.45,0.94l0 -0.19c0.2,-0.39 0.35,-0.82 0.45,-1.28l-0.41 0zm0.95 0.17c0.25,-0.18 0.38,-0.42 0.4,-0.73l0.18 0c-0.03,0.13 -0.05,0.23 -0.08,0.31l1.04 0 0 1.9c0.01,0.22 -0.11,0.32 -0.34,0.31l-0.31 0 0 -0.12 0.31 0c0.11,0 0.16,-0.05 0.16,-0.14l0 -1.83 -0.92 0c-0.08,0.16 -0.23,0.3 -0.44,0.42l0 -0.12zm0.88 0.44c0.08,0.23 0.15,0.51 0.21,0.85l-0.15 0 -0.02 -0.17c-0.25,0.05 -0.44,0.08 -0.58,0.08l-0.24 0 0 -0.13c0.14,-0.32 0.23,-0.64 0.29,-0.98l0.18 0c-0.08,0.37 -0.18,0.69 -0.32,0.98 0.26,0 0.47,-0.01 0.66,-0.04 -0.03,-0.16 -0.08,-0.36 -0.15,-0.59l0.12 0z"/>
  <path id="7" class="fil1" d="M105.97 58.07l0 0.38 0.25 0 0 0.11 -0.25 0 0 0.13c0.01,0.2 -0.09,0.3 -0.3,0.29l-0.34 0 0 0.3 0.71 0 0 0.11 -0.71 0 0 0.32 0.8 0 0 0.11 -0.8 0 0 0.29 -0.18 0 0 -0.29 -0.69 0 0 -0.11 0.69 0 0 -0.32 -0.6 0 0 -0.11 0.6 0 0 -0.3 -0.57 0 0 -0.11 0.57 0 0 -0.31 -0.7 0 0 -0.11 0.7 0 0 -0.27 -0.56 0 0 -0.11 0.56 0 0 -0.22 0.18 0 0 0.22 0.64 0zm-2.17 1.22c0.05,0.31 0.15,0.53 0.28,0.68 0.12,-0.14 0.17,-0.32 0.16,-0.53l0 -0.43 -0.56 0 0 -0.13c0.25,-0.23 0.43,-0.46 0.54,-0.69l-0.58 0 0 -0.12 0.77 0 0 0.12c-0.13,0.26 -0.32,0.5 -0.56,0.69l0.55 0 0 0.52c0,0.3 -0.07,0.52 -0.2,0.67 0.15,0.09 0.37,0.13 0.63,0.13l1.39 0 0 0.14 -1.42 0c-0.3,0 -0.54,-0.06 -0.72,-0.17 -0.11,0.08 -0.26,0.15 -0.46,0.24l0 -0.1c0.03,-0.02 0.07,-0.04 0.11,-0.07 0.12,-0.06 0.21,-0.12 0.25,-0.16 -0.16,-0.17 -0.28,-0.43 -0.34,-0.79l0.16 0zm1.83 -0.42c0.12,0 0.18,-0.06 0.18,-0.17l0 -0.14 -0.48 0 0 0.31 0.3 0zm0.18 -0.69l-0.48 0 0 0.27 0.48 0 0 -0.27z"/>
  <path id="8" class="fil1" d="M107.88 60.43l0 -0.12c0.28,-0.15 0.49,-0.29 0.62,-0.42 -0.18,-0.22 -0.33,-0.51 -0.45,-0.9l0.17 0c0.11,0.34 0.24,0.6 0.4,0.78 0.19,-0.23 0.33,-0.56 0.41,-0.98l-1.12 0 0 0.61c0.03,0.49 -0.12,0.84 -0.44,1.05l0 -0.14c0.2,-0.2 0.29,-0.48 0.28,-0.84l0 -1.44 0.96 0c0.18,0 0.37,-0.02 0.58,-0.08l0 0.14c-0.22,0.05 -0.41,0.07 -0.56,0.07l-0.82 0 0 0.5 1.3 0 0 0.13c-0.1,0.5 -0.27,0.87 -0.5,1.11 0.11,0.12 0.31,0.26 0.61,0.41l0 0.12c-0.32,-0.15 -0.56,-0.29 -0.72,-0.43 -0.12,0.12 -0.36,0.26 -0.72,0.43zm-1.23 -0.79c0.19,-0.4 0.34,-0.8 0.43,-1.21l-0.39 0 0 -0.12 0.4 0 0 -0.46 0.17 0 0 0.46 0.35 0 0 0.12 -0.35 0c0.1,0.4 0.22,0.69 0.36,0.89l0 0.18c-0.15,-0.21 -0.27,-0.42 -0.36,-0.64l0 1.58 -0.17 0 0 -1.53c-0.08,0.27 -0.23,0.58 -0.44,0.93l0 -0.2z"/>
  <path id="9" class="fil1" d="M112.13 58.26l0 0.95 0.26 0 0 0.12 -0.93 0c0.05,0.43 0.36,0.77 0.93,1.01l0 0.12c-0.51,-0.2 -0.86,-0.46 -1.03,-0.79 -0.15,0.33 -0.47,0.6 -0.95,0.79l0 -0.12c0.52,-0.24 0.8,-0.58 0.85,-1.01l-0.65 0 0 -0.12 0.66 0 0 -0.06 0 -0.77 -0.52 0 0 -0.12 0.52 0 0 -0.4 0.18 0 0 0.4 0.68 0zm-1.44 1.51c-0.24,0.14 -0.54,0.23 -0.91,0.28l0 -0.16c0.13,-0.02 0.26,-0.04 0.36,-0.06l0 -1.2 -0.34 0 0 -0.11 0.34 0 0 -0.66 0.18 0 0 0.66 0.34 0 0 0.11 -0.34 0 0 1.16c0.01,0 0.03,-0.01 0.06,-0.02 0.07,-0.02 0.18,-0.06 0.31,-0.11l0 0.11zm1.27 -1.39l-0.51 0 0 0.77 0 0.06 0.51 0 0 -0.83z"/>
  <path id="10" class="fil1" d="M115.04 58.51c0.12,0.19 0.21,0.39 0.29,0.62l-0.17 0c-0.01,-0.02 -0.02,-0.05 -0.04,-0.09 -0.01,-0.05 -0.02,-0.08 -0.03,-0.09 -0.36,0.07 -0.77,0.11 -1.26,0.11l-0.19 0 0 -0.15c0.21,-0.18 0.37,-0.4 0.5,-0.66l-0.58 0 0 -0.11 0.86 0 0 -0.29 0.17 0 0 0.29 0.8 0 0 0.11 -1.06 0c-0.1,0.25 -0.27,0.47 -0.51,0.66 0.54,0 0.95,-0.02 1.24,-0.06 -0.04,-0.07 -0.09,-0.18 -0.16,-0.32 0,0.01 -0.01,0 -0.01,-0.02l0.15 0zm-0.19 0.7l0.16 0 0 0.9c-0.02,0.11 0.05,0.16 0.2,0.15 0.12,0.01 0.17,-0.04 0.16,-0.15l0 -0.08 0.12 0 0 0.09c0.01,0.18 -0.08,0.27 -0.27,0.26l-0.06 0c-0.22,0.01 -0.32,-0.09 -0.31,-0.29l0 -0.88zm-1.05 0.01l0.16 0 0 0.42c0.01,0.36 -0.14,0.63 -0.47,0.81l0 -0.12c0.22,-0.16 0.32,-0.39 0.31,-0.68l0 -0.43zm0.54 -0.01l0.16 0 0 1.19 -0.16 0 0 -1.19zm-1.22 1.19l-0.19 0c0.17,-0.34 0.29,-0.7 0.34,-1.1l0.15 0c-0.05,0.41 -0.15,0.78 -0.3,1.1zm0.02 -2.5c0.12,0.2 0.21,0.39 0.25,0.56l-0.16 0c-0.06,-0.19 -0.14,-0.38 -0.24,-0.56l0.15 0zm0.03 0.69c0.09,0.16 0.18,0.35 0.25,0.57l-0.17 0c-0.05,-0.19 -0.13,-0.38 -0.24,-0.57l0.16 0z"/>
  <path id="11" class="fil1" d="M117.09 58.75l0 -0.73 1.31 0 0 0.42c0.01,0.21 -0.1,0.31 -0.34,0.31l-0.97 0zm-1.18 1.04c0.2,-0.32 0.35,-0.67 0.45,-1.04l-0.4 0 0 -0.13 0.41 0 0 -0.47 -0.38 0 0 -0.12 0.47 0c0.13,0 0.28,-0.02 0.46,-0.08l0 0.14c-0.15,0.04 -0.27,0.06 -0.36,0.06l0 0.47 0.35 0 0 0.13 -0.33 0c0.07,0.27 0.19,0.52 0.35,0.74l0 0.17c-0.18,-0.21 -0.31,-0.4 -0.37,-0.58l0 1.38 -0.19 0 0 -1.32c-0.08,0.24 -0.23,0.51 -0.46,0.83l0 -0.18zm2.68 0.4l0 0.13 -1.76 0 0 -0.13 0.81 0 0 -0.46 -0.61 0 0 -0.11 0.61 0 0 -0.46 -0.68 0 0 -0.11 1.54 0 0 0.11 -0.69 0 0 0.46 0.62 0 0 0.11 -0.62 0 0 0.46 0.78 0zm-0.36 -1.76l0 -0.29 -0.97 0 0 0.48 0.77 0c0.14,0.01 0.21,-0.06 0.2,-0.19z"/>
  <path id="12" class="fil1" d="M101.58 66.45l0 -1.62 1.38 0 0 1.62 -0.17 0 0 -1.49 -1.04 0 0 1.49 -0.17 0zm0.6 -1.22l0.17 0 0 0.54c0,0.18 -0.01,0.34 -0.04,0.48l0.14 0 0 0.67c-0.02,0.13 0.07,0.19 0.27,0.19 0.19,0 0.28,-0.06 0.27,-0.19l0 -0.09 0.12 0 0 0.09c0.01,0.21 -0.11,0.31 -0.36,0.3l-0.12 0c-0.24,0 -0.35,-0.1 -0.35,-0.31l0 -0.55c-0.08,0.37 -0.38,0.68 -0.91,0.94l0 -0.12c0.58,-0.3 0.84,-0.77 0.81,-1.4l0 -0.55zm-1.64 -0.31l0.94 0 0 0.12 -0.38 0 0 0.77 0.34 0 0 0.11 -0.34 0 0 0.86c0.02,-0.01 0.06,-0.02 0.1,-0.03 0.06,-0.01 0.17,-0.04 0.31,-0.09l0 0.12c-0.26,0.11 -0.6,0.19 -1,0.23l0 -0.15c0.16,-0.01 0.29,-0.03 0.41,-0.05l0 -0.89 -0.35 0 0 -0.11 0.35 0 0 -0.77 -0.38 0 0 -0.12z"/>
  <path id="13" class="fil1" d="M105.97 66.91l0 -1.13 -0.42 0c0.01,0.67 -0.2,1.17 -0.62,1.53l0 -0.15c0.31,-0.35 0.46,-0.81 0.45,-1.38l-0.44 0c0,0.64 -0.2,1.15 -0.62,1.52l0 -0.15c0.31,-0.35 0.46,-0.8 0.45,-1.37l-0.23 0 0 -0.12c0.49,-0.19 0.89,-0.41 1.18,-0.67l-1.12 0 0 -0.11 1.41 0 0 0.11c-0.38,0.3 -0.76,0.52 -1.15,0.67l1.28 0 0 1.17c0.02,0.3 -0.12,0.44 -0.42,0.42l-0.19 0 0 -0.11 0.19 0c0.17,0 0.25,-0.08 0.25,-0.23zm-1.48 -0.25c-0.24,0.14 -0.53,0.23 -0.88,0.28l0 -0.16c0.14,-0.02 0.26,-0.04 0.37,-0.06l0 -1.25 -0.35 0 0 -0.13 0.35 0 0 -0.61 0.17 0 0 0.61 0.33 0 0 0.13 -0.33 0 0 1.21c0.13,-0.04 0.25,-0.08 0.34,-0.13l0 0.11z"/>
  <path id="14" class="fil1" d="M107.75 67.23l0 -1.28 1.4 0 0 0.96c0,0.22 -0.12,0.33 -0.36,0.32l-1.04 0zm-0.69 -2.52l0.17 0 0 0.52 0.32 0 0 0.11 -0.32 0 0 0.66c0.11,-0.03 0.22,-0.07 0.34,-0.11l0 0.11c-0.12,0.05 -0.23,0.1 -0.34,0.13l0 0.9c0,0.16 -0.09,0.25 -0.26,0.26l-0.21 0 0 -0.13 0.15 0c0.1,0 0.15,-0.04 0.15,-0.13l0 -0.84c-0.15,0.03 -0.27,0.05 -0.39,0.07l0 -0.15c0.15,-0.02 0.27,-0.04 0.39,-0.07l0 -0.7 -0.34 0 0 -0.11 0.34 0 0 -0.52zm0.83 -0.01l0 0.45c0.55,-0.05 0.91,-0.17 1.06,-0.36l0.22 0c-0.21,0.27 -0.64,0.43 -1.28,0.47l0 0.07c-0.01,0.17 0.07,0.25 0.23,0.24l0.82 0c0.14,0.01 0.2,-0.05 0.2,-0.17l0 -0.13 0.13 0 0 0.14c0.01,0.19 -0.09,0.28 -0.3,0.28l-0.9 0c-0.24,0.01 -0.36,-0.11 -0.35,-0.35l0 -0.64 0.17 0zm1.09 2.2l0 -0.26 -1.07 0 0 0.46 0.85 0c0.15,0.01 0.23,-0.06 0.22,-0.2zm-1.07 -0.82l0 0.45 1.07 0 0 -0.45 -1.07 0z"/>
  <path id="15" class="fil1" d="M111.71 65.51l-1.46 0 0 0.18c-0.01,0.15 0.07,0.22 0.22,0.22l1.58 0c0.13,0 0.19,-0.05 0.18,-0.17l0 -0.1 0.13 0 0 0.09c0,0.21 -0.09,0.31 -0.3,0.3l-1.64 0c-0.22,0 -0.34,-0.11 -0.34,-0.34l0 -0.86 1.94 0 0 0.37c0,0.2 -0.1,0.31 -0.31,0.31zm-1.46 -0.55l0 0.44 1.4 0c0.13,0.01 0.2,-0.06 0.2,-0.19l0 -0.25 -1.6 0zm1.57 1.15l0 0.2 0.59 0 0 0.13 -0.59 0 0 0.53c0,0.2 -0.1,0.31 -0.31,0.31l-0.32 0 0 -0.12 0.26 0c0.14,0 0.2,-0.05 0.19,-0.16l0 -0.56 -1.87 0 0 -0.13 1.87 0 0 -0.2 0.18 0zm-1.41 0.45c0.14,0.15 0.26,0.31 0.34,0.48l-0.18 0c-0.07,-0.15 -0.17,-0.31 -0.32,-0.48l0.16 0z"/>
  <path id="16" class="fil1" d="M113.86 65.23l0 -0.12 0.32 0 0 -0.4 0.17 0 0 0.37 0 0.03 0.65 0 0 1.85c-0.01,0.11 0.05,0.16 0.18,0.16 0.13,0 0.19,-0.04 0.18,-0.15l0 -0.14 0.15 0 0 0.14c0,0.18 -0.09,0.27 -0.3,0.26l-0.07 0c-0.21,0.01 -0.32,-0.08 -0.31,-0.27l0 -1.73 -0.48 0c0,0.29 -0.01,0.53 -0.04,0.73 0.12,0.03 0.24,0.07 0.35,0.12l0 0.17c-0.03,-0.02 -0.07,-0.04 -0.13,-0.06 -0.09,-0.05 -0.17,-0.07 -0.23,-0.09 -0.07,0.46 -0.27,0.86 -0.61,1.21l0 -0.16c0.25,-0.34 0.4,-0.7 0.45,-1.1 -0.04,0 -0.09,-0.01 -0.17,-0.03 -0.06,-0.01 -0.11,-0.01 -0.15,-0.02l0 -0.11c0.12,0 0.23,0.02 0.33,0.04 0.02,-0.2 0.03,-0.43 0.03,-0.7l-0.32 0zm-0.64 -0.52l0.17 0 0 0.5 0.31 0 0 0.12 -0.31 0 0 0.68c0.04,-0.02 0.1,-0.04 0.17,-0.07 0.05,-0.02 0.09,-0.04 0.12,-0.04l0 0.12c-0.09,0.05 -0.19,0.09 -0.29,0.12l0 0.89c0,0.16 -0.09,0.25 -0.28,0.25l-0.18 0 0 -0.13 0.14 0c0.1,0 0.15,-0.04 0.15,-0.12l0 -0.83c-0.09,0.03 -0.22,0.06 -0.37,0.08l0 -0.16c0.14,-0.01 0.26,-0.03 0.37,-0.07l0 -0.72 -0.35 0 0 -0.12 0.35 0 0 -0.5z"/>
  <path id="17" class="fil1" d="M116.92 65.76l0 -0.13 1.67 0 0 0.13 -0.52 0 0 1.19c0,0.22 -0.1,0.32 -0.32,0.31l-0.29 0 0 -0.12 0.24 0c0.13,0 0.2,-0.05 0.19,-0.16l0 -1.22 -0.97 0zm-0.56 1.55l0 -1.29c-0.13,0.08 -0.27,0.15 -0.4,0.19l0 -0.11c0.34,-0.14 0.56,-0.38 0.66,-0.7l0.18 0c-0.06,0.21 -0.16,0.37 -0.27,0.49l0 1.42 -0.17 0zm0.72 -2.41l1.35 0 0 0.14 -1.35 0 0 -0.14zm-1.11 0.51c0.34,-0.15 0.55,-0.38 0.65,-0.7l0.2 0c-0.1,0.38 -0.38,0.65 -0.85,0.81l0 -0.11z"/>
  <polygon id="18" class="fil2" points="100.39,53.58 118.7,53.58 118.7,53.71 100.39,53.71 "/>
  <polygon id="19" class="fil2" points="118.7,53.58 118.7,53.58 118.7,53.71 118.7,53.71 "/>
  <polygon id="20" class="fil2" points="100.39,60.43 118.7,60.43 118.7,60.56 100.39,60.56 "/>
  <polygon id="21" class="fil2" points="118.7,60.43 118.7,60.43 118.7,60.56 118.7,60.56 "/>
  <polygon id="22" class="fil2" points="100.39,67.29 118.7,67.29 118.7,67.42 100.39,67.42 "/>
 </g>
</svg>
