<?xml version="1.0" encoding="UTF-8"?>
<!DOCTYPE svg PUBLIC "-//W3C//DTD SVG 1.1//EN" "http://www.w3.org/Graphics/SVG/1.1/DTD/svg11.dtd">
<!-- Creator: CorelDRAW 2017 -->
<svg xmlns="http://www.w3.org/2000/svg" xml:space="preserve" width="560px" height="133px" version="1.1" style="shape-rendering:geometricPrecision; text-rendering:geometricPrecision; image-rendering:optimizeQuality; fill-rule:evenodd; clip-rule:evenodd"
viewBox="0 0 602.43 143.28"
 xmlns:xlink="http://www.w3.org/1999/xlink">
 <defs>
  <style type="text/css">
   <![CDATA[
    .fil0 {fill:#FEFEFE;fill-rule:nonzero}
   ]]>
  </style>
 </defs>
 <g id="图层_x0020_1">
  <metadata id="CorelCorpID_0Corel-Layer"/>
  <path class="fil0" d="M340.12 93.28l0 -4.03c3.61,-3.62 6.01,-7.18 7.17,-10.67 1.29,-3.39 1.93,-8.23 1.93,-14.53l0 -10.5 5.94 0 0 10.67c-0.34,10.97 2.75,19.31 9.28,25.03l0 4.03c-6.07,-3.86 -10.15,-8.23 -12.25,-13.13 -2.22,5.25 -6.24,9.63 -12.07,13.13zm-15.94 0l0 -4.21c3.03,-3.96 5.01,-7.63 5.95,-11.02 1.04,-3.5 1.57,-8.34 1.57,-14.53l0 -9.97 5.95 0 0 6.65c-0.35,9.8 1.52,16.51 5.6,20.12l0 4.9c-3.5,-2.33 -6.01,-4.96 -7.52,-7.87 -1.76,6.06 -5.6,11.37 -11.55,15.93z"/>
  <path id="1" class="fil0" d="M380.15 92.22c-3.85,0.11 -5.72,-1.81 -5.61,-5.76l0 -18.89c-0.93,0.46 -1.91,0.99 -2.97,1.58l0 -3.51c4.21,-3.03 7.24,-7.17 9.11,-12.42l5.44 0c1.86,5.02 4.9,9.1 9.11,12.25l0 3.5c-1.17,-0.59 -2.22,-1.11 -3.15,-1.58l0 9.1c0.11,4.09 -1.87,6.07 -5.96,5.95l-2.97 0 0 -3.67 1.93 0c1.39,0 2.1,-0.76 2.1,-2.28l0 -5.78 -7.38 0 0 15.39c-0.12,1.97 0.75,2.91 2.63,2.79l5.26 0c1.76,0.12 2.57,-0.76 2.46,-2.62l0 -1.41 4.2 0 0 2.11c0.12,3.61 -1.7,5.36 -5.43,5.25l-8.77 0zm19.97 0.71l0 -3.68 3.15 0c1.51,0.12 2.22,-0.52 2.1,-1.92l0 -34.13 5.07 0 0 34.31c0.11,3.73 -1.69,5.54 -5.42,5.42l-4.9 0zm-3.31 -8.58l0 -28 4.72 0 0 28 -4.72 0zm-13.5 -25.19c-1.87,3.38 -4.44,6.01 -7.7,7.87l15.93 0c-3.39,-1.86 -6.13,-4.49 -8.23,-7.87z"/>
  <path id="2" class="fil0" d="M423.68 81.38l0 -13.32 31.54 0 0 7.36c0.12,4.09 -1.75,6.08 -5.61,5.96l-25.93 0zm-4.35 -15.24l0 -3.33 10.14 0c-0.46,-1.04 -0.81,-2.15 -1.05,-3.32l5.43 0c0.23,1.17 0.58,2.28 1.05,3.32l9.1 0c0.47,-1.04 0.88,-2.15 1.22,-3.32l5.26 0c-0.12,1.17 -0.47,2.28 -1.06,3.32l10.15 0 0 3.33 -40.24 0zm2.42 -7.52l0 -3.33 14.53 0 0 -2.27 6.48 0 0 2.27 14.34 0 0 3.33 -35.35 0zm12.99 33.96c-3.97,0.11 -5.89,-1.58 -5.78,-5.08l0 -4.9 5.25 0 0 4.02c-0.11,1.98 0.88,2.86 2.98,2.63l8.05 0c1.64,0.12 2.39,-0.53 2.28,-1.92l0 -0.71 4.2 0 0 1.23c0.12,3.26 -1.64,4.84 -5.25,4.73l-11.73 0zm-5.64 -14.18l18.24 0c1.76,0 2.57,-0.82 2.46,-2.46l0 -0.18 -20.7 0 0 2.64zm0 -7.37l0 2.46 20.7 0 0 -2.46 -20.7 0zm25.75 20.49c-0.47,-2.56 -1.4,-5.54 -2.8,-8.92l4.37 0c1.41,2.57 2.46,5.54 3.15,8.92l-4.72 0zm-35.52 0c1.51,-2.56 2.56,-5.54 3.15,-8.92l4.19 0c-0.35,3.85 -1.22,6.82 -2.62,8.92l-4.72 0zm21.52 -4.19c-0.35,-1.87 -0.93,-3.44 -1.75,-4.73l5.08 0c1.28,1.87 2.03,3.44 2.27,4.73l-5.6 0z"/>
  <path id="3" class="fil0" d="M467.24 58.61l0 -3.67 22.92 0 0 3.67 -10.67 0c-1.75,3.38 -3.85,6.07 -6.3,8.05 3.73,0.12 7.29,0 10.68,-0.35 -0.12,-0.35 -0.35,-0.93 -0.71,-1.75 -0.58,-1.4 -1.05,-2.57 -1.4,-3.5l4.21 0c1.51,2.92 2.86,6.47 4.02,10.68l-4.73 0 -0.52 -1.93c-5.02,0.58 -10.62,0.87 -16.8,0.87l0 -4.02c2.33,-2.33 4.26,-5.02 5.77,-8.05l-6.47 0zm0.69 21.01l0 -3.67 7.87 0 0 -4.03 5.26 0 0 4.03 8.05 0 0 3.67 -8.05 0 0 7c1.28,-0.11 3.2,-0.41 5.77,-0.88 1.4,-0.23 2.45,-0.4 3.15,-0.52l0 3.5c-7.11,1.64 -14.87,2.39 -23.27,2.28l0 -3.68c3.49,0 6.53,-0.11 9.09,-0.35l0 -7.35 -7.87 0zm27.49 13.13l0 -3.5 3.15 0c1.39,0.12 2.1,-0.47 2.1,-1.75l0 -34.3 5.07 0 0 34.48c0.12,3.49 -1.57,5.19 -5.07,5.07l-5.25 0zm-3.49 -8.22l0 -28 4.9 0 0 28 -4.9 0z"/>
  <path id="4" class="fil0" d="M514.97 80.83l0 -3.49 20.83 0c0.47,-1.87 0.7,-4.15 0.7,-6.83l0 -8.75 5.6 0 0 7.52c0,3.15 -0.23,5.84 -0.7,8.06l13.47 0 0 3.49 -12.77 0c2.33,4.2 6.41,7.24 12.25,9.1l0 3.33c-7.71,-2.1 -13.01,-5.19 -15.93,-9.28 -3.15,4.21 -10.73,7.36 -22.75,9.46l0 -3.33c10.04,-2.1 16.22,-5.19 18.55,-9.28l-19.25 0zm0.87 -16.59l0 -8.05 15.96 0 0 -3.15 6.3 0 0 3.15 15.92 0 0 8.05 -5.25 0 0 -4.37 -27.68 0 0 4.37 -5.25 0zm16.12 11.89c-4.21,-1.87 -8.35,-3.04 -12.43,-3.5l0 -3.68c4.67,0.23 8.81,1.11 12.43,2.62l0 4.56zm2.8 -6.66c-3.39,-1.74 -7.18,-2.97 -11.38,-3.67l0 -3.33c4.55,0.24 8.34,1.05 11.38,2.46l0 4.54z"/>
  <path id="5" class="fil0" d="M577.78 79.82l0 -25.2 22.91 0 0 25.2 -5.08 0 0 -21.7 -12.93 0 0 21.7 -4.9 0zm-15.08 -20.67l0 -3.5 13.65 0 0 3.5 -4.02 0 0 10.35 3.67 0 0 3.49 -3.67 0 0 11.2c0.23,0 0.58,-0.05 1.04,-0.17 0.71,-0.23 1.93,-0.58 3.68,-1.05l0 3.5c-3.85,1.63 -8.75,2.74 -14.7,3.32l0 -4.02c1.63,-0.23 3.21,-0.41 4.72,-0.53l0 -12.25 -4.19 0 0 -3.49 4.19 0 0 -10.35 -4.37 0zm13.32 34.13l0 -3.5c7.58,-4.21 11.08,-10.45 10.49,-18.73l0 -9.45 5.08 0 0 9.62c0.11,1.87 0,3.56 -0.35,5.08l2.1 0 0 10.5c-0.11,1.51 0.81,2.27 2.79,2.27 1.87,0 2.74,-0.76 2.62,-2.27l0 -1.23 3.68 0 0 1.93c0,3.38 -1.87,5.08 -5.6,5.08l-2.97 0c-3.73,0.11 -5.54,-1.76 -5.42,-5.6l0 -2.8c-1.99,3.03 -6.12,6.06 -12.42,9.1z"/>
  <path class="fil0" d="M55.32 141.81c-2.38,0.06 -3.54,-0.99 -3.47,-3.15l0 -11.98 10.5 0c0,1.75 -0.07,3.57 -0.21,5.46 -0.14,2.1 -1.33,3.19 -3.57,3.26 -0.91,0 -1.86,0 -2.83,0 -0.08,-0.49 -0.18,-1.05 -0.32,-1.68 0.98,0.07 1.92,0.1 2.83,0.1 1.41,0 2.14,-0.66 2.21,-1.99 0.07,-0.28 0.1,-0.88 0.1,-1.79 0.07,-0.84 0.11,-1.43 0.11,-1.78l-7.14 0 0 10.18c-0.07,1.26 0.63,1.86 2.1,1.79l3.78 0c1.47,0 2.34,-0.45 2.62,-1.36 0.21,-0.77 0.39,-1.75 0.53,-2.95 0.63,0.28 1.23,0.5 1.79,0.64 0,0.07 -0.04,0.17 -0.11,0.31 -0.21,1.33 -0.42,2.24 -0.63,2.73 -0.35,1.47 -1.65,2.21 -3.89,2.21l-4.4 0zm11.32 0.42c-0.07,-0.63 -0.21,-1.26 -0.42,-1.89 0.91,0.07 2.03,0.1 3.36,0.11 1.26,-0.01 1.85,-0.53 1.79,-1.58l0 -21.21 1.68 0 0 21.52c0.06,1.89 -0.92,2.88 -2.95,2.95 -1.12,0.07 -2.27,0.1 -3.46,0.1zm-3.57 -16.27c-2.03,-2.17 -3.95,-4.1 -5.77,-5.78 -1.75,2.8 -4.2,5.39 -7.35,7.77 -0.07,-0.07 -0.14,-0.18 -0.21,-0.31 -0.28,-0.49 -0.52,-0.88 -0.73,-1.16 3.57,-2.59 6.19,-5.6 7.87,-9.03l1.89 0.32 -0.63 1.04c1.75,1.62 3.85,3.57 6.3,5.89l-1.37 1.26zm2.73 10.5l0 -16.07 1.68 0 0 16.07 -1.68 0z"/>
  <path id="1" class="fil0" d="M86.94 137.61l0 -7.03 13.43 0 0 7.03 -13.43 0zm0.1 -12.19c-0.49,-0.28 -1.02,-0.52 -1.58,-0.73 1.33,-2.03 2.38,-4.13 3.15,-6.3l1.58 0.31c-0.14,0.42 -0.35,0.98 -0.63,1.68 -0.14,0.36 -0.25,0.63 -0.32,0.84l4.1 0 0 -3.67 1.68 0 0 3.67 6.4 0 0 1.47 -6.4 0 0 3.8 7.66 0 0 1.47 -17.74 0 0 -1.47 8.4 0 0 -3.8 -4.83 0c-0.42,0.98 -0.91,1.89 -1.47,2.73zm-8.71 16.7l-1.05 -1.58c0.77,-0.77 1.93,-1.85 3.47,-3.25l0 -8.93 -3.05 0 0 -1.68 4.83 0 0 10.5c1.47,2.03 3.68,3.01 6.62,2.95 4.62,-0.01 9.2,-0.01 13.75,0 -0.07,0.34 -0.21,0.76 -0.42,1.25 -0.07,0.21 -0.14,0.35 -0.21,0.43 -7.14,-0.01 -11.69,-0.04 -13.65,-0.11 -2.94,0 -5.28,-1.02 -7.04,-3.05 -1.04,0.91 -2.13,2.07 -3.25,3.47zm10.29 -10.07l0 4.09 10.07 0 0 -4.09 -10.07 0zm-6.52 -8.41c-0.14,-0.2 -0.39,-0.52 -0.74,-0.94 -1.04,-1.61 -1.89,-2.83 -2.51,-3.68l1.47 -0.94c1.04,1.47 2.16,3.01 3.36,4.62l-1.58 0.94z"/>
  <path id="2" class="fil0" d="M129.9 142.44c-5.04,-1.26 -8.82,-2.8 -11.34,-4.62 -2.24,1.68 -6.09,3.29 -11.55,4.83l-0.95 -1.79c5.39,-1.33 9.07,-2.76 11.03,-4.3 -1.68,-1.68 -3.19,-3.85 -4.52,-6.51l1.58 -0.84c1.4,2.66 2.87,4.69 4.41,6.09 1.54,-1.4 2.94,-3.5 4.2,-6.3l1.68 0.74c-1.4,3.01 -2.91,5.28 -4.52,6.82 2.17,1.68 5.81,3.05 10.92,4.09 -0.21,0.29 -0.45,0.71 -0.73,1.27 -0.07,0.2 -0.14,0.38 -0.21,0.52zm-23.63 -19.43l0 -1.68 11.97 0c-0.49,-1.12 -1.01,-2.2 -1.57,-3.25l1.78 -0.53c0.28,0.42 0.67,1.12 1.16,2.1 0.28,0.49 0.49,0.88 0.63,1.16l-1.26 0.52 11.86 0 0 1.68 -24.57 0zm1.37 8.62c-0.35,-0.56 -0.74,-1.09 -1.16,-1.58 2.66,-1.47 5.29,-3.36 7.88,-5.67l1.36 1.36c-2.94,2.38 -5.63,4.35 -8.08,5.89zm21.63 -0.42c-2.8,-2.17 -5.43,-4 -7.88,-5.47l1.16 -1.36c2.38,1.47 5.04,3.22 7.98,5.25l-1.26 1.58z"/>
  <path id="3" class="fil0" d="M135.59 121.24l0 -1.57 22.68 0 0 1.57 -16.59 0 -0.63 4.18 14.18 0 -0.95 13.97 4.93 0 0 1.47 -24.46 0 0 -1.47 17.74 0 0.32 -4.71 -15.12 0 2.1 -13.44 -4.2 0zm17.74 5.75l-12.6 0 -0.94 6.11 13.12 0 0.42 -6.11z"/>
  <path id="4" class="fil0" d="M162.7 124.6l0 -1.68 14.28 0c-0.07,-1.82 -0.1,-3.61 -0.1,-5.36l1.78 0c0,2.38 0.04,4.17 0.1,5.36l9.04 0 0 1.68 -8.93 0c0.07,1.89 0.21,3.6 0.42,5.14 0.42,3.58 1.12,6.44 2.1,8.62 0.84,1.54 1.75,2.3 2.73,2.3 0.77,0 1.3,-0.49 1.57,-1.47 0.35,-1.33 0.56,-2.48 0.63,-3.46 0.64,0.21 1.2,0.42 1.68,0.63 -0.2,1.47 -0.48,2.62 -0.84,3.47 -0.48,1.81 -1.5,2.69 -3.04,2.62 -1.75,0 -3.22,-1.19 -4.41,-3.57 -1.05,-2.17 -1.78,-5.18 -2.21,-9.03 -0.21,-1.68 -0.35,-3.43 -0.42,-5.25l-14.38 0zm0.94 6.07l0 -1.68 11.76 0 0 1.68 -5.04 0 0 7.46 6.19 -0.94c-0.07,0.41 -0.1,1.01 -0.1,1.78 -5.67,0.63 -10.12,1.16 -13.34,1.58l-0.42 -1.58c1.83,-0.14 3.78,-0.35 5.89,-0.63l0 -7.67 -4.94 0zm20.8 -8.39c-1.05,-1.05 -2.21,-2.1 -3.47,-3.15l1.26 -1.05c0.14,0.14 0.45,0.38 0.95,0.73 1.33,1.2 2.16,1.97 2.51,2.32l-1.25 1.15z"/>
  <path id="5" class="fil0" d="M300.23 142.65c-0.35,-0.71 -0.7,-1.23 -1.05,-1.58 3.78,-0.98 6.69,-2.1 8.72,-3.36 -1.89,-1.68 -3.5,-4.02 -4.83,-7.03l-1.16 0 0 -1.58 14.39 0 0 1.79c-1.75,3.07 -3.57,5.39 -5.46,6.93 1.68,1.12 4.3,2.06 7.87,2.83 -0.21,0.21 -0.45,0.63 -0.73,1.26 -0.14,0.21 -0.25,0.35 -0.32,0.42 -3.43,-0.98 -6.19,-2.13 -8.29,-3.46 -2.45,1.47 -5.5,2.72 -9.14,3.78zm1.67 -14.71c-0.2,-0.28 -0.63,-0.74 -1.26,-1.36 2.74,-0.98 3.96,-2.77 3.68,-5.36l0 -2.42 10.5 0 0 4.85c-0.07,1.05 0.45,1.54 1.57,1.47l2.41 0 -0.21 1.68 -2.72 0c-1.89,0.07 -2.8,-0.77 -2.73,-2.52l0 -3.9 -7.14 0 0 0.95c0.28,3.07 -1.09,5.28 -4.1,6.61zm-4.83 12.72l-1.26 -1.05c0.42,-0.49 0.59,-1.08 0.53,-1.78l0 -9.98 -2.95 0 0 -1.57 4.63 0 0 10.92c1.12,-1.12 2.09,-2.2 2.94,-3.26 0,0.07 0.03,0.14 0.1,0.21 0.21,0.56 0.46,1.05 0.73,1.47 -1.04,1.06 -2.27,2.35 -3.67,3.89 -0.42,0.28 -0.77,0.66 -1.05,1.15zm7.78 -9.98c1.26,2.59 2.77,4.62 4.52,6.08 1.82,-1.46 3.5,-3.49 5.04,-6.08l-9.56 0zm-5.77 -7.14c-1.68,-1.96 -2.98,-3.4 -3.89,-4.31l1.47 -1.04c0.28,0.27 0.74,0.77 1.37,1.47 1.19,1.26 2.03,2.16 2.52,2.72l-1.47 1.16z"/>
  <path id="6" class="fil0" d="M330.17 128.15l0 -1.68 7.56 0 0 -8.93 1.78 0 0 8.93 7.67 0 0 1.68 -7.67 0 0 14.49 -1.78 0 0 -14.49 -7.56 0zm-4.41 14.09l-1.26 -1.47c0.56,-0.63 0.84,-1.33 0.84,-2.1l0 -10.61 -3.57 0 0 -1.68 5.35 0 0 12.61c1.68,-1.12 3.22,-2.21 4.62,-3.26 0.07,0.14 0.14,0.35 0.21,0.63 0.21,0.63 0.35,1.05 0.42,1.26 -0.21,0.14 -0.52,0.35 -0.94,0.63 -1.82,1.12 -3.29,2.07 -4.41,2.84 -0.28,0.14 -0.6,0.42 -0.94,0.84 -0.14,0.14 -0.25,0.24 -0.32,0.31zm2.32 -18.91c-1.4,-1.61 -2.8,-3.05 -4.2,-4.31l1.37 -1.04c1.04,0.83 2.48,2.2 4.3,4.09l-1.47 1.26z"/>
  <path id="7" class="fil0" d="M355.19 143.28l-0.84 -0.74c1.61,-1.18 2.38,-2.59 2.31,-4.19l-1.57 0 0 -3.05 2.83 0c0,0.42 0,1.29 0,2.63 0.07,2.31 -0.84,4.09 -2.73,5.35z"/>
  <path id="8" class="fil0" d="M381.45 137.94l0 -12.52 11.15 0 0 10.52 -9.47 0 0 2 -1.68 0zm-2.83 -16.7l0 -1.68 25.31 0 0 1.68 -4.2 0 0 17.64c0.07,2.1 -1.12,3.19 -3.58,3.26 -1.25,0.06 -2.65,0.1 -4.19,0.1 0,-0.14 -0.04,-0.35 -0.11,-0.63 -0.07,-0.49 -0.14,-0.91 -0.21,-1.26 0.98,0.07 2.27,0.11 3.89,0.11 1.68,0.06 2.48,-0.63 2.41,-2.1l0 -17.12 -19.32 0zm4.51 5.75l0 7.27 7.69 0 0 -7.27 -7.69 0z"/>
  <path id="9" class="fil0" d="M431.16 142.01c-6.31,-1.47 -10.34,-4.23 -12.09,-8.3l-2.95 0 0 6.62 4.94 -1.36c0,0.42 0,0.9 0,1.46 -1.75,0.64 -3.22,1.13 -4.41,1.47 -0.21,0.15 -0.6,0.32 -1.16,0.53 -0.35,0.14 -0.59,0.25 -0.73,0.32l-0.95 -1.37c0.43,-0.49 0.63,-1.19 0.63,-2.1l0 -5.57 -3.45 0c-0.14,3.51 -1.05,6.45 -2.73,8.83 -0.06,-0.08 -0.28,-0.28 -0.62,-0.64 -0.35,-0.27 -0.6,-0.48 -0.74,-0.62 1.12,-1.62 1.82,-3.22 2.1,-4.83 0.35,-1.62 0.53,-4.13 0.53,-7.56l0 -10.09 20.9 0 0 5.69 -19.22 0 0 3.67c0,1.54 -0.04,2.93 -0.11,4.19l5.77 0 0 -3.26 -4.52 0 0 -1.36 4.52 0 0 -2.31 1.67 0 0 2.31 5.58 0 0 -2.31 1.68 0 0 2.31 4.83 0 0 1.36 -4.83 0 0 3.26 5.98 0 0 1.36 -11.03 0c0.91,1.47 1.93,2.67 3.05,3.58 2.59,-1.26 4.35,-2.14 5.26,-2.63l0.94 1.26c-0.56,0.35 -2.17,1.12 -4.83,2.31 1.26,0.84 3.57,1.61 6.93,2.31 -0.42,0.56 -0.73,1.05 -0.94,1.47zm-19.95 -21.84l0 2.85 17.64 0 0 -2.85 -17.64 0zm7.33 8.92l0 3.26 5.58 0 0 -3.26 -5.58 0z"/>
  <path id="10" class="fil0" d="M435.27 128.37l0 -1.78 25.41 0 0 1.78 -11.44 0 0 10.61c0.07,2.1 -0.95,3.18 -3.05,3.26 -1.12,0 -2.38,0 -3.78,0 0,-0.08 -0.03,-0.22 -0.1,-0.43 -0.08,-0.62 -0.18,-1.12 -0.32,-1.47 1.19,0 2.31,0 3.36,0 1.4,0.08 2.07,-0.48 2,-1.68l0 -10.29 -12.08 0zm2.83 -7.45l0 -1.69 19.74 0 0 1.69 -19.74 0zm-1.26 19.42c-0.49,-0.42 -1.02,-0.73 -1.58,-0.95 1.97,-2.45 3.82,-5.24 5.57,-8.39l1.68 0.94c-1.75,3.01 -3.64,5.81 -5.67,8.4zm22.15 -0.52c-1.47,-2.11 -3.43,-4.69 -5.88,-7.78l1.58 -0.94c0.84,1.05 2.1,2.66 3.78,4.83 0.98,1.26 1.72,2.21 2.2,2.83l-1.68 1.06z"/>
  <path id="11" class="fil0" d="M465.85 121.13l0 -1.68 21.1 0 0 1.68 -9.34 0 0 7.13 11.34 0 0 1.78 -11.34 0 0 8.51c0.07,2.45 -1.12,3.67 -3.57,3.67 -1.26,0 -2.56,0 -3.89,0 0,-0.21 -0.07,-0.52 -0.21,-0.94 -0.07,-0.49 -0.14,-0.84 -0.21,-1.05 0.7,0.07 1.89,0.1 3.57,0.1 1.68,0.14 2.49,-0.59 2.42,-2.2l0 -8.09 -11.97 0 0 -1.78 11.97 0 0 -7.13 -9.87 0z"/>
  <path id="12" class="fil0" d="M501.24 121.87c0,-0.56 -0.07,-1.12 -0.21,-1.68 5.6,-0.21 10.61,-0.6 15.02,-1.16l0.42 1.79c-0.77,0.07 -1.93,0.17 -3.47,0.31 -1.4,0.07 -2.45,0.14 -3.15,0.21l0 8.19 7.66 0 0 1.68 -7.66 0 0 8.4 7.24 0 0 1.58 -16.59 0 0 -1.58 7.57 0 0 -8.4 -7.98 0 0 -1.68 7.98 0 0 -8.08 -6.83 0.42zm-8.71 10.07c-0.08,-0.28 -0.22,-0.77 -0.43,-1.47 -0.07,-0.21 -0.13,-0.38 -0.21,-0.52 2.59,-3.57 4.62,-7.67 6.09,-12.29l1.79 0.53c-0.63,1.95 -1.4,3.85 -2.31,5.66l0 18.8 -1.79 0 0 -15.44c-0.69,1.41 -1.75,2.98 -3.14,4.73z"/>
  <path id="13" class="fil0" d="M529.52 135.92l0 -10.69 8.5 0 0 10.69 -8.5 0zm-0.75 -14.57l0 -1.68 17 0 0 1.68 -2.2 0 0 17.32c0.07,2.38 -1.12,3.57 -3.57,3.57 -0.49,0 -1.33,0.04 -2.52,0.11 -0.77,0 -1.23,0 -1.36,0 -0.07,-0.35 -0.14,-0.77 -0.22,-1.26 -0.06,-0.28 -0.1,-0.49 -0.1,-0.63 0.49,0 1.12,0.03 1.89,0.1 0.77,0 1.33,0 1.68,0 1.68,0.07 2.48,-0.59 2.42,-1.99l0 -17.22 -13.02 0zm-7.87 10.17c-0.08,-0.28 -0.21,-0.77 -0.42,-1.47 -0.08,-0.21 -0.14,-0.39 -0.22,-0.52 2.53,-3.36 4.52,-7.32 5.99,-11.87l1.78 0.53c-0.7,1.89 -1.43,3.63 -2.2,5.25l0 19.21 -1.78 0 0 -15.85c-0.91,1.53 -1.97,3.11 -3.15,4.72zm10.3 -4.82l0 7.64 5.14 0 0 -7.64 -5.14 0z"/>
  <path id="14" class="fil0" d="M555.58 142.65c-0.36,-0.71 -0.71,-1.23 -1.06,-1.58 3.78,-0.98 6.69,-2.1 8.72,-3.36 -1.89,-1.68 -3.5,-4.02 -4.83,-7.03l-1.15 0 0 -1.58 14.38 0 0 1.79c-1.75,3.07 -3.57,5.39 -5.46,6.93 1.68,1.12 4.31,2.06 7.88,2.83 -0.22,0.21 -0.46,0.63 -0.74,1.26 -0.14,0.21 -0.24,0.35 -0.32,0.42 -3.42,-0.98 -6.19,-2.13 -8.29,-3.46 -2.45,1.47 -5.5,2.72 -9.13,3.78zm1.66 -14.71c-0.2,-0.28 -0.63,-0.74 -1.26,-1.36 2.74,-0.98 3.96,-2.77 3.68,-5.36l0 -2.42 10.5 0 0 4.85c-0.07,1.05 0.45,1.54 1.57,1.47l2.42 0 -0.22 1.68 -2.72 0c-1.89,0.07 -2.8,-0.77 -2.73,-2.52l0 -3.9 -7.14 0 0 0.95c0.28,3.07 -1.09,5.28 -4.1,6.61zm-4.83 12.72l-1.26 -1.05c0.42,-0.49 0.6,-1.08 0.53,-1.78l0 -9.98 -2.95 0 0 -1.57 4.63 0 0 10.92c1.12,-1.12 2.09,-2.2 2.94,-3.26 0,0.07 0.03,0.14 0.1,0.21 0.21,0.56 0.46,1.05 0.74,1.47 -1.05,1.06 -2.28,2.35 -3.68,3.89 -0.42,0.28 -0.77,0.66 -1.05,1.15zm7.78 -9.98c1.26,2.59 2.77,4.62 4.52,6.08 1.82,-1.46 3.5,-3.49 5.04,-6.08l-9.56 0zm-5.77 -7.14c-1.68,-1.96 -2.98,-3.4 -3.88,-4.31l1.46 -1.04c0.28,0.27 0.74,0.77 1.37,1.47 1.19,1.26 2.03,2.16 2.52,2.72l-1.47 1.16z"/>
  <path id="15" class="fil0" d="M580.48 142.64l0 -11.85 18.59 0 0 11.85 -1.68 0 0 -1.16 -15.23 0 0 1.16 -1.68 0zm-2.73 -12.05c-0.14,-0.21 -0.32,-0.56 -0.52,-1.05 -0.07,-0.28 -0.15,-0.46 -0.21,-0.53 4.96,-0.77 8.67,-1.64 11.13,-2.62 -1.82,-0.91 -3.5,-2.28 -5.05,-4.1 -1.25,1.26 -2.66,2.52 -4.19,3.78 -0.15,-0.14 -0.36,-0.35 -0.63,-0.63 -0.29,-0.28 -0.49,-0.45 -0.64,-0.52 3.36,-2.45 5.78,-4.97 7.25,-7.56l1.68 0.63c-0.14,0.21 -0.35,0.52 -0.63,0.95 -0.35,0.41 -0.6,0.73 -0.73,0.94l13.86 0 0 1.47c-1.97,2.03 -4.28,3.74 -6.93,5.14 2.8,0.91 6.22,1.54 10.29,1.89 -0.07,0.14 -0.18,0.42 -0.32,0.85 -0.21,0.34 -0.35,0.62 -0.42,0.83 -4.97,-0.63 -8.82,-1.54 -11.55,-2.73 -3.22,1.34 -7.35,2.42 -12.39,3.26zm19.01 -9.35l-12.4 0c1.47,1.75 3.4,3.22 5.78,4.41 2.52,-1.12 4.72,-2.58 6.62,-4.41zm0.63 11.02l-6.82 0 0 3.34 6.82 0 0 -3.34zm-15.23 0l0 3.34 6.84 0 0 -3.34 -6.84 0zm8.41 4.6l0 3.15 6.82 0 0 -3.15 -6.82 0zm-8.41 0l0 3.15 6.84 0 0 -3.15 -6.84 0z"/>
  <polygon id="16" class="fil0" points="207.96,140.65 205.96,140.65 205.96,130.68 193.15,130.68 193.15,140.65 191.16,140.65 191.16,119.55 193.15,119.55 193.15,128.89 205.96,128.89 205.96,119.55 207.96,119.55 "/>
  <polygon id="17" class="fil0" points="229.5,121.23 222.05,121.23 222.05,140.65 219.95,140.65 219.95,121.23 212.49,121.23 212.49,119.55 229.5,119.55 "/>
  <path id="18" class="fil0" d="M243.28 140.55l-7.35 -19.42 -0.1 0 0 19.52 -1.89 0 0 -21.1 3.25 0 6.93 18.9 0.11 0 6.92 -18.9 3.26 0 0 21.1 -1.89 0 0 -19.52 -0.1 0c-0.21,0.63 -2.66,7.1 -7.36,19.42l-1.78 0z"/>
  <polygon id="19" class="fil0" points="273.97,140.65 260.32,140.65 260.32,119.55 262.42,119.55 262.42,139.08 273.97,139.08 "/>
  <path id="20" class="fil0" d="M277.66 135.3l1.89 -0.52c0.49,3.15 2.24,4.72 5.25,4.72 3.36,-0.14 5.11,-2.03 5.25,-5.67 -0.14,-3.57 -1.89,-5.39 -5.25,-5.46 -2.24,0 -3.85,0.87 -4.83,2.63l-1.47 -0.22 1.15 -11.12 11.24 0 0 1.68 -9.56 0 -0.83 7.45c1.26,-1.4 2.86,-2.1 4.82,-2.1 4.27,0.21 6.51,2.52 6.73,6.93 -0.22,4.69 -2.56,7.14 -7.04,7.35 -3.99,0 -6.44,-1.89 -7.35,-5.67z"/>
  <path class="fil0" d="M12.04 28.93l-12.04 0 0 -28.14 11.34 0c5.51,0.28 8.5,2.52 8.96,6.72 0,3.73 -1.96,5.93 -5.88,6.58l0 0.14c4.58,0.74 6.95,3.08 7.14,7 -0.09,5.04 -3.26,7.61 -9.52,7.7zm-0.98 -13.58l-8.4 0 0 11.48 8.82 0c4.86,0 7.28,-2.01 7.28,-6.02 -0.37,-3.45 -2.94,-5.27 -7.7,-5.46zm-0.42 -12.46l-7.98 0 0 10.36 7.98 0c4.48,-0.09 6.77,-1.91 6.86,-5.46 -0.09,-3.17 -2.38,-4.8 -6.86,-4.9z"/>
  <path id="1" class="fil0" d="M30.83 17.87l0 10.92 -2.66 0 0 -20.3 2.66 0 0 3.78c1.03,-2.8 2.8,-4.25 5.32,-4.34 1.31,0 2.57,0.32 3.78,0.98l-1.12 2.52c-0.65,-0.65 -1.63,-0.98 -2.94,-0.98 -3.26,0.19 -4.95,2.66 -5.04,7.42z"/>
  <path id="2" class="fil0" d="M44.16 28.79l0 -20.44 2.66 0 0 20.44 -2.66 0zm0 -24.78l0 -3.36 2.66 0 0 3.36 -2.66 0z"/>
  <path id="3" class="fil0" d="M71.07 28.93l-2.53 0 0 -12.6c0.09,-4.29 -1.72,-6.39 -5.45,-6.3 -3.74,0.28 -5.93,2.38 -6.59,6.3l0 12.6 -2.52 0 0 -20.44 2.52 0 0 4.06c1.59,-2.89 4.02,-4.43 7.28,-4.62 4.95,-0.09 7.37,2.56 7.29,7.98l0 13.02z"/>
  <path id="4" class="fil0" d="M92.93 8.35l2.66 0 0 17.78c0.38,6.91 -2.89,10.22 -9.8,9.94 -3.73,-0.09 -6.39,-1.31 -7.98,-3.64l1.82 -0.98c1.4,1.59 3.45,2.42 6.16,2.52 4.85,0.1 7.23,-2.14 7.14,-6.72l0 -2.8c-1.12,2.43 -3.55,3.64 -7.28,3.64 -5.69,-0.09 -8.58,-3.36 -8.68,-9.8 0.28,-6.53 3.27,-9.99 8.96,-10.36 3.36,0.09 5.69,1.35 7,3.78l0 -3.36zm0 10.78l0 -2.66c-0.28,-4.01 -2.38,-6.16 -6.3,-6.44 -4.48,0.19 -6.81,2.94 -7,8.26 0.1,5.23 2.34,7.93 6.72,8.12 4.29,-0.09 6.49,-2.52 6.58,-7.28z"/>
  <path id="5" class="fil0" d="M110.57 28.79l0 -20.44 2.66 0 0 20.44 -2.66 0zm0 -24.78l0 -3.36 2.66 0 0 3.36 -2.66 0z"/>
  <path id="6" class="fil0" d="M134.68 0.51l2.52 0 0 28.28 -2.52 0 0 -3.64c-1.4,2.71 -3.87,4.06 -7.42,4.06 -5.23,-0.28 -7.93,-3.73 -8.12,-10.36 0.19,-7 3.03,-10.64 8.54,-10.92 3.17,0.09 5.5,1.54 7,4.34l0 -11.76zm0 19.18l0 -2.94c-0.47,-3.82 -2.62,-6.06 -6.44,-6.72 -4.3,0.19 -6.49,3.13 -6.58,8.82 0.09,5.6 2.24,8.45 6.44,8.54 4.29,-0.19 6.48,-2.75 6.58,-7.7z"/>
  <path id="7" class="fil0" d="M159.91 22.63l2.8 0.56c-1.12,4.01 -4.2,6.02 -9.24,6.02 -6.54,-0.28 -9.89,-3.69 -10.08,-10.22 0.28,-7.09 3.54,-10.78 9.8,-11.06 6.25,0.09 9.42,3.78 9.52,11.06 0,0.28 0,0.47 0,0.56l-16.52 0c0.18,5.04 2.57,7.65 7.14,7.84 3.64,-0.09 5.83,-1.68 6.58,-4.76zm-13.72 -5.04l13.85 0c-0.08,-4.95 -2.32,-7.46 -6.71,-7.56 -4.48,0.19 -6.86,2.7 -7.14,7.56z"/>
  <path id="8" class="fil0" d="M187.23 28.79l-2.65 0c-0.66,-0.84 -0.98,-2.1 -0.98,-3.78 -1.68,2.71 -4.67,4.11 -8.96,4.2 -4.39,-0.09 -6.63,-1.91 -6.72,-5.46 0,-3.73 2.52,-5.88 7.55,-6.44 4.86,-0.56 7.52,-1.31 7.98,-2.24 0.28,-3.55 -1.63,-5.23 -5.74,-5.04 -3.82,-0.09 -6.06,1.4 -6.72,4.48l-2.37 -0.56c0.84,-4.11 3.91,-6.11 9.24,-6.02 5.78,-0.19 8.54,2.29 8.26,7.42 0,2.99 0,6.02 0,9.1 -0.1,1.87 0.28,3.31 1.11,4.34zm-3.63 -8.26l0 -3.64c-1.13,1.12 -3.37,1.87 -6.72,2.24 -4.39,0.37 -6.49,1.91 -6.3,4.62 -0.1,2.52 1.58,3.73 5.04,3.64 4.94,-0.19 7.6,-2.48 7.98,-6.86z"/>
  <path id="9" class="fil0" d="M208.55 13.25l-2.53 0.7c-0.65,-2.61 -2.43,-3.92 -5.32,-3.92 -3.36,0.1 -5.08,1.31 -5.18,3.64 -0.37,1.96 1.63,3.22 6.02,3.78 0.19,0 0.52,0.05 0.98,0.14 0.37,0.1 0.66,0.19 0.84,0.28 4.11,0.93 6.12,2.8 6.02,5.6 -0.09,3.83 -2.89,5.79 -8.4,5.88 -4.94,0.19 -7.93,-1.87 -8.96,-6.16l2.52 -0.56c0.66,3.27 2.8,4.9 6.44,4.9 3.64,-0.09 5.56,-1.4 5.74,-3.92 0.19,-1.87 -1.26,-3.13 -4.34,-3.78 -0.55,-0.18 -1.26,-0.33 -2.1,-0.42 -5.22,-0.94 -7.69,-2.85 -7.41,-5.74 0.27,-3.64 2.79,-5.55 7.55,-5.74 4.48,0 7.19,1.78 8.13,5.32z"/>
  <path id="10" class="fil0" d="M227.73 1.21l0 7.28 4.33 0 0 1.96 -4.33 0 0 14.14c-0.1,2.06 0.69,3.04 2.37,2.94 0.85,0 1.5,-0.14 1.96,-0.42l0.43 1.26c-0.66,0.56 -1.73,0.84 -3.22,0.84 -2.9,0.09 -4.3,-1.35 -4.21,-4.34l0 -14.42 -3.22 0 0 -1.96 3.22 0 0 -6.16 2.67 -1.12z"/>
  <path id="11" class="fil0" d="M246.23 7.93c6.07,0.37 9.24,3.97 9.52,10.78 -0.09,6.91 -3.36,10.45 -9.8,10.64 -6.25,-0.37 -9.52,-3.83 -9.8,-10.36 0.28,-7.19 3.64,-10.87 10.08,-11.06zm-0.14 19.6c4.39,-0.18 6.67,-3.08 6.86,-8.68 -0.19,-5.6 -2.47,-8.54 -6.86,-8.82 -4.57,0.19 -6.95,3.18 -7.14,8.96 0.19,5.32 2.57,8.16 7.14,8.54z"/>
  <polygon id="12" class="fil0" points="269.61,28.79 269.61,0.51 272.27,0.51 272.27,28.79 "/>
  <path id="13" class="fil0" d="M279.3 28.79l0 -20.44 2.66 0 0 20.44 -2.66 0zm0 -24.78l0 -3.36 2.66 0 0 3.36 -2.66 0z"/>
  <path id="14" class="fil0" d="M292.77 5.83l0 2.52 4.62 0 0 2.24 -4.62 0 0 18.2 -2.66 0 0 -18.2 -3.64 0 0 -2.24 3.64 0 0 -2.66c-0.09,-3.83 1.58,-5.69 5.04,-5.6 1.49,0.1 2.85,0.38 4.06,0.84l-0.7 1.82c-0.56,-0.37 -1.45,-0.56 -2.66,-0.56 -2.24,-0.18 -3.27,1.03 -3.08,3.64z"/>
  <path id="15" class="fil0" d="M317.29 22.63l2.81 0.56c-1.13,4.01 -4.2,6.02 -9.25,6.02 -6.53,-0.28 -9.89,-3.69 -10.08,-10.22 0.28,-7.09 3.55,-10.78 9.8,-11.06 6.26,0.09 9.43,3.78 9.53,11.06 0,0.28 0,0.47 0,0.56l-16.53 0c0.19,5.04 2.57,7.65 7.14,7.84 3.65,-0.09 5.84,-1.68 6.58,-4.76zm-13.72 -5.04l13.86 0c-0.09,-4.95 -2.33,-7.46 -6.72,-7.56 -4.48,0.19 -6.86,2.7 -7.14,7.56z"/>
  <path id="16" class="fil0" d="M352.57 28.79l-2.66 0c-0.65,-0.84 -0.98,-2.1 -0.98,-3.78 -1.67,2.71 -4.66,4.11 -8.96,4.2 -4.39,-0.09 -6.63,-1.91 -6.71,-5.46 0,-3.73 2.51,-5.88 7.55,-6.44 4.86,-0.56 7.52,-1.31 7.98,-2.24 0.28,-3.55 -1.63,-5.23 -5.74,-5.04 -3.82,-0.09 -6.06,1.4 -6.72,4.48l-2.38 -0.56c0.85,-4.11 3.92,-6.11 9.24,-6.02 5.79,-0.19 8.55,2.29 8.27,7.42 0,2.99 0,6.02 0,9.1 -0.1,1.87 0.28,3.31 1.11,4.34zm-3.64 -8.26l0 -3.64c-1.12,1.12 -3.36,1.87 -6.72,2.24 -4.39,0.37 -6.48,1.91 -6.3,4.62 -0.09,2.52 1.59,3.73 5.04,3.64 4.95,-0.19 7.61,-2.48 7.98,-6.86z"/>
  <path id="17" class="fil0" d="M361.14 17.87l0 10.92 -2.66 0 0 -20.3 2.66 0 0 3.78c1.03,-2.8 2.8,-4.25 5.32,-4.34 1.31,0 2.57,0.32 3.78,0.98l-1.12 2.52c-0.65,-0.65 -1.63,-0.98 -2.94,-0.98 -3.26,0.19 -4.95,2.66 -5.04,7.42z"/>
  <path id="18" class="fil0" d="M383.28 7.93c6.07,0.37 9.24,3.97 9.53,10.78 -0.09,6.91 -3.36,10.45 -9.8,10.64 -6.26,-0.37 -9.52,-3.83 -9.8,-10.36 0.28,-7.19 3.64,-10.87 10.07,-11.06zm-0.13 19.6c4.38,-0.18 6.67,-3.08 6.85,-8.68 -0.18,-5.6 -2.47,-8.54 -6.85,-8.82 -4.58,0.19 -6.96,3.18 -7.14,8.96 0.18,5.32 2.56,8.16 7.14,8.54z"/>
  <path id="19" class="fil0" d="M413.98 13.25l-2.52 0.7c-0.66,-2.61 -2.43,-3.92 -5.32,-3.92 -3.36,0.1 -5.09,1.31 -5.18,3.64 -0.38,1.96 1.63,3.22 6.02,3.78 0.18,0 0.51,0.05 0.98,0.14 0.37,0.1 0.65,0.19 0.83,0.28 4.11,0.93 6.12,2.8 6.03,5.6 -0.09,3.83 -2.89,5.79 -8.4,5.88 -4.95,0.19 -7.93,-1.87 -8.96,-6.16l2.52 -0.56c0.65,3.27 2.8,4.9 6.44,4.9 3.64,-0.09 5.55,-1.4 5.74,-3.92 0.18,-1.87 -1.26,-3.13 -4.34,-3.78 -0.56,-0.18 -1.27,-0.33 -2.1,-0.42 -5.23,-0.94 -7.7,-2.85 -7.42,-5.74 0.27,-3.64 2.8,-5.55 7.56,-5.74 4.48,0 7.18,1.78 8.12,5.32z"/>
  <path id="20" class="fil0" d="M436.69 13.25l-2.52 0.7c-0.66,-2.61 -2.43,-3.92 -5.32,-3.92 -3.36,0.1 -5.09,1.31 -5.18,3.64 -0.38,1.96 1.63,3.22 6.02,3.78 0.18,0 0.51,0.05 0.98,0.14 0.37,0.1 0.65,0.19 0.83,0.28 4.11,0.93 6.12,2.8 6.02,5.6 -0.08,3.83 -2.89,5.79 -8.39,5.88 -4.95,0.19 -7.94,-1.87 -8.96,-6.16l2.52 -0.56c0.65,3.27 2.8,4.9 6.44,4.9 3.63,-0.09 5.55,-1.4 5.74,-3.92 0.18,-1.87 -1.26,-3.13 -4.35,-3.78 -0.55,-0.18 -1.26,-0.33 -2.09,-0.42 -5.23,-0.94 -7.7,-2.85 -7.42,-5.74 0.27,-3.64 2.79,-5.55 7.55,-5.74 4.49,0 7.19,1.78 8.13,5.32z"/>
  <path id="21" class="fil0" d="M467.35 13.25l-2.52 0.7c-0.66,-2.61 -2.43,-3.92 -5.32,-3.92 -3.36,0.1 -5.09,1.31 -5.18,3.64 -0.38,1.96 1.63,3.22 6.02,3.78 0.18,0 0.51,0.05 0.98,0.14 0.37,0.1 0.65,0.19 0.83,0.28 4.11,0.93 6.12,2.8 6.03,5.6 -0.09,3.83 -2.9,5.79 -8.4,5.88 -4.95,0.19 -7.93,-1.87 -8.96,-6.16l2.52 -0.56c0.65,3.27 2.8,4.9 6.44,4.9 3.64,-0.09 5.55,-1.4 5.74,-3.92 0.18,-1.87 -1.26,-3.13 -4.34,-3.78 -0.56,-0.18 -1.27,-0.33 -2.1,-0.42 -5.23,-0.94 -7.7,-2.85 -7.42,-5.74 0.27,-3.64 2.79,-5.55 7.56,-5.74 4.48,0 7.18,1.78 8.12,5.32z"/>
  <path id="22" class="fil0" d="M491.87 14.23l-2.65 0.56c-0.85,-2.89 -2.81,-4.43 -5.88,-4.62 -4.48,0.19 -6.77,3.04 -6.86,8.54 0.09,5.6 2.38,8.49 6.86,8.68 3.64,-0.09 5.69,-2 6.16,-5.74l2.65 0.56c-0.93,4.85 -3.87,7.18 -8.81,7 -6.26,-0.09 -9.43,-3.59 -9.52,-10.5 0.18,-6.91 3.31,-10.5 9.37,-10.78 4.48,0.19 7.38,2.29 8.68,6.3z"/>
  <path id="23" class="fil0" d="M499.75 17.87l0 10.92 -2.67 0 0 -20.3 2.67 0 0 3.78c1.02,-2.8 2.8,-4.25 5.31,-4.34 1.31,0 2.57,0.32 3.78,0.98l-1.11 2.52c-0.66,-0.65 -1.64,-0.98 -2.94,-0.98 -3.27,0.19 -4.96,2.66 -5.04,7.42z"/>
  <path id="24" class="fil0" d="M528.47 22.63l2.8 0.56c-1.12,4.01 -4.2,6.02 -9.24,6.02 -6.53,-0.28 -9.89,-3.69 -10.08,-10.22 0.28,-7.09 3.55,-10.78 9.8,-11.06 6.25,0.09 9.43,3.78 9.52,11.06 0,0.28 0,0.47 0,0.56l-16.52 0c0.18,5.04 2.57,7.65 7.14,7.84 3.64,-0.09 5.83,-1.68 6.58,-4.76zm-13.72 -5.04l13.86 0c-0.09,-4.95 -2.33,-7.46 -6.72,-7.56 -4.48,0.19 -6.86,2.7 -7.14,7.56z"/>
  <path id="25" class="fil0" d="M552.86 22.63l2.8 0.56c-1.12,4.01 -4.2,6.02 -9.24,6.02 -6.54,-0.28 -9.89,-3.69 -10.08,-10.22 0.28,-7.09 3.54,-10.78 9.8,-11.06 6.25,0.09 9.42,3.78 9.52,11.06 0,0.28 0,0.47 0,0.56l-16.52 0c0.18,5.04 2.56,7.65 7.13,7.84 3.65,-0.09 5.84,-1.68 6.59,-4.76zm-13.72 -5.04l13.85 0c-0.09,-4.95 -2.33,-7.46 -6.72,-7.56 -4.48,0.19 -6.85,2.7 -7.13,7.56z"/>
  <path id="26" class="fil0" d="M579.07 28.93l-2.52 0 0 -12.6c0.08,-4.29 -1.73,-6.39 -5.46,-6.3 -3.74,0.28 -5.93,2.38 -6.59,6.3l0 12.6 -2.52 0 0 -20.44 2.52 0 0 4.06c1.59,-2.89 4.02,-4.43 7.28,-4.62 4.95,-0.09 7.38,2.56 7.29,7.98l0 13.02z"/>
  <path id="27" class="fil0" d="M601.49 13.25l-2.52 0.7c-0.65,-2.61 -2.43,-3.92 -5.32,-3.92 -3.36,0.1 -5.08,1.31 -5.18,3.64 -0.37,1.96 1.63,3.22 6.02,3.78 0.19,0 0.52,0.05 0.98,0.14 0.37,0.1 0.65,0.19 0.84,0.28 4.11,0.93 6.12,2.8 6.02,5.6 -0.09,3.83 -2.89,5.79 -8.4,5.88 -4.94,0.19 -7.93,-1.87 -8.96,-6.16l2.52 -0.56c0.65,3.27 2.8,4.9 6.44,4.9 3.64,-0.09 5.56,-1.4 5.74,-3.92 0.19,-1.87 -1.26,-3.13 -4.34,-3.78 -0.56,-0.18 -1.26,-0.33 -2.1,-0.42 -5.22,-0.94 -7.7,-2.85 -7.42,-5.74 0.28,-3.64 2.8,-5.55 7.56,-5.74 4.48,0 7.19,1.78 8.12,5.32z"/>
 </g>
</svg>
