<?xml version="1.0" encoding="UTF-8"?>
<!DOCTYPE svg PUBLIC "-//W3C//DTD SVG 1.1//EN" "http://www.w3.org/Graphics/SVG/1.1/DTD/svg11.dtd">
<!-- Creator: CorelDRAW 2017 -->
<svg xmlns="http://www.w3.org/2000/svg" xml:space="preserve" width="610px" height="263px" version="1.1" style="shape-rendering:geometricPrecision; text-rendering:geometricPrecision; image-rendering:optimizeQuality; fill-rule:evenodd; clip-rule:evenodd"
viewBox="0 0 211.26 91.15"
 xmlns:xlink="http://www.w3.org/1999/xlink">
 <defs>
  <style type="text/css">
   <![CDATA[
    .fil0 {fill:#332C2B;fill-rule:nonzero}
    .fil1 {fill:#332C2B;fill-rule:nonzero}
   ]]>
  </style>
 </defs>
 <g id="图层_x0020_1">
  <metadata id="CorelCorpID_0Corel-Layer"/>
  <polygon class="fil0" points="0,24.64 0,23.34 13.3,23.34 13.3,24.64 "/>
  <path id="1" class="fil0" d="M28.68 23.56c-3,-0.9 -5.22,-2.14 -6.65,-3.72 -1.43,1.58 -3.65,2.82 -6.65,3.72l0 -1.13c2.52,-0.97 4.38,-2.44 5.58,-4.39l2.14 0c1.2,1.95 3.06,3.42 5.58,4.39l0 1.13zm-7.66 7.61l0 -8.74 1.97 0 0 8.74 -1.97 0z"/>
  <path id="2" class="fil0" d="M36.67 26.04l0 -7.38 6.48 0 0 5.52c0.08,1.32 -0.52,1.94 -1.8,1.86l-4.68 0zm-5.51 -5.24l0 -1.07 1.8 0 0 -1.58 1.64 0 0 1.58 1.63 0 0 1.07 -1.52 0c0.34,0.94 0.84,1.82 1.52,2.65l0 1.47c-0.75,-0.68 -1.3,-1.3 -1.63,-1.86l0 3.21 -1.64 0 0 -2.99c-0.34,0.68 -0.98,1.51 -1.92,2.48l0 -1.52c0.83,-1.09 1.43,-2.23 1.81,-3.44l-1.69 0zm4.95 10.09c-1.28,0.04 -1.9,-0.53 -1.86,-1.69l0 -2.54 1.74 0 0 2.14c-0.07,0.68 0.25,1 0.96,0.96l2.03 0c0.57,0 0.83,-0.24 0.8,-0.73l0 -0.28 1.35 0 0 0.5c0.04,1.13 -0.56,1.68 -1.81,1.64l-3.21 0zm6.2 -0.39c-0.19,-1.36 -0.51,-2.64 -0.96,-3.84l1.47 0c0.49,1.32 0.86,2.59 1.13,3.84l-1.64 0zm-11.44 0c0.52,-1.09 0.9,-2.37 1.13,-3.84l1.46 0c-0.19,1.47 -0.51,2.75 -0.96,3.84l-1.63 0zm9.97 -5.53c0.49,0.04 0.72,-0.21 0.68,-0.73l0 -0.45 -3.22 0 0 1.18 2.54 0zm-2.54 -3.21l0 1.07 3.22 0 0 -1.07 -3.22 0zm0 -2.02l0 1.06 3.22 0 0 -1.06 -3.22 0zm-0.22 8.89c-0.07,-0.56 -0.24,-1.22 -0.5,-1.97l1.46 0c0.3,0.64 0.51,1.3 0.62,1.97l-1.58 0z"/>
  <path id="3" class="fil0" d="M50.37 20.92l0 -1.19 3.27 0 0 -1.57 1.74 0 0 1.57 3.33 0 0 1.19 -3.33 0 0 3.14 3.95 0 0 1.19 -4.91 0c-0.6,1.5 -1.4,2.81 -2.42,3.94 1.39,0 3.03,-0.07 4.9,-0.22 -0.03,-0.08 -0.07,-0.17 -0.11,-0.28 -0.11,-0.57 -0.34,-1.25 -0.67,-2.04l1.46 0c0.68,1.43 1.17,2.84 1.47,4.23l-1.64 0c-0.04,-0.26 -0.09,-0.54 -0.17,-0.84 -1.91,0.26 -4.21,0.39 -6.87,0.39l0 -1.24c0.97,-1.31 1.65,-2.63 2.02,-3.94l-2.59 0 0 -1.19 3.84 0 0 -3.14 -3.27 0zm-3.95 9.97c0.75,-1.62 1.23,-3.51 1.46,-5.69l1.52 0c-0.15,2.25 -0.56,4.15 -1.24,5.69l-1.74 0zm1.29 -6.31c-0.15,-0.87 -0.45,-1.79 -0.9,-2.77l1.52 0c0.45,0.79 0.81,1.71 1.07,2.77l-1.69 0zm-0.11 -3.39c-0.15,-0.93 -0.47,-1.86 -0.96,-2.76l1.58 0c0.49,0.83 0.82,1.75 1.01,2.76l-1.63 0z"/>
  <path id="4" class="fil0" d="M63.54 31.57l0 -0.79c0.79,-0.57 1.2,-1.28 1.24,-2.15l-0.96 0 0 -1.85 1.8 0 0 1.63c0.08,1.35 -0.61,2.4 -2.08,3.16z"/>
  <path id="5" class="fil0" d="M81.74 20.41l0 -1.24 5.46 0c0.91,0 1.77,-0.13 2.6,-0.39l0 1.35c-0.94,0.19 -1.77,0.28 -2.48,0.28l-0.68 0 0 3.49 3.55 0 0 1.24 -3.55 0 0 4.23 3.27 0 0 1.13 -8.46 0 0 -1.13 3.33 0 0 -4.23 -3.61 0 0 -1.24 3.61 0 0 -3.49 -3.04 0zm-3.28 10.76l0 -8.12c-0.45,0.27 -0.96,0.47 -1.52,0.63l0 -1.02c1.35,-0.83 2.21,-2.31 2.59,-4.45l1.86 0c-0.34,1.46 -0.73,2.51 -1.18,3.15l0 9.81 -1.75 0z"/>
  <path id="6" class="fil0" d="M96.84 28.41l0 -6.76 4.72 0 0 4.84c0.04,1.32 -0.56,1.95 -1.8,1.92l-2.92 0zm-0.17 -8.17l0 -1.18 8.85 0 0 1.18 -1.02 0 0 9.01c0,1.13 -0.58,1.7 -1.74,1.7l-1.64 0 0 -1.19 0.96 0c0.53,0.04 0.77,-0.19 0.73,-0.67l0 -8.85 -6.14 0zm-2.88 10.88l0 -8.07c-0.45,0.27 -0.94,0.49 -1.46,0.68l0 -1.07c1.27,-0.83 2.08,-2.31 2.42,-4.45l1.75 0c-0.26,1.28 -0.6,2.27 -1.02,2.98l0 9.93 -1.69 0zm4.62 -3.84l0.96 0c0.44,0 0.65,-0.25 0.61,-0.73l0 -3.77 -1.57 0 0 4.5z"/>
  <path id="7" class="fil0" d="M107.92 31.16l0 -1.18c0.72,-0.6 1.06,-1.52 1.02,-2.76l0 -8.56 11.39 0 0 1.8c0.03,1.2 -0.55,1.78 -1.75,1.74l-8.01 0 0 4.74c0.12,1.95 -0.77,3.36 -2.65,4.22zm3.34 -6.19l0 -1.12 1.63 0c-0.15,-0.3 -0.28,-0.7 -0.39,-1.19l1.74 0c0.08,0.45 0.19,0.85 0.34,1.19l2.26 0c0.07,-0.16 0.15,-0.42 0.22,-0.8 0.04,-0.14 0.08,-0.26 0.11,-0.33l1.69 0c-0.11,0.45 -0.24,0.83 -0.39,1.13l1.8 0 0 1.12 -1.69 0 0 1.86 2.2 0 0 1.07 -2.2 0 0 3.27 -1.58 0 0 -3.27 -2.59 0c-0.11,1.51 -1.05,2.62 -2.81,3.33l0 -1.07c0.75,-0.49 1.16,-1.24 1.23,-2.26l-1.97 0 0 -1.07 1.97 0 0 -1.86 -1.57 0zm-0.69 -5.23l0 1.39 7.39 0c0.45,0 0.68,-0.24 0.68,-0.73l0 -0.66 -8.07 0zm3.9 5.23l0 1.86 2.53 0 0 -1.86 -2.53 0z"/>
  <path id="8" class="fil0" d="M136.15 28.75c-0.68,-0.19 -1.28,-0.36 -1.8,-0.51l0 1.07c0.04,0.91 -0.51,1.36 -1.64,1.36l-1.07 0 0 -0.9 0.51 0c0.38,0.03 0.54,-0.1 0.51,-0.4l0 -0.85 -2.14 0 0 2.65 -1.74 0 0 -2.65 -2.09 0 0 2.15 -1.64 0 0 -2.54c-0.26,0.11 -0.65,0.24 -1.18,0.39 -0.3,0.12 -0.52,0.19 -0.67,0.23l0 -1.07c1.53,-0.57 2.6,-1.09 3.21,-1.58l-3.1 0 0 -1.02 4.28 0c0.19,-0.22 0.35,-0.45 0.51,-0.68l-3.5 0 0 -3.77 10.14 0 0 2.09c0.07,1.2 -0.47,1.76 -1.63,1.68l-3.21 0c-0.12,0.23 -0.27,0.46 -0.45,0.68l6.64 0 0 1.02 -3.32 0c0.68,0.64 1.8,1.17 3.38,1.58l0 1.07zm-12.85 -8.97l0 -1.07 3.27 0 0 -0.62 1.69 0 0 0.62 2.77 0 0 -0.62 1.74 0 0 0.62 3.27 0 0 1.07 -3.27 0 0 0.56 -1.74 0 0 -0.56 -2.77 0 0 0.56 -1.69 0 0 -0.56 -3.27 0zm7.22 6.88l0 0.91 2.2 0c-0.71,-0.38 -1.37,-0.87 -1.97,-1.47l-2.2 0c-0.6,0.56 -1.33,1.05 -2.2,1.47l2.43 0 0 -0.91 1.74 0zm-4.22 -3.16l6.08 0c0.45,0.04 0.68,-0.18 0.68,-0.66l-6.76 0 0 0.66zm0 -1.97l0 0.63 6.75 0 0 -0.63 -6.75 0z"/>
  <path class="fil0" d="M3.58 59.57l0 -0.78c0.7,-0.7 1.17,-1.39 1.39,-2.06 0.25,-0.66 0.37,-1.59 0.37,-2.81l0 -2.03 1.15 0 0 2.06c-0.06,2.12 0.53,3.74 1.8,4.84l0 0.78c-1.18,-0.75 -1.97,-1.59 -2.37,-2.54 -0.43,1.02 -1.21,1.86 -2.34,2.54zm-3.08 0l0 -0.81c0.59,-0.77 0.97,-1.48 1.15,-2.14 0.21,-0.67 0.31,-1.61 0.31,-2.8l0 -1.93 1.15 0 0 1.29c-0.07,1.89 0.29,3.19 1.08,3.88l0 0.95c-0.68,-0.45 -1.16,-0.96 -1.45,-1.52 -0.34,1.17 -1.09,2.2 -2.24,3.08z"/>
  <path id="1" class="fil0" d="M10.11 59.6l0 -5.58 3.61 0 0 4.43c0.02,0.72 -0.31,1.07 -1.01,1.05l-0.75 0 0 -0.71 0.37 0c0.3,0.02 0.43,-0.09 0.41,-0.34l0 -0.67 -1.65 0 0 1.82 -0.98 0zm-0.48 -6.22l0 -0.75 1.73 0c-0.09,-0.22 -0.16,-0.5 -0.21,-0.84l1.15 0c0.03,0.36 0.09,0.64 0.21,0.84l2.09 0c0.12,-0.22 0.19,-0.5 0.21,-0.84l1.15 0c-0.03,0.34 -0.09,0.62 -0.21,0.84l1.73 0 0 0.75 -7.85 0zm5.41 6.09l0 -0.68 0.61 0c0.27,0.02 0.41,-0.09 0.41,-0.34l0 -4.6 0.98 0 0 4.64c0.02,0.67 -0.32,1 -1.02,0.98l-0.98 0zm-0.64 -1.22l0 -4.03 0.95 0 0 4.03 -0.95 0zm-3.31 -2.03l0 0.92 1.65 0 0 -0.92 -1.65 0zm0 -1.52l0 0.88 1.65 0 0 -0.88 -1.65 0z"/>
  <path id="2" class="fil0" d="M20 59.6l0 -5.34c-0.31,0.29 -0.71,0.55 -1.18,0.78l0 -0.38c0.99,-0.58 1.62,-1.53 1.89,-2.84l0.58 0c-0.2,0.77 -0.46,1.38 -0.78,1.83l0 5.95 -0.51 0zm4.2 -5.81l0 4.73c0,0.68 -0.32,1 -0.95,0.98l-0.74 0 0 -0.37 0.57 0c0.41,0 0.61,-0.18 0.61,-0.54l0 -4.8 0.51 0zm-3.01 0.74l0 -0.34c0.81,-0.52 1.3,-1.27 1.46,-2.26l0.5 0c-0.06,0.27 -0.13,0.53 -0.2,0.77l3.52 0 0 1.56 -0.51 0 0 -1.18 -3.18 0c-0.25,0.58 -0.78,1.07 -1.59,1.45zm1.63 0.17c0.04,1.71 -0.5,3.02 -1.63,3.92l0 -0.4c0.77,-0.88 1.14,-2.06 1.12,-3.52l0.51 0zm2.3 0l0.47 0c0,1.51 0.38,2.68 1.15,3.52l0 0.4c-1.13,-0.9 -1.67,-2.21 -1.62,-3.92z"/>
  <path id="3" class="fil0" d="M28.89 55.34l0 -2.98 0.51 0 0 2.6 2.34 0 0 -3.11 0.54 0 0 3.11 1.56 0c0.54,0.03 0.8,-0.24 0.78,-0.81l0 -1.79 0.5 0 0 1.83c0.03,0.79 -0.36,1.17 -1.15,1.15l-1.69 0 0 3.59 1.79 0c0.52,0.02 0.77,-0.21 0.75,-0.71l0 -2.03 0.54 0 0 2.06c0,0.72 -0.39,1.07 -1.15,1.05l-5.55 0 0 -3.11 0.51 0 0 2.74 2.57 0 0 -3.59 -2.85 0z"/>
  <path id="4" class="fil0" d="M42.69 56.8c-0.45,1.17 -1.25,2.1 -2.4,2.8l0 -0.34c1.44,-1.21 2.14,-2.61 2.1,-4.19l0 -0.58 0.57 0 0 0.58c-0.02,1.6 0.71,2.99 2.2,4.16l0 0.37c-1.24,-0.79 -2.06,-1.72 -2.47,-2.8zm-1.69 -5.01l0.47 0c0.86,1.19 2.07,2.18 3.62,2.94l0 0.34c-1.62,-0.63 -2.91,-1.51 -3.85,-2.64 -0.95,1.13 -2.24,2.01 -3.86,2.64l0 -0.34c1.55,-0.76 2.76,-1.75 3.62,-2.94zm-1.39 4.94c-0.45,1.21 -1.18,2.15 -2.19,2.8l0 -0.37c1.28,-1.22 1.9,-2.58 1.86,-4.09l0 -0.58 0.57 0 0 0.55c-0.07,1.1 0.33,2.13 1.19,3.07l0 0.41c-0.7,-0.56 -1.18,-1.16 -1.43,-1.79z"/>
  <path id="5" class="fil0" d="M46.88 59.16l0 -6.19 0.95 0c0.13,-0.36 0.23,-0.73 0.3,-1.11l0.47 0c-0.06,0.49 -0.15,0.86 -0.27,1.11l1.56 0 0 5.21c0.02,0.68 -0.28,1.01 -0.91,0.98l-2.1 0zm3.38 -4.97c0.63,-0.56 0.98,-1.35 1.05,-2.36l0.5 0c-0.02,0.36 -0.09,0.67 -0.2,0.94l2.5 0 0 5.55c0.03,0.76 -0.31,1.12 -1.01,1.08l-0.91 0 0 -0.38 0.77 0c0.43,0.03 0.63,-0.16 0.61,-0.57l0 -5.3 -2.1 0c-0.18,0.51 -0.58,0.99 -1.21,1.42l0 -0.38zm-0.84 4.09l0 -2.2 -2.07 0 0 2.71 1.52 0c0.39,0.02 0.57,-0.15 0.55,-0.51zm-2.07 -4.97l0 2.43 2.07 0 0 -2.43 -2.07 0zm4.29 3.75c-0.08,-0.72 -0.29,-1.49 -0.6,-2.33l0.4 0c0.36,0.86 0.6,1.64 0.71,2.33l-0.51 0z"/>
  <path id="6" class="fil0" d="M59.11 56.49l0 -1.59 -2.03 0 0 3.52c0,0.38 0.22,0.57 0.64,0.57l1.5 0c0.4,0 0.6,-0.19 0.57,-0.58l0 -0.3 0.41 0 0 0.37c0.04,0.59 -0.31,0.87 -1.05,0.85l-1.53 0c-0.7,0.02 -1.04,-0.28 -1.01,-0.91l0 -3.89 3.01 0 0 1.86c0.02,0.65 -0.3,0.97 -0.95,0.95l-0.47 0 0 -0.38 0.47 0c0.29,0 0.44,-0.15 0.44,-0.47zm4.09 -4.63l0 6.59c0.02,0.72 -0.29,1.07 -0.94,1.05l-0.72 0 0 -0.37 0.58 0c0.41,0.02 0.6,-0.16 0.57,-0.54l0 -6.73 0.51 0zm-7.44 2.57c0.97,-0.64 1.65,-1.5 2.04,-2.61l0.57 0c0.38,1.04 1.06,1.89 2.03,2.54l0 0.34c-1.15,-0.59 -1.92,-1.31 -2.3,-2.17 -0.45,0.88 -1.23,1.63 -2.34,2.23l0 -0.33zm5.21 -1.93l0.47 0 0 5.27 -0.47 0 0 -5.27z"/>
  <path id="7" class="fil0" d="M66.08 57.16l0 -2.33 5.61 0 0 1.32c0.05,0.7 -0.29,1.04 -1.01,1.01l-4.6 0zm-1.05 -3.27l2.26 0c-0.16,-0.27 -0.27,-0.6 -0.34,-0.98l0.48 0c0.04,0.32 0.15,0.64 0.33,0.98l2.3 0c0.19,-0.34 0.3,-0.66 0.34,-0.98l0.48 0c-0.07,0.38 -0.19,0.71 -0.37,0.98l2.26 0 0 0.34 -7.74 0 0 -0.34zm6.12 2.36l0 -0.13 -4.53 0 0 0.74 3.96 0c0.4,0.02 0.59,-0.18 0.57,-0.61zm-4.53 -1.11l0 0.67 4.53 0 0 -0.67 -4.53 0zm-1.09 -2.74l3.15 0 0 -0.57 0.54 0 0 0.57 3.07 0 0 0.34 -6.76 0 0 -0.34zm1.42 5.1l0.54 0 0 0.85c-0.04,0.47 0.2,0.68 0.71,0.64l1.87 0c0.52,0.02 0.76,-0.17 0.74,-0.58l0 -0.23 0.41 0 0 0.17c0.02,0.67 -0.34,1 -1.09,0.98l-2.1 0c-0.74,0.02 -1.1,-0.31 -1.08,-0.98l0 -0.85zm-1.18 0l0.41 0c-0.07,0.73 -0.24,1.3 -0.51,1.73l-0.51 0c0.29,-0.43 0.5,-1 0.61,-1.73zm6.32 0c0.28,0.52 0.48,1.1 0.61,1.73l-0.51 0c-0.04,-0.52 -0.22,-1.09 -0.54,-1.73l0.44 0zm-2.8 0c0.18,0.27 0.33,0.64 0.47,1.09l-0.51 0c-0.06,-0.36 -0.19,-0.72 -0.37,-1.09l0.41 0z"/>
  <path id="8" class="fil0" d="M74.96 52.46l6.39 0 0 0.37 -3.04 0 0 0.44c0,0.59 -0.04,1.12 -0.1,1.6l3.78 0 0 0.37 -3.82 0c-0.25,1.69 -1.5,3.15 -3.75,4.36l0 -0.37c1.94,-1.15 3,-2.48 3.18,-3.99l-3.28 0 0 -0.37 3.35 0c0.06,-0.45 0.08,-0.95 0.06,-1.49l0 -0.55 -2.77 0 0 -0.37zm3.29 3.46l0.5 0 0 2.4c-0.02,0.41 0.19,0.6 0.61,0.57l1.49 0c0.43,0.03 0.63,-0.15 0.61,-0.54l0 -0.33 0.44 0 0 0.44c0,0.56 -0.35,0.84 -1.05,0.84l-1.59 0c-0.67,0 -1.01,-0.31 -1.01,-0.95l0 -2.43z"/>
  <path id="9" class="fil0" d="M91.26 59.57c-2.16,-1.54 -3.46,-3.28 -3.89,-5.24 -0.43,1.96 -1.72,3.7 -3.89,5.24l0 -0.37c2.42,-1.92 3.62,-4.15 3.62,-6.7l0 -0.58 0.27 0 0.27 0 0 0.58c0,2.55 1.21,4.78 3.62,6.7l0 0.37z"/>
  <path id="10" class="fil0" d="M93.31 53.72l0 -0.34 2.61 0c0.11,-0.23 0.2,-0.49 0.27,-0.78l-3.04 0 0 -0.3 4.19 0c0.81,0.02 1.69,-0.06 2.64,-0.24l0 0.37c-0.7,0.11 -1.5,0.17 -2.4,0.17l-0.82 0c-0.09,0.29 -0.19,0.55 -0.3,0.78l3.45 0 0 0.34 -3.62 0c-0.14,0.29 -0.28,0.56 -0.44,0.81l4.67 0 0 0.34 -4.91 0c-0.22,0.27 -0.48,0.54 -0.77,0.81l4.7 0 0 2.81c0.02,0.65 -0.34,0.96 -1.09,0.94l-4.09 0 0 -3.38c-0.43,0.34 -0.97,0.68 -1.62,1.02l0 -0.38c1.08,-0.65 1.84,-1.26 2.27,-1.82l-2.27 0 0 -0.34 2.54 0c0.18,-0.25 0.33,-0.52 0.47,-0.81l-2.44 0zm5.72 4.77l0 -0.18 -4.13 0 0 0.82 3.45 0c0.45,0 0.68,-0.22 0.68,-0.64zm-4.13 -2.5l0 0.84 4.13 0 0 -0.84 -4.13 0zm0 1.17l0 0.82 4.13 0 0 -0.82 -4.13 0z"/>
  <path id="11" class="fil0" d="M102.03 52.67l0 -0.37 4.54 0 0 0.37 -2.37 0c-0.45,0.81 -0.94,1.47 -1.46,1.96 1.11,0 2.04,-0.03 2.81,-0.1 -0.16,-0.36 -0.35,-0.76 -0.57,-1.18l0.44 0c0.33,0.49 0.66,1.18 0.98,2.06l-0.55 0c-0.02,-0.07 -0.05,-0.17 -0.1,-0.31 -0.04,-0.11 -0.08,-0.2 -0.1,-0.27 -0.63,0.12 -1.77,0.17 -3.41,0.17l0 -0.37c0.63,-0.72 1.08,-1.37 1.35,-1.96l-1.56 0zm0.11 4.06l0 -0.34 1.82 0 0 -0.94 0.54 0 0 0.94 1.86 0 0 0.34 -1.86 0 0 1.89c0.86,-0.06 1.54,-0.17 2.03,-0.3l0 0.34c-1.35,0.29 -2.91,0.44 -4.67,0.44l0 -0.37c0.82,0 1.51,-0.03 2.1,-0.07l0 -1.93 -1.82 0zm7.23 -4.87l0 6.69c0.02,0.63 -0.28,0.94 -0.91,0.92l-0.85 0 0 -0.34 0.64 0c0.41,0 0.61,-0.17 0.61,-0.51l0 -6.76 0.51 0zm-2.23 6.02l0 -5.21 0.51 0 0 5.21 -0.51 0z"/>
  <path id="12" class="fil0" d="M20 70.22l0 -5.34c-0.31,0.29 -0.71,0.55 -1.18,0.78l0 -0.38c0.99,-0.58 1.62,-1.53 1.89,-2.84l0.58 0c-0.2,0.77 -0.46,1.38 -0.78,1.83l0 5.95 -0.51 0zm4.2 -5.82l0 4.74c0,0.68 -0.32,1 -0.95,0.98l-0.74 0 0 -0.37 0.57 0c0.41,0 0.61,-0.18 0.61,-0.54l0 -4.81 0.51 0zm-3.01 0.75l0 -0.34c0.81,-0.52 1.3,-1.27 1.46,-2.26l0.5 0c-0.06,0.27 -0.13,0.53 -0.2,0.77l3.52 0 0 1.56 -0.51 0 0 -1.18 -3.18 0c-0.25,0.58 -0.78,1.07 -1.59,1.45zm1.63 0.17c0.04,1.71 -0.5,3.02 -1.63,3.92l0 -0.41c0.77,-0.87 1.14,-2.05 1.12,-3.51l0.51 0zm2.3 0l0.47 0c0,1.51 0.38,2.68 1.15,3.51l0 0.41c-1.13,-0.9 -1.67,-2.21 -1.62,-3.92z"/>
  <path id="13" class="fil0" d="M28.43 69.78l0 -6.19 0.94 0c0.14,-0.36 0.24,-0.73 0.31,-1.12l0.47 0c-0.07,0.5 -0.16,0.87 -0.27,1.12l1.56 0 0 5.21c0.02,0.68 -0.29,1.01 -0.92,0.98l-2.09 0zm3.38 -4.97c0.63,-0.56 0.97,-1.35 1.04,-2.36l0.51 0c-0.02,0.36 -0.09,0.67 -0.2,0.94l2.5 0 0 5.55c0.02,0.76 -0.31,1.12 -1.01,1.08l-0.92 0 0 -0.38 0.78 0c0.43,0.03 0.63,-0.16 0.61,-0.57l0 -5.3 -2.1 0c-0.18,0.51 -0.58,0.99 -1.21,1.41l0 -0.37zm-0.85 4.09l0 -2.2 -2.06 0 0 2.71 1.52 0c0.39,0.02 0.57,-0.15 0.54,-0.51zm-2.06 -4.97l0 2.43 2.06 0 0 -2.43 -2.06 0zm4.29 3.75c-0.09,-0.72 -0.29,-1.49 -0.61,-2.33l0.41 0c0.36,0.86 0.6,1.64 0.71,2.33l-0.51 0z"/>
  <path id="14" class="fil0" d="M40.66 67.11l0 -1.59 -2.03 0 0 3.51c0,0.39 0.21,0.58 0.64,0.58l1.49 0c0.41,0 0.6,-0.19 0.58,-0.58l0 -0.3 0.41 0 0 0.37c0.04,0.59 -0.31,0.87 -1.05,0.85l-1.53 0c-0.7,0.02 -1.04,-0.28 -1.02,-0.92l0 -3.88 3.01 0 0 1.86c0.03,0.65 -0.29,0.97 -0.94,0.95l-0.48 0 0 -0.38 0.48 0c0.29,0 0.44,-0.15 0.44,-0.47zm4.09 -4.63l0 6.59c0.02,0.72 -0.29,1.07 -0.95,1.05l-0.71 0 0 -0.37 0.58 0c0.4,0.02 0.59,-0.16 0.57,-0.54l0 -6.73 0.51 0zm-7.44 2.57c0.97,-0.64 1.65,-1.5 2.03,-2.61l0.58 0c0.38,1.04 1.06,1.89 2.03,2.54l0 0.34c-1.15,-0.59 -1.92,-1.31 -2.3,-2.17 -0.46,0.88 -1.23,1.63 -2.34,2.23l0 -0.33zm5.21 -1.93l0.47 0 0 5.27 -0.47 0 0 -5.27z"/>
  <path id="15" class="fil0" d="M47.62 67.78l0 -2.33 5.62 0 0 1.32c0.04,0.7 -0.29,1.04 -1.02,1.01l-4.6 0zm-1.05 -3.27l2.27 0c-0.16,-0.27 -0.27,-0.6 -0.34,-0.98l0.47 0c0.05,0.31 0.16,0.64 0.34,0.98l2.3 0c0.18,-0.34 0.29,-0.67 0.34,-0.98l0.47 0c-0.06,0.38 -0.19,0.71 -0.37,0.98l2.27 0 0 0.34 -7.75 0 0 -0.34zm6.13 2.36l0 -0.14 -4.53 0 0 0.75 3.95 0c0.41,0.02 0.6,-0.18 0.58,-0.61zm-4.53 -1.11l0 0.67 4.53 0 0 -0.67 -4.53 0zm-1.09 -2.74l3.14 0 0 -0.58 0.54 0 0 0.58 3.08 0 0 0.34 -6.76 0 0 -0.34zm1.42 5.1l0.54 0 0 0.85c-0.05,0.47 0.19,0.68 0.71,0.64l1.86 0c0.52,0.02 0.77,-0.17 0.75,-0.58l0 -0.23 0.4 0 0 0.17c0.03,0.67 -0.33,1 -1.08,0.98l-2.1 0c-0.74,0.02 -1.1,-0.31 -1.08,-0.98l0 -0.85zm-1.18 0l0.4 0c-0.06,0.73 -0.23,1.3 -0.51,1.73l-0.5 0c0.29,-0.43 0.49,-1 0.61,-1.73zm6.32 0c0.27,0.52 0.47,1.1 0.61,1.73l-0.51 0c-0.04,-0.52 -0.22,-1.09 -0.54,-1.73l0.44 0zm-2.81 0c0.18,0.27 0.34,0.64 0.48,1.09l-0.51 0c-0.07,-0.36 -0.19,-0.72 -0.37,-1.09l0.4 0z"/>
  <path id="16" class="fil0" d="M56.68 68.47l0 -3.73 3.45 0 0 2.68c0.02,0.72 -0.33,1.07 -1.05,1.05l-2.4 0zm2.91 -0.98l0 -2.41 -2.41 0 0 3.01 1.83 0c0.41,0.03 0.6,-0.18 0.58,-0.6zm-3.86 -4.41l7.92 0 0 0.37 -1.32 0 0 5.72c0,0.61 -0.35,0.92 -1.05,0.92l-0.64 0 0 -0.41 0.5 0c0.45,0.02 0.67,-0.17 0.65,-0.58l0 -5.65 -6.06 0 0 -0.37z"/>
  <path id="17" class="fil0" d="M71.35 62.65c-0.02,1.82 -0.18,3.2 -0.47,4.12 0.4,1.13 1.08,2.13 2.03,3.01l0 0.44c-1.09,-0.81 -1.85,-1.72 -2.3,-2.74 -0.41,0.97 -1.23,1.87 -2.47,2.71l0 -0.41c1.87,-1.31 2.77,-3.68 2.7,-7.13l0.51 0zm-5.24 6.32c0.67,-0.23 1.36,-0.6 2.06,-1.12l0 0.41c-0.72,0.61 -1.59,1.08 -2.6,1.42l0 -6.97 0.54 0 0 6.26zm2.16 -6.09c0.3,0.66 0.52,1.35 0.68,2.1l-0.51 0c-0.09,-0.65 -0.28,-1.35 -0.57,-2.1l0.4 0z"/>
  <path id="18" class="fil0" d="M77.16 62.44l0.57 0c-0.09,0.32 -0.19,0.61 -0.3,0.88l4.6 0 0 0.38 -4.77 0c-0.25,0.6 -0.65,1.2 -1.22,1.79l0 4.66 -0.54 0 0 -4.19c-0.34,0.27 -0.74,0.54 -1.21,0.81l0 -0.4c1.12,-0.72 1.92,-1.62 2.4,-2.67l-2.13 0 0 -0.38 2.3 0c0.11,-0.27 0.21,-0.56 0.3,-0.88zm1.8 2l0.5 0 0 1.76 2.1 0 0 0.41 -2.1 0 0 2.63 2.57 0 0 0.3 -5.61 0 0 -0.3 2.54 0 0 -2.63 -2.13 0 0 -0.41 2.13 0 0 -1.76z"/>
  <path id="19" class="fil0" d="M85.41 62.95c0.54,0 1.06,-0.08 1.55,-0.24l0 0.41c-0.4,0.11 -0.85,0.17 -1.35,0.17l-0.98 0 0 1.45 2.06 0 0 1.66c0.02,0.72 -0.28,1.05 -0.91,1.01l-1.15 0 0 0.14c0.07,1.12 -0.3,1.99 -1.12,2.6l0 -0.41c0.43,-0.51 0.64,-1.14 0.61,-1.86l0 -4.93 1.29 0zm4.16 0.04c0.63,0.02 1.16,-0.05 1.58,-0.21l0 0.37c-0.47,0.14 -0.93,0.21 -1.38,0.21l-1.66 0 0 1.65 3.21 0 0 0.34 -1.15 0 0 4.84 -0.51 0 0 -4.84 -1.55 0 0 2.2c0.07,1.13 -0.35,2.02 -1.25,2.67l0 -0.41c0.52,-0.56 0.77,-1.21 0.74,-1.96l0 -4.86 1.97 0zm-3.39 2.09l-1.55 0 0 1.99 1.05 0c0.36,0.02 0.53,-0.15 0.5,-0.54l0 -1.45z"/>
  <path id="20" class="fil0" d="M99.43 65.01l0 4.06c0.02,0.68 -0.3,1 -0.98,0.98l-0.54 0 0 -0.34 0.44 0c0.41,0.02 0.6,-0.15 0.57,-0.54l0 -0.84 -4.08 0 0 1.86 -0.55 0 0 -4.26c-0.52,0.49 -1.03,0.9 -1.55,1.21l0 -0.37c1.19,-0.92 2.05,-1.92 2.57,-3l-2.37 0 0 -0.38 2.57 0c0.16,-0.31 0.3,-0.64 0.44,-0.98l0.58 0c-0.14,0.34 -0.29,0.67 -0.45,0.98l4.3 0 0 0.38 -4.46 0c-0.32,0.56 -0.59,0.97 -0.81,1.24l4.32 0zm-4.59 1.83l0 1.15 4.08 0 0 -1.15 -4.08 0zm0 -1.46l0 1.12 4.08 0 0 -1.12 -4.08 0z"/>
  <path id="21" class="fil0" d="M108.46 64.64l-5.18 0 0 2.84c0.07,1.24 -0.38,2.15 -1.35,2.74l0 -0.37c0.58,-0.57 0.86,-1.34 0.81,-2.34l0 -4.63 6.63 0 0 0.95c0.02,0.56 -0.28,0.83 -0.91,0.81zm-4.94 3.35l0 -0.34 1.52 0 0 -1.45 -1.21 0 0 -0.34 1.28 0c-0.09,-0.14 -0.18,-0.39 -0.27,-0.78 0,0.02 -0.01,0 -0.03,-0.07l0.5 0c0.05,0.3 0.14,0.58 0.27,0.85l1.83 0c0.14,-0.27 0.22,-0.55 0.27,-0.85l0.51 0c-0.09,0.37 -0.19,0.65 -0.31,0.85l1.42 0 0 0.34 -1.28 0 0 1.45 1.76 0 0 0.34 -1.76 0 0 2.23 -0.54 0 0 -2.23 -1.93 0c0.02,1.04 -0.46,1.79 -1.45,2.27l0 -0.34c0.67,-0.45 0.99,-1.1 0.94,-1.93l-1.52 0zm-0.24 -4.77l0 1.08 5.07 0c0.34,0 0.51,-0.17 0.51,-0.51l0 -0.57 -5.58 0zm2.31 2.98l0 1.45 1.89 0 0 -1.45 -1.89 0z"/>
  <path id="22" class="fil0" d="M116.88 69.51c0.2,0.03 0.3,-0.08 0.3,-0.3l0 -0.81 -1.86 0 0 1.86 -0.54 0 0 -1.86 -1.86 0 0 1.45 -0.51 0 0 -1.69c-0.38,0.14 -0.81,0.27 -1.28,0.41l0 -0.31c1.12,-0.38 1.96,-0.81 2.5,-1.28l-2.27 0 0 -0.31 2.64 0c0.04,-0.04 0.1,-0.11 0.17,-0.2 0.15,-0.18 0.27,-0.32 0.33,-0.41l-2.26 0 0 -2.13 5.65 0 0 1.32c0.02,0.56 -0.29,0.83 -0.91,0.81l-1.86 0c-0.05,0.05 -0.1,0.11 -0.17,0.2 -0.14,0.19 -0.25,0.32 -0.34,0.41l4.15 0 0 0.31 -2.39 0c0.56,0.49 1.43,0.92 2.6,1.28l0 0.31c-0.48,-0.12 -0.89,-0.24 -1.25,-0.37l0 0.98c0.02,0.47 -0.26,0.7 -0.84,0.67l-0.31 0 0 -0.34 0.31 0zm-3.46 -5.78l0 -0.48 -2.16 0 0 -0.33 2.16 0 0 -0.54 0.54 0 0 0.54 2.21 0 0 -0.54 0.5 0 0 0.54 2.2 0 0 0.33 -2.2 0 0 0.48 -0.5 0 0 -0.48 -2.21 0 0 0.48 -0.54 0zm1.9 3.69l0 0.67 2.13 0c-0.65,-0.24 -1.21,-0.62 -1.69,-1.11l-1.45 0c-0.43,0.43 -1.02,0.8 -1.76,1.11l2.23 0 0 -0.67 0.54 0zm2.02 -2.17l0 -0.1 -4.59 0 0 0.57 4.15 0c0.32,0.02 0.47,-0.13 0.44,-0.47zm-4.59 -0.98l0 0.54 4.59 0 0 -0.54 -4.59 0z"/>
  <path id="23" class="fil0" d="M122.07 65.83l0 -0.34 1.36 0 0 -0.68 0.5 0 0 0.68 1.7 0 0 -0.68 0.54 0 0 0.68 1.52 0 0 0.34 -1.52 0 0 1.15 1.89 0 0 0.33 -4.84 0 0 2.24c0.43,-0.05 0.98,-0.16 1.66,-0.34l0 0.27c-0.52,0.25 -1.25,0.48 -2.2,0.71l0 -2.88 -1.01 0 0 0.17c0.06,1.2 -0.39,2.1 -1.36,2.71l0 -0.37c0.61,-0.54 0.89,-1.31 0.85,-2.3l0 -4.71 6.5 0 0 0.85c0.02,0.57 -0.28,0.84 -0.92,0.81l-5.07 0 0 2.51 1.76 0 0 -1.15 -1.36 0zm-0.4 -2.68l0 0.99 4.97 0c0.36,0.02 0.53,-0.14 0.51,-0.48l0 -0.51 -5.48 0zm6.39 6.53l0 0.3c-1.94,-0.29 -3.23,-1.1 -3.89,-2.43l0.54 0c0.32,0.54 0.7,0.98 1.15,1.32 0.61,-0.36 1,-0.8 1.15,-1.32l0.54 0c-0.27,0.72 -0.73,1.23 -1.38,1.52 0.4,0.23 1.03,0.43 1.89,0.61zm-4.13 -3.85l0 1.15 1.7 0 0 -1.15 -1.7 0z"/>
  <path id="24" class="fil0" d="M129.55 65.56l0 -0.38 7.91 0 0 0.38 -3.59 0 0 3.61c0.03,0.63 -0.3,0.95 -0.98,0.95l-0.91 0 0 -0.41 0.74 0c0.41,0.03 0.6,-0.13 0.58,-0.47l0 -3.68 -3.75 0zm0.91 -2.2l0 -0.41 6.08 0 0 0.41 -6.08 0zm1.45 3.14c-0.31,1.33 -1.09,2.29 -2.33,2.88l0 -0.34c0.99,-0.7 1.58,-1.55 1.76,-2.54l0.57 0zm3.18 0l0.57 0c0.19,0.99 0.77,1.84 1.76,2.54l0 0.34c-1.24,-0.59 -2.01,-1.55 -2.33,-2.88z"/>
  <path id="25" class="fil0" d="M139.18 67.99l0 -4.6 3 0 0 -0.98 0.51 0 0 0.98 3.01 0 0 3.48c0.03,0.77 -0.35,1.14 -1.11,1.12l-1.9 0 0 0.85c-0.02,0.51 0.24,0.76 0.78,0.74l1.86 0c0.56,0 0.83,-0.2 0.81,-0.61l0 -0.3 0.41 0 0 0.44c0.02,0.58 -0.34,0.86 -1.09,0.84l-2.13 0c-0.79,0.02 -1.17,-0.35 -1.15,-1.11l0 -0.85 -3 0zm0.51 -2.16l0 1.82 2.49 0 0 -1.82 -2.49 0zm4.83 1.82c0.47,0 0.7,-0.22 0.68,-0.67l0 -1.15 -2.51 0 0 1.82 1.83 0zm0.68 -3.92l-2.51 0 0 1.76 2.51 0 0 -1.76zm-5.51 0l0 1.76 2.49 0 0 -1.76 -2.49 0z"/>
  <path id="26" class="fil0" d="M149.69 69.78c0.27,0 0.4,-0.13 0.4,-0.4l0 -2.03 -1.11 0c0.06,1.35 -0.28,2.31 -1.02,2.87l0 -0.43c0.38,-0.41 0.56,-1.18 0.54,-2.3l0 -4.54 2.07 0 0 6.43c0.02,0.49 -0.28,0.73 -0.92,0.71l-0.3 0 0 -0.31 0.34 0zm1.68 0.2l0 -5.11 0.48 0 0 4.74 2.57 0c0.47,0.02 0.7,-0.18 0.68,-0.61l0 -4.13 0.47 0 0 4.16c0.02,0.66 -0.33,0.97 -1.05,0.95l-3.15 0zm1.23 -5.68c0.22,0.97 0.52,1.81 0.88,2.51 0.31,-0.59 0.6,-1.43 0.87,-2.51l0.48 0c-0.29,1.24 -0.67,2.22 -1.12,2.94 0.3,0.46 0.68,0.95 1.15,1.49l0 0.44c-0.63,-0.63 -1.09,-1.16 -1.38,-1.59 -0.3,0.43 -0.76,0.96 -1.39,1.59l0 -0.44c0.47,-0.54 0.86,-1.03 1.15,-1.49 -0.5,-0.81 -0.87,-1.79 -1.12,-2.94l0.48 0zm3.31 -0.94l0 0.34 -4.8 0 0 -0.34 2.13 0 0 -0.92 0.54 0 0 0.92 2.13 0zm-6.94 1.92l0 1.73 1.12 0 0 -1.73 -1.12 0zm1.12 -1.99l-1.12 0 0 1.65 1.12 0 0 -1.65z"/>
  <path id="27" class="fil0" d="M157.66 67.79l0 -0.44c0.88,0.58 1.69,1.26 2.44,2.03l0 0.57c-0.88,-0.9 -1.69,-1.62 -2.44,-2.16z"/>
  <path id="28" class="fil0" d="M166.93 63.19l0 -0.38 7.03 0 0 0.38 -3.28 0 0 3.68 3.62 0 0 0.38 -3.62 0 0 3.01 -0.54 0 0 -3.01 -3.62 0 0 -0.38 3.62 0 0 -3.68 -3.21 0zm6.39 0.84c-0.21,0.84 -0.44,1.5 -0.72,2l-0.5 0c0.31,-0.66 0.52,-1.32 0.61,-2l0.61 0zm-5.82 0l0.61 0c0.09,0.68 0.29,1.34 0.61,2l-0.51 0c-0.27,-0.5 -0.51,-1.16 -0.71,-2z"/>
  <path id="29" class="fil0" d="M179.26 70.15l0 -0.34c0.84,-0.45 1.46,-0.88 1.86,-1.28 -0.54,-0.64 -0.99,-1.53 -1.35,-2.68l0.51 0c0.33,1.02 0.73,1.8 1.18,2.34 0.59,-0.7 1,-1.68 1.25,-2.94l-3.35 0 0 1.82c0.07,1.47 -0.37,2.52 -1.32,3.15l0 -0.41c0.59,-0.61 0.86,-1.45 0.82,-2.54l0 -4.28 2.87 0c0.54,0 1.13,-0.08 1.76,-0.24l0 0.4c-0.68,0.14 -1.24,0.21 -1.69,0.21l-2.44 0 0 1.51 3.89 0 0 0.38c-0.31,1.48 -0.82,2.59 -1.52,3.31 0.34,0.36 0.95,0.78 1.83,1.25l0 0.34c-0.95,-0.43 -1.66,-0.86 -2.13,-1.29 -0.39,0.37 -1.11,0.79 -2.17,1.29zm-3.69 -2.37c0.59,-1.17 1.02,-2.38 1.29,-3.62l-1.15 0 0 -0.33 1.18 0 0 -1.39 0.51 0 0 1.39 1.05 0 0 0.33 -1.05 0c0.31,1.2 0.67,2.09 1.08,2.68l0 0.54c-0.45,-0.63 -0.81,-1.28 -1.08,-1.93l0 4.73 -0.51 0 0 -4.56c-0.25,0.79 -0.69,1.71 -1.32,2.77l0 -0.61z"/>
  <path id="30" class="fil0" d="M185.04 64.1l0 -0.37 4.4 0c-0.02,-0.41 -0.04,-0.85 -0.04,-1.32l0.51 0c0,0.16 0.01,0.4 0.03,0.71 0,0.27 0,0.47 0,0.61l1.49 0 0 -1.15 0.51 0 0 1.15 0.85 0 0 0.37 -2.81 0c0.02,1.35 0.16,2.57 0.4,3.65l0.04 0.11c0.58,-0.79 1.04,-1.75 1.35,-2.88l0.51 0c-0.41,1.47 -0.98,2.61 -1.73,3.42 0.34,0.92 0.76,1.38 1.25,1.38 0.37,0 0.55,-0.27 0.55,-0.81l0.44 0c0,0.81 -0.33,1.21 -0.99,1.19 -0.69,0 -1.23,-0.47 -1.62,-1.39 -0.34,0.36 -0.95,0.8 -1.83,1.32l0 -0.37c0.68,-0.45 1.25,-0.92 1.7,-1.39 -0.07,-0.23 -0.13,-0.44 -0.17,-0.64 -0.25,-1.08 -0.4,-2.28 -0.44,-3.59l-4.4 0zm0.54 3.72l0 -2.64 2.81 0 0 1.79c0.02,0.57 -0.28,0.85 -0.91,0.85l-1.9 0zm2.3 -0.85l0 -1.45 -1.76 0 0 1.92 1.29 0c0.32,0 0.47,-0.15 0.47,-0.47zm0.98 1.93c-1.15,0.36 -2.46,0.53 -3.92,0.51l0 -0.41c1.44,0.03 2.75,-0.12 3.92,-0.44l0 0.34z"/>
  <path id="31" class="fil0" d="M194.16 67.41l0 -0.37 3.66 0 0 -1.62 -3.08 0 0 -0.41 3.08 0 0 -1.56 -3.15 0 0 -0.4 4.16 0c0.95,0.02 1.83,-0.08 2.64,-0.31l0 0.44c-0.72,0.18 -1.52,0.27 -2.4,0.27l-0.68 0 0 1.56 3.01 0 0 0.41 -3.01 0 0 1.62 3.65 0 0 0.37 -3.65 0 0 1.76c0,0.61 -0.32,0.92 -0.95,0.92l-0.94 0 0 -0.38 0.78 0c0.38,0 0.56,-0.15 0.54,-0.47l0 -1.83 -3.66 0z"/>
  <path id="32" class="fil0" d="M205.83 69.78c0.83,-0.72 1.21,-1.92 1.15,-3.62l0 -3.17 2.8 0 0 6.12c-0.02,0.33 0.16,0.49 0.54,0.47 0.36,0.02 0.53,-0.12 0.51,-0.44l0 -0.24 0.4 0 0 0.28c0.03,0.51 -0.24,0.76 -0.81,0.74l-0.27 0c-0.61,0.02 -0.9,-0.27 -0.88,-0.88l0 -5.72 -1.79 0 0 2.78c0.09,1.96 -0.46,3.32 -1.65,4.09l0 -0.41zm-2.34 -5.62l0 -0.33 1.15 0 0 -1.39 0.51 0 0 1.39 1.11 0 0 0.33 -1.08 0c0.29,1.11 0.69,2.01 1.18,2.71l0 0.51c-0.51,-0.61 -0.92,-1.28 -1.21,-2l0 4.8 -0.51 0 0 -4.53c-0.27,0.95 -0.71,1.91 -1.32,2.88l0 -0.61c0.59,-1.2 1.01,-2.45 1.29,-3.76l-1.12 0z"/>
  <path id="33" class="fil0" d="M3.38 67.59l0 -4.87 4.43 0 0 4.87 -0.98 0 0 -4.2 -2.5 0 0 4.2 -0.95 0zm-2.91 -4l0 -0.67 2.64 0 0 0.67 -0.78 0 0 2 0.71 0 0 0.68 -0.71 0 0 2.16c0.05,0 0.11,-0.01 0.2,-0.03 0.14,-0.05 0.38,-0.11 0.71,-0.2l0 0.67c-0.74,0.32 -1.69,0.53 -2.84,0.64l0 -0.77c0.32,-0.05 0.62,-0.08 0.91,-0.1l0 -2.37 -0.81 0 0 -0.68 0.81 0 0 -2 -0.84 0zm2.57 6.6l0 -0.68c1.47,-0.81 2.15,-2.02 2.03,-3.62l0 -1.82 0.98 0 0 1.86c0.03,0.36 0,0.68 -0.06,0.98l0.4 0 0 2.03c-0.02,0.29 0.16,0.44 0.54,0.44 0.36,0 0.53,-0.15 0.51,-0.44l0 -0.24 0.71 0 0 0.37c0,0.65 -0.36,0.98 -1.08,0.98l-0.58 0c-0.72,0.02 -1.07,-0.34 -1.05,-1.08l0 -0.54c-0.38,0.58 -1.18,1.17 -2.4,1.76z"/>
  <path id="34" class="fil0" d="M9.9 63.86l0 -0.71 2.07 0c0.02,-0.04 0.04,-0.12 0.06,-0.24 0.07,-0.18 0.12,-0.34 0.14,-0.47l1.15 0c-0.05,0.23 -0.1,0.46 -0.17,0.71l4.33 0 0 0.71 -4.6 0c-0.22,0.52 -0.59,1.05 -1.08,1.59l0 4.74 -1.08 0 0 -3.96c-0.3,0.16 -0.63,0.32 -1.02,0.5l0 -0.71c0.95,-0.58 1.61,-1.3 2,-2.16l-1.8 0zm2.47 2.91l0 -0.75 1.83 0 0 -1.52 1.08 0 0 1.52 1.79 0 0 0.75 -1.79 0 0 2.3 2.16 0 0 0.68 -5.38 0 0 -0.68 2.14 0 0 -2.3 -1.83 0z"/>
  <polygon id="35" class="fil0" points="0,87.64 0,86.93 8.69,86.93 8.69,87.64 "/>
  <polygon id="36" class="fil0" points="9.23,87.64 9.23,86.93 17.92,86.93 17.92,87.64 "/>
  <path id="37" class="fil0" d="M19.5 84.56l0 -0.74 6.6 0 0 0.74 -2.84 0 0 0.2c0,0.54 -0.02,1.03 -0.07,1.45l3.45 0 0 0.75 -3.59 0c-0.02,0.2 -0.06,0.38 -0.13,0.54l0.81 0 0 2.2c-0.03,0.38 0.15,0.56 0.54,0.54l0.88 0c0.36,0.02 0.53,-0.16 0.51,-0.54l0 -0.34 0.84 0 0 0.51c0.03,0.7 -0.36,1.03 -1.15,1.01l-1.49 0c-0.81,0.02 -1.2,-0.34 -1.18,-1.08l0 -1.69c-0.5,1.15 -1.69,2.16 -3.58,3.04l0 -0.74c1.67,-0.97 2.61,-2.12 2.84,-3.45l-2.98 0 0 -0.75 3.08 0c0.05,-0.4 0.07,-0.83 0.07,-1.28l0 -0.37 -2.61 0z"/>
  <path id="38" class="fil0" d="M30.11 91.09l0 -0.61c0.43,-0.16 0.63,-0.52 0.61,-1.09l0 -2.84 -0.41 0 0 -0.67 1.29 0 0 3.24c0.02,0.75 0.43,1.13 1.22,1.15l3.07 0 0 0.65 -3.14 0c-0.72,0 -1.21,-0.21 -1.45,-0.61 -0.21,0.36 -0.6,0.62 -1.19,0.78zm1.93 -3.82l0 -0.54 1.35 0 0 -0.44 0.95 0 0 0.44 1.39 0 0 0.54 -1.39 0 0 0.5 1.22 0 0 0.55 -1.22 0 0 0.54 1.52 0 0 0.54 -1.52 0 0 0.64 -0.95 0 0 -0.64 -1.45 0 0 -0.54 1.45 0 0 -0.54 -1.22 0 0 -0.55 1.22 0 0 -0.5 -1.35 0zm3.89 -0.89c-0.88,-0.06 -1.58,-0.22 -2.09,-0.47 -0.48,0.23 -1.13,0.38 -1.97,0.47l0 -0.54c0.48,-0.09 0.91,-0.2 1.29,-0.34 -0.25,-0.18 -0.47,-0.38 -0.68,-0.6 -0.18,0.06 -0.37,0.12 -0.57,0.16l0 -0.5c0.54,-0.23 0.92,-0.64 1.15,-1.25l0.84 0c-0.04,0.15 -0.1,0.3 -0.17,0.44l1.93 0 0 0.6c-0.34,0.52 -0.71,0.92 -1.11,1.19 0.36,0.13 0.82,0.24 1.38,0.3l0 0.54zm-7.71 2.44l0 -0.74c0.02,-0.03 0.06,-0.07 0.1,-0.14 0.43,-0.56 0.71,-1.01 0.85,-1.35 -0.3,0.02 -0.64,0.03 -1.05,0.03l0 -0.74c0.41,-0.63 0.71,-1.47 0.91,-2.5l0.92 0c-0.3,0.99 -0.67,1.82 -1.12,2.5 0.22,0 0.44,-0.01 0.64,-0.03 0.09,-0.25 0.17,-0.53 0.24,-0.85l0.84 0c-0.31,1.26 -0.82,2.29 -1.52,3.08 0.41,0 0.84,-0.06 1.29,-0.17l0 0.71c-0.54,0.13 -1.24,0.2 -2.1,0.2zm-0.14 1.56l0 -0.71c0.93,0.02 1.7,-0.07 2.31,-0.27l0 0.67c-0.73,0.23 -1.49,0.33 -2.31,0.31zm2.85 -5.14c-0.12,-0.59 -0.28,-1.15 -0.51,-1.69l0.78 0c0.29,0.6 0.47,1.17 0.54,1.69l-0.81 0zm3.75 -0.85l-1.39 0c-0.02,0.02 -0.06,0.06 -0.13,0.1 -0.11,0.11 -0.2,0.18 -0.27,0.2l0.34 0c0.24,0.25 0.45,0.42 0.61,0.51 0.33,-0.2 0.61,-0.47 0.84,-0.81z"/>
  <path id="39" class="fil0" d="M37.38 84.66l0 -0.71 1.66 0c-0.07,-0.15 -0.13,-0.37 -0.17,-0.64l1.12 0c0.02,0.25 0.06,0.46 0.13,0.64l1.86 0c0.09,-0.15 0.14,-0.37 0.17,-0.64l1.11 0c-0.02,0.27 -0.09,0.49 -0.2,0.64l2.03 0 0 0.71 -2.61 0 0 0.57 1.9 0 0 1.36 0.78 0 0 0.71 -0.78 0 0 0.33c0.05,0.75 -0.3,1.11 -1.05,1.09l-0.51 0c0.39,0.63 1.1,1.15 2.14,1.55l0 0.61c-1.25,-0.38 -2.07,-0.8 -2.48,-1.25l0 1.52 -0.98 0 0 -2.43 -0.94 0 0 2.43 -0.98 0 0 -1.49c-0.43,0.48 -1.18,0.88 -2.27,1.22l0 -0.61c0.91,-0.4 1.56,-0.92 1.97,-1.55l-1.49 0 0 -0.65 1.79 0 0 -0.77 -2.27 0 0 -0.71 2.27 0 0 -0.71 -1.69 0 0 -0.65 1.69 0 0 -0.57 -2.2 0zm3.18 2.64l0 0.77 0.94 0 0 -0.77 -0.94 0zm2.43 0.77c0.34,0 0.5,-0.15 0.48,-0.47l0 -0.3 -0.99 0 0 0.77 0.51 0zm0.48 -2.19l-0.99 0 0 0.71 0.99 0 0 -0.71zm-2.91 0l0 0.71 0.94 0 0 -0.71 -0.94 0zm0 -1.22l0 0.57 0.94 0 0 -0.57 -0.94 0z"/>
  <path id="40" class="fil0" d="M54.38 88.79c-0.47,-0.09 -0.88,-0.21 -1.22,-0.34l0 1.42c0.03,0.72 -0.33,1.07 -1.08,1.05l-4.32 0 0 -2.47c-0.36,0.13 -0.77,0.25 -1.22,0.34l0 -0.65c1.6,-0.52 2.7,-1.25 3.28,-2.2l1.25 0c0.63,0.97 1.73,1.71 3.31,2.2l0 0.65zm-7.61 -3.65l0 -1.25 3.08 0 0 -0.55 1.25 0 0 0.55 3.05 0 0 1.25 -1.08 0 0 -0.58 -5.25 0 0 0.58 -1.05 0zm2.04 5.13l2.9 0c0.29,0.03 0.43,-0.11 0.41,-0.4l0 -0.98 -3.31 0 0 1.38zm-2.07 -3.44l0 -0.61c0.97,-0.23 1.66,-0.66 2.07,-1.29l1.14 0c-0.58,1.06 -1.65,1.69 -3.21,1.9zm7.44 0c-1.55,-0.21 -2.62,-0.84 -3.21,-1.9l1.12 0c0.4,0.63 1.1,1.06 2.09,1.29l0 0.61zm-3.72 0c-0.61,0.58 -1.28,1.03 -2.03,1.35l4.06 0c-0.77,-0.32 -1.44,-0.77 -2.03,-1.35z"/>
  <path class="fil1" d="M4.87 0.99c-2.46,0.21 -3.79,1.69 -3.97,4.42 0.15,2.71 1.45,4.15 3.88,4.33 2.53,-0.12 3.83,-1.56 3.92,-4.33 -0.12,-2.73 -1.39,-4.21 -3.83,-4.42zm-0.09 9.25c-2.95,-0.15 -4.49,-1.75 -4.64,-4.78 0.15,-3.16 1.74,-4.81 4.78,-4.96 2.85,0.21 4.39,1.85 4.59,4.91 -0.11,3.1 -1.69,4.71 -4.73,4.83z"/>
  <path id="1" class="fil1" d="M16.99 10.1l-0.72 0 0 -4.73c-0.03,-1.09 -0.65,-1.63 -1.85,-1.63l-2.3 0 0 6.36 -0.72 0 0 -6.85 3.29 0c1.54,0 2.3,0.7 2.3,2.12l0 4.73z"/>
  <path id="2" class="fil1" d="M25.33 6.94l-5.64 0c0.09,1.81 1.02,2.74 2.8,2.8 1.23,0 2.14,-0.5 2.75,-1.49l0 0.72c-0.57,0.85 -1.55,1.27 -2.93,1.27 -2.23,-0.09 -3.37,-1.24 -3.43,-3.43 0.06,-2.32 1.16,-3.52 3.29,-3.61 2.11,0.03 3.16,1.28 3.16,3.74zm-5.64 -0.49l4.87 0c-0.06,-1.77 -0.86,-2.69 -2.39,-2.75 -1.44,0.09 -2.27,1 -2.48,2.75z"/>
  <path id="3" class="fil1" d="M31.06 10.1l-0.77 0 0 -6.72 0.77 0 0 6.72zm0 -8.61l-0.77 0 0 -0.86 0.77 0 0 0.86z"/>
  <path id="4" class="fil1" d="M38.13 3.7l-1.63 0c-1.86,0.06 -2.81,1.07 -2.84,3.02 0,2.01 0.95,3.01 2.84,2.97l1.63 0 0 -5.99zm0.72 6.49l-2.57 0c-2.26,-0.03 -3.4,-1.19 -3.43,-3.47 0.03,-2.29 1.16,-3.46 3.38,-3.52l1.9 0 0 -3.2 0.72 0 0 10.19z"/>
  <path id="5" class="fil1" d="M47.27 6.94l-5.64 0c0.09,1.81 1.03,2.74 2.8,2.8 1.23,0 2.15,-0.5 2.75,-1.49l0 0.72c-0.57,0.85 -1.55,1.27 -2.93,1.27 -2.23,-0.09 -3.37,-1.24 -3.43,-3.43 0.06,-2.32 1.16,-3.52 3.29,-3.61 2.11,0.03 3.16,1.28 3.16,3.74zm-5.64 -0.49l4.87 0c-0.06,-1.77 -0.85,-2.69 -2.39,-2.75 -1.44,0.09 -2.26,1 -2.48,2.75z"/>
  <path id="6" class="fil1" d="M54.3 6.36l-2.08 0c-1.62,0 -2.43,0.58 -2.43,1.76 0,1.08 0.73,1.62 2.21,1.62l2.3 0 0 -3.38zm-2.03 -0.5l2.03 0c-0.03,-1.47 -0.72,-2.19 -2.08,-2.16 -1.23,-0.03 -2.03,0.49 -2.39,1.58l-0.72 0c0.36,-1.42 1.41,-2.11 3.16,-2.08 1.83,0 2.75,0.8 2.75,2.39l0 4.65 -3.11 0c-1.9,-0.03 -2.87,-0.71 -2.93,-2.03 0.03,-1.57 1.12,-2.35 3.29,-2.35z"/>
  <polygon id="7" class="fil1" points="57.85,8.48 57.85,9.51 56.77,9.51 56.77,8.48 "/>
  <path id="8" class="fil1" d="M62.86 10.06l-0.81 0 4.15 -9.43 0.81 0 4.19 9.43 -0.81 0 -1.35 -3.07 -4.83 0 -1.35 3.07zm3.79 -8.71l-2.21 5.14 4.37 0 -2.16 -5.14z"/>
  <path id="9" class="fil1" d="M78.32 10.1l-0.73 0 0 -4.73c-0.03,-1.09 -0.64,-1.63 -1.84,-1.63l-2.3 0 0 6.36 -0.73 0 0 -6.85 3.3 0c1.53,0 2.3,0.7 2.3,2.12l0 4.73z"/>
  <path id="10" class="fil1" d="M85.43 3.38l0.81 0 -2.93 6.9c-0.75,1.89 -1.54,2.77 -2.39,2.62 -0.45,0 -0.79,-0.11 -1.03,-0.32l0 -0.45c0.33,0.18 0.64,0.27 0.94,0.27 0.54,0.06 1.09,-0.56 1.63,-1.85l0.27 -0.63 -2.89 -6.54 0.81 0 2.44 5.82 2.34 -5.82z"/>
  <path id="11" class="fil1" d="M90.53 8.97l0 -0.58c0.81,0.9 1.79,1.35 2.93,1.35 1.35,0 2.03,-0.45 2.03,-1.35 0.03,-0.72 -0.63,-1.19 -1.98,-1.4 -1.93,-0.24 -2.83,-0.87 -2.71,-1.89 0.09,-1.21 0.92,-1.84 2.48,-1.9 1.53,0 2.45,0.65 2.75,1.94l-0.72 0c-0.24,-0.93 -0.89,-1.4 -1.94,-1.4 -1.14,0.03 -1.74,0.48 -1.8,1.36 -0.06,0.69 0.66,1.14 2.16,1.35 1.74,0.21 2.59,0.84 2.53,1.89 0,1.26 -0.92,1.9 -2.75,1.9 -1.24,0 -2.23,-0.42 -2.98,-1.27z"/>
  <path id="12" class="fil1" d="M103.87 7.98l0 0.81c-0.57,1 -1.53,1.48 -2.89,1.45 -1.98,-0.06 -3,-1.21 -3.06,-3.43 0.06,-2.28 1.06,-3.47 3.02,-3.56 1.56,0.03 2.52,0.73 2.88,2.12l-0.72 0c-0.33,-1.09 -1.03,-1.63 -2.12,-1.63 -1.5,0.06 -2.27,1.07 -2.3,3.02 0.06,1.9 0.92,2.89 2.57,2.98 1.18,-0.03 2.05,-0.62 2.62,-1.76z"/>
  <path id="13" class="fil1" d="M109.41 3.25l0 0.49 -1.72 0c-0.84,0.03 -1.27,0.48 -1.31,1.36l0 5.09 -0.76 0 0 -4.87c0.03,-1.35 0.67,-2.04 1.94,-2.07l1.85 0z"/>
  <path id="14" class="fil1" d="M117.29 6.94l-5.64 0c0.09,1.81 1.02,2.74 2.8,2.8 1.23,0 2.15,-0.5 2.75,-1.49l0 0.72c-0.57,0.85 -1.55,1.27 -2.93,1.27 -2.23,-0.09 -3.37,-1.24 -3.43,-3.43 0.06,-2.32 1.16,-3.52 3.29,-3.61 2.11,0.03 3.16,1.28 3.16,3.74zm-5.64 -0.49l4.87 0c-0.06,-1.77 -0.85,-2.69 -2.39,-2.75 -1.44,0.09 -2.27,1 -2.48,2.75z"/>
  <path id="15" class="fil1" d="M125.58 6.94l-5.64 0c0.09,1.81 1.02,2.74 2.8,2.8 1.23,0 2.14,-0.5 2.75,-1.49l0 0.72c-0.57,0.85 -1.55,1.27 -2.93,1.27 -2.23,-0.09 -3.37,-1.24 -3.43,-3.43 0.06,-2.32 1.16,-3.52 3.29,-3.61 2.11,0.03 3.16,1.28 3.16,3.74zm-5.64 -0.49l4.87 0c-0.06,-1.77 -0.86,-2.69 -2.39,-2.75 -1.44,0.09 -2.27,1 -2.48,2.75z"/>
  <path id="16" class="fil1" d="M133.14 10.1l-0.72 0 0 -4.73c-0.03,-1.09 -0.64,-1.63 -1.85,-1.63l-2.3 0 0 6.36 -0.72 0 0 -6.85 3.3 0c1.53,0 2.29,0.7 2.29,2.12l0 4.73z"/>
 </g>
</svg>
