<?xml version="1.0" encoding="UTF-8"?>
<!DOCTYPE svg PUBLIC "-//W3C//DTD SVG 1.1//EN" "http://www.w3.org/Graphics/SVG/1.1/DTD/svg11.dtd">
<!-- Creator: CorelDRAW 2017 -->
<svg xmlns="http://www.w3.org/2000/svg" xml:space="preserve" width="466px" height="206px" version="1.1" style="shape-rendering:geometricPrecision; text-rendering:geometricPrecision; image-rendering:optimizeQuality; fill-rule:evenodd; clip-rule:evenodd"
viewBox="0 0 129.1 57.04"
 xmlns:xlink="http://www.w3.org/1999/xlink">
 <defs>
  <style type="text/css">
   <![CDATA[
    .fil0 {fill:#FEFEFE;fill-rule:nonzero}
   ]]>
  </style>
 </defs>
 <g id="图层_x0020_1">
  <metadata id="CorelCorpID_0Corel-Layer"/>
  <path class="fil0" d="M0.59 16.16l0 -0.95 2.66 0 0.27 -0.99 1.58 0c-0.09,0.36 -0.18,0.69 -0.27,0.99l5.1 0 0 0.95 -5.46 0c-0.06,0.24 -0.18,0.57 -0.36,0.99 -0.1,0.18 -0.15,0.32 -0.19,0.41l6.59 0 0 0.94 -7.04 0c-0.21,0.4 -0.45,0.8 -0.72,1.23l6.86 0 0 0.94c-0.87,1.03 -1.71,1.79 -2.53,2.3 0.21,0.07 0.53,0.17 0.95,0.32 0.24,0.09 0.42,0.15 0.54,0.18l0 1.26c-1.98,-0.81 -4.27,-1.48 -6.86,-2.03l0 -0.99c1.48,0.21 2.85,0.5 4.11,0.86 0.6,-0.42 1.23,-1.05 1.89,-1.9l-6.27 0 0 -0.94c0.22,-0.43 0.41,-0.83 0.59,-1.23l-2.03 0 0 -0.94 2.48 0c0.06,-0.18 0.17,-0.45 0.32,-0.82 0.06,-0.27 0.12,-0.46 0.18,-0.58l-2.39 0z"/>
  <path id="1" class="fil0" d="M15.38 16.57l0 -0.94 2.79 0 0 -1.31 1.49 0 0 1.31 2.84 0 0 0.94 -2.84 0 0 2.66 2.58 0 0 0.95 -2.58 0 0 3.16 3.12 0 0 0.86 -7.85 0 0 -0.86 3.24 0 0 -3.16 -2.52 0 0 -0.95 2.52 0 0 -2.66 -2.79 0zm-2.98 7.89c0.69,-1.41 1.11,-2.91 1.26,-4.51l1.26 0c-0.15,1.63 -0.49,3.13 -1.03,4.51l-1.49 0zm1.17 -5.05c-0.18,-0.72 -0.44,-1.46 -0.77,-2.21l1.27 0c0.42,0.87 0.69,1.61 0.81,2.21l-1.31 0zm-0.14 -2.71c-0.15,-0.72 -0.4,-1.45 -0.76,-2.21l1.26 0c0.36,0.7 0.65,1.43 0.86,2.21l-1.36 0z"/>
  <path id="2" class="fil0" d="M25.51 15.89l0 -1.04 8.71 0 0 1.04 -3.43 0 0 2.84 4.24 0 0 1 -4.24 0 0 3.43c-0.03,0.9 -0.5,1.36 -1.4,1.39l-1.71 0 0 -0.99 0.94 0c0.43,0 0.62,-0.18 0.59,-0.54l0 -3.29 -4.55 0 0 -1 4.55 0 0 -2.84 -3.7 0z"/>
  <path id="3" class="fil0" d="M38.09 24.64l0 -6.49c-0.34,0.21 -0.73,0.39 -1.18,0.54l0 -0.81c1.05,-0.7 1.75,-1.88 2.08,-3.57l1.4 0c-0.24,1.03 -0.54,1.85 -0.91,2.48l0 7.85 -1.39 0zm3.65 -0.09l0 -0.99 0.68 0c0.45,0.03 0.66,-0.15 0.63,-0.54l0 -6 1.4 0 0 6.04c0.03,1.03 -0.48,1.52 -1.54,1.49l-1.17 0zm-1.67 -6.5l0 -0.9c0.84,-0.63 1.34,-1.55 1.49,-2.75l1.35 0c-0.03,0.33 -0.09,0.6 -0.18,0.81l4.47 0 0 2.35 -1.31 0 0 -1.4 -3.52 0c-0.42,0.81 -1.19,1.44 -2.3,1.89zm0.01 5.33l0 -1.08c0.72,-0.93 1.08,-2.32 1.08,-4.15l1.22 0c0.09,2.43 -0.68,4.18 -2.3,5.23zm7.3 0c-1.53,-1.05 -2.27,-2.78 -2.21,-5.19l1.18 0c0,1.81 0.34,3.16 1.03,4.06l0 1.13z"/>
  <path id="4" class="fil0" d="M49.58 24.2l0 -8.54 1.31 0c0.12,-0.39 0.23,-0.83 0.32,-1.31l1.35 0c-0.09,0.48 -0.19,0.92 -0.31,1.31l1.76 0 0 7.09c0.03,1 -0.44,1.48 -1.4,1.45l-3.03 0zm6.82 0.26l0 -0.9 0.95 0c0.48,0 0.7,-0.23 0.67,-0.68l0 -6.44 -1.84 0c-0.37,0.6 -1,1.11 -1.9,1.53l0 -0.86c0.69,-0.57 1.08,-1.5 1.17,-2.79l1.36 0c-0.03,0.12 -0.06,0.27 -0.09,0.45 0,0.15 -0.05,0.37 -0.14,0.67l2.8 0 0 7.49c0.06,1.08 -0.44,1.59 -1.49,1.53l-1.49 0zm-5.51 -1.12l1.27 0c0.39,0.03 0.57,-0.18 0.54,-0.63l0 -2.49 -1.81 0 0 3.12zm0 -6.73l0 2.71 1.81 0 0 -2.71 -1.81 0zm4.74 4.7c-0.12,-1.03 -0.38,-2.06 -0.77,-3.12l1.13 0c0.42,0.91 0.74,1.94 0.95,3.12l-1.31 0z"/>
  <polygon id="5" class="fil0" points="62.21,16.16 62.21,15.12 71.32,15.12 71.32,16.16 67.53,16.16 67.53,23.02 71.91,23.02 71.91,23.97 61.63,23.97 61.63,23.02 65.96,23.02 65.96,16.16 "/>
  <path id="6" class="fil0" d="M76.95 18.06l0 -0.82c1.02,-0.75 1.59,-1.71 1.71,-2.88l1.49 0c-0.03,0.21 -0.11,0.49 -0.23,0.86 -0.03,0.06 -0.04,0.1 -0.04,0.13l4.46 0 0 0.95 -3.47 0 0 2.08 2.84 0 0 0.94 -2.84 0 0 2.08 3.2 0 0 0.95 -3.2 0 0 2.3 -1.44 0 0 -8.35 -0.05 0c-0.51,0.78 -1.32,1.37 -2.43,1.76zm-1.9 6.58l0 -6.49c-0.36,0.21 -0.77,0.39 -1.22,0.54l0 -0.81c1.05,-0.7 1.72,-1.88 1.99,-3.57l1.49 0c-0.31,1.15 -0.59,1.94 -0.86,2.39l0 7.94 -1.4 0z"/>
  <path class="fil0" d="M2.06 48.37l0 -0.29 1.76 0 0 -5.5 0.44 0 0 1.98 1.76 0 0 0.29 -1.76 0 0 3.23 2.03 0 0 0.29 -4.23 0zm-0.81 -0.76c0.4,-0.14 0.78,-0.33 1.14,-0.57l0 0.33c-0.47,0.34 -0.99,0.61 -1.55,0.81l0 -3.38 -0.81 0 0 -0.27 1.22 0 0 3.08zm-0.35 -5.06c0.23,0.4 0.42,0.86 0.56,1.38l-0.37 0c-0.11,-0.45 -0.28,-0.91 -0.52,-1.38l0.33 0z"/>
  <path id="1" class="fil0" d="M7.36 44.72l0 -0.3 1.46 0 0 -1.19 -1.27 0 0 -0.3 1.57 0c0.36,0 0.77,-0.06 1.22,-0.18l0 0.32c-0.42,0.11 -0.79,0.16 -1.11,0.16l0 1.19 1.79 0c-0.04,-0.55 -0.06,-1.2 -0.06,-1.92l0.43 0c0,0.78 0.01,1.42 0.03,1.92l2.33 0 0 0.3 -2.3 0c0.05,0.81 0.13,1.49 0.24,2.03l0 0.03c0.49,-0.45 0.91,-1.01 1.27,-1.68l0.46 0c-0.5,0.89 -1.04,1.56 -1.62,2.03 0.22,0.81 0.55,1.23 1,1.25 0.34,0 0.52,-0.21 0.52,-0.63l0.32 0c0.02,0.64 -0.26,0.94 -0.84,0.92 -0.61,0 -1.06,-0.42 -1.35,-1.27 -0.49,0.36 -1.08,0.66 -1.79,0.9l0 -0.22c0.67,-0.33 1.23,-0.67 1.68,-1.03l-0.08 -0.35c-0.11,-0.54 -0.19,-1.2 -0.24,-1.98l-1.79 0 0 1.38c0.49,-0.09 0.89,-0.19 1.22,-0.3l0 0.3c-0.06,0.02 -0.15,0.05 -0.27,0.08 -0.42,0.15 -0.74,0.24 -0.95,0.27l0 1.52c0,0.47 -0.27,0.69 -0.81,0.67l-0.46 0 0 -0.29 0.4 0c0.31,0 0.46,-0.14 0.46,-0.41l0 -1.41c-0.45,0.09 -0.91,0.15 -1.38,0.17l0 -0.38c0.53,-0.04 0.99,-0.08 1.38,-0.14l0 -1.46 -1.46 0zm5.17 -1.98c0.23,0.4 0.41,0.82 0.51,1.25l-0.4 0c-0.09,-0.43 -0.24,-0.85 -0.44,-1.25l0.33 0z"/>
  <path id="2" class="fil0" d="M18.69 43.09l2.09 0 0 4.8c0.01,0.54 -0.24,0.8 -0.76,0.78l-0.57 0 0 -0.3 0.46 0c0.33,0.02 0.48,-0.12 0.46,-0.43l0 -4.55 -1.68 0 0 -0.3zm-3.05 5.66l0 -4.33c-0.18,0.2 -0.49,0.42 -0.92,0.65l0 -0.27c0.76,-0.56 1.24,-1.32 1.46,-2.27l0.43 0c-0.18,0.63 -0.37,1.09 -0.57,1.38l0 4.84 -0.4 0zm1.43 -0.05l0 -4.74 0.44 0 0 4.74 -0.44 0zm0.62 -6.12c0.2,0.29 0.36,0.65 0.49,1.08l-0.41 0c-0.1,-0.37 -0.25,-0.74 -0.43,-1.08l0.35 0z"/>
  <path id="3" class="fil0" d="M28.44 48.29c-1.19,-0.47 -1.91,-1.25 -2.14,-2.36l-0.76 0 0 2.85 -0.43 0 0 -2.85 -0.76 0c-0.24,1.11 -0.95,1.89 -2.14,2.36l0 -0.24c0.94,-0.49 1.51,-1.2 1.71,-2.12l-1.68 0 0 -0.32 2.87 0 0 -2.02 -2.52 0 0 -0.33 2.52 0 0 -0.76 0.43 0 0 0.76 2.52 0 0 0.33 -2.52 0 0 2.02 2.87 0 0 0.32 -1.68 0c0.2,0.92 0.77,1.63 1.71,2.12l0 0.24zm-1.04 -4.3c-0.1,0.54 -0.23,0.95 -0.37,1.22l-0.41 0c0.2,-0.36 0.31,-0.77 0.35,-1.22l0.43 0zm-4.16 0l0.43 0c0.04,0.45 0.15,0.86 0.35,1.22l-0.41 0c-0.14,-0.27 -0.27,-0.68 -0.37,-1.22z"/>
  <path id="4" class="fil0" d="M29.56 44.96l0 -0.29c0.65,-0.6 1.03,-1.31 1.14,-2.14l0.46 0c-0.05,0.27 -0.12,0.51 -0.21,0.73l1.56 0 0 0.27c-0.07,1.48 -0.4,2.65 -1,3.52 0.64,0.79 1.56,1.19 2.76,1.19l1.55 0 0 0.29 -1.63 0c-1.28,0.02 -2.24,-0.37 -2.89,-1.16 -0.33,0.41 -0.87,0.88 -1.63,1.41l0 -0.3c0.53,-0.42 0.99,-0.89 1.38,-1.43 -0.39,-0.62 -0.71,-1.46 -0.94,-2.55 -0.08,0.08 -0.19,0.18 -0.36,0.3 -0.09,0.07 -0.15,0.13 -0.19,0.16zm2.52 -1.43l-1.27 0c-0.16,0.38 -0.38,0.69 -0.65,0.92l0.41 0c0.14,0.92 0.38,1.66 0.73,2.22 0.48,-0.83 0.75,-1.88 0.78,-3.14zm1.87 -0.98l0 1.76c0.7,0.27 1.3,0.58 1.79,0.92l0 0.52c-0.53,-0.42 -1.12,-0.78 -1.79,-1.08l0 3.11 -0.41 0 0 -5.23 0.41 0z"/>
  <path id="5" class="fil0" d="M39.44 45.89l0 -3.01 3.44 0 0 2.25c0.02,0.52 -0.23,0.77 -0.73,0.76l-0.79 0 0 0.94 1.65 0 0 0.27 -1.65 0 0 1.11 1.92 0 0 0.3 -4.36 0 0 -0.3 2.04 0 0 -1.11 -1.63 0 0 -0.27 1.63 0 0 -0.94 -1.52 0zm-2.41 -0.79l0.79 0 0 -1.78 -0.87 0 0 -0.3 2.11 0 0 0.3 -0.84 0 0 1.78 0.79 0 0 0.27 -0.79 0 0 2.16c0.27,-0.09 0.56,-0.19 0.87,-0.3l0 0.28c-0.65,0.32 -1.37,0.53 -2.17,0.62l0 -0.33c0.26,-0.03 0.55,-0.09 0.9,-0.16l0 -2.27 -0.79 0 0 -0.27zm2.79 -0.63l0 1.12 1.14 0 0 -1.12 -1.14 0zm2.68 0.68l0 -0.68 -1.14 0 0 1.12 0.71 0c0.3,0.02 0.45,-0.13 0.43,-0.44zm0 -2l-1.14 0 0 1.02 1.14 0 0 -1.02zm-2.68 0l0 1.02 1.14 0 0 -1.02 -1.14 0z"/>
  <path id="6" class="fil0" d="M44.68 43.36l0 -0.29 5.61 0 0 0.29 -4.12 0 -0.13 1.09 3.52 0 -0.25 3.57 1.22 0 0 0.27 -6.09 0 0 -0.27 4.44 0 0.08 -1.27 -3.63 0 0.41 -3.39 -1.06 0zm4.42 1.39l-3.09 0 -0.22 1.7 3.2 0 0.11 -1.7z"/>
  <path id="7" class="fil0" d="M53.55 48.75l0 -1.24c-0.29,0.07 -0.91,0.15 -1.86,0.24l0 -0.35 0.46 -0.03 0 -4.11 -0.41 0 0 -0.27 2.6 0 0 0.27 -0.41 0 0 3.87 0.6 -0.13 0 0.27c-0.22,0.05 -0.42,0.1 -0.6,0.16l0 1.32 -0.38 0zm0.95 -4.92l0 -0.3 0.68 0c-0.18,-0.27 -0.29,-0.58 -0.33,-0.92l0.41 0c0.05,0.36 0.16,0.67 0.32,0.92l0.98 0c0.14,-0.27 0.24,-0.58 0.3,-0.92l0.4 0c-0.05,0.38 -0.15,0.69 -0.3,0.92l0.79 0 0 0.3 -1.49 0 0 1.57 0 0.08 1.7 0 0 0.3 -1.67 0c0.05,1.01 0.6,1.9 1.65,2.67l0 0.28c-0.92,-0.51 -1.54,-1.2 -1.87,-2.06 -0.34,0.86 -0.96,1.55 -1.87,2.06l0 -0.28c1.03,-0.75 1.57,-1.65 1.63,-2.67l-1.52 0 0 -0.3 1.54 0 0 -0.08 0 -1.57 -1.35 0zm-1.97 3.52c0.07,-0.02 0.18,-0.04 0.32,-0.06 0.32,-0.03 0.56,-0.07 0.7,-0.11l0 -1.11 -1.02 0 0 1.28zm0 -2.68l0 1.13 1.02 0 0 -1.13 -1.02 0zm0 -1.41l0 1.14 1.02 0 0 -1.14 -1.02 0z"/>
  <path id="8" class="fil0" d="M59.53 48.7l0 -5.79 5.42 0 0 4.84c0.01,0.63 -0.27,0.94 -0.87,0.92l-0.49 0 0 -0.32 0.38 0c0.4,0.01 0.59,-0.15 0.57,-0.49l0 -4.66 -4.6 0 0 5.5 -0.41 0zm0.79 -5.04l0.38 0c0.16,0.83 0.35,1.52 0.56,2.06 0.28,-0.67 0.46,-1.35 0.57,-2.06l0.38 0c-0.2,1.02 -0.45,1.85 -0.76,2.52 0.2,0.43 0.45,0.9 0.73,1.41l0 0.4c-0.45,-0.63 -0.75,-1.1 -0.92,-1.43 -0.16,0.33 -0.46,0.8 -0.92,1.43l0 -0.4c0.29,-0.51 0.55,-0.98 0.76,-1.41 -0.32,-0.63 -0.58,-1.47 -0.78,-2.52zm3.84 0c-0.25,1.14 -0.51,1.98 -0.79,2.52 0.22,0.43 0.47,0.9 0.76,1.41l0 0.4c-0.45,-0.63 -0.76,-1.1 -0.92,-1.43 -0.16,0.33 -0.47,0.8 -0.92,1.43l0 -0.4c0.31,-0.51 0.55,-0.98 0.73,-1.41 -0.3,-0.67 -0.56,-1.5 -0.75,-2.52l0.37 0c0.11,0.71 0.3,1.39 0.57,2.06 0.22,-0.54 0.41,-1.23 0.57,-2.06l0.38 0z"/>
  <path id="9" class="fil0" d="M66.81 46.8l0 -0.35c0.7,0.47 1.35,1.01 1.95,1.63l0 0.46c-0.71,-0.73 -1.36,-1.3 -1.95,-1.74z"/>
  <path id="10" class="fil0" d="M107.22 43.36l0 0.3 -4.68 0c-0.05,0.54 -0.12,1.01 -0.19,1.41l4.41 0 0 2.46c0.04,0.78 -0.36,1.15 -1.19,1.11l-0.81 0 0 -0.32 0.81 0c0.53,0.02 0.78,-0.25 0.76,-0.79l0 -2.16 -4.36 0 0 -0.3c0.13,-0.67 0.2,-1.53 0.22,-2.57l0.43 0c0,0.11 -0.01,0.25 -0.02,0.43 0,0.2 -0.01,0.34 -0.03,0.43l4.65 0zm-1.57 3.23l0 0.32 -4.73 0 0 -0.32 4.73 0z"/>
  <polygon id="11" class="fil0" points="73.95,48.43 73.49,48.43 73.49,42.77 73.95,42.77 73.95,45.37 77.63,45.37 77.63,42.77 78.07,42.77 78.07,48.43 77.63,48.43 77.63,45.67 73.95,45.67 "/>
  <polygon id="12" class="fil0" points="83.8,43.07 81.69,43.07 81.69,48.43 81.26,48.43 81.26,43.07 79.14,43.07 79.14,42.77 83.8,42.77 "/>
  <polygon id="13" class="fil0" points="89.75,42.77 90.51,42.77 90.51,48.43 90.05,48.43 90.05,43.09 87.88,48.4 87.5,48.4 85.34,43.09 85.34,48.43 84.88,48.43 84.88,42.77 85.63,42.77 87.72,47.94 "/>
  <polygon id="14" class="fil0" points="95.45,48.13 95.45,48.43 91.77,48.43 91.77,42.77 92.23,42.77 92.23,48.13 "/>
  <path id="15" class="fil0" d="M96.42 47.51l0 -0.41c0.49,0.78 1.13,1.15 1.93,1.11 0.97,-0.02 1.47,-0.52 1.48,-1.51 -0.03,-0.96 -0.55,-1.46 -1.57,-1.49l-1.59 0 0 -2.41 3.46 0 0 0.29 -3 0 0 1.82 1.24 0c1.27,0.04 1.92,0.61 1.95,1.73 -0.03,1.21 -0.68,1.83 -1.92,1.87 -0.92,0.02 -1.58,-0.32 -1.98,-1z"/>
  <path id="16" class="fil0" d="M112.99 46.59l0 0.54c-0.45,0.95 -1.28,1.42 -2.49,1.41 -1.7,-0.13 -2.59,-1.08 -2.68,-2.85 0.09,-1.91 0.99,-2.91 2.71,-3 1.19,0.04 1.97,0.6 2.35,1.7l-0.49 0c-0.25,-0.9 -0.88,-1.37 -1.89,-1.4 -1.35,0.14 -2.09,1.03 -2.19,2.68 0.07,1.6 0.84,2.46 2.3,2.57 1.1,-0.02 1.89,-0.57 2.38,-1.65z"/>
  <path id="17" class="fil0" d="M113.98 47.26l0 -0.46c0.58,0.98 1.41,1.46 2.49,1.44 1.11,-0.02 1.67,-0.43 1.71,-1.25 0.02,-0.7 -0.6,-1.13 -1.84,-1.3 -1.44,-0.16 -2.16,-0.65 -2.14,-1.49 0.06,-0.95 0.74,-1.45 2.06,-1.48 1.28,-0.02 2.04,0.5 2.27,1.57l-0.46 0c-0.25,-0.83 -0.85,-1.26 -1.78,-1.28 -1.03,0.04 -1.57,0.44 -1.6,1.19 -0.06,0.62 0.53,1 1.76,1.14 1.49,0.2 2.24,0.75 2.22,1.65 -0.06,1 -0.78,1.51 -2.17,1.55 -1.15,0.01 -1.99,-0.41 -2.52,-1.28z"/>
  <path id="18" class="fil0" d="M119.58 47.26l0 -0.46c0.58,0.98 1.41,1.46 2.49,1.44 1.1,-0.02 1.67,-0.43 1.71,-1.25 0.01,-0.7 -0.6,-1.13 -1.84,-1.3 -1.45,-0.16 -2.16,-0.65 -2.14,-1.49 0.05,-0.95 0.74,-1.45 2.05,-1.48 1.29,-0.02 2.04,0.5 2.28,1.57l-0.46 0c-0.25,-0.83 -0.85,-1.26 -1.79,-1.28 -1.03,0.04 -1.56,0.44 -1.59,1.19 -0.06,0.62 0.53,1 1.75,1.14 1.5,0.2 2.24,0.75 2.22,1.65 -0.05,1 -0.77,1.51 -2.16,1.55 -1.16,0.01 -1.99,-0.41 -2.52,-1.28z"/>
  <path id="19" class="fil0" d="M125.26 47.48l0 -0.46c0.41,0.81 1.04,1.21 1.87,1.19 0.99,0 1.49,-0.45 1.49,-1.35 0.03,-0.8 -0.55,-1.18 -1.74,-1.17l-0.32 0 0 -0.35 0.32 0c1,-0.02 1.5,-0.41 1.52,-1.19 -0.04,-0.74 -0.45,-1.13 -1.25,-1.16 -0.74,0.01 -1.2,0.41 -1.38,1.19l-0.46 0c0.2,-0.99 0.82,-1.49 1.84,-1.49 1.12,0.02 1.7,0.51 1.74,1.49 -0.04,0.68 -0.4,1.11 -1.09,1.27 0.83,0.18 1.27,0.66 1.3,1.44 -0.05,1.02 -0.69,1.56 -1.92,1.62 -0.9,0 -1.54,-0.34 -1.92,-1.03z"/>
  <path id="20" class="fil0" d="M0.95 57.01l0 -4.28c-0.26,0.24 -0.57,0.44 -0.95,0.62l0 -0.29c0.79,-0.47 1.3,-1.23 1.51,-2.28l0.47 0c-0.17,0.62 -0.37,1.1 -0.63,1.46l0 4.77 -0.4 0zm3.35 -4.66l0 3.79c0,0.54 -0.25,0.8 -0.75,0.79l-0.6 0 0 -0.3 0.46 0c0.33,0 0.49,-0.15 0.49,-0.43l0 -3.85 0.4 0zm-2.4 0.6l0 -0.27c0.65,-0.42 1.04,-1.02 1.16,-1.82l0.41 0c-0.06,0.22 -0.11,0.43 -0.17,0.63l2.82 0 0 1.24 -0.41 0 0 -0.95 -2.54 0c-0.2,0.47 -0.62,0.86 -1.27,1.17zm1.3 0.13c0.03,1.37 -0.4,2.42 -1.3,3.14l0 -0.32c0.61,-0.71 0.91,-1.64 0.89,-2.82l0.41 0zm1.84 0l0.38 0c0,1.21 0.3,2.15 0.92,2.82l0 0.32c-0.91,-0.72 -1.34,-1.77 -1.3,-3.14z"/>
  <path id="21" class="fil0" d="M9.61 54.76c-0.17,1.05 -0.87,1.78 -2.11,2.19l0 -0.27c0.97,-0.43 1.53,-1.07 1.67,-1.92l0.44 0zm2.89 -3.27l-3.84 0 0 2.43 3.25 0c0.41,0.02 0.61,-0.18 0.59,-0.6l0 -1.83zm-4.27 2.73l0 -3.03 4.71 0 0 2.05c0.01,0.67 -0.31,1 -0.98,0.98l-3.73 0zm3.27 0.54l0.43 0c0.15,0.85 0.71,1.49 1.68,1.92l0 0.27c-1.24,-0.41 -1.95,-1.14 -2.11,-2.19z"/>
  <path id="22" class="fil0" d="M15.34 56.95l0 -2.05 2.06 0c0.1,-0.2 0.17,-0.42 0.19,-0.66l-2.76 0 0 -0.27 6.25 0 0 0.27 -3.06 0c-0.04,0.2 -0.11,0.42 -0.22,0.66l2.73 0 0 1.27c0.02,0.5 -0.26,0.75 -0.84,0.73l-0.29 0 0 -0.27 0.27 0c0.32,0.02 0.48,-0.14 0.46,-0.46l0 -1 -1.22 0 0 1.62 -0.38 0 0 -1.62 -1.22 0 0 1.62 -0.38 0 0 -1.62 -1.18 0 0 1.78 -0.41 0zm0.03 -5.84l5.14 0 0 0.27 -2.35 0 0 0.51 2.73 0 0 1.24 -0.41 0 0 -0.97 -2.32 0 0 1.49 -0.44 0 0 -1.49 -2.35 0 0 0.97 -0.38 0 0 -1.24 2.73 0 0 -0.51 -2.35 0 0 -0.27zm0.48 1.51l1.44 0 0 0.25 -1.44 0 0 -0.25zm0 0.68l1.44 0 0 0.25 -1.44 0 0 -0.25zm2.74 0l1.43 0 0 0.25 -1.43 0 0 -0.25zm0 -0.68l1.43 0 0 0.25 -1.43 0 0 -0.25z"/>
  <path id="23" class="fil0" d="M22.21 53.14l0 -0.3 1.87 0c0.09,-0.2 0.2,-0.52 0.35,-0.95 0.02,-0.07 0.03,-0.12 0.05,-0.16l-1.87 0 0 -0.27 1.95 0 0.19 -0.7 0.46 0c-0.05,0.25 -0.12,0.48 -0.21,0.7l3.05 0 0 0.27 -3.14 0c-0.07,0.23 -0.19,0.57 -0.37,1 -0.02,0.05 -0.04,0.09 -0.06,0.11l4.01 0 0 0.3 -4.14 0c-0.17,0.36 -0.35,0.7 -0.54,1.03l4.03 0 0 0.27c-0.51,0.63 -1.15,1.21 -1.92,1.73 0.56,0.15 1,0.3 1.32,0.46l0 0.41c-1.1,-0.47 -2.41,-0.92 -3.92,-1.36l0 -0.27c0.95,0.24 1.71,0.45 2.27,0.65 0.69,-0.48 1.24,-1.03 1.65,-1.62l-3.79 0 0 -0.27c0.2,-0.38 0.36,-0.73 0.49,-1.03l-1.73 0z"/>
  <path id="24" class="fil0" d="M35.87 56.36l0 0.3 -4.84 0 0 -0.3 2.27 0 0 -2.2 -1.73 0 0 -0.27 1.73 0 0 -1.86 -1.95 0 0 -0.27 1.95 0 0 -0.98 0.44 0 0 0.98 1.94 0 0 0.27 -1.94 0 0 1.86 1.73 0 0 0.27 -1.73 0 0 2.2 2.13 0zm-5.71 0.51l-0.46 0c0.42,-0.83 0.69,-1.73 0.81,-2.7l0.38 0c-0.13,1.01 -0.37,1.91 -0.73,2.7zm0.08 -4.36c0.29,0.47 0.5,0.91 0.62,1.33l-0.4 0c-0.13,-0.38 -0.33,-0.82 -0.6,-1.33l0.38 0zm-0.03 -1.62c0.22,0.34 0.42,0.79 0.6,1.33l-0.41 0c-0.1,-0.42 -0.29,-0.86 -0.56,-1.33l0.37 0z"/>
  <path id="25" class="fil0" d="M36.95 53.52l3.01 0 0 -1.95 -2.49 0 0 -0.33 5.27 0 0 0.33 -2.33 0 0 1.95 2.82 0 0 0.32 -2.82 0 0 2.33c0,0.5 -0.25,0.76 -0.75,0.76l-0.76 0 0 -0.33 0.62 0c0.31,0 0.45,-0.13 0.44,-0.38l0 -2.38 -3.01 0 0 -0.32z"/>
  <path id="26" class="fil0" d="M45.25 57.01l0 -4.28c-0.25,0.24 -0.57,0.44 -0.95,0.62l0 -0.29c0.79,-0.47 1.3,-1.23 1.52,-2.28l0.46 0c-0.17,0.62 -0.37,1.1 -0.63,1.46l0 4.77 -0.4 0zm3.36 -4.66l0 3.79c0,0.54 -0.26,0.8 -0.76,0.79l-0.6 0 0 -0.3 0.46 0c0.33,0 0.49,-0.15 0.49,-0.43l0 -3.85 0.41 0zm-2.41 0.6l0 -0.27c0.65,-0.42 1.04,-1.02 1.16,-1.82l0.41 0c-0.05,0.22 -0.11,0.43 -0.16,0.63l2.81 0 0 1.24 -0.4 0 0 -0.95 -2.55 0c-0.2,0.47 -0.62,0.86 -1.27,1.17zm1.3 0.13c0.04,1.37 -0.4,2.42 -1.3,3.14l0 -0.32c0.61,-0.71 0.91,-1.64 0.89,-2.82l0.41 0zm1.84 0l0.38 0c0,1.21 0.3,2.15 0.92,2.82l0 0.32c-0.9,-0.72 -1.34,-1.77 -1.3,-3.14z"/>
  <path id="27" class="fil0" d="M51.99 56.66l0 -4.96 0.76 0c0.1,-0.29 0.18,-0.58 0.24,-0.89l0.38 0c-0.06,0.4 -0.13,0.69 -0.22,0.89l1.25 0 0 4.17c0.01,0.54 -0.23,0.8 -0.73,0.79l-1.68 0zm2.7 -3.98c0.51,-0.45 0.79,-1.08 0.84,-1.9l0.41 0c-0.02,0.29 -0.08,0.55 -0.17,0.76l2.01 0 0 4.44c0.01,0.61 -0.26,0.9 -0.82,0.86l-0.73 0 0 -0.29 0.63 0c0.34,0.01 0.5,-0.14 0.48,-0.46l0 -4.25 -1.67 0c-0.15,0.42 -0.47,0.79 -0.98,1.14l0 -0.3zm-0.67 3.27l0 -1.76 -1.65 0 0 2.17 1.21 0c0.31,0.02 0.46,-0.12 0.44,-0.41zm-1.65 -3.98l0 1.95 1.65 0 0 -1.95 -1.65 0zm3.43 3.01c-0.07,-0.58 -0.23,-1.2 -0.49,-1.87l0.33 0c0.29,0.69 0.48,1.31 0.57,1.87l-0.41 0z"/>
  <path id="28" class="fil0" d="M64 52.33l0 -0.98 -3.52 0 0 1.57 2.98 0c0.38,0.02 0.56,-0.18 0.54,-0.59zm-3.96 0.92l0 -2.2 4.37 0 0 1.33c0.01,0.6 -0.29,0.88 -0.93,0.87l-3.44 0zm1.36 2.81l0 -1.68 -1.57 0 0 2.11 1.11 0c0.33,0.02 0.48,-0.13 0.46,-0.43zm-1.97 0.76l0 -2.73 2.38 0 0 2c0.02,0.5 -0.26,0.74 -0.81,0.73l-1.57 0zm5.24 -0.76l0 -1.68 -1.62 0 0 2.11 1.16 0c0.33,0.02 0.48,-0.13 0.46,-0.43zm-2 0.76l0 -2.73 2.41 0 0 2c0.02,0.5 -0.25,0.74 -0.81,0.73l-1.6 0z"/>
  <path id="29" class="fil0" d="M69.16 54.11l0 -2.71 0.97 0c0.11,-0.21 0.18,-0.42 0.2,-0.62l0.43 0c-0.06,0.22 -0.13,0.43 -0.22,0.62l1.87 0 0 1.9c0.02,0.56 -0.26,0.83 -0.84,0.81l-0.89 0c-0.2,0.35 -0.69,0.72 -1.47,1.14l0 -0.27c0.49,-0.29 0.84,-0.58 1.06,-0.87l-1.11 0zm-0.7 2.81l-0.38 0 0 -2.76 -0.84 0 0 0.54c0.05,1.09 -0.22,1.85 -0.81,2.3l0 -0.35c0.3,-0.32 0.45,-0.95 0.43,-1.86l0 -3.74 0.38 0 0 1.55 0.76 0 0 -1.71 0.37 0 0 1.71 0.44 0 0 0.27 -1.57 0 0 1.05 1.22 0 0 3zm0.29 -1.3l0 -0.29 2.17 0 0 -0.87 0.43 0 0 0.87 1.46 0 0 0.29 -1.46 0 0 1.38 -0.43 0 0 -1.38 -2.17 0zm3.28 -2.38l0 -0.43 -1.08 0c0,0.45 -0.04,0.79 -0.13,1.01l0.65 0c0.39,0.01 0.58,-0.18 0.56,-0.58zm-1.62 0.58c0.11,-0.2 0.16,-0.49 0.16,-0.87l0 -0.14 -1.06 0 0 1.01 0.9 0zm1.62 -2.15l-1.08 0 0 0.87 1.08 0 0 -0.87zm-2.52 0l0 0.87 1.06 0 0 -0.87 -1.06 0z"/>
  <path id="30" class="fil0" d="M76.38 55.82c-0.02,0.63 -0.37,0.95 -1.05,0.97 -0.69,-0.04 -1.05,-0.36 -1.09,-0.97 0.04,-0.69 0.4,-1.05 1.09,-1.09 0.68,0.02 1.03,0.38 1.05,1.09zm-0.29 -0.03c-0.04,-0.51 -0.29,-0.77 -0.76,-0.79 -0.49,0.04 -0.75,0.3 -0.79,0.79 0.02,0.47 0.28,0.71 0.79,0.73 0.48,-0.02 0.74,-0.26 0.76,-0.73z"/>
  <polygon class="fil0" points="5.44,0.9 0.75,0.9 0.75,3.93 5.22,3.93 5.22,4.33 0.75,4.33 0.75,8.05 0.14,8.05 0.14,0.47 5.44,0.47 "/>
  <path id="1" class="fil0" d="M9.29 2.92c-1.29,0.05 -1.97,0.88 -2.02,2.49 0.05,1.47 0.73,2.25 2.02,2.35 1.28,-0.07 1.94,-0.87 1.99,-2.38 -0.07,-1.54 -0.73,-2.36 -1.99,-2.46zm-0.03 5.23c-1.64,-0.09 -2.5,-0.99 -2.6,-2.7 0.07,-1.9 0.97,-2.88 2.71,-2.92 1.58,0.09 2.43,1.03 2.52,2.81 -0.02,1.85 -0.9,2.79 -2.63,2.81z"/>
  <path id="2" class="fil0" d="M17.98 6.35l0 0.65c-0.45,0.79 -1.22,1.18 -2.31,1.15 -1.58,-0.04 -2.4,-0.96 -2.45,-2.74 0.05,-1.83 0.85,-2.78 2.42,-2.85 1.25,0.03 2.02,0.59 2.31,1.7l-0.58 0c-0.26,-0.87 -0.83,-1.3 -1.7,-1.3 -1.2,0.05 -1.81,0.85 -1.84,2.42 0.05,1.51 0.74,2.31 2.06,2.38 0.94,-0.03 1.64,-0.5 2.09,-1.41z"/>
  <path id="3" class="fil0" d="M19.38 2.67l0.62 0 0 3.57c-0.08,1.04 0.51,1.53 1.77,1.48l1.55 0 0 -5.05 0.57 0 0 5.45 -2.41 0c-1.42,0 -2.12,-0.6 -2.1,-1.81l0 -3.64z"/>
  <path id="4" class="fil0" d="M25.22 7.14l0 -0.47c0.65,0.73 1.43,1.09 2.35,1.09 1.08,0 1.62,-0.36 1.62,-1.09 0.03,-0.57 -0.5,-0.95 -1.59,-1.11 -1.54,-0.2 -2.26,-0.7 -2.16,-1.52 0.07,-0.96 0.73,-1.47 1.98,-1.51 1.23,0 1.96,0.51 2.2,1.55l-0.57 0c-0.2,-0.75 -0.71,-1.12 -1.55,-1.12 -0.92,0.02 -1.4,0.38 -1.45,1.08 -0.05,0.55 0.53,0.92 1.73,1.08 1.4,0.17 2.07,0.68 2.03,1.52 0,1.01 -0.74,1.51 -2.21,1.51 -0.98,0 -1.78,-0.33 -2.38,-1.01z"/>
  <path id="5" class="fil0" d="M36.01 2.92c-1.3,0.05 -1.97,0.88 -2.02,2.49 0.05,1.47 0.72,2.25 2.02,2.35 1.28,-0.07 1.94,-0.87 1.99,-2.38 -0.07,-1.54 -0.74,-2.36 -1.99,-2.46zm-0.03 5.23c-1.64,-0.09 -2.5,-0.99 -2.6,-2.7 0.07,-1.9 0.97,-2.88 2.71,-2.92 1.58,0.09 2.42,1.03 2.52,2.81 -0.02,1.85 -0.9,2.79 -2.63,2.81z"/>
  <path id="6" class="fil0" d="M44.49 8.05l-0.58 0 0 -3.79c-0.03,-0.87 -0.52,-1.3 -1.48,-1.3l-1.84 0 0 5.09 -0.58 0 0 -5.49 2.64 0c1.22,0 1.84,0.57 1.84,1.7l0 3.79z"/>
  <path id="7" class="fil0" d="M52.61 2.67l0.65 0 -2.35 5.52c-0.6,1.52 -1.24,2.21 -1.91,2.09 -0.36,0 -0.64,-0.08 -0.83,-0.25l0 -0.36c0.26,0.15 0.52,0.22 0.76,0.22 0.43,0.05 0.86,-0.45 1.3,-1.48l0.21 -0.51 -2.31 -5.23 0.65 0 1.95 4.65 1.88 -4.65z"/>
  <path id="8" class="fil0" d="M56.93 2.92c-1.3,0.05 -1.97,0.88 -2.02,2.49 0.05,1.47 0.72,2.25 2.02,2.35 1.28,-0.07 1.94,-0.87 1.99,-2.38 -0.08,-1.54 -0.74,-2.36 -1.99,-2.46zm-0.03 5.23c-1.64,-0.09 -2.51,-0.99 -2.6,-2.7 0.07,-1.9 0.97,-2.88 2.7,-2.92 1.59,0.09 2.43,1.03 2.53,2.81 -0.02,1.85 -0.9,2.79 -2.63,2.81z"/>
  <path id="9" class="fil0" d="M60.86 2.67l0.61 0 0 3.57c-0.07,1.04 0.52,1.53 1.77,1.48l1.55 0 0 -5.05 0.58 0 0 5.45 -2.42 0c-1.42,0 -2.12,-0.6 -2.09,-1.81l0 -3.64z"/>
  <path id="10" class="fil0" d="M69.94 2.56l0 0.4 -1.37 0c-0.67,0.02 -1.02,0.38 -1.04,1.08l0 4.08 -0.62 0 0 -3.9c0.03,-1.08 0.54,-1.63 1.56,-1.66l1.47 0z"/>
  <polygon id="11" class="fil0" points="80.19,2.63 80.84,2.63 78.89,8.01 78.25,8.01 77.05,3.5 75.68,8.01 75.11,8.01 73.19,2.63 73.84,2.63 75.39,7.4 76.69,2.63 77.34,2.63 78.64,7.4 "/>
  <path id="12" class="fil0" d="M84.44 2.92c-1.29,0.05 -1.97,0.88 -2.02,2.49 0.05,1.47 0.73,2.25 2.02,2.35 1.28,-0.07 1.94,-0.87 1.99,-2.38 -0.07,-1.54 -0.73,-2.36 -1.99,-2.46zm-0.03 5.23c-1.64,-0.09 -2.5,-0.99 -2.6,-2.7 0.07,-1.9 0.97,-2.88 2.71,-2.92 1.59,0.09 2.43,1.03 2.52,2.81 -0.02,1.85 -0.9,2.79 -2.63,2.81z"/>
  <path id="13" class="fil0" d="M91.4 2.56l0 0.4 -1.37 0c-0.67,0.02 -1.02,0.38 -1.05,1.08l0 4.08 -0.61 0 0 -3.9c0.02,-1.08 0.54,-1.63 1.55,-1.66l1.48 0z"/>
  <polygon id="14" class="fil0" points="93.34,7.97 92.73,7.97 92.73,0 93.34,0 93.34,5.38 96.45,2.6 97.28,2.6 94.86,4.69 97.49,7.97 96.77,7.97 94.46,5.05 93.34,6.06 "/>
 </g>
</svg>
