<?xml version="1.0" encoding="UTF-8"?>
<!DOCTYPE svg PUBLIC "-//W3C//DTD SVG 1.1//EN" "http://www.w3.org/Graphics/SVG/1.1/DTD/svg11.dtd">
<!-- Creator: CorelDRAW 2017 -->
<svg xmlns="http://www.w3.org/2000/svg" xml:space="preserve" width="41.7555mm" height="14.4346mm" version="1.1" style="shape-rendering:geometricPrecision; text-rendering:geometricPrecision; image-rendering:optimizeQuality; fill-rule:evenodd; clip-rule:evenodd"
viewBox="0 0 4175.56 1443.46"
 xmlns:xlink="http://www.w3.org/1999/xlink">
 <defs>
  <style type="text/css">
   <![CDATA[
    .fil0 {fill:#FEFEFE}
   ]]>
  </style>
 </defs>
 <g id="图层_x0020_1">
  <metadata id="CorelCorpID_0Corel-Layer"/>
  <path class="fil0" d="M3958.51 716.78l0 -81.62 34.67 81.62 14.41 0 0 -99.97 -14.41 0 0 81.62 -34.67 -81.62 -14.41 0 0 99.97 14.41 0zm-2444.41 -431.92l2492.78 0 135 135 -134.29 134.28 -2494.2 0 -134.28 -134.28 134.99 -135zm835.56 600.43l55.09 -55.09 55.09 55.09 -55.09 55.09 -55.09 -55.09zm557.07 0l52.32 -52.33 52.33 52.33 -52.33 52.32 -52.32 -52.32zm799.26 290.02l24.99 -38.74c-53.88,0 -80.11,0 -133.99,0l24.99 38.74c37.22,0 46.79,0 84.01,0zm-2104.34 -139.53l-8.33 0 0 -124.12 32.91 0 0 124.12 -9.49 0 -15.09 0zm459.37 30.91l0 116.48 -8.07 0 0 -116.48 4.03 4.04 4.04 -4.04zm689.07 0l0 116.48 -8.07 0 0 -116.48 4.03 4.04 4.04 -4.04zm711.91 0l0 116.48 -8.07 0 0 -116.48 4.03 4.04 4.04 -4.04zm-2041.16 253.68l-7.66 10.4c-8.59,-9.96 -18.22,-16.96 -28.84,-21l6.25 -9c13.27,5.36 23.36,11.9 30.25,19.6zm-66.06 -554.18c-225.78,225.78 -451.63,451.49 -677.41,677.27l-48.27 -48.29 -145.2 -145.2 -48.28 -48.27 48.28 -48.28c72.75,-72.75 145.51,-145.51 218.26,-218.27l96.55 96.56 -169.98 169.99 48.64 48.64c161.86,-161.85 322.59,-322.6 484.26,-484.27 -161.77,-161.78 -322.9,-322.89 -484.26,-484.26l-48.65 48.64 170.04 170.06 -96.55 96.55c-72.77,-72.78 -145.55,-145.55 -218.32,-218.33l-48.27 -48.28 48.27 -48.27 145.2 -145.2 48.28 -48.28c225.81,225.82 451.59,451.67 677.41,677.49zm-314.42 -617.26l148.93 -148.93 148.93 148.93 -148.93 148.92 -148.93 -148.92zm-46.74 736.62l-120.47 -120.47 120.47 -120.47 120.47 120.47 -120.47 120.47zm-897.07 -22.91l-96.56 -96.56 96.56 -96.57 96.56 96.56 -96.56 96.57zm847.93 -267.12l-73.63 73.63 -96.93 96.92 169.58 169.59 -96.55 96.55c-88.77,-88.77 -177.47,-177.32 -266.22,-266.06l0.08 -0.08 -0.01 -0.01c89.04,-89.05 178.07,-178.04 267.12,-267.1l96.56 96.56zm-290.97 290.98l-218.26 218.27 -0.02 -0.01 -48.27 48.27 -48.28 -48.27 -145.2 -145.21 -48.28 -48.27 48.28 -48.28 96.92 -96.93 -96.92 -96.92 -48.28 -48.29 48.28 -48.26 145.21 -145.21 48.28 -48.28 48.28 48.28 218.31 218.32 -96.55 96.56 -170.04 -170.04 -48.65 48.64 144.28 144.29 -0.94 0.92 0.92 0.92 -144.28 144.28 48.66 48.64 169.99 -169.98 96.56 96.56zm3522.04 465.47l-45.24 0 0 26.06 32.76 0 0 57.71 -12.12 0 0 -9.9 -53.62 0 0 10.36 -12.19 0 0 -58.17 32.97 0 0 -26.06 -45.16 0 0 -11.15 45.16 0 0 -20.65c-6.02,0.85 -17.33,1.57 -33.9,2.19l-6.43 -11.45c35.59,-0.16 62.9,-4.71 81.92,-13.7l8.51 8.87c-15.89,7.05 -28.51,11.35 -37.9,12.87l0 21.87 45.24 0 0 11.15zm-24.6 62.72l0 -25.44 -53.62 0 0 25.44 53.62 0zm-70.74 -91.58l-8.52 8.41c-7.75,-9.23 -17.2,-16.01 -28.3,-20.3l8.14 -7.96c11.53,4.19 21.07,10.8 28.68,19.85zm-12.35 36.2l-8.67 8.35c-6.36,-9.95 -15.53,-17.3 -27.51,-22.05l9.44 -8.04c12.52,6.07 21.42,13.31 26.74,21.74zm6.72 19.03c-6.08,21.67 -15.9,39.51 -29.45,53.55l-9.76 -6.83c13.79,-14.43 23.5,-31.54 29.12,-51.35l10.09 4.63zm-131.09 48.25l-132.08 0 0 -11.3 57.14 0 0 -33.02 -41.42 0 0 -11.35 41.42 0 0 -29.04 -31.18 0c-3.11,8.69 -10.33,18.85 -21.58,30.46l-12.19 -6.36c17.92,-15.54 27.7,-34.8 29.31,-57.71l12.12 3.54c0,4.01 -1.13,10.27 -3.37,18.8l26.89 0 0 -33.09 12.2 0 0 33.09 52.52 0 0 11.27 -52.52 0 0 29.04 45.02 0 0 11.35 -45.02 0 0 33.02 62.74 0 0 11.3zm-317.24 -99.55c-10.24,20.87 -21.45,37.49 -33.61,49.93l0.32 0.31 27.83 -4.19 0 10.99 -44.47 7.65 -4.99 -10.29c6.57,-4.91 14.73,-14.09 24.54,-27.58l-19.55 2.19c-2.59,-6 -4.27,-9.64 -4.99,-10.91 11.6,-13.99 20.7,-30.3 27.26,-48.99l12.59 5.14c-9.44,19.29 -17.68,33.3 -24.78,42.04 1.41,0 7.33,-0.62 17.74,-1.89 3.66,-6.2 7.26,-12.87 10.81,-20.01l11.3 5.61zm79.74 19.55c0,0.15 -1.06,2.43 -3.23,6.83 -2.14,4.39 -4.21,8.14 -6.24,11.27l-11.87 -5.74c4.06,-4.6 6.85,-8.61 8.35,-12.05l-49.94 0 0 0.16c5.69,2.97 11.88,8.24 18.59,15.82l-8.98 7.88c-6.04,-7.52 -12.97,-13.8 -20.78,-18.79l5.25 -5.07 -13.44 0 0 -11.38 30.7 0 0 -11.89 -27.05 0 0 -11.35 27.05 0 0 -15.54 12.19 0 0 15.54 33.46 0 0 11.35 -33.46 0 0 11.89 39.4 0 0 11.07zm6.41 80.31l-10.41 8.24c-11.66,-11.76 -23.69,-20.24 -36.01,-25.44 -8.35,14.12 -27.02,22.81 -56.05,26.04l-4.94 -11.9c2.14,0 7.42,-0.69 15.85,-2.12 8.41,-1.39 16.06,-4.29 22.94,-8.63 6.85,-4.34 11.87,-9.72 15,-16.13l-36.5 0 0 -11.28 39.86 0c0.93,-6.25 1.57,-17.81 1.87,-34.62l11.89 0.31c-0.37,15.65 -0.96,27.1 -1.81,34.31l34.78 0 0 11.28 -36.82 0 -1.48 3.25c18.86,7.89 32.81,16.78 41.83,26.69zm-61.68 -51.69l-8.43 8.71c-5.69,-6.36 -13.41,-12.38 -23.21,-18.09 3.54,-4.94 5.58,-7.84 6.08,-8.72 8.92,4.06 17.45,10.09 25.56,18.1zm-29.93 33.28l-45.08 14.09 -8.06 -10.71c32.3,-8.71 50.02,-13.7 53.14,-14.91l0 11.53zm-142.56 -18.05l-42.28 0 0 26.53 -12.2 0 0 -26.53 -43.69 0 0 -11.27 43.69 0 0 -15.23 -32.59 0 0 -9.46c5.89,-13.19 9.42,-21.57 10.56,-25.16l-20 0 0 -11.27 23.81 0c2.3,-6.98 3.85,-13.09 4.62,-18.34l11.71 4.84 -4.13 13.5 54.39 0 0 11.27 -58.28 0c-3.67,9.85 -6.78,17.61 -9.4,23.27l19.31 0 0 -17.2 12.2 0 0 17.2 30.08 0 0 11.35 -30.08 0 0 15.23 42.28 0 0 11.27zm-101.05 -59.98l-9.93 6.82c-6.45,-10.7 -13.81,-19.13 -22.06,-25.31l9.16 -7.58c9.28,7.04 16.88,15.72 22.83,26.07zm106.28 89.45l-6.88 12.29 -66.43 0c-7.6,0 -15.66,-1.61 -24.14,-4.81 -8.51,-3.21 -15.31,-7.6 -20.49,-13.16 -7.34,6.77 -13.85,12.3 -19.52,16.6l-8.14 -8.41c12.56,-9.95 19.85,-15.85 21.87,-17.66l0 -43.77 -18.35 0 0 -11.3 30.55 0 0 56.29c10.43,9.95 24.51,14.92 42.28,14.92l52.76 0c2.34,0 7.84,-0.34 16.49,-0.99zm-234.94 -73.99l-133.64 0 0 -11.3 42.89 0c-6.2,-7.21 -9.77,-11.09 -10.7,-11.66l4.62 -2.79 -26.13 0 0 -11.3 49.97 0 0 -13.78 12.2 0 0 13.78 49.93 0 0 11.3 -25.48 0 2.72 1.88c-2.13,4.5 -5.11,8.69 -8.98,12.57l42.6 0 0 11.3zm-46.89 -25.75l-41.12 0c4.37,3.67 7.9,8.5 10.54,14.45l20.16 0c4.65,-4.03 8.11,-8.87 10.42,-14.45zm25.15 75.57l-44.07 0c5.89,2.22 11.39,6.15 16.48,11.76l-9.44 7.79c-3.92,-5.69 -10.99,-10.63 -21.26,-14.77l5.31 -4.78 -37.13 0 0 -43.77 90.11 0 0 43.77zm-12.03 -27.64l0 -5.38 -66.11 0 0 5.38 66.11 0zm0 16.29l0 -6.67 -66.11 0 0 6.67 66.11 0zm40.33 37.26l-9.15 8.35c-6.67,-9.85 -15.53,-16.89 -26.57,-21.07l9.61 -7.94c8.83,2.97 17.52,9.85 26.11,20.66zm-108.33 -12.1c-7.29,8.58 -17.77,15.28 -31.4,20.14l-6.88 -10.53c13.44,-3.28 23.47,-9.12 30.09,-17.5l8.19 7.89zm71.03 3.85c-2.02,7.52 -4.37,12.64 -7.01,15.33 -2.67,2.72 -6.94,4.06 -12.83,4.06l-33.75 0c-8.24,-0.9 -12.35,-6.39 -12.35,-16.44l0 -12.41 12.03 0 0 13.18c0,2.92 1.33,4.4 3.98,4.4l31.02 0c2.35,0 4.09,-1.68 5.18,-5.02l2.34 -7.42 11.39 4.32zm-244.21 -61.87l-8.38 9.62c-2.14,-3 -5.5,-7.04 -10.08,-12.13 -0.51,22.93 -1.36,36.69 -2.51,41.32 -1.14,4.62 -3.07,8.06 -5.77,10.29 -2.71,2.25 -5.75,3.38 -9.15,3.38 -2.07,0 -6.45,-1 -13.12,-3.02 -0.75,-3.54 -1.55,-7.76 -2.43,-12.67 6.03,2.59 10.22,3.88 12.52,3.88 3.06,0 5.09,-1.99 6.13,-5.95 1.02,-3.98 1.52,-13.16 1.52,-27.61l-29.39 0 0 55.59c0,2.69 1.01,4.03 3.03,4.03l39 0c1.26,0 2.36,-0.62 3.28,-1.84 0.94,-1.21 1.47,-2.5 1.58,-3.93l0.61 -12.12 11.98 6.67c-0.96,14.4 -5.47,21.59 -13.6,21.59l-46.05 0c-8.11,0 -12.19,-4.04 -12.19,-12.13l0 -61.87c-3.39,3.13 -8.45,6.62 -15.23,10.52l-7.66 -10.36c21.37,-9.26 37.05,-29.01 47.06,-59.26l10.38 4.62 -3.82 12.6c17.93,11.99 32.02,24.92 42.29,38.78zm-19.72 -4.47c-7.29,-8.9 -16.24,-17.33 -26.89,-25.32 -4.61,9.21 -10.88,17.74 -18.76,25.6l45.65 -0.28zm59.86 77.09c0,3.29 -1.06,5.9 -3.23,7.81 -2.15,1.92 -4.46,2.87 -6.85,2.87l-17.26 0 -3.68 -11.66 16.27 0.83c1.71,0 2.57,-1.71 2.57,-5.15l0 -122.11 12.18 0 0 127.41zm-24.83 -23.16l-12.12 0 0 -80.46 12.12 0 0 80.46zm-203.06 -22.44l-16.04 0 0 -15.52 16.04 0 0 15.52zm-107.73 25.54l-35.55 0 0 30.9 -12.59 0 0 -30.9 -43.76 0 0 -11.3 6.25 0 -7.98 -8.4c11.79,-4.71 19.93,-9.23 24.46,-13.63l-15.46 0 0 -60.01 21.74 0c4.71,-3.98 9.07,-9.35 12.95,-16.13l12.04 3.72c-2.24,4.3 -5.23,8.43 -8.99,12.41l36.66 0 0 60.01 -41.81 0c-4.27,7.42 -14.57,14.77 -30.86,22.03l34.76 0 0 -19.39 12.59 0 0 19.39 35.55 0 0 11.3zm-22.43 -70.07l0 -11.97 -18.05 0 -0.62 11.97 18.67 0zm-29.93 -11.97l-20.17 0 0 11.97 19.56 0 0.61 -11.97zm29.93 37.42l0 -14.17 -19.68 0c-1.15,5.92 -2.38,10.62 -3.69,14.17l23.37 0zm-31.8 -14.17l-18.3 0 0 14.17 13 0c2.29,-3.93 4.05,-8.67 5.3,-14.17zm-33.29 2.51l-30.73 0c-0.13,3.02 -0.21,10.08 -0.21,21.12l23.36 0 0 64.69 -12.11 0 0 -53.39 -11.57 0c-0.66,21.35 -6.19,39.4 -16.49,54.16 -2.66,-1.11 -6.43,-3.13 -11.33,-6.07 5.03,-7.01 9.01,-15.46 11.86,-25.37 2.88,-9.9 4.19,-29.63 4.01,-59.15l-0.32 -40.83 12.43 0 0 33.46 9.61 0 0 -40.75 12.18 0 0 40.75 9.31 0 0 11.38zm-171.63 5.76l-90.91 0 0 -51.06 90.91 0 0 51.06zm-10.57 -10.08l0 -30.9 -69.25 0 0 30.9 69.25 0zm27.05 90.9l-12.11 0 0 -10.75 -30.41 0 0 10.75 -12.19 0 0 -69.39 54.71 0 0 69.39zm-12.11 -22.05l0 -35.99 -30.41 0 0 35.99 30.41 0zm-56.98 22.65l-12.19 0 0 -10.52 -29.48 0 0 11.14 -12.11 -0.31 0 -69.84 53.78 0 0 69.53zm-12.19 -21.9l0 -36.28 -29.48 0 0 36.28 29.48 0zm-141.17 -79.89l-80.48 0c0,6.31 -0.35,14.84 -1.02,25.59l60.24 0c-0.35,16.11 -1.76,30.77 -4.17,44.01 -2.42,13.24 -5.41,21.25 -8.9,24.1 -3.53,2.81 -7.28,4.24 -11.32,4.24 -5.3,0 -14.99,-1.74 -29.07,-5.18l-2.41 -13.78c14.07,4.97 23.64,7.42 28.77,7.42 2.02,0 3.78,-0.77 5.28,-2.37 1.47,-1.58 3.03,-6.73 4.72,-15.39 1.66,-8.66 2.64,-19.21 2.96,-31.7l-47.06 0c-3.67,19.11 -9.76,33.62 -18.19,43.57 -8.46,9.95 -19.29,17.3 -32.52,22.03l-8.35 -11.12c14.22,-5.02 24.46,-11.25 30.71,-18.74 6.24,-7.5 10.66,-15.57 13.28,-24.2 2.61,-8.64 3.89,-24.8 3.89,-48.48l-40.01 0 0 -11.3 57.78 0 0 -24.02 12.2 0 0 24.02 63.67 0 0 11.3zm-239.96 96.18l-13.12 0 0 -12.05 -94.86 0 0 12.51 -13.28 0 0 -119.91 121.26 0 0 119.45zm-13.12 -58.02l0 -49.62 -25.07 0 0 45.3c0,2.87 1.44,4.32 4.29,4.32l20.78 0zm0 34.62l0 -22.81 -24.47 0c-8.43,0 -12.64,-3.98 -12.64,-11.97l0 -49.46 -20.49 0 0 18.49c0,28.78 -9.6,47.6 -28.83,56.44l-8.59 -7.14 0 16.45 95.02 0zm-70.4 -57.58l0 -26.66 -24.62 0 0 64.69c16.41,-7.42 24.62,-20.09 24.62,-38.03zm-142.96 27.66l-101.44 0 0 7.58 -12.2 0 0 -47.5c-3.12,3.39 -7.18,6.91 -12.11,10.6l-9.93 -6.98c13.64,-9.54 24.95,-23.96 33.92,-43.3l10.85 4.16c-1.55,3.77 -3.58,7.63 -6.09,11.51l34.63 0c2.44,-5.2 4.24,-10.37 5.4,-15.52l12.03 4.01c-0.57,3.02 -1.9,6.85 -3.99,11.51l46.42 0 0 11.29 -51.11 0 0 6.73 41.03 0 0 10.67 -41.03 0 0 6.08 41.49 0 0 11.27 -41.49 0 0 7.14 53.62 0 0 10.75zm-65.72 -45.91l0 -6.73 -35.28 0 0 6.73 35.28 0zm0 16.75l0 -6.08 -35.72 0 0 6.08 35.72 0zm0 18.41l0 -7.27 -36.04 0 0.15 7.27 35.89 0zm74.72 52.33l-6.28 10.68c-29.18,-5.1 -49.24,-14.97 -60.18,-29.61l0 37.03 -12.11 0 0 -37.34c-12.45,14.69 -32.36,24.82 -59.7,30.38l-6.88 -10.68c21.2,-3.59 38.52,-10.73 51.96,-21.43l-44.62 0 0 -11.3 59.24 0 0 -6.36 12.11 0 0 6.36 59.73 0 0 11.3 -45.64 0c11.55,10.55 29.02,17.53 52.37,20.97zm-237.53 7.73l-84.8 0 0 -121.34 78.37 0 0 11.2 -66.27 0 0 99 72.7 0 0 11.14zm-102.47 -73.4l-6.56 9.93c-9.29,-9.85 -19.58,-16.73 -30.89,-20.61l6.43 -9.31c12.53,4.29 22.88,10.96 31.02,19.99zm6.73 25c-9.55,26.66 -20.57,45.32 -33.08,55.98l-9.28 -8.48c13.39,-12.78 24.09,-30.15 32.11,-52.13l10.25 4.63zm2031.68 -398.76l0 -116.48 8.07 0 0 116.48 -4.04 -4.03 -4.03 4.03zm-35.07 44.24l39.1 -39.11 39.11 39.11 -39.11 39.11 -39.1 -39.11zm22.34 0l16.76 -16.77 16.77 16.77 -16.77 16.77 -16.76 -16.77zm-699.18 -44.24l0 -116.48 8.07 0 0 116.48 -4.04 -4.03 -4.03 4.03zm-35.08 44.24l39.11 -39.11 39.11 39.11 -39.11 39.11 -39.11 -39.11zm22.34 0l16.77 -16.77 16.77 16.77 -16.77 16.77 -16.77 -16.77zm-676.33 -44.24l0 -116.48 8.07 0 0 116.48 -4.04 -4.03 -4.03 4.03zm-35.08 44.24l39.11 -39.11 39.11 39.11 -39.11 39.11 -39.11 -39.11zm22.34 0l16.77 -16.77 16.77 16.77 -16.77 16.77 -16.77 -16.77zm-446.89 59.56l8.33 0 15.09 0 87.79 0 0 -170.35 22.49 0 0 170.35 93.3 0 16.24 -46.23 -31.24 0 0 -124.12 33.32 0 0 261.98 80.8 0 0 -302.38 -406.92 0 0 302.38 306.13 0 19.99 -39.57 -245.32 0 0 -52.06zm2153.8 98.3c68.3,-4.17 113.7,-25.83 141.19,-59.98l49.98 57.06 56.64 0 13.51 -40.81 -32.26 0 -34.14 -37.49 66.22 0 0 -36.65 -91.63 0c6.25,-22.5 8.34,-47.9 7.5,-74.97l-63.31 0c-1.66,30.82 -4.99,55.39 -11.66,74.97l-103.29 0 0 36.65 83.3 0c-17.91,19.99 -43.73,30.82 -82.05,38.31l0 42.91zm-1.25 -239.08l0 34.99 198.25 0 0 78.44 62.06 -19.26 0 -94.17 -96.63 0 0 -21.24 90.38 0 0 -31.65 -90.38 0 0 -17.91 -67.47 0 0 17.91 -90.38 0 0 31.65 90.38 0 0 21.24 -96.21 0zm-16.66 52.48l0 -37.48 -50.4 0 57.06 -82.47 -72.05 0 -63.31 89.97 0 29.98 56.23 0 -61.23 87.88 0 29.99 130.78 0 0 -37.07 -52.47 0 55.39 -80.8zm16.66 -9.58l0 32.07 94.54 0 10.42 -32.07 -104.96 0zm0 39.15l0 31.66 94.54 0 10.42 -31.66 -104.96 0zm-842.93 152.03l-19.34 -38.74c15.8,0 31.61,0 47.41,0l0 -169.8 -22.07 0 0 -39.57 20.36 0 29.75 29.76 29.76 -29.76 14.67 0 0 248.11c-33.51,0 -67.02,0 -100.54,0zm120.53 -279.48l0 37.91 38.74 0 -32.49 63.31 0 34.56 114.12 0 0 30.41 -120.37 0 0 37.9 120.37 0 0 27.91 74.14 0 0 -27.91 89.54 0 0 -37.9 -89.54 0 0 -30.41 78.3 0 13.75 -39.15 -92.05 0 0 -37.07 -74.14 0 0 37.07 -34.57 0 30.82 -58.72 167.43 0 0 -37.91 -147.85 0 12.08 -22.48 -78.3 0 -11.67 22.48 -58.31 0zm271.98 279.48l24.99 -38.74 -315.71 0 24.99 38.74 265.73 0zm-850.28 -38.74l54.57 0 0 -122.45 -139.61 0 -26.22 161.37 -128.69 0.09 -8.97 -39.01 60.99 0.02 32.51 -201.19 -95.22 0 0 -36.65 148.22 0 36.66 36.65 -6.37 0 -6.66 42.07 216.66 0 0 198.23 -118.29 0 -16.77 -33.51 -2.81 -5.62zm21.57 -237.82l141.78 0 0 36.65 -178.43 0 36.65 -36.65zm-720.98 -555.9l-50.92 0 0 178.24 -50.42 0 0 -178.24 -50.92 0 0 -24.95 152.26 0 0 24.95zm170.35 178.24l-50.41 0 0 -101.85 -51.44 0 0 101.85 -50.42 0 0 -203.19 50.42 0 0 76.39 51.44 0 0 -76.39 50.41 0 0 203.19zm170.35 0l-152.26 0 0 -203.19 152.26 0 0 24.95 -101.85 0 0 51.44 101.85 0 0 24.95 -101.85 0 0 76.9 101.85 0 0 24.95zm307.85 0l-152.26 0 0 -203.19 152.26 0 0 75.88 -50.41 0 0 -50.93 -51.43 0 0 153.29 51.43 0 0 -50.93 50.41 0 0 75.88zm170.36 0l-152.27 0 0 -203.19 152.27 0 0 203.19zm-50.93 -25.46l0 -152.27 -50.41 0 0 152.27 50.41 0zm272.21 25.46l-126.81 0 0 -178.24 -25.97 0 0 178.24 -50.42 0 0 -203.19 126.81 0 0 178.24 25.96 0 0 -178.24 50.43 0 0 203.19zm170.35 -178.24l-50.92 0 0 178.24 -50.43 0 0 -178.24 -50.92 0 0 -24.95 152.27 0 0 24.95zm68.5 178.24l-50.42 0 0 -203.19 50.42 0 0 203.19zm221.28 0l-126.81 0 0 -178.24 -25.97 0 0 178.24 -50.42 0 0 -203.19 126.8 0 0 178.24 25.98 0 0 -178.24 50.42 0 0 203.19zm170.34 0l-152.26 0 0 -203.19 50.41 0 0 178.24 51.44 0 0 -178.24 50.41 0 0 203.19zm170.36 0l-152.27 0 0 -203.19 152.27 0 0 203.19zm-50.93 -25.46l0 -152.27 -50.42 0 0 152.27 50.42 0zm221.28 25.46l-152.27 0 0 -203.19 50.42 0 0 178.24 51.44 0 0 -178.24 50.41 0 0 203.19zm170.35 0l-152.27 0 0 -24.95 101.85 0 0 -76.9 -101.85 0 0 -101.34 152.27 0 0 24.95 -101.85 0 0 51.44 101.85 0 0 126.8zm-70.46 113.73c0,-6.75 1.95,-11.56 5.85,-14.41 3.3,-2.4 8.48,-3.6 15.54,-3.6l18.01 0c7.66,0 13.02,0.75 16.1,2.25 5.33,2.55 7.99,7.81 7.99,15.76l0 63.95c0,7.95 -2.66,13.21 -7.99,15.76 -3.08,1.5 -8.44,2.25 -16.1,2.25l-17.45 0c-6.75,0 -11.71,-0.9 -14.86,-2.7 -4.73,-2.71 -7.09,-7.81 -7.09,-15.31l0 -63.95zm14.41 69.91c0,2.33 0.71,3.79 2.14,4.39 0.75,0.3 2.55,0.45 5.4,0.45l17.45 0c4.36,0 6.98,-0.18 7.88,-0.56 1.2,-0.52 1.8,-1.84 1.8,-3.94l0 -76.56c0,-2.47 -1.09,-3.97 -3.26,-4.5 -0.3,0 -2.44,0 -6.42,0l-16.66 0c-3.23,0 -5.18,0.12 -5.85,0.34 -1.66,0.52 -2.48,2.03 -2.48,4.5l0 75.88zm-68.15 12.05l31.52 0 0 -7.32 -8.56 0 0 -85.33 8.56 0 0 -7.32 -31.52 0 0 7.32 8.55 0 0 85.33 -8.55 0 0 7.32zm-39.67 -92.65l18.68 0 0 -7.32 -51.78 0 0 7.32 18.69 0 0 85.33 -0.12 0 0 7.32 14.53 0 0 -92.65zm-67.03 92.65l14.86 0 -25.22 -99.97 -14.97 0 -25.22 99.97 14.86 0 3.27 -12.95 29.04 0 3.38 12.95zm-17.9 -70.37l12.72 50.1 -25.45 0 12.73 -50.1zm-51.94 38.06l0 14.3c0,7.95 -2.67,13.21 -8,15.76 -3.07,1.5 -8.44,2.25 -16.1,2.25l-17.45 0c-6.75,0 -11.7,-0.9 -14.86,-2.7 -4.73,-2.71 -7.09,-7.81 -7.09,-15.31l0 -63.95c0,-6.75 1.95,-11.56 5.85,-14.41 3.31,-2.4 8.49,-3.6 15.54,-3.6l18.01 0c7.66,0 13.03,0.75 16.1,2.25 5.33,2.55 8,7.81 8,15.76l0 14.3 -14.41 0 0 -20.58c0,-2.5 -1.09,-4 -3.27,-4.53 -0.3,0 -2.44,0 -6.42,0l-16.66 0c-3.22,0 -5.17,0.12 -5.85,0.34 -1.65,0.52 -2.48,2.03 -2.48,4.5l0 75.88c0,2.33 0.71,3.79 2.14,4.39 0.75,0.3 2.55,0.45 5.4,0.45l17.45 0c4.36,0 6.98,-0.18 7.89,-0.56 1.19,-0.52 1.8,-1.84 1.8,-3.94l0 -20.6 14.41 0zm-117.24 32.31l31.52 0 0 -7.32 -8.56 0 0 -85.33 8.56 0 0 -7.32 -31.52 0 0 7.32 8.55 0 0 85.33 -8.55 0 0 7.32zm-73.56 0l0 -81.62 34.68 81.62 14.41 0 0 -99.97 -14.41 0 0 81.62 -34.68 -81.62 -14.41 0 0 99.97 14.41 0zm-87.29 -12.05c0,2.33 0.71,3.79 2.14,4.39 0.75,0.3 2.55,0.45 5.4,0.45l17.45 0c4.36,0 6.98,-0.18 7.88,-0.56 1.2,-0.52 1.8,-1.84 1.8,-3.94l0 -87.81 14.41 0 0 81.51c0,7.95 -2.66,13.21 -7.99,15.76 -3.08,1.5 -8.44,2.25 -16.1,2.25l-17.45 0c-6.75,0 -11.71,-0.9 -14.86,-2.7 -4.73,-2.71 -7.09,-7.81 -7.09,-15.31l0 -81.51 14.41 0 0 87.47zm-128.39 -87.92l0 99.97 14.41 0 0 -88.94 22.97 88.94 15.19 0 22.97 -88.94 0 88.94 14.41 0 0 -99.97 -28.37 0 -16.66 68.56 -16.55 -68.56 -28.37 0zm-114.31 0l0 99.97 14.41 0 0 -88.94 22.96 88.94 15.2 0 22.97 -88.94 0 88.94 14.41 0 0 -99.97 -28.37 0 -16.66 68.56 -16.55 -68.56 -28.37 0zm-87.29 18.01c0,-6.75 1.95,-11.56 5.85,-14.41 3.3,-2.4 8.48,-3.6 15.53,-3.6l18.02 0c7.65,0 13.02,0.75 16.1,2.25 5.32,2.55 7.99,7.81 7.99,15.76l0 63.95c0,7.95 -2.67,13.21 -7.99,15.76 -3.08,1.5 -8.45,2.25 -16.1,2.25l-17.45 0c-6.76,0 -11.71,-0.9 -14.86,-2.7 -4.73,-2.71 -7.09,-7.81 -7.09,-15.31l0 -63.95zm14.41 69.91c0,2.33 0.71,3.79 2.14,4.39 0.74,0.3 2.55,0.45 5.4,0.45l17.45 0c4.35,0 6.98,-0.18 7.88,-0.56 1.2,-0.52 1.8,-1.84 1.8,-3.94l0 -76.56c0,-2.47 -1.09,-3.97 -3.26,-4.5 -0.31,0 -2.45,0 -6.42,0l-16.66 0c-3.23,0 -5.18,0.12 -5.86,0.34 -1.65,0.52 -2.47,2.03 -2.47,4.5l0 75.88zm-268.53 -5.93c0,7.94 -2.67,13.2 -7.98,15.73 -3.15,1.5 -8.53,2.25 -16.19,2.25l-17.41 0c-6.74,0 -11.69,-0.9 -14.84,-2.7 -4.71,-2.71 -7.08,-7.81 -7.08,-15.31l0 -63.95c0,-6.75 1.96,-11.56 5.86,-14.41 3.3,-2.4 8.48,-3.6 15.53,-3.6l18.02 0c7.65,0 13.02,0.75 16.1,2.25 5.32,2.55 7.99,7.81 7.99,15.76l0 14.3 -14.41 0 0 -20.58c0,-2.5 -1.09,-4 -3.26,-4.53 -0.31,0 -2.45,0 -6.42,0l-16.66 0c-3.23,0 -5.19,0.12 -5.86,0.34 -1.65,0.52 -2.47,2.03 -2.47,4.5l0 75.88c0,2.33 0.71,3.79 2.13,4.39 0.75,0.3 2.56,0.45 5.41,0.45l17.45 0c4.35,0 6.98,-0.18 7.88,-0.56 1.2,-0.52 1.8,-1.84 1.8,-3.94l0 -34.11 -22.74 0 0 -7.21 37.15 0 0 35.05zm-138.4 17.98l0 -81.62 34.67 81.62 14.41 0 0 -99.97 -14.41 0 0 81.62 -34.67 -81.62 -14.41 0 0 99.97 14.41 0zm-68.27 0l31.52 0 0 -7.32 -8.55 0 0 -85.33 8.55 0 0 -7.32 -31.52 0 0 7.32 8.56 0 0 85.33 -8.56 0 0 7.32zm-73.56 0l0 -81.62 34.68 81.62 14.41 0 0 -99.97 -14.41 0 0 81.62 -34.68 -81.62 -14.41 0 0 99.97 14.41 0zm-87.51 0l0 -81.62 34.67 81.62 14.41 0 0 -99.97 -14.41 0 0 81.62 -34.67 -81.62 -14.41 0 0 99.97 14.41 0zm-49.58 0l14.86 0 -25.22 -99.97 -14.97 0 -25.22 99.97 14.86 0 3.27 -12.95 29.04 0 3.38 12.95zm-17.9 -70.37l12.72 50.1 -25.45 0 12.73 -50.1zm-86.5 63.16l0 -92.76 -14.41 0 0 99.97 52.23 0 0 -7.21 -37.82 0zm-320.1 7.21l0 -81.62 34.68 81.62 14.41 0 0 -99.97 -14.41 0 0 81.62 -34.68 -81.62 -14.41 0 0 99.97 14.41 0zm-37.08 -17.98c0,7.94 -2.66,13.2 -7.97,15.73 -3.16,1.5 -8.54,2.25 -16.2,2.25l-17.41 0c-6.74,0 -11.69,-0.9 -14.84,-2.7 -4.71,-2.71 -7.08,-7.81 -7.08,-15.31l0 -63.95c0,-6.75 1.96,-11.56 5.86,-14.41 3.3,-2.4 8.48,-3.6 15.54,-3.6l18.01 0c7.66,0 13.02,0.75 16.1,2.25 5.33,2.55 7.99,7.81 7.99,15.76l0 14.3 -14.41 0 0 -20.58c0,-2.5 -1.09,-4 -3.26,-4.53 -0.3,0 -2.44,0 -6.42,0l-16.66 0c-3.23,0 -5.18,0.12 -5.86,0.34 -1.65,0.52 -2.47,2.03 -2.47,4.5l0 75.88c0,2.33 0.71,3.79 2.13,4.39 0.76,0.3 2.56,0.45 5.41,0.45l17.45 0c4.35,0 6.98,-0.18 7.88,-0.56 1.2,-0.52 1.8,-1.84 1.8,-3.94l0 -34.11 -22.74 0 0 -7.21 37.15 0 0 35.05zm-119.15 17.98l31.52 0 0 -7.32 -8.56 0 0 -85.33 8.56 0 0 -7.32 -31.52 0 0 7.32 8.55 0 0 85.33 -8.55 0 0 7.32zm-86.17 -81.96c0,-6.75 1.96,-11.56 5.86,-14.41 3.3,-2.4 8.48,-3.6 15.53,-3.6l18.02 0c7.65,0 13.02,0.75 16.09,2.25 5.33,2.55 8,7.81 8,15.76l0 14.3 -14.41 0 0 -20.58c0,-2.5 -1.09,-4 -3.27,-4.53 -0.3,0 -2.44,0 -6.41,0l-16.67 0c-3.22,0 -5.17,0.12 -5.85,0.34 -1.65,0.52 -2.48,2.03 -2.48,4.52l0 30.47c0,2.5 1.13,3.96 3.38,4.41 0.38,0.08 2.48,0.11 6.3,0.11l15.32 0c7.65,0 13.02,0.76 16.09,2.26 5.33,2.53 8,7.79 8,15.72l0 16.96c0,7.94 -2.67,13.2 -8,15.73 -3.07,1.5 -8.44,2.25 -16.09,2.25l-12.05 0 0 0 -3.27 0c-7.65,0 -13.02,-0.75 -16.09,-2.25 -5.33,-2.58 -8,-7.85 -8,-15.82l0 -14.35 14.41 0 0 20.69c0,2.5 1.13,3.96 3.38,4.41 0.38,0.08 2.48,0.11 6.3,0.11l10.14 0 0 0 5.18 0c4.35,0 6.98,-0.18 7.88,-0.56 1.2,-0.52 1.8,-1.84 1.8,-3.94l0 -29.49c0,-2.48 -1.09,-3.99 -3.27,-4.51 -0.3,-0.07 -2.44,-0.11 -6.41,-0.11l-15.32 0c-7.65,0 -13.02,-0.75 -16.09,-2.25 -5.33,-2.56 -8,-7.81 -8,-15.76l0 -18.13zm-65.56 74.75l0 -38.5 34.67 0 0 -7.32 -34.67 0 0 -39.74 49.08 0 0 -7.2 -63.49 0 0 99.97 63.49 0 0 -7.21 -49.08 0zm1383.7 -25.1l0 14.3c0,7.95 -2.66,13.21 -7.99,15.76 -3.08,1.5 -8.44,2.25 -16.1,2.25l-17.45 0c-6.75,0 -11.71,-0.9 -14.86,-2.7 -4.73,-2.71 -7.09,-7.81 -7.09,-15.31l0 -63.95c0,-6.75 1.95,-11.56 5.85,-14.41 3.3,-2.4 8.48,-3.6 15.54,-3.6l18.01 0c7.66,0 13.02,0.75 16.1,2.25 5.33,2.55 7.99,7.81 7.99,15.76l0 14.3 -14.41 0 0 -20.58c0,-2.5 -1.09,-4 -3.26,-4.53 -0.3,0 -2.44,0 -6.42,0l-16.66 0c-3.23,0 -5.18,0.12 -5.85,0.34 -1.66,0.52 -2.48,2.03 -2.48,4.5l0 75.88c0,2.33 0.71,3.79 2.14,4.39 0.75,0.3 2.55,0.45 5.4,0.45l17.45 0c4.35,0 6.98,-0.18 7.88,-0.56 1.2,-0.52 1.8,-1.84 1.8,-3.94l0 -20.6 14.41 0zm-129.4 -67.66l-7.65 0 -30.4 99.97 7.65 0 30.4 -99.97zm-711.06 99.97l-14.41 0 0 -99.97 39.4 0c7.66,0 13.02,0.75 16.1,2.25 5.33,2.55 7.99,7.81 7.99,15.76l0 25.45c0,7.95 -2.66,13.2 -7.99,15.76 -3.08,1.5 -8.44,2.24 -16.1,2.24l-24.99 0 0 38.51zm24.99 -45.71c4.35,0 6.98,-0.19 7.88,-0.56 1.2,-0.53 1.8,-1.84 1.8,-3.96l0 -38.01c0,-2.5 -1.09,-4 -3.26,-4.53 -0.31,0 -2.45,0 -6.42,0l-24.99 0 0 47.06 24.99 0zm-105.31 -54.26l-7.66 0 -30.39 99.97 7.65 0 30.4 -99.97zm-564.29 99.97l0 -99.97 39.4 0c7.66,0 13.03,0.75 16.1,2.25 5.33,2.55 8,7.81 8,15.76l0 63.95c0,7.95 -2.67,13.21 -8,15.76 -3.07,1.5 -8.44,2.25 -16.1,2.25l-39.4 0zm39.4 -7.21c4.36,0 6.99,-0.18 7.89,-0.56 1.2,-0.52 1.8,-1.84 1.8,-3.94l0 -76.56c0,-2.47 -1.09,-3.97 -3.27,-4.5 -0.3,0 -2.44,0 -6.42,0l-24.99 0 0 85.56 24.99 0z"/>
 </g>
</svg>
