<?xml version="1.0" encoding="utf-8"?>
<!-- Generator: Adobe Illustrator 21.0.0, SVG Export Plug-In . SVG Version: 6.00 Build 0)  -->
<svg version="1.1" id="Layer_1" xmlns="http://www.w3.org/2000/svg" xmlns:xlink="http://www.w3.org/1999/xlink" x="0px" y="0px"
	 viewBox="0 0 70 70" style="enable-background:new 0 0 70 70;" xml:space="preserve">
<style type="text/css">
	.st0{fill:#34B0E6;}
	.st1{fill:#FEFEFE;}
	.st2{fill:#CFEBFA;}
	.st3{fill:#2F318B;}
</style>
<g id="图层_x0020_1">
	<path class="st0" d="M69.4,10.9c0-5.3-4.3-9.7-9.7-9.7L11,1c-5.3,0-9.7,4.3-9.7,9.7L1.1,48.7c0,4.6,3.2,8.5,7.6,9.5L7.5,68.7
		l19.6-10.2l32.4,0.1c5.3,0,9.7-4.3,9.7-9.7C69.3,49,69.4,10.9,69.4,10.9z"/>
	<path class="st1" d="M11.1,54.4c-3.2,0-5.9-2.6-5.9-5.9L5,10.6c0-3.2,2.6-5.9,5.9-5.9l48.6-0.2c3.2,0,5.9,2.6,5.9,5.9l0.2,38
		c0,3.2-2.6,5.9-5.9,5.9C59.7,54.2,11.1,54.4,11.1,54.4z"/>
	<path class="st2" d="M59.5,3.4L10.8,3.6C7,3.7,3.9,6.8,4,10.6l0.2,38c0,3.8,3.2,6.9,7,6.9l48.6-0.2c3.8,0,6.9-3.1,6.9-6.9l-0.2-38
		C66.4,6.5,63.3,3.4,59.5,3.4z M59.5,5.5c2.7,0,4.8,2.2,4.8,4.8l0.2,38c0,2.7-2.2,4.9-4.8,4.9l-48.6,0.2c-2.7,0-4.8-2.2-4.8-4.8
		L6,10.6c0-2.7,2.2-4.9,4.8-4.9C10.9,5.7,59.5,5.5,59.5,5.5z"/>
	<path class="st3" d="M56.7,29.1c-7.1,7.2-14.1,14.5-21.2,21.7L34,49.4l-4.7-4.5l-1.6-1.5l1.5-1.6c2.3-2.3,4.5-4.7,6.8-7l3.1,3
		l-5.3,5.5l1.5,1.5c5-5.2,10.1-10.4,15.1-15.6c-5.2-5-10.4-10.1-15.6-15.1l-1.5,1.6L39,21l-3,3.1c-2.4-2.3-4.7-4.5-7-6.8l-1.6-1.5
		l1.5-1.5l4.5-4.7L35,8C42.2,15,49.5,22.1,56.7,29.1z M45.3,33.1l-3.9-3.8l3.8-3.9l3.9,3.8C49.1,29.2,45.3,33.1,45.3,33.1z
		 M16.9,32.8l-3.1-3l3-3.1l3.1,3L16.9,32.8z M43.6,23.9l-2.3,2.4l-3,3.1l5.4,5.3l-3,3.1c-2.8-2.8-5.7-5.5-8.5-8.3l0,0l0,0
		c2.8-2.8,5.5-5.7,8.3-8.6C40.5,20.9,43.6,23.9,43.6,23.9z M34.6,33.3l-6.8,7l0,0l-1.5,1.5l-1.6-1.5L20,35.8l-1.6-1.5l1.5-1.6
		l3.1-3.1l-3.1-3l-1.6-1.5l1.5-1.5l4.5-4.7l1.5-1.5l1.5,1.5l7,6.8l-3,3.1L26,23.4L24.5,25l4.7,4.5l0,0l0,0l-4.5,4.7l1.6,1.5l5.3-5.5
		C31.5,30.2,34.6,33.3,34.6,33.3z"/>
</g>
</svg>
