<?xml version="1.0" encoding="UTF-8"?>
<!DOCTYPE svg PUBLIC "-//W3C//DTD SVG 1.1//EN" "http://www.w3.org/Graphics/SVG/1.1/DTD/svg11.dtd">
<!-- Creator: CorelDRAW 2017 -->
<svg xmlns="http://www.w3.org/2000/svg" xml:space="preserve" width="792px" height="458px" version="1.1" style="shape-rendering:geometricPrecision; text-rendering:geometricPrecision; image-rendering:optimizeQuality; fill-rule:evenodd; clip-rule:evenodd"
viewBox="0 0 75.96 43.9"
 xmlns:xlink="http://www.w3.org/1999/xlink">
 <defs>
  <style type="text/css">
   <![CDATA[
    .fil2 {fill:#332C2B}
    .fil0 {fill:#757475;fill-rule:nonzero}
    .fil1 {fill:#332C2B;fill-rule:nonzero}
    .fil3 {fill:#2F318B;fill-rule:nonzero}
   ]]>
  </style>
 </defs>
 <g id="图层_x0020_1">
  <metadata id="CorelCorpID_0Corel-Layer"/>
  <path class="fil0" d="M0.94 0.92l0 -0.57 -0.4 0 0 0.71 0.4 -0.14zm0.54 0.21l-0.94 0.32 0 0.77 -0.54 0 0 -2.22 1.04 0c0.14,0 0.25,0.03 0.33,0.08 0.07,0.05 0.11,0.13 0.11,0.22l0 0.83z"/>
  <path id="1" class="fil0" d="M6.3 0.89l0 -0.54 -0.4 0 0 0.67 0.4 -0.13zm0.54 1.33l-0.54 0 0 -0.94 -0.4 0.14 0 0.8 -0.54 0 0 -1.92c0,-0.09 0.03,-0.17 0.11,-0.22 0.08,-0.05 0.18,-0.08 0.32,-0.08l0.61 0c0.14,0 0.24,0.03 0.32,0.08 0.08,0.05 0.12,0.13 0.12,0.22l0 1.92z"/>
  <path id="2" class="fil0" d="M10.76 0.3c0,-0.09 0.04,-0.17 0.11,-0.22 0.08,-0.05 0.19,-0.08 0.33,-0.08l0.6 0c0.14,0 0.25,0.03 0.33,0.08 0.07,0.05 0.11,0.13 0.11,0.22l0 0.29 -0.54 0.19 0 -0.43 -0.4 0 0 1.52 0.4 0 0 -0.32 0.54 -0.19 0 0.55c0,0.1 -0.04,0.18 -0.11,0.23 -0.08,0.05 -0.19,0.08 -0.33,0.08l-0.6 0c-0.14,0 -0.25,-0.03 -0.33,-0.08 -0.07,-0.05 -0.11,-0.13 -0.11,-0.23l0 -1.61z"/>
  <polygon id="3" class="fil0" points="16.7,2.22 16.16,2.22 16.16,0 16.7,0 16.7,0.81 17.24,0 17.81,0 17.18,0.93 17.97,2.22 17.41,2.22 16.89,1.28 16.7,1.58 "/>
  <path id="4" class="fil0" d="M22.53 0.89l0 -0.54 -0.4 0 0 0.67 0.4 -0.13zm0.54 1.33l-0.54 0 0 -0.94 -0.4 0.14 0 0.8 -0.54 0 0 -1.92c0,-0.09 0.04,-0.17 0.12,-0.22 0.07,-0.05 0.18,-0.08 0.32,-0.08l0.6 0c0.14,0 0.25,0.03 0.33,0.08 0.07,0.05 0.11,0.13 0.11,0.22l0 1.92z"/>
  <path id="5" class="fil0" d="M26.99 0.3c0,-0.09 0.04,-0.17 0.12,-0.22 0.08,-0.05 0.18,-0.08 0.32,-0.08l0.6 0c0.14,0 0.25,0.03 0.33,0.08 0.08,0.05 0.12,0.13 0.12,0.22l0 0.32 -0.55 0.19 0 -0.46 -0.39 0 0 1.52 0.39 0 0 -0.5 -0.22 0.07 0 -0.4 0.77 -0.25 0 1.43 -1.05 0c-0.14,0 -0.24,-0.03 -0.32,-0.08 -0.08,-0.05 -0.12,-0.13 -0.12,-0.23l0 -1.61z"/>
  <polygon id="6" class="fil0" points="32.95,2.22 32.4,2.22 32.4,0 32.95,0 "/>
  <path id="7" class="fil0" d="M37.41 2.22l-0.53 0 0 -2.22 0.53 0 0.01 0.18c0.01,-0.06 0.04,-0.11 0.1,-0.14 0.05,-0.03 0.12,-0.04 0.21,-0.04l0.18 0c0.14,0 0.25,0.03 0.33,0.08 0.08,0.05 0.11,0.13 0.11,0.22l0 1.92 -0.54 0 0 -1.87 -0.4 0 0 1.87z"/>
  <path id="8" class="fil0" d="M42.28 0.3c0,-0.09 0.03,-0.17 0.11,-0.22 0.08,-0.05 0.18,-0.08 0.32,-0.08l0.61 0c0.13,0 0.24,0.03 0.32,0.08 0.08,0.05 0.12,0.13 0.12,0.22l0 0.32 -0.55 0.19 0 -0.46 -0.39 0 0 1.52 0.39 0 0 -0.5 -0.22 0.07 0 -0.4 0.77 -0.25 0 1.43 -1.05 0c-0.14,0 -0.24,-0.03 -0.32,-0.08 -0.08,-0.05 -0.11,-0.13 -0.11,-0.23l0 -1.61z"/>
  <path id="9" class="fil0" d="M49.68 0c0.13,0 0.24,0.03 0.32,0.08 0.08,0.05 0.12,0.13 0.12,0.22l0 1.61c0,0.1 -0.04,0.18 -0.12,0.23 -0.08,0.05 -0.18,0.08 -0.32,0.08l-1.04 0 0 -2.22 1.04 0zm-0.1 0.35l-0.4 0 0 1.52 0.4 0 0 -1.52z"/>
  <polygon id="10" class="fil0" points="55.34,2.22 54.04,2.22 54.04,0 55.34,0 55.34,0.35 54.58,0.35 54.58,0.93 55.34,0.67 55.34,1.06 54.58,1.33 54.58,1.86 55.34,1.86 "/>
  <path id="11" class="fil0" d="M59.2 0.3c0,-0.09 0.04,-0.17 0.12,-0.22 0.07,-0.05 0.18,-0.08 0.32,-0.08l0.6 0c0.14,0 0.25,0.03 0.33,0.08 0.08,0.05 0.11,0.13 0.11,0.22l0 0.06 -0.54 0.19 0 -0.2 -0.4 0 0 0.56 0.94 -0.33 0 1.33c0,0.1 -0.03,0.18 -0.11,0.23 -0.08,0.05 -0.19,0.08 -0.33,0.08l-0.6 0c-0.14,0 -0.25,-0.03 -0.32,-0.08 -0.08,-0.05 -0.12,-0.13 -0.12,-0.23l0 -0.2 0.54 -0.19 0 0.35 0.4 0 0 -0.7 -0.94 0.33 0 -1.2z"/>
  <polygon id="12" class="fil0" points="65.15,2.22 64.61,2.22 64.61,0 65.15,0 "/>
  <path id="13" class="fil0" d="M69.07 0.3c0,-0.09 0.04,-0.17 0.11,-0.22 0.08,-0.05 0.19,-0.08 0.33,-0.08l0.6 0c0.14,0 0.25,0.03 0.33,0.08 0.07,0.05 0.11,0.13 0.11,0.22l0 0.32 -0.54 0.19 0 -0.46 -0.4 0 0 1.52 0.4 0 0 -0.5 -0.22 0.07 0 -0.4 0.76 -0.25 0 1.43 -1.04 0c-0.14,0 -0.25,-0.03 -0.33,-0.08 -0.07,-0.05 -0.11,-0.13 -0.11,-0.23l0 -1.61z"/>
  <path id="14" class="fil0" d="M75.02 2.22l-0.54 0 0 -2.22 0.54 0 0 0.18c0.02,-0.06 0.05,-0.11 0.1,-0.14 0.05,-0.03 0.13,-0.04 0.22,-0.04l0.18 0c0.14,0 0.25,0.03 0.32,0.08 0.08,0.05 0.12,0.13 0.12,0.22l0 1.92 -0.54 0 0 -1.87 -0.4 0 0 1.87z"/>
  <path class="fil1" d="M55.29 28l-2.32 0 0 0.41c0.03,0.57 -0.13,0.97 -0.5,1.2l0 -0.15c0.22,-0.21 0.32,-0.53 0.3,-0.96l0 -0.63 0.62 0c-0.08,-0.17 -0.13,-0.34 -0.15,-0.52l0.2 0c0.01,0.17 0.06,0.34 0.14,0.52l0.82 0c0.09,-0.18 0.13,-0.35 0.14,-0.52l0.2 0c-0.02,0.18 -0.06,0.35 -0.15,0.52l0.7 0 0 0.13zm-2.71 -0.83l0 -0.14 1.29 0 0 -0.29 0.21 0 0 0.29 1.29 0 0 0.14 -2.79 0z"/>
  <path id="1" class="fil1" d="M58.15 27.45l0 -0.45 -1.63 0 0 0.73 1.38 0c0.17,0.01 0.26,-0.08 0.25,-0.28zm-1.83 0.43l0 -1.01 2.02 0 0 0.61c0,0.27 -0.14,0.41 -0.43,0.4l-1.59 0zm0.63 1.29l0 -0.77 -0.72 0 0 0.97 0.51 0c0.15,0.01 0.22,-0.05 0.21,-0.2zm-0.91 0.35l0 -1.25 1.1 0 0 0.92c0.01,0.23 -0.12,0.34 -0.38,0.33l-0.72 0zm2.42 -0.35l0 -0.77 -0.75 0 0 0.97 0.54 0c0.15,0.01 0.22,-0.05 0.21,-0.2zm-0.92 0.35l0 -1.25 1.11 0 0 0.92c0,0.23 -0.12,0.34 -0.38,0.33l-0.73 0z"/>
  <path id="2" class="fil1" d="M60.32 27.85l0.55 0c-0.01,-0.15 -0.02,-0.32 -0.04,-0.5l-0.46 0 0 -0.13 0.45 0c0,-0.15 -0.01,-0.31 -0.01,-0.48l0.2 0c0,0.06 0,0.14 0.01,0.25 0,0.1 0,0.18 0,0.23l0.56 0 0 -0.41 0.17 0 0 0.41 0.35 0 0 0.13 -1.07 0c0,0.18 0.01,0.35 0.03,0.5l1.12 0 0 0.14 -1.11 0c0.03,0.26 0.07,0.49 0.12,0.7 0.01,0.02 0.02,0.04 0.03,0.07 0.01,0.04 0.02,0.09 0.04,0.15 0.2,-0.15 0.4,-0.37 0.58,-0.66l0.21 0c-0.2,0.36 -0.45,0.63 -0.73,0.81 0.12,0.25 0.28,0.38 0.46,0.39 0.17,0.01 0.26,-0.09 0.25,-0.29l0.16 0c0,0.3 -0.13,0.45 -0.4,0.44 -0.26,-0.01 -0.47,-0.16 -0.62,-0.45 -0.16,0.09 -0.43,0.2 -0.83,0.34l0 -0.13c0.31,-0.1 0.57,-0.21 0.77,-0.35 -0.02,-0.04 -0.04,-0.11 -0.07,-0.21 -0.01,-0.05 -0.03,-0.09 -0.03,-0.11 -0.05,-0.2 -0.1,-0.43 -0.13,-0.7l-0.56 0 0 -0.14zm-0.08 0.75c-0.29,0.06 -0.58,0.08 -0.88,0.06l0 -0.15c0.2,-0.21 0.36,-0.42 0.48,-0.63 -0.06,0.01 -0.25,0.01 -0.55,0.01l0 -0.15c0.26,-0.32 0.45,-0.65 0.57,-1l0.2 0c-0.14,0.36 -0.33,0.69 -0.59,1 0.16,0.01 0.31,0 0.45,-0.01 -0.02,0 -0.01,0 0.02,0 0.07,-0.13 0.13,-0.26 0.19,-0.4l0.2 0c-0.2,0.49 -0.46,0.88 -0.79,1.18 0.25,0 0.48,-0.01 0.7,-0.03l0 0.12zm0.08 0.59c-0.3,0.07 -0.63,0.11 -1,0.11l0 -0.15c0.35,0 0.68,-0.03 1,-0.1l0 0.14z"/>
  <path id="3" class="fil1" d="M62.84 27.9l0 -0.13 2.64 0 0 0.13 -1.16 0 0 0.6 1.04 0 0 0.14 -1.04 0 0 0.73 1.26 0 0 0.14 -1.28 0c-0.5,0.02 -0.84,-0.16 -1.03,-0.52 -0.11,0.21 -0.29,0.41 -0.56,0.62l0 -0.15c0.36,-0.31 0.54,-0.75 0.54,-1.32l0.2 0c-0.01,0.26 -0.04,0.48 -0.1,0.66 0.16,0.36 0.42,0.55 0.76,0.56l0 -1.46 -1.27 0zm2.66 -0.85l0 0.5 -0.2 0 0 -0.36 -2.27 0 0 0.36 -0.19 0 0 -0.5 1.22 0 0 -0.3 0.2 0 0 0.3 1.24 0z"/>
  <path id="4" class="fil1" d="M68.64 27.59c-0.05,0.74 -0.16,1.32 -0.33,1.74l0.73 0 0 0.13 -2.12 0 0 -0.13 0.71 0c-0.19,-0.52 -0.3,-1.1 -0.35,-1.74l0.2 0c0.03,0.68 0.14,1.26 0.31,1.74l0.35 0c0.18,-0.62 0.28,-1.2 0.3,-1.74l0.2 0zm-2.09 2.02l0 -1.96c-0.12,0.11 -0.27,0.2 -0.45,0.28l0 -0.13c0.39,-0.24 0.62,-0.59 0.7,-1.06l0.19 0c-0.07,0.27 -0.15,0.49 -0.25,0.66l0 2.21 -0.19 0zm0.44 -2.31l0 -0.13 0.9 0 0 -0.4 0.23 0 0 0.4 0.82 0 0 0.13 -1.95 0z"/>
  <path id="5" class="fil1" d="M69.57 27.37l0 -0.14 0.41 0 0 -0.49 0.19 0 0 0.49 0.41 0 0 0.14 -0.41 0 0 0.63 0 0.06 0.45 0 0 0.14 -0.44 0c0.02,0.43 0.17,0.83 0.45,1.22l0 0.18c-0.27,-0.28 -0.45,-0.6 -0.55,-0.95 -0.11,0.38 -0.31,0.7 -0.58,0.95l0 -0.18c0.3,-0.35 0.46,-0.76 0.47,-1.22l-0.46 0 0 -0.14 0.47 0 0 -0.06 0 -0.63 -0.41 0zm1.2 1.32l0 -1.81 1.42 0 0 1.81 -0.18 0 0 -1.69 -1.07 0 0 1.69 -0.17 0zm0.63 -1.4l0.17 0 0 0.59c0,0.17 -0.01,0.33 -0.02,0.47l0.15 0 0 0.84c0,0.14 0.07,0.21 0.22,0.2l0.07 0c0.17,0.01 0.25,-0.06 0.24,-0.2l0 -0.1 0.15 0 0 0.1c0.01,0.22 -0.12,0.33 -0.37,0.32l-0.14 0c-0.24,0.01 -0.36,-0.1 -0.35,-0.33l0 -0.67c-0.07,0.44 -0.35,0.8 -0.82,1.09l0 -0.15c0.5,-0.32 0.73,-0.84 0.7,-1.57l0 -0.59z"/>
  <path id="6" class="fil1" d="M72.93 27.58l0 -0.13 0.46 0c-0.01,-0.07 -0.01,-0.19 -0.01,-0.36 -0.01,-0.15 -0.02,-0.26 -0.02,-0.35l0.2 0c0,0.33 0.01,0.57 0.02,0.71l1.02 0 0 0.13 -1.02 0c0.01,0.27 0.03,0.56 0.07,0.86 0.01,0.03 0.02,0.07 0.03,0.12 0.01,0.05 0.02,0.11 0.03,0.19 0.21,-0.19 0.4,-0.49 0.57,-0.9l0.18 0c-0.18,0.49 -0.41,0.84 -0.7,1.08 0.13,0.34 0.3,0.51 0.5,0.51 0.15,0 0.22,-0.1 0.22,-0.29l0.15 0c0,0.3 -0.12,0.45 -0.38,0.44 -0.27,0 -0.48,-0.18 -0.62,-0.54 -0.19,0.13 -0.41,0.25 -0.69,0.35l0 -0.1c0.25,-0.12 0.46,-0.26 0.64,-0.41 -0.04,-0.12 -0.08,-0.25 -0.1,-0.41 -0.05,-0.34 -0.08,-0.64 -0.09,-0.9l-0.46 0zm2.71 -0.83l0 2.49c0,0.22 -0.12,0.34 -0.35,0.34l-0.26 0 0 -0.13 0.22 0c0.14,0 0.21,-0.06 0.2,-0.17l0 -2.53 0.19 0zm-0.82 2.19l0 -1.95 0.18 0 0 1.95 -0.18 0zm-0.74 -2.12c0.08,0.12 0.14,0.28 0.17,0.48l-0.19 0c-0.02,-0.18 -0.07,-0.34 -0.13,-0.48l0.15 0z"/>
  <path id="7" class="fil1" d="M58.7 35.09l-2.33 0 0 0.41c0.04,0.56 -0.13,0.96 -0.5,1.2l0 -0.15c0.22,-0.22 0.32,-0.54 0.3,-0.97l0 -0.63 0.63 0c-0.08,-0.17 -0.13,-0.34 -0.15,-0.51l0.2 0c0.01,0.16 0.05,0.33 0.14,0.51l0.82 0c0.08,-0.18 0.13,-0.35 0.14,-0.51l0.2 0c-0.02,0.17 -0.07,0.34 -0.15,0.51l0.7 0 0 0.14zm-2.71 -0.84l0 -0.14 1.29 0 0 -0.29 0.21 0 0 0.29 1.28 0 0 0.14 -2.78 0z"/>
  <path id="8" class="fil1" d="M61.55 34.54l0 -0.46 -1.62 0 0 0.73 1.37 0c0.18,0.01 0.26,-0.08 0.25,-0.27zm-1.82 0.42l0 -1.01 2.01 0 0 0.61c0.01,0.28 -0.13,0.41 -0.42,0.4l-1.59 0zm0.63 1.3l0 -0.78 -0.73 0 0 0.98 0.51 0c0.15,0 0.22,-0.06 0.22,-0.2zm-0.91 0.35l0 -1.26 1.09 0 0 0.92c0.01,0.23 -0.11,0.34 -0.37,0.34l-0.72 0zm2.41 -0.35l0 -0.78 -0.74 0 0 0.98 0.53 0c0.15,0 0.22,-0.06 0.21,-0.2zm-0.92 0.35l0 -1.26 1.11 0 0 0.92c0.01,0.23 -0.11,0.34 -0.37,0.34l-0.74 0z"/>
  <path id="9" class="fil1" d="M64.06 35.65l-0.77 0 0 0.57c-0.01,0.17 0.08,0.25 0.27,0.24l1.55 0c0.19,0 0.28,-0.07 0.27,-0.23l0 -0.09 0.17 0 0 0.07c0.01,0.27 -0.12,0.4 -0.4,0.38l-1.65 0c-0.27,0.02 -0.41,-0.1 -0.4,-0.37l0 -1.55 1.31 0 0 0.63c0.01,0.24 -0.11,0.36 -0.35,0.35zm-1.36 -0.9l0 -0.13c0.38,-0.17 0.62,-0.44 0.72,-0.8l0.2 0c-0.03,0.12 -0.07,0.22 -0.11,0.29l1.71 0 0 1.45c0,0.26 -0.13,0.4 -0.39,0.4l-0.27 0 0 -0.14 0.22 0c0.16,0 0.24,-0.07 0.24,-0.22l0 -1.34 -1.6 0c-0.12,0.19 -0.36,0.35 -0.72,0.49zm1.52 0.57l0 -0.51 -0.93 0 0 0.7 0.73 0c0.13,0 0.2,-0.06 0.2,-0.19z"/>
  <path id="10" class="fil1" d="M66.12 36.32l0 -0.12c0.46,-0.17 0.81,-0.42 1.02,-0.74l-1.02 0 0 -0.13 1.33 0 0 -0.22 0.2 0 0 0.22 1.35 0 0 0.13 -1.62 0c-0.13,0.18 -0.27,0.33 -0.41,0.44l0 0.56c0.13,-0.02 0.33,-0.06 0.61,-0.11l0 0.11c-0.21,0.09 -0.48,0.17 -0.8,0.24l0 -0.67c-0.18,0.11 -0.4,0.21 -0.66,0.29zm1.18 -2.05l0 -0.12 0.75 0 0 -0.34 0.2 0 0 0.34 0.75 0 0 0.12 -0.75 0 0 0.58 0.65 0 0 0.12 -1.5 0 0 -0.12 0.65 0 0 -0.58 -0.75 0zm1.65 2.19l0 0.13c-0.72,-0.08 -1.21,-0.39 -1.46,-0.92l0.2 0c0.16,0.26 0.31,0.43 0.46,0.52 0.2,-0.12 0.34,-0.29 0.41,-0.51l0.2 0c-0.1,0.29 -0.27,0.48 -0.51,0.59 0.12,0.08 0.35,0.14 0.7,0.19zm-2.01 -1.35l0 -0.44c-0.22,0.12 -0.49,0.22 -0.79,0.31l0 -0.2c0.29,-0.06 0.56,-0.15 0.79,-0.27l0 -0.71 0.17 0 0 1.31 -0.17 0zm-0.16 -0.81c-0.18,-0.09 -0.38,-0.14 -0.58,-0.18l0 -0.11c0.16,0.01 0.35,0.04 0.58,0.1l0 0.19z"/>
  <path id="11" class="fil1" d="M70.52 35.28l0.21 0c0.15,0.33 0.34,0.59 0.58,0.78 0.29,-0.21 0.51,-0.5 0.65,-0.88l-1.55 0 0 -0.12 1.76 0 0 0.12c-0.18,0.44 -0.43,0.76 -0.74,0.98 0.21,0.14 0.54,0.28 0.98,0.41l0 0.11c-0.48,-0.13 -0.84,-0.27 -1.1,-0.42 -0.29,0.16 -0.64,0.3 -1.08,0.42l0 -0.11c0.45,-0.16 0.76,-0.3 0.94,-0.42 -0.25,-0.19 -0.47,-0.47 -0.65,-0.87zm1.22 -1.18l-0.86 0 0 0.27c0.03,0.29 -0.14,0.46 -0.51,0.54l0 -0.11c0.23,-0.07 0.34,-0.21 0.33,-0.43l0 -0.4 1.23 0 0 0.55c-0.01,0.13 0.05,0.19 0.16,0.18l0.28 0 0 0.12 -0.34 0c-0.19,0 -0.29,-0.09 -0.29,-0.28l0 -0.44zm-1.71 2.17c0.13,-0.06 0.27,-0.14 0.42,-0.24l0 0.14c-0.15,0.13 -0.35,0.25 -0.62,0.35l0 -1.65 -0.32 0 0 -0.12 0.52 0 0 1.52zm-0.12 -2.43c0.11,0.2 0.19,0.42 0.26,0.63l-0.19 0c-0.05,-0.2 -0.12,-0.41 -0.23,-0.63l0.16 0z"/>
  <path id="12" class="fil1" d="M75.82 34.8l0 0.15 -0.87 0 0 1.76 -0.21 0 0 -1.76 -0.88 0 0 -0.15 0.88 0 0 -0.98 0.21 0 0 0.98 0.87 0zm-2.3 1.54c0.19,-0.05 0.38,-0.14 0.58,-0.27l0 0.15c-0.21,0.16 -0.48,0.29 -0.78,0.39l0 -1.73 -0.4 0 0 -0.13 0.6 0 0 1.59zm-0.16 -2.5c0.1,0.17 0.19,0.39 0.27,0.64l-0.19 0c-0.06,-0.22 -0.14,-0.44 -0.24,-0.64l0.16 0z"/>
  <path id="13" class="fil1" d="M58.7 42.17l-2.33 0 0 0.41c0.04,0.56 -0.13,0.96 -0.5,1.2l0 -0.15c0.22,-0.22 0.32,-0.54 0.3,-0.96l0 -0.64 0.63 0c-0.08,-0.17 -0.13,-0.34 -0.15,-0.51l0.2 0c0.01,0.16 0.05,0.33 0.14,0.51l0.82 0c0.08,-0.18 0.13,-0.35 0.14,-0.51l0.2 0c-0.02,0.17 -0.07,0.34 -0.15,0.51l0.7 0 0 0.14zm-2.71 -0.84l0 -0.14 1.29 0 0 -0.28 0.21 0 0 0.28 1.28 0 0 0.14 -2.78 0z"/>
  <path id="14" class="fil1" d="M61.55 41.62l0 -0.45 -1.62 0 0 0.72 1.37 0c0.18,0.01 0.26,-0.08 0.25,-0.27zm-1.82 0.42l0 -1.01 2.01 0 0 0.61c0.01,0.28 -0.13,0.41 -0.42,0.4l-1.59 0zm0.63 1.3l0 -0.77 -0.73 0 0 0.97 0.51 0c0.15,0.01 0.22,-0.06 0.22,-0.2zm-0.91 0.35l0 -1.26 1.09 0 0 0.92c0.01,0.23 -0.11,0.35 -0.37,0.34l-0.72 0zm2.41 -0.35l0 -0.77 -0.74 0 0 0.97 0.53 0c0.15,0.01 0.22,-0.06 0.21,-0.2zm-0.92 0.35l0 -1.26 1.11 0 0 0.92c0.01,0.23 -0.11,0.35 -0.37,0.34l-0.74 0z"/>
  <path id="15" class="fil1" d="M65.45 41.03l0 2.28c0.01,0.29 -0.12,0.42 -0.39,0.42l-0.25 0 0 -0.13 0.21 0c0.15,0 0.23,-0.07 0.23,-0.21l0 -2.24 -2.07 0 0 1.71c0.02,0.4 -0.13,0.71 -0.47,0.92l0 -0.15c0.19,-0.16 0.28,-0.38 0.27,-0.67l0 -1.93 2.47 0zm-1.88 2.27l0 -0.76 1.28 0 0 0.39c0,0.26 -0.11,0.38 -0.35,0.37l-0.93 0zm-0.08 -1.71l0.62 0 0 -0.3 0.19 0 0 0.3 0.63 0 0 0.13 -0.63 0 0 0.38 0.77 0 0 0.13 -1.72 0 0 -0.13 0.76 0 0 -0.38 -0.62 0 0 -0.13zm1.17 1.39l0 -0.31 -0.9 0 0 0.51 0.71 0c0.14,0 0.2,-0.06 0.19,-0.2z"/>
  <path id="16" class="fil1" d="M67.03 41.39l0.6 0 0 -0.48 0.2 0 0 0.46 0 0.02 1 0 0 1.35c0.01,0.33 -0.13,0.48 -0.44,0.46l-0.24 0 0 -0.12 0.24 0c0.18,0 0.26,-0.09 0.25,-0.25l0 -1.3 -0.81 0c0.01,0.79 -0.28,1.37 -0.88,1.74l0 -0.15c0.48,-0.37 0.7,-0.9 0.68,-1.59l-0.6 0 0 -0.14zm-0.91 0.61l0 -0.12 0.57 0 0 1.17c0.01,0.3 0.18,0.46 0.51,0.47l1.8 0 0 0.15 -1.78 0c-0.31,0 -0.52,-0.1 -0.62,-0.28 -0.09,0.15 -0.24,0.26 -0.46,0.34l0 -0.11c0.25,-0.12 0.37,-0.3 0.35,-0.53l0 -1.09 -0.37 0zm0.41 -1.04c0.12,0.2 0.21,0.41 0.25,0.62l-0.19 0c-0.03,-0.2 -0.11,-0.41 -0.22,-0.62l0.16 0z"/>
  <path id="17" class="fil1" d="M70.52 42.37l0.21 0c0.15,0.32 0.34,0.58 0.58,0.77 0.29,-0.21 0.51,-0.5 0.65,-0.87l-1.55 0 0 -0.13 1.76 0 0 0.13c-0.18,0.43 -0.43,0.75 -0.74,0.97 0.21,0.14 0.54,0.28 0.98,0.41l0 0.11c-0.48,-0.13 -0.84,-0.27 -1.1,-0.42 -0.29,0.16 -0.64,0.3 -1.08,0.42l0 -0.11c0.45,-0.16 0.76,-0.3 0.94,-0.42 -0.25,-0.19 -0.47,-0.47 -0.65,-0.86zm1.22 -1.19l-0.86 0 0 0.27c0.03,0.29 -0.14,0.47 -0.51,0.54l0 -0.11c0.23,-0.07 0.34,-0.21 0.33,-0.43l0 -0.4 1.23 0 0 0.55c-0.01,0.13 0.05,0.19 0.16,0.18l0.28 0 0 0.12 -0.34 0c-0.19,0 -0.29,-0.09 -0.29,-0.28l0 -0.44zm-1.71 2.17c0.13,-0.06 0.27,-0.14 0.42,-0.24l0 0.14c-0.15,0.13 -0.35,0.25 -0.62,0.35l0 -1.65 -0.32 0 0 -0.12 0.52 0 0 1.52zm-0.12 -2.43c0.11,0.21 0.19,0.42 0.26,0.63l-0.19 0c-0.05,-0.2 -0.12,-0.41 -0.23,-0.63l0.16 0z"/>
  <path id="18" class="fil1" d="M75.82 41.88l0 0.15 -0.87 0 0 1.76 -0.21 0 0 -1.76 -0.88 0 0 -0.15 0.88 0 0 -0.97 0.21 0 0 0.97 0.87 0zm-2.3 1.55c0.19,-0.05 0.38,-0.15 0.58,-0.28l0 0.15c-0.21,0.16 -0.48,0.29 -0.78,0.39l0 -1.72 -0.4 0 0 -0.14 0.6 0 0 1.6zm-0.16 -2.51c0.1,0.17 0.19,0.39 0.27,0.65l-0.19 0c-0.06,-0.23 -0.14,-0.44 -0.24,-0.65l0.16 0z"/>
  <polygon id="19" class="fil2" points="52.33,29.59 75.96,29.59 75.96,29.74 52.33,29.74 "/>
  <polygon id="20" class="fil2" points="75.96,29.59 75.96,29.59 75.96,29.74 75.96,29.74 "/>
  <polygon id="21" class="fil2" points="55.74,36.67 55.74,36.67 55.74,36.82 55.74,36.82 "/>
  <polygon id="22" class="fil2" points="55.74,36.67 75.96,36.67 75.96,36.82 55.74,36.82 "/>
  <polygon id="23" class="fil2" points="75.96,36.67 75.96,36.67 75.96,36.82 75.96,36.82 "/>
  <polygon id="24" class="fil2" points="55.74,43.75 55.74,43.75 55.74,43.9 55.74,43.9 "/>
  <polygon id="25" class="fil2" points="55.74,43.75 75.96,43.75 75.96,43.9 55.74,43.9 "/>
  <path class="fil1" d="M33.87 17.92c-0.04,0.05 -0.07,0.1 -0.1,0.15 -0.24,-0.14 -0.41,-0.31 -0.51,-0.52l-0.01 0 0 0.61 -0.14 0 0 -0.61 0 0c-0.12,0.22 -0.31,0.4 -0.55,0.55 -0.03,-0.03 -0.06,-0.07 -0.11,-0.11 0.22,-0.12 0.39,-0.27 0.51,-0.44l-0.42 0 0 -0.13 0.57 0 0 -0.2 -0.23 0 0 0.06 -0.15 0 0 -0.68 -0.19 0 0 -0.13 0.19 0 0 -0.22 0.15 0 0 0.22 0.6 0 0 -0.22 0.15 0 0 0.22 0.2 0 0 0.13 -0.2 0 0 0.68 -0.15 0 0 -0.06 -0.23 0 0 0.2 0.59 0 0 0.13 -0.46 0c0.12,0.16 0.28,0.28 0.49,0.37zm-1.28 -0.16l-0.12 0.13c-0.05,-0.06 -0.1,-0.11 -0.16,-0.16 -0.09,0.15 -0.2,0.28 -0.34,0.4 -0.03,-0.04 -0.06,-0.09 -0.09,-0.13 0.14,-0.1 0.25,-0.23 0.33,-0.37 -0.09,-0.08 -0.17,-0.16 -0.26,-0.24 0.05,-0.17 0.09,-0.37 0.13,-0.6l-0.17 0 0 -0.14 0.19 0c0.03,-0.13 0.04,-0.26 0.06,-0.4l0.15 0.02c-0.02,0.14 -0.04,0.26 -0.06,0.38l0.31 0 0 0.12c-0.02,0.36 -0.08,0.63 -0.17,0.82 0.06,0.06 0.13,0.11 0.2,0.17zm-0.18 -0.97l-0.18 0c-0.05,0.24 -0.09,0.43 -0.13,0.56 0.06,0.04 0.12,0.09 0.18,0.14 0.07,-0.18 0.12,-0.41 0.13,-0.7zm0.47 0.31l0.6 0 0 -0.19 -0.6 0 0 0.19zm0 -0.31l0.6 0 0 -0.19 -0.6 0 0 0.19z"/>
  <path id="1" class="fil1" d="M38.07 17.65c-0.05,0.06 -0.08,0.11 -0.12,0.15 -0.26,-0.2 -0.45,-0.54 -0.57,-1.02l0 0.83 0.29 0 0 0.14 -0.29 0 0 0.4 -0.14 0 0 -0.4 -0.29 0 0 -0.14 0.29 0 0 -0.83 -0.01 0c-0.12,0.45 -0.32,0.8 -0.6,1.05 -0.03,-0.04 -0.06,-0.08 -0.1,-0.12 0.25,-0.23 0.44,-0.54 0.56,-0.93l-0.46 0 0 -0.14 0.61 0 0 -0.4 0.14 0 0 0.4 0.62 0 0 0.14 -0.49 0c0.12,0.41 0.31,0.7 0.56,0.87zm-1.97 -0.47c0.19,-0.28 0.33,-0.59 0.43,-0.94l0.14 0.04c-0.05,0.17 -0.1,0.32 -0.17,0.47l0 1.4 -0.14 0 0 -1.11c-0.06,0.11 -0.12,0.21 -0.19,0.3 -0.02,-0.05 -0.04,-0.11 -0.07,-0.16z"/>
  <path id="2" class="fil1" d="M40.87 17.44c0.18,-0.08 0.33,-0.17 0.48,-0.27l0 -0.9 0.17 0 0 0.77c0.2,-0.16 0.38,-0.34 0.53,-0.55l0.14 0.1c-0.19,0.25 -0.41,0.47 -0.67,0.66l0 0.55c0,0.09 0.05,0.13 0.14,0.13l0.25 0c0.09,0 0.14,-0.04 0.15,-0.12 0.02,-0.09 0.03,-0.19 0.04,-0.31 0.05,0.02 0.11,0.04 0.17,0.06 -0.01,0.11 -0.02,0.21 -0.04,0.3 -0.03,0.15 -0.12,0.22 -0.28,0.22l-0.33 0c-0.18,0 -0.27,-0.08 -0.27,-0.26l0 -0.45c-0.12,0.07 -0.25,0.14 -0.38,0.21 -0.03,-0.04 -0.06,-0.09 -0.1,-0.14zm-0.54 -0.24c0.22,-0.3 0.39,-0.62 0.5,-0.95l0.17 0.04c-0.07,0.17 -0.13,0.32 -0.21,0.46l0 1.4 -0.16 0 0 -1.11c-0.07,0.12 -0.15,0.23 -0.23,0.33 -0.02,-0.05 -0.05,-0.11 -0.07,-0.17z"/>
  <path id="3" class="fil1" d="M45.18 16.94c0.14,-0.2 0.26,-0.44 0.35,-0.7l0.15 0.05c-0.04,0.09 -0.08,0.17 -0.11,0.25l0.84 0c-0.02,0.66 -0.03,1.08 -0.04,1.23 -0.01,0.14 -0.04,0.23 -0.09,0.28 -0.06,0.05 -0.15,0.08 -0.29,0.08 -0.1,0 -0.21,0 -0.32,-0.01 -0.01,-0.05 -0.02,-0.11 -0.04,-0.17 0.13,0.01 0.25,0.02 0.35,0.02 0.09,0 0.15,-0.01 0.18,-0.04 0.04,-0.03 0.05,-0.09 0.06,-0.18 0.01,-0.18 0.02,-0.53 0.03,-1.07l-0.75 0c-0.07,0.14 -0.13,0.25 -0.2,0.34 -0.03,-0.02 -0.07,-0.05 -0.12,-0.08zm-0.64 0.53c0.13,-0.21 0.23,-0.44 0.28,-0.69l-0.27 0 0 -0.13 0.28 0 0 -0.39 0.13 0 0 0.39 0.25 0 0 0.13 -0.25 0 0 0.26 0.06 -0.05c0.08,0.08 0.18,0.16 0.27,0.25l-0.1 0.11c-0.08,-0.09 -0.16,-0.17 -0.23,-0.24l0 1.05 -0.13 0 0 -1.01c-0.07,0.21 -0.14,0.37 -0.23,0.49 -0.02,-0.05 -0.04,-0.11 -0.06,-0.17zm1.2 -0.28l0.12 -0.06c0.09,0.16 0.19,0.34 0.29,0.54l-0.14 0.07c-0.01,-0.03 -0.03,-0.07 -0.05,-0.1 -0.17,0.01 -0.33,0.02 -0.5,0.03 -0.04,0.01 -0.09,0.01 -0.17,0.03l-0.06 -0.14c0.04,-0.03 0.07,-0.06 0.1,-0.11 0.11,-0.16 0.21,-0.37 0.32,-0.61l0.14 0.06c-0.07,0.17 -0.19,0.38 -0.35,0.63 0.19,0 0.34,-0.01 0.47,-0.01 -0.06,-0.11 -0.11,-0.22 -0.17,-0.33z"/>
  <path id="4" class="fil1" d="M50.7 17.92c-0.05,0.06 -0.09,0.11 -0.13,0.15 -0.32,-0.11 -0.58,-0.28 -0.77,-0.51l0 0.61 -0.15 0 0 -0.62c-0.22,0.24 -0.48,0.42 -0.78,0.55 -0.03,-0.04 -0.07,-0.09 -0.12,-0.14 0.3,-0.1 0.56,-0.25 0.79,-0.44l-0.75 0 0 -0.14 0.86 0 0 -0.22 0.15 0 0 0.22 0.87 0 0 0.14 -0.77 0c0.21,0.2 0.48,0.34 0.8,0.4zm-0.86 -1.52l0.71 0 0 0.77 -0.14 0 0 -0.1 -0.42 0 0 0.1 -0.15 0 0 -0.77zm-1.03 0.05l0.28 0c0.01,-0.07 0.01,-0.14 0.01,-0.22l0.14 0c0,0.08 0,0.15 0,0.22l0.44 0c-0.01,0.18 -0.02,0.33 -0.02,0.44 -0.01,0.12 -0.04,0.2 -0.07,0.24 -0.04,0.04 -0.1,0.06 -0.2,0.06 -0.04,0 -0.09,-0.01 -0.15,-0.01 -0.01,-0.05 -0.02,-0.1 -0.03,-0.14 0.07,0.01 0.13,0.01 0.17,0.01 0.08,0 0.12,-0.04 0.13,-0.12 0.01,-0.13 0.01,-0.25 0.02,-0.34l-0.3 0c-0.01,0.27 -0.13,0.5 -0.37,0.69 -0.03,-0.03 -0.06,-0.07 -0.11,-0.11 0.2,-0.15 0.31,-0.34 0.33,-0.58l-0.27 0 0 -0.14zm1.6 0.08l-0.42 0 0 0.41 0.42 0 0 -0.41z"/>
  <path id="5" class="fil1" d="M53.19 16.32l1.5 0 0 1.06 -0.15 0 0 -0.07 -1.2 0 0 0.07 -0.15 0 0 -1.06zm0.28 1.16l0.15 0 0 0.34c0,0.09 0.04,0.14 0.12,0.14l0.42 0c0.08,0 0.13,-0.05 0.15,-0.14 0.01,-0.05 0.02,-0.12 0.03,-0.2 0.03,0.01 0.08,0.03 0.15,0.06 -0.02,0.1 -0.04,0.17 -0.05,0.22 -0.03,0.13 -0.12,0.2 -0.27,0.2l-0.47 0c-0.16,0 -0.23,-0.09 -0.23,-0.25l0 -0.37zm0.54 -0.31l0.53 0 0 -0.29 -0.53 0 0 0.29zm-0.67 0l0.52 0 0 -0.29 -0.52 0 0 0.29zm1.2 -0.71l-0.53 0 0 0.29 0.53 0 0 -0.29zm-1.2 0.29l0.52 0 0 -0.29 -0.52 0 0 0.29zm-0.2 0.72l0.16 0.05c-0.06,0.16 -0.12,0.32 -0.2,0.47 -0.04,-0.02 -0.08,-0.04 -0.14,-0.06 0.08,-0.15 0.14,-0.3 0.18,-0.46zm1.34 0.08l0.11 -0.09c0.09,0.09 0.19,0.21 0.32,0.37l-0.13 0.1c-0.09,-0.12 -0.19,-0.25 -0.3,-0.38zm-0.71 -0.13l0.11 -0.08c0.08,0.09 0.17,0.19 0.26,0.3l-0.13 0.1c-0.08,-0.11 -0.16,-0.22 -0.24,-0.32z"/>
  <path id="6" class="fil1" d="M57.74 17.03c0.17,-0.24 0.31,-0.5 0.43,-0.8l0.15 0.05c-0.05,0.11 -0.11,0.22 -0.16,0.32l0.92 0 0 0.13 -0.43 0 0 0.29 0.41 0 0 0.14 -0.41 0 0 0.29 0.41 0 0 0.13 -0.41 0 0 0.31 0.45 0 0 0.13 -0.99 0 0 0.13 -0.15 0 0 -1.18c-0.04,0.07 -0.08,0.13 -0.12,0.18 -0.02,-0.04 -0.06,-0.08 -0.1,-0.12zm-0.34 0.36c0.12,-0.01 0.26,-0.03 0.41,-0.04 -0.01,0.06 -0.02,0.11 -0.02,0.14 -0.24,0.02 -0.42,0.05 -0.55,0.07l-0.03 -0.14c0.07,-0.07 0.17,-0.21 0.28,-0.42 -0.11,0.01 -0.2,0.02 -0.28,0.02l-0.03 -0.12c0.12,-0.2 0.23,-0.42 0.33,-0.67l0.15 0.05c-0.11,0.24 -0.22,0.44 -0.32,0.61 0.05,0 0.12,0 0.22,-0.01 0.04,-0.08 0.09,-0.18 0.14,-0.28l0.14 0.06c-0.18,0.32 -0.33,0.57 -0.44,0.73zm0.71 0.5l0.39 0 0 -0.31 -0.39 0 0 0.31zm0 -0.44l0.39 0 0 -0.29 -0.39 0 0 0.29zm0 -0.43l0.39 0 0 -0.29 -0.39 0 0 0.29zm-0.92 0.85c0.2,-0.03 0.43,-0.08 0.67,-0.13 0,0.05 0,0.1 0,0.15 -0.26,0.05 -0.47,0.1 -0.63,0.13l-0.04 -0.15zm1.25 -1.56l0.12 -0.07c0.07,0.09 0.13,0.18 0.18,0.26l-0.13 0.08c-0.04,-0.08 -0.1,-0.17 -0.17,-0.27z"/>
  <path id="7" class="fil1" d="M62.51 16.36l0.69 0 0 0.89c0,0.14 -0.07,0.21 -0.2,0.21 -0.05,0 -0.13,0 -0.24,0 0,0 -0.01,-0.05 -0.02,-0.15 0.08,0.01 0.16,0.01 0.24,0.01 0.05,0 0.08,-0.03 0.08,-0.09l0 -0.11 -0.46 0c-0.03,0.14 -0.12,0.26 -0.25,0.37 -0.03,-0.03 -0.07,-0.07 -0.11,-0.1 0.11,-0.09 0.18,-0.18 0.22,-0.28 0.03,-0.1 0.05,-0.26 0.05,-0.49l0 -0.26zm-0.29 0.85l0 -0.06 -0.24 0c-0.04,0.15 -0.15,0.29 -0.34,0.42 -0.02,-0.04 -0.05,-0.08 -0.09,-0.12 0.15,-0.08 0.24,-0.18 0.29,-0.3l-0.29 0 0 -0.4 0.12 0 0 0.28 0.2 0c0.01,-0.07 0.02,-0.19 0.01,-0.36l-0.42 0 0 -0.13 0.28 0c-0.05,-0.08 -0.1,-0.16 -0.15,-0.21l0.11 -0.07c0.04,0.04 0.1,0.11 0.16,0.21l-0.11 0.07 0.26 0c0.07,-0.11 0.12,-0.2 0.16,-0.29l0.14 0.06c-0.04,0.05 -0.09,0.13 -0.16,0.23l0.28 0 0 0.13 -0.41 0c0,0.17 -0.01,0.28 -0.02,0.36l0.22 0 0 -0.29 0.13 0 0 0.47 -0.13 0zm-0.81 0.74l0.89 0 0 -0.21 -0.65 0 0 -0.13 0.65 0 0 -0.11 0.14 0 0 0.11 0.63 0 0 0.13 -0.63 0 0 0.21 0.88 0 0 0.13 -1.91 0 0 -0.13zm1.22 -0.95l0.43 0 0 -0.2 -0.41 0c-0.01,0.08 -0.01,0.14 -0.02,0.2zm0.43 -0.51l-0.41 0 0 0.19 0.41 0 0 -0.19z"/>
  <path id="8" class="fil1" d="M66.33 17.21l1 0 0 0.63 -0.15 0 0 -0.08 -0.7 0 0 0.08 -0.15 0 0 -0.63zm-0.17 -0.3l0.62 0 0 -0.26 -0.33 0c-0.04,0.08 -0.07,0.16 -0.11,0.23 -0.04,-0.03 -0.08,-0.05 -0.14,-0.07 0.1,-0.16 0.17,-0.33 0.21,-0.52l0.15 0.04c-0.02,0.06 -0.04,0.12 -0.06,0.18l0.28 0 0 -0.27 0.15 0 0 0.27 0.5 0 0 0.14 -0.5 0 0 0.26 0.6 0 0 0.14 -1.37 0 0 -0.14zm0.25 1.05l0.48 0.01 0.65 -0.02c-0.01,0.04 -0.03,0.09 -0.05,0.15l-0.65 0.01 -0.46 -0.01c-0.22,-0.01 -0.38,-0.08 -0.47,-0.23 -0.05,0.05 -0.13,0.13 -0.23,0.26l-0.08 -0.16c0.12,-0.11 0.2,-0.19 0.25,-0.24l0 -0.66 -0.23 0 0 -0.14 0.38 0 0 0.83c0.08,0.13 0.22,0.2 0.41,0.2zm0.77 -0.61l-0.7 0 0 0.28 0.7 0 0 -0.28zm-1.34 -1.08c0.07,0.08 0.16,0.21 0.28,0.37l-0.14 0.1c-0.11,-0.17 -0.19,-0.29 -0.26,-0.38l0.12 -0.09z"/>
  <path id="9" class="fil1" d="M70.02 17.02l0.92 0c0.09,-0.13 0.17,-0.26 0.24,-0.39l0.15 0.1c-0.07,0.1 -0.14,0.19 -0.22,0.29l0.58 0 0 0.14 -1.51 0 0 0.13c0,0.23 -0.02,0.4 -0.05,0.52 -0.04,0.12 -0.11,0.24 -0.21,0.35 -0.03,-0.04 -0.07,-0.08 -0.11,-0.13 0.08,-0.08 0.14,-0.18 0.17,-0.29 0.03,-0.11 0.04,-0.26 0.04,-0.45l0 -0.27zm-0.16 -0.56l0.89 0c-0.03,-0.05 -0.06,-0.11 -0.09,-0.16l0.14 -0.07c0.04,0.06 0.09,0.14 0.13,0.23l0.81 0 0 0.14 -1.88 0 0 -0.14zm0.41 0.25l0.13 -0.08c0.08,0.1 0.15,0.19 0.21,0.28l-0.14 0.1c-0.05,-0.09 -0.11,-0.19 -0.2,-0.3z"/>
  <path id="10" class="fil1" d="M74.33 16.32l1.34 0 0 0.77 -0.15 0 0 -0.06 -1.04 0 0 0.06 -0.15 0 0 -0.77zm0.79 0.93l0.75 0 0 0.9 -0.15 0 0 -0.13 -0.45 0 0 0.13 -0.15 0 0 -0.9zm-0.98 0l0.74 0 0 0.9 -0.15 0 0 -0.13 -0.44 0 0 0.13 -0.15 0 0 -0.9zm1.38 -0.79l-1.04 0 0 0.44 1.04 0 0 -0.44zm0.2 0.93l-0.45 0 0 0.51 0.45 0 0 -0.51zm-0.99 0l-0.44 0 0 0.5 0.44 0 0 -0.5z"/>
  <path id="11" class="fil1" d="M32.39 18.87l0.16 0.04c-0.03,0.07 -0.06,0.13 -0.09,0.2l1.13 0c-0.01,0.46 -0.02,0.78 -0.03,0.96 -0.02,0.22 -0.13,0.32 -0.33,0.32 -0.05,0 -0.14,0 -0.27,0 -0.01,-0.05 -0.02,-0.11 -0.04,-0.17 0.11,0.01 0.21,0.02 0.29,0.02 0.12,0 0.18,-0.06 0.19,-0.19 0.02,-0.17 0.03,-0.43 0.03,-0.8l-1.04 0c-0.04,0.08 -0.09,0.16 -0.15,0.24l0.82 0 0 0.57 -0.71 0 0 0.36c0,0.11 0.05,0.16 0.16,0.16l0.91 0c0.12,0 0.2,-0.04 0.22,-0.12 0.02,-0.07 0.03,-0.17 0.04,-0.29 0.06,0.02 0.11,0.04 0.16,0.06 -0.02,0.12 -0.03,0.21 -0.05,0.28 -0.03,0.15 -0.14,0.22 -0.33,0.22l-0.98 0c-0.19,0 -0.29,-0.09 -0.29,-0.28l0 -0.89c-0.06,0.09 -0.13,0.17 -0.2,0.25 -0.03,-0.05 -0.06,-0.1 -0.1,-0.13 0.23,-0.25 0.4,-0.52 0.5,-0.81zm0.51 0.75l-0.55 0 0 0.31 0.55 0 0 -0.31z"/>
  <path id="12" class="fil1" d="M36.04 20.46c0,0.05 0,0.11 0,0.15 -0.18,0.05 -0.31,0.09 -0.42,0.13 -0.04,0.01 -0.08,0.04 -0.14,0.06l-0.08 -0.11c0.03,-0.03 0.04,-0.08 0.04,-0.14l0 -0.15c-0.13,0.08 -0.28,0.15 -0.44,0.21 -0.03,-0.05 -0.06,-0.09 -0.09,-0.14 0.35,-0.11 0.62,-0.26 0.82,-0.45l-0.8 0 0 -0.13 0.92 0c-0.03,-0.05 -0.06,-0.1 -0.1,-0.14l0.13 -0.08c0.04,0.06 0.08,0.12 0.12,0.18l-0.06 0.04 0.9 0 0 0.13 -0.89 0c0.06,0.11 0.13,0.2 0.22,0.28 0.14,-0.07 0.28,-0.15 0.43,-0.22l0.08 0.14c-0.13,0.05 -0.26,0.1 -0.4,0.16 0.15,0.1 0.34,0.16 0.57,0.2 -0.04,0.05 -0.07,0.1 -0.11,0.14 -0.42,-0.08 -0.72,-0.29 -0.9,-0.62 -0.07,0.08 -0.16,0.14 -0.25,0.21l0 0.28c0.15,-0.04 0.3,-0.08 0.45,-0.13zm-0.28 -0.93l0.43 0 0 -0.26 -0.49 0 0 -0.14 0.49 0 0 -0.26 0.14 0 0 0.26 0.51 0 0 0.14 -0.51 0 0 0.26 0.44 0 0 0.13 -1.01 0 0 -0.13zm-0.3 -0.67l0.15 0 0 0.9 -0.15 0 0 -0.3c-0.14,0.08 -0.28,0.17 -0.44,0.26 -0.01,-0.03 -0.04,-0.08 -0.08,-0.14 0.19,-0.1 0.36,-0.19 0.52,-0.28l0 -0.44zm-0.46 0.2l0.1 -0.1c0.12,0.09 0.21,0.17 0.27,0.23l-0.12 0.11c-0.09,-0.1 -0.18,-0.18 -0.25,-0.24z"/>
  <path id="13" class="fil1" d="M38.89 19.43l0.2 0c0,-0.1 0.01,-0.29 0.01,-0.55l0.14 0c0,0.24 0,0.43 -0.01,0.55l0.57 0 0 0.14 -0.34 0 0 0.94c0,0.06 0.02,0.09 0.07,0.09l0.06 0c0.06,0 0.09,-0.04 0.1,-0.12 0.02,-0.08 0.02,-0.17 0.03,-0.3 0.09,0.04 0.14,0.06 0.14,0.06 -0.01,0.12 -0.02,0.21 -0.03,0.29 -0.02,0.14 -0.09,0.21 -0.22,0.21l-0.13 0c-0.11,0 -0.17,-0.07 -0.17,-0.21l0 -0.96 -0.08 0c-0.01,0.52 -0.16,0.93 -0.44,1.23 -0.04,-0.03 -0.08,-0.07 -0.12,-0.11 0.27,-0.28 0.41,-0.66 0.42,-1.12l-0.2 0 0 -0.14zm-0.83 0.01l0.78 0 0 0.59 -0.14 0 0 -0.05 -0.18 0 0 0.58c0,0.13 -0.07,0.2 -0.2,0.2 -0.06,0 -0.12,0 -0.17,-0.01 -0.01,-0.05 -0.02,-0.1 -0.03,-0.15 0.06,0.01 0.11,0.02 0.18,0.02 0.05,0 0.08,-0.03 0.08,-0.09l0 -0.55 -0.18 0 0 0.05 -0.14 0 0 -0.59zm-0.11 -0.3l0.48 0c-0.04,-0.07 -0.08,-0.15 -0.12,-0.22l0.13 -0.06c0.04,0.07 0.09,0.14 0.12,0.21l-0.12 0.07 0.51 0 0 0.13 -1 0 0 -0.13zm0.75 0.43l-0.5 0 0 0.28 0.5 0 0 -0.28zm-0.55 0.53l0.12 0.05c-0.06,0.16 -0.13,0.31 -0.22,0.43 -0.03,-0.02 -0.07,-0.04 -0.12,-0.06 0.08,-0.13 0.16,-0.27 0.22,-0.42zm1.2 -1.03l0.09 -0.1c0.1,0.07 0.2,0.15 0.3,0.23l-0.1 0.11c-0.06,-0.05 -0.16,-0.13 -0.29,-0.24zm-0.77 1.07l0.11 -0.07c0.08,0.1 0.14,0.18 0.19,0.26l-0.12 0.09c-0.05,-0.09 -0.11,-0.18 -0.18,-0.28z"/>
  <path id="14" class="fil1" d="M41.24 18.95l1.33 0 0 0.81 -0.15 0 0 -0.08 -1.03 0 0 0.08 -0.15 0 0 -0.81zm0.1 1.1l0.15 0.04c-0.02,0.07 -0.05,0.14 -0.07,0.2 0.09,0.16 0.24,0.25 0.44,0.28l0 -0.58 -0.89 0 0 -0.14 1.87 0 0 0.14 -0.83 0 0 0.19 0.7 0 0 0.14 -0.7 0 0 0.27c0.25,0 0.54,0 0.87,-0.01 -0.02,0.05 -0.04,0.11 -0.05,0.15 -0.39,0 -0.68,0 -0.89,0 -0.27,-0.01 -0.47,-0.11 -0.59,-0.31 -0.09,0.16 -0.2,0.29 -0.34,0.39 -0.03,-0.04 -0.06,-0.08 -0.09,-0.13 0.2,-0.14 0.35,-0.35 0.42,-0.63zm0.05 -0.5l1.03 0 0 -0.17 -1.03 0 0 0.17zm1.03 -0.47l-1.03 0 0 0.17 1.03 0 0 -0.17z"/>
  <path id="15" class="fil1" d="M44.21 19.16l0.78 0c-0.03,-0.06 -0.08,-0.13 -0.14,-0.22l0.14 -0.08c0.06,0.08 0.12,0.16 0.17,0.24l-0.11 0.06 0.8 0 0 0.16 -1.46 0 0 0.49c0,0.4 -0.11,0.73 -0.32,0.97 -0.03,-0.03 -0.08,-0.07 -0.14,-0.12 0.19,-0.21 0.28,-0.5 0.28,-0.87l0 -0.63z"/>
  <path id="16" class="fil1" d="M47.24 19.99l1.38 0 0 0.79 -0.15 0 0 -0.11 -1.08 0 0 0.11 -0.15 0 0 -0.79zm-0.27 -0.35l0.93 0 0 -0.32 -0.53 0c-0.05,0.1 -0.11,0.2 -0.17,0.28 -0.04,-0.03 -0.09,-0.06 -0.15,-0.09 0.15,-0.19 0.25,-0.39 0.32,-0.61l0.16 0.05c-0.02,0.08 -0.06,0.15 -0.09,0.22l0.46 0 0 -0.3 0.16 0 0 0.3 0.67 0 0 0.15 -0.67 0 0 0.32 0.82 0 0 0.14 -1.91 0 0 -0.14zm1.5 0.49l-1.08 0 0 0.41 1.08 0 0 -0.41z"/>
  <path id="17" class="fil1" d="M50.49 20.55l0.76 0c0.09,-0.25 0.2,-0.61 0.32,-1.07l0.18 0.05c-0.08,0.24 -0.19,0.58 -0.34,1.02l0.49 0 0 0.15 -1.41 0 0 -0.15zm-0.54 -0.73c0.19,-0.28 0.33,-0.6 0.43,-0.95l0.16 0.04c-0.05,0.17 -0.11,0.32 -0.17,0.46l0 1.43 -0.15 0 0 -1.12c-0.06,0.11 -0.12,0.22 -0.19,0.32 -0.02,-0.05 -0.04,-0.11 -0.08,-0.18zm0.58 -0.6l0.69 0c-0.06,-0.09 -0.13,-0.18 -0.2,-0.27l0.14 -0.09c0.05,0.07 0.12,0.16 0.21,0.27l-0.15 0.09 0.65 0 0 0.15 -1.34 0 0 -0.15zm0.26 0.28c0.09,0.23 0.18,0.52 0.28,0.85l-0.16 0.05c-0.09,-0.32 -0.18,-0.6 -0.27,-0.85l0.15 -0.05z"/>
  <polygon id="18" class="fil1" points="53.54,20.29 53.38,20.81 53.24,20.81 53.36,20.29 "/>
  <path id="19" class="fil1" d="M56.47 18.87l0.16 0.04c-0.03,0.07 -0.06,0.13 -0.09,0.2l1.12 0c-0.01,0.46 -0.02,0.78 -0.03,0.96 -0.02,0.22 -0.12,0.32 -0.32,0.32 -0.05,0 -0.15,0 -0.28,0 -0.01,-0.05 -0.02,-0.11 -0.03,-0.17 0.11,0.01 0.2,0.02 0.29,0.02 0.11,0 0.18,-0.06 0.19,-0.19 0.01,-0.17 0.02,-0.43 0.02,-0.8l-1.04 0c-0.04,0.08 -0.09,0.16 -0.14,0.24l0.81 0 0 0.57 -0.71 0 0 0.36c0,0.11 0.06,0.16 0.17,0.16l0.9 0c0.13,0 0.2,-0.04 0.22,-0.12 0.02,-0.07 0.04,-0.17 0.05,-0.29 0.05,0.02 0.11,0.04 0.15,0.06 -0.01,0.12 -0.03,0.21 -0.05,0.28 -0.03,0.15 -0.14,0.22 -0.33,0.22l-0.98 0c-0.19,0 -0.28,-0.09 -0.28,-0.28l0 -0.89c-0.07,0.09 -0.13,0.17 -0.21,0.25 -0.03,-0.05 -0.06,-0.1 -0.09,-0.13 0.22,-0.25 0.39,-0.52 0.5,-0.81zm0.51 0.75l-0.56 0 0 0.31 0.56 0 0 -0.31z"/>
  <path id="20" class="fil1" d="M60.11 20.46c0,0.05 0,0.11 0,0.15 -0.17,0.05 -0.31,0.09 -0.41,0.13 -0.04,0.01 -0.09,0.04 -0.14,0.06l-0.09 -0.11c0.03,-0.03 0.05,-0.08 0.05,-0.14l0 -0.15c-0.13,0.08 -0.28,0.15 -0.45,0.21 -0.02,-0.05 -0.05,-0.09 -0.09,-0.14 0.35,-0.11 0.62,-0.26 0.82,-0.45l-0.79 0 0 -0.13 0.91 0c-0.03,-0.05 -0.06,-0.1 -0.09,-0.14l0.12 -0.08c0.05,0.06 0.09,0.12 0.13,0.18l-0.07 0.04 0.91 0 0 0.13 -0.89 0c0.05,0.11 0.12,0.2 0.21,0.28 0.15,-0.07 0.29,-0.15 0.43,-0.22l0.08 0.14c-0.13,0.05 -0.26,0.1 -0.39,0.16 0.15,0.1 0.34,0.16 0.56,0.2 -0.03,0.05 -0.07,0.1 -0.1,0.14 -0.42,-0.08 -0.72,-0.29 -0.91,-0.62 -0.07,0.08 -0.15,0.14 -0.25,0.21l0 0.28c0.16,-0.04 0.31,-0.08 0.45,-0.13zm-0.27 -0.93l0.42 0 0 -0.26 -0.49 0 0 -0.14 0.49 0 0 -0.26 0.15 0 0 0.26 0.5 0 0 0.14 -0.5 0 0 0.26 0.43 0 0 0.13 -1 0 0 -0.13zm-0.3 -0.67l0.14 0 0 0.9 -0.14 0 0 -0.3c-0.14,0.08 -0.29,0.17 -0.44,0.26 -0.02,-0.03 -0.04,-0.08 -0.08,-0.14 0.18,-0.1 0.36,-0.19 0.52,-0.28l0 -0.44zm-0.47 0.2l0.1 -0.1c0.12,0.09 0.21,0.17 0.27,0.23l-0.12 0.11c-0.09,-0.1 -0.17,-0.18 -0.25,-0.24z"/>
  <path id="21" class="fil1" d="M62.96 19.43l0.21 0c0,-0.1 0,-0.29 0,-0.55l0.15 0c-0.01,0.24 -0.01,0.43 -0.01,0.55l0.57 0 0 0.14 -0.35 0 0 0.94c0,0.06 0.02,0.09 0.07,0.09l0.07 0c0.05,0 0.09,-0.04 0.1,-0.12 0.01,-0.08 0.02,-0.17 0.02,-0.3 0.09,0.04 0.14,0.06 0.15,0.06 -0.01,0.12 -0.02,0.21 -0.04,0.29 -0.01,0.14 -0.09,0.21 -0.21,0.21l-0.13 0c-0.12,0 -0.17,-0.07 -0.17,-0.21l0 -0.96 -0.09 0c-0.01,0.52 -0.15,0.93 -0.44,1.23 -0.03,-0.03 -0.07,-0.07 -0.11,-0.11 0.27,-0.28 0.4,-0.66 0.41,-1.12l-0.2 0 0 -0.14zm-0.82 0.01l0.77 0 0 0.59 -0.14 0 0 -0.05 -0.18 0 0 0.58c0,0.13 -0.06,0.2 -0.2,0.2 -0.06,0 -0.11,0 -0.17,-0.01 0,-0.05 -0.01,-0.1 -0.03,-0.15 0.06,0.01 0.12,0.02 0.18,0.02 0.06,0 0.09,-0.03 0.09,-0.09l0 -0.55 -0.19 0 0 0.05 -0.13 0 0 -0.59zm-0.12 -0.3l0.48 0c-0.03,-0.07 -0.07,-0.15 -0.12,-0.22l0.13 -0.06c0.05,0.07 0.09,0.14 0.13,0.21l-0.13 0.07 0.51 0 0 0.13 -1 0 0 -0.13zm0.75 0.43l-0.5 0 0 0.28 0.5 0 0 -0.28zm-0.55 0.53l0.13 0.05c-0.07,0.16 -0.14,0.31 -0.22,0.43 -0.03,-0.02 -0.08,-0.04 -0.13,-0.06 0.09,-0.13 0.16,-0.27 0.22,-0.42zm1.2 -1.03l0.09 -0.1c0.11,0.07 0.2,0.15 0.3,0.23l-0.1 0.11c-0.06,-0.05 -0.16,-0.13 -0.29,-0.24zm-0.77 1.07l0.12 -0.07c0.07,0.1 0.13,0.18 0.18,0.26l-0.12 0.09c-0.05,-0.09 -0.11,-0.18 -0.18,-0.28z"/>
  <path id="22" class="fil1" d="M65.31 18.95l1.33 0 0 0.81 -0.15 0 0 -0.08 -1.03 0 0 0.08 -0.15 0 0 -0.81zm0.1 1.1l0.15 0.04c-0.02,0.07 -0.04,0.14 -0.07,0.2 0.1,0.16 0.25,0.25 0.44,0.28l0 -0.58 -0.89 0 0 -0.14 1.88 0 0 0.14 -0.83 0 0 0.19 0.69 0 0 0.14 -0.69 0 0 0.27c0.25,0 0.54,0 0.86,-0.01 -0.02,0.05 -0.03,0.11 -0.05,0.15 -0.38,0 -0.68,0 -0.88,0 -0.28,-0.01 -0.47,-0.11 -0.6,-0.31 -0.09,0.16 -0.2,0.29 -0.34,0.39 -0.02,-0.04 -0.05,-0.08 -0.09,-0.13 0.21,-0.14 0.35,-0.35 0.42,-0.63zm0.05 -0.5l1.03 0 0 -0.17 -1.03 0 0 0.17zm1.03 -0.47l-1.03 0 0 0.17 1.03 0 0 -0.17z"/>
  <path id="23" class="fil1" d="M68.51 19.59c0.17,-0.2 0.31,-0.44 0.44,-0.72l0.15 0.05c-0.05,0.1 -0.1,0.2 -0.16,0.3l0.98 0 0 0.13 -0.48 0 0 0.3 0.45 0 0 0.13 -0.45 0 0 0.31 0.45 0 0 0.13 -0.45 0 0 0.31 0.51 0 0 0.12 -1.07 0 0 0.15 -0.15 0 0 -1.25c-0.03,0.05 -0.07,0.1 -0.11,0.15 -0.02,-0.03 -0.06,-0.06 -0.11,-0.11zm-0.5 0.33c0.09,-0.02 0.17,-0.05 0.25,-0.07l0 -0.47 -0.23 0 0 -0.14 0.23 0 0 -0.37 0.15 0 0 0.37 0.23 0 0 0.14 -0.23 0 0 0.44c0.08,-0.03 0.15,-0.05 0.23,-0.07 0,0.06 0,0.11 0.01,0.15 -0.08,0.03 -0.16,0.05 -0.24,0.07l0 0.59c0,0.14 -0.05,0.21 -0.15,0.21 -0.07,0.01 -0.14,0.01 -0.2,0.01 -0.01,-0.06 -0.02,-0.11 -0.03,-0.17 0.07,0.01 0.12,0.01 0.16,0.01 0.05,0 0.07,-0.02 0.07,-0.07l0 -0.54c-0.08,0.03 -0.16,0.05 -0.23,0.07l-0.02 -0.16zm0.87 0.61l0.41 0 0 -0.31 -0.41 0 0 0.31zm0 -0.44l0.41 0 0 -0.31 -0.41 0 0 0.31zm0 -0.44l0.41 0 0 -0.3 -0.41 0 0 0.3zm0.36 -0.7l0.12 -0.08c0.07,0.09 0.12,0.17 0.18,0.25l-0.14 0.08c-0.05,-0.08 -0.1,-0.16 -0.16,-0.25z"/>
  <path id="24" class="fil1" d="M71.92 20.8l-0.14 0 0 -1.37 0.45 0 0 -0.55 0.15 0 0 0.55 0.46 0 0 1.13c0,0.15 -0.07,0.23 -0.21,0.23 -0.07,0 -0.17,0 -0.31,-0.01 -0.01,-0.05 -0.01,-0.1 -0.03,-0.16 0.13,0.01 0.22,0.01 0.28,0.01 0.09,0 0.13,-0.03 0.13,-0.11l0 -0.18 -0.78 0 0 0.46zm-0.22 -0.44c0,0.06 0.01,0.12 0.01,0.17 -0.08,0.04 -0.18,0.09 -0.29,0.16 -0.02,0.01 -0.05,0.03 -0.08,0.06l-0.1 -0.13c0.04,-0.04 0.06,-0.09 0.06,-0.15l0 -0.42 -0.26 0 0 -0.14 0.26 0 0 -0.26 -0.13 0 0 -0.14 0.5 0 0 0.14 -0.23 0 0 0.26 0.28 0 0 0.14 -0.28 0 0 0.46c0.1,-0.05 0.18,-0.1 0.26,-0.15zm0.22 -0.16l0.78 0 0 -0.24 -0.78 0 0 0.24zm0.78 -0.62l-0.78 0 0 0.24 0.78 0 0 -0.24zm-1.68 -0.1c0.13,-0.18 0.23,-0.38 0.3,-0.61l0.15 0.05c-0.04,0.09 -0.07,0.17 -0.11,0.25l0.36 0 0 0.14 -0.43 0c-0.06,0.1 -0.12,0.2 -0.19,0.3 -0.02,-0.05 -0.05,-0.09 -0.08,-0.13zm1.48 -0.21c0.09,-0.1 0.18,-0.21 0.27,-0.33l0.13 0.1c-0.08,0.09 -0.18,0.2 -0.3,0.32l-0.1 -0.09zm-0.78 -0.25l0.1 -0.09c0.1,0.1 0.19,0.2 0.28,0.32l-0.12 0.1c-0.09,-0.13 -0.18,-0.24 -0.26,-0.33z"/>
  <path id="25" class="fil1" d="M74.35 18.96l1.31 0 0 0.61 -0.16 0 0 -0.08 -1 0 0 0.08 -0.15 0 0 -0.61zm0.56 0.91l0.16 0c0,0.07 0,0.15 -0.01,0.23 0,0.06 -0.01,0.11 -0.02,0.16 0.28,0.11 0.59,0.25 0.92,0.4l-0.09 0.15c-0.25,-0.13 -0.54,-0.27 -0.88,-0.41 -0.02,0.04 -0.05,0.08 -0.09,0.12 -0.15,0.14 -0.41,0.24 -0.76,0.3 -0.03,-0.06 -0.06,-0.11 -0.09,-0.15 0.37,-0.06 0.61,-0.14 0.73,-0.26 0.07,-0.07 0.12,-0.18 0.13,-0.32 0,-0.08 0,-0.15 0,-0.22zm-0.67 -0.19l1.53 0 0 0.71 -0.16 0 0 -0.58 -1.21 0 0 0.59 -0.16 0 0 -0.72zm1.26 -0.32l0 -0.26 -1 0 0 0.26 1 0z"/>
  <path class="fil3" d="M44.66 10.41c0.18,-0.3 0.35,-0.59 0.5,-0.86 0.15,-0.27 0.28,-0.52 0.4,-0.77 0.13,-0.24 0.24,-0.48 0.34,-0.71 0.09,-0.23 0.18,-0.46 0.26,-0.68 0.07,-0.18 0.12,-0.36 0.16,-0.53 0.05,-0.17 0.08,-0.34 0.09,-0.5l1.51 0.45 -0.43 0.22c-0.04,0.1 -0.09,0.19 -0.13,0.27 -0.05,0.09 -0.11,0.2 -0.2,0.34l2.86 0 0.36 -0.67 1.18 0.62 -0.31 0.37c0,0.09 0,0.24 0,0.43 0,0.19 0,0.4 -0.01,0.63 0,0.23 -0.01,0.46 -0.02,0.7 0,0.24 -0.01,0.46 -0.02,0.66 -0.01,0.27 -0.05,0.49 -0.1,0.67 -0.06,0.17 -0.15,0.32 -0.26,0.44 -0.12,0.12 -0.27,0.22 -0.47,0.28 -0.19,0.07 -0.43,0.12 -0.71,0.16 -0.02,-0.13 -0.04,-0.25 -0.07,-0.34 -0.02,-0.1 -0.05,-0.18 -0.1,-0.26 -0.04,-0.07 -0.09,-0.13 -0.15,-0.19 -0.06,-0.05 -0.14,-0.11 -0.23,-0.15l0 0.03c0,0.1 -0.05,0.17 -0.15,0.19 -0.12,0.03 -0.26,0.05 -0.41,0.06 -0.15,0.01 -0.29,0.01 -0.43,0.02l0 -0.58 -1.17 0 0 1.3c0,0.15 0.03,0.25 0.09,0.32 0.07,0.06 0.17,0.09 0.32,0.09l3.3 0c0.15,0 0.25,-0.02 0.33,-0.06 0.07,-0.04 0.14,-0.14 0.21,-0.29l0.55 -1.3 0.05 0.02 0.07 1.19c0.01,0.12 0.02,0.21 0.03,0.26 0.02,0.05 0.06,0.1 0.12,0.15 0.07,0.06 0.12,0.1 0.14,0.15 0.02,0.05 0.04,0.11 0.04,0.18 0,0.08 -0.03,0.16 -0.08,0.24 -0.06,0.08 -0.14,0.15 -0.24,0.22 -0.11,0.07 -0.24,0.12 -0.4,0.16 -0.16,0.04 -0.34,0.06 -0.55,0.06l-3.98 0c-0.36,0 -0.62,-0.08 -0.77,-0.24 -0.16,-0.15 -0.24,-0.41 -0.24,-0.78l0 -3.09c-0.19,0.2 -0.38,0.4 -0.59,0.59 -0.21,0.19 -0.42,0.38 -0.65,0.56l-0.04 -0.03zm2.48 -2.74c-0.13,0.24 -0.26,0.43 -0.37,0.6 -0.12,0.16 -0.24,0.32 -0.37,0.48l0.78 0.25 0.8 0 0.3 -0.61 1.12 0.57 -0.29 0.35 0 1.54 0.47 0.02c0.2,0.02 0.34,-0.02 0.42,-0.1 0.08,-0.08 0.13,-0.25 0.14,-0.52 0.02,-0.42 0.04,-0.83 0.05,-1.22 0.01,-0.4 0.01,-0.85 0.01,-1.36l-3.06 0zm-0.19 1.37l0 1.63 1.17 0 0 -1.63 -1.17 0z"/>
  <path id="1" class="fil3" d="M52.63 10.41l3.31 0c-0.01,-0.07 -0.01,-0.12 -0.02,-0.14 -0.01,-0.02 -0.01,-0.05 -0.02,-0.07 -0.02,-0.13 -0.05,-0.24 -0.08,-0.34 -0.03,-0.1 -0.08,-0.21 -0.16,-0.31l0.02 -0.03c0.24,-0.03 0.44,-0.03 0.61,-0.02 0.16,0.02 0.3,0.05 0.4,0.1 0.11,0.05 0.18,0.1 0.22,0.17 0.05,0.06 0.07,0.13 0.07,0.19 0,0.16 -0.05,0.31 -0.16,0.45l1.62 0 0.6 -0.81 0.98 0.78c0,0 0,0 0,0 0,0 0,0 0,0 0,0 -0.07,0.02 -0.2,0.06l-1.27 0 0.94 0.83 -0.41 0.05c-0.2,0.08 -0.39,0.15 -0.58,0.21 -0.2,0.06 -0.41,0.12 -0.65,0.17 0.32,0.18 0.66,0.33 1.03,0.42 0.36,0.1 0.77,0.17 1.22,0.22l-0.01 0.04c-0.16,0.11 -0.3,0.25 -0.41,0.43 -0.12,0.18 -0.23,0.42 -0.34,0.72 -0.45,-0.15 -0.83,-0.33 -1.16,-0.53 -0.32,-0.21 -0.61,-0.46 -0.85,-0.76 -0.49,0.28 -0.95,0.52 -1.39,0.72 -0.45,0.2 -0.87,0.38 -1.27,0.53l-0.22 0.32 -0.56 -1.09c0.13,-0.04 0.23,-0.09 0.29,-0.16 0.06,-0.06 0.09,-0.15 0.09,-0.26l0 -0.46c-0.26,0.09 -0.53,0.18 -0.81,0.26 -0.28,0.08 -0.58,0.15 -0.9,0.21l-0.02 -0.05c0.52,-0.28 1,-0.57 1.44,-0.87 0.44,-0.31 0.82,-0.62 1.15,-0.95l-2.5 0 0 -0.03zm5.69 -3.82l-0.35 0.26 0 0.83 0.67 0 0.51 -0.72 0.86 0.71c0,0 0,0 0,0 0,0 0,0 0,0 0,0 -0.07,0.02 -0.2,0.05l-1.84 0 0 1.51 0.5 0 0.5 -0.7 0.83 0.69c0,0 0,0 0,0 0,0 0,0 0,0 0,0 -0.07,0.02 -0.19,0.05l-3.97 0 0 -0.04 1.4 0 0 -1.15 0 -0.36 -1.49 0 0 -0.04 1.49 0c-0.01,-0.27 -0.01,-0.51 -0.01,-0.71 -0.01,-0.2 -0.01,-0.39 -0.02,-0.58l1.31 0.2zm-2.7 -0.01l-0.31 0.28 0 0.68c0,0.3 0,0.62 0,0.97 0,0.35 0.01,0.69 0.01,1.03 0,0.1 -0.01,0.16 -0.02,0.2 -0.02,0.04 -0.06,0.07 -0.13,0.08 -0.12,0.03 -0.26,0.05 -0.41,0.06 -0.15,0.01 -0.28,0.01 -0.38,0.02 0.01,-0.53 0.02,-1 0.02,-1.41 -0.17,0.17 -0.35,0.33 -0.54,0.47 -0.18,0.15 -0.38,0.3 -0.61,0.44l-0.19 0.29 -0.45 -1.14c0.28,-0.02 0.57,-0.05 0.87,-0.09 0.3,-0.04 0.61,-0.09 0.93,-0.15l0 -0.45 0 -1.48 1.21 0.2zm1.62 5.54c-0.31,-0.4 -0.55,-0.91 -0.74,-1.53 -0.2,0.17 -0.42,0.32 -0.64,0.47 -0.22,0.14 -0.45,0.28 -0.7,0.4l0 0.99 2.08 -0.33zm-4.3 -5.45c0.43,0.09 0.74,0.2 0.92,0.35 0.18,0.15 0.27,0.32 0.27,0.49 0,0.18 -0.06,0.33 -0.17,0.44 -0.11,0.12 -0.25,0.18 -0.42,0.18 -0.08,0 -0.15,-0.03 -0.21,-0.09 -0.06,-0.05 -0.09,-0.12 -0.1,-0.21 -0.02,-0.19 -0.05,-0.37 -0.1,-0.54 -0.05,-0.17 -0.12,-0.37 -0.22,-0.59l0.03 -0.03zm4.71 4.89c0.18,-0.18 0.34,-0.36 0.48,-0.53 0.15,-0.17 0.26,-0.37 0.35,-0.59l-1.89 0c0.05,0.13 0.12,0.23 0.2,0.33 0.08,0.09 0.17,0.18 0.26,0.28 0.1,0.1 0.2,0.19 0.3,0.28 0.11,0.09 0.21,0.17 0.3,0.23z"/>
  <path id="2" class="fil3" d="M62.2 13.58c0.47,-0.25 0.89,-0.51 1.27,-0.78 0.37,-0.26 0.71,-0.54 1.02,-0.85 -0.2,-0.25 -0.35,-0.54 -0.48,-0.86 -0.13,-0.31 -0.24,-0.7 -0.33,-1.16l-0.68 0 0 -0.03 2.74 0 0.36 -0.58 1.18 0.72 -0.4 0.3c-0.15,0.29 -0.3,0.55 -0.46,0.79 -0.17,0.25 -0.34,0.47 -0.54,0.68 0.3,0.12 0.62,0.23 0.97,0.31 0.35,0.09 0.74,0.15 1.18,0.2l0 0.05c-0.16,0.13 -0.3,0.27 -0.44,0.44 -0.13,0.16 -0.26,0.41 -0.39,0.72 -0.47,-0.13 -0.87,-0.28 -1.22,-0.44 -0.35,-0.16 -0.66,-0.35 -0.92,-0.55 -0.73,0.52 -1.67,0.88 -2.83,1.08l-0.03 -0.04zm2.6 -6.74l0.7 0 0.29 -0.56 1.05 0.5 -0.27 0.32 0 1.08c0,0.1 0.02,0.16 0.05,0.2 0.04,0.03 0.1,0.05 0.19,0.05l0.11 0c0.08,0 0.15,-0.01 0.21,-0.04 0.06,-0.02 0.12,-0.07 0.18,-0.14l0.03 0c0.23,0.17 0.39,0.3 0.48,0.4 0.09,0.1 0.13,0.2 0.13,0.27 0,0.07 -0.08,0.15 -0.24,0.22 -0.16,0.08 -0.39,0.11 -0.69,0.11l-0.58 0c-0.3,0 -0.51,-0.07 -0.63,-0.2 -0.12,-0.14 -0.18,-0.37 -0.18,-0.7l0 -1.48 -1.06 0 0 0.36c0,0.34 -0.04,0.64 -0.1,0.9 -0.07,0.26 -0.18,0.49 -0.33,0.7 -0.15,0.2 -0.34,0.39 -0.58,0.56 -0.24,0.17 -0.53,0.34 -0.88,0.5l-0.03 -0.04c0.18,-0.21 0.33,-0.4 0.45,-0.58 0.12,-0.18 0.22,-0.36 0.29,-0.55 0.07,-0.19 0.12,-0.39 0.15,-0.61 0.02,-0.21 0.04,-0.46 0.04,-0.75 0,-0.16 -0.01,-0.32 -0.01,-0.46 -0.01,-0.15 -0.02,-0.3 -0.03,-0.44l1.26 0.38zm-4.32 2.25l0 -0.04 0.72 0 0.29 -0.6 1.08 0.55 -0.31 0.34 0 2.18 1.12 -0.5 0.03 0.04c-0.15,0.17 -0.28,0.32 -0.41,0.46 -0.12,0.14 -0.24,0.27 -0.36,0.4 -0.12,0.12 -0.25,0.25 -0.37,0.37 -0.13,0.13 -0.26,0.26 -0.41,0.4l-0.18 0.4 -0.72 -0.99c0.14,-0.09 0.24,-0.18 0.29,-0.26 0.05,-0.09 0.08,-0.2 0.08,-0.33l0 -2.42 -0.85 0zm3.28 0.84c0.2,0.33 0.41,0.6 0.61,0.82 0.21,0.22 0.43,0.41 0.67,0.58 0.15,-0.2 0.29,-0.41 0.43,-0.63 0.13,-0.21 0.25,-0.47 0.36,-0.77l-2.07 0zm-2.68 -3.5c0.29,0.06 0.53,0.12 0.73,0.19 0.19,0.07 0.35,0.15 0.46,0.23 0.11,0.08 0.2,0.16 0.25,0.26 0.05,0.09 0.07,0.19 0.07,0.3 0,0.08 -0.02,0.16 -0.05,0.24 -0.04,0.08 -0.09,0.15 -0.15,0.2 -0.05,0.06 -0.12,0.11 -0.2,0.15 -0.08,0.04 -0.16,0.05 -0.24,0.05 -0.09,0 -0.16,-0.03 -0.22,-0.08 -0.06,-0.06 -0.11,-0.16 -0.15,-0.31 -0.05,-0.2 -0.13,-0.41 -0.22,-0.63 -0.09,-0.22 -0.19,-0.41 -0.3,-0.57l0.02 -0.03z"/>
  <path id="3" class="fil3" d="M74.13 6.66l-0.35 0.33 0 2.36 0.58 0 0.59 -0.86 1.01 0.83c0,0 0,0 0,0 0,0 0,0 0,0 0,0 -0.06,0.02 -0.19,0.07l-1.99 0 0 1.21c0,0.06 0,0.15 0,0.27 0,0.13 0,0.28 0,0.45 0.01,0.17 0.01,0.35 0.01,0.54 0,0.2 0.01,0.39 0.01,0.57 0,0.19 0.01,0.36 0.01,0.52 0,0.16 0,0.29 0,0.39 0,0.08 -0.01,0.13 -0.03,0.15 -0.03,0.03 -0.07,0.05 -0.13,0.06 -0.07,0.02 -0.15,0.03 -0.24,0.04 -0.09,0.01 -0.18,0.02 -0.26,0.02 -0.09,0.01 -0.18,0.01 -0.26,0.02 -0.08,0 -0.15,0 -0.21,0 0,-0.18 0.01,-0.39 0.01,-0.65 0.01,-0.26 0.01,-0.52 0.02,-0.78 0.01,-0.27 0.01,-0.51 0.01,-0.75 0,-0.23 0.01,-0.41 0.01,-0.53l0 -1.53 -1.79 0 0 -0.04 1.79 0 0 -1.22c0,-0.07 -0.01,-0.17 -0.01,-0.3 0,-0.12 0,-0.26 -0.01,-0.41 0,-0.16 0,-0.32 -0.01,-0.49 -0.01,-0.17 -0.02,-0.32 -0.02,-0.47l1.45 0.2zm-2.54 4.31l0.03 0.02c-0.24,0.3 -0.51,0.62 -0.82,0.95 -0.3,0.34 -0.61,0.65 -0.93,0.95l-0.18 0.38 -0.77 -1.07c0.14,-0.08 0.24,-0.17 0.29,-0.26 0.05,-0.09 0.08,-0.2 0.08,-0.33l0 -2.43 -0.99 0 0 -0.03 0.81 0 0.32 -0.62 1.2 0.58 -0.35 0.36 0 2.16 1.31 -0.66zm-2.55 -4.52c0.29,0.05 0.53,0.11 0.72,0.18 0.19,0.06 0.35,0.14 0.47,0.22 0.12,0.08 0.2,0.17 0.25,0.27 0.06,0.1 0.08,0.21 0.08,0.32 0,0.09 -0.02,0.17 -0.05,0.25 -0.04,0.08 -0.08,0.15 -0.14,0.2 -0.06,0.06 -0.13,0.11 -0.2,0.14 -0.08,0.04 -0.16,0.06 -0.25,0.06 -0.24,0 -0.39,-0.13 -0.45,-0.39 -0.05,-0.24 -0.11,-0.46 -0.18,-0.66 -0.07,-0.2 -0.16,-0.39 -0.26,-0.56l0.01 -0.03z"/>
 </g>
</svg>
