<?xml version="1.0" encoding="UTF-8"?>
<!DOCTYPE svg PUBLIC "-//W3C//DTD SVG 1.1//EN" "http://www.w3.org/Graphics/SVG/1.1/DTD/svg11.dtd">
<!-- Creator: CorelDRAW 2017 -->
<svg xmlns="http://www.w3.org/2000/svg" xml:space="preserve" width="339px" height="90px" version="1.1" style="shape-rendering:geometricPrecision; text-rendering:geometricPrecision; image-rendering:optimizeQuality; fill-rule:evenodd; clip-rule:evenodd"
viewBox="0 0 15.74 4.15"
 xmlns:xlink="http://www.w3.org/1999/xlink">
 <defs>
  <style type="text/css">
   <![CDATA[
    .fil1 {fill:white}
    .fil0 {fill:white;fill-rule:nonzero}
   ]]>
  </style>
 </defs>
 <g id="图层_x0020_1">
  <metadata id="CorelCorpID_0Corel-Layer"/>
  <g id="_3110352989680">
   <path class="fil0" d="M0.19 0l3.96 0 0 1.25 1 0.83 -1 0.82 0 1.25 -4.15 0 0 -4.15 0.19 0zm3.59 0.38l-3.4 0 0 3.4 3.4 0 0 -1.05 0.78 -0.65 -0.78 -0.66 0 -1.04z"/>
   <polygon class="fil1" points="4.19,2.08 3.98,1.92 3.78,1.76 3.78,2.08 3.78,2.39 3.98,2.23 "/>
   <path class="fil0" d="M4.86 0c0.03,0 0.05,0.01 0.07,0.03 0.02,0.01 0.02,0.04 0.02,0.07l0 0.5c0,0.04 0,0.06 -0.02,0.08 -0.02,0.01 -0.04,0.02 -0.07,0.02l-0.22 0 0 -0.7 0.22 0zm-0.02 0.11l-0.09 0 0 0.48 0.09 0 0 -0.48z"/>
   <polygon id="1" class="fil0" points="5.34,0.7 5.07,0.7 5.07,0 5.34,0 5.34,0.11 5.18,0.11 5.18,0.29 5.34,0.21 5.34,0.34 5.18,0.42 5.18,0.59 5.34,0.59 "/>
   <path id="2" class="fil0" d="M5.44 0.1c0,-0.03 0.01,-0.06 0.02,-0.07 0.02,-0.02 0.04,-0.03 0.07,-0.03l0.13 0c0.03,0 0.05,0.01 0.07,0.03 0.02,0.01 0.02,0.04 0.02,0.07l0 0.01 -0.11 0.06 0 -0.06 -0.09 0 0 0.18 0.2 -0.11 0 0.42c0,0.04 0,0.06 -0.02,0.08 -0.02,0.01 -0.04,0.02 -0.07,0.02l-0.13 0c-0.03,0 -0.05,-0.01 -0.07,-0.02 -0.01,-0.02 -0.02,-0.04 -0.02,-0.08l0 -0.06 0.11 -0.06 0 0.11 0.09 0 0 -0.22 -0.2 0.1 0 -0.37z"/>
   <polygon id="3" class="fil0" points="5.98,0.7 5.86,0.7 5.86,0 5.98,0 "/>
   <path id="4" class="fil0" d="M6.09 0.1c0,-0.03 0.01,-0.06 0.03,-0.07 0.01,-0.02 0.03,-0.03 0.06,-0.03l0.13 0c0.03,0 0.05,0.01 0.07,0.03 0.02,0.01 0.03,0.04 0.03,0.07l0 0.1 -0.12 0.05 0 -0.14 -0.08 0 0 0.48 0.08 0 0 -0.16 -0.05 0.03 0 -0.13 0.17 -0.08 0 0.45 -0.23 0c-0.03,0 -0.05,-0.01 -0.06,-0.02 -0.02,-0.02 -0.03,-0.04 -0.03,-0.08l0 -0.5z"/>
   <path id="5" class="fil0" d="M6.63 0.7l-0.11 0 0 -0.7 0.11 0 0 0.06c0.01,-0.02 0.01,-0.04 0.02,-0.05 0.02,-0.01 0.03,-0.01 0.05,-0.01l0.04 0c0.03,0 0.05,0.01 0.07,0.03 0.01,0.01 0.02,0.04 0.02,0.07l0 0.6 -0.11 0 0 -0.59 -0.09 0 0 0.59z"/>
   <path id="6" class="fil0" d="M7.14 0.1c0,-0.03 0.01,-0.06 0.03,-0.07 0.02,-0.02 0.04,-0.03 0.07,-0.03l0.13 0c0.03,0 0.05,0.01 0.06,0.03 0.02,0.01 0.03,0.04 0.03,0.07l0 0.01 -0.12 0.06 0 -0.06 -0.08 0 0 0.18 0.2 -0.11 0 0.42c0,0.04 -0.01,0.06 -0.02,0.08 -0.02,0.01 -0.04,0.02 -0.07,0.02l-0.13 0c-0.03,0 -0.05,-0.01 -0.07,-0.02 -0.02,-0.02 -0.03,-0.04 -0.03,-0.08l0 -0.06 0.12 -0.06 0 0.11 0.08 0 0 -0.22 -0.2 0.1 0 -0.37z"/>
   <polygon id="7" class="fil0" points="7.85,0.7 7.57,0.7 7.57,0 7.85,0 7.85,0.11 7.69,0.11 7.69,0.29 7.85,0.21 7.85,0.34 7.69,0.42 7.69,0.59 7.85,0.59 "/>
   <path id="8" class="fil0" d="M8.26 0.35l-0.08 0.04 0.13 0.31 -0.12 0 -0.11 -0.26 -0.02 0.01 0 0.25 -0.11 0 0 -0.7 0.22 0c0.03,0 0.05,0.01 0.07,0.03 0.01,0.01 0.02,0.04 0.02,0.07l0 0.25zm-0.11 -0.07l0 -0.17 -0.09 0 0 0.22 0.09 -0.05z"/>
   <polygon id="9" class="fil0" points="8.44,0.7 8.32,0 8.44,0 8.51,0.45 8.59,0 8.7,0 8.58,0.7 "/>
   <polygon id="10" class="fil0" points="8.88,0.7 8.76,0.7 8.76,0 8.88,0 "/>
   <path id="11" class="fil0" d="M8.99 0.1c0,-0.03 0.01,-0.06 0.02,-0.07 0.02,-0.02 0.04,-0.03 0.07,-0.03l0.13 0c0.03,0 0.05,0.01 0.07,0.03 0.02,0.01 0.02,0.04 0.02,0.07l0 0.09 -0.11 0.06 0 -0.14 -0.09 0 0 0.48 0.09 0 0 -0.1 0.11 -0.06 0 0.17c0,0.04 0,0.06 -0.02,0.08 -0.02,0.01 -0.04,0.02 -0.07,0.02l-0.13 0c-0.03,0 -0.05,-0.01 -0.07,-0.02 -0.01,-0.02 -0.02,-0.04 -0.02,-0.08l0 -0.5z"/>
   <polygon id="12" class="fil0" points="9.69,0.7 9.41,0.7 9.41,0 9.69,0 9.69,0.11 9.53,0.11 9.53,0.29 9.69,0.21 9.69,0.34 9.53,0.42 9.53,0.59 9.69,0.59 "/>
   <path id="13" class="fil0" d="M9.79 0.1c0,-0.03 0.01,-0.06 0.02,-0.07 0.02,-0.02 0.04,-0.03 0.07,-0.03l0.13 0c0.03,0 0.05,0.01 0.07,0.03 0.02,0.01 0.02,0.04 0.02,0.07l0 0.01 -0.11 0.06 0 -0.06 -0.09 0 0 0.18 0.2 -0.11 0 0.42c0,0.04 0,0.06 -0.02,0.08 -0.02,0.01 -0.04,0.02 -0.07,0.02l-0.13 0c-0.03,0 -0.05,-0.01 -0.07,-0.02 -0.01,-0.02 -0.02,-0.04 -0.02,-0.08l0 -0.06 0.11 -0.06 0 0.11 0.09 0 0 -0.22 -0.2 0.1 0 -0.37z"/>
   <rect class="fil1" x="10.65" width="5.09" height="0.38"/>
   <rect class="fil1" x="13.76" y="3.78" width="1.98" height="0.38"/>
   <rect class="fil1" transform="matrix(1.10479E-14 0.757741 -0.342787 1.64911E-14 15.7426 -2.07553E-05)" width="5.48" height="1.1"/>
   <polygon class="fil0" points="6.67,2.59 6.49,1.58 6.66,1.58 6.77,2.22 6.87,1.58 7.04,1.58 6.86,2.59 "/>
   <polygon id="1" class="fil0" points="7.32,2.59 7.15,2.59 7.15,1.58 7.32,1.58 "/>
   <path id="2" class="fil0" d="M8.38 1.46l0.18 0 0 0.03 0.29 0 0.05 -0.07 0.18 0.12 -0.03 0.04 0 0.67 -0.19 0 0 -0.63 -0.3 0 0 0.63 -0.18 0 0 -0.07c-0.03,0.03 -0.05,0.06 -0.07,0.07 -0.03,0.02 -0.05,0.02 -0.05,-0.01 -0.02,-0.03 -0.03,-0.08 -0.06,-0.14 -0.01,-0.04 -0.02,-0.06 -0.02,-0.08l0 0.71 -0.19 0 0 -0.55c-0.06,0.05 -0.11,0.09 -0.16,0.11l-0.07 -0.05c0.14,-0.13 0.25,-0.28 0.33,-0.46l-0.27 0 -0.03 -0.13 0.33 0 0.05 -0.07 0.2 0.14 -0.09 0.08c-0.03,0.07 -0.07,0.13 -0.1,0.18l0 0.03 0.05 -0.03c0.06,0.04 0.1,0.08 0.15,0.12l0 -0.64zm0.5 1.08l0.05 0c0.04,-0.01 0.07,-0.07 0.09,-0.21l0.06 0.02c-0.01,0.11 0.01,0.16 0.06,0.16 -0.02,0.13 -0.08,0.19 -0.17,0.19l-0.16 0c-0.09,0.01 -0.14,-0.04 -0.14,-0.14l0 -0.1c-0.07,0.09 -0.19,0.18 -0.37,0.28l-0.07 -0.08c0.16,-0.12 0.26,-0.23 0.32,-0.33 0.05,-0.09 0.07,-0.22 0.07,-0.38l0 -0.23 0.18 0 0 0.21c0,0.06 0,0.12 -0.01,0.16l0.05 0 0 0.4c0,0.03 0.01,0.05 0.04,0.05zm-0.86 -1.17c0.05,0.03 0.09,0.08 0.14,0.13 0.02,0.01 0.02,0.04 -0.01,0.06 -0.01,0.01 -0.04,0.04 -0.08,0.07 -0.03,0.02 -0.05,0.02 -0.06,-0.03 -0.02,-0.06 -0.04,-0.13 -0.07,-0.2l0.08 -0.03z"/>
   <path id="3" class="fil0" d="M10.18 1.69c0.03,-0.07 0.06,-0.17 0.11,-0.3l0.21 0.1c-0.08,0.09 -0.14,0.16 -0.18,0.2l0.14 0 0.06 -0.07 0.18 0.14 -0.07 0.05c-0.04,0.06 -0.08,0.12 -0.13,0.16l-0.08 -0.03 0.03 -0.11 -0.91 0c0,0.01 0,0.02 -0.01,0.05 0,0.02 0,0.04 0,0.05 0,0.02 -0.02,0.04 -0.05,0.04 -0.03,0 -0.07,-0.01 -0.12,-0.02 -0.04,-0.01 -0.05,-0.04 -0.02,-0.08 0.03,-0.05 0.07,-0.13 0.12,-0.26l0.09 0.03c0,0.02 0,0.04 -0.01,0.05l0.11 0c0,0 -0.01,0 -0.01,-0.01 -0.02,-0.04 -0.06,-0.09 -0.11,-0.16 0.01,0 0,0 0,-0.01l0.07 -0.07c0.05,0.03 0.11,0.06 0.18,0.1 0.02,0.01 0.03,0.03 0.01,0.06 -0.02,0.04 -0.05,0.07 -0.08,0.09l0.47 0 0 0zm-0.81 0.96c0.35,-0.1 0.53,-0.27 0.54,-0.54l0.2 0.02c-0.01,0.05 -0.02,0.1 -0.04,0.15l0.09 0 0 0.19c0,0.05 0.02,0.07 0.06,0.07l0.17 0c0.05,0.01 0.09,-0.06 0.11,-0.2l0.07 0.02c-0.01,0.1 0.02,0.16 0.08,0.17 -0.04,0.11 -0.1,0.17 -0.19,0.17l-0.32 0c-0.12,0 -0.18,-0.05 -0.17,-0.17l0 -0.04c-0.09,0.12 -0.27,0.21 -0.52,0.25l-0.08 -0.09zm0.21 -0.76l0.2 0 0 0.03 0.42 0 0.05 -0.07 0.19 0.12 -0.05 0.06 0 0.39 -0.19 0 0 -0.37 -0.42 0 0 0.37 -0.2 0 0 -0.53zm0.37 -0.51c0.06,0.05 0.1,0.09 0.15,0.14 0.02,0.01 0.02,0.04 0,0.07 -0.03,0.03 -0.07,0.06 -0.11,0.08 -0.03,0.02 -0.05,0.01 -0.06,-0.03 -0.02,-0.07 -0.05,-0.14 -0.07,-0.21l0.09 -0.05z"/>
   <path id="4" class="fil0" d="M12.13 1.93l-0.23 0 0.18 0.11 -0.08 0.08c-0.05,0.13 -0.1,0.23 -0.16,0.3 0.09,0.05 0.21,0.08 0.36,0.11 -0.05,0.05 -0.1,0.12 -0.14,0.2 -0.13,-0.05 -0.26,-0.1 -0.36,-0.17 -0.11,0.07 -0.25,0.12 -0.41,0.17l-0.07 -0.1c0.15,-0.05 0.27,-0.11 0.35,-0.19 -0.06,-0.08 -0.11,-0.19 -0.15,-0.32l-0.05 0 -0.02 -0.12c0,0 0,0 0,0 -0.01,0.01 -0.02,0.01 -0.03,0.01l-0.07 -0.06c0.12,-0.09 0.17,-0.2 0.17,-0.32l0 -0.19 0.19 0 0 0.04 0.15 0 0.05 -0.07 0.17 0.1 -0.04 0.06 0 0.15c0.01,0.03 0.02,0.05 0.04,0.05 0.09,0 0.15,0 0.2,-0.01 -0.02,0.03 -0.04,0.08 -0.05,0.16 0,0 0,0 0,0.01zm-1.29 -0.1l0.18 0 0.06 -0.08 0.17 0.14 -0.04 0.05 0 0.39c0.05,-0.05 0.09,-0.08 0.11,-0.11l0.07 0.12c-0.09,0.12 -0.2,0.24 -0.32,0.36l-0.13 -0.15c0.06,-0.04 0.08,-0.09 0.08,-0.15l0 -0.44 -0.15 0 -0.03 -0.13zm0.55 0.15l0.43 0 0.05 -0.05c-0.08,-0.01 -0.11,-0.07 -0.11,-0.16l0 -0.16 -0.15 0 0 0.03c0,0.14 -0.08,0.25 -0.22,0.34zm-0.37 -0.56c0.04,0.02 0.11,0.05 0.18,0.09 0.01,0.01 0.02,0.01 0.03,0.01 0.02,0.02 0.02,0.04 0.01,0.07 0,0 0,0.01 -0.01,0.02 -0.02,0.05 -0.04,0.09 -0.06,0.11 -0.01,0.02 -0.03,0.02 -0.05,-0.01 -0.05,-0.09 -0.1,-0.16 -0.16,-0.22l0.06 -0.07zm0.55 0.7c0.03,0.07 0.07,0.14 0.12,0.19 0.04,-0.06 0.08,-0.12 0.1,-0.19l-0.22 0z"/>
   <path id="5" class="fil0" d="M13.19 1.4l0.21 0 0 0.48 0.14 0 0.04 -0.08 0.15 0.12 -0.05 0.09 -0.28 0 0 0.73 -0.21 0 0 -0.73 -0.29 0 -0.02 -0.13 0.31 0 0 -0.48zm-0.81 0.46l0.23 0 0.04 -0.08 0.21 0.13 -0.06 0.07 0 0.4c0.02,-0.02 0.06,-0.05 0.11,-0.09 0.02,-0.02 0.04,-0.04 0.05,-0.04l0.07 0.09c-0.07,0.08 -0.19,0.21 -0.36,0.38l-0.13 -0.16c0.05,-0.04 0.07,-0.09 0.07,-0.14l0 -0.43 -0.2 0 -0.03 -0.13zm0.27 -0.42c0.07,0.04 0.13,0.09 0.18,0.14 0.03,0.02 0.03,0.05 0.01,0.07 -0.02,0.03 -0.04,0.06 -0.09,0.1 -0.02,0.01 -0.03,0.02 -0.04,0.01 -0.01,0 -0.02,-0.01 -0.02,-0.03 -0.03,-0.08 -0.07,-0.16 -0.12,-0.25l0.08 -0.04z"/>
   <path class="fil1" d="M3.64 0.51l-3.14 0 0 3.14 3.14 0 0 -3.14zm-2.01 2.51l-0.42 -1.88 0.39 0 0.26 1.2 0.25 -1.2 0.39 0 -0.42 1.88 -0.45 0zm1.31 0l-0.39 0 0 -1.88 0.39 0 0 1.88z"/>
   <polygon class="fil0" points="4.6,4.15 4.5,3.78 4.59,3.78 4.65,4.02 4.71,3.78 4.8,3.78 4.7,4.15 "/>
   <polygon id="1" class="fil0" points="5.09,4.15 5,4.15 5,3.78 5.09,3.78 "/>
   <path id="2" class="fil0" d="M5.33 3.83c0,-0.02 0.01,-0.03 0.02,-0.04 0.01,-0.01 0.03,-0.01 0.05,-0.01l0.1 0c0.03,0 0.04,0 0.06,0.01 0.01,0.01 0.02,0.02 0.02,0.04l0 0.01 -0.09 0.03 0 -0.03 -0.07 0 0 0.09 0.16 -0.05 0 0.22c0,0.01 -0.01,0.03 -0.02,0.03 -0.02,0.01 -0.03,0.02 -0.06,0.02l-0.1 0c-0.02,0 -0.04,-0.01 -0.05,-0.02 -0.01,0 -0.02,-0.02 -0.02,-0.03l0 -0.04 0.09 -0.03 0 0.06 0.07 0 0 -0.12 -0.16 0.06 0 -0.2z"/>
   <path id="3" class="fil0" d="M5.82 3.78l0.09 0 0 0.31 0.06 0 0 -0.31 0.09 0 0 0.32c0,0.01 0,0.03 -0.02,0.03 -0.01,0.01 -0.03,0.02 -0.05,0.02l-0.1 0c-0.02,0 -0.04,-0.01 -0.05,-0.02 -0.02,0 -0.02,-0.02 -0.02,-0.03l0 -0.32z"/>
   <path id="4" class="fil0" d="M6.46 3.93l0 -0.09 -0.07 0 0 0.11 0.07 -0.02zm0.09 0.22l-0.09 0 0 -0.16 -0.07 0.03 0 0.13 -0.09 0 0 -0.32c0,-0.02 0.01,-0.03 0.02,-0.04 0.02,-0.01 0.03,-0.01 0.06,-0.01l0.1 0c0.02,0 0.04,0 0.05,0.01 0.01,0.01 0.02,0.02 0.02,0.04l0 0.32z"/>
   <polygon id="5" class="fil0" points="7,4.09 7,4.15 6.79,4.15 6.79,3.78 6.88,3.78 6.88,4.09 "/>
   <polygon id="6" class="fil0" points="7.46,4.15 7.37,4.15 7.37,3.78 7.46,3.78 "/>
   <path id="7" class="fil0" d="M7.88 3.78c0.02,0 0.04,0 0.05,0.01 0.02,0.01 0.02,0.02 0.02,0.04l0 0.27c0,0.01 0,0.03 -0.02,0.03 -0.01,0.01 -0.03,0.02 -0.05,0.02l-0.17 0 0 -0.37 0.17 0zm-0.02 0.06l-0.06 0 0 0.25 0.06 0 0 -0.25z"/>
   <polygon id="8" class="fil0" points="8.41,4.15 8.19,4.15 8.19,3.78 8.41,3.78 8.41,3.84 8.28,3.84 8.28,3.93 8.41,3.89 8.41,3.96 8.28,4 8.28,4.09 8.41,4.09 "/>
   <path id="9" class="fil0" d="M8.73 4.15l-0.09 0 0 -0.37 0.09 0 0 0.03c0,-0.01 0.01,-0.02 0.02,-0.02 0,-0.01 0.02,-0.01 0.03,-0.01l0.03 0c0.03,0 0.04,0 0.06,0.01 0.01,0.01 0.02,0.02 0.02,0.04l0 0.32 -0.09 0 0 -0.31 -0.07 0 0 0.31z"/>
   <polygon id="10" class="fil0" points="9.19,4.15 9.19,3.84 9.1,3.84 9.1,3.78 9.37,3.78 9.37,3.84 9.28,3.84 9.28,4.15 "/>
   <polygon id="11" class="fil0" points="9.67,4.15 9.58,4.15 9.58,3.78 9.67,3.78 "/>
   <polygon id="12" class="fil0" points="9.97,4.15 9.97,3.84 9.88,3.84 9.88,3.78 10.15,3.78 10.15,3.84 10.06,3.84 10.06,4.15 "/>
   <path id="13" class="fil0" d="M10.36 3.78l0.09 0 0 0.16 0.07 -0.02 0 -0.14 0.09 0 0 0.32c0,0.01 -0.01,0.03 -0.02,0.04 -0.01,0 -0.03,0.01 -0.06,0.01l-0.1 0c-0.02,0 -0.04,-0.01 -0.05,-0.02 -0.01,0 -0.02,-0.02 -0.02,-0.03l0 -0.02 0.09 -0.03 0 0.04 0.07 0 0 -0.11 -0.16 0.06 0 -0.26z"/>
   <path id="14" class="fil0" d="M11.18 3.78c0.02,0 0.04,0 0.05,0.01 0.02,0.01 0.02,0.02 0.02,0.04l0 0.27c0,0.01 0,0.03 -0.02,0.03 -0.01,0.01 -0.03,0.02 -0.05,0.02l-0.17 0 0 -0.37 0.17 0zm-0.02 0.06l-0.06 0 0 0.25 0.06 0 0 -0.25z"/>
   <polygon id="15" class="fil0" points="11.71,4.15 11.49,4.15 11.49,3.78 11.71,3.78 11.71,3.84 11.58,3.84 11.58,3.93 11.71,3.89 11.71,3.96 11.58,4 11.58,4.09 11.71,4.09 "/>
   <path id="16" class="fil0" d="M11.94 3.83c0,-0.02 0,-0.03 0.02,-0.04 0.01,-0.01 0.03,-0.01 0.05,-0.01l0.1 0c0.02,0 0.04,0 0.06,0.01 0.01,0.01 0.01,0.02 0.01,0.04l0 0.01 -0.09 0.03 0 -0.03 -0.06 0 0 0.09 0.15 -0.05 0 0.22c0,0.01 0,0.03 -0.01,0.03 -0.02,0.01 -0.04,0.02 -0.06,0.02l-0.1 0c-0.02,0 -0.04,-0.01 -0.05,-0.02 -0.02,0 -0.02,-0.02 -0.02,-0.03l0 -0.04 0.09 -0.03 0 0.06 0.06 0 0 -0.12 -0.15 0.06 0 -0.2z"/>
   <polygon id="17" class="fil0" points="12.51,4.15 12.42,4.15 12.42,3.78 12.51,3.78 "/>
   <path id="18" class="fil0" d="M12.76 3.83c0,-0.02 0,-0.03 0.01,-0.04 0.02,-0.01 0.03,-0.01 0.06,-0.01l0.1 0c0.02,0 0.04,0 0.05,0.01 0.01,0.01 0.02,0.02 0.02,0.04l0 0.05 -0.09 0.03 0 -0.07 -0.06 0 0 0.25 0.06 0 0 -0.08 -0.04 0.01 0 -0.07 0.13 -0.04 0 0.24 -0.17 0c-0.03,0 -0.04,-0.01 -0.06,-0.02 -0.01,0 -0.01,-0.02 -0.01,-0.03l0 -0.27z"/>
   <path id="19" class="fil0" d="M13.33 4.15l-0.09 0 0 -0.37 0.09 0 0 0.03c0,-0.01 0.01,-0.02 0.02,-0.02 0.01,-0.01 0.02,-0.01 0.03,-0.01l0.04 0c0.02,0 0.04,0 0.05,0.01 0.01,0.01 0.02,0.02 0.02,0.04l0 0.32 -0.09 0 0 -0.31 -0.07 0 0 0.31z"/>
  </g>
 </g>
</svg>
