<?xml version="1.0" encoding="UTF-8"?>
<!DOCTYPE svg PUBLIC "-//W3C//DTD SVG 1.1//EN" "http://www.w3.org/Graphics/SVG/1.1/DTD/svg11.dtd">
<!-- Creator: CorelDRAW 2017 -->
<svg xmlns="http://www.w3.org/2000/svg" xml:space="preserve" width="1027px" height="417px" version="1.1" style="shape-rendering:geometricPrecision; text-rendering:geometricPrecision; image-rendering:optimizeQuality; fill-rule:evenodd; clip-rule:evenodd"
viewBox="0 0 133.95 54.34"
 xmlns:xlink="http://www.w3.org/1999/xlink">
 <defs>
  <style type="text/css">
   <![CDATA[
    .fil2 {fill:#332C2B}
    .fil0 {fill:#757475;fill-rule:nonzero}
    .fil1 {fill:#332C2B;fill-rule:nonzero}
    .fil3 {fill:#2F318B;fill-rule:nonzero}
   ]]>
  </style>
 </defs>
 <g id="图层_x0020_1">
  <metadata id="CorelCorpID_0Corel-Layer"/>
  <path class="fil0" d="M1.31 2.55l0 -0.97 -0.6 0.2 0 0.77 0.6 0zm0.71 -1.14l0 1.19c0,0.14 -0.06,0.25 -0.17,0.31 -0.1,0.07 -0.27,0.11 -0.49,0.11l-1.36 0 0 -3.02 1.42 0c0.19,0 0.33,0.04 0.44,0.11 0.1,0.07 0.16,0.17 0.16,0.3l0 0.64c0,0.1 -0.03,0.18 -0.08,0.24 -0.05,0.05 -0.13,0.1 -0.24,0.12l0.32 0zm-0.71 -0.34l0 -0.6 -0.6 0 0 0.8 0.6 -0.2z"/>
  <polygon id="1" class="fil0" points="49.89,2.53 49.89,3.02 48.17,3.02 48.17,0 48.91,0 48.91,2.53 "/>
  <path id="2" class="fil0" d="M11.39 1.49l-0.54 0.19 0.84 1.34 -0.77 0 -0.7 -1.12 -0.11 0.04 0 1.08 -0.74 0 0 -3.02 1.42 0c0.19,0 0.34,0.04 0.44,0.11 0.11,0.07 0.16,0.17 0.16,0.3l0 1.08zm-0.74 -0.27l0 -0.74 -0.54 0 0 0.92 0.54 -0.18z"/>
  <path id="3" class="fil0" d="M20.02 1.21l0 -0.73 -0.54 0 0 0.91 0.54 -0.18zm0.74 1.81l-0.74 0 0 -1.28 -0.54 0.19 0 1.09 -0.74 0 0 -2.61c0,-0.13 0.05,-0.23 0.16,-0.3 0.1,-0.07 0.25,-0.11 0.44,-0.11l0.82 0c0.19,0 0.33,0.04 0.44,0.11 0.11,0.07 0.16,0.17 0.16,0.3l0 2.61z"/>
  <path id="4" class="fil0" d="M28.86 3.02l-0.73 0 0 -3.02 0.73 0 0 0.24c0.02,-0.08 0.07,-0.14 0.14,-0.18 0.07,-0.04 0.17,-0.06 0.29,-0.06l0.25 0c0.19,0 0.33,0.04 0.44,0.11 0.11,0.07 0.16,0.17 0.16,0.3l0 2.61 -0.74 0 0 -2.54 -0.54 0 0 2.54z"/>
  <path id="5" class="fil0" d="M38.92 0c0.19,0 0.33,0.04 0.44,0.11 0.11,0.07 0.16,0.17 0.16,0.3l0 2.19c0,0.13 -0.05,0.24 -0.16,0.31 -0.1,0.07 -0.25,0.11 -0.44,0.11l-1.42 0 0 -3.02 1.42 0zm-0.14 0.48l-0.54 0 0 2.06 0.54 0 0 -2.06z"/>
  <path id="6" class="fil0" d="M57.05 0.41c0,-0.13 0.05,-0.23 0.15,-0.3 0.11,-0.07 0.25,-0.11 0.44,-0.11l0.82 0c0.19,0 0.34,0.04 0.44,0.11 0.11,0.07 0.16,0.17 0.16,0.3l0 2.19c0,0.13 -0.05,0.24 -0.15,0.31 -0.11,0.07 -0.26,0.11 -0.45,0.11l-0.82 0c-0.19,0 -0.33,-0.04 -0.44,-0.11 -0.1,-0.07 -0.15,-0.18 -0.15,-0.31l0 -2.19zm1.27 0.07l-0.54 0 0 2.06 0.54 0 0 -2.06z"/>
  <path id="7" class="fil0" d="M66.41 0.41c0,-0.13 0.06,-0.23 0.16,-0.3 0.1,-0.07 0.25,-0.11 0.44,-0.11l0.82 0c0.19,0 0.33,0.04 0.44,0.11 0.11,0.07 0.16,0.17 0.16,0.3l0 0.43 -0.74 0.26 0 -0.62 -0.54 0 0 2.06 0.54 0 0 -0.68 -0.3 0.1 0 -0.54 1.04 -0.35 0 1.95 -1.42 0c-0.19,0 -0.34,-0.04 -0.44,-0.11 -0.1,-0.07 -0.16,-0.18 -0.16,-0.31l0 -2.19z"/>
  <path id="8" class="fil0" d="M75.79 0.41c0,-0.13 0.05,-0.23 0.15,-0.3 0.11,-0.07 0.25,-0.11 0.44,-0.11l0.82 0c0.19,0 0.34,0.04 0.45,0.11 0.1,0.07 0.15,0.17 0.15,0.3l0 2.19c0,0.13 -0.05,0.24 -0.15,0.31 -0.11,0.07 -0.26,0.11 -0.45,0.11l-0.82 0c-0.19,0 -0.33,-0.04 -0.44,-0.11 -0.1,-0.07 -0.15,-0.18 -0.15,-0.31l0 -2.19zm1.27 0.07l-0.54 0 0 2.06 0.54 0 0 -2.06z"/>
  <path id="9" class="fil0" d="M87.87 0c0.19,0 0.34,0.04 0.44,0.11 0.11,0.07 0.16,0.17 0.16,0.3l0 2.19c0,0.13 -0.05,0.24 -0.16,0.31 -0.1,0.07 -0.25,0.11 -0.44,0.11l-1.42 0 0 -3.02 1.42 0zm-0.14 0.48l-0.54 0 0 2.06 0.54 0 0 -2.06z"/>
  <polygon id="10" class="fil0" points="97.6,3.02 95.83,3.02 95.83,0 97.6,0 97.6,0.48 96.57,0.48 96.57,1.26 97.6,0.91 97.6,1.45 96.57,1.8 96.57,2.53 97.6,2.53 "/>
  <path id="11" class="fil0" d="M104.87 0.41c0,-0.13 0.06,-0.23 0.16,-0.3 0.11,-0.07 0.25,-0.11 0.44,-0.11l0.82 0c0.19,0 0.34,0.04 0.44,0.11 0.11,0.07 0.16,0.17 0.16,0.3l0 0.08 -0.74 0.26 0 -0.27 -0.54 0 0 0.76 1.28 -0.45 0 1.81c0,0.13 -0.05,0.24 -0.16,0.31 -0.1,0.07 -0.25,0.11 -0.44,0.11l-0.82 0c-0.19,0 -0.33,-0.04 -0.44,-0.11 -0.1,-0.07 -0.16,-0.18 -0.16,-0.31l0 -0.28 0.74 -0.26 0 0.48 0.54 0 0 -0.95 -1.28 0.45 0 -1.63z"/>
  <polygon id="12" class="fil0" points="114.99,3.02 114.25,3.02 114.25,0 114.99,0 "/>
  <path id="13" class="fil0" d="M122.34 0.41c0,-0.13 0.06,-0.23 0.16,-0.3 0.1,-0.07 0.25,-0.11 0.44,-0.11l0.82 0c0.19,0 0.33,0.04 0.44,0.11 0.11,0.07 0.16,0.17 0.16,0.3l0 0.43 -0.74 0.26 0 -0.62 -0.54 0 0 2.06 0.54 0 0 -0.68 -0.3 0.1 0 -0.54 1.04 -0.35 0 1.95 -1.42 0c-0.19,0 -0.34,-0.04 -0.44,-0.11 -0.1,-0.07 -0.16,-0.18 -0.16,-0.31l0 -2.19z"/>
  <path id="14" class="fil0" d="M132.46 3.02l-0.73 0 0 -3.02 0.73 0 0 0.24c0.02,-0.08 0.07,-0.14 0.14,-0.18 0.07,-0.04 0.17,-0.06 0.29,-0.06l0.25 0c0.19,0 0.34,0.04 0.44,0.11 0.11,0.07 0.16,0.17 0.16,0.3l0 2.61 -0.74 0 0 -2.54 -0.54 0 0 2.54z"/>
  <path class="fil1" d="M117.58 33.34l0 -0.79 -1.02 0 0 1.76c0,0.19 0.11,0.29 0.33,0.29l0.75 0c0.2,0 0.3,-0.1 0.29,-0.29l0 -0.15 0.2 0 0 0.18c0.02,0.3 -0.15,0.44 -0.53,0.43l-0.76 0c-0.35,0.01 -0.53,-0.14 -0.51,-0.46l0 -1.95 1.51 0 0 0.93c0.01,0.33 -0.15,0.49 -0.48,0.48l-0.24 0 0 -0.19 0.24 0c0.15,0 0.22,-0.08 0.22,-0.24zm2.06 -2.32l0 3.31c0.01,0.36 -0.15,0.54 -0.48,0.53l-0.35 0 0 -0.19 0.28 0c0.21,0.01 0.3,-0.08 0.29,-0.27l0 -3.38 0.26 0zm-3.74 1.29c0.49,-0.32 0.83,-0.75 1.02,-1.31l0.29 0c0.19,0.52 0.53,0.95 1.02,1.27l0 0.17c-0.58,-0.29 -0.96,-0.65 -1.15,-1.08 -0.23,0.44 -0.62,0.81 -1.18,1.12l0 -0.17zm2.62 -0.97l0.24 0 0 2.65 -0.24 0 0 -2.65z"/>
  <path id="1" class="fil1" d="M124.39 33.7l0 0.19 -1.39 0 0 1.02 -0.27 0 0 -3.23 -0.21 0c-0.16,0.28 -0.45,0.52 -0.86,0.73l0 -0.19c0.46,-0.27 0.74,-0.67 0.83,-1.2l0.27 0c-0.04,0.18 -0.09,0.34 -0.15,0.49l1.89 0 0 0.17 -1.5 0 0 0.92 1.26 0 0 0.16 -1.26 0 0 0.94 1.39 0zm-3.31 1.21l0 -2.69c-0.15,0.13 -0.34,0.26 -0.58,0.39l0 -0.18c0.51,-0.32 0.82,-0.8 0.92,-1.43l0.27 0c-0.08,0.39 -0.2,0.69 -0.35,0.9l0 3.01 -0.26 0z"/>
  <path id="2" class="fil1" d="M125.12 33.65c0.31,-0.61 0.53,-1.2 0.64,-1.77l-0.54 0 0 -0.18 0.56 0 0 -0.7 0.25 0 0 0.7 0.51 0 0 0.18 -0.51 0c0.13,0.52 0.31,0.99 0.55,1.39l0 0.29c-0.24,-0.34 -0.42,-0.68 -0.55,-1.02l0 2.37 -0.25 0 0 -2.31c-0.15,0.44 -0.37,0.9 -0.66,1.37l0 -0.32zm1.46 -1.17l0 -0.19 2.51 0 0 0.19 -1.13 0 0 1.92c0.01,0.33 -0.15,0.48 -0.46,0.47l-0.31 0 0 -0.18 0.22 0c0.21,0 0.3,-0.09 0.29,-0.26l0 -1.95 -1.12 0zm-0.14 2.04l0 -0.17c0.34,-0.37 0.51,-0.85 0.51,-1.45l0.26 0c0,0.74 -0.26,1.28 -0.77,1.62zm0.34 -3.2l2.11 0 0 0.17 -2.11 0 0 -0.17zm2.38 3.2c-0.48,-0.34 -0.72,-0.88 -0.73,-1.62l0.25 0c0.02,0.6 0.17,1.08 0.48,1.45l0 0.17z"/>
  <path id="3" class="fil1" d="M129.86 31.83l0 -0.18 1.78 0 0 -0.66 0.27 0 0 0.66 1.8 0 0 0.18 -1.8 0 0 0.83 1.48 0 0 0.19 -3.23 0 0 -0.19 1.48 0 0 -0.83 -1.78 0zm0.93 1.43l0.27 0 0 1c-0.01,0.25 0.11,0.36 0.35,0.34l0.91 0c0.26,0.01 0.38,-0.09 0.37,-0.31l0 -0.13 0.2 0 0 0.1c0.01,0.36 -0.17,0.53 -0.54,0.51l-1.02 0c-0.37,0.01 -0.56,-0.15 -0.54,-0.49l0 -1.02zm-0.58 0l0.22 0c-0.09,0.53 -0.21,0.96 -0.36,1.29l-0.29 0c0.23,-0.48 0.37,-0.91 0.43,-1.29zm3.11 0c0.19,0.46 0.33,0.89 0.42,1.29l-0.27 0c-0.07,-0.37 -0.19,-0.8 -0.37,-1.29l0.22 0zm-1.31 0c0.1,0.23 0.19,0.5 0.25,0.81l-0.25 0c-0.02,-0.23 -0.1,-0.51 -0.22,-0.81l0.22 0z"/>
  <path id="4" class="fil1" d="M119.79 41.74l-1.6 0c-0.01,1.19 -0.4,2.12 -1.17,2.8l0 -0.24c0.6,-0.67 0.91,-1.52 0.92,-2.56l-0.92 0 0 -0.19 0.92 0c0.01,-0.06 0.02,-0.12 0.02,-0.19l0 -0.71 0.25 0 0 0.56c0,0.13 0,0.24 0,0.34l1.58 0 0 0.19zm-3.34 2.8l0 -2.7c-0.15,0.14 -0.34,0.27 -0.58,0.39l0 -0.17c0.51,-0.32 0.82,-0.79 0.92,-1.43l0.29 0c-0.09,0.37 -0.22,0.67 -0.38,0.9l0 3.01 -0.25 0zm2 -2.5l0.24 0 0 1.9c0,0.2 0.1,0.29 0.31,0.28l0.3 0c0.21,0.01 0.32,-0.07 0.3,-0.22l0 -0.17 0.21 0 0 0.17c0.01,0.27 -0.15,0.4 -0.48,0.39l-0.37 0c-0.35,0.01 -0.52,-0.13 -0.51,-0.41l0 -1.94zm0.54 -1.32c0.11,0.21 0.17,0.42 0.21,0.63l-0.26 0c-0.02,-0.18 -0.08,-0.39 -0.17,-0.63l0.22 0z"/>
  <path id="5" class="fil1" d="M122.59 40.63l0.27 0 0 1.94c0.53,-0.33 0.93,-0.8 1.19,-1.41l0.29 0c-0.34,0.78 -0.83,1.33 -1.48,1.65l0 1.1c0,0.19 0.1,0.29 0.31,0.29l0.75 0c0.19,0 0.29,-0.1 0.29,-0.29l0 -0.15 0.22 0 0 0.22c0,0.28 -0.18,0.42 -0.53,0.42l-0.8 0c-0.34,0 -0.51,-0.16 -0.51,-0.47l0 -0.97c-0.26,0.1 -0.54,0.19 -0.85,0.27l0 -0.19c0.32,-0.07 0.6,-0.18 0.85,-0.32l0 -2.09zm-1.46 3.91l0 -2.7c-0.15,0.13 -0.35,0.26 -0.61,0.39l0 -0.17c0.52,-0.32 0.84,-0.79 0.95,-1.43l0.27 0c-0.1,0.42 -0.22,0.72 -0.36,0.9l0 3.01 -0.25 0z"/>
  <path id="6" class="fil1" d="M125.12 43.28c0.31,-0.61 0.53,-1.2 0.64,-1.76l-0.54 0 0 -0.19 0.56 0 0 -0.7 0.25 0 0 0.7 0.51 0 0 0.19 -0.51 0c0.13,0.52 0.31,0.98 0.55,1.39l0 0.29c-0.24,-0.34 -0.42,-0.68 -0.55,-1.02l0 2.36 -0.25 0 0 -2.31c-0.15,0.44 -0.37,0.9 -0.66,1.38l0 -0.33zm1.46 -1.17l0 -0.18 2.51 0 0 0.18 -1.13 0 0 1.92c0.01,0.33 -0.15,0.49 -0.46,0.48l-0.31 0 0 -0.19 0.22 0c0.21,0 0.3,-0.08 0.29,-0.25l0 -1.96 -1.12 0zm-0.14 2.04l0 -0.17c0.34,-0.36 0.51,-0.84 0.51,-1.44l0.26 0c0,0.73 -0.26,1.27 -0.77,1.61zm0.34 -3.19l2.11 0 0 0.17 -2.11 0 0 -0.17zm2.38 3.19c-0.48,-0.34 -0.72,-0.88 -0.73,-1.61l0.25 0c0.02,0.6 0.17,1.08 0.48,1.44l0 0.17z"/>
  <path id="7" class="fil1" d="M129.86 41.47l0 -0.19 1.78 0 0 -0.66 0.27 0 0 0.66 1.8 0 0 0.19 -1.8 0 0 0.83 1.48 0 0 0.19 -3.23 0 0 -0.19 1.48 0 0 -0.83 -1.78 0zm0.93 1.42l0.27 0 0 1c-0.01,0.25 0.11,0.37 0.35,0.34l0.91 0c0.26,0.01 0.38,-0.09 0.37,-0.3l0 -0.14 0.2 0 0 0.1c0.01,0.37 -0.17,0.54 -0.54,0.51l-1.02 0c-0.37,0.01 -0.56,-0.15 -0.54,-0.49l0 -1.02zm-0.58 0l0.22 0c-0.09,0.54 -0.21,0.97 -0.36,1.29l-0.29 0c0.23,-0.47 0.37,-0.9 0.43,-1.29zm3.11 0c0.19,0.47 0.33,0.9 0.42,1.29l-0.27 0c-0.07,-0.37 -0.19,-0.8 -0.37,-1.29l0.22 0zm-1.31 0c0.1,0.23 0.19,0.5 0.25,0.82l-0.25 0c-0.02,-0.24 -0.1,-0.51 -0.22,-0.82l0.22 0z"/>
  <path id="8" class="fil1" d="M118.88 50.27l0 1.7 0.96 0 0 0.19 -0.96 0 0 2 -0.27 0 0 -2 -1.36 0c0.03,0.88 -0.34,1.55 -1.11,2l0 -0.19c0.59,-0.45 0.87,-1.06 0.83,-1.81l-1.05 0 0 -0.19 1.05 0 0 -1.18 -0.9 0 0 -0.18 1.4 0c0.2,0 0.46,-0.04 0.76,-0.1l0 0.2c-0.23,0.06 -0.47,0.08 -0.73,0.08l-0.25 0 0 1.13 0 0.05 1.36 0 0 -1.7 0.27 0z"/>
  <path id="9" class="fil1" d="M121.71 53.89c0.25,-0.36 0.41,-0.73 0.49,-1.11 0.08,-0.36 0.12,-0.91 0.12,-1.64l0 -0.45 -0.39 0 0 -0.18 1.99 0 0 0.17c-0.12,0.34 -0.27,0.66 -0.46,0.97l0.76 0 0 0.17c-0.12,0.69 -0.36,1.21 -0.71,1.56 0.18,0.18 0.5,0.38 0.95,0.59l0 0.19c-0.45,-0.19 -0.82,-0.4 -1.1,-0.63 -0.31,0.24 -0.65,0.45 -1.02,0.65l0 -0.19c0.37,-0.2 0.66,-0.41 0.86,-0.61 -0.26,-0.26 -0.48,-0.65 -0.68,-1.16 -0.05,0.76 -0.32,1.4 -0.81,1.92l0 -0.25zm1.53 -2.23c0.18,-0.3 0.32,-0.63 0.42,-0.97l-1.08 0 0 0.43c0,0.36 -0.02,0.68 -0.04,0.95l0.19 0c0.17,0.49 0.38,0.87 0.63,1.16 0.29,-0.36 0.49,-0.82 0.61,-1.41l-0.73 0 0 -0.16zm-1.4 1.11c-0.35,0.06 -0.75,0.1 -1.22,0.1l0 -0.21c0.28,-0.32 0.51,-0.63 0.68,-0.91 -0.24,0.02 -0.49,0.03 -0.76,0.03l0 -0.2c0.34,-0.42 0.57,-0.85 0.69,-1.28l0.27 0c-0.15,0.47 -0.4,0.89 -0.73,1.28 0.29,0 0.5,-0.01 0.65,-0.04 0.09,-0.16 0.17,-0.33 0.25,-0.51l0.28 0c-0.31,0.66 -0.67,1.2 -1.07,1.63 0.32,0 0.65,-0.02 0.96,-0.08l0 0.19zm0.02 0.73c-0.38,0.13 -0.83,0.2 -1.32,0.2l0 -0.22c0.47,0 0.91,-0.05 1.32,-0.15l0 0.17z"/>
  <path id="10" class="fil1" d="M125.12 52.92c0.31,-0.61 0.53,-1.2 0.64,-1.77l-0.54 0 0 -0.19 0.56 0 0 -0.69 0.25 0 0 0.69 0.51 0 0 0.19 -0.51 0c0.13,0.52 0.31,0.99 0.55,1.39l0 0.29c-0.24,-0.34 -0.42,-0.68 -0.55,-1.02l0 2.36 -0.25 0 0 -2.31c-0.15,0.45 -0.37,0.9 -0.66,1.38l0 -0.32zm1.46 -1.17l0 -0.19 2.51 0 0 0.19 -1.13 0 0 1.92c0.01,0.33 -0.15,0.48 -0.46,0.47l-0.31 0 0 -0.18 0.22 0c0.21,0 0.3,-0.09 0.29,-0.26l0 -1.95 -1.12 0zm-0.14 2.03l0 -0.17c0.34,-0.36 0.51,-0.84 0.51,-1.44l0.26 0c0,0.74 -0.26,1.28 -0.77,1.61zm0.34 -3.19l2.11 0 0 0.17 -2.11 0 0 -0.17zm2.38 3.19c-0.48,-0.33 -0.72,-0.87 -0.73,-1.61l0.25 0c0.02,0.6 0.17,1.08 0.48,1.44l0 0.17z"/>
  <path id="11" class="fil1" d="M129.86 51.1l0 -0.18 1.78 0 0 -0.67 0.27 0 0 0.67 1.8 0 0 0.18 -1.8 0 0 0.83 1.48 0 0 0.19 -3.23 0 0 -0.19 1.48 0 0 -0.83 -1.78 0zm0.93 1.43l0.27 0 0 1c-0.01,0.25 0.11,0.36 0.35,0.34l0.91 0c0.26,0.01 0.38,-0.09 0.37,-0.31l0 -0.13 0.2 0 0 0.1c0.01,0.36 -0.17,0.53 -0.54,0.51l-1.02 0c-0.37,0.01 -0.56,-0.16 -0.54,-0.49l0 -1.02zm-0.58 0l0.22 0c-0.09,0.53 -0.21,0.96 -0.36,1.29l-0.29 0c0.23,-0.48 0.37,-0.91 0.43,-1.29zm3.11 0c0.19,0.46 0.33,0.89 0.42,1.29l-0.27 0c-0.07,-0.37 -0.19,-0.81 -0.37,-1.29l0.22 0zm-1.31 0c0.1,0.22 0.19,0.5 0.25,0.81l-0.25 0c-0.02,-0.23 -0.1,-0.51 -0.22,-0.81l0.22 0z"/>
  <polygon id="12" class="fil2" points="115.7,34.88 133.95,34.88 133.95,35.07 115.7,35.07 "/>
  <polygon id="13" class="fil2" points="133.95,34.88 133.95,34.88 133.95,35.07 133.95,35.07 "/>
  <polygon id="14" class="fil2" points="115.7,44.51 115.7,44.51 115.7,44.71 115.7,44.71 "/>
  <polygon id="15" class="fil2" points="115.7,44.51 133.95,44.51 133.95,44.71 115.7,44.71 "/>
  <polygon id="16" class="fil2" points="133.95,44.51 133.95,44.51 133.95,44.71 133.95,44.71 "/>
  <polygon id="17" class="fil2" points="115.7,54.15 115.7,54.15 115.7,54.34 115.7,54.34 "/>
  <polygon id="18" class="fil2" points="115.7,54.15 133.95,54.15 133.95,54.34 115.7,54.34 "/>
  <g id="_3110868717104">
   <path class="fil3" d="M54.93 11.2l2.21 0 0.31 -0.69 1.29 0.63 -0.36 0.38 0 0.87c0,0.18 0,0.39 0.01,0.63 0,0.24 0.01,0.5 0.02,0.78 0,0.12 -0.06,0.19 -0.17,0.21 -0.15,0.03 -0.31,0.05 -0.47,0.07 -0.17,0.02 -0.33,0.03 -0.48,0.04l0 -0.69 -2.62 0 0 0.33c0,0.1 -0.01,0.17 -0.05,0.22 -0.04,0.04 -0.1,0.08 -0.19,0.09 -0.13,0.03 -0.27,0.05 -0.44,0.06 -0.16,0.02 -0.3,0.02 -0.42,0.02 0.01,-0.48 0.02,-0.87 0.03,-1.17 0.01,-0.3 0.01,-0.53 0.01,-0.68l0 -0.28c0,-0.07 0,-0.21 -0.01,-0.42 0,-0.22 -0.01,-0.49 -0.02,-0.82l1.35 0.42zm2.6 3.65l0.92 0 0.28 -0.58 1.14 0.55 -0.3 0.34 0 1.12c0,0.04 0,0.11 0,0.22 0,0.11 0,0.23 0,0.39 0,0.15 0,0.31 0,0.49 0.01,0.18 0.01,0.36 0.02,0.53 0,0.09 -0.02,0.15 -0.04,0.19 -0.03,0.03 -0.08,0.06 -0.16,0.08 -0.25,0.05 -0.52,0.08 -0.82,0.09l0 -0.72 -1.29 0 0 0.3c0,0.1 -0.03,0.17 -0.08,0.22 -0.05,0.04 -0.12,0.07 -0.21,0.09 -0.13,0.03 -0.25,0.05 -0.37,0.06 -0.12,0.01 -0.24,0.02 -0.36,0.02 0,-0.17 0.01,-0.35 0.01,-0.54 0,-0.18 0,-0.36 0.01,-0.52 0,-0.16 0,-0.31 0,-0.44 0,-0.13 0,-0.22 0,-0.29l0 -0.68c0,-0.09 0,-0.24 0,-0.45 -0.01,-0.21 -0.01,-0.48 -0.02,-0.81l1.27 0.34zm-3.87 -0.01l0.87 0 0.28 -0.58 1.17 0.53 -0.33 0.37 0 1.05c0,0.04 0,0.12 0,0.22 0,0.11 0,0.24 0,0.39 0,0.15 0,0.31 0,0.49 0,0.18 0.01,0.36 0.01,0.53 0,0.09 -0.01,0.15 -0.04,0.19 -0.02,0.04 -0.07,0.06 -0.15,0.08 -0.25,0.05 -0.52,0.08 -0.82,0.09l0 -0.65 -1.24 0 0 0.35c0,0.1 -0.02,0.17 -0.07,0.22 -0.06,0.04 -0.13,0.08 -0.21,0.09 -0.13,0.03 -0.26,0.05 -0.38,0.06 -0.12,0.01 -0.24,0.02 -0.36,0.02 0.01,-0.17 0.01,-0.35 0.01,-0.54 0.01,-0.18 0.01,-0.36 0.01,-0.52 0,-0.16 0.01,-0.31 0.01,-0.44 0,-0.13 0,-0.22 0,-0.29l0 -0.74c0,-0.09 -0.01,-0.24 -0.01,-0.45 0,-0.2 -0.01,-0.47 -0.01,-0.81l1.26 0.34zm1.01 -3.6l0 2.15 2.62 0 0 -2.15 -2.62 0zm2.61 3.65l0 2.63 1.29 0 0 -2.63 -1.29 0zm-3.87 -0.01l0 2.63 1.24 0 0 -2.63 -1.24 0zm15.69 -2.2c0,0.14 0,0.3 0,0.48 0.01,0.19 0.01,0.37 0.01,0.55 0,0.19 0.01,0.36 0.01,0.53 0,0.17 0,0.31 0,0.42 0,0.12 -0.05,0.2 -0.17,0.22 -0.09,0.02 -0.21,0.04 -0.35,0.06 -0.14,0.02 -0.3,0.03 -0.46,0.04l0 -0.44 -1.18 0c-0.22,0.46 -0.5,0.81 -0.83,1.05 -0.33,0.25 -0.74,0.46 -1.21,0.63l-0.03 -0.04c0.28,-0.24 0.52,-0.48 0.72,-0.73 0.2,-0.24 0.38,-0.55 0.53,-0.91l-0.36 0 0 0.14c0,0.13 -0.06,0.21 -0.18,0.24 -0.09,0.02 -0.22,0.05 -0.36,0.06 -0.15,0.01 -0.3,0.02 -0.46,0.03 0,-0.09 0.01,-0.18 0.01,-0.3 0,-0.11 0.01,-0.23 0.01,-0.35 0,-0.13 0,-0.26 0,-0.39 0,-0.13 0,-0.29 0,-0.46l-1.99 0c0,0.55 -0.02,1.05 -0.06,1.5l0.46 0 0.31 -0.65 1.1 0.55 -0.33 0.39 0 0.83c0,0.14 0,0.29 0,0.45 0.01,0.17 0.01,0.33 0.01,0.5 0,0.16 0.01,0.31 0.01,0.45 0.01,0.15 0.01,0.27 0.01,0.36 0,0.12 -0.05,0.2 -0.16,0.22 -0.12,0.02 -0.25,0.04 -0.4,0.06 -0.15,0.01 -0.29,0.02 -0.42,0.03l0 -3.15 -0.59 0c-0.04,0.41 -0.09,0.77 -0.16,1.05 -0.07,0.29 -0.16,0.56 -0.26,0.82 -0.11,0.25 -0.24,0.49 -0.38,0.73 -0.15,0.23 -0.32,0.48 -0.51,0.73l-0.05 -0.02c0.1,-0.39 0.18,-0.74 0.25,-1.04 0.06,-0.3 0.11,-0.62 0.15,-0.95 0.03,-0.34 0.06,-0.71 0.07,-1.12 0.02,-0.42 0.02,-0.93 0.02,-1.55l0 -0.87c0,-0.09 0,-0.19 0,-0.31 0,-0.11 -0.01,-0.24 -0.01,-0.37 0,-0.13 0,-0.26 -0.01,-0.4 0,-0.13 0,-0.25 -0.01,-0.36l1.29 0.21 -0.33 0.28 0 1.59 0.52 0 0 -1.7c0,-0.04 0,-0.1 0,-0.2 0,-0.09 0,-0.18 -0.01,-0.29 0,-0.1 0,-0.2 -0.01,-0.29 0,-0.1 0,-0.17 0,-0.22l1.22 0.21 -0.29 0.27 0 2.12 0.21 -0.42 0.36 0.39 0 -0.16 0 -0.58c0,-0.22 0,-0.44 0,-0.63 0,-0.2 -0.01,-0.4 -0.01,-0.62l1.16 0.4 0.25 0c0.01,-0.21 0.01,-0.42 0.01,-0.61 -0.01,-0.2 -0.01,-0.38 -0.02,-0.55l1.34 0.26 -0.38 0.21c-0.12,0.12 -0.24,0.24 -0.38,0.36 -0.13,0.12 -0.27,0.23 -0.42,0.33l1.64 0 0.33 -0.65 1.08 0.56 -0.31 0.4 0 0.62zm-0.81 2.54l-0.32 0.3 0 0.89 0.32 0 0.43 -0.64 0.81 0.62c0,0 0,0 0,0 0,0 0,0 0,0 0,0 -0.07,0.02 -0.21,0.06l-1.35 0c0,0.11 0,0.24 0,0.37 0,0.13 0,0.27 0,0.41 0,0.15 0,0.3 0,0.46 0,0.15 0.01,0.27 0.01,0.38 0.01,0.07 -0.01,0.12 -0.05,0.16 -0.04,0.05 -0.09,0.07 -0.16,0.09 -0.13,0.01 -0.26,0.03 -0.41,0.03 -0.14,0.01 -0.28,0.02 -0.43,0.02 0.01,-0.13 0.01,-0.28 0.02,-0.45 0,-0.17 0,-0.34 0.01,-0.52 0,-0.17 0,-0.34 0,-0.5 0.01,-0.15 0.01,-0.31 0.01,-0.45l-2.51 0 0 -0.04 2.51 0 0 -0.35c0,-0.07 0,-0.14 0,-0.23 0,-0.1 0,-0.19 -0.01,-0.29 0,-0.1 0,-0.19 0,-0.29 -0.01,-0.09 -0.01,-0.17 -0.01,-0.24l1.34 0.21zm-0.97 -2.01c-0.03,0.27 -0.07,0.5 -0.12,0.69 -0.05,0.18 -0.12,0.38 -0.22,0.6l1.16 0 0 -1.29 -0.82 0zm0.06 -1.42l0 0.39c0,0.16 0,0.32 -0.01,0.47 -0.01,0.15 -0.02,0.33 -0.04,0.52l0.81 0 0 -1.38 -0.76 0zm-0.93 1.38c0.03,-0.28 0.04,-0.55 0.04,-0.81l0 -0.57 -0.71 0 0 1.38 0.67 0zm-0.29 1.33c0.14,-0.38 0.23,-0.81 0.29,-1.29l-0.67 0 0 1.29 0.38 0zm7.3 -3.78l-0.35 0.3 0 1.59 0.1 0 0.42 -0.72 0.82 0.69c0,0 0,0 0,0 0,0 -0.05,0.03 -0.17,0.07l-1.17 0 0 0.77c0.41,0.14 0.69,0.29 0.86,0.43 0.16,0.15 0.24,0.3 0.24,0.46 0,0.19 -0.06,0.35 -0.17,0.47 -0.12,0.13 -0.25,0.19 -0.4,0.19 -0.08,0 -0.15,-0.03 -0.2,-0.08 -0.05,-0.05 -0.08,-0.13 -0.09,-0.23 -0.01,-0.21 -0.03,-0.41 -0.07,-0.59 -0.03,-0.17 -0.09,-0.35 -0.17,-0.54l0 4.41c0,0.09 -0.01,0.15 -0.04,0.19 -0.03,0.04 -0.09,0.07 -0.19,0.08 -0.11,0.03 -0.24,0.04 -0.39,0.05 -0.14,0.02 -0.28,0.02 -0.41,0.02 0.01,-0.3 0.01,-0.61 0.02,-0.93 0.01,-0.32 0.01,-0.64 0.01,-0.95 0.01,-0.32 0.01,-0.61 0.01,-0.9 0,-0.28 0,-0.53 0,-0.75l0 -0.04c-0.18,0.33 -0.38,0.64 -0.6,0.95 -0.21,0.31 -0.45,0.62 -0.72,0.92l-0.02 -0.02c0.15,-0.39 0.29,-0.74 0.4,-1.06 0.12,-0.32 0.22,-0.63 0.31,-0.93 0.09,-0.3 0.16,-0.59 0.23,-0.89 0.06,-0.29 0.13,-0.64 0.19,-1.03l-0.98 0 0 -0.04 1.19 0 0 -0.51c0,-0.16 0,-0.31 0,-0.44 0,-0.13 0,-0.26 -0.01,-0.38 0,-0.13 0,-0.25 -0.01,-0.37 0,-0.12 0,-0.26 -0.01,-0.41l1.37 0.22zm0.72 2.53l3.3 0 0.51 -0.82 0.95 0.78c0,0 0,0 0,0 0,0 0,0 0,0 0,0 -0.06,0.03 -0.2,0.08l-1.85 0 0 1.38c0,0.21 0,0.53 0.01,0.97 0.01,0.44 0.01,0.97 0.03,1.59 0,0.14 -0.02,0.28 -0.07,0.39 -0.05,0.12 -0.13,0.22 -0.24,0.31 -0.11,0.09 -0.26,0.16 -0.44,0.21 -0.18,0.06 -0.41,0.1 -0.67,0.12 -0.02,-0.14 -0.04,-0.26 -0.08,-0.37 -0.03,-0.11 -0.09,-0.21 -0.16,-0.3 -0.08,-0.08 -0.18,-0.16 -0.3,-0.22 -0.13,-0.06 -0.29,-0.12 -0.49,-0.17l0.02 -0.05 0.96 0.02c0.15,0.01 0.25,-0.02 0.31,-0.08 0.06,-0.06 0.09,-0.17 0.09,-0.32l0 -2.12 -0.27 0.14c-0.26,0.49 -0.55,0.94 -0.88,1.34 -0.33,0.4 -0.7,0.8 -1.13,1.18l-0.05 -0.02c0.3,-0.59 0.54,-1.15 0.73,-1.67 0.19,-0.53 0.32,-1.05 0.39,-1.57l1.21 0.5 0 -1.26 -1.68 0 0 -0.04zm2.82 0.85c0.66,0.41 1.13,0.79 1.41,1.14 0.28,0.36 0.42,0.67 0.42,0.93 0,0.11 -0.01,0.21 -0.05,0.3 -0.03,0.1 -0.08,0.18 -0.14,0.25 -0.06,0.07 -0.13,0.12 -0.21,0.16 -0.08,0.04 -0.17,0.06 -0.26,0.06 -0.11,0 -0.2,-0.03 -0.27,-0.08 -0.07,-0.06 -0.12,-0.16 -0.14,-0.31 -0.04,-0.25 -0.08,-0.49 -0.13,-0.7 -0.05,-0.21 -0.11,-0.41 -0.18,-0.6 -0.06,-0.2 -0.13,-0.38 -0.21,-0.56 -0.08,-0.18 -0.18,-0.37 -0.28,-0.56l0.04 -0.03zm-2.43 -2.79l2.32 0 0.5 -0.77 0.9 0.73c0,0 0,0 0,0 0,0 0,0 0,0 0,0 -0.07,0.03 -0.2,0.08l-3.52 0 0 -0.04zm13.12 1.22c0,0.11 0,0.25 0.01,0.42 0,0.17 0,0.35 0,0.54 0.01,0.19 0.01,0.38 0.01,0.57 0.01,0.2 0.01,0.38 0.02,0.54 0,0.08 -0.01,0.15 -0.05,0.19 -0.03,0.04 -0.09,0.07 -0.17,0.08 -0.13,0.03 -0.27,0.05 -0.42,0.06 -0.15,0.01 -0.3,0.02 -0.45,0.03l0 -0.65 -1.94 0 0 0.36c0,0.1 -0.02,0.16 -0.05,0.2 -0.04,0.04 -0.1,0.06 -0.2,0.08 -0.14,0.03 -0.29,0.05 -0.44,0.07 -0.16,0.02 -0.28,0.03 -0.38,0.03 0,-0.17 0.01,-0.36 0.02,-0.56 0,-0.2 0.01,-0.4 0.01,-0.6 0.01,-0.2 0.01,-0.39 0.02,-0.57 0,-0.19 0,-0.35 0,-0.48l0 -0.67c0,-0.03 0,-0.09 0,-0.19 -0.01,-0.1 -0.01,-0.21 -0.01,-0.34 -0.01,-0.13 -0.01,-0.26 -0.01,-0.41 0,-0.14 -0.01,-0.26 -0.01,-0.36l1.3 0.49 1.5 0 0.34 -0.69 1.24 0.6 -0.34 0.4 0 0.86zm-4.25 2.7l0.03 0.05c-0.12,0.18 -0.25,0.37 -0.39,0.56 -0.14,0.2 -0.28,0.39 -0.43,0.59 -0.14,0.19 -0.29,0.38 -0.44,0.56 -0.15,0.18 -0.29,0.34 -0.42,0.48l-0.18 0.42 -0.75 -1.13c0.15,-0.09 0.25,-0.18 0.3,-0.26 0.06,-0.08 0.09,-0.2 0.09,-0.34l0 -2.69 -0.92 0 0 -0.03 0.75 0 0.32 -0.67 1.28 0.58 -0.4 0.42 0 2.24 1.16 -0.78zm1.26 -3.83l0 2.87 1.94 0 0 -2.87 -1.94 0zm1.33 3.84c0.46,0.2 0.84,0.39 1.15,0.57 0.3,0.18 0.54,0.36 0.72,0.53 0.18,0.17 0.31,0.33 0.38,0.48 0.08,0.15 0.12,0.29 0.12,0.43 0,0.24 -0.07,0.44 -0.21,0.59 -0.15,0.14 -0.31,0.22 -0.51,0.22 -0.11,0 -0.2,-0.03 -0.27,-0.09 -0.07,-0.06 -0.12,-0.14 -0.16,-0.24 -0.09,-0.27 -0.19,-0.52 -0.27,-0.73 -0.09,-0.22 -0.18,-0.42 -0.27,-0.61 -0.09,-0.19 -0.19,-0.37 -0.3,-0.55 -0.11,-0.17 -0.25,-0.36 -0.4,-0.56l0.02 -0.04zm-3.61 2.97c0.3,-0.35 0.56,-0.66 0.78,-0.93 0.21,-0.28 0.39,-0.54 0.54,-0.78 0.15,-0.24 0.27,-0.47 0.37,-0.69 0.1,-0.22 0.18,-0.45 0.25,-0.68l1.41 0.61 -0.45 0.19c-0.2,0.26 -0.4,0.49 -0.6,0.7 -0.2,0.21 -0.42,0.41 -0.64,0.6 -0.23,0.19 -0.48,0.36 -0.74,0.53 -0.27,0.16 -0.56,0.33 -0.89,0.5l-0.03 -0.05zm-1.53 -7.57c0.57,0.08 0.97,0.2 1.22,0.38 0.24,0.17 0.37,0.37 0.37,0.61 0,0.09 -0.02,0.17 -0.06,0.26 -0.04,0.08 -0.1,0.16 -0.16,0.22 -0.07,0.07 -0.14,0.12 -0.23,0.16 -0.08,0.04 -0.17,0.06 -0.27,0.06 -0.09,0 -0.17,-0.03 -0.23,-0.09 -0.06,-0.05 -0.11,-0.16 -0.16,-0.33 -0.07,-0.26 -0.15,-0.48 -0.22,-0.68 -0.07,-0.19 -0.16,-0.38 -0.28,-0.57l0.02 -0.02zm37.08 7.63c0.5,-0.27 0.96,-0.55 1.36,-0.83 0.4,-0.29 0.77,-0.59 1.1,-0.92 -0.21,-0.27 -0.38,-0.58 -0.52,-0.92 -0.14,-0.34 -0.25,-0.76 -0.35,-1.25l-0.73 0 0 -0.04 2.94 0 0.39 -0.61 1.27 0.76 -0.43 0.33c-0.16,0.31 -0.33,0.59 -0.5,0.85 -0.17,0.26 -0.36,0.5 -0.57,0.73 0.31,0.13 0.66,0.24 1.03,0.33 0.38,0.09 0.8,0.16 1.27,0.22l0 0.05c-0.17,0.14 -0.32,0.29 -0.46,0.47 -0.15,0.18 -0.29,0.44 -0.42,0.78 -0.51,-0.15 -0.95,-0.31 -1.32,-0.48 -0.38,-0.17 -0.71,-0.37 -0.99,-0.59 -0.78,0.56 -1.8,0.95 -3.04,1.17l-0.03 -0.05zm2.79 -7.25l0.76 0 0.31 -0.6 1.12 0.54 -0.28 0.35 0 1.16c0,0.1 0.02,0.17 0.05,0.21 0.04,0.04 0.11,0.05 0.21,0.05l0.12 0c0.08,0 0.16,-0.01 0.22,-0.03 0.06,-0.03 0.12,-0.08 0.19,-0.16l0.03 0c0.25,0.18 0.43,0.33 0.52,0.43 0.1,0.11 0.14,0.21 0.14,0.3 0,0.07 -0.08,0.15 -0.25,0.23 -0.18,0.08 -0.43,0.12 -0.75,0.12l-0.62 0c-0.33,0 -0.55,-0.07 -0.68,-0.22 -0.13,-0.15 -0.2,-0.4 -0.2,-0.75l0 -1.59 -1.14 0 0 0.39c0,0.36 -0.03,0.68 -0.11,0.96 -0.07,0.28 -0.18,0.53 -0.34,0.75 -0.16,0.22 -0.37,0.42 -0.63,0.6 -0.26,0.19 -0.57,0.37 -0.95,0.55l-0.03 -0.05c0.2,-0.22 0.36,-0.43 0.49,-0.62 0.12,-0.19 0.23,-0.39 0.31,-0.59 0.07,-0.21 0.13,-0.42 0.15,-0.66 0.03,-0.23 0.05,-0.5 0.05,-0.81 0,-0.17 -0.01,-0.34 -0.01,-0.5 -0.01,-0.16 -0.02,-0.31 -0.03,-0.46l1.35 0.4zm-4.64 2.42l0 -0.04 0.78 0 0.31 -0.64 1.15 0.59 -0.33 0.36 0 2.35 1.21 -0.54 0.03 0.04c-0.16,0.18 -0.3,0.35 -0.44,0.5 -0.13,0.15 -0.26,0.29 -0.39,0.42 -0.13,0.14 -0.26,0.27 -0.4,0.41 -0.13,0.13 -0.28,0.27 -0.44,0.42l-0.19 0.43 -0.77 -1.06c0.15,-0.1 0.25,-0.19 0.31,-0.28 0.05,-0.1 0.08,-0.22 0.08,-0.36l0 -2.6 -0.91 0zm3.52 0.91c0.22,0.35 0.44,0.65 0.66,0.88 0.22,0.23 0.46,0.44 0.72,0.62 0.16,-0.22 0.32,-0.44 0.46,-0.67 0.14,-0.23 0.27,-0.51 0.39,-0.83l-2.23 0zm-2.87 -3.76c0.31,0.06 0.57,0.13 0.77,0.2 0.21,0.08 0.38,0.16 0.5,0.24 0.13,0.09 0.21,0.18 0.27,0.28 0.05,0.1 0.08,0.21 0.08,0.32 0,0.09 -0.02,0.18 -0.06,0.26 -0.04,0.09 -0.09,0.16 -0.15,0.23 -0.07,0.06 -0.14,0.11 -0.22,0.15 -0.09,0.04 -0.17,0.06 -0.26,0.06 -0.09,0 -0.18,-0.03 -0.24,-0.09 -0.07,-0.07 -0.12,-0.18 -0.16,-0.33 -0.06,-0.22 -0.13,-0.44 -0.23,-0.68 -0.1,-0.23 -0.21,-0.44 -0.33,-0.62l0.03 -0.02zm15 0.25l-0.37 0.35 0 2.54 0.62 0 0.64 -0.94 1.08 0.9c0,0 0,0 0,0 0,0 0,0 0,0 0,0 -0.07,0.03 -0.2,0.08l-2.14 0 0 1.3c0,0.06 0,0.15 0,0.29 0,0.14 0,0.3 0,0.48 0,0.18 0.01,0.37 0.01,0.58 0,0.21 0.01,0.42 0.01,0.62 0,0.2 0,0.38 0.01,0.55 0,0.18 0,0.32 0,0.43 0,0.08 -0.01,0.13 -0.04,0.16 -0.02,0.03 -0.07,0.05 -0.13,0.06 -0.08,0.02 -0.17,0.03 -0.26,0.04 -0.1,0.01 -0.19,0.02 -0.29,0.03 -0.09,0 -0.18,0.01 -0.27,0.01 -0.09,0 -0.17,0 -0.23,0 0.01,-0.18 0.01,-0.42 0.02,-0.7 0,-0.27 0.01,-0.55 0.02,-0.84 0,-0.28 0.01,-0.55 0.01,-0.8 0,-0.24 0,-0.43 0,-0.57l0 -1.64 -1.91 0 0 -0.04 1.91 0 0 -1.32c0,-0.08 0,-0.18 0,-0.32 0,-0.13 -0.01,-0.28 -0.01,-0.45 0,-0.16 -0.01,-0.34 -0.02,-0.52 -0.01,-0.18 -0.01,-0.34 -0.02,-0.5l1.56 0.22zm-2.73 4.62l0.03 0.03c-0.26,0.32 -0.55,0.66 -0.87,1.02 -0.33,0.36 -0.66,0.7 -1,1.02l-0.2 0.41 -0.82 -1.15c0.14,-0.09 0.25,-0.19 0.3,-0.28 0.06,-0.1 0.09,-0.21 0.09,-0.36l0 -2.61 -1.06 0 0 -0.04 0.87 0 0.34 -0.66 1.29 0.62 -0.37 0.39 0 2.32 1.4 -0.71zm-2.74 -4.86c0.31,0.06 0.57,0.13 0.78,0.2 0.2,0.07 0.37,0.15 0.5,0.24 0.13,0.09 0.22,0.18 0.27,0.29 0.06,0.11 0.09,0.22 0.09,0.34 0,0.1 -0.02,0.19 -0.06,0.27 -0.04,0.08 -0.09,0.16 -0.15,0.22 -0.06,0.06 -0.14,0.11 -0.22,0.15 -0.08,0.04 -0.17,0.05 -0.26,0.05 -0.26,0 -0.43,-0.13 -0.48,-0.41 -0.06,-0.26 -0.13,-0.49 -0.2,-0.71 -0.07,-0.22 -0.17,-0.42 -0.28,-0.6l0.01 -0.04z"/>
   <path class="fil1" d="M54.39 21.12l0.94 0 0 1.2c0,0.2 -0.09,0.3 -0.27,0.3 -0.07,0 -0.18,0 -0.33,0 0,-0.01 -0.01,-0.08 -0.03,-0.21 0.1,0.01 0.21,0.01 0.33,0.01 0.07,0 0.11,-0.04 0.11,-0.13l0 -0.14 -0.62 0c-0.06,0.19 -0.17,0.35 -0.34,0.51 -0.05,-0.05 -0.1,-0.1 -0.16,-0.14 0.15,-0.12 0.25,-0.25 0.3,-0.39 0.04,-0.13 0.07,-0.35 0.07,-0.66l0 -0.35zm-0.39 1.15l0 -0.08 -0.33 0c-0.05,0.21 -0.21,0.39 -0.47,0.57 -0.03,-0.05 -0.07,-0.11 -0.12,-0.17 0.2,-0.11 0.33,-0.24 0.39,-0.4l-0.39 0 0 -0.55 0.17 0 0 0.38 0.26 0c0.02,-0.09 0.03,-0.25 0.03,-0.48l-0.58 0 0 -0.17 0.38 0c-0.07,-0.12 -0.14,-0.22 -0.2,-0.3l0.14 -0.1c0.06,0.07 0.14,0.16 0.23,0.29l-0.15 0.11 0.35 0c0.09,-0.15 0.16,-0.29 0.22,-0.41l0.19 0.08c-0.06,0.08 -0.13,0.19 -0.23,0.33l0.39 0 0 0.17 -0.56 0c0,0.22 -0.01,0.39 -0.02,0.48l0.3 0 0 -0.38 0.17 0 0 0.63 -0.17 0zm-1.11 1.01l1.21 0 0 -0.29 -0.88 0 0 -0.18 0.88 0 0 -0.15 0.2 0 0 0.15 0.86 0 0 0.18 -0.86 0 0 0.29 1.19 0 0 0.17 -2.6 0 0 -0.17zm1.66 -1.29l0.59 0 0 -0.27 -0.57 0c0,0.1 -0.01,0.19 -0.02,0.27zm0.59 -0.7l-0.56 0 0 0.26 0.56 0 0 -0.26z"/>
   <path id="1" class="fil1" d="M59.88 22.28l1.35 0 0 0.85 -0.2 0 0 -0.11 -0.94 0 0 0.11 -0.21 0 0 -0.85zm-0.23 -0.41l0.84 0 0 -0.36 -0.45 0c-0.05,0.11 -0.1,0.21 -0.15,0.31 -0.05,-0.03 -0.11,-0.06 -0.19,-0.1 0.13,-0.21 0.23,-0.44 0.29,-0.7l0.2 0.05c-0.02,0.09 -0.05,0.17 -0.08,0.26l0.38 0 0 -0.38 0.21 0 0 0.38 0.68 0 0 0.18 -0.68 0 0 0.36 0.81 0 0 0.18 -1.86 0 0 -0.18zm0.33 1.42l0.66 0.01 0.89 -0.02c-0.02,0.06 -0.05,0.13 -0.08,0.21l-0.87 0 -0.64 -0.01c-0.3,-0.01 -0.51,-0.11 -0.63,-0.31 -0.07,0.06 -0.18,0.18 -0.32,0.35l-0.1 -0.22c0.15,-0.15 0.27,-0.26 0.34,-0.32l0 -0.89 -0.32 0 0 -0.2 0.52 0 0 1.13c0.11,0.18 0.29,0.27 0.55,0.27zm1.05 -0.83l-0.94 0 0 0.38 0.94 0 0 -0.38zm-1.81 -1.46c0.09,0.11 0.21,0.27 0.37,0.5l-0.19 0.13c-0.14,-0.22 -0.26,-0.4 -0.35,-0.52l0.17 -0.11z"/>
   <path id="2" class="fil1" d="M65.32 21.06l1.83 0 0 1.05 -0.21 0 0 -0.08 -1.4 0 0 0.08 -0.22 0 0 -1.05zm1.08 1.27l1.02 0 0 1.23 -0.21 0 0 -0.18 -0.61 0 0 0.18 -0.2 0 0 -1.23zm-1.34 0l1.01 0 0 1.23 -0.2 0 0 -0.18 -0.61 0 0 0.18 -0.2 0 0 -1.23zm1.88 -1.08l-1.4 0 0 0.59 1.4 0 0 -0.59zm0.27 1.27l-0.61 0 0 0.68 0.61 0 0 -0.68zm-1.34 0l-0.61 0 0 0.68 0.61 0 0 -0.68z"/>
   <path id="3" class="fil1" d="M71.89 22.88l0.32 0c-0.03,-0.04 -0.07,-0.09 -0.11,-0.14 0.18,-0.09 0.32,-0.2 0.4,-0.32l-0.42 0 0 -1.18 0.45 0c0.03,-0.09 0.06,-0.19 0.1,-0.3l0.21 0.07c-0.04,0.08 -0.08,0.16 -0.11,0.23l0.68 0 0 1.27 -0.18 0 0 -0.09 -0.5 0c-0.08,0.16 -0.23,0.31 -0.47,0.46l0.53 0 0 -0.34 0.2 0 0 0.34 0.6 0 0 0.18 -0.6 0 0 0.49 -0.2 0 0 -0.49 -0.9 0 0 -0.18zm-0.09 0.65l-0.19 0 0 -0.99 -0.29 0c0,0.45 -0.06,0.8 -0.2,1.03 -0.05,-0.05 -0.1,-0.1 -0.16,-0.15 0.11,-0.21 0.17,-0.5 0.17,-0.9l0 -1.47 0.19 0 0 0.78 0.27 0 0 -0.86 0.2 0 0 0.86 0.19 0 0 0.16 -0.66 0 0 0.38 0.48 0 0 1.16zm0.98 -1.29l0.45 0 0 -0.33 -0.4 0c-0.01,0.13 -0.02,0.24 -0.05,0.33zm0.45 -0.83l-0.4 0 0 0.33 0.4 0 0 -0.33zm-0.97 0.33l0.39 0 0 -0.33 -0.39 0 0 0.33zm0.38 0.17l-0.38 0 0 0.33 0.33 0c0.02,-0.08 0.04,-0.2 0.05,-0.33z"/>
   <path id="4" class="fil1" d="M77.77 22.14l1.16 0 0 -0.31 0.21 0 0 0.31 0.46 0 0 0.19 -0.46 0 0 0.89c0,0.21 -0.1,0.31 -0.3,0.31 -0.13,0 -0.27,0 -0.39,0 -0.01,-0.07 -0.02,-0.14 -0.04,-0.22 0.14,0.01 0.26,0.02 0.38,0.02 0.09,0 0.14,-0.05 0.14,-0.14l0 -0.86 -1.16 0 0 -0.19zm-0.8 0.49c0.23,-0.22 0.44,-0.52 0.65,-0.91l0.19 0.11c-0.07,0.12 -0.14,0.24 -0.21,0.35l0 1.37 -0.21 0 0 -1.07c-0.1,0.14 -0.21,0.26 -0.32,0.37 -0.03,-0.07 -0.07,-0.14 -0.1,-0.22zm1.66 -1.7l0.23 0c-0.04,0.1 -0.07,0.19 -0.11,0.27l0.85 0 0 0.19 -0.95 0c-0.1,0.18 -0.21,0.35 -0.33,0.52 -0.04,-0.05 -0.1,-0.09 -0.17,-0.15 0.22,-0.27 0.38,-0.55 0.48,-0.83zm-1.14 0l0.23 0c-0.03,0.1 -0.07,0.19 -0.12,0.27l0.77 0 0 0.19 -0.87 0c-0.11,0.18 -0.23,0.35 -0.38,0.5 -0.04,-0.04 -0.09,-0.09 -0.15,-0.15 0.22,-0.22 0.4,-0.49 0.52,-0.81zm0.48 1.61l0.17 -0.11c0.13,0.16 0.24,0.32 0.34,0.47l-0.19 0.13c-0.09,-0.15 -0.19,-0.32 -0.32,-0.49zm-0.09 -0.73c-0.04,-0.05 -0.12,-0.16 -0.24,-0.31l0.15 -0.11c0.09,0.1 0.18,0.2 0.26,0.3l-0.17 0.12zm1.17 -0.01c-0.07,-0.1 -0.15,-0.2 -0.24,-0.3l0.14 -0.11c0.12,0.11 0.21,0.2 0.27,0.28l-0.17 0.13z"/>
   <path id="5" class="fil1" d="M83.41 21.07l1.81 0 0 0.88 -0.21 0 0 -0.11 -1.39 0 0 0.12 -0.21 0 0 -0.89zm0.05 1.69l0 -0.19 0.12 -0.28 -0.58 0 0 -0.19 2.63 0 0 0.19 -1.83 0 -0.12 0.28 1.59 0c-0.02,0.2 -0.04,0.37 -0.06,0.5 -0.05,0.29 -0.21,0.43 -0.5,0.43 -0.21,0 -0.42,0 -0.65,-0.01 -0.02,-0.06 -0.03,-0.13 -0.05,-0.23 0.25,0.02 0.47,0.04 0.66,0.04 0.19,0 0.3,-0.09 0.32,-0.26 0.02,-0.07 0.03,-0.17 0.04,-0.28l-1.57 0zm1.55 -1.5l-1.39 0 0 0.39 1.39 0 0 -0.39z"/>
   <path id="6" class="fil1" d="M92.93 22.31c0,-0.05 0.02,-0.09 0.05,-0.12 0.04,-0.03 0.08,-0.05 0.12,-0.05 0.05,0 0.09,0.02 0.12,0.05 0.04,0.03 0.05,0.07 0.05,0.12 0,0.05 -0.01,0.09 -0.04,0.12 -0.04,0.03 -0.08,0.05 -0.13,0.05 -0.05,0 -0.09,-0.02 -0.12,-0.05 -0.03,-0.03 -0.05,-0.07 -0.05,-0.12z"/>
   <path id="7" class="fil1" d="M102.76 23.01l0.17 -0.09c0.11,0.18 0.2,0.37 0.3,0.56l-0.2 0.1c-0.03,-0.07 -0.06,-0.13 -0.09,-0.2 -0.55,0.04 -1.04,0.07 -1.47,0.1l-0.03 -0.22c0.27,-0.01 0.52,-0.02 0.77,-0.03l0 -0.39 -0.45 0 0 0.1 -0.2 0 0 -0.84 0.65 0 0 -0.29 -0.35 0 0 0.1 -0.19 0 0 -0.81 1.29 0 0 0.81 -0.2 0 0 -0.1 -0.35 0 0 0.29 0.66 0 0 0.74 -0.66 0 0 0.38c0.15,0 0.3,-0.01 0.45,-0.02 -0.04,-0.06 -0.07,-0.13 -0.1,-0.19zm-2.05 -1.28l0.52 0 0 -0.44 -0.6 0 0 -0.18 0.79 0 0 0.92 -0.19 0 0 -0.11 -0.35 0 -0.05 0.41 0.57 0c-0.02,0.37 -0.03,0.65 -0.05,0.82 -0.01,0.24 -0.13,0.36 -0.36,0.36 -0.08,0 -0.17,0 -0.28,0 -0.01,-0.07 -0.03,-0.14 -0.04,-0.21 0.11,0.01 0.21,0.01 0.29,0.01 0.12,0 0.18,-0.06 0.19,-0.18 0.02,-0.18 0.03,-0.39 0.04,-0.62l-0.57 0 0.09 -0.78zm2.05 -0.45l-0.9 0 0 0.35 0.9 0 0 -0.35zm0.11 1.38l0 -0.38 -0.46 0 0 0.38 0.46 0zm-1.11 0l0.45 0 0 -0.38 -0.45 0 0 0.38z"/>
   <path id="8" class="fil1" d="M107.34 22.59c0.23,-0.11 0.44,-0.23 0.65,-0.37l0 -1.22 0.22 0 0 1.05c0.27,-0.22 0.51,-0.48 0.73,-0.76l0.19 0.14c-0.26,0.34 -0.56,0.64 -0.92,0.9l0 0.75c0,0.12 0.07,0.18 0.19,0.18l0.34 0c0.12,0 0.19,-0.06 0.21,-0.17 0.03,-0.12 0.04,-0.26 0.05,-0.42 0.07,0.03 0.15,0.05 0.23,0.08 -0.01,0.14 -0.03,0.28 -0.05,0.4 -0.04,0.21 -0.16,0.31 -0.39,0.31l-0.44 0c-0.24,0 -0.36,-0.12 -0.36,-0.36l0 -0.62c-0.17,0.11 -0.34,0.21 -0.53,0.3 -0.03,-0.06 -0.08,-0.13 -0.12,-0.19zm-0.75 -0.33c0.31,-0.41 0.53,-0.84 0.68,-1.3l0.23 0.07c-0.08,0.22 -0.18,0.42 -0.27,0.62l0 1.89 -0.23 0 0 -1.49c-0.09,0.15 -0.2,0.3 -0.31,0.44 -0.03,-0.07 -0.06,-0.15 -0.1,-0.23z"/>
   <path id="9" class="fil1" d="M113.02 21.06l1.83 0 0 1.05 -0.21 0 0 -0.08 -1.41 0 0 0.08 -0.21 0 0 -1.05zm1.08 1.27l1.02 0 0 1.23 -0.21 0 0 -0.18 -0.61 0 0 0.18 -0.2 0 0 -1.23zm-1.34 0l1.01 0 0 1.23 -0.2 0 0 -0.18 -0.61 0 0 0.18 -0.2 0 0 -1.23zm1.88 -1.08l-1.41 0 0 0.59 1.41 0 0 -0.59zm0.27 1.27l-0.61 0 0 0.68 0.61 0 0 -0.68zm-1.34 0l-0.61 0 0 0.68 0.61 0 0 -0.68z"/>
   <path id="10" class="fil1" d="M119.59 22.88l0.32 0c-0.03,-0.04 -0.07,-0.09 -0.11,-0.14 0.18,-0.09 0.32,-0.2 0.4,-0.32l-0.43 0 0 -1.18 0.46 0c0.03,-0.09 0.06,-0.19 0.1,-0.3l0.21 0.07c-0.04,0.08 -0.08,0.16 -0.11,0.23l0.68 0 0 1.27 -0.18 0 0 -0.09 -0.51 0c-0.07,0.16 -0.22,0.31 -0.46,0.46l0.53 0 0 -0.34 0.2 0 0 0.34 0.6 0 0 0.18 -0.6 0 0 0.49 -0.2 0 0 -0.49 -0.9 0 0 -0.18zm-0.09 0.65l-0.19 0 0 -0.99 -0.29 0c0,0.45 -0.06,0.8 -0.2,1.03 -0.05,-0.05 -0.1,-0.1 -0.17,-0.15 0.12,-0.21 0.18,-0.5 0.18,-0.9l0 -1.47 0.19 0 0 0.78 0.27 0 0 -0.86 0.2 0 0 0.86 0.19 0 0 0.16 -0.66 0 0 0.38 0.48 0 0 1.16zm0.98 -1.29l0.45 0 0 -0.33 -0.4 0c-0.01,0.13 -0.02,0.24 -0.05,0.33zm0.45 -0.83l-0.4 0 0 0.33 0.4 0 0 -0.33zm-0.97 0.33l0.39 0 0 -0.33 -0.39 0 0 0.33zm0.38 0.17l-0.38 0 0 0.33 0.32 0c0.03,-0.08 0.05,-0.2 0.06,-0.33z"/>
   <path id="11" class="fil1" d="M125 22.76l1.98 0 0 0.81 -0.2 0 0 -0.14 -1.58 0 0 0.14 -0.2 0 0 -0.81zm0.19 -0.82l1.6 0 0 0.66 -0.2 0 0 -0.06 -1.2 0 0 0.06 -0.2 0 0 -0.66zm1.11 -1l0.2 0 0 0.22 0.79 0 0 0.18 -0.79 0 0 0.16 -0.2 0 0 -0.16 -0.63 0 0 0.16 -0.19 0 0 -0.16 -0.79 0 0 -0.18 0.79 0 0 -0.22 0.19 0 0 0.22 0.63 0 0 -0.22zm-1.53 0.63l2.43 0 0 0.48 -0.2 0 0 -0.31 -2.02 0 0 0.31 -0.21 0 0 -0.48zm2.01 1.35l-1.58 0 0 0.35 1.58 0 0 -0.35zm-0.19 -0.82l-1.2 0 0 0.28 1.2 0 0 -0.28z"/>
   <path id="12" class="fil1" d="M131.92 23.56l-0.19 0 0 -1.85 0.61 0 0 -0.76 0.2 0 0 0.76 0.63 0 0 1.53c0,0.21 -0.09,0.31 -0.29,0.31 -0.09,0 -0.23,0 -0.42,-0.01 -0.01,-0.06 -0.02,-0.13 -0.03,-0.21 0.16,0.01 0.29,0.01 0.38,0.01 0.11,0 0.17,-0.05 0.17,-0.15l0 -0.25 -1.06 0 0 0.62zm-0.3 -0.58c0,0.07 0.01,0.15 0.01,0.22 -0.11,0.05 -0.24,0.12 -0.39,0.21 -0.03,0.02 -0.07,0.05 -0.11,0.09l-0.14 -0.18c0.05,-0.05 0.08,-0.12 0.08,-0.2l0 -0.58 -0.35 0 0 -0.18 0.35 0 0 -0.36 -0.17 0 0 -0.18 0.68 0 0 0.18 -0.31 0 0 0.36 0.37 0 0 0.18 -0.37 0 0 0.64c0.13,-0.07 0.24,-0.14 0.35,-0.2zm0.3 -0.23l1.06 0 0 -0.33 -1.06 0 0 0.33zm1.06 -0.85l-1.06 0 0 0.33 1.06 0 0 -0.33zm-2.29 -0.13c0.17,-0.25 0.31,-0.52 0.41,-0.82l0.2 0.07c-0.04,0.11 -0.1,0.23 -0.15,0.34l0.49 0 0 0.18 -0.58 0c-0.08,0.14 -0.17,0.28 -0.26,0.41 -0.03,-0.06 -0.07,-0.12 -0.11,-0.18zm2.01 -0.28c0.13,-0.14 0.25,-0.29 0.37,-0.45l0.18 0.13c-0.11,0.13 -0.24,0.28 -0.4,0.45l-0.15 -0.13zm-1.06 -0.35l0.15 -0.11c0.12,0.13 0.25,0.27 0.37,0.43l-0.16 0.13c-0.13,-0.17 -0.24,-0.32 -0.36,-0.45z"/>
   <polygon class="fil3" points="95.59,16.97 95.59,18.18 91.49,18.18 91.49,10.63 93.24,10.63 93.24,16.97 "/>
   <path id="1" class="fil3" d="M96.29 11.66c0,-0.32 0.13,-0.58 0.37,-0.76 0.25,-0.18 0.6,-0.27 1.05,-0.27l1.95 0c0.45,0 0.8,0.09 1.06,0.27 0.25,0.18 0.38,0.44 0.38,0.76l0 5.48c0,0.33 -0.13,0.58 -0.38,0.77 -0.25,0.18 -0.6,0.27 -1.06,0.27l-1.95 0c-0.45,0 -0.8,-0.09 -1.05,-0.27 -0.24,-0.19 -0.37,-0.44 -0.37,-0.77l0 -5.48zm3.04 0.17l-1.28 0 0 5.15 1.28 0 0 -5.15z"/>
   <path id="2" class="fil3" d="M102.27 11.66c0,-0.32 0.12,-0.58 0.37,-0.76 0.25,-0.18 0.6,-0.27 1.05,-0.27l1.95 0c0.45,0 0.8,0.09 1.06,0.27 0.25,0.18 0.38,0.44 0.38,0.76l0 1.08 -1.77 0.63 0 -1.54 -1.28 0 0 5.15 1.28 0 0 -1.7 -0.71 0.26 0 -1.36 2.48 -0.88 0 4.88 -3.39 0c-0.45,0 -0.8,-0.09 -1.05,-0.27 -0.25,-0.19 -0.37,-0.44 -0.37,-0.77l0 -5.48z"/>
   <path id="3" class="fil3" d="M108.27 11.66c0,-0.32 0.12,-0.58 0.37,-0.76 0.25,-0.18 0.59,-0.27 1.04,-0.27l1.95 0c0.46,0 0.81,0.09 1.06,0.27 0.26,0.18 0.38,0.44 0.38,0.76l0 5.48c0,0.33 -0.12,0.58 -0.37,0.77 -0.25,0.18 -0.61,0.27 -1.07,0.27l-1.95 0c-0.45,0 -0.79,-0.09 -1.04,-0.27 -0.25,-0.19 -0.37,-0.44 -0.37,-0.77l0 -5.48zm3.03 0.17l-1.28 0 0 5.15 1.28 0 0 -5.15z"/>
  </g>
 </g>
</svg>
