<?xml version="1.0" encoding="UTF-8"?>
<!DOCTYPE svg PUBLIC "-//W3C//DTD SVG 1.1//EN" "http://www.w3.org/Graphics/SVG/1.1/DTD/svg11.dtd">
<!-- Creator: CorelDRAW 2017 -->
<svg xmlns="http://www.w3.org/2000/svg" xml:space="preserve" width="653px" height="457px" version="1.1" style="shape-rendering:geometricPrecision; text-rendering:geometricPrecision; image-rendering:optimizeQuality; fill-rule:evenodd; clip-rule:evenodd"
viewBox="0 0 57.07 39.94"
 xmlns:xlink="http://www.w3.org/1999/xlink">
 <defs>
  <style type="text/css">
   <![CDATA[
    .fil2 {fill:#332C2B}
    .fil0 {fill:#757475;fill-rule:nonzero}
    .fil1 {fill:#332C2B;fill-rule:nonzero}
    .fil3 {fill:#2F318B;fill-rule:nonzero}
   ]]>
  </style>
 </defs>
 <g id="图层_x0020_1">
  <metadata id="CorelCorpID_0Corel-Layer"/>
  <path class="fil0" d="M13.18 0.28c0,-0.09 0.03,-0.16 0.1,-0.21 0.07,-0.05 0.17,-0.07 0.3,-0.07l0.55 0c0.12,0 0.22,0.02 0.29,0.07 0.07,0.05 0.11,0.12 0.11,0.21l0 0.26 -0.5 0.17 0 -0.39 -0.36 0 0 1.38 0.36 0 0 -0.28 0.5 -0.18 0 0.5c0,0.09 -0.04,0.16 -0.11,0.21 -0.07,0.05 -0.17,0.07 -0.29,0.07l-0.55 0c-0.13,0 -0.23,-0.02 -0.3,-0.07 -0.07,-0.05 -0.1,-0.12 -0.1,-0.21l0 -1.46z"/>
  <path id="1" class="fil0" d="M16.24 0.28c0,-0.09 0.04,-0.16 0.11,-0.21 0.07,-0.05 0.16,-0.07 0.29,-0.07l0.55 0c0.13,0 0.22,0.02 0.3,0.07 0.07,0.05 0.1,0.12 0.1,0.21l0 1.46c0,0.09 -0.03,0.16 -0.1,0.21 -0.07,0.05 -0.17,0.07 -0.3,0.07l-0.55 0c-0.13,0 -0.22,-0.02 -0.29,-0.07 -0.07,-0.05 -0.11,-0.12 -0.11,-0.21l0 -1.46zm0.85 0.04l-0.35 0 0 1.38 0.35 0 0 -1.38z"/>
  <path id="2" class="fil0" d="M20.66 1l-0.36 0.13 0.56 0.89 -0.52 0 -0.46 -0.75 -0.08 0.03 0 0.72 -0.49 0 0 -2.02 0.95 0c0.12,0 0.22,0.02 0.29,0.07 0.07,0.05 0.11,0.12 0.11,0.21l0 0.72zm-0.49 -0.18l0 -0.5 -0.37 0 0 0.62 0.37 -0.12z"/>
  <path id="3" class="fil0" d="M23.23 0.84l0 -0.52 -0.36 0 0 0.64 0.36 -0.12zm0.49 0.19l-0.85 0.3 0 0.69 -0.5 0 0 -2.02 0.95 0c0.13,0 0.23,0.02 0.3,0.07 0.07,0.05 0.1,0.12 0.1,0.21l0 0.75z"/>
  <path id="4" class="fil0" d="M25.39 0.28c0,-0.09 0.04,-0.16 0.11,-0.21 0.07,-0.05 0.16,-0.07 0.29,-0.07l0.55 0c0.12,0 0.22,0.02 0.3,0.07 0.07,0.05 0.1,0.12 0.1,0.21l0 1.46c0,0.09 -0.03,0.16 -0.1,0.21 -0.07,0.05 -0.17,0.07 -0.3,0.07l-0.55 0c-0.13,0 -0.22,-0.02 -0.29,-0.07 -0.07,-0.05 -0.11,-0.12 -0.11,-0.21l0 -1.46zm0.85 0.04l-0.36 0 0 1.38 0.36 0 0 -1.38z"/>
  <path id="5" class="fil0" d="M29.81 1l-0.36 0.13 0.56 0.89 -0.52 0 -0.46 -0.75 -0.08 0.03 0 0.72 -0.49 0 0 -2.02 0.95 0c0.12,0 0.22,0.02 0.29,0.07 0.07,0.05 0.11,0.12 0.11,0.21l0 0.72zm-0.49 -0.18l0 -0.5 -0.37 0 0 0.62 0.37 -0.12z"/>
  <path id="6" class="fil0" d="M32.38 0.81l0 -0.49 -0.37 0 0 0.61 0.37 -0.12zm0.49 1.21l-0.49 0 0 -0.85 -0.37 0.12 0 0.73 -0.49 0 0 -1.74c0,-0.09 0.04,-0.16 0.11,-0.21 0.07,-0.05 0.16,-0.07 0.29,-0.07l0.55 0c0.13,0 0.22,0.02 0.3,0.07 0.07,0.05 0.1,0.12 0.1,0.21l0 1.74z"/>
  <polygon id="7" class="fil0" points="34.93,2.02 34.93,0.32 34.44,0.32 34.44,0 35.91,0 35.91,0.32 35.42,0.32 35.42,2.02 "/>
  <polygon id="8" class="fil0" points="37.97,2.02 37.47,2.02 37.47,0 37.97,0 "/>
  <path id="9" class="fil0" d="M39.68 0.28c0,-0.09 0.04,-0.16 0.11,-0.21 0.07,-0.05 0.17,-0.07 0.29,-0.07l0.55 0c0.13,0 0.23,0.02 0.3,0.07 0.07,0.05 0.11,0.12 0.11,0.21l0 1.46c0,0.09 -0.04,0.16 -0.11,0.21 -0.07,0.05 -0.17,0.07 -0.3,0.07l-0.55 0c-0.12,0 -0.22,-0.02 -0.29,-0.07 -0.07,-0.05 -0.11,-0.12 -0.11,-0.21l0 -1.46zm0.86 0.04l-0.36 0 0 1.38 0.36 0 0 -1.38z"/>
  <path id="10" class="fil0" d="M43.25 2.02l-0.49 0 0 -2.02 0.49 0 0 0.16c0.01,-0.05 0.04,-0.09 0.09,-0.12 0.05,-0.03 0.11,-0.04 0.19,-0.04l0.17 0c0.13,0 0.23,0.02 0.3,0.07 0.07,0.05 0.1,0.12 0.1,0.21l0 1.74 -0.49 0 0 -1.7 -0.36 0 0 1.7z"/>
  <polygon id="11" class="fil0" points="0.62,5.57 0.09,3.55 0.59,3.55 0.91,4.84 1.23,3.55 1.72,3.55 1.2,5.57 "/>
  <polygon id="12" class="fil0" points="3.72,5.57 3.23,5.57 3.23,3.55 3.72,3.55 "/>
  <path id="13" class="fil0" d="M5.44 3.83c0,-0.09 0.04,-0.16 0.11,-0.21 0.07,-0.05 0.16,-0.07 0.29,-0.07l0.55 0c0.13,0 0.22,0.02 0.3,0.07 0.07,0.05 0.1,0.12 0.1,0.21l0 0.05 -0.5 0.17 0 -0.18 -0.35 0 0 0.51 0.85 -0.3 0 1.21c0,0.09 -0.03,0.16 -0.1,0.21 -0.07,0.05 -0.17,0.07 -0.3,0.07l-0.55 0c-0.13,0 -0.22,-0.02 -0.29,-0.07 -0.07,-0.05 -0.11,-0.12 -0.11,-0.21l0 -0.19 0.5 -0.17 0 0.32 0.35 0 0 -0.63 -0.85 0.3 0 -1.09z"/>
  <path id="14" class="fil0" d="M8.51 3.55l0.49 0 0 1.7 0.37 0 0 -1.7 0.49 0 0 1.74c0,0.09 -0.04,0.16 -0.11,0.21 -0.07,0.05 -0.17,0.07 -0.29,0.07l-0.55 0c-0.13,0 -0.23,-0.02 -0.3,-0.07 -0.07,-0.05 -0.1,-0.12 -0.1,-0.21l0 -1.74z"/>
  <path id="15" class="fil0" d="M12.44 4.36l0 -0.49 -0.37 0 0 0.61 0.37 -0.12zm0.49 1.21l-0.49 0 0 -0.85 -0.37 0.12 0 0.73 -0.49 0 0 -1.74c0,-0.09 0.03,-0.16 0.1,-0.21 0.08,-0.05 0.17,-0.07 0.3,-0.07l0.55 0c0.13,0 0.22,0.02 0.29,0.07 0.08,0.05 0.11,0.12 0.11,0.21l0 1.74z"/>
  <polygon id="16" class="fil0" points="15.81,5.25 15.81,5.57 14.65,5.57 14.65,3.55 15.15,3.55 15.15,5.25 "/>
  <polygon id="17" class="fil0" points="18.75,5.57 18.26,5.57 18.26,3.55 18.75,3.55 "/>
  <path id="18" class="fil0" d="M21.42 3.55c0.13,0 0.22,0.02 0.3,0.07 0.07,0.05 0.1,0.12 0.1,0.21l0 1.46c0,0.09 -0.03,0.16 -0.1,0.21 -0.07,0.05 -0.17,0.07 -0.3,0.07l-0.95 0 0 -2.02 0.95 0zm-0.09 0.32l-0.37 0 0 1.38 0.37 0 0 -1.38z"/>
  <polygon id="19" class="fil0" points="24.73,5.57 23.54,5.57 23.54,3.55 24.73,3.55 24.73,3.87 24.03,3.87 24.03,4.4 24.73,4.16 24.73,4.52 24.03,4.76 24.03,5.25 24.73,5.25 "/>
  <path id="20" class="fil0" d="M26.88 5.57l-0.49 0 0 -2.02 0.49 0 0.01 0.16c0.01,-0.05 0.04,-0.09 0.09,-0.12 0.04,-0.03 0.11,-0.04 0.19,-0.04l0.17 0c0.13,0 0.22,0.02 0.29,0.07 0.08,0.05 0.11,0.12 0.11,0.21l0 1.74 -0.49 0 0 -1.7 -0.37 0 0 1.7z"/>
  <polygon id="21" class="fil0" points="29.79,5.57 29.79,3.87 29.31,3.87 29.31,3.55 30.77,3.55 30.77,3.87 30.29,3.87 30.29,5.57 "/>
  <polygon id="22" class="fil0" points="32.84,5.57 32.34,5.57 32.34,3.55 32.84,3.55 "/>
  <polygon id="23" class="fil0" points="34.89,5.57 34.89,3.87 34.4,3.87 34.4,3.55 35.87,3.55 35.87,3.87 35.38,3.87 35.38,5.57 "/>
  <path id="24" class="fil0" d="M37.43 3.55l0.5 0 0 0.87 0.36 -0.12 0 -0.75 0.5 0 0 1.73c0,0.1 -0.04,0.17 -0.11,0.22 -0.07,0.05 -0.17,0.07 -0.31,0.07l-0.54 0c-0.12,0 -0.22,-0.02 -0.29,-0.07 -0.07,-0.05 -0.11,-0.12 -0.11,-0.21l0 -0.07 0.5 -0.17 0 0.2 0.36 0 0 -0.59 -0.86 0.3 0 -1.41z"/>
  <path id="25" class="fil0" d="M42.32 3.55c0.12,0 0.22,0.02 0.29,0.07 0.07,0.05 0.11,0.12 0.11,0.21l0 1.46c0,0.09 -0.04,0.16 -0.11,0.21 -0.07,0.05 -0.17,0.07 -0.29,0.07l-0.95 0 0 -2.02 0.95 0zm-0.09 0.32l-0.37 0 0 1.38 0.37 0 0 -1.38z"/>
  <polygon id="26" class="fil0" points="45.62,5.57 44.44,5.57 44.44,3.55 45.62,3.55 45.62,3.87 44.93,3.87 44.93,4.4 45.62,4.16 45.62,4.52 44.93,4.76 44.93,5.25 45.62,5.25 "/>
  <path id="27" class="fil0" d="M47.28 3.83c0,-0.09 0.04,-0.16 0.11,-0.21 0.07,-0.05 0.16,-0.07 0.29,-0.07l0.55 0c0.13,0 0.23,0.02 0.3,0.07 0.07,0.05 0.1,0.12 0.1,0.21l0 0.05 -0.49 0.17 0 -0.18 -0.36 0 0 0.51 0.85 -0.3 0 1.21c0,0.09 -0.03,0.16 -0.1,0.21 -0.07,0.05 -0.17,0.07 -0.3,0.07l-0.55 0c-0.13,0 -0.22,-0.02 -0.29,-0.07 -0.07,-0.05 -0.11,-0.12 -0.11,-0.21l0 -0.19 0.5 -0.17 0 0.32 0.36 0 0 -0.63 -0.86 0.3 0 -1.09z"/>
  <polygon id="28" class="fil0" points="50.84,5.57 50.35,5.57 50.35,3.55 50.84,3.55 "/>
  <path id="29" class="fil0" d="M52.56 3.83c0,-0.09 0.03,-0.16 0.1,-0.21 0.07,-0.05 0.17,-0.07 0.3,-0.07l0.55 0c0.12,0 0.22,0.02 0.29,0.07 0.08,0.05 0.11,0.12 0.11,0.21l0 0.29 -0.5 0.16 0 -0.41 -0.36 0 0 1.38 0.36 0 0 -0.45 -0.2 0.07 0 -0.37 0.7 -0.23 0 1.3 -0.95 0c-0.13,0 -0.23,-0.02 -0.3,-0.07 -0.07,-0.05 -0.1,-0.12 -0.1,-0.21l0 -1.46z"/>
  <path id="30" class="fil0" d="M56.13 5.57l-0.49 0 0 -2.02 0.49 0 0 0.16c0.01,-0.05 0.04,-0.09 0.09,-0.12 0.05,-0.03 0.11,-0.04 0.19,-0.04l0.17 0c0.13,0 0.23,0.02 0.3,0.07 0.07,0.05 0.1,0.12 0.1,0.21l0 1.74 -0.49 0 0 -1.7 -0.36 0 0 1.7z"/>
  <path class="fil1" d="M22.03 26.65l0 0.13 -2.54 0 0 -0.13 0.43 0 0 -1.1 0.19 0 0 1.1 0.63 0 0 -1.58 0.18 0 0 0.56 0.83 0 0 0.13 -0.83 0 0 0.89 1.11 0zm-1.33 -2.39l0.16 0c0.26,0.41 0.68,0.74 1.26,0.99l0 0.12c-0.56,-0.2 -1.01,-0.5 -1.34,-0.89 -0.34,0.39 -0.78,0.69 -1.35,0.89l0 -0.12c0.58,-0.25 1,-0.58 1.27,-0.99z"/>
  <path id="1" class="fil1" d="M25.21 26.63l0 0.1 -2.65 0 0 -0.1 0.88 0 0 -2.29 0.17 0 0 2.29 0.53 0 0 -2.29 0.17 0 0 2.29 0.9 0zm-0.15 -1.87c-0.03,0.44 -0.12,0.84 -0.25,1.19l-0.14 0c0.12,-0.39 0.19,-0.79 0.22,-1.19l0.17 0zm-2.36 0l0.17 0c0.03,0.4 0.1,0.8 0.23,1.19l-0.15 0c-0.13,-0.35 -0.21,-0.75 -0.25,-1.19z"/>
  <path id="2" class="fil1" d="M26.77 26.07l0 -1.65 1.34 0 0 1.65 -0.17 0 0 -1.54 -1 0 0 1.54 -0.17 0zm0.57 -1.27l0.17 0 0 0.57c0.01,0.14 0,0.27 -0.02,0.38l0.14 0 0 0.78c0,0.13 0.06,0.19 0.2,0.18l0.1 0c0.15,0.01 0.22,-0.05 0.21,-0.18l0 -0.09 0.13 0 0 0.09c0.01,0.2 -0.11,0.3 -0.34,0.29l-0.15 0c-0.22,0.01 -0.32,-0.09 -0.32,-0.31l0 -0.62c-0.07,0.42 -0.4,0.76 -0.96,1.02l0 -0.12c0.59,-0.31 0.88,-0.78 0.84,-1.41l0 -0.58zm-1.27 2.11l0 -1.13c-0.09,0.1 -0.23,0.22 -0.42,0.34l0 -0.13c0.35,-0.26 0.57,-0.61 0.66,-1.05l-0.6 0 0 -0.12 0.78 0 0 0.12c-0.06,0.26 -0.14,0.45 -0.23,0.59 0.09,0.15 0.23,0.28 0.39,0.38l0 0.12c-0.18,-0.09 -0.31,-0.18 -0.41,-0.29l0 1.17 -0.17 0zm0.04 -2.6c0.08,0.14 0.14,0.29 0.18,0.43l-0.17 0c-0.02,-0.13 -0.07,-0.27 -0.15,-0.43l0.14 0z"/>
  <path id="3" class="fil1" d="M28.81 26.9l0 -0.1c0.84,-0.15 1.24,-0.49 1.2,-1.04l0 -0.19 0.17 0 0 0.17c0,0.05 0,0.11 0,0.17l0.14 0 0 0.58c-0.01,0.16 0.07,0.24 0.25,0.23l0.41 0c0.16,0 0.25,-0.07 0.25,-0.21l0 -0.09 0.13 0 0 0.09c0.01,0.22 -0.11,0.33 -0.36,0.32l-0.49 0c-0.25,0.01 -0.37,-0.1 -0.37,-0.33l0 -0.41c-0.07,0.41 -0.52,0.68 -1.33,0.81zm2.16 -0.58l-0.19 0 0 -0.92 -1.38 0 0 0.92 -0.19 0 0 -1.03 1.76 0 0 1.03zm0.07 -2.03c-0.05,0.19 -0.13,0.34 -0.23,0.46l0.52 0 0 0.47 -0.18 0 0 -0.35 -2.12 0 0 0.35 -0.18 0 0 -0.47 1.8 0c0.09,-0.14 0.17,-0.29 0.22,-0.46l0.17 0zm-1.1 0.01l0.16 0c0.07,0.13 0.11,0.26 0.14,0.37l-0.17 0c-0.03,-0.13 -0.07,-0.25 -0.13,-0.37zm-0.8 0l0.16 0c0.07,0.13 0.12,0.26 0.14,0.37l-0.17 0c-0.02,-0.13 -0.06,-0.25 -0.13,-0.37z"/>
  <path id="4" class="fil1" d="M34.51 26.76l0 0.11c-0.57,-0.24 -0.98,-0.54 -1.22,-0.9l0 0.96 -0.19 0 0 -0.95c-0.22,0.33 -0.62,0.62 -1.21,0.89l0 -0.11c0.6,-0.29 0.99,-0.64 1.18,-1.04l-0.75 0 0 0.5 -0.18 0 0 -0.63 0.96 0 0 -0.32 -1.17 0 0 -0.12 1.17 0 0 -0.15 0.19 0 0 0.15 1.18 0 0 0.12 -1.18 0 0 0.32 0.95 0 0 0.38c0.01,0.19 -0.09,0.28 -0.28,0.27l-0.2 0 0 -0.1 0.17 0c0.09,0 0.14,-0.05 0.14,-0.15l0 -0.27 -0.75 0c0.18,0.4 0.58,0.75 1.19,1.04zm-2.65 -1.76l0 -0.11c0.27,-0.13 0.43,-0.34 0.47,-0.64l0.18 0c-0.01,0.02 -0.01,0.06 -0.02,0.1 -0.02,0.06 -0.03,0.09 -0.04,0.12l0.77 0 0 0.11 -0.47 0c0.07,0.14 0.11,0.28 0.14,0.41l-0.16 0c-0.03,-0.14 -0.06,-0.27 -0.12,-0.41l-0.21 0c-0.09,0.18 -0.27,0.32 -0.54,0.42zm1.25 -0.07l0 -0.11c0.25,-0.09 0.38,-0.28 0.4,-0.57l0.18 0c0,0.02 -0.01,0.05 -0.02,0.08 0,0.02 -0.01,0.06 -0.03,0.13l0.85 0 0 0.11 -0.52 0c0.06,0.14 0.1,0.27 0.13,0.41l-0.16 0c-0.02,-0.13 -0.06,-0.27 -0.11,-0.41l-0.24 0c-0.07,0.16 -0.23,0.28 -0.48,0.36z"/>
  <path id="5" class="fil1" d="M34.99 25.06l0 -0.12 0.42 0c-0.01,-0.06 -0.01,-0.17 -0.01,-0.33 -0.01,-0.13 -0.01,-0.24 -0.01,-0.31l0.18 0c0,0.3 0,0.52 0.01,0.64l0.93 0 0 0.12 -0.93 0c0.01,0.25 0.03,0.51 0.07,0.78 0.01,0.03 0.01,0.07 0.02,0.12 0.01,0.04 0.02,0.09 0.04,0.17 0.19,-0.18 0.36,-0.45 0.51,-0.82l0.17 0c-0.17,0.44 -0.38,0.77 -0.64,0.98 0.11,0.31 0.27,0.46 0.46,0.46 0.13,0 0.19,-0.08 0.19,-0.26l0.14 0c0,0.28 -0.11,0.41 -0.35,0.4 -0.25,0 -0.44,-0.16 -0.56,-0.49 -0.17,0.12 -0.38,0.23 -0.63,0.32l0 -0.09c0.23,-0.12 0.42,-0.24 0.58,-0.38 -0.04,-0.1 -0.07,-0.23 -0.09,-0.37 -0.05,-0.31 -0.07,-0.58 -0.08,-0.82l-0.42 0zm2.47 -0.75l0 2.26c0,0.21 -0.11,0.31 -0.32,0.31l-0.24 0 0 -0.11 0.21 0c0.13,0 0.19,-0.06 0.18,-0.16l0 -2.3 0.17 0zm-0.74 1.99l0 -1.78 0.16 0 0 1.78 -0.16 0zm-0.68 -1.94c0.07,0.12 0.12,0.27 0.15,0.45l-0.17 0c-0.02,-0.17 -0.06,-0.32 -0.12,-0.45l0.14 0z"/>
  <polygon id="6" class="fil1" points="20.67,30.75 20.87,30.75 20.87,31.08 21.99,31.08 21.99,31.21 20.87,31.21 20.87,31.81 21.81,31.81 21.81,31.93 20.87,31.93 20.87,32.56 22.07,32.56 22.07,32.7 20.87,32.7 20.87,33.37 20.67,33.37 20.67,32.7 19.48,32.7 19.48,32.56 20.67,32.56 20.67,31.93 19.73,31.93 19.73,31.81 20.67,31.81 20.67,31.21 19.56,31.21 19.56,31.08 20.67,31.08 "/>
  <path id="7" class="fil1" d="M22.81 33.31l0 -0.98 2.14 0 0 0.72c0.01,0.18 -0.1,0.27 -0.32,0.26l-1.82 0zm0.25 -1.19l0 -0.5 1.64 0 0 0.22c0.01,0.19 -0.09,0.28 -0.31,0.28l-1.33 0zm2.04 -1.17l0 0.43 -0.17 0 0 -0.32 -2.1 0 0 0.32 -0.15 0 0 -0.43 1.11 0 0 -0.21 0.18 0 0 0.21 1.13 0zm-0.57 0.89l0 -0.11 -1.3 0 0 0.29 1.14 0c0.11,0 0.17,-0.06 0.16,-0.18zm-1.54 1.03l0 0.33 0.8 0 0 -0.33 -0.8 0zm1.78 0.18l0 -0.18 -0.8 0 0 0.33 0.63 0c0.11,0 0.17,-0.05 0.17,-0.15zm-1.78 -0.6l0 0.31 0.8 0 0 -0.31 -0.8 0zm1.78 0l-0.8 0 0 0.31 0.8 0 0 -0.31zm-1.81 -1.15l1.84 0 0 0.11 -1.84 0 0 -0.11z"/>
  <path id="8" class="fil1" d="M26.77 32.53l0 -1.65 1.34 0 0 1.65 -0.17 0 0 -1.54 -1 0 0 1.54 -0.17 0zm0.57 -1.28l0.17 0 0 0.57c0.01,0.15 0,0.27 -0.02,0.39l0.14 0 0 0.77c0,0.13 0.06,0.19 0.2,0.18l0.1 0c0.15,0.01 0.22,-0.05 0.21,-0.18l0 -0.09 0.13 0 0 0.09c0.01,0.21 -0.11,0.31 -0.34,0.3l-0.15 0c-0.22,0.01 -0.32,-0.1 -0.32,-0.31l0 -0.63c-0.07,0.42 -0.4,0.76 -0.96,1.03l0 -0.13c0.59,-0.3 0.88,-0.77 0.84,-1.41l0 -0.58zm-1.27 2.12l0 -1.14c-0.09,0.11 -0.23,0.22 -0.42,0.34l0 -0.12c0.35,-0.27 0.57,-0.62 0.66,-1.05l-0.6 0 0 -0.12 0.78 0 0 0.12c-0.06,0.25 -0.14,0.44 -0.23,0.58 0.09,0.15 0.23,0.28 0.39,0.39l0 0.11c-0.18,-0.08 -0.31,-0.18 -0.41,-0.28l0 1.17 -0.17 0zm0.04 -2.61c0.08,0.15 0.14,0.29 0.18,0.44l-0.17 0c-0.02,-0.13 -0.07,-0.28 -0.15,-0.44l0.14 0z"/>
  <path id="9" class="fil1" d="M28.81 33.36l0 -0.11c0.84,-0.14 1.24,-0.49 1.2,-1.03l0 -0.19 0.17 0 0 0.17c0,0.05 0,0.11 0,0.17l0.14 0 0 0.58c-0.01,0.16 0.07,0.23 0.25,0.22l0.41 0c0.16,0 0.25,-0.06 0.25,-0.2l0 -0.09 0.13 0 0 0.09c0.01,0.22 -0.11,0.33 -0.36,0.32l-0.49 0c-0.25,0.01 -0.37,-0.1 -0.37,-0.33l0 -0.41c-0.07,0.41 -0.52,0.68 -1.33,0.81zm2.16 -0.58l-0.19 0 0 -0.93 -1.38 0 0 0.93 -0.19 0 0 -1.04 1.76 0 0 1.04zm0.07 -2.03c-0.05,0.18 -0.13,0.33 -0.23,0.46l0.52 0 0 0.46 -0.18 0 0 -0.34 -2.12 0 0 0.34 -0.18 0 0 -0.46 1.8 0c0.09,-0.14 0.17,-0.29 0.22,-0.46l0.17 0zm-1.1 0l0.16 0c0.07,0.14 0.11,0.26 0.14,0.38l-0.17 0c-0.03,-0.13 -0.07,-0.26 -0.13,-0.38zm-0.8 0l0.16 0c0.07,0.14 0.12,0.26 0.14,0.38l-0.17 0c-0.02,-0.13 -0.06,-0.26 -0.13,-0.38z"/>
  <path id="10" class="fil1" d="M31.96 31.06l0 -0.11 1.46 0 0 0.11 -0.33 0 0 0.85 0.41 0 0 0.13 -0.41 0 0 1.32 -0.17 0 0 -1.32 -0.49 0c0.03,0.64 -0.16,1.08 -0.56,1.34l0 -0.14c0.28,-0.25 0.41,-0.66 0.39,-1.2l-0.37 0 0 -0.13 0.37 0 0 -0.85 -0.3 0zm0.47 0l0 0.85 0.49 0 0 -0.85 -0.49 0zm0.84 2.31l0 -0.11c0.55,-0.23 0.91,-0.57 1.1,-1.04l0.18 0c-0.21,0.56 -0.63,0.94 -1.28,1.15zm0.11 -0.95l0 -0.11c0.4,-0.15 0.69,-0.42 0.86,-0.8l0.18 0c-0.2,0.47 -0.54,0.77 -1.04,0.91zm0.01 -0.78l0 -0.11c0.38,-0.18 0.63,-0.43 0.76,-0.74l0.18 0c-0.15,0.4 -0.47,0.68 -0.94,0.85z"/>
  <path id="11" class="fil1" d="M35.02 32.86l0 -0.11c0.59,-0.16 1.03,-0.37 1.3,-0.65 -0.04,-0.06 -0.1,-0.1 -0.17,-0.13 -0.22,0.19 -0.6,0.34 -1.13,0.45l0 -0.11c0.43,-0.11 0.73,-0.22 0.9,-0.35l-0.67 0 0 -0.55c-0.02,0.01 -0.04,0.02 -0.08,0.02 -0.06,0.03 -0.11,0.05 -0.15,0.06l0 -0.11c0.4,-0.15 0.68,-0.37 0.84,-0.65l0.2 0c-0.05,0.07 -0.09,0.13 -0.14,0.19l1.08 0 0 0.13c-0.1,0.13 -0.2,0.21 -0.28,0.25l0.69 0 0 0.32c0.01,0.23 -0.11,0.34 -0.35,0.34l-0.68 0c0.15,0.1 0.23,0.27 0.23,0.53l0 0.48c0,0.25 -0.12,0.37 -0.38,0.36l-0.24 0 0 -0.11 0.22 0c0.16,0 0.24,-0.07 0.24,-0.2l0 -0.33c-0.27,0.24 -0.75,0.44 -1.44,0.6l0 -0.11c0.65,-0.16 1.12,-0.4 1.43,-0.7 0,-0.08 -0.02,-0.16 -0.04,-0.23 -0.3,0.26 -0.76,0.46 -1.38,0.61zm2.22 -1.22l0 -0.23 -0.74 0c-0.05,0.18 -0.13,0.32 -0.23,0.43l0.78 0c0.13,0 0.2,-0.06 0.19,-0.2zm-1.19 0.2c0.12,-0.11 0.22,-0.25 0.27,-0.43l-0.9 0 0 0.43 0.63 0zm0.8 0.44c0.07,0.41 0.3,0.69 0.72,0.84l0 0.12c-0.53,-0.17 -0.83,-0.49 -0.89,-0.96l0 -0.12 0.25 0c0.17,0.01 0.35,-0.02 0.53,-0.09l0 0.13c-0.12,0.05 -0.3,0.08 -0.53,0.08l-0.08 0zm-0.06 -1.24l-0.97 0c-0.1,0.1 -0.21,0.19 -0.34,0.26l1.02 0c0.11,-0.07 0.2,-0.16 0.29,-0.26z"/>
  <path id="12" class="fil1" d="M20.58 38.78l0 -0.54 -0.68 0 0 1.19c0,0.12 0.07,0.19 0.22,0.19l0.5 0c0.13,0 0.2,-0.07 0.19,-0.2l0 -0.1 0.14 0 0 0.13c0.01,0.19 -0.1,0.29 -0.36,0.28l-0.51 0c-0.23,0.01 -0.35,-0.09 -0.34,-0.3l0 -1.31 1.01 0 0 0.62c0.01,0.22 -0.1,0.33 -0.32,0.32l-0.16 0 0 -0.12 0.16 0c0.1,0 0.15,-0.06 0.15,-0.16zm1.38 -1.56l0 2.22c0.01,0.24 -0.1,0.36 -0.32,0.35l-0.24 0 0 -0.12 0.19 0c0.14,0 0.21,-0.06 0.2,-0.19l0 -2.26 0.17 0zm-2.5 0.86c0.32,-0.21 0.55,-0.5 0.68,-0.87l0.19 0c0.13,0.35 0.36,0.63 0.69,0.85l0 0.11c-0.39,-0.19 -0.65,-0.44 -0.78,-0.72 -0.15,0.29 -0.41,0.54 -0.78,0.75l0 -0.12zm1.75 -0.65l0.16 0 0 1.78 -0.16 0 0 -1.78z"/>
  <path id="13" class="fil1" d="M25.14 39.02l0 0.12 -0.93 0 0 0.68 -0.18 0 0 -2.16 -0.14 0c-0.11,0.19 -0.3,0.35 -0.58,0.49l0 -0.12c0.31,-0.19 0.5,-0.46 0.56,-0.81l0.18 0c-0.03,0.12 -0.06,0.23 -0.1,0.33l1.26 0 0 0.11 -1 0 0 0.62 0.84 0 0 0.11 -0.84 0 0 0.63 0.93 0zm-2.21 0.8l0 -1.79c-0.1,0.08 -0.23,0.17 -0.39,0.26l0 -0.13c0.34,-0.21 0.54,-0.53 0.61,-0.95l0.19 0c-0.06,0.26 -0.14,0.46 -0.24,0.6l0 2.01 -0.17 0z"/>
  <path id="14" class="fil1" d="M28.24 39.56l0 0.13 -2.54 0 0 -0.13 0.43 0 0 -1.1 0.18 0 0 1.1 0.64 0 0 -1.58 0.18 0 0 0.56 0.83 0 0 0.13 -0.83 0 0 0.89 1.11 0zm-1.33 -2.39l0.15 0c0.27,0.41 0.69,0.74 1.27,0.99l0 0.12c-0.56,-0.2 -1.01,-0.5 -1.35,-0.89 -0.33,0.39 -0.78,0.69 -1.34,0.89l0 -0.12c0.58,-0.25 1,-0.58 1.27,-0.99z"/>
  <path id="15" class="fil1" d="M31.42 39.54l0 0.1 -2.65 0 0 -0.1 0.87 0 0 -2.29 0.17 0 0 2.29 0.54 0 0 -2.29 0.17 0 0 2.29 0.9 0zm-0.15 -1.87c-0.04,0.44 -0.12,0.84 -0.25,1.19l-0.15 0c0.13,-0.39 0.2,-0.78 0.23,-1.19l0.17 0zm-2.36 0l0.17 0c0.03,0.41 0.1,0.8 0.22,1.19l-0.14 0c-0.13,-0.35 -0.22,-0.75 -0.25,-1.19z"/>
  <path id="16" class="fil1" d="M31.96 37.52l0 -0.12 1.46 0 0 0.12 -0.33 0 0 0.85 0.41 0 0 0.12 -0.41 0 0 1.32 -0.17 0 0 -1.32 -0.49 0c0.03,0.64 -0.16,1.09 -0.56,1.35l0 -0.14c0.28,-0.26 0.41,-0.66 0.39,-1.21l-0.37 0 0 -0.12 0.37 0 0 -0.85 -0.3 0zm0.47 0l0 0.85 0.49 0 0 -0.85 -0.49 0zm0.84 2.3l0 -0.11c0.55,-0.22 0.91,-0.56 1.1,-1.03l0.18 0c-0.21,0.56 -0.63,0.94 -1.28,1.14zm0.11 -0.94l0 -0.11c0.4,-0.16 0.69,-0.42 0.86,-0.8l0.18 0c-0.2,0.46 -0.54,0.77 -1.04,0.91zm0.01 -0.79l0 -0.11c0.38,-0.17 0.63,-0.42 0.76,-0.74l0.18 0c-0.15,0.4 -0.47,0.69 -0.94,0.85z"/>
  <path id="17" class="fil1" d="M35.02 39.31l0 -0.1c0.59,-0.16 1.03,-0.38 1.3,-0.65 -0.04,-0.06 -0.1,-0.11 -0.17,-0.14 -0.22,0.19 -0.6,0.35 -1.13,0.46l0 -0.11c0.43,-0.11 0.73,-0.23 0.9,-0.36l-0.67 0 0 -0.54c-0.02,0 -0.04,0.01 -0.08,0.02 -0.06,0.03 -0.11,0.05 -0.15,0.06l0 -0.12c0.4,-0.15 0.68,-0.36 0.84,-0.65l0.2 0c-0.05,0.07 -0.09,0.14 -0.14,0.2l1.08 0 0 0.12c-0.1,0.13 -0.2,0.22 -0.28,0.25l0.69 0 0 0.32c0.01,0.24 -0.11,0.35 -0.35,0.34l-0.68 0c0.15,0.1 0.23,0.28 0.23,0.54l0 0.48c0,0.25 -0.12,0.37 -0.38,0.36l-0.24 0 0 -0.11 0.22 0c0.16,0 0.24,-0.07 0.24,-0.21l0 -0.33c-0.27,0.24 -0.75,0.45 -1.44,0.6l0 -0.11c0.65,-0.16 1.12,-0.39 1.43,-0.69 0,-0.09 -0.02,-0.16 -0.04,-0.23 -0.3,0.26 -0.76,0.46 -1.38,0.6zm2.22 -1.22l0 -0.22 -0.74 0c-0.05,0.17 -0.13,0.32 -0.23,0.43l0.78 0c0.13,0 0.2,-0.07 0.19,-0.21zm-1.19 0.21c0.12,-0.11 0.22,-0.26 0.27,-0.43l-0.9 0 0 0.43 0.63 0zm0.8 0.43c0.07,0.41 0.3,0.69 0.72,0.85l0 0.12c-0.53,-0.17 -0.83,-0.5 -0.89,-0.97l0 -0.11 0.25 0c0.17,0.01 0.35,-0.02 0.53,-0.09l0 0.12c-0.12,0.06 -0.3,0.08 -0.53,0.08l-0.08 0zm-0.06 -1.24l-0.97 0c-0.1,0.11 -0.21,0.2 -0.34,0.26l1.02 0c0.11,-0.06 0.2,-0.15 0.29,-0.26z"/>
  <polygon id="18" class="fil2" points="19.32,26.89 37.75,26.89 37.75,27.03 19.32,27.03 "/>
  <polygon id="19" class="fil2" points="37.75,26.89 37.75,26.89 37.75,27.03 37.75,27.03 "/>
  <polygon id="20" class="fil2" points="19.32,33.35 19.32,33.35 19.32,33.48 19.32,33.48 "/>
  <polygon id="21" class="fil2" points="19.32,33.35 37.75,33.35 37.75,33.48 19.32,33.48 "/>
  <polygon id="22" class="fil2" points="37.75,33.35 37.75,33.35 37.75,33.48 37.75,33.48 "/>
  <polygon id="23" class="fil2" points="19.32,39.8 19.32,39.8 19.32,39.94 19.32,39.94 "/>
  <polygon id="24" class="fil2" points="19.32,39.8 37.75,39.8 37.75,39.94 19.32,39.94 "/>
  <path class="fil1" d="M1.2 17.7l-0.51 1.37 -0.19 0 -0.5 -1.37 0.2 0 0.37 1.07c0.01,0.04 0.02,0.08 0.03,0.13l0 0c0,-0.04 0.02,-0.09 0.03,-0.13l0.38 -1.07 0.19 0z"/>
  <polygon id="1" class="fil1" points="2.3,17.7 2.3,19.07 2.12,19.07 2.12,17.7 "/>
  <path id="2" class="fil1" d="M3.72 17.78l0.52 0c0.03,-0.07 0.05,-0.15 0.08,-0.22l0.14 0.03c-0.02,0.07 -0.04,0.13 -0.06,0.19l1.03 0 0 0.13 -1.09 0c-0.07,0.16 -0.15,0.31 -0.25,0.45l0 0.94 -0.13 0 0 -0.75c-0.07,0.08 -0.14,0.15 -0.21,0.23 -0.02,-0.05 -0.05,-0.09 -0.08,-0.13 0.21,-0.23 0.39,-0.47 0.51,-0.74l-0.46 0 0 -0.13zm0.44 1.26l0.55 0 0 -0.53 -0.46 0 0 -0.13 0.46 0 0 -0.35 0.15 0 0 0.35 0.47 0 0 0.13 -0.47 0 0 0.53 0.57 0 0 0.13 -1.27 0 0 -0.13z"/>
  <path id="3" class="fil1" d="M6.23 18.29l0.83 0 0 -0.46 -0.69 0 0 -0.14 1.48 0 0 0.14 -0.64 0 0 0.46 0.77 0 0 0.14 -0.77 0 0 0.61c0,0.08 -0.02,0.14 -0.05,0.17 -0.03,0.04 -0.09,0.07 -0.18,0.07 -0.06,0 -0.16,0 -0.3,0 -0.01,-0.06 -0.02,-0.11 -0.03,-0.16 0.13,0 0.23,0.01 0.28,0.01 0.05,0 0.09,-0.01 0.1,-0.03 0.02,-0.02 0.03,-0.05 0.03,-0.11l0 -0.56 -0.83 0 0 -0.14z"/>
  <path id="4" class="fil1" d="M10.24 18.94l0.12 -0.06c0.07,0.12 0.14,0.25 0.2,0.38l-0.13 0.06c-0.02,-0.04 -0.04,-0.09 -0.06,-0.13 -0.37,0.03 -0.7,0.05 -0.99,0.07l-0.02 -0.15c0.18,-0.01 0.35,-0.01 0.52,-0.02l0 -0.26 -0.31 0 0 0.07 -0.13 0 0 -0.57 0.44 0 0 -0.19 -0.24 0 0 0.07 -0.13 0 0 -0.55 0.87 0 0 0.55 -0.13 0 0 -0.07 -0.24 0 0 0.19 0.44 0 0 0.5 -0.44 0 0 0.25c0.1,0 0.2,0 0.3,-0.01 -0.02,-0.04 -0.05,-0.09 -0.07,-0.13zm-1.37 -0.85l0.35 0 0 -0.3 -0.4 0 0 -0.12 0.53 0 0 0.61 -0.13 0 0 -0.07 -0.23 0 -0.04 0.27 0.38 0c-0.01,0.26 -0.02,0.44 -0.03,0.56 -0.01,0.16 -0.09,0.24 -0.24,0.24 -0.05,0 -0.12,0 -0.19,0 -0.01,-0.05 -0.02,-0.09 -0.03,-0.15 0.08,0.01 0.14,0.01 0.2,0.01 0.08,0 0.12,-0.04 0.13,-0.12 0.01,-0.12 0.02,-0.26 0.02,-0.42l-0.38 0 0.06 -0.51zm1.38 -0.31l-0.61 0 0 0.23 0.61 0 0 -0.23zm0.07 0.93l0 -0.26 -0.31 0 0 0.26 0.31 0zm-0.75 0l0.31 0 0 -0.26 -0.31 0 0 0.26z"/>
  <path id="5" class="fil1" d="M11.83 18.66c0.15,-0.07 0.3,-0.16 0.43,-0.25l0 -0.82 0.15 0 0 0.71c0.19,-0.15 0.35,-0.32 0.49,-0.51l0.13 0.09c-0.18,0.23 -0.38,0.43 -0.62,0.6l0 0.51c0,0.08 0.05,0.12 0.13,0.12l0.23 0c0.08,0 0.13,-0.04 0.14,-0.12 0.02,-0.08 0.03,-0.17 0.03,-0.28 0.05,0.02 0.1,0.04 0.16,0.05 -0.01,0.1 -0.03,0.2 -0.04,0.28 -0.02,0.13 -0.11,0.2 -0.26,0.2l-0.3 0c-0.16,0 -0.24,-0.08 -0.24,-0.24l0 -0.41c-0.11,0.07 -0.23,0.14 -0.35,0.19 -0.02,-0.03 -0.05,-0.08 -0.08,-0.12zm-0.5 -0.22c0.2,-0.27 0.35,-0.56 0.45,-0.87l0.16 0.04c-0.06,0.15 -0.12,0.29 -0.19,0.42l0 1.27 -0.15 0 0 -1c-0.06,0.1 -0.13,0.2 -0.21,0.3 -0.02,-0.05 -0.04,-0.11 -0.06,-0.16z"/>
  <path id="6" class="fil1" d="M14.82 18.01l0.22 0 0.05 -0.22 -0.3 0 0 -0.12 0.85 0 0 0.12 -0.41 0 -0.05 0.22 0.39 0 0 0.92 -0.13 0 0 -0.81 -0.5 0 0 0.81 -0.12 0 0 -0.92zm-0.57 0l0.45 0 0 0.51c0,0.09 -0.02,0.14 -0.05,0.16 -0.04,0.03 -0.1,0.05 -0.21,0.04 0,-0.05 -0.01,-0.1 -0.02,-0.14 0.07,0.01 0.11,0.01 0.13,0 0.02,0 0.03,-0.03 0.03,-0.06l0 -0.39 -0.21 0 0 0.92c0.12,-0.05 0.24,-0.11 0.35,-0.18 0,0.06 0.01,0.1 0.02,0.14 -0.18,0.09 -0.3,0.15 -0.37,0.19 -0.04,0.02 -0.08,0.05 -0.1,0.08l-0.08 -0.1c0.04,-0.04 0.06,-0.09 0.06,-0.16l0 -1.01zm-0.12 -0.22l0 0.72c0,0.34 -0.05,0.61 -0.15,0.8 -0.04,-0.04 -0.07,-0.07 -0.1,-0.09 0.08,-0.17 0.13,-0.43 0.13,-0.76l0 -0.79 0.72 0 0 0.12 -0.6 0zm1 0.44l0.13 0 0 0.26c0,0.14 -0.02,0.25 -0.05,0.35 0.16,0.13 0.3,0.25 0.43,0.37l-0.1 0.11c-0.12,-0.12 -0.24,-0.24 -0.37,-0.35 -0.01,0 -0.01,0.01 -0.01,0.02 -0.07,0.13 -0.2,0.25 -0.39,0.34 -0.03,-0.04 -0.06,-0.08 -0.09,-0.11 0.17,-0.08 0.29,-0.17 0.36,-0.29 0.06,-0.1 0.09,-0.25 0.09,-0.44l0 -0.26z"/>
  <path id="7" class="fil1" d="M17.01 17.9l0.13 0.05c-0.02,0.03 -0.05,0.07 -0.08,0.1l0.82 0 0 0.11c-0.1,0.11 -0.23,0.21 -0.39,0.3 0.2,0.06 0.44,0.09 0.72,0.09 -0.03,0.05 -0.06,0.09 -0.09,0.14 -0.32,-0.02 -0.58,-0.08 -0.79,-0.16 -0.23,0.09 -0.51,0.16 -0.84,0.2 -0.02,-0.04 -0.05,-0.09 -0.08,-0.13 0.3,-0.03 0.56,-0.08 0.77,-0.15 -0.12,-0.06 -0.21,-0.14 -0.28,-0.23 -0.09,0.08 -0.18,0.16 -0.28,0.23 -0.02,-0.03 -0.05,-0.06 -0.09,-0.1 0.21,-0.14 0.37,-0.29 0.48,-0.45zm-0.27 0.84l1.16 0 0 0.57 -0.13 0 0 -0.08 -0.9 0 0 0.08 -0.13 0 0 -0.57zm-0.21 -0.97l0.76 0c-0.03,-0.05 -0.07,-0.1 -0.11,-0.16l0.12 -0.07c0.05,0.05 0.09,0.11 0.15,0.18l-0.09 0.05 0.76 0 0 0.33 -0.14 0 0 -0.21 -1.32 0 0 0.21 -0.13 0 0 -0.33zm1.24 1.08l-0.9 0 0 0.27 0.9 0 0 -0.27zm-0.08 -0.69l-0.68 0c0.08,0.1 0.19,0.17 0.32,0.23 0.15,-0.06 0.27,-0.14 0.36,-0.23z"/>
  <path id="8" class="fil1" d="M19.96 18.67c0.09,-0.06 0.17,-0.13 0.25,-0.2 -0.07,-0.15 -0.12,-0.34 -0.13,-0.58l-0.78 0 0 0.24c0,0.29 -0.07,0.52 -0.21,0.7 -0.03,-0.05 -0.06,-0.1 -0.09,-0.14 0.12,-0.13 0.17,-0.32 0.17,-0.56l0 -0.35 0.9 0c0,-0.07 0,-0.14 0,-0.21l0.13 0c0,0.07 0,0.14 0,0.21l0.52 0 0 0.11 -0.51 0c0.01,0.19 0.04,0.34 0.09,0.46 0.08,-0.1 0.15,-0.22 0.19,-0.35l0.12 0.06c-0.07,0.16 -0.15,0.29 -0.25,0.41 0.03,0.04 0.05,0.07 0.07,0.1 0.03,0.03 0.06,0.04 0.09,0.04 0.02,0 0.04,-0.02 0.05,-0.05 0.02,-0.05 0.04,-0.12 0.05,-0.2 0.03,0.01 0.08,0.03 0.14,0.05 -0.03,0.11 -0.06,0.19 -0.08,0.24 -0.03,0.08 -0.08,0.12 -0.15,0.12 -0.05,0 -0.11,-0.03 -0.17,-0.09 -0.03,-0.02 -0.06,-0.06 -0.09,-0.1 -0.06,0.07 -0.13,0.13 -0.21,0.18 -0.03,-0.03 -0.06,-0.06 -0.1,-0.09zm-0.54 -0.42l0.55 0 0 0.39 -0.43 0 0 0.04 -0.12 0 0 -0.43zm0.02 0.54l0.14 0 0 0.25c0,0.07 0.04,0.11 0.11,0.11l0.32 0c0.09,0 0.15,-0.04 0.16,-0.11 0.01,-0.04 0.02,-0.1 0.03,-0.19 0.04,0.02 0.09,0.04 0.14,0.06 -0.01,0.08 -0.03,0.14 -0.04,0.19 -0.03,0.11 -0.12,0.17 -0.26,0.17l-0.37 0c-0.15,0 -0.23,-0.07 -0.23,-0.22l0 -0.26zm-0.07 -0.77l0.65 0 0 0.11 -0.65 0 0 -0.11zm-0.17 0.76l0.12 0.05c-0.06,0.15 -0.12,0.29 -0.19,0.4 -0.03,-0.02 -0.07,-0.05 -0.12,-0.07 0.07,-0.11 0.14,-0.24 0.19,-0.38zm0.65 -0.25l0 -0.17 -0.31 0 0 0.17 0.31 0zm0.56 0.36l0.1 -0.07c0.08,0.09 0.15,0.19 0.23,0.3l-0.11 0.08c-0.06,-0.09 -0.13,-0.19 -0.22,-0.31zm-0.68 -0.12l0.09 -0.07c0.08,0.08 0.15,0.16 0.21,0.23l-0.11 0.09c-0.06,-0.09 -0.13,-0.18 -0.19,-0.25zm0.84 -1.08l-0.09 0.09c-0.05,-0.05 -0.11,-0.1 -0.17,-0.15l0.08 -0.08c0.06,0.05 0.12,0.09 0.18,0.14z"/>
  <path id="9" class="fil1" d="M23.05 18.71l0 0.6 -0.13 0 0 -0.1 -0.93 0 0 0.1 -0.14 0 0 -1.23 1.14 0 0 0.52 -0.14 0 0 -0.06 -0.86 0 0 0.17 1.06 0zm-1.44 -0.92l0.81 0c-0.04,-0.06 -0.07,-0.12 -0.11,-0.17l0.12 -0.07c0.04,0.05 0.09,0.11 0.13,0.19l-0.08 0.05 0.75 0 0 0.32 -0.14 0 0 -0.2 -1.34 0 0 0.2 -0.14 0 0 -0.32zm1.31 1.04l-0.93 0 0 0.26 0.93 0 0 -0.26zm-0.07 -0.63l-0.86 0 0 0.22 0.86 0 0 -0.22z"/>
  <path id="10" class="fil1" d="M25.87 18.85c-0.04,0.05 -0.08,0.09 -0.11,0.13 -0.23,-0.18 -0.41,-0.49 -0.52,-0.92l0 0.75 0.26 0 0 0.13 -0.26 0 0 0.37 -0.13 0 0 -0.37 -0.26 0 0 -0.13 0.26 0 0 -0.75 -0.01 0c-0.11,0.41 -0.29,0.73 -0.54,0.95 -0.03,-0.03 -0.06,-0.07 -0.09,-0.11 0.22,-0.21 0.4,-0.49 0.51,-0.84l-0.42 0 0 -0.13 0.55 0 0 -0.36 0.13 0 0 0.36 0.57 0 0 0.13 -0.45 0c0.11,0.37 0.28,0.63 0.51,0.79zm-1.79 -0.43c0.17,-0.25 0.3,-0.54 0.38,-0.86l0.14 0.04c-0.05,0.15 -0.1,0.29 -0.16,0.43l0 1.28 -0.13 0 0 -1.02c-0.05,0.1 -0.11,0.19 -0.17,0.28 -0.02,-0.05 -0.04,-0.1 -0.06,-0.15z"/>
  <path id="11" class="fil1" d="M26.89 17.9l-0.04 0.49 0.18 0 0.04 -0.6 -0.4 0 0 -0.12 0.54 0 -0.06 0.72 0.11 0c0,0.25 -0.01,0.46 -0.02,0.62 0,0.18 -0.08,0.27 -0.23,0.27 -0.07,0 -0.14,0 -0.23,-0.01 0,-0.04 -0.01,-0.09 -0.02,-0.14 0.08,0.01 0.16,0.02 0.23,0.02 0.08,0 0.12,-0.05 0.13,-0.15 0,-0.13 0.01,-0.29 0.02,-0.49l-0.43 0 0.06 -0.61 0.12 0zm0.39 1.2l0.64 0c0.09,-0.21 0.16,-0.43 0.23,-0.66l0.13 0.04c-0.07,0.22 -0.14,0.42 -0.22,0.62l0.31 0 0 0.13 -1.09 0 0 -0.13zm0.64 -1.53l-0.03 0.06c0.14,0.25 0.32,0.44 0.53,0.56 -0.03,0.04 -0.07,0.08 -0.09,0.12 -0.21,-0.15 -0.38,-0.34 -0.51,-0.56 -0.12,0.22 -0.29,0.41 -0.51,0.58 -0.02,-0.03 -0.05,-0.07 -0.09,-0.11 0.24,-0.16 0.42,-0.38 0.55,-0.65l0.15 0zm-0.46 0.66l0.73 0 0 0.12 -0.73 0 0 -0.12zm0.22 0.22l0.12 -0.03c0.05,0.18 0.09,0.33 0.12,0.47l-0.13 0.03c-0.03,-0.16 -0.07,-0.32 -0.11,-0.47zm-0.31 0.08l0.12 -0.04c0.06,0.17 0.11,0.32 0.15,0.45l-0.13 0.05c-0.04,-0.15 -0.09,-0.3 -0.14,-0.46zm-0.75 0.25c0.14,-0.03 0.29,-0.06 0.46,-0.1 0,0.05 0,0.09 0,0.13 -0.14,0.02 -0.28,0.06 -0.43,0.1l-0.03 -0.13z"/>
  <path id="12" class="fil1" d="M30.33 18.47c0,-0.03 0.01,-0.06 0.03,-0.08 0.02,-0.02 0.05,-0.03 0.08,-0.03 0.03,0 0.06,0.01 0.08,0.03 0.03,0.02 0.04,0.05 0.04,0.08 0,0.03 -0.01,0.06 -0.04,0.08 -0.02,0.02 -0.05,0.04 -0.08,0.04 -0.03,0 -0.06,-0.02 -0.08,-0.04 -0.02,-0.02 -0.03,-0.05 -0.03,-0.08z"/>
  <path id="13" class="fil1" d="M33.82 17.6l0.14 0 0 0.32c0,0.33 -0.04,0.59 -0.12,0.78 0.14,0.15 0.28,0.3 0.41,0.45l-0.12 0.11c-0.12,-0.15 -0.24,-0.29 -0.36,-0.43 -0.14,0.21 -0.35,0.37 -0.62,0.49 -0.03,-0.04 -0.06,-0.08 -0.1,-0.12 0.3,-0.14 0.5,-0.3 0.6,-0.48 0.11,-0.18 0.17,-0.44 0.17,-0.8l0 -0.32zm-0.56 0.99c0.01,0.07 0.01,0.13 0.02,0.17 -0.29,0.17 -0.46,0.29 -0.53,0.33 -0.04,0.03 -0.08,0.06 -0.11,0.09l-0.11 -0.14c0.06,-0.05 0.09,-0.11 0.09,-0.18l0 -1.23 0.14 0 0 1.27c0.13,-0.08 0.3,-0.18 0.5,-0.31zm-0.07 -1.03c0.08,0.13 0.17,0.28 0.27,0.45l-0.14 0.08c-0.09,-0.18 -0.18,-0.34 -0.25,-0.46l0.12 -0.07z"/>
  <path id="14" class="fil1" d="M35.63 18.47l0 -0.12 0.97 0 0 0.12c-0.09,0.21 -0.21,0.37 -0.35,0.48 0.16,0.1 0.34,0.17 0.55,0.21 -0.04,0.06 -0.08,0.1 -0.11,0.15 -0.21,-0.06 -0.39,-0.15 -0.55,-0.27 -0.16,0.11 -0.37,0.2 -0.61,0.28 -0.03,-0.04 -0.06,-0.09 -0.1,-0.13 0.24,-0.06 0.44,-0.14 0.59,-0.24 -0.13,-0.13 -0.23,-0.29 -0.29,-0.48l-0.1 0zm0.75 -0.69l-0.45 0 0 0.05c0,0.22 -0.1,0.38 -0.29,0.49 -0.04,-0.04 -0.07,-0.08 -0.11,-0.11 0.18,-0.09 0.27,-0.22 0.27,-0.38l0 -0.18 0.72 0 0 0.36c0,0.05 0.02,0.08 0.08,0.08l0.19 0c0,0.05 -0.01,0.09 -0.01,0.13l-0.23 0c-0.12,0 -0.17,-0.06 -0.17,-0.18l0 -0.26zm-0.74 1c0,0.06 0,0.11 0.01,0.16 -0.16,0.1 -0.28,0.19 -0.36,0.25l-0.09 -0.11c0.04,-0.04 0.06,-0.1 0.06,-0.16l0 -0.64 -0.22 0 0 -0.12 0.36 0 0 0.78c0.07,-0.05 0.15,-0.1 0.24,-0.16zm-0.36 -1.17c0.09,0.09 0.18,0.19 0.26,0.28l-0.12 0.1c-0.09,-0.11 -0.17,-0.2 -0.25,-0.28l0.11 -0.1zm0.58 0.86c0.06,0.15 0.15,0.29 0.28,0.4 0.13,-0.1 0.23,-0.23 0.3,-0.4l-0.58 0z"/>
  <path id="15" class="fil1" d="M38.15 18.18l0.51 0 0 -0.62 0.16 0 0 0.62 0.52 0 0 0.12 -0.52 0 0 1.01 -0.16 0 0 -1.01 -0.51 0 0 -0.12zm0.16 0.64c0,0.06 0.01,0.11 0.01,0.15 -0.19,0.12 -0.34,0.22 -0.47,0.31l-0.08 -0.12c0.04,-0.04 0.06,-0.09 0.06,-0.16l0 -0.71 -0.25 0 0 -0.12 0.39 0 0 0.86c0.11,-0.06 0.22,-0.13 0.34,-0.21zm-0.55 -1.23c0.13,0.13 0.22,0.23 0.28,0.29l-0.12 0.11c-0.08,-0.1 -0.17,-0.2 -0.27,-0.31l0.11 -0.09z"/>
  <path id="16" class="fil1" d="M40.83 17.64l0.89 0 0 0.7 -0.13 0 0 -0.05 -0.63 0 0 0.05 -0.13 0 0 -0.7zm-0.28 1.59c0.17,-0.14 0.27,-0.34 0.29,-0.6l0.13 0c-0.01,0.08 -0.02,0.16 -0.04,0.23 0.08,0.12 0.18,0.2 0.3,0.24l0 -0.54 -0.55 0 0 -0.12 1.2 0 0 0.12 -0.52 0 0 0.2 0.45 0 0 0.12 -0.45 0 0 0.25c0.08,0.01 0.26,0 0.54,-0.01 -0.01,0.01 -0.02,0.05 -0.04,0.14 -0.14,0 -0.29,0 -0.44,-0.01 -0.24,0 -0.42,-0.09 -0.53,-0.25 -0.05,0.12 -0.12,0.23 -0.22,0.32 -0.03,-0.03 -0.07,-0.06 -0.12,-0.09zm-0.43 -0.73c0.08,-0.03 0.16,-0.06 0.23,-0.1l0 -0.38 -0.21 0 0 -0.12 0.21 0 0 -0.33 0.14 0 0 0.33 0.23 0 0 0.12 -0.23 0 0 0.31c0.07,-0.03 0.14,-0.06 0.2,-0.1 0.01,0.04 0.01,0.09 0.02,0.14 -0.07,0.04 -0.15,0.07 -0.22,0.11l0 0.62c0,0.11 -0.04,0.18 -0.13,0.19 -0.06,0 -0.13,0 -0.21,0 -0.01,-0.05 -0.02,-0.1 -0.02,-0.15 0.06,0.01 0.12,0.01 0.16,0.01 0.04,0 0.06,-0.02 0.06,-0.06l0 -0.54c-0.07,0.04 -0.14,0.07 -0.21,0.11l-0.02 -0.16zm0.84 -0.32l0.63 0 0 -0.16 -0.63 0 0 0.16zm0.63 -0.43l-0.63 0 0 0.16 0.63 0 0 -0.16z"/>
  <path id="17" class="fil1" d="M42.69 18.27l0.47 0 0 -0.42c-0.13,0.01 -0.26,0.02 -0.4,0.03 -0.01,-0.04 -0.02,-0.08 -0.03,-0.13 0.37,-0.03 0.7,-0.07 0.97,-0.11l0.03 0.13c-0.13,0.02 -0.27,0.04 -0.43,0.06l0 0.44 0.57 0 0 -0.7 0.15 0 0 0.7 0.42 0 0 0.14 -0.42 0 0 0.89 -0.15 0 0 -0.89 -0.57 0c0,0.25 -0.03,0.43 -0.09,0.54 -0.06,0.13 -0.19,0.25 -0.38,0.37 -0.02,-0.03 -0.05,-0.07 -0.1,-0.12 0.18,-0.12 0.3,-0.22 0.35,-0.33 0.05,-0.09 0.07,-0.24 0.08,-0.46l-0.47 0 0 -0.14z"/>
  <path id="18" class="fil1" d="M45.5 17.64l1.23 0 0 0.7 -0.14 0 0 -0.06 -0.94 0 0 0.06 -0.15 0 0 -0.7zm0.73 0.85l0.68 0 0 0.82 -0.14 0 0 -0.12 -0.41 0 0 0.12 -0.13 0 0 -0.82zm-0.9 0l0.68 0 0 0.82 -0.14 0 0 -0.12 -0.41 0 0 0.12 -0.13 0 0 -0.82zm1.26 -0.73l-0.94 0 0 0.4 0.94 0 0 -0.4zm0.18 0.85l-0.41 0 0 0.46 0.41 0 0 -0.46zm-0.9 0l-0.41 0 0 0.46 0.41 0 0 -0.46z"/>
  <path id="19" class="fil1" d="M48.42 18.86l0.21 0c-0.02,-0.04 -0.05,-0.07 -0.07,-0.1 0.12,-0.06 0.21,-0.13 0.27,-0.21l-0.29 0 0 -0.8 0.3 0c0.03,-0.05 0.05,-0.12 0.07,-0.19l0.14 0.04c-0.02,0.06 -0.05,0.11 -0.07,0.15l0.46 0 0 0.86 -0.13 0 0 -0.06 -0.33 0c-0.05,0.1 -0.16,0.21 -0.31,0.31l0.35 0 0 -0.23 0.13 0 0 0.23 0.41 0 0 0.12 -0.41 0 0 0.32 -0.13 0 0 -0.32 -0.6 0 0 -0.12zm-0.06 0.43l-0.13 0 0 -0.67 -0.19 0c0,0.31 -0.05,0.54 -0.14,0.7 -0.03,-0.03 -0.07,-0.07 -0.11,-0.11 0.08,-0.13 0.12,-0.33 0.12,-0.59l0 -0.99 0.13 0 0 0.52 0.18 0 0 -0.57 0.13 0 0 0.57 0.13 0 0 0.11 -0.44 0 0 0.25 0.32 0 0 0.78zm0.66 -0.86l0.29 0 0 -0.23 -0.26 0c-0.01,0.09 -0.02,0.17 -0.03,0.23zm0.29 -0.56l-0.26 0 0 0.22 0.26 0 0 -0.22zm-0.64 0.22l0.25 0 0 -0.22 -0.25 0 0 0.22zm0.25 0.11l-0.25 0 0 0.23 0.21 0c0.02,-0.06 0.04,-0.14 0.04,-0.23z"/>
  <path id="20" class="fil1" d="M50.59 18.31l1.25 0 0 0.56 -0.12 0 0 -0.07 -0.22 0 0 0.23c0,0.07 0.04,0.11 0.1,0.11l0.21 0c0.07,0 0.12,-0.03 0.13,-0.08 0.01,-0.05 0.02,-0.12 0.03,-0.22 0.04,0.02 0.09,0.04 0.14,0.06 -0.02,0.09 -0.03,0.16 -0.04,0.21 -0.03,0.11 -0.11,0.16 -0.22,0.16l-0.27 0c-0.15,0 -0.22,-0.08 -0.22,-0.23l0 -0.24 -0.32 0c-0.02,0.27 -0.22,0.44 -0.62,0.51 -0.03,-0.05 -0.05,-0.09 -0.08,-0.14 0.36,-0.05 0.55,-0.17 0.56,-0.37l-0.18 0 0 0.07 -0.13 0 0 -0.56zm-0.24 -0.25l0.48 0c-0.03,-0.06 -0.06,-0.1 -0.09,-0.14l0.11 -0.06c0.06,0.07 0.1,0.14 0.14,0.2l0.46 0c0.04,-0.07 0.08,-0.14 0.11,-0.21l-1.14 0 0 -0.11 0.76 0c-0.03,-0.05 -0.06,-0.09 -0.09,-0.14l0.13 -0.06c0.03,0.06 0.07,0.13 0.11,0.2l0.7 0 0 0.11 -0.46 0 0.12 0.06c-0.04,0.06 -0.07,0.1 -0.09,0.15l0.5 0 0 0.11 -1.75 0 0 -0.11zm1.37 0.36l-1 0 0 0.27 1 0 0 -0.27z"/>
  <path id="21" class="fil1" d="M53.09 18.71l0.57 0 0 -0.22 -0.75 0 0 -0.12 0.75 0 0 -0.21 -0.52 0 0 -0.06c-0.05,0.04 -0.09,0.08 -0.15,0.12 -0.03,-0.03 -0.06,-0.06 -0.1,-0.1 0.22,-0.16 0.4,-0.35 0.53,-0.57l0.14 0.04c-0.02,0.04 -0.05,0.08 -0.08,0.12l0.72 0 0 0.13 -0.18 0.2 0.38 0 0 0.33 0.25 0 0 0.12 -0.25 0 0 0.41 -0.14 0 0 -0.07 -0.45 0 0 0.22c0,0.16 -0.08,0.24 -0.24,0.24 -0.08,0 -0.17,0 -0.28,-0.01 0,-0.04 -0.01,-0.09 -0.02,-0.15 0.1,0.01 0.19,0.02 0.26,0.02 0.09,0 0.13,-0.05 0.13,-0.14l0 -0.18 -0.57 0 0 -0.12zm0.93 -0.87l-0.63 0c-0.06,0.07 -0.12,0.13 -0.19,0.2l0.65 0 0.17 -0.2zm-0.21 0.87l0.45 0 0 -0.22 -0.45 0 0 0.22zm0.45 -0.55l-0.45 0 0 0.21 0.45 0 0 -0.21z"/>
  <path id="22" class="fil1" d="M55.53 17.96l0.57 0c0.01,-0.13 0.01,-0.26 0.01,-0.4l0.16 0c-0.01,0.13 -0.01,0.26 -0.01,0.4l0.81 0c-0.01,0.46 -0.02,0.79 -0.04,0.98 -0.01,0.21 -0.12,0.31 -0.32,0.31 -0.1,0 -0.22,0 -0.36,-0.01 0,-0.04 -0.01,-0.1 -0.02,-0.16l0 0c0.16,0.01 0.28,0.02 0.36,0.02 0.12,-0.01 0.18,-0.07 0.19,-0.19 0.02,-0.22 0.03,-0.48 0.03,-0.8l-0.66 0c-0.01,0.3 -0.06,0.54 -0.14,0.69 -0.1,0.18 -0.28,0.34 -0.55,0.5 -0.03,-0.04 -0.07,-0.09 -0.11,-0.13 0.26,-0.15 0.43,-0.29 0.51,-0.44 0.08,-0.13 0.13,-0.34 0.14,-0.62l-0.57 0 0 -0.15z"/>
  <g id="_3110274059952">
   <path class="fil3" d="M4.69 12.58l-0.26 0.22 0 2.78 0.98 0 0 -2.69c0,-0.15 0,-0.36 -0.01,-0.63 0,-0.27 -0.01,-0.57 -0.02,-0.91l1.29 0.19 -0.32 0.26 0 1.49 0.65 0 0.48 -0.69 0.85 0.67c0,0 0,0 0,0 0,0 0,0 0,0 0,0 -0.06,0.01 -0.18,0.05l-1.8 0 0 2.26 1.22 0 0.54 -0.75 0.9 0.71c0,0 0,0 0,0 0,0 0,0 0,0 0,0 -0.06,0.02 -0.16,0.07l-6.51 0 0 -0.03 1.18 0 0 -1.64c0,-0.05 0,-0.13 0,-0.24 0,-0.11 0,-0.23 0,-0.37 0,-0.14 -0.01,-0.29 -0.01,-0.45 -0.01,-0.16 -0.01,-0.33 -0.02,-0.49l1.2 0.19zm-2.41 0.19c0.53,-0.46 0.98,-0.91 1.37,-1.33 0.38,-0.43 0.71,-0.86 0.96,-1.3 0.1,-0.16 0.17,-0.3 0.22,-0.43 0.05,-0.12 0.09,-0.25 0.13,-0.4l1.34 0.35 -0.35 0.23c-0.01,0 -0.01,0.01 -0.01,0.01 0.25,0.21 0.5,0.4 0.75,0.56 0.24,0.16 0.49,0.31 0.75,0.43 0.26,0.13 0.54,0.23 0.82,0.32 0.29,0.09 0.6,0.17 0.94,0.22l-0.01 0.05c-0.08,0.05 -0.15,0.1 -0.22,0.15 -0.07,0.06 -0.13,0.13 -0.19,0.21 -0.06,0.08 -0.11,0.17 -0.17,0.27 -0.05,0.11 -0.1,0.23 -0.15,0.38 -0.34,-0.16 -0.63,-0.32 -0.88,-0.49 -0.25,-0.16 -0.47,-0.34 -0.67,-0.54 -0.2,-0.19 -0.38,-0.41 -0.54,-0.65 -0.17,-0.23 -0.33,-0.5 -0.49,-0.81 -0.19,0.31 -0.41,0.6 -0.64,0.86 -0.23,0.26 -0.49,0.51 -0.78,0.74 -0.29,0.23 -0.61,0.44 -0.97,0.64 -0.35,0.2 -0.75,0.39 -1.18,0.57l-0.03 -0.04z"/>
   <path id="1" class="fil3" d="M9.47 15.42l2.14 0 0 -4.98c0,-0.06 0,-0.13 -0.01,-0.22 0,-0.08 0,-0.17 0,-0.27 -0.01,-0.1 -0.01,-0.2 -0.01,-0.29 0,-0.1 -0.01,-0.19 -0.01,-0.27l1.18 0.19 -0.31 0.27 0 5.57 0.77 0 0 -4.98c0,-0.06 0,-0.13 -0.01,-0.22 0,-0.08 0,-0.17 0,-0.27 -0.01,-0.1 -0.01,-0.2 -0.01,-0.29 0,-0.1 -0.01,-0.19 -0.01,-0.27l1.18 0.19 -0.31 0.27 0 5.57 0.8 0 0.55 -0.78 0.93 0.75c0,0 0,0 0,0 0,0 0,0 0,0 0,0 -0.06,0.02 -0.18,0.06l-6.69 0 0 -0.03zm4.8 -0.87c0.18,-0.88 0.33,-1.66 0.44,-2.32 0.1,-0.67 0.16,-1.23 0.17,-1.68l1.35 0.44 -0.36 0.25c-0.13,0.52 -0.33,1.06 -0.59,1.62 -0.27,0.56 -0.59,1.13 -0.97,1.71l-0.04 -0.02zm-4.35 -3.86c0.5,0.51 0.86,0.99 1.1,1.45 0.23,0.46 0.35,0.87 0.35,1.22 0,0.11 -0.02,0.22 -0.06,0.33 -0.03,0.1 -0.08,0.19 -0.14,0.27 -0.06,0.08 -0.14,0.15 -0.22,0.2 -0.09,0.05 -0.18,0.07 -0.27,0.07 -0.09,0 -0.17,-0.04 -0.24,-0.13 -0.07,-0.09 -0.1,-0.2 -0.11,-0.32 0,-0.31 -0.01,-0.59 -0.03,-0.85 -0.02,-0.27 -0.04,-0.52 -0.08,-0.76 -0.04,-0.24 -0.08,-0.48 -0.13,-0.72 -0.06,-0.24 -0.12,-0.49 -0.2,-0.74l0.03 -0.02z"/>
   <path id="2" class="fil3" d="M31.58 10.79l-0.3 0.24 0 0.62c0,0.45 -0.04,0.86 -0.11,1.24l0.59 0.11 -0.18 0.23 0 1.48c0,0.1 0.02,0.17 0.05,0.2 0.03,0.03 0.09,0.05 0.18,0.05l0.17 0c0.09,0 0.17,-0.02 0.22,-0.07 0.05,-0.05 0.1,-0.13 0.15,-0.26l0.39 -1.02 0.04 0.02 0.03 0.83c0.01,0.1 0.02,0.18 0.05,0.25 0.03,0.07 0.07,0.13 0.14,0.2 0.1,0.09 0.15,0.19 0.15,0.32 0,0.14 -0.08,0.26 -0.22,0.35 -0.15,0.09 -0.37,0.14 -0.64,0.14l-0.76 0c-0.27,0 -0.46,-0.06 -0.57,-0.17 -0.12,-0.11 -0.17,-0.29 -0.17,-0.54l0 -0.98c-0.24,0.46 -0.57,0.84 -0.98,1.15 -0.42,0.32 -0.93,0.58 -1.56,0.79l-0.03 -0.04c0.4,-0.33 0.74,-0.65 1.02,-0.96 0.28,-0.31 0.52,-0.63 0.7,-0.95 0.18,-0.33 0.32,-0.68 0.4,-1.04 0.08,-0.37 0.13,-0.77 0.13,-1.23l0 -0.24c0,-0.15 -0.01,-0.31 -0.01,-0.47 -0.01,-0.16 -0.02,-0.31 -0.03,-0.44l1.15 0.19zm1.05 0.29c0,0.1 0,0.22 0,0.37 0.01,0.15 0.01,0.32 0.01,0.5 0.01,0.19 0.01,0.38 0.02,0.58 0,0.21 0.01,0.41 0.01,0.61 0,0.1 -0.04,0.15 -0.13,0.18 -0.09,0.02 -0.21,0.04 -0.35,0.05 -0.14,0.01 -0.27,0.02 -0.39,0.02l0 -3.46 -1.79 0 0 3.36c0,0.09 -0.04,0.14 -0.13,0.16 -0.04,0.01 -0.09,0.02 -0.16,0.03 -0.06,0.01 -0.13,0.02 -0.2,0.03 -0.07,0.01 -0.14,0.02 -0.21,0.02 -0.06,0.01 -0.11,0.01 -0.15,0.01 0.01,-0.2 0.01,-0.4 0.02,-0.63 0.01,-0.22 0.01,-0.43 0.02,-0.64 0,-0.2 0,-0.39 0,-0.55 0.01,-0.16 0.01,-0.28 0.01,-0.34l0 -0.49c0,-0.08 0,-0.17 -0.01,-0.28 0,-0.11 0,-0.23 0,-0.35 -0.01,-0.12 -0.01,-0.24 -0.01,-0.36 0,-0.12 -0.01,-0.23 -0.01,-0.33l0.99 0.33 1.51 0 0.29 -0.53 0.89 0.46 -0.23 0.32 0 0.93zm-6.3 -0.24l0 -0.03 1.49 0 0.37 -0.56 0.89 0.64 -0.32 0.23c-0.12,0.22 -0.23,0.43 -0.35,0.63 -0.12,0.2 -0.26,0.39 -0.41,0.57l0 0.19c0.36,0.13 0.62,0.25 0.77,0.38 0.15,0.13 0.22,0.27 0.22,0.42 0,0.15 -0.04,0.27 -0.13,0.37 -0.09,0.09 -0.19,0.14 -0.3,0.14 -0.08,0 -0.14,-0.03 -0.2,-0.07 -0.05,-0.04 -0.08,-0.11 -0.09,-0.2 -0.03,-0.19 -0.06,-0.35 -0.09,-0.49 -0.04,-0.14 -0.1,-0.3 -0.18,-0.47l0 3c0,0.08 -0.02,0.15 -0.05,0.19 -0.02,0.04 -0.08,0.07 -0.16,0.08 -0.11,0.03 -0.22,0.04 -0.33,0.05 -0.12,0.01 -0.22,0.01 -0.31,0 0.02,-0.53 0.03,-0.99 0.04,-1.38 0,-0.4 0.01,-0.71 0.01,-0.94l0 -0.46c-0.14,0.12 -0.29,0.24 -0.45,0.35 -0.16,0.11 -0.34,0.22 -0.52,0.33l-0.03 -0.03c0.19,-0.25 0.37,-0.5 0.54,-0.75 0.17,-0.25 0.33,-0.49 0.48,-0.74 0.15,-0.24 0.28,-0.48 0.4,-0.71 0.11,-0.23 0.2,-0.48 0.27,-0.74l-1.56 0zm0.56 -1.52c0.39,0.07 0.68,0.18 0.84,0.3 0.17,0.13 0.25,0.27 0.25,0.41 0,0.16 -0.05,0.29 -0.16,0.4 -0.1,0.11 -0.24,0.16 -0.4,0.16 -0.08,0 -0.15,-0.03 -0.21,-0.08 -0.06,-0.05 -0.1,-0.13 -0.11,-0.23 -0.03,-0.35 -0.1,-0.66 -0.23,-0.94l0.02 -0.02z"/>
   <path id="3" class="fil3" d="M35.93 11.83l2.03 0 0.26 -0.52 0.69 0.34 0.16 -0.71 -4.43 0c0,0.09 0,0.15 0,0.18 0,0.03 0,0.06 0,0.1 0,0.31 -0.06,0.53 -0.2,0.66 -0.13,0.14 -0.29,0.2 -0.46,0.2 -0.15,0 -0.27,-0.04 -0.35,-0.13 -0.08,-0.09 -0.12,-0.21 -0.12,-0.34 0,-0.1 0.02,-0.19 0.06,-0.26 0.03,-0.08 0.09,-0.14 0.18,-0.19 0.18,-0.11 0.32,-0.24 0.42,-0.37 0.09,-0.13 0.17,-0.29 0.23,-0.48l0.03 0c0.04,0.1 0.07,0.19 0.1,0.28 0.03,0.08 0.06,0.19 0.1,0.32l3.14 0c0.12,-0.37 0.21,-0.68 0.28,-0.93 0.07,-0.24 0.12,-0.47 0.15,-0.67l1.18 0.51 -0.35 0.18c-0.18,0.17 -0.36,0.32 -0.54,0.45 -0.17,0.14 -0.35,0.29 -0.53,0.46l1.01 0 0.38 -0.56 1.04 0.74 -0.41 0.13c-0.34,0.19 -0.66,0.35 -0.98,0.47l0.24 0.11 -0.28 0.3 0 0.8c0,0.07 0,0.19 0.01,0.35 0,0.17 0.01,0.38 0.02,0.63 0,0.13 -0.05,0.2 -0.17,0.23 -0.09,0.03 -0.21,0.05 -0.35,0.06 -0.14,0.02 -0.27,0.02 -0.4,0.02l0 -2.33 -2.36 0 0 2.15c0,0.08 -0.02,0.15 -0.05,0.18 -0.03,0.04 -0.09,0.07 -0.16,0.08 -0.11,0.03 -0.23,0.05 -0.36,0.06 -0.12,0 -0.24,0.01 -0.34,0.01 0.01,-0.16 0.01,-0.3 0.02,-0.4 0,-0.11 0.01,-0.21 0.01,-0.28 0,-0.08 0,-0.14 0,-0.2 0,-0.05 0,-0.11 0,-0.17l0 -0.71c0,-0.07 0,-0.19 0,-0.37 0,-0.17 -0.01,-0.41 -0.02,-0.72l1.12 0.34zm-2.36 4.04c0.79,-0.29 1.42,-0.64 1.89,-1.04 0.46,-0.41 0.75,-0.9 0.86,-1.48 0.03,-0.14 0.05,-0.3 0.06,-0.48 0.01,-0.19 0.01,-0.36 0,-0.53l1.19 0.26 -0.31 0.25c-0.01,0.14 -0.03,0.27 -0.05,0.4 -0.02,0.12 -0.04,0.24 -0.07,0.36l0.82 0.13 -0.22 0.24 0 0.67c0,0.11 0.03,0.18 0.07,0.23 0.04,0.04 0.1,0.06 0.2,0.06l0.85 0c0.12,0 0.22,-0.03 0.31,-0.09 0.09,-0.06 0.16,-0.16 0.21,-0.3l0.39 -0.95 0.04 0.01 0.08 0.87c0.01,0.08 0.03,0.15 0.07,0.21 0.03,0.07 0.07,0.12 0.13,0.16 0.13,0.09 0.2,0.19 0.2,0.32 0,0.09 -0.03,0.16 -0.09,0.23 -0.05,0.07 -0.13,0.13 -0.23,0.18 -0.1,0.05 -0.22,0.08 -0.35,0.11 -0.14,0.03 -0.29,0.04 -0.45,0.04l-1.53 0c-0.27,0 -0.46,-0.05 -0.57,-0.16 -0.11,-0.11 -0.16,-0.29 -0.16,-0.54l0 -0.44c0,-0.08 0,-0.14 0,-0.18 0,-0.04 -0.01,-0.09 -0.01,-0.14 -0.13,0.25 -0.29,0.47 -0.48,0.65 -0.19,0.19 -0.43,0.34 -0.7,0.48 -0.27,0.13 -0.58,0.23 -0.94,0.32 -0.35,0.08 -0.75,0.14 -1.19,0.19l-0.02 -0.04zm2.52 -6.56c0.24,0.04 0.45,0.08 0.61,0.14 0.16,0.05 0.29,0.11 0.39,0.18 0.1,0.07 0.17,0.14 0.22,0.22 0.04,0.08 0.06,0.16 0.06,0.25 0,0.07 -0.01,0.14 -0.04,0.21 -0.04,0.06 -0.08,0.12 -0.13,0.17 -0.05,0.05 -0.12,0.09 -0.18,0.12 -0.07,0.03 -0.14,0.05 -0.22,0.05 -0.22,0 -0.34,-0.11 -0.36,-0.32 -0.03,-0.2 -0.07,-0.38 -0.13,-0.53 -0.06,-0.15 -0.14,-0.3 -0.24,-0.46l0.02 -0.03zm-1.49 0.16c0.24,0.04 0.43,0.08 0.59,0.13 0.15,0.05 0.28,0.11 0.37,0.17 0.1,0.06 0.17,0.13 0.2,0.2 0.04,0.08 0.06,0.16 0.06,0.24 0,0.15 -0.05,0.28 -0.15,0.39 -0.11,0.1 -0.24,0.16 -0.39,0.16 -0.12,0 -0.2,-0.03 -0.25,-0.07 -0.06,-0.05 -0.09,-0.13 -0.1,-0.24 -0.03,-0.2 -0.07,-0.38 -0.13,-0.52 -0.05,-0.14 -0.13,-0.28 -0.22,-0.43l0.02 -0.03z"/>
   <path id="4" class="fil3" d="M42.25 15.91c0.43,-0.24 0.82,-0.47 1.16,-0.71 0.34,-0.24 0.65,-0.5 0.93,-0.78 -0.18,-0.23 -0.32,-0.49 -0.44,-0.78 -0.12,-0.29 -0.22,-0.65 -0.3,-1.06l-0.62 0 0 -0.03 2.5 0 0.33 -0.53 1.08 0.65 -0.37 0.28c-0.13,0.26 -0.28,0.5 -0.42,0.72 -0.15,0.22 -0.31,0.43 -0.49,0.62 0.27,0.11 0.56,0.21 0.88,0.28 0.32,0.08 0.68,0.14 1.07,0.18l0 0.05c-0.14,0.11 -0.27,0.25 -0.39,0.4 -0.12,0.15 -0.24,0.37 -0.36,0.66 -0.42,-0.12 -0.8,-0.26 -1.11,-0.41 -0.32,-0.14 -0.6,-0.31 -0.84,-0.5 -0.66,0.48 -1.52,0.81 -2.58,0.99l-0.03 -0.03zm2.37 -6.15l0.64 0 0.26 -0.51 0.96 0.46 -0.24 0.29 0 0.98c0,0.09 0.01,0.15 0.05,0.18 0.03,0.03 0.08,0.05 0.17,0.05l0.1 0c0.07,0 0.13,-0.01 0.19,-0.03 0.05,-0.03 0.1,-0.07 0.16,-0.14l0.03 0c0.21,0.16 0.36,0.28 0.44,0.37 0.08,0.09 0.12,0.18 0.12,0.25 0,0.06 -0.07,0.13 -0.22,0.2 -0.15,0.06 -0.36,0.1 -0.63,0.1l-0.53 0c-0.27,0 -0.47,-0.06 -0.58,-0.19 -0.11,-0.12 -0.16,-0.33 -0.16,-0.63l0 -1.35 -0.97 0 0 0.33c0,0.31 -0.03,0.58 -0.09,0.82 -0.06,0.23 -0.16,0.44 -0.3,0.63 -0.13,0.19 -0.31,0.36 -0.53,0.51 -0.22,0.16 -0.48,0.31 -0.8,0.46l-0.03 -0.04c0.17,-0.18 0.3,-0.36 0.41,-0.52 0.11,-0.17 0.2,-0.33 0.27,-0.51 0.06,-0.17 0.11,-0.35 0.13,-0.55 0.03,-0.2 0.04,-0.43 0.04,-0.69 0,-0.14 -0.01,-0.28 -0.01,-0.42 0,-0.14 -0.01,-0.27 -0.02,-0.39l1.14 0.34zm-3.93 2.05l0 -0.04 0.65 0 0.27 -0.54 0.98 0.5 -0.28 0.31 0 1.99 1.02 -0.46 0.02 0.03c-0.13,0.16 -0.25,0.3 -0.36,0.43 -0.12,0.12 -0.23,0.24 -0.34,0.36 -0.11,0.11 -0.22,0.23 -0.33,0.34 -0.12,0.11 -0.24,0.23 -0.38,0.36l-0.16 0.36 -0.65 -0.9c0.12,-0.08 0.21,-0.16 0.26,-0.24 0.05,-0.08 0.07,-0.18 0.07,-0.3l0 -2.2 -0.77 0zm2.98 0.77c0.19,0.3 0.38,0.55 0.56,0.74 0.19,0.2 0.39,0.38 0.61,0.53 0.14,-0.18 0.27,-0.37 0.39,-0.57 0.12,-0.2 0.23,-0.43 0.33,-0.7l-1.89 0zm-2.43 -3.19c0.26,0.05 0.48,0.11 0.65,0.17 0.18,0.07 0.32,0.13 0.43,0.21 0.1,0.07 0.18,0.15 0.22,0.23 0.05,0.09 0.07,0.18 0.07,0.28 0,0.07 -0.02,0.14 -0.05,0.21 -0.03,0.08 -0.08,0.14 -0.13,0.19 -0.05,0.06 -0.12,0.1 -0.19,0.13 -0.07,0.04 -0.14,0.06 -0.21,0.06 -0.08,0 -0.15,-0.03 -0.21,-0.08 -0.05,-0.06 -0.1,-0.15 -0.13,-0.28 -0.05,-0.19 -0.12,-0.38 -0.2,-0.58 -0.08,-0.2 -0.17,-0.37 -0.28,-0.52l0.03 -0.02z"/>
   <path id="5" class="fil3" d="M53.13 9.6l-0.32 0.3 0 2.15 0.53 0 0.54 -0.79 0.92 0.76c0,0 0,0 0,0 0,0 0,0 0,0 0,0 -0.06,0.02 -0.18,0.06l-1.81 0 0 1.11c0,0.05 0,0.13 0,0.25 0,0.11 0,0.25 0,0.4 0.01,0.15 0.01,0.32 0.01,0.5 0,0.17 0.01,0.35 0.01,0.52 0,0.17 0,0.32 0,0.47 0.01,0.15 0.01,0.26 0.01,0.36 0,0.06 -0.01,0.11 -0.03,0.14 -0.03,0.02 -0.06,0.04 -0.12,0.05 -0.07,0.01 -0.14,0.02 -0.22,0.03 -0.08,0.01 -0.16,0.02 -0.24,0.02 -0.08,0.01 -0.16,0.01 -0.23,0.02 -0.08,0 -0.14,0 -0.2,0 0.01,-0.16 0.01,-0.36 0.02,-0.59 0,-0.24 0.01,-0.48 0.01,-0.72 0.01,-0.24 0.01,-0.46 0.01,-0.68 0.01,-0.21 0.01,-0.37 0.01,-0.48l0 -1.4 -1.63 0 0 -0.03 1.63 0 0 -1.12c0,-0.06 0,-0.15 -0.01,-0.26 0,-0.12 0,-0.25 0,-0.39 -0.01,-0.14 -0.01,-0.28 -0.02,-0.44 0,-0.15 -0.01,-0.29 -0.02,-0.42l1.33 0.18zm-2.32 3.92l0.03 0.03c-0.22,0.27 -0.47,0.56 -0.74,0.86 -0.28,0.31 -0.56,0.59 -0.85,0.86l-0.17 0.35 -0.7 -0.97c0.13,-0.08 0.22,-0.16 0.26,-0.24 0.05,-0.08 0.08,-0.18 0.08,-0.3l0 -2.22 -0.91 0 0 -0.03 0.75 0 0.29 -0.56 1.09 0.53 -0.32 0.32 0 1.97 1.19 -0.6zm-2.32 -4.12c0.26,0.05 0.48,0.11 0.66,0.17 0.17,0.06 0.31,0.12 0.42,0.2 0.11,0.08 0.19,0.16 0.24,0.25 0.04,0.09 0.06,0.18 0.06,0.29 0,0.08 -0.01,0.15 -0.04,0.22 -0.03,0.07 -0.08,0.14 -0.13,0.19 -0.05,0.05 -0.12,0.1 -0.19,0.13 -0.07,0.03 -0.14,0.05 -0.22,0.05 -0.22,0 -0.36,-0.12 -0.41,-0.35 -0.04,-0.22 -0.1,-0.42 -0.16,-0.61 -0.07,-0.18 -0.15,-0.35 -0.24,-0.51l0.01 -0.03z"/>
   <polygon class="fil3" points="19.02,15.65 17.48,9.53 18.92,9.53 19.84,13.44 20.76,9.53 22.19,9.53 20.67,15.65 "/>
   <polygon id="1" class="fil3" points="23.98,15.65 22.55,15.65 22.55,9.53 23.98,9.53 "/>
  </g>
 </g>
</svg>
