<?xml version="1.0" encoding="UTF-8"?>
<!DOCTYPE svg PUBLIC "-//W3C//DTD SVG 1.1//EN" "http://www.w3.org/Graphics/SVG/1.1/DTD/svg11.dtd">
<!-- Creator: CorelDRAW 2017 -->
<svg xmlns="http://www.w3.org/2000/svg" xml:space="preserve" width="339px" height="90px" version="1.1" style="shape-rendering:geometricPrecision; text-rendering:geometricPrecision; image-rendering:optimizeQuality; fill-rule:evenodd; clip-rule:evenodd"
viewBox="0 0 12.47 3.29"
 xmlns:xlink="http://www.w3.org/1999/xlink">
 <defs>
  <style type="text/css">
   <![CDATA[
    .fil1 {fill:white}
    .fil0 {fill:white;fill-rule:nonzero}
   ]]>
  </style>
 </defs>
 <g id="图层_x0020_1">
  <metadata id="CorelCorpID_0Corel-Layer"/>
  <g id="_3110534574160">
   <path class="fil0" d="M0.15 0l3.14 0 0 0.99 0.79 0.65 -0.79 0.66 0 0.99 -3.29 0 0 -3.29 0.15 0zm2.84 0.3l-2.69 0 0 2.69 2.69 0 0 -0.83 0.62 -0.52 -0.62 -0.51 0 -0.83z"/>
   <polygon class="fil1" points="3.32,1.64 3.15,1.52 2.99,1.39 2.99,1.64 2.99,1.89 3.15,1.77 "/>
   <path class="fil0" d="M3.85 0c0.02,0 0.04,0.01 0.05,0.02 0.02,0.01 0.02,0.03 0.02,0.06l0 0.4c0,0.02 0,0.04 -0.02,0.06 -0.01,0.01 -0.03,0.02 -0.05,0.02l-0.18 0 0 -0.56 0.18 0zm-0.02 0.09l-0.06 0 0 0.38 0.06 0 0 -0.38z"/>
   <polygon id="1" class="fil0" points="4.23,0.56 4.01,0.56 4.01,0 4.23,0 4.23,0.09 4.1,0.09 4.1,0.23 4.23,0.17 4.23,0.27 4.1,0.33 4.1,0.47 4.23,0.47 "/>
   <path id="2" class="fil0" d="M4.31 0.08c0,-0.03 0,-0.05 0.02,-0.06 0.01,-0.01 0.03,-0.02 0.05,-0.02l0.1 0c0.03,0 0.04,0.01 0.06,0.02 0.01,0.01 0.02,0.03 0.02,0.06l0 0.01 -0.09 0.05 0 -0.05 -0.07 0 0 0.14 0.16 -0.08 0 0.33c0,0.02 -0.01,0.04 -0.02,0.06 -0.02,0.01 -0.03,0.02 -0.06,0.02l-0.1 0c-0.02,0 -0.04,-0.01 -0.05,-0.02 -0.02,-0.02 -0.02,-0.04 -0.02,-0.06l0 -0.05 0.09 -0.05 0 0.09 0.07 0 0 -0.18 -0.16 0.08 0 -0.29z"/>
   <polygon id="3" class="fil0" points="4.74,0.56 4.64,0.56 4.64,0 4.74,0 "/>
   <path id="4" class="fil0" d="M4.82 0.08c0,-0.03 0.01,-0.05 0.02,-0.06 0.02,-0.01 0.03,-0.02 0.06,-0.02l0.1 0c0.02,0 0.04,0.01 0.05,0.02 0.02,0.01 0.02,0.03 0.02,0.06l0 0.08 -0.09 0.04 0 -0.11 -0.07 0 0 0.38 0.07 0 0 -0.13 -0.04 0.02 0 -0.1 0.13 -0.06 0 0.36 -0.17 0c-0.03,0 -0.04,-0.01 -0.06,-0.02 -0.01,-0.02 -0.02,-0.04 -0.02,-0.06l0 -0.4z"/>
   <path id="5" class="fil0" d="M5.25 0.56l-0.09 0 0 -0.56 0.09 0 0 0.04c0.01,-0.01 0.01,-0.02 0.02,-0.03 0.01,-0.01 0.02,-0.01 0.04,-0.01l0.03 0c0.02,0 0.04,0.01 0.05,0.02 0.01,0.01 0.02,0.03 0.02,0.06l0 0.48 -0.09 0 0 -0.47 -0.07 0 0 0.47z"/>
   <path id="6" class="fil0" d="M5.66 0.08c0,-0.03 0,-0.05 0.02,-0.06 0.01,-0.01 0.03,-0.02 0.05,-0.02l0.1 0c0.03,0 0.04,0.01 0.06,0.02 0.01,0.01 0.02,0.03 0.02,0.06l0 0.01 -0.09 0.05 0 -0.05 -0.07 0 0 0.14 0.16 -0.08 0 0.33c0,0.02 -0.01,0.04 -0.02,0.06 -0.01,0.01 -0.03,0.02 -0.06,0.02l-0.1 0c-0.02,0 -0.04,-0.01 -0.05,-0.02 -0.02,-0.02 -0.02,-0.04 -0.02,-0.06l0 -0.05 0.09 -0.05 0 0.09 0.07 0 0 -0.18 -0.16 0.08 0 -0.29z"/>
   <polygon id="7" class="fil0" points="6.21,0.56 6,0.56 6,0 6.21,0 6.21,0.09 6.09,0.09 6.09,0.23 6.21,0.17 6.21,0.27 6.09,0.33 6.09,0.47 6.21,0.47 "/>
   <path id="8" class="fil0" d="M6.54 0.27l-0.07 0.04 0.11 0.25 -0.1 0 -0.08 -0.21 -0.02 0.01 0 0.2 -0.09 0 0 -0.56 0.18 0c0.02,0 0.04,0.01 0.05,0.02 0.02,0.01 0.02,0.03 0.02,0.06l0 0.19zm-0.09 -0.05l0 -0.13 -0.07 0 0 0.17 0.07 -0.04z"/>
   <polygon id="9" class="fil0" points="6.69,0.56 6.59,0 6.68,0 6.74,0.35 6.8,0 6.89,0 6.79,0.56 "/>
   <polygon id="10" class="fil0" points="7.03,0.56 6.94,0.56 6.94,0 7.03,0 "/>
   <path id="11" class="fil0" d="M7.12 0.08c0,-0.03 0.01,-0.05 0.02,-0.06 0.01,-0.01 0.03,-0.02 0.05,-0.02l0.1 0c0.03,0 0.05,0.01 0.06,0.02 0.01,0.01 0.02,0.03 0.02,0.06l0 0.07 -0.09 0.04 0 -0.1 -0.07 0 0 0.38 0.07 0 0 -0.08 0.09 -0.05 0 0.14c0,0.02 -0.01,0.04 -0.02,0.06 -0.01,0.01 -0.03,0.02 -0.06,0.02l-0.1 0c-0.02,0 -0.04,-0.01 -0.05,-0.02 -0.01,-0.02 -0.02,-0.04 -0.02,-0.06l0 -0.4z"/>
   <polygon id="12" class="fil0" points="7.68,0.56 7.46,0.56 7.46,0 7.68,0 7.68,0.09 7.55,0.09 7.55,0.23 7.68,0.17 7.68,0.27 7.55,0.33 7.55,0.47 7.68,0.47 "/>
   <path id="13" class="fil0" d="M7.75 0.08c0,-0.03 0.01,-0.05 0.02,-0.06 0.01,-0.01 0.03,-0.02 0.06,-0.02l0.1 0c0.02,0 0.04,0.01 0.05,0.02 0.02,0.01 0.02,0.03 0.02,0.06l0 0.01 -0.09 0.05 0 -0.05 -0.07 0 0 0.14 0.16 -0.08 0 0.33c0,0.02 0,0.04 -0.02,0.06 -0.01,0.01 -0.03,0.02 -0.05,0.02l-0.1 0c-0.03,0 -0.05,-0.01 -0.06,-0.02 -0.01,-0.02 -0.02,-0.04 -0.02,-0.06l0 -0.05 0.09 -0.05 0 0.09 0.07 0 0 -0.18 -0.16 0.08 0 -0.29z"/>
   <rect class="fil1" x="8.43" width="4.03" height="0.3"/>
   <rect class="fil1" x="10.9" y="2.99" width="1.57" height="0.3"/>
   <rect class="fil1" transform="matrix(1.10479E-14 0.757741 -0.342787 1.64911E-14 12.4672 -1.6437E-05)" width="4.34" height="0.87"/>
   <path class="fil0" d="M4.55 1.52l0.16 0 0 0.03 0.1 0c0,0 0,0 0,0 -0.02,-0.05 -0.04,-0.11 -0.07,-0.17l0.04 -0.03 -0.29 0 -0.02 -0.1 0.47 0c-0.04,-0.05 -0.07,-0.09 -0.09,-0.11l0.04 -0.04c0.06,0.02 0.11,0.04 0.16,0.07 0.01,0.01 0.02,0.02 0,0.04 0,0.01 -0.01,0.02 -0.02,0.04l0.28 0 0.04 -0.06 0.13 0.09 -0.04 0.07 -0.65 0c0.05,0.04 0.1,0.08 0.13,0.12 0.02,0 0.02,0.02 0,0.03 -0.01,0.02 -0.02,0.04 -0.05,0.05l0.16 0c0.02,-0.06 0.05,-0.12 0.07,-0.2l0.15 0.05c-0.03,0.05 -0.08,0.1 -0.12,0.15l0.19 0 0.05 -0.05 0.12 0.09 -0.03 0.06 -0.75 0 0 0.05c0,0.19 -0.07,0.35 -0.23,0.47l-0.06 -0.05c0.09,-0.09 0.13,-0.23 0.13,-0.4l0 -0.2z"/>
   <path id="1" class="fil0" d="M5.85 1.14l0.16 0 0 0.03 0.33 0 0.05 -0.08 0.17 0.11 -0.05 0.06 0 0.31 -0.16 0 0 -0.03 -0.34 0 0 0.03 -0.16 0 0 -0.43zm0.35 0.48l0.15 0 0 0.03 0.13 0 0.05 -0.07 0.16 0.1 -0.04 0.06 0 0.4 -0.15 0 0 -0.08 -0.15 0 0 0.08 -0.15 0 0 -0.52zm-0.5 0l0.15 0 0 0.03 0.13 0 0.05 -0.06 0.15 0.09 -0.04 0.06 0 0.4 -0.14 0 0 -0.08 -0.15 0 0 0.08 -0.15 0 0 -0.52zm0.31 -0.35l0 0.16 0.34 0 0 -0.16 -0.34 0zm0.34 0.48l0 0.22 0.15 0 0 -0.22 -0.15 0zm-0.5 0l0 0.21 0.15 0 0 -0.21 -0.15 0z"/>
   <path id="2" class="fil0" d="M7.25 2.03l0.44 0c0.05,0 0.08,-0.02 0.09,-0.06 0.01,-0.04 0.02,-0.08 0.03,-0.11l0.06 0.01c-0.02,0.08 0,0.12 0.05,0.13 -0.01,0.11 -0.06,0.15 -0.17,0.14l-0.56 0c-0.11,0 -0.17,-0.05 -0.17,-0.16l0 -0.43c-0.03,0.05 -0.07,0.09 -0.11,0.12l-0.07 -0.04c0.13,-0.17 0.21,-0.35 0.26,-0.55l0.18 0.06c-0.01,0.01 -0.02,0.02 -0.03,0.04 -0.01,0.03 -0.02,0.05 -0.02,0.06l0.39 0 0.05 -0.06 0.14 0.1c0.01,0 0.02,0.01 0.01,0.03l-0.05 0.05 0 0.44c0.01,0.09 -0.05,0.14 -0.17,0.15 0,-0.05 -0.03,-0.08 -0.09,-0.09l0 -0.06c0.02,0.01 0.05,0.01 0.07,0.01 0.03,0 0.04,-0.02 0.04,-0.05l0 -0.42 -0.45 0c-0.02,0.03 -0.04,0.06 -0.06,0.1l0.07 0 0 0.02 0.19 0 0.04 -0.05 0.14 0.09 -0.05 0.07 0 0.24 -0.14 0 0 -0.02 -0.18 0 0 0.16c0,0.05 0.02,0.08 0.07,0.08zm-0.07 -0.47l0 0.13 0.18 0 0 -0.13 -0.18 0z"/>
   <path id="3" class="fil0" d="M8.57 1.49l0.15 0 0 -0.12 -0.17 0 -0.02 -0.1 0.19 0 0 -0.15 0.15 0 0 0.15 0.09 0 0.03 -0.05 0.11 0.08 -0.04 0.07 -0.19 0 0 0.12 0.06 0 0.03 -0.04 0.11 0.07 -0.04 0.07 -0.41 0c0,0 0,0 0,0 0.01,0.01 0.01,0.01 0.01,0.01 0.02,0.01 0.03,0.02 0.02,0.04 0,0 0,0.01 -0.01,0.02 0,0.01 0,0.01 0,0.02l0.31 0 0.03 -0.06 0.13 0.08 -0.04 0.07 -0.18 0 0.13 0.09c-0.03,0.02 -0.08,0.05 -0.14,0.08 0.07,0.02 0.15,0.04 0.25,0.05 -0.05,0.04 -0.09,0.1 -0.12,0.17 -0.22,-0.07 -0.36,-0.19 -0.43,-0.36 -0.02,0.03 -0.06,0.06 -0.1,0.09l0 0.11c0.01,-0.01 0.02,-0.01 0.05,-0.02 0.04,-0.01 0.07,-0.02 0.09,-0.03l0.03 0.07c-0.09,0.05 -0.19,0.11 -0.3,0.17l-0.06 -0.13c0.03,-0.01 0.04,-0.03 0.04,-0.06l0 -0.02c-0.06,0.04 -0.14,0.07 -0.21,0.09l-0.05 -0.06c0.14,-0.07 0.26,-0.15 0.35,-0.24l-0.31 0 -0.02 -0.09 0.45 0c-0.01,-0.02 -0.02,-0.03 -0.03,-0.05l-0.15 0 0 -0.13c-0.05,0.04 -0.12,0.09 -0.2,0.14l-0.07 -0.14c0.03,-0.02 0.08,-0.03 0.14,-0.05 0.06,-0.03 0.11,-0.04 0.13,-0.05l0 -0.28 0.15 0 0 0.43 0 0c0.01,0 0.02,0.01 0.04,0.01 0.02,0.01 0.03,0.01 0.03,0.02l-0.01 -0.09zm-0.39 -0.31c0.04,0.01 0.08,0.04 0.12,0.08 0.02,0.02 0.03,0.03 0.02,0.04 -0.01,0.03 -0.03,0.05 -0.06,0.08 -0.01,0.01 -0.02,0.02 -0.03,0.02 0,0 -0.01,-0.01 -0.02,-0.02 -0.02,-0.06 -0.05,-0.11 -0.09,-0.16l0.06 -0.04zm0.61 0.71c0.04,-0.04 0.07,-0.08 0.1,-0.12l-0.22 0c0.04,0.05 0.08,0.09 0.12,0.12z"/>
   <path id="4" class="fil0" d="M10.28 1.53l-0.17 0 0.13 0.09 -0.06 0.06c-0.04,0.11 -0.08,0.18 -0.12,0.23 0.07,0.04 0.16,0.07 0.28,0.09 -0.04,0.05 -0.08,0.1 -0.11,0.16 -0.11,-0.03 -0.2,-0.08 -0.29,-0.13 -0.08,0.05 -0.19,0.1 -0.32,0.13l-0.06 -0.07c0.12,-0.05 0.21,-0.1 0.28,-0.16 -0.05,-0.06 -0.09,-0.15 -0.12,-0.25l-0.04 0 -0.01 -0.1c-0.01,0 -0.01,0 -0.01,0.01 0,0 -0.01,0 -0.01,0l-0.06 -0.05c0.09,-0.07 0.13,-0.16 0.13,-0.25l0 -0.15 0.15 0 0 0.04 0.12 0 0.04 -0.06 0.14 0.08 -0.03 0.04 0 0.12c0,0.03 0.01,0.04 0.03,0.04 0.07,0 0.12,0 0.15,0 -0.01,0.02 -0.03,0.06 -0.04,0.12 0,0 0,0 0,0.01zm-1.01 -0.08l0.13 0 0.05 -0.06 0.14 0.11 -0.04 0.04 0 0.3c0.05,-0.03 0.08,-0.06 0.1,-0.08l0.04 0.09c-0.06,0.1 -0.15,0.2 -0.24,0.29l-0.11 -0.12c0.05,-0.03 0.07,-0.07 0.06,-0.12l0 -0.35 -0.11 0 -0.02 -0.1zm0.42 0.12l0.35 0 0.04 -0.04c-0.06,-0.01 -0.09,-0.05 -0.09,-0.13l0 -0.12 -0.12 0 0 0.02c0,0.11 -0.06,0.2 -0.18,0.27zm-0.29 -0.44c0.04,0.01 0.09,0.03 0.15,0.07 0.01,0 0.02,0 0.02,0.01 0.02,0.01 0.02,0.03 0.01,0.05 0,0 0,0.01 -0.01,0.02 -0.01,0.04 -0.03,0.07 -0.04,0.08 -0.02,0.02 -0.03,0.02 -0.05,-0.01 -0.04,-0.07 -0.08,-0.13 -0.12,-0.17l0.04 -0.05zm0.44 0.55c0.03,0.06 0.06,0.11 0.1,0.15 0.03,-0.05 0.06,-0.1 0.07,-0.15l-0.17 0z"/>
   <path id="5" class="fil0" d="M11.12 1.11l0.17 0 0 0.38 0.11 0 0.03 -0.06 0.12 0.09 -0.04 0.07 -0.22 0 0 0.58 -0.17 0 0 -0.58 -0.22 0 -0.02 -0.1 0.24 0 0 -0.38zm-0.63 0.36l0.17 0 0.04 -0.06 0.16 0.1 -0.04 0.06 0 0.31c0.01,-0.01 0.04,-0.03 0.08,-0.06 0.02,-0.02 0.03,-0.03 0.04,-0.04l0.05 0.08c-0.05,0.06 -0.14,0.16 -0.27,0.29l-0.11 -0.12c0.04,-0.04 0.05,-0.07 0.05,-0.12l0 -0.33 -0.16 0 -0.01 -0.11zm0.2 -0.33c0.06,0.04 0.11,0.07 0.15,0.11 0.02,0.02 0.02,0.04 0.01,0.06 -0.02,0.02 -0.04,0.05 -0.07,0.07 -0.02,0.01 -0.03,0.02 -0.03,0.02 -0.01,0 -0.02,-0.01 -0.02,-0.03 -0.03,-0.06 -0.06,-0.13 -0.1,-0.19l0.06 -0.04z"/>
   <path class="fil1" d="M2.88 0.4l-2.48 0 0 2.49 2.48 0 0 -2.49zm-2.01 0.64l0 -0.22 -0.1 0 0 0.27 0.1 -0.05zm0.14 0.08l-0.24 0.13 0 0.29 -0.13 0 0 -0.85 0.26 0c0.03,0 0.06,0.01 0.08,0.03 0.02,0.02 0.03,0.05 0.03,0.08l0 0.32zm0.29 -0.09l0 -0.21 -0.1 0 0 0.26 0.1 -0.05zm0.14 0.51l-0.14 0 0 -0.36 -0.1 0.05 0 0.31 -0.13 0 0 -0.74c0,-0.03 0.01,-0.06 0.03,-0.08 0.02,-0.02 0.04,-0.03 0.08,-0.03l0.15 0c0.03,0 0.06,0.01 0.08,0.03 0.02,0.02 0.03,0.05 0.03,0.08l0 0.74zm0.07 -0.74c0,-0.03 0.01,-0.06 0.03,-0.08 0.02,-0.02 0.05,-0.03 0.08,-0.03l0.15 0c0.04,0 0.06,0.01 0.08,0.03 0.02,0.02 0.03,0.05 0.03,0.08l0 0.11 -0.13 0.08 0 -0.17 -0.1 0 0 0.59 0.1 0 0 -0.13 0.13 -0.07 0 0.21c0,0.04 -0.01,0.07 -0.03,0.09 -0.02,0.02 -0.04,0.03 -0.08,0.03l-0.15 0c-0.03,0 -0.06,-0.01 -0.08,-0.03 -0.02,-0.02 -0.03,-0.05 -0.03,-0.09l0 -0.62zm0.58 0.74l-0.13 0 0 -0.85 0.13 0 0 0.31 0.14 -0.31 0.14 0 -0.16 0.35 0.2 0.5 -0.14 0 -0.13 -0.36 -0.05 0.12 0 0.24zm0.32 -0.35l0.23 -0.12 0 0.13 -0.23 0.12 0 -0.13zm-1.54 0.91l0 -0.21 -0.1 0 0 0.26 0.1 -0.05zm0.14 0.51l-0.14 0 0 -0.36 -0.1 0.05 0 0.31 -0.13 0 0 -0.74c0,-0.04 0.01,-0.06 0.03,-0.09 0.02,-0.02 0.04,-0.03 0.08,-0.03l0.15 0c0.03,0 0.06,0.01 0.08,0.03 0.02,0.03 0.03,0.05 0.03,0.09l0 0.74zm0.07 -0.74c0,-0.04 0.01,-0.06 0.03,-0.09 0.02,-0.02 0.05,-0.03 0.08,-0.03l0.15 0c0.04,0 0.06,0.01 0.08,0.03 0.02,0.03 0.03,0.05 0.03,0.09l0 0.12 -0.14 0.07 0 -0.17 -0.09 0 0 0.58 0.09 0 0 -0.19 -0.05 0.03 0 -0.15 0.19 -0.1 0 0.55 -0.26 0c-0.03,0 -0.06,-0.01 -0.08,-0.03 -0.02,-0.02 -0.03,-0.05 -0.03,-0.09l0 -0.62zm0.58 0.74l-0.13 0 0 -0.86 0.13 0 0 0.86zm0.21 0l-0.13 0 0 -0.86 0.13 0 0 0.07c0,-0.02 0.01,-0.04 0.03,-0.05 0.01,-0.01 0.03,-0.02 0.05,-0.02l0.05 0c0.03,0 0.06,0.01 0.08,0.03 0.02,0.03 0.03,0.05 0.03,0.09l0 0.74 -0.14 0 0 -0.72 -0.1 0 0 0.72zm0.31 -0.74c0,-0.04 0.01,-0.06 0.03,-0.09 0.02,-0.02 0.04,-0.03 0.08,-0.03l0.15 0c0.03,0 0.06,0.01 0.08,0.03 0.02,0.03 0.03,0.05 0.03,0.09l0 0.12 -0.14 0.07 0 -0.17 -0.1 0 0 0.58 0.1 0 0 -0.19 -0.05 0.03 0 -0.15 0.19 -0.1 0 0.55 -0.26 0c-0.04,0 -0.06,-0.01 -0.08,-0.03 -0.02,-0.02 -0.03,-0.05 -0.03,-0.09l0 -0.62z"/>
   <path class="fil0" d="M3.91 3.12l0 -0.08 -0.06 0 0 0.09 0.06 -0.01zm0.07 0.02l-0.13 0.04 0 0.11 -0.07 0 0 -0.3 0.14 0c0.02,0 0.03,0.01 0.04,0.01 0.01,0.01 0.02,0.02 0.02,0.03l0 0.11z"/>
   <path id="1" class="fil0" d="M4.38 3.11l0 -0.07 -0.05 0 0 0.09 0.05 -0.02zm0.07 0.18l-0.07 0 0 -0.13 -0.05 0.02 0 0.11 -0.07 0 0 -0.26c0,-0.01 0,-0.02 0.01,-0.03 0.01,0 0.03,-0.01 0.05,-0.01l0.08 0c0.01,0 0.03,0.01 0.04,0.01 0.01,0.01 0.01,0.02 0.01,0.03l0 0.26z"/>
   <path id="2" class="fil0" d="M4.74 3.03c0,-0.01 0,-0.02 0.01,-0.03 0.02,0 0.03,-0.01 0.05,-0.01l0.08 0c0.01,0 0.03,0.01 0.04,0.01 0.01,0.01 0.01,0.02 0.01,0.03l0 0.04 -0.07 0.03 0 -0.06 -0.05 0 0 0.2 0.05 0 0 -0.04 0.07 -0.03 0 0.08c0,0.01 0,0.02 -0.01,0.02 -0.01,0.01 -0.03,0.02 -0.04,0.02l-0.08 0c-0.02,0 -0.03,-0.01 -0.05,-0.02 -0.01,0 -0.01,-0.01 -0.01,-0.02l0 -0.22z"/>
   <polygon id="3" class="fil0" points="5.29,3.29 5.22,3.29 5.22,2.99 5.29,2.99 5.29,3.1 5.36,2.99 5.44,2.99 5.36,3.12 5.46,3.29 5.38,3.29 5.32,3.16 5.29,3.2 "/>
   <path id="4" class="fil0" d="M5.83 3.11l0 -0.07 -0.05 0 0 0.09 0.05 -0.02zm0.07 0.18l-0.07 0 0 -0.13 -0.05 0.02 0 0.11 -0.07 0 0 -0.26c0,-0.01 0,-0.02 0.01,-0.03 0.01,0 0.03,-0.01 0.04,-0.01l0.08 0c0.02,0 0.03,0.01 0.05,0.01 0.01,0.01 0.01,0.02 0.01,0.03l0 0.26z"/>
   <path id="5" class="fil0" d="M6.19 3.03c0,-0.01 0,-0.02 0.01,-0.03 0.01,0 0.03,-0.01 0.04,-0.01l0.08 0c0.02,0 0.04,0.01 0.05,0.01 0.01,0.01 0.01,0.02 0.01,0.03l0 0.05 -0.07 0.02 0 -0.06 -0.05 0 0 0.2 0.05 0 0 -0.07 -0.03 0.01 0 -0.05 0.1 -0.03 0 0.19 -0.14 0c-0.01,0 -0.03,-0.01 -0.04,-0.02 -0.01,0 -0.01,-0.01 -0.01,-0.02l0 -0.22z"/>
   <polygon id="6" class="fil0" points="6.74,3.29 6.67,3.29 6.67,2.99 6.74,2.99 "/>
   <path id="7" class="fil0" d="M7.1 3.29l-0.07 0 0 -0.3 0.07 0 0 0.03c0,-0.01 0.01,-0.02 0.01,-0.02 0.01,0 0.02,-0.01 0.03,-0.01l0.03 0c0.01,0 0.03,0.01 0.04,0.01 0.01,0.01 0.01,0.02 0.01,0.03l0 0.26 -0.07 0 0 -0.25 -0.05 0 0 0.25z"/>
   <path id="8" class="fil0" d="M7.51 3.03c0,-0.01 0,-0.02 0.01,-0.03 0.01,0 0.03,-0.01 0.05,-0.01l0.08 0c0.01,0 0.03,0.01 0.04,0.01 0.01,0.01 0.01,0.02 0.01,0.03l0 0.05 -0.07 0.02 0 -0.06 -0.05 0 0 0.2 0.05 0 0 -0.07 -0.03 0.01 0 -0.05 0.1 -0.03 0 0.19 -0.13 0c-0.02,0 -0.04,-0.01 -0.05,-0.02 -0.01,0 -0.01,-0.01 -0.01,-0.02l0 -0.22z"/>
   <path id="9" class="fil0" d="M8.25 2.99c0.02,0 0.04,0.01 0.05,0.01 0.01,0.01 0.01,0.02 0.01,0.03l0 0.22c0,0.01 0,0.02 -0.01,0.02 -0.01,0.01 -0.03,0.02 -0.05,0.02l-0.13 0 0 -0.3 0.13 0zm-0.01 0.05l-0.05 0 0 0.2 0.05 0 0 -0.2z"/>
   <polygon id="10" class="fil0" points="8.77,3.29 8.6,3.29 8.6,2.99 8.77,2.99 8.77,3.04 8.67,3.04 8.67,3.12 8.77,3.08 8.77,3.13 8.67,3.17 8.67,3.24 8.77,3.24 "/>
   <path id="11" class="fil0" d="M9.05 3.03c0,-0.01 0,-0.02 0.01,-0.03 0.01,0 0.03,-0.01 0.05,-0.01l0.07 0c0.02,0 0.04,0.01 0.05,0.01 0.01,0.01 0.01,0.02 0.01,0.03l0 0.01 -0.07 0.03 0 -0.03 -0.05 0 0 0.07 0.12 -0.04 0 0.18c0,0.01 0,0.02 -0.01,0.02 -0.01,0.01 -0.03,0.02 -0.05,0.02l-0.07 0c-0.02,0 -0.04,-0.01 -0.05,-0.02 -0.01,0 -0.01,-0.01 -0.01,-0.02l0 -0.03 0.07 -0.03 0 0.05 0.05 0 0 -0.09 -0.12 0.04 0 -0.16z"/>
   <polygon id="12" class="fil0" points="9.6,3.29 9.53,3.29 9.53,2.99 9.6,2.99 "/>
   <path id="13" class="fil0" d="M9.89 3.03c0,-0.01 0,-0.02 0.01,-0.03 0.01,0 0.03,-0.01 0.04,-0.01l0.08 0c0.02,0 0.04,0.01 0.05,0.01 0.01,0.01 0.01,0.02 0.01,0.03l0 0.05 -0.07 0.02 0 -0.06 -0.05 0 0 0.2 0.05 0 0 -0.07 -0.03 0.01 0 -0.05 0.1 -0.03 0 0.19 -0.14 0c-0.01,0 -0.03,-0.01 -0.04,-0.02 -0.01,0 -0.01,-0.01 -0.01,-0.02l0 -0.22z"/>
   <path id="14" class="fil0" d="M10.44 3.29l-0.07 0 0 -0.3 0.07 0 0 0.03c0,-0.01 0.01,-0.02 0.01,-0.02 0.01,0 0.02,-0.01 0.03,-0.01l0.03 0c0.01,0 0.03,0.01 0.04,0.01 0.01,0.01 0.01,0.02 0.01,0.03l0 0.26 -0.07 0 0 -0.25 -0.05 0 0 0.25z"/>
  </g>
 </g>
</svg>
