<?xml version="1.0" encoding="UTF-8"?>
<!DOCTYPE svg PUBLIC "-//W3C//DTD SVG 1.1//EN" "http://www.w3.org/Graphics/SVG/1.1/DTD/svg11.dtd">
<!-- Creator: CorelDRAW 2017 -->
<svg xmlns="http://www.w3.org/2000/svg" xml:space="preserve" width="111px" height="90px" version="1.1" style="shape-rendering:geometricPrecision; text-rendering:geometricPrecision; image-rendering:optimizeQuality; fill-rule:evenodd; clip-rule:evenodd"
viewBox="0 0 1.94 1.57"
 xmlns:xlink="http://www.w3.org/1999/xlink">
 <defs>
  <style type="text/css">
   <![CDATA[
    .fil1 {fill:white}
    .fil0 {fill:white;fill-rule:nonzero}
   ]]>
  </style>
 </defs>
 <g id="图层_x0020_1">
  <metadata id="CorelCorpID_0Corel-Layer"/>
  <path class="fil0" d="M0.07 0l1.5 0 0 0.47 0.37 0.31 -0.37 0.31 0 0.48 -1.57 0 0 -1.57 0.07 0zm1.35 0.14l-1.28 0 0 1.28 1.28 0 0 -0.39 0.3 -0.25 -0.3 -0.24 0 -0.4z"/>
  <polygon class="fil1" points="1.58,0.78 1.5,0.72 1.42,0.66 1.42,0.78 1.42,0.9 1.5,0.84 "/>
  <path class="fil1" d="M1.37 0.19l-1.18 0 0 1.19 1.18 0 0 -1.19zm-0.88 0.8l0 0.1 -0.19 0 0 -0.61 0.08 0 0 0.51 0.11 0zm0.02 -0.43c0,-0.03 0.01,-0.05 0.02,-0.06 0.01,-0.02 0.03,-0.02 0.05,-0.02l0.09 0c0.02,0 0.03,0 0.05,0.02 0.01,0.01 0.01,0.03 0.01,0.06l0 0.45c0,0.02 0,0.04 -0.01,0.06 -0.02,0.01 -0.03,0.02 -0.05,0.02l-0.09 0c-0.02,0 -0.04,-0.01 -0.05,-0.02 -0.01,-0.02 -0.02,-0.04 -0.02,-0.06l0 -0.45zm0.14 0.01l-0.06 0 0 0.42 0.06 0 0 -0.42zm0.13 -0.01c0,-0.03 0,-0.05 0.01,-0.06 0.01,-0.02 0.03,-0.02 0.05,-0.02l0.09 0c0.02,0 0.04,0 0.05,0.02 0.01,0.01 0.01,0.03 0.01,0.06l0 0.09 -0.08 0.05 0 -0.13 -0.05 0 0 0.42 0.05 0 0 -0.13 -0.03 0.02 0 -0.11 0.11 -0.08 0 0.4 -0.15 0c-0.02,0 -0.04,-0.01 -0.05,-0.02 -0.01,-0.02 -0.01,-0.04 -0.01,-0.06l0 -0.45zm0.26 0c0,-0.03 0,-0.05 0.01,-0.06 0.02,-0.02 0.03,-0.02 0.05,-0.02l0.09 0c0.02,0 0.04,0 0.05,0.02 0.01,0.01 0.02,0.03 0.02,0.06l0 0.45c0,0.02 -0.01,0.04 -0.02,0.06 -0.01,0.01 -0.03,0.02 -0.05,0.02l-0.09 0c-0.02,0 -0.03,-0.01 -0.05,-0.02 -0.01,-0.02 -0.01,-0.04 -0.01,-0.06l0 -0.45zm0.14 0.01l-0.06 0 0 0.42 0.06 0 0 -0.42z"/>
 </g>
</svg>
