<?xml version="1.0" encoding="UTF-8"?>
<!DOCTYPE svg PUBLIC "-//W3C//DTD SVG 1.1//EN" "http://www.w3.org/Graphics/SVG/1.1/DTD/svg11.dtd">
<!-- Creator: CorelDRAW 2017 -->
<svg xmlns="http://www.w3.org/2000/svg" xml:space="preserve" width="111px" height="90px" version="1.1" style="shape-rendering:geometricPrecision; text-rendering:geometricPrecision; image-rendering:optimizeQuality; fill-rule:evenodd; clip-rule:evenodd"
viewBox="0 0 1.69 1.36"
 xmlns:xlink="http://www.w3.org/1999/xlink">
 <defs>
  <style type="text/css">
   <![CDATA[
    .fil1 {fill:white}
    .fil0 {fill:white;fill-rule:nonzero}
   ]]>
  </style>
 </defs>
 <g id="图层_x0020_1">
  <metadata id="CorelCorpID_0Corel-Layer"/>
  <path class="fil0" d="M0.06 0l1.3 0 0 0.41 0.33 0.27 -0.33 0.27 0 0.41 -1.36 0 0 -1.36 0.06 0zm1.18 0.12l-1.12 0 0 1.12 1.12 0 0 -0.35 0.25 -0.21 -0.25 -0.21 0 -0.35z"/>
  <polygon class="fil1" points="1.37,0.68 1.3,0.63 1.24,0.58 1.24,0.68 1.24,0.78 1.3,0.73 "/>
  <path class="fil1" d="M1.19 0.17l-1.03 0 0 1.02 1.03 0 0 -1.02zm-0.66 0.82l-0.13 -0.62 0.12 0 0.09 0.4 0.08 -0.4 0.13 0 -0.14 0.62 -0.15 0zm0.43 0l-0.13 0 0 -0.62 0.13 0 0 0.62z"/>
 </g>
</svg>
