<?xml version="1.0" encoding="UTF-8"?>
<!DOCTYPE svg PUBLIC "-//W3C//DTD SVG 1.1//EN" "http://www.w3.org/Graphics/SVG/1.1/DTD/svg11.dtd">
<!-- Creator: CorelDRAW 2017 -->
<svg xmlns="http://www.w3.org/2000/svg" xml:space="preserve" width="111px" height="90px" version="1.1" style="shape-rendering:geometricPrecision; text-rendering:geometricPrecision; image-rendering:optimizeQuality; fill-rule:evenodd; clip-rule:evenodd"
viewBox="0 0 1.34 1.08"
 xmlns:xlink="http://www.w3.org/1999/xlink">
 <defs>
  <style type="text/css">
   <![CDATA[
    .fil1 {fill:white}
    .fil0 {fill:white;fill-rule:nonzero}
   ]]>
  </style>
 </defs>
 <g id="图层_x0020_1">
  <metadata id="CorelCorpID_0Corel-Layer"/>
  <path class="fil0" d="M0.05 0l1.03 0 0 0.32 0.26 0.22 -0.26 0.21 0 0.33 -1.08 0 0 -1.08 0.05 0zm0.93 0.1l-0.88 0 0 0.88 0.88 0 0 -0.27 0.2 -0.17 -0.2 -0.17 0 -0.27z"/>
  <polygon class="fil1" points="1.09,0.54 1.03,0.5 0.98,0.46 0.98,0.54 0.98,0.62 1.03,0.58 "/>
  <path class="fil1" d="M0.94 0.13l-0.81 0 0 0.82 0.81 0 0 -0.82zm-0.65 0.21l0 -0.07 -0.04 0 0 0.09 0.04 -0.02zm0.04 0.03l-0.08 0.04 0 0.09 -0.04 0 0 -0.28 0.08 0c0.02,0 0.02,0.01 0.03,0.01 0.01,0.01 0.01,0.02 0.01,0.03l0 0.11zm0.1 -0.03l0 -0.07 -0.04 0 0 0.08 0.04 -0.01zm0.04 0.16l-0.04 0 0 -0.11 -0.04 0.01 0 0.1 -0.04 0 0 -0.24c0,-0.01 0,-0.02 0.01,-0.03 0.01,0 0.01,-0.01 0.03,-0.01l0.05 0c0.01,0 0.02,0.01 0.02,0.01 0.01,0.01 0.01,0.02 0.01,0.03l0 0.24zm0.03 -0.24c0,-0.01 0,-0.02 0,-0.03 0.01,0 0.02,-0.01 0.03,-0.01l0.05 0c0.01,0 0.02,0.01 0.03,0.01 0,0.01 0.01,0.02 0.01,0.03l0 0.04 -0.05 0.02 0 -0.05 -0.03 0 0 0.19 0.03 0 0 -0.04 0.05 -0.02 0 0.07c0,0.01 -0.01,0.02 -0.01,0.02 -0.01,0.01 -0.02,0.01 -0.03,0.01l-0.05 0c-0.01,0 -0.02,0 -0.03,-0.01 0,0 0,-0.01 0,-0.02l0 -0.21zm0.18 0.24l-0.04 0 0 -0.28 0.04 0 0 0.11 0.05 -0.11 0.05 0 -0.06 0.12 0.07 0.16 -0.05 0 -0.04 -0.11 -0.02 0.03 0 0.08zm0.11 -0.11l0.08 -0.04 0 0.04 -0.08 0.04 0 -0.04zm-0.5 0.3l0 -0.07 -0.04 0 0 0.08 0.04 -0.01zm0.04 0.16l-0.04 0 0 -0.11 -0.04 0.01 0 0.1 -0.04 0 0 -0.24c0,-0.01 0,-0.02 0.01,-0.03 0,0 0.01,-0.01 0.02,-0.01l0.05 0c0.02,0 0.02,0.01 0.03,0.01 0.01,0.01 0.01,0.02 0.01,0.03l0 0.24zm0.02 -0.24c0,-0.01 0.01,-0.02 0.01,-0.03 0.01,0 0.02,-0.01 0.03,-0.01l0.05 0c0.01,0 0.02,0.01 0.03,0.01 0,0.01 0.01,0.02 0.01,0.03l0 0.04 -0.05 0.03 0 -0.06 -0.03 0 0 0.19 0.03 0 0 -0.06 -0.02 0.01 0 -0.05 0.07 -0.04 0 0.18 -0.09 0c-0.01,0 -0.02,0 -0.03,-0.01 0,0 -0.01,-0.01 -0.01,-0.02l0 -0.21zm0.19 0.24l-0.04 0 0 -0.28 0.04 0 0 0.28zm0.07 0l-0.04 0 0 -0.28 0.04 0 0 0.03c0,-0.01 0.01,-0.02 0.01,-0.02 0.01,0 0.01,-0.01 0.02,-0.01l0.01 0c0.01,0 0.02,0.01 0.03,0.01 0.01,0.01 0.01,0.02 0.01,0.03l0 0.24 -0.04 0 0 -0.23 -0.04 0 0 0.23zm0.1 -0.24c0,-0.01 0.01,-0.02 0.01,-0.03 0.01,0 0.02,-0.01 0.03,-0.01l0.05 0c0.01,0 0.02,0.01 0.02,0.01 0.01,0.01 0.01,0.02 0.01,0.03l0 0.04 -0.04 0.03 0 -0.06 -0.03 0 0 0.19 0.03 0 0 -0.06 -0.02 0.01 0 -0.05 0.06 -0.04 0 0.18 -0.08 0c-0.01,0 -0.02,0 -0.03,-0.01 0,0 -0.01,-0.01 -0.01,-0.02l0 -0.21z"/>
 </g>
</svg>
