<?xml version="1.0" encoding="UTF-8"?>
<!DOCTYPE svg PUBLIC "-//W3C//DTD SVG 1.1//EN" "http://www.w3.org/Graphics/SVG/1.1/DTD/svg11.dtd">
<!-- Creator: CorelDRAW 2017 -->
<svg xmlns="http://www.w3.org/2000/svg" xml:space="preserve" width="808px" height="417px" version="1.1" style="shape-rendering:geometricPrecision; text-rendering:geometricPrecision; image-rendering:optimizeQuality; fill-rule:evenodd; clip-rule:evenodd"
viewBox="0 0 102.14 52.66"
 xmlns:xlink="http://www.w3.org/1999/xlink">
 <defs>
  <style type="text/css">
   <![CDATA[
    .fil2 {fill:#332C2B}
    .fil0 {fill:#757475;fill-rule:nonzero}
    .fil1 {fill:#332C2B;fill-rule:nonzero}
    .fil3 {fill:#2F318B;fill-rule:nonzero}
   ]]>
  </style>
 </defs>
 <g id="图层_x0020_1">
  <metadata id="CorelCorpID_0Corel-Layer"/>
  <path class="fil0" d="M1.24 1.22l0 -0.76 -0.53 0 0 0.94 0.53 -0.18zm0.71 0.27l-1.24 0.43 0 1 -0.71 0 0 -2.92 1.37 0c0.19,0 0.33,0.04 0.43,0.1 0.1,0.07 0.15,0.17 0.15,0.3l0 1.09z"/>
  <polygon id="1" class="fil0" points="6.55,2.92 5.84,2.92 5.84,0 6.55,0 "/>
  <path id="2" class="fil0" d="M10.5 0.4c0,-0.13 0.05,-0.23 0.15,-0.3 0.11,-0.06 0.25,-0.1 0.43,-0.1l0.79 0c0.19,0 0.33,0.04 0.43,0.1 0.11,0.07 0.16,0.17 0.16,0.3l0 0.38 -0.72 0.24 0 -0.56 -0.52 0 0 2 0.52 0 0 -0.41 0.72 -0.25 0 0.72c0,0.13 -0.05,0.23 -0.15,0.3 -0.11,0.07 -0.25,0.1 -0.44,0.1l-0.79 0c-0.18,0 -0.32,-0.03 -0.43,-0.1 -0.1,-0.07 -0.15,-0.17 -0.15,-0.3l0 -2.12z"/>
  <polygon id="3" class="fil0" points="16.89,2.92 16.89,0.47 16.19,0.47 16.19,0 18.31,0 18.31,0.47 17.6,0.47 17.6,2.92 "/>
  <path id="4" class="fil0" d="M22.04 0l0.71 0 0 2.46 0.53 0 0 -2.46 0.71 0 0 2.52c0,0.13 -0.05,0.23 -0.15,0.3 -0.1,0.07 -0.24,0.1 -0.43,0.1l-0.8 0c-0.18,0 -0.32,-0.03 -0.42,-0.1 -0.1,-0.07 -0.15,-0.17 -0.15,-0.3l0 -2.52z"/>
  <path id="5" class="fil0" d="M29.9 1.45l-0.52 0.18 0.81 1.29 -0.75 0 -0.67 -1.08 -0.11 0.04 0 1.04 -0.71 0 0 -2.92 1.37 0c0.18,0 0.33,0.04 0.43,0.1 0.1,0.07 0.15,0.17 0.15,0.3l0 1.05zm-0.71 -0.27l0 -0.72 -0.53 0 0 0.9 0.53 -0.18z"/>
  <polygon id="6" class="fil0" points="35.57,2.92 33.85,2.92 33.85,0 35.57,0 35.57,0.47 34.56,0.47 34.56,1.22 35.57,0.88 35.57,1.4 34.56,1.75 34.56,2.46 35.57,2.46 "/>
  <path id="7" class="fil0" d="M41.93 1.17l0 -0.71 -0.53 0 0 0.88 0.53 -0.17zm0.71 1.75l-0.71 0 0 -1.23 -0.53 0.18 0 1.05 -0.71 0 0 -2.52c0,-0.13 0.05,-0.23 0.15,-0.3 0.1,-0.06 0.24,-0.1 0.42,-0.1l0.8 0c0.18,0 0.33,0.04 0.43,0.1 0.1,0.07 0.15,0.17 0.15,0.3l0 2.52z"/>
  <polygon id="8" class="fil0" points="48.27,2.46 48.27,2.92 46.6,2.92 46.6,0 47.31,0 47.31,2.46 "/>
  <path id="9" class="fil0" d="M53.29 2.47l0 -0.94 -0.58 0.19 0 0.75 0.58 0zm0.69 -1.1l0 1.15c0,0.14 -0.05,0.24 -0.16,0.3 -0.1,0.07 -0.26,0.1 -0.48,0.1l-1.32 0 0 -2.92 1.38 0c0.18,0 0.32,0.04 0.43,0.1 0.1,0.07 0.15,0.17 0.15,0.3l0 0.61c0,0.1 -0.02,0.18 -0.07,0.24 -0.05,0.05 -0.13,0.09 -0.24,0.12l0.31 0zm-0.69 -0.33l0 -0.59 -0.58 0 0 0.78 0.58 -0.19z"/>
  <path id="10" class="fil0" d="M57.93 0l0.71 0 0 2.46 0.53 0 0 -2.46 0.71 0 0 2.52c0,0.13 -0.05,0.23 -0.15,0.3 -0.1,0.07 -0.25,0.1 -0.43,0.1l-0.8 0c-0.18,0 -0.32,-0.03 -0.42,-0.1 -0.1,-0.07 -0.15,-0.17 -0.15,-0.3l0 -2.52z"/>
  <path id="11" class="fil0" d="M65.78 2.92l-0.7 0 0 -2.45 -0.53 0 0 2.45 -0.71 0 0 -2.52c0,-0.13 0.05,-0.23 0.15,-0.3 0.1,-0.06 0.24,-0.1 0.42,-0.1l0.6 0c0.14,0 0.24,0.02 0.31,0.07 0.07,0.05 0.11,0.12 0.11,0.21 0,-0.09 0.03,-0.16 0.11,-0.21 0.07,-0.05 0.17,-0.07 0.3,-0.07l0.6 0c0.18,0 0.32,0.04 0.42,0.1 0.11,0.07 0.16,0.17 0.16,0.3l0 2.52 -0.72 0 0 -2.45 -0.52 0 0 2.45z"/>
  <path id="12" class="fil0" d="M73.59 0c0.18,0 0.33,0.04 0.43,0.1 0.1,0.07 0.15,0.17 0.15,0.3l0 2.12c0,0.13 -0.05,0.23 -0.15,0.3 -0.1,0.07 -0.24,0.1 -0.43,0.1l-1.37 0 0 -2.92 1.37 0zm-0.13 0.46l-0.53 0 0 2 0.53 0 0 -2z"/>
  <polygon id="13" class="fil0" points="79.84,2.92 78.12,2.92 78.12,0 79.84,0 79.84,0.47 78.84,0.47 78.84,1.22 79.84,0.88 79.84,1.4 78.84,1.75 78.84,2.46 79.84,2.46 "/>
  <path id="14" class="fil0" d="M83.71 0.4c0,-0.13 0.05,-0.23 0.15,-0.3 0.1,-0.06 0.24,-0.1 0.42,-0.1l0.8 0c0.18,0 0.32,0.04 0.43,0.11 0.1,0.06 0.15,0.16 0.15,0.29l0 0.07 -0.72 0.25 0 -0.26 -0.52 0 0 0.74 1.24 -0.43 0 1.75c0,0.13 -0.05,0.23 -0.15,0.3 -0.1,0.07 -0.25,0.1 -0.43,0.1l-0.8 0c-0.18,0 -0.32,-0.03 -0.42,-0.1 -0.1,-0.07 -0.15,-0.17 -0.15,-0.3l0 -0.27 0.71 -0.25 0 0.46 0.52 0 0 -0.92 -1.23 0.44 0 -1.58z"/>
  <polygon id="15" class="fil0" points="90.32,2.92 89.61,2.92 89.61,0 90.32,0 "/>
  <path id="16" class="fil0" d="M94.27 0.4c0,-0.13 0.05,-0.23 0.16,-0.3 0.1,-0.06 0.24,-0.1 0.42,-0.1l0.79 0c0.19,0 0.33,0.04 0.43,0.1 0.11,0.07 0.16,0.17 0.16,0.3l0 0.42 -0.72 0.24 0 -0.6 -0.52 0 0 2 0.52 0 0 -0.66 -0.29 0.1 0 -0.52 1.01 -0.35 0 1.89 -1.38 0c-0.18,0 -0.32,-0.03 -0.42,-0.1 -0.11,-0.07 -0.16,-0.17 -0.16,-0.3l0 -2.12z"/>
  <path id="17" class="fil0" d="M100.9 2.92l-0.71 0 0 -2.92 0.71 0 0 0.23c0.02,-0.08 0.06,-0.13 0.13,-0.17 0.07,-0.04 0.17,-0.06 0.28,-0.06l0.25 0c0.18,0 0.32,0.04 0.42,0.1 0.11,0.07 0.16,0.17 0.16,0.3l0 2.52 -0.72 0 0 -2.45 -0.52 0 0 2.45z"/>
  <path class="fil1" d="M1.18 32.96l0 -2.05 1.85 0 0 1.55c0.02,0.35 -0.15,0.52 -0.51,0.5l-1.34 0zm-0.74 0.62l0 -2.6 0.25 0 0 2.44 2.45 0c0.27,0.01 0.39,-0.11 0.38,-0.37l0 -2.07 0.23 0 0 2.09c0.01,0.35 -0.17,0.52 -0.56,0.51l-2.75 0zm-0.19 -3.29l3.72 0 0 0.16 -3.72 0 0 -0.16zm1.16 1.71l0 0.79 0.58 0 0 -0.79 -0.58 0zm1.37 0.5l0 -0.5 -0.56 0 0 0.79 0.28 0c0.2,0.01 0.29,-0.09 0.28,-0.29zm-1.37 -1.42l0 0.76 0.58 0 0 -0.76 -0.58 0zm1.37 0l-0.56 0 0 0.76 0.56 0 0 -0.76z"/>
  <path id="1" class="fil1" d="M4.69 31.82l0 -0.18 0.44 0 0 -1.4 1.24 0 0 1.4 0.47 0 0 -1.4 1.27 0 0 1.4 0.41 0 0 0.18 -0.41 0 0 1.53c0.01,0.25 -0.14,0.37 -0.44,0.36l-0.27 0 0 -0.18 0.23 0c0.17,0 0.25,-0.07 0.23,-0.2l0 -1.51 -0.77 0 0 0.33c0.03,0.76 -0.17,1.32 -0.59,1.69l0 -0.23c0.25,-0.34 0.36,-0.8 0.34,-1.38l0 -0.41 -0.47 0 0 1.48c0,0.25 -0.15,0.38 -0.45,0.38l-0.26 0 0 -0.18 0.25 0c0.14,0 0.21,-0.07 0.21,-0.2l0 -1.48 -0.74 0 0 0.33c0.03,0.74 -0.17,1.31 -0.61,1.69l0 -0.21c0.26,-0.37 0.38,-0.84 0.36,-1.4l0 -0.41 -0.44 0zm3.17 -1.42l-0.77 0 0 1.24 0.77 0 0 -1.24zm-1.74 0l-0.74 0 0 1.24 0.74 0 0 -1.24z"/>
  <path id="2" class="fil1" d="M11.09 31.89c-0.19,0.42 -0.53,0.77 -1.02,1.02l0 -0.17c0.63,-0.41 0.93,-1.02 0.89,-1.81l0 -0.06 -1.19 0 0 2.93 -0.26 0 0 -3.11 1.45 0 0 -0.65 0.26 0 0 0.65 1.44 0 0 2.4c0.03,0.46 -0.19,0.68 -0.64,0.65l-0.26 0 0 -0.18 0.28 0c0.25,0.01 0.37,-0.11 0.36,-0.36l0 -2.33 -1.18 0 0 0.06c-0.04,0.76 0.25,1.36 0.89,1.81l0 0.17c-0.48,-0.28 -0.83,-0.62 -1.02,-1.02z"/>
  <path id="3" class="fil1" d="M14.31 33.73l0 -1.25 2.52 0 0 0.84c0.01,0.28 -0.15,0.42 -0.46,0.41l-2.06 0zm2.27 -0.38l0 -0.71 -2.01 0 0 0.92 1.75 0c0.17,0 0.26,-0.07 0.26,-0.21zm-2.93 -0.87c0.86,-0.31 1.46,-0.72 1.81,-1.24l0.23 0c0.35,0.52 0.95,0.93 1.81,1.24l0 0.16c-0.9,-0.27 -1.54,-0.64 -1.92,-1.12 -0.39,0.48 -1.03,0.85 -1.93,1.12l0 -0.16zm3.69 -2.09l0 0.54 -0.25 0 0 -0.38 -3.03 0 0 0.38 -0.25 0 0 -0.54 1.64 0 0 -0.35 0.26 0 0 0.35 1.63 0zm0.01 1.13l0 0.17c-0.71,-0.14 -1.18,-0.44 -1.4,-0.89l0.28 0c0.19,0.34 0.56,0.58 1.12,0.72zm-3.55 0c0.55,-0.14 0.92,-0.38 1.12,-0.72l0.28 0c-0.22,0.45 -0.69,0.75 -1.4,0.89l0 -0.17z"/>
  <path id="4" class="fil1" d="M18.24 30.87l0 -0.18 0.54 0 0 -0.65 0.25 0 0 0.65 0.54 0 0 0.18 -0.54 0 0 0.83 0 0.09 0.59 0 0 0.18 -0.58 0c0.03,0.56 0.22,1.09 0.6,1.61l0 0.23c-0.37,-0.37 -0.61,-0.79 -0.73,-1.25 -0.15,0.5 -0.41,0.92 -0.77,1.25l0 -0.23c0.39,-0.47 0.6,-1.01 0.62,-1.61l-0.6 0 0 -0.18 0.62 0 0 -0.09 0 -0.83 -0.54 0zm1.58 1.74l0 -2.39 1.87 0 0 2.39 -0.24 0 0 -2.22 -1.4 0 0 2.22 -0.23 0zm0.82 -1.84l0.23 0 0 0.77c0,0.23 -0.01,0.44 -0.03,0.63l0.2 0 0 1.1c0,0.18 0.1,0.27 0.29,0.26l0.1 0c0.22,0.01 0.32,-0.08 0.31,-0.26l0 -0.13 0.2 0 0 0.13c0.01,0.29 -0.15,0.44 -0.49,0.43l-0.18 0c-0.32,0.01 -0.47,-0.14 -0.46,-0.45l0 -0.87c-0.1,0.57 -0.46,1.05 -1.09,1.43l0 -0.2c0.66,-0.41 0.97,-1.11 0.92,-2.07l0 -0.77z"/>
  <path id="5" class="fil1" d="M22.66 31.14l0 -0.16 0.61 0c-0.01,-0.1 -0.02,-0.26 -0.02,-0.48 -0.01,-0.19 -0.01,-0.35 -0.01,-0.46l0.26 0c0,0.44 0.01,0.75 0.02,0.94l1.35 0 0 0.16 -1.35 0c0.01,0.37 0.04,0.75 0.1,1.14 0.01,0.04 0.02,0.1 0.03,0.17 0.01,0.05 0.03,0.13 0.05,0.24 0.27,-0.25 0.52,-0.65 0.74,-1.18l0.25 0c-0.25,0.63 -0.55,1.11 -0.93,1.41 0.17,0.45 0.39,0.68 0.66,0.68 0.19,0 0.28,-0.13 0.28,-0.38l0.2 0c0.01,0.39 -0.15,0.59 -0.49,0.57 -0.37,0 -0.64,-0.23 -0.83,-0.7 -0.24,0.17 -0.54,0.33 -0.9,0.46l0 -0.13c0.33,-0.17 0.61,-0.35 0.84,-0.55 -0.06,-0.15 -0.1,-0.33 -0.13,-0.54 -0.07,-0.44 -0.11,-0.83 -0.12,-1.19l-0.61 0zm3.57 -1.08l0 3.27c0,0.3 -0.15,0.45 -0.46,0.45l-0.34 0 0 -0.17 0.29 0c0.19,0 0.28,-0.07 0.27,-0.23l0 -3.32 0.24 0zm-1.07 2.88l0 -2.57 0.23 0 0 2.57 -0.23 0zm-0.98 -2.8c0.1,0.17 0.18,0.38 0.23,0.64l-0.25 0c-0.03,-0.24 -0.09,-0.45 -0.18,-0.64l0.2 0z"/>
  <path id="6" class="fil1" d="M1.18 42.29l0 -2.04 1.85 0 0 1.55c0.02,0.35 -0.15,0.51 -0.51,0.49l-1.34 0zm-0.74 0.63l0 -2.6 0.25 0 0 2.43 2.45 0c0.27,0.01 0.39,-0.11 0.38,-0.36l0 -2.07 0.23 0 0 2.09c0.01,0.35 -0.17,0.52 -0.56,0.51l-2.75 0zm-0.19 -3.29l3.72 0 0 0.16 -3.72 0 0 -0.16zm1.16 1.71l0 0.79 0.58 0 0 -0.79 -0.58 0zm1.37 0.49l0 -0.49 -0.56 0 0 0.79 0.28 0c0.2,0.01 0.29,-0.09 0.28,-0.3zm-1.37 -1.42l0 0.76 0.58 0 0 -0.76 -0.58 0zm1.37 0l-0.56 0 0 0.76 0.56 0 0 -0.76z"/>
  <path id="7" class="fil1" d="M4.69 41.16l0 -0.19 0.44 0 0 -1.39 1.24 0 0 1.39 0.47 0 0 -1.39 1.27 0 0 1.39 0.41 0 0 0.19 -0.41 0 0 1.53c0.01,0.25 -0.14,0.37 -0.44,0.36l-0.27 0 0 -0.18 0.23 0c0.17,0 0.25,-0.07 0.23,-0.2l0 -1.51 -0.77 0 0 0.32c0.03,0.76 -0.17,1.33 -0.59,1.7l0 -0.23c0.25,-0.34 0.36,-0.8 0.34,-1.38l0 -0.41 -0.47 0 0 1.48c0,0.25 -0.15,0.38 -0.45,0.38l-0.26 0 0 -0.18 0.25 0c0.14,0 0.21,-0.07 0.21,-0.2l0 -1.48 -0.74 0 0 0.32c0.03,0.75 -0.17,1.32 -0.61,1.7l0 -0.21c0.26,-0.38 0.38,-0.84 0.36,-1.4l0 -0.41 -0.44 0zm3.17 -1.42l-0.77 0 0 1.23 0.77 0 0 -1.23zm-1.74 0l-0.74 0 0 1.23 0.74 0 0 -1.23z"/>
  <path id="8" class="fil1" d="M10.51 41.3l0.28 0c0.19,0.43 0.44,0.77 0.76,1.02 0.38,-0.27 0.67,-0.65 0.85,-1.15l-2.04 0 0 -0.16 2.32 0 0 0.16c-0.24,0.57 -0.56,1 -0.97,1.29 0.27,0.18 0.7,0.36 1.28,0.54l0 0.15c-0.62,-0.18 -1.1,-0.36 -1.44,-0.56 -0.38,0.21 -0.85,0.39 -1.42,0.56l0 -0.15c0.58,-0.21 0.99,-0.4 1.23,-0.56 -0.32,-0.24 -0.61,-0.62 -0.85,-1.14zm1.61 -1.56l-1.13 0 0 0.36c0.03,0.38 -0.19,0.61 -0.68,0.71l0 -0.15c0.31,-0.09 0.45,-0.27 0.43,-0.56l0 -0.52 1.63 0 0 0.72c-0.01,0.17 0.06,0.24 0.21,0.23l0.37 0 0 0.17 -0.45 0c-0.25,0 -0.38,-0.13 -0.38,-0.38l0 -0.58zm-2.25 2.86c0.16,-0.07 0.34,-0.18 0.54,-0.31l0 0.18c-0.19,0.18 -0.46,0.33 -0.81,0.46l0 -2.17 -0.42 0 0 -0.16 0.69 0 0 2zm-0.17 -3.2c0.15,0.27 0.26,0.55 0.35,0.83l-0.25 0c-0.06,-0.26 -0.17,-0.54 -0.31,-0.83l0.21 0z"/>
  <path id="9" class="fil1" d="M17.5 40.66l0 0.2 -1.15 0 0 2.32 -0.28 0 0 -2.32 -1.15 0 0 -0.2 1.15 0 0 -1.28 0.28 0 0 1.28 1.15 0zm-3.04 2.04c0.25,-0.06 0.51,-0.19 0.77,-0.36l0 0.2c-0.28,0.21 -0.63,0.38 -1.04,0.51l0 -2.27 -0.52 0 0 -0.18 0.79 0 0 2.1zm-0.2 -3.3c0.13,0.23 0.25,0.51 0.34,0.85l-0.24 0c-0.08,-0.3 -0.18,-0.58 -0.32,-0.85l0.22 0z"/>
  <path id="10" class="fil1" d="M21.35 39.81l-2.57 0 0 2.14c0.05,0.53 -0.16,0.93 -0.61,1.2l0 -0.18c0.27,-0.22 0.39,-0.51 0.37,-0.88l0 -2.46 3.05 0 0 2.46c-0.02,0.37 0.1,0.66 0.36,0.88l0 0.18c-0.44,-0.27 -0.65,-0.67 -0.6,-1.2l0 -2.14zm-0.25 2.91c-0.43,-0.28 -0.77,-0.55 -1.04,-0.82 -0.26,0.27 -0.6,0.54 -1.03,0.82l0 -0.17c0.44,-0.34 0.73,-0.61 0.89,-0.82 -0.29,-0.35 -0.51,-0.86 -0.68,-1.53l0.25 0c0.13,0.55 0.32,1 0.57,1.35 0.23,-0.31 0.43,-0.76 0.58,-1.35l0.25 0c-0.17,0.67 -0.4,1.18 -0.69,1.53 0.17,0.22 0.47,0.5 0.9,0.82l0 0.17z"/>
  <path id="11" class="fil1" d="M24.24 43.05l0 -1.4 1.94 0 0 0.94c0.03,0.31 -0.15,0.47 -0.52,0.46l-1.42 0zm-0.23 -1.56l0 -0.15c0.41,-0.11 0.75,-0.25 1.02,-0.41 -0.23,-0.17 -0.43,-0.37 -0.61,-0.61 -0.06,0.05 -0.17,0.13 -0.33,0.23 -0.02,0.02 -0.04,0.04 -0.06,0.05l0 -0.18c0.38,-0.28 0.61,-0.62 0.69,-1.04l0.26 0c-0.04,0.16 -0.09,0.3 -0.15,0.41l1.39 0 0 0.16c-0.23,0.43 -0.51,0.76 -0.83,0.98 0.29,0.16 0.65,0.3 1.09,0.41l0 0.15c-0.51,-0.11 -0.93,-0.26 -1.27,-0.45 -0.27,0.18 -0.67,0.32 -1.2,0.45zm-1.42 0.47c0.29,-0.57 0.48,-1.15 0.58,-1.74l-0.49 0 0 -0.17 0.54 0 0 -0.67 0.23 0 0 0.67 0.53 0 0 0.17 -0.51 0c0.12,0.46 0.28,0.88 0.49,1.28l0 0.3c-0.23,-0.37 -0.4,-0.68 -0.51,-0.96l0 2.32 -0.23 0 0 -2.27c-0.12,0.45 -0.33,0.91 -0.63,1.38l0 -0.31zm3.35 0.63l0 -0.78 -1.45 0 0 1.07 1.12 0c0.23,0.01 0.34,-0.08 0.33,-0.29zm-1.2 -2.64c-0.02,0.02 -0.03,0.04 -0.05,0.07 -0.04,0.06 -0.07,0.1 -0.1,0.13 0.17,0.27 0.38,0.48 0.62,0.64 0.3,-0.2 0.54,-0.48 0.73,-0.84l-1.2 0z"/>
  <path id="12" class="fil1" d="M27.32 40.91l0 -0.18 3.48 0 0 0.18 -1.53 0 0 0.79 1.37 0 0 0.18 -1.37 0 0 0.97 1.66 0 0 0.18 -1.69 0c-0.65,0.02 -1.1,-0.21 -1.35,-0.69 -0.14,0.27 -0.39,0.55 -0.74,0.82l0 -0.2c0.47,-0.41 0.71,-0.99 0.71,-1.74l0.26 0c-0.01,0.34 -0.06,0.63 -0.13,0.87 0.22,0.47 0.55,0.72 1,0.74l0 -1.92 -1.67 0zm3.5 -1.12l0 0.66 -0.26 0 0 -0.48 -3 0 0 0.48 -0.24 0 0 -0.66 1.61 0 0 -0.39 0.26 0 0 0.39 1.63 0z"/>
  <path id="13" class="fil1" d="M34.96 40.5c-0.06,0.97 -0.2,1.74 -0.42,2.29l0.95 0 0 0.18 -2.8 0 0 -0.18 0.94 0c-0.24,-0.68 -0.39,-1.45 -0.46,-2.29l0.26 0c0.05,0.9 0.19,1.66 0.42,2.29l0.46 0c0.24,-0.82 0.37,-1.58 0.39,-2.29l0.26 0zm-2.75 2.66l0 -2.58c-0.16,0.14 -0.36,0.26 -0.59,0.36l0 -0.16c0.51,-0.32 0.81,-0.79 0.92,-1.4l0.25 0c-0.09,0.35 -0.2,0.64 -0.33,0.87l0 2.91 -0.25 0zm0.58 -3.04l0 -0.18 1.19 0 0 -0.53 0.3 0 0 0.53 1.08 0 0 0.18 -2.57 0z"/>
  <path id="14" class="fil1" d="M1.18 51.63l0 -2.04 1.85 0 0 1.55c0.02,0.35 -0.15,0.51 -0.51,0.49l-1.34 0zm-0.74 0.62l0 -2.6 0.25 0 0 2.44 2.45 0c0.27,0.01 0.39,-0.11 0.38,-0.36l0 -2.08 0.23 0 0 2.09c0.01,0.35 -0.17,0.52 -0.56,0.51l-2.75 0zm-0.19 -3.29l3.72 0 0 0.17 -3.72 0 0 -0.17zm1.16 1.71l0 0.8 0.58 0 0 -0.8 -0.58 0zm1.37 0.5l0 -0.5 -0.56 0 0 0.8 0.28 0c0.2,0.01 0.29,-0.09 0.28,-0.3zm-1.37 -1.42l0 0.76 0.58 0 0 -0.76 -0.58 0zm1.37 0l-0.56 0 0 0.76 0.56 0 0 -0.76z"/>
  <path id="15" class="fil1" d="M4.69 50.49l0 -0.18 0.44 0 0 -1.4 1.24 0 0 1.4 0.47 0 0 -1.4 1.27 0 0 1.4 0.41 0 0 0.18 -0.41 0 0 1.53c0.01,0.25 -0.14,0.37 -0.44,0.36l-0.27 0 0 -0.18 0.23 0c0.17,0 0.25,-0.06 0.23,-0.19l0 -1.52 -0.77 0 0 0.33c0.03,0.76 -0.17,1.32 -0.59,1.7l0 -0.23c0.25,-0.34 0.36,-0.81 0.34,-1.39l0 -0.41 -0.47 0 0 1.48c0,0.26 -0.15,0.38 -0.45,0.38l-0.26 0 0 -0.18 0.25 0c0.14,0 0.21,-0.06 0.21,-0.2l0 -1.48 -0.74 0 0 0.33c0.03,0.75 -0.17,1.31 -0.61,1.7l0 -0.22c0.26,-0.37 0.38,-0.84 0.36,-1.4l0 -0.41 -0.44 0zm3.17 -1.41l-0.77 0 0 1.23 0.77 0 0 -1.23zm-1.74 0l-0.74 0 0 1.23 0.74 0 0 -1.23z"/>
  <path id="16" class="fil1" d="M10.51 50.64l0.28 0c0.19,0.43 0.44,0.77 0.76,1.02 0.38,-0.27 0.67,-0.66 0.85,-1.15l-2.04 0 0 -0.17 2.32 0 0 0.17c-0.24,0.57 -0.56,1 -0.97,1.28 0.27,0.19 0.7,0.37 1.28,0.55l0 0.14c-0.62,-0.17 -1.1,-0.36 -1.44,-0.56 -0.38,0.21 -0.85,0.4 -1.42,0.56l0 -0.14c0.58,-0.21 0.99,-0.4 1.23,-0.56 -0.32,-0.25 -0.61,-0.62 -0.85,-1.14zm1.61 -1.56l-1.13 0 0 0.36c0.03,0.37 -0.19,0.61 -0.68,0.71l0 -0.15c0.31,-0.09 0.45,-0.28 0.43,-0.56l0 -0.53 1.63 0 0 0.73c-0.01,0.16 0.06,0.24 0.21,0.23l0.37 0 0 0.16 -0.45 0c-0.25,0 -0.38,-0.12 -0.38,-0.38l0 -0.57zm-2.25 2.86c0.16,-0.08 0.34,-0.18 0.54,-0.31l0 0.18c-0.19,0.17 -0.46,0.33 -0.81,0.46l0 -2.17 -0.42 0 0 -0.17 0.69 0 0 2.01zm-0.17 -3.21c0.15,0.28 0.26,0.56 0.35,0.84l-0.25 0c-0.06,-0.26 -0.17,-0.54 -0.31,-0.84l0.21 0z"/>
  <path id="17" class="fil1" d="M17.5 50l0 0.2 -1.15 0 0 2.32 -0.28 0 0 -2.32 -1.15 0 0 -0.2 1.15 0 0 -1.28 0.28 0 0 1.28 1.15 0zm-3.04 2.04c0.25,-0.07 0.51,-0.19 0.77,-0.36l0 0.19c-0.28,0.21 -0.63,0.38 -1.04,0.51l0 -2.27 -0.52 0 0 -0.18 0.79 0 0 2.11zm-0.2 -3.31c0.13,0.23 0.25,0.52 0.34,0.86l-0.24 0c-0.08,-0.3 -0.18,-0.58 -0.32,-0.86l0.22 0z"/>
  <polygon id="18" class="fil2" points="0,33.8 26.66,33.8 26.66,33.99 0,33.99 "/>
  <polygon id="19" class="fil2" points="26.66,33.8 26.66,33.8 26.66,33.99 26.66,33.99 "/>
  <polygon id="20" class="fil2" points="0,43.14 0,43.14 0,43.33 0,43.33 "/>
  <polygon id="21" class="fil2" points="0,43.14 35.64,43.14 35.64,43.33 0,43.33 "/>
  <polygon id="22" class="fil2" points="35.64,43.14 35.64,43.14 35.64,43.33 35.64,43.33 "/>
  <polygon id="23" class="fil2" points="0,52.47 0,52.47 0,52.66 0,52.66 "/>
  <polygon id="24" class="fil2" points="0,52.47 17.68,52.47 17.68,52.66 0,52.66 "/>
  <path class="fil1" d="M0.61 20.87l1.25 0 0 1.39 -0.19 0 0 -0.13 -0.87 0 0 0.16 -0.19 0 0 -1.42zm1.72 0.05l0 1.9 -0.19 0 0 -0.14 -2 0 0 -1.76 0.19 0 0 1.59 1.81 0 0 -1.59 0.19 0zm-2.33 -0.46l2.47 0 0 0.17 -2.47 0 0 -0.17zm1.67 0.58l-0.34 0 0 0.38 0.34 0 0 -0.38zm-0.87 0.38l0.34 0 0 -0.38 -0.34 0 0 0.38zm0 0.54l0.34 0 0 -0.37 -0.34 0 0 0.37zm0.53 0l0.34 0 0 -0.37 -0.34 0 0 0.37z"/>
  <path id="1" class="fil1" d="M5.35 20.43l0.85 0 0 0.92 0.28 0 0 0.19 -0.28 0 0 0.99c0,0.18 -0.08,0.27 -0.25,0.27 -0.11,0 -0.22,-0.01 -0.32,-0.01 -0.01,-0.05 -0.02,-0.11 -0.04,-0.19 0.13,0.01 0.23,0.02 0.3,0.02 0.08,0 0.12,-0.04 0.12,-0.12l0 -0.96 -0.46 0 0 0.16c0,0.45 -0.1,0.83 -0.29,1.14 -0.04,-0.04 -0.1,-0.09 -0.16,-0.14 0.17,-0.27 0.25,-0.6 0.25,-0.99l0 -0.17 -0.32 0 0 0.91c0,0.17 -0.09,0.26 -0.26,0.26 -0.09,0 -0.18,0 -0.27,-0.01 0,-0.05 -0.01,-0.11 -0.03,-0.19 0.1,0.01 0.18,0.02 0.25,0.02 0.08,0 0.11,-0.04 0.11,-0.12l0 -0.87 -0.44 0 0 0.19c0,0.46 -0.1,0.83 -0.29,1.11 -0.04,-0.05 -0.09,-0.1 -0.16,-0.14 0.17,-0.26 0.25,-0.58 0.25,-0.95l0 -0.21 -0.25 0 0 -0.19 0.25 0 0 -0.92 0.84 0 0 0.92 0.32 0 0 -0.92zm0.66 0.18l-0.46 0 0 0.74 0.46 0 0 -0.74zm-1.18 0l-0.44 0 0 0.74 0.44 0 0 -0.74z"/>
  <path id="2" class="fil1" d="M8.76 21.81c0.21,0.24 0.39,0.46 0.53,0.66l-0.16 0.12c-0.07,-0.09 -0.14,-0.18 -0.2,-0.27 -0.26,0.12 -0.47,0.22 -0.64,0.3 -0.06,0.04 -0.11,0.07 -0.16,0.11l-0.14 -0.17c0.05,-0.05 0.08,-0.11 0.08,-0.19l0 -1.9 1.03 0 0 1.33 -0.19 0 0 -0.07 -0.65 0 0 0.68c0.17,-0.07 0.36,-0.15 0.55,-0.24 -0.06,-0.09 -0.13,-0.17 -0.2,-0.26l0.15 -0.1zm0.63 -1.31l0.91 0 0 1.56c0,0.21 -0.11,0.32 -0.32,0.32 -0.08,0 -0.18,0 -0.3,0 -0.01,-0.07 -0.02,-0.15 -0.04,-0.22 0.13,0.01 0.23,0.02 0.29,0.02 0.11,0 0.17,-0.06 0.17,-0.18l0 -1.31 -0.51 0 0 2.15 -0.2 0 0 -2.34zm-0.48 1.05l0 -0.36 -0.65 0 0 0.36 0.65 0zm0 -0.9l-0.65 0 0 0.36 0.65 0 0 -0.36z"/>
  <path id="3" class="fil1" d="M12.27 20.4l1.75 0 0 1.07 -0.19 0 0 -0.1 -1.36 0 0 0.1 -0.2 0 0 -1.07zm0.13 1.45l0.2 0.06c-0.03,0.09 -0.06,0.17 -0.1,0.25 0.13,0.22 0.33,0.34 0.58,0.38l0 -0.77 -1.17 0 0 -0.18 2.48 0 0 0.18 -1.1 0 0 0.26 0.92 0 0 0.17 -0.92 0 0 0.36c0.33,0.01 0.71,0 1.14,-0.01 -0.02,0.07 -0.05,0.14 -0.07,0.2 -0.5,0 -0.89,0 -1.16,-0.01 -0.36,0 -0.62,-0.13 -0.78,-0.4 -0.12,0.21 -0.27,0.38 -0.45,0.52 -0.04,-0.06 -0.08,-0.11 -0.13,-0.17 0.28,-0.19 0.46,-0.47 0.56,-0.84zm0.07 -0.66l1.36 0 0 -0.22 -1.36 0 0 0.22zm1.36 -0.62l-1.36 0 0 0.23 1.36 0 0 -0.23z"/>
  <path id="4" class="fil1" d="M16.11 20.65l0.67 0c0.03,-0.1 0.07,-0.22 0.12,-0.35l0.22 0.06c-0.05,0.11 -0.09,0.21 -0.13,0.29l1.12 0 0 2.18 -0.21 0 0 -0.16 -1.58 0 0 0.16 -0.21 0 0 -2.18zm0.21 1.84l1.58 0 0 -0.43 -1.58 0 0 0.43zm0 -0.62l1.58 0 0 -0.42 -1.58 0 0 0.42zm1.58 -1.03l-1.58 0 0 0.42 1.58 0 0 -0.42z"/>
  <path id="5" class="fil1" d="M22.39 22.52c-0.05,0.07 -0.09,0.14 -0.13,0.19 -0.31,-0.17 -0.54,-0.4 -0.68,-0.68l-0.01 0 0 0.8 -0.18 0 0 -0.8 -0.01 0c-0.16,0.29 -0.39,0.53 -0.72,0.73 -0.03,-0.05 -0.08,-0.1 -0.13,-0.15 0.28,-0.16 0.51,-0.35 0.66,-0.58l-0.56 0 0 -0.17 0.76 0 0 -0.26 -0.31 0 0 0.08 -0.19 0 0 -0.9 -0.26 0 0 -0.17 0.26 0 0 -0.29 0.19 0 0 0.29 0.8 0 0 -0.29 0.19 0 0 0.29 0.27 0 0 0.17 -0.27 0 0 0.9 -0.19 0 0 -0.08 -0.31 0 0 0.26 0.78 0 0 0.17 -0.6 0c0.15,0.21 0.36,0.38 0.64,0.49zm-1.69 -0.21l-0.15 0.16c-0.07,-0.07 -0.14,-0.14 -0.21,-0.2 -0.12,0.19 -0.27,0.36 -0.46,0.52 -0.03,-0.05 -0.07,-0.11 -0.11,-0.16 0.18,-0.14 0.32,-0.31 0.43,-0.5 -0.11,-0.1 -0.22,-0.2 -0.34,-0.31 0.06,-0.23 0.12,-0.49 0.17,-0.79l-0.23 0 0 -0.18 0.26 0c0.03,-0.17 0.06,-0.35 0.08,-0.54l0.2 0.03c-0.03,0.18 -0.06,0.35 -0.08,0.51l0.41 0 0 0.16c-0.04,0.46 -0.11,0.82 -0.23,1.07 0.08,0.08 0.17,0.15 0.26,0.23zm-0.23 -1.28l-0.25 0c-0.05,0.32 -0.11,0.56 -0.16,0.73 0.08,0.07 0.15,0.13 0.23,0.2 0.1,-0.24 0.16,-0.55 0.18,-0.93zm0.61 0.4l0.8 0 0 -0.24 -0.8 0 0 0.24zm0 -0.41l0.8 0 0 -0.24 -0.8 0 0 0.24z"/>
  <path id="6" class="fil1" d="M26.34 22.17c-0.06,0.07 -0.11,0.13 -0.15,0.19 -0.35,-0.26 -0.6,-0.71 -0.76,-1.34l0 1.08 0.38 0 0 0.19 -0.38 0 0 0.54 -0.19 0 0 -0.54 -0.38 0 0 -0.19 0.38 0 0 -1.08 0 0c-0.16,0.59 -0.43,1.05 -0.79,1.38 -0.04,-0.05 -0.09,-0.1 -0.14,-0.16 0.33,-0.3 0.58,-0.71 0.74,-1.22l-0.6 0 0 -0.19 0.79 0 0 -0.52 0.19 0 0 0.52 0.82 0 0 0.19 -0.65 0c0.16,0.53 0.41,0.92 0.74,1.15zm-2.59 -0.63c0.25,-0.36 0.43,-0.77 0.56,-1.24l0.19 0.06c-0.07,0.22 -0.14,0.42 -0.23,0.61l0 1.85 -0.19 0 0 -1.46c-0.07,0.14 -0.16,0.27 -0.24,0.39 -0.03,-0.07 -0.06,-0.14 -0.09,-0.21z"/>
  <polygon id="7" class="fil1" points="28.49,22.17 28.27,22.86 28.09,22.86 28.25,22.17 "/>
  <path id="8" class="fil1" d="M31.71 22.66c0.31,-0.05 0.56,-0.13 0.75,-0.24 -0.14,-0.1 -0.28,-0.23 -0.39,-0.4l0.13 -0.1 -0.2 0 0 -1.08 0.9 0c0,-0.07 0,-0.15 0.01,-0.23l-1.11 0 0 -0.18 2.36 0 0 0.18 -1.06 0c0,0.08 0,0.16 0,0.23l0.86 0 0 1.21 -0.2 0 0 -0.13 -0.72 0c-0.05,0.2 -0.12,0.36 -0.21,0.47 0.34,0.12 0.82,0.19 1.43,0.18 -0.04,0.08 -0.07,0.15 -0.1,0.21 -0.68,-0.02 -1.18,-0.1 -1.5,-0.25 -0.2,0.13 -0.48,0.24 -0.84,0.32 -0.03,-0.07 -0.07,-0.13 -0.11,-0.19zm0.49 -1.37l0.7 0c0,-0.08 0,-0.17 0,-0.27l-0.7 0 0 0.27zm0.7 0.18l-0.7 0 0 0.27 0.67 0c0.01,-0.08 0.02,-0.17 0.03,-0.27zm0.17 0.27l0.69 0 0 -0.27 -0.67 0c0,0.1 -0.01,0.19 -0.02,0.27zm0.69 -0.72l-0.66 0c0,0.1 0,0.19 0,0.27l0.66 0 0 -0.27zm-1.12 1.28c0.09,-0.08 0.16,-0.21 0.2,-0.38l-0.63 0c0.12,0.16 0.26,0.29 0.43,0.38z"/>
  <path id="9" class="fil1" d="M36.08 20.4l1.74 0 0 1.07 -0.19 0 0 -0.1 -1.36 0 0 0.1 -0.19 0 0 -1.07zm0.12 1.45l0.2 0.06c-0.03,0.09 -0.06,0.17 -0.09,0.25 0.13,0.22 0.32,0.34 0.58,0.38l0 -0.77 -1.17 0 0 -0.18 2.47 0 0 0.18 -1.1 0 0 0.26 0.92 0 0 0.17 -0.92 0 0 0.36c0.33,0.01 0.71,0 1.15,-0.01 -0.03,0.07 -0.05,0.14 -0.07,0.2 -0.51,0 -0.89,0 -1.17,-0.01 -0.36,0 -0.62,-0.13 -0.78,-0.4 -0.12,0.21 -0.27,0.38 -0.45,0.52 -0.03,-0.06 -0.07,-0.11 -0.12,-0.17 0.27,-0.19 0.46,-0.47 0.55,-0.84zm0.07 -0.66l1.36 0 0 -0.22 -1.36 0 0 0.22zm1.36 -0.62l-1.36 0 0 0.23 1.36 0 0 -0.23z"/>
  <path id="10" class="fil1" d="M39.75 22.53l0.34 0 0 -1 0.22 0 0 1 0.53 0 0 -1.44 0.21 0 0 0.57 0.79 0 0 0.19 -0.79 0 0 0.68 1.03 0 0 0.19 -2.33 0 0 -0.19zm1.36 -2.21l-0.05 0.07c0.26,0.36 0.64,0.63 1.14,0.83 -0.04,0.05 -0.09,0.13 -0.15,0.22 -0.46,-0.24 -0.84,-0.53 -1.13,-0.89 -0.27,0.35 -0.65,0.67 -1.16,0.95 -0.05,-0.07 -0.1,-0.14 -0.15,-0.21 0.52,-0.24 0.93,-0.56 1.22,-0.97l0.28 0z"/>
  <path id="11" class="fil1" d="M43.61 22.47l0.83 0 0 -2.12 0.21 0 0 2.12 0.45 0 0 -2.12 0.22 0 0 2.12 0.83 0 0 0.19 -2.54 0 0 -0.19zm0.3 -1.62c0.14,0.33 0.28,0.68 0.41,1.05l-0.21 0.1c-0.12,-0.36 -0.24,-0.72 -0.39,-1.07l0.19 -0.08zm1.5 1.08c0.17,-0.37 0.32,-0.72 0.43,-1.06l0.21 0.08c-0.16,0.41 -0.31,0.77 -0.45,1.06l-0.19 -0.08z"/>
  <path id="12" class="fil1" d="M47.96 20.41l1.77 0 0 1.02 -0.2 0 0 -0.08 -1.36 0 0 0.08 -0.21 0 0 -1.02zm1.05 1.23l0.98 0 0 1.19 -0.2 0 0 -0.18 -0.59 0 0 0.18 -0.19 0 0 -1.19zm-1.3 0l0.98 0 0 1.19 -0.2 0 0 -0.17 -0.59 0 0 0.17 -0.19 0 0 -1.19zm1.82 -1.05l-1.36 0 0 0.58 1.36 0 0 -0.58zm0.26 1.23l-0.59 0 0 0.67 0.59 0 0 -0.67zm-1.3 0l-0.59 0 0 0.66 0.59 0 0 -0.66z"/>
  <path id="13" class="fil1" d="M52.45 22.17l0.32 0c-0.04,-0.04 -0.08,-0.09 -0.12,-0.13 0.18,-0.09 0.31,-0.2 0.39,-0.31l-0.41 0 0 -1.15 0.44 0c0.03,-0.08 0.06,-0.18 0.1,-0.29l0.2 0.07c-0.04,0.08 -0.07,0.15 -0.11,0.22l0.67 0 0 1.23 -0.18 0 0 -0.08 -0.49 0c-0.07,0.15 -0.22,0.3 -0.45,0.44l0.52 0 0 -0.33 0.19 0 0 0.33 0.58 0 0 0.18 -0.58 0 0 0.47 -0.19 0 0 -0.47 -0.88 0 0 -0.18zm-0.08 0.63l-0.19 0 0 -0.96 -0.28 0c0,0.44 -0.06,0.78 -0.19,1 -0.05,-0.04 -0.1,-0.09 -0.16,-0.15 0.11,-0.19 0.17,-0.48 0.17,-0.86l0 -1.43 0.18 0 0 0.76 0.26 0 0 -0.84 0.19 0 0 0.84 0.19 0 0 0.15 -0.64 0 0 0.37 0.47 0 0 1.12zm0.95 -1.24l0.43 0 0 -0.33 -0.39 0c-0.01,0.13 -0.02,0.24 -0.04,0.33zm0.43 -0.81l-0.39 0 0 0.32 0.39 0 0 -0.32zm-0.94 0.32l0.37 0 0 -0.32 -0.37 0 0 0.32zm0.37 0.16l-0.37 0 0 0.33 0.32 0c0.02,-0.09 0.04,-0.2 0.05,-0.33z"/>
  <path id="14" class="fil1" d="M55.55 21.3l1.01 0c0.03,-0.17 0.05,-0.37 0.06,-0.59l-0.88 0 0 -0.2 2.09 0 0 0.2 -0.99 0c-0.02,0.22 -0.04,0.42 -0.07,0.59l1.26 0 0 0.21 -1.3 0c-0.14,0.57 -0.49,1.02 -1.08,1.34 -0.04,-0.06 -0.08,-0.12 -0.14,-0.18 0.51,-0.26 0.84,-0.64 1,-1.16l-0.96 0 0 -0.21zm1.31 0.39l0.21 0 0 0.68c0,0.13 0.07,0.2 0.19,0.2l0.35 0c0.12,0 0.19,-0.05 0.2,-0.15 0.01,-0.1 0.02,-0.23 0.03,-0.38 0.07,0.02 0.14,0.05 0.22,0.07 -0.02,0.17 -0.04,0.3 -0.05,0.39 -0.02,0.17 -0.14,0.25 -0.36,0.25l-0.45 0c-0.22,0 -0.34,-0.12 -0.34,-0.35l0 -0.71z"/>
  <path id="15" class="fil1" d="M59.83 21.39l1.9 0 0 0.84 -0.2 0 0 -0.12 -1.52 0c-0.04,0.28 -0.17,0.52 -0.4,0.73 -0.04,-0.06 -0.09,-0.11 -0.14,-0.18 0.24,-0.18 0.36,-0.46 0.36,-0.83l0 -0.44zm-0.09 -0.39l0.94 0 0 -0.25 -1.15 0 0 -0.18 1.15 0 0 -0.27 0.21 0 0 0.27 1.13 0 0 0.18 -1.13 0 0 0.25 0.92 0 0 0.18 -2.07 0 0 -0.18zm1.79 0.56l-0.65 0 0 0.38 0.65 0 0 -0.38zm-1.5 0l0 0.38 0.65 0 0 -0.38 -0.65 0z"/>
  <path id="16" class="fil1" d="M63.55 20.73l0.26 0c0.06,-0.16 0.11,-0.3 0.15,-0.43l0.22 0.06c-0.06,0.13 -0.11,0.25 -0.16,0.37l0.52 0 0 2.04 -0.21 0 0 -0.2 -0.58 0 0 0.22 -0.2 0 0 -2.06zm1.03 0.52c0.16,-0.25 0.29,-0.57 0.4,-0.95l0.22 0.05c-0.04,0.13 -0.09,0.25 -0.13,0.37l0.82 0c-0.02,0.88 -0.03,1.43 -0.05,1.66 -0.01,0.27 -0.15,0.41 -0.42,0.41 -0.16,0 -0.32,-0.01 -0.48,-0.02 -0.01,-0.09 -0.02,-0.16 -0.04,-0.23l0.01 0c0.17,0.03 0.33,0.04 0.47,0.04 0.16,0 0.24,-0.08 0.25,-0.25 0.02,-0.25 0.03,-0.73 0.04,-1.42l-0.69 0c-0.07,0.17 -0.15,0.31 -0.23,0.44 -0.04,-0.03 -0.1,-0.07 -0.17,-0.1zm-0.83 1.13l0.58 0 0 -0.65 -0.58 0 0 0.65zm0.58 -1.46l-0.58 0 0 0.62 0.58 0 0 -0.62zm0.47 0.51l0.16 -0.12c0.19,0.23 0.34,0.42 0.45,0.59l-0.19 0.13c-0.12,-0.2 -0.26,-0.4 -0.42,-0.6z"/>
  <path id="17" class="fil1" d="M68.06 21.25c0.22,-0.27 0.42,-0.58 0.59,-0.96l0.19 0.07c-0.07,0.13 -0.14,0.27 -0.21,0.39l1.29 0 0 0.18 -0.64 0 0 0.4 0.6 0 0 0.17 -0.6 0 0 0.4 0.6 0 0 0.17 -0.6 0 0 0.41 0.68 0 0 0.17 -1.41 0 0 0.19 -0.2 0 0 -1.65c-0.04,0.07 -0.09,0.14 -0.14,0.2 -0.03,-0.04 -0.08,-0.08 -0.15,-0.14zm-0.66 0.43c0.12,-0.03 0.23,-0.06 0.33,-0.09l0 -0.62 -0.31 0 0 -0.18 0.31 0 0 -0.49 0.2 0 0 0.49 0.3 0 0 0.18 -0.3 0 0 0.57c0.1,-0.02 0.2,-0.05 0.3,-0.08 0,0.08 0.01,0.14 0.01,0.2 -0.11,0.03 -0.21,0.06 -0.31,0.09l0 0.78c0,0.17 -0.07,0.27 -0.21,0.27 -0.08,0.01 -0.17,0.01 -0.26,0.01 0,-0.07 -0.01,-0.14 -0.03,-0.21 0.09,0 0.16,0.01 0.21,0.01 0.06,0 0.09,-0.04 0.09,-0.1l0 -0.71c-0.1,0.04 -0.21,0.07 -0.3,0.1l-0.03 -0.22zm1.15 0.8l0.53 0 0 -0.41 -0.53 0 0 0.41zm0 -0.58l0.53 0 0 -0.4 -0.53 0 0 0.4zm0 -0.57l0.53 0 0 -0.4 -0.53 0 0 0.4zm0.47 -0.93l0.16 -0.1c0.09,0.11 0.16,0.22 0.23,0.32l-0.17 0.11c-0.07,-0.11 -0.14,-0.21 -0.22,-0.33z"/>
  <path id="18" class="fil1" d="M72.56 22.83l-0.19 0 0 -1.8 0.59 0 0 -0.73 0.2 0 0 0.73 0.61 0 0 1.5c0,0.19 -0.09,0.29 -0.28,0.29 -0.09,0 -0.23,0 -0.4,0 -0.01,-0.07 -0.03,-0.14 -0.04,-0.21 0.16,0.01 0.28,0.01 0.37,0.01 0.11,0 0.17,-0.05 0.17,-0.14l0 -0.25 -1.03 0 0 0.6zm-0.29 -0.56c0,0.07 0,0.14 0.01,0.21 -0.11,0.05 -0.23,0.12 -0.38,0.21 -0.03,0.02 -0.07,0.05 -0.11,0.09l-0.13 -0.18c0.05,-0.05 0.08,-0.11 0.08,-0.19l0 -0.56 -0.35 0 0 -0.18 0.35 0 0 -0.35 -0.17 0 0 -0.18 0.66 0 0 0.18 -0.3 0 0 0.35 0.36 0 0 0.18 -0.36 0 0 0.61c0.12,-0.07 0.24,-0.13 0.34,-0.19zm0.29 -0.22l1.03 0 0 -0.32 -1.03 0 0 0.32zm1.03 -0.82l-1.03 0 0 0.31 1.03 0 0 -0.31zm-2.22 -0.13c0.17,-0.24 0.3,-0.51 0.4,-0.8l0.19 0.07c-0.04,0.11 -0.09,0.22 -0.15,0.33l0.48 0 0 0.17 -0.57 0c-0.07,0.14 -0.15,0.28 -0.24,0.4 -0.03,-0.06 -0.07,-0.12 -0.11,-0.17zm1.95 -0.27c0.12,-0.14 0.24,-0.28 0.35,-0.44l0.17 0.13c-0.1,0.12 -0.23,0.27 -0.38,0.43l-0.14 -0.12zm-1.03 -0.34l0.14 -0.11c0.12,0.12 0.25,0.26 0.36,0.41l-0.16 0.13c-0.12,-0.16 -0.23,-0.31 -0.34,-0.43z"/>
  <path id="19" class="fil1" d="M75.75 20.41l1.73 0 0 0.8 -0.2 0 0 -0.09 -1.32 0 0 0.09 -0.21 0 0 -0.8zm0.75 1.21l0.21 0c0,0.09 0,0.19 -0.01,0.3 0,0.08 -0.02,0.15 -0.03,0.21 0.37,0.15 0.77,0.32 1.21,0.53l-0.11 0.19c-0.34,-0.17 -0.72,-0.35 -1.17,-0.54 -0.03,0.06 -0.07,0.12 -0.12,0.16 -0.19,0.19 -0.53,0.32 -1,0.39 -0.03,-0.07 -0.07,-0.13 -0.12,-0.19 0.49,-0.08 0.8,-0.19 0.96,-0.34 0.1,-0.1 0.16,-0.24 0.17,-0.43 0.01,-0.1 0.01,-0.19 0.01,-0.28zm-0.89 -0.26l2.02 0 0 0.94 -0.21 0 0 -0.76 -1.6 0 0 0.77 -0.21 0 0 -0.95zm1.67 -0.42l0 -0.34 -1.32 0 0 0.34 1.32 0z"/>
  <path class="fil3" d="M7.31 13.01c0,0.26 0,0.5 0,0.74 0,0.23 0,0.46 0,0.68 0.01,0.23 0.01,0.45 0.02,0.68 0.01,0.22 0.01,0.46 0.02,0.7 0,0.08 -0.01,0.13 -0.05,0.16 -0.03,0.04 -0.08,0.06 -0.15,0.07 -0.16,0.04 -0.31,0.06 -0.45,0.08 -0.13,0.01 -0.29,0.02 -0.48,0.03l0 -0.56 -2.62 0 0 0.27c0,0.17 -0.06,0.27 -0.19,0.29 -0.16,0.03 -0.32,0.06 -0.47,0.08 -0.16,0.01 -0.31,0.02 -0.45,0.02 0,-0.18 0.01,-0.4 0.01,-0.65 0.01,-0.26 0.01,-0.52 0.01,-0.78 0.01,-0.27 0.01,-0.51 0.01,-0.74 0.01,-0.23 0.01,-0.41 0.01,-0.53l0 -1.79c0,-0.36 0,-0.68 0,-0.97 0,-0.28 -0.01,-0.49 -0.02,-0.61l1.27 0.41 2.28 0 0.33 -0.7 1.29 0.67 -0.37 0.4 0 2.05zm0.67 3.9l0 -4.02c0,-0.44 0,-0.8 -0.01,-1.07 0,-0.27 -0.01,-0.51 -0.03,-0.7l1.71 0.28 -0.44 0.42 0 2.64c0,0.52 0,1.04 0.01,1.56 0,0.52 0.01,1 0.03,1.44 0,0.08 -0.01,0.14 -0.03,0.17 -0.03,0.04 -0.08,0.06 -0.14,0.08 -0.18,0.04 -0.36,0.07 -0.54,0.09 -0.18,0.01 -0.37,0.03 -0.56,0.03l0 -0.87 -5.98 0 -0.48 0.69 -1.19 -0.8 0.31 -0.39 0 -2.88c0,-0.23 0,-0.46 0,-0.69 0,-0.23 0,-0.45 0,-0.65 -0.01,-0.2 -0.01,-0.39 -0.02,-0.56 -0.01,-0.18 -0.01,-0.32 -0.02,-0.45l1.69 0.27 -0.45 0.41 0 5 6.14 0zm-7.98 -7.63l7.9 0 0.71 -1.01 1.2 0.95c0,0 0,0 0,0 0,0 0,0 0,0 0,0 -0.09,0.04 -0.27,0.1l-9.54 0 0 -0.04zm5.46 6.27l0.76 0 0 -2.51 -0.76 0 0 2.51zm-1.86 0l0.76 0 0 -2.51 -0.76 0 0 2.51zm1.86 -4.92l0 2.37 0.76 0 0 -2.37 -0.76 0zm-1.86 2.37l0.76 0 0 -2.37 -0.76 0 0 2.37z"/>
  <path id="1" class="fil3" d="M15.6 10.93c0,-0.31 0,-0.65 0,-1.01 -0.01,-0.35 -0.01,-0.7 -0.02,-1.03l1.59 0.52 0.46 0 0.4 -0.83 1.47 0.72 -0.41 0.51 0 2.81 0.36 -0.56 0.87 0.73c0.04,0.03 0.06,0.08 0.06,0.12 0,0.04 -0.03,0.07 -0.09,0.1 -0.06,0.04 -0.13,0.05 -0.23,0.05l-0.97 0 0 0.15c0,0.52 0,1.05 0.01,1.59 0.01,0.54 0.02,1.13 0.03,1.77 0,0.19 -0.03,0.36 -0.08,0.51 -0.05,0.15 -0.15,0.28 -0.28,0.39 -0.14,0.11 -0.32,0.2 -0.56,0.27 -0.23,0.07 -0.52,0.12 -0.88,0.17 -0.01,-0.18 -0.04,-0.33 -0.06,-0.46 -0.03,-0.13 -0.08,-0.25 -0.15,-0.35 -0.07,-0.1 -0.17,-0.19 -0.29,-0.27 -0.12,-0.07 -0.27,-0.14 -0.47,-0.21l0.02 -0.06 1.1 0.05c0.14,0.01 0.23,-0.01 0.29,-0.06 0.05,-0.05 0.08,-0.15 0.08,-0.31l0 -3.28 -1.03 0c-0.02,0.68 -0.07,1.26 -0.16,1.71 -0.09,0.46 -0.22,0.88 -0.38,1.25 -0.17,0.38 -0.39,0.73 -0.65,1.05 -0.26,0.33 -0.58,0.68 -0.96,1.04l-0.04 -0.04c0.19,-0.47 0.35,-0.9 0.47,-1.28 0.12,-0.38 0.21,-0.76 0.29,-1.13 0.07,-0.37 0.12,-0.75 0.15,-1.14 0.04,-0.4 0.05,-0.89 0.06,-1.46l-0.88 0 0 3.4c0,0.2 -0.03,0.37 -0.08,0.51 -0.05,0.15 -0.15,0.28 -0.28,0.39 -0.13,0.11 -0.3,0.2 -0.51,0.27 -0.22,0.07 -0.48,0.12 -0.81,0.17 -0.02,-0.19 -0.04,-0.36 -0.07,-0.49 -0.03,-0.14 -0.08,-0.26 -0.14,-0.36 -0.07,-0.09 -0.16,-0.18 -0.27,-0.25 -0.11,-0.07 -0.26,-0.14 -0.43,-0.2l0.03 -0.06 0.95 0.06c0.14,0.02 0.23,0 0.29,-0.06 0.05,-0.05 0.07,-0.15 0.07,-0.31l0 -3.07 -0.96 0c-0.03,0.66 -0.08,1.22 -0.17,1.67 -0.09,0.46 -0.22,0.88 -0.39,1.27 -0.18,0.39 -0.4,0.76 -0.68,1.11 -0.27,0.35 -0.6,0.71 -1,1.09l-0.05 -0.05c0.2,-0.46 0.36,-0.88 0.49,-1.26 0.14,-0.38 0.25,-0.76 0.33,-1.13 0.08,-0.38 0.13,-0.77 0.17,-1.19 0.03,-0.41 0.06,-0.92 0.06,-1.51l-0.96 0 0 -0.05 0.96 -0.1 0 -0.11 0 -1.75c0,-0.32 0,-0.66 0,-1.02 -0.01,-0.35 -0.01,-0.7 -0.02,-1.03l1.52 0.51 0.49 0 0.4 -0.83 1.44 0.72 -0.38 0.49 0 3.12 0.88 0 0 -0.31 0 -1.67zm1.24 -1.36l0 2.5c0,0.14 0,0.26 0,0.38 0,0.12 0,0.27 -0.01,0.46l1.02 0 0 -3.45 -1.01 0.11zm-4.31 -0.11l0 2.72c0,0.11 0,0.22 0,0.32 0,0.11 -0.01,0.24 -0.01,0.41l0.95 0 0 -3.45 -0.94 0z"/>
  <polygon id="2" class="fil3" points="21.04,19.12 21.62,19.12 25.44,8.85 24.86,8.85 "/>
  <path id="3" class="fil3" d="M26.92 12.11l3.55 0 0 -1.98c-0.56,0.06 -1.14,0.1 -1.72,0.13 -0.59,0.02 -1.19,0.04 -1.83,0.05l-0.02 -0.06c1.54,-0.3 2.84,-0.6 3.91,-0.91 1.06,-0.31 1.89,-0.64 2.49,-0.98l1.58 1.29 -0.73 -0.03c-0.38,0.08 -0.76,0.14 -1.14,0.2 -0.38,0.05 -0.76,0.11 -1.15,0.17l0 2.12 1.69 0 0.69 -1.05 1.25 1c0,0 0,0 0,0 0,0 0,0 0,0 0,0 -0.08,0.03 -0.23,0.1l-3.4 0 0 0.21c0,0.24 0,0.51 0,0.82 0,0.31 0.01,0.7 0.03,1.19l2.09 0 0.74 -1.1 1.28 1.04c0,0 0,0 0,0 0,0 0,0 0,0 0,0 -0.07,0.04 -0.23,0.1l-3.88 0c0.01,0.37 0.02,0.71 0.02,1.04 0.01,0.33 0.01,0.69 0.02,1.08 0,0.17 -0.03,0.33 -0.1,0.48 -0.06,0.15 -0.17,0.28 -0.32,0.4 -0.15,0.12 -0.35,0.22 -0.61,0.31 -0.26,0.08 -0.57,0.15 -0.95,0.19 -0.04,-0.21 -0.09,-0.39 -0.14,-0.54 -0.06,-0.16 -0.16,-0.29 -0.28,-0.41 -0.12,-0.11 -0.29,-0.21 -0.5,-0.31 -0.21,-0.09 -0.48,-0.17 -0.82,-0.26l0.02 -0.06 1.68 0.03c0.18,0.01 0.32,-0.03 0.42,-0.12 0.09,-0.08 0.14,-0.22 0.14,-0.43l0 -1.4 -4.07 0 0 -0.04 4.07 0 0 -2.22 -3.55 0 0 -0.05z"/>
  <path id="4" class="fil3" d="M41.94 10.93c0,-0.31 -0.01,-0.65 -0.01,-1.01 0,-0.35 -0.01,-0.7 -0.01,-1.03l1.59 0.52 0.46 0 0.4 -0.83 1.46 0.72 -0.41 0.51 0 2.81 0.36 -0.56 0.88 0.73c0.04,0.03 0.06,0.08 0.06,0.12 0,0.04 -0.03,0.07 -0.09,0.1 -0.06,0.04 -0.14,0.05 -0.24,0.05l-0.97 0 0 0.15c0,0.52 0.01,1.05 0.01,1.59 0.01,0.54 0.02,1.13 0.03,1.77 0,0.19 -0.02,0.36 -0.07,0.51 -0.06,0.15 -0.15,0.28 -0.29,0.39 -0.14,0.11 -0.32,0.2 -0.55,0.27 -0.23,0.07 -0.53,0.12 -0.89,0.17 -0.01,-0.18 -0.03,-0.33 -0.06,-0.46 -0.03,-0.13 -0.08,-0.25 -0.15,-0.35 -0.07,-0.1 -0.16,-0.19 -0.28,-0.27 -0.12,-0.07 -0.28,-0.14 -0.48,-0.21l0.03 -0.06 1.09 0.05c0.14,0.01 0.24,-0.01 0.29,-0.06 0.05,-0.05 0.08,-0.15 0.08,-0.31l0 -3.28 -1.02 0c-0.02,0.68 -0.08,1.26 -0.17,1.71 -0.08,0.46 -0.21,0.88 -0.38,1.25 -0.17,0.38 -0.38,0.73 -0.64,1.05 -0.26,0.33 -0.58,0.68 -0.96,1.04l-0.04 -0.04c0.19,-0.47 0.34,-0.9 0.46,-1.28 0.12,-0.38 0.22,-0.76 0.29,-1.13 0.07,-0.37 0.13,-0.75 0.16,-1.14 0.03,-0.4 0.05,-0.89 0.06,-1.46l-0.89 0 0 3.4c0,0.2 -0.02,0.37 -0.08,0.51 -0.05,0.15 -0.14,0.28 -0.27,0.39 -0.13,0.11 -0.3,0.2 -0.52,0.27 -0.21,0.07 -0.48,0.12 -0.8,0.17 -0.02,-0.19 -0.05,-0.36 -0.08,-0.49 -0.02,-0.14 -0.07,-0.26 -0.14,-0.36 -0.07,-0.09 -0.16,-0.18 -0.27,-0.25 -0.11,-0.07 -0.25,-0.14 -0.43,-0.2l0.03 -0.06 0.95 0.06c0.14,0.02 0.24,0 0.29,-0.06 0.05,-0.05 0.08,-0.15 0.08,-0.31l0 -3.07 -0.97 0c-0.02,0.66 -0.08,1.22 -0.16,1.67 -0.09,0.46 -0.22,0.88 -0.4,1.27 -0.17,0.39 -0.4,0.76 -0.67,1.11 -0.28,0.35 -0.61,0.71 -1,1.09l-0.06 -0.05c0.2,-0.46 0.37,-0.88 0.5,-1.26 0.13,-0.38 0.24,-0.76 0.32,-1.13 0.08,-0.38 0.14,-0.77 0.17,-1.19 0.04,-0.41 0.06,-0.92 0.07,-1.51l-0.96 0 0 -0.05 0.96 -0.1 0 -0.11 0 -1.75c0,-0.32 0,-0.66 -0.01,-1.02 0,-0.35 -0.01,-0.7 -0.01,-1.03l1.51 0.51 0.5 0 0.4 -0.83 1.43 0.72 -0.38 0.49 0 3.12 0.89 0 0 -0.31 0 -1.67zm1.24 -1.36l0 2.5c0,0.14 0,0.26 0,0.38 0,0.12 0,0.27 -0.01,0.46l1.01 0 0 -3.45 -1 0.11zm-4.32 -0.11l0 2.72c0,0.11 0,0.22 0,0.32 0,0.11 0,0.24 -0.01,0.41l0.96 0 0 -3.45 -0.95 0z"/>
  <path id="5" class="fil3" d="M49.34 17.91c0.62,-0.34 1.18,-0.68 1.67,-1.03 0.5,-0.35 0.95,-0.72 1.35,-1.12 -0.26,-0.34 -0.47,-0.72 -0.64,-1.13 -0.16,-0.42 -0.31,-0.93 -0.43,-1.53l-0.89 0 0 -0.05 3.61 0 0.47 -0.76 1.56 0.94 -0.52 0.4c-0.2,0.38 -0.41,0.73 -0.62,1.05 -0.21,0.32 -0.45,0.61 -0.7,0.89 0.39,0.16 0.81,0.3 1.27,0.41 0.46,0.11 0.98,0.2 1.55,0.26l0 0.07c-0.2,0.16 -0.39,0.36 -0.57,0.58 -0.17,0.21 -0.34,0.53 -0.51,0.95 -0.62,-0.18 -1.16,-0.38 -1.62,-0.59 -0.46,-0.21 -0.86,-0.45 -1.21,-0.72 -0.96,0.69 -2.2,1.16 -3.73,1.43l-0.04 -0.05zm3.43 -8.9l0.92 0 0.38 -0.73 1.38 0.66 -0.34 0.43 0 1.42c0,0.12 0.02,0.21 0.06,0.26 0.05,0.04 0.13,0.06 0.25,0.06l0.15 0c0.1,0 0.2,-0.01 0.27,-0.04 0.08,-0.04 0.16,-0.1 0.23,-0.2l0.05 0c0.31,0.23 0.52,0.4 0.63,0.54 0.12,0.13 0.18,0.25 0.18,0.36 0,0.09 -0.11,0.18 -0.32,0.28 -0.21,0.1 -0.51,0.15 -0.92,0.15l-0.75 0c-0.4,0 -0.68,-0.09 -0.84,-0.27 -0.16,-0.18 -0.24,-0.49 -0.24,-0.92l0 -1.95 -1.4 0 0 0.47c0,0.45 -0.04,0.85 -0.13,1.19 -0.09,0.34 -0.23,0.64 -0.43,0.91 -0.19,0.28 -0.45,0.52 -0.77,0.75 -0.31,0.22 -0.7,0.44 -1.15,0.66l-0.05 -0.05c0.24,-0.28 0.44,-0.53 0.6,-0.77 0.16,-0.23 0.28,-0.47 0.38,-0.72 0.09,-0.25 0.16,-0.52 0.19,-0.8 0.04,-0.29 0.06,-0.62 0.06,-1 0,-0.21 -0.01,-0.41 -0.02,-0.61 0,-0.2 -0.01,-0.38 -0.03,-0.57l1.66 0.49zm-5.69 2.97l0 -0.05 0.95 0 0.38 -0.78 1.42 0.72 -0.41 0.44 0 2.88 1.48 -0.66 0.03 0.05c-0.19,0.22 -0.36,0.43 -0.53,0.61 -0.16,0.18 -0.32,0.36 -0.48,0.52 -0.16,0.17 -0.32,0.33 -0.49,0.5 -0.16,0.16 -0.34,0.33 -0.54,0.52l-0.23 0.52 -0.95 -1.3c0.18,-0.11 0.31,-0.23 0.38,-0.34 0.07,-0.12 0.11,-0.27 0.11,-0.44l0 -3.19 -1.12 0zm4.32 1.12c0.26,0.43 0.53,0.79 0.8,1.07 0.27,0.29 0.57,0.54 0.88,0.77 0.21,-0.27 0.39,-0.55 0.57,-0.83 0.17,-0.28 0.33,-0.62 0.48,-1.01l-2.73 0zm-3.53 -4.62c0.38,0.08 0.7,0.16 0.95,0.25 0.26,0.09 0.46,0.19 0.61,0.3 0.15,0.1 0.26,0.22 0.33,0.34 0.07,0.12 0.1,0.25 0.1,0.4 0,0.1 -0.02,0.21 -0.07,0.31 -0.05,0.11 -0.12,0.2 -0.19,0.28 -0.08,0.07 -0.17,0.14 -0.27,0.18 -0.1,0.05 -0.21,0.08 -0.31,0.08 -0.12,0 -0.22,-0.04 -0.3,-0.12 -0.08,-0.07 -0.15,-0.21 -0.2,-0.4 -0.07,-0.26 -0.16,-0.54 -0.28,-0.83 -0.12,-0.29 -0.26,-0.54 -0.4,-0.76l0.03 -0.03z"/>
  <path id="6" class="fil3" d="M65.07 8.79l-0.46 0.43 0 3.11 0.77 0 0.78 -1.14 1.32 1.1c0,0 0,0 0,0 0,0 0,0 0,0 0,0 -0.08,0.03 -0.25,0.09l-2.62 0 0 1.6c0,0.07 0,0.19 0,0.36 0,0.16 0,0.36 0,0.58 0.01,0.22 0.01,0.46 0.01,0.72 0.01,0.25 0.01,0.5 0.01,0.75 0.01,0.25 0.01,0.47 0.02,0.68 0,0.22 0,0.39 0,0.52 0,0.1 -0.02,0.17 -0.05,0.2 -0.03,0.04 -0.08,0.06 -0.16,0.07 -0.1,0.03 -0.21,0.04 -0.32,0.06 -0.12,0.01 -0.23,0.02 -0.35,0.03 -0.11,0.01 -0.23,0.01 -0.34,0.02 -0.1,0 -0.2,0 -0.28,0 0.01,-0.23 0.02,-0.52 0.03,-0.86 0,-0.34 0.01,-0.68 0.02,-1.03 0,-0.35 0.01,-0.67 0.01,-0.98 0.01,-0.31 0.01,-0.54 0.01,-0.7l0 -2.02 -2.35 0 0 -0.05 2.35 0 0 -1.62c0,-0.09 0,-0.22 -0.01,-0.38 0,-0.17 0,-0.35 -0.01,-0.55 0,-0.21 -0.01,-0.42 -0.02,-0.64 -0.01,-0.22 -0.02,-0.43 -0.03,-0.62l1.92 0.27zm-3.35 5.67l0.03 0.03c-0.31,0.4 -0.67,0.82 -1.07,1.26 -0.39,0.44 -0.8,0.85 -1.22,1.24l-0.24 0.51 -1.02 -1.42c0.19,-0.11 0.31,-0.22 0.38,-0.34 0.07,-0.11 0.11,-0.26 0.11,-0.43l0 -3.2 -1.31 0 0 -0.05 1.08 0 0.42 -0.82 1.58 0.77 -0.46 0.47 0 2.85 1.72 -0.87zm-3.36 -5.96c0.38,0.07 0.7,0.15 0.95,0.24 0.25,0.09 0.46,0.18 0.62,0.29 0.15,0.11 0.27,0.23 0.33,0.36 0.07,0.13 0.1,0.27 0.1,0.42 0,0.12 -0.02,0.23 -0.06,0.33 -0.05,0.1 -0.11,0.19 -0.19,0.27 -0.08,0.08 -0.17,0.14 -0.27,0.18 -0.1,0.05 -0.21,0.07 -0.32,0.07 -0.32,0 -0.52,-0.17 -0.59,-0.5 -0.07,-0.32 -0.15,-0.61 -0.24,-0.88 -0.09,-0.27 -0.21,-0.51 -0.35,-0.74l0.02 -0.04z"/>
 </g>
</svg>
