<?xml version="1.0" encoding="UTF-8"?>
<!DOCTYPE svg PUBLIC "-//W3C//DTD SVG 1.1//EN" "http://www.w3.org/Graphics/SVG/1.1/DTD/svg11.dtd">
<!-- Creator: CorelDRAW 2017 -->
<svg xmlns="http://www.w3.org/2000/svg" xml:space="preserve" width="111px" height="90px" version="1.1" style="shape-rendering:geometricPrecision; text-rendering:geometricPrecision; image-rendering:optimizeQuality; fill-rule:evenodd; clip-rule:evenodd"
viewBox="0 0 1.49 1.2"
 xmlns:xlink="http://www.w3.org/1999/xlink">
 <defs>
  <style type="text/css">
   <![CDATA[
    .fil1 {fill:white}
    .fil0 {fill:white;fill-rule:nonzero}
   ]]>
  </style>
 </defs>
 <g id="图层_x0020_1">
  <metadata id="CorelCorpID_0Corel-Layer"/>
  <path class="fil0" d="M0.05 0l1.15 0 0 0.36 0.29 0.24 -0.29 0.24 0 0.36 -1.2 0 0 -1.2 0.05 0zm1.04 0.11l-0.98 0 0 0.98 0.98 0 0 -0.3 0.23 -0.19 -0.23 -0.19 0 -0.3z"/>
  <polygon class="fil1" points="1.21,0.6 1.15,0.56 1.09,0.51 1.09,0.6 1.09,0.69 1.15,0.65 "/>
  <path class="fil1" d="M1.05 0.15l-0.9 0 0 0.91 0.9 0 0 -0.91zm-0.62 0.41l0 -0.14 -0.07 0 0 0.17 0.07 -0.03zm0.08 0.05l-0.15 0.08 0 0.18 -0.08 0 0 -0.54 0.16 0c0.03,0 0.04,0.01 0.06,0.02 0.01,0.01 0.01,0.03 0.01,0.05l0 0.21zm0.13 0.26l-0.09 0 0 -0.54 0.09 0 0 0.54zm0.05 -0.47c0,-0.02 0,-0.04 0.01,-0.05 0.02,-0.01 0.03,-0.02 0.06,-0.02l0.09 0c0.02,0 0.04,0.01 0.05,0.02 0.02,0.01 0.02,0.03 0.02,0.05l0 0.07 -0.09 0.05 0 -0.1 -0.06 0 0 0.37 0.06 0 0 -0.08 0.09 -0.05 0 0.14c0,0.02 0,0.04 -0.02,0.06 -0.01,0.01 -0.03,0.01 -0.05,0.01l-0.09 0c-0.03,0 -0.04,0 -0.06,-0.01 -0.01,-0.02 -0.01,-0.04 -0.01,-0.06l0 -0.4z"/>
 </g>
</svg>
