<?xml version="1.0" encoding="UTF-8"?>
<!DOCTYPE svg PUBLIC "-//W3C//DTD SVG 1.1//EN" "http://www.w3.org/Graphics/SVG/1.1/DTD/svg11.dtd">
<!-- Creator: CorelDRAW 2017 -->
<svg xmlns="http://www.w3.org/2000/svg" xml:space="preserve" width="339px" height="90px" version="1.1" style="shape-rendering:geometricPrecision; text-rendering:geometricPrecision; image-rendering:optimizeQuality; fill-rule:evenodd; clip-rule:evenodd"
viewBox="0 0 13.91 3.67"
 xmlns:xlink="http://www.w3.org/1999/xlink">
 <defs>
  <style type="text/css">
   <![CDATA[
    .fil1 {fill:white}
    .fil0 {fill:white;fill-rule:nonzero}
   ]]>
  </style>
 </defs>
 <g id="图层_x0020_1">
  <metadata id="CorelCorpID_0Corel-Layer"/>
  <g id="_3110523976128">
   <path class="fil0" d="M0.17 0l3.5 0 0 1.1 0.88 0.73 -0.88 0.74 0 1.1 -3.67 0 0 -3.67 0.17 0zm3.17 0.33l-3.01 0 0 3.01 3.01 0 0 -0.93 0.69 -0.58 -0.69 -0.57 0 -0.93z"/>
   <polygon class="fil1" points="3.7,1.83 3.52,1.7 3.34,1.56 3.34,1.83 3.34,2.11 3.52,1.97 "/>
   <path class="fil0" d="M4.3 0c0.02,0 0.04,0.01 0.06,0.02 0.01,0.02 0.02,0.04 0.02,0.06l0 0.45c0,0.03 -0.01,0.05 -0.02,0.07 -0.02,0.01 -0.04,0.02 -0.06,0.02l-0.2 0 0 -0.62 0.2 0zm-0.02 0.1l-0.08 0 0 0.42 0.08 0 0 -0.42z"/>
   <polygon id="1" class="fil0" points="4.72,0.62 4.48,0.62 4.48,0 4.72,0 4.72,0.1 4.58,0.1 4.58,0.26 4.72,0.19 4.72,0.3 4.58,0.37 4.58,0.52 4.72,0.52 "/>
   <path id="2" class="fil0" d="M4.81 0.08c0,-0.02 0,-0.04 0.02,-0.06 0.01,-0.01 0.03,-0.02 0.06,-0.02l0.11 0c0.03,0 0.05,0.01 0.06,0.02 0.02,0.02 0.03,0.04 0.03,0.06l0 0.02 -0.11 0.05 0 -0.05 -0.07 0 0 0.15 0.18 -0.09 0 0.37c0,0.03 -0.01,0.05 -0.03,0.07 -0.01,0.01 -0.03,0.02 -0.06,0.02l-0.11 0c-0.03,0 -0.05,-0.01 -0.06,-0.02 -0.02,-0.02 -0.02,-0.04 -0.02,-0.07l0 -0.05 0.1 -0.06 0 0.1 0.07 0 0 -0.19 -0.17 0.09 0 -0.34z"/>
   <polygon id="3" class="fil0" points="5.29,0.62 5.18,0.62 5.18,0 5.29,0 "/>
   <path id="4" class="fil0" d="M5.38 0.08c0,-0.02 0.01,-0.04 0.03,-0.06 0.01,-0.01 0.03,-0.02 0.06,-0.02l0.11 0c0.02,0 0.05,0.01 0.06,0.02 0.01,0.02 0.02,0.04 0.02,0.06l0 0.09 -0.1 0.05 0 -0.12 -0.07 0 0 0.42 0.07 0 0 -0.14 -0.04 0.02 0 -0.11 0.14 -0.07 0 0.4 -0.19 0c-0.03,0 -0.05,-0.01 -0.06,-0.02 -0.02,-0.02 -0.03,-0.04 -0.03,-0.07l0 -0.45z"/>
   <path id="5" class="fil0" d="M5.86 0.62l-0.1 0 0 -0.62 0.1 0 0 0.05c0.01,-0.02 0.01,-0.03 0.02,-0.04 0.01,-0.01 0.02,-0.01 0.04,-0.01l0.04 0c0.02,0 0.04,0.01 0.06,0.02 0.01,0.02 0.02,0.04 0.02,0.06l0 0.54 -0.1 0 0 -0.52 -0.08 0 0 0.52z"/>
   <path id="6" class="fil0" d="M6.32 0.08c0,-0.02 0,-0.04 0.02,-0.06 0.01,-0.01 0.03,-0.02 0.06,-0.02l0.11 0c0.03,0 0.05,0.01 0.06,0.02 0.02,0.02 0.02,0.04 0.02,0.06l0 0.02 -0.1 0.05 0 -0.05 -0.07 0 0 0.15 0.17 -0.09 0 0.37c0,0.03 0,0.05 -0.02,0.07 -0.01,0.01 -0.03,0.02 -0.06,0.02l-0.11 0c-0.03,0 -0.05,-0.01 -0.06,-0.02 -0.02,-0.02 -0.02,-0.04 -0.02,-0.07l0 -0.05 0.1 -0.06 0 0.1 0.07 0 0 -0.19 -0.17 0.09 0 -0.34z"/>
   <polygon id="7" class="fil0" points="6.94,0.62 6.69,0.62 6.69,0 6.94,0 6.94,0.1 6.79,0.1 6.79,0.26 6.94,0.19 6.94,0.3 6.79,0.37 6.79,0.52 6.94,0.52 "/>
   <path id="8" class="fil0" d="M7.3 0.31l-0.07 0.04 0.11 0.27 -0.1 0 -0.1 -0.23 -0.02 0.01 0 0.22 -0.1 0 0 -0.62 0.2 0c0.02,0 0.04,0.01 0.06,0.02 0.01,0.02 0.02,0.04 0.02,0.06l0 0.23zm-0.1 -0.06l0 -0.15 -0.08 0 0 0.19 0.08 -0.04z"/>
   <polygon id="9" class="fil0" points="7.46,0.62 7.35,0 7.46,0 7.52,0.4 7.59,0 7.69,0 7.58,0.62 "/>
   <polygon id="10" class="fil0" points="7.85,0.62 7.75,0.62 7.75,0 7.85,0 "/>
   <path id="11" class="fil0" d="M7.95 0.08c0,-0.02 0,-0.04 0.02,-0.06 0.01,-0.01 0.03,-0.02 0.06,-0.02l0.11 0c0.03,0 0.05,0.01 0.06,0.02 0.02,0.02 0.02,0.04 0.02,0.06l0 0.09 -0.1 0.05 0 -0.12 -0.07 0 0 0.42 0.07 0 0 -0.09 0.1 -0.05 0 0.15c0,0.03 0,0.05 -0.02,0.07 -0.01,0.01 -0.03,0.02 -0.06,0.02l-0.11 0c-0.03,0 -0.05,-0.01 -0.06,-0.02 -0.02,-0.02 -0.02,-0.04 -0.02,-0.07l0 -0.45z"/>
   <polygon id="12" class="fil0" points="8.57,0.62 8.32,0.62 8.32,0 8.57,0 8.57,0.1 8.42,0.1 8.42,0.26 8.57,0.19 8.57,0.3 8.42,0.37 8.42,0.52 8.57,0.52 "/>
   <path id="13" class="fil0" d="M8.65 0.08c0,-0.02 0.01,-0.04 0.02,-0.06 0.02,-0.01 0.04,-0.02 0.06,-0.02l0.12 0c0.02,0 0.04,0.01 0.06,0.02 0.01,0.02 0.02,0.04 0.02,0.06l0 0.02 -0.1 0.05 0 -0.05 -0.08 0 0 0.15 0.18 -0.09 0 0.37c0,0.03 -0.01,0.05 -0.02,0.07 -0.02,0.01 -0.04,0.02 -0.06,0.02l-0.12 0c-0.02,0 -0.04,-0.01 -0.06,-0.02 -0.01,-0.02 -0.02,-0.04 -0.02,-0.07l0 -0.05 0.1 -0.06 0 0.1 0.08 0 0 -0.19 -0.18 0.09 0 -0.34z"/>
   <rect class="fil1" x="9.41" width="4.5" height="0.33"/>
   <rect class="fil1" x="12.16" y="3.34" width="1.75" height="0.33"/>
   <rect class="fil1" transform="matrix(1.10479E-14 0.757741 -0.342787 1.64911E-14 13.9148 -1.83454E-05)" width="4.84" height="0.97"/>
   <path class="fil0" d="M5.25 1.49l0.14 0 0 0.04 0.3 0 0.05 -0.06 0.15 0.1 -0.05 0.06 0 0.53 -0.14 0 0 -0.03 -0.31 0 0 0.03 -0.14 0 0 -0.67zm0.66 0.09l0.16 0 0 0.84 -0.16 0 0 -0.09 -0.74 0 -0.04 0.06 -0.15 -0.1c0.03,-0.03 0.04,-0.07 0.04,-0.12l0 -0.59 0.16 0 0 0.65 0.73 0 0 -0.65zm-0.89 -0.26l0.88 0 0.06 -0.07 0.14 0.1 -0.05 0.08 -1.01 0 -0.02 -0.11zm0.59 0.55l0 0.14 0.09 0 0 -0.14 -0.09 0zm-0.22 0l0 0.14 0.09 0 0 -0.14 -0.09 0zm0.22 -0.23l0 0.13 0.09 0 0 -0.13 -0.09 0zm-0.22 0l0 0.13 0.09 0 0 -0.13 -0.09 0z"/>
   <path id="1" class="fil0" d="M6.93 1.28l0.14 0 0 0.04 0.09 0 0.04 -0.07 0.17 0.1 -0.04 0.07 0 0.31 0.01 0 0.05 -0.06 0.13 0.11 -0.04 0.07 -0.15 0 0 0.4c0.02,0.11 -0.04,0.16 -0.18,0.16 0,-0.06 -0.03,-0.08 -0.1,-0.08l-0.01 -0.06c0.1,0 0.14,-0.01 0.13,-0.05l0 -0.37 -0.1 0 0 0.03c0.01,0.25 -0.06,0.43 -0.19,0.54l-0.06 -0.03c0.08,-0.1 0.11,-0.27 0.11,-0.51l0 -0.03 -0.09 0 0 0.38c0.01,0.09 -0.05,0.14 -0.18,0.14 0,-0.05 -0.03,-0.08 -0.1,-0.08l-0.01 -0.05c0.1,0 0.14,-0.01 0.13,-0.05l0 -0.34 -0.08 0 0 0.04c0,0.22 -0.08,0.4 -0.24,0.52l-0.05 -0.03c0.09,-0.12 0.14,-0.29 0.13,-0.5l0 -0.03 -0.13 0 -0.02 -0.12 0.15 0 0 -0.45 0.16 0 0 0.04 0.07 0 0.05 -0.07 0.16 0.1 -0.04 0.06 0 0.32 0.09 0 0 -0.45zm0.14 0.15l0 0.3 0.1 0 0 -0.3 -0.1 0zm-0.47 0l0 0.3 0.08 0 0 -0.3 -0.08 0z"/>
   <path id="2" class="fil0" d="M8.88 1.26l0.11 0.17c-0.11,0.02 -0.24,0.03 -0.39,0.04l0 0.15 0.2 0 0.04 -0.06 0.15 0.1 -0.05 0.08 -0.34 0 0 0.16 0.32 0 0.04 -0.07 0.14 0.11 -0.04 0.08 -0.46 0 0 0.23c0.02,0.12 -0.05,0.18 -0.22,0.18 0,-0.06 -0.04,-0.09 -0.11,-0.09l-0.01 -0.09c0.12,0.02 0.17,0 0.16,-0.05l0 -0.18 -0.5 0 -0.02 -0.12 0.52 0 0 -0.16 -0.37 0 -0.02 -0.12 0.39 0 0 -0.14c-0.17,0.01 -0.3,0.01 -0.41,0.01l-0.01 -0.09c0.38,-0.03 0.67,-0.08 0.88,-0.14z"/>
   <path id="3" class="fil0" d="M9.88 1.28l0.14 0 0 0.04 0.09 0 0.05 -0.07 0.17 0.1 -0.04 0.07 0 0.31 0.01 0 0.04 -0.06 0.14 0.11 -0.04 0.07 -0.15 0 0 0.4c0.02,0.11 -0.04,0.16 -0.18,0.16 0,-0.06 -0.04,-0.08 -0.11,-0.08l-0.01 -0.06c0.1,0 0.15,-0.01 0.14,-0.05l0 -0.37 -0.11 0 0 0.03c0.01,0.25 -0.05,0.43 -0.19,0.54l-0.06 -0.03c0.08,-0.1 0.12,-0.27 0.11,-0.51l0 -0.03 -0.09 0 0 0.38c0.01,0.09 -0.05,0.14 -0.17,0.14 0,-0.05 -0.04,-0.08 -0.1,-0.08l-0.01 -0.05c0.09,0 0.13,-0.01 0.13,-0.05l0 -0.34 -0.09 0 0 0.04c0.01,0.22 -0.07,0.4 -0.23,0.52l-0.06 -0.03c0.1,-0.12 0.14,-0.29 0.14,-0.5l0 -0.03 -0.14 0 -0.02 -0.12 0.16 0 0 -0.45 0.15 0 0 0.04 0.08 0 0.04 -0.07 0.16 0.1 -0.04 0.06 0 0.32 0.09 0 0 -0.45zm0.14 0.15l0 0.3 0.11 0 0 -0.3 -0.11 0zm-0.47 0l0 0.3 0.09 0 0 -0.3 -0.09 0z"/>
   <path id="4" class="fil0" d="M11.73 1.71l-0.2 0 0.16 0.1 -0.07 0.07c-0.05,0.12 -0.09,0.2 -0.14,0.26 0.08,0.04 0.18,0.08 0.32,0.1 -0.05,0.05 -0.09,0.11 -0.13,0.17 -0.12,-0.03 -0.23,-0.08 -0.32,-0.14 -0.1,0.06 -0.22,0.11 -0.36,0.14l-0.06 -0.08c0.13,-0.05 0.23,-0.1 0.31,-0.17 -0.06,-0.07 -0.1,-0.17 -0.14,-0.29l-0.04 0 -0.02 -0.1c0,0 0,0 0,0 -0.01,0.01 -0.01,0.01 -0.02,0.01l-0.06 -0.05c0.1,-0.09 0.15,-0.18 0.14,-0.29l0 -0.16 0.17 0 0 0.04 0.13 0 0.05 -0.07 0.15 0.09 -0.03 0.05 0 0.14c0,0.02 0.01,0.04 0.03,0.04 0.08,0 0.14,0 0.17,-0.01 -0.01,0.03 -0.03,0.07 -0.04,0.14 0,0 0,0 0,0.01zm-1.13 -0.09l0.15 0 0.05 -0.07 0.16 0.12 -0.04 0.05 0 0.34c0.04,-0.04 0.08,-0.07 0.1,-0.09l0.05 0.1c-0.07,0.11 -0.17,0.22 -0.27,0.32l-0.12 -0.13c0.05,-0.04 0.07,-0.08 0.07,-0.13l0 -0.4 -0.13 0 -0.02 -0.11zm0.47 0.13l0.39 0 0.04 -0.04c-0.07,-0.01 -0.1,-0.06 -0.1,-0.14l0 -0.14 -0.13 0 0 0.02c0,0.13 -0.07,0.23 -0.2,0.3zm-0.32 -0.49c0.04,0.01 0.09,0.04 0.16,0.08 0.01,0 0.02,0.01 0.02,0.01 0.02,0.02 0.03,0.04 0.02,0.06 -0.01,0 -0.01,0.01 -0.01,0.02 -0.02,0.04 -0.04,0.07 -0.05,0.09 -0.02,0.02 -0.04,0.02 -0.05,-0.01 -0.05,-0.08 -0.09,-0.14 -0.14,-0.19l0.05 -0.06zm0.48 0.61c0.03,0.07 0.07,0.13 0.11,0.18 0.04,-0.06 0.07,-0.11 0.09,-0.18l-0.2 0z"/>
   <path id="5" class="fil0" d="M12.66 1.24l0.19 0 0 0.42 0.13 0 0.03 -0.06 0.14 0.1 -0.05 0.08 -0.25 0 0 0.64 -0.19 0 0 -0.64 -0.25 0 -0.02 -0.12 0.27 0 0 -0.42zm-0.7 0.41l0.19 0 0.04 -0.07 0.19 0.11 -0.05 0.06 0 0.36c0.01,-0.02 0.04,-0.04 0.09,-0.08 0.02,-0.02 0.03,-0.03 0.04,-0.04l0.06 0.09c-0.06,0.07 -0.16,0.18 -0.31,0.33l-0.11 -0.14c0.04,-0.04 0.05,-0.08 0.05,-0.13l0 -0.38 -0.17 0 -0.02 -0.11zm0.23 -0.37c0.06,0.04 0.11,0.08 0.16,0.12 0.02,0.02 0.03,0.04 0.01,0.06 -0.02,0.03 -0.04,0.06 -0.08,0.09 -0.01,0.01 -0.03,0.02 -0.03,0.01 -0.01,0 -0.02,-0.01 -0.02,-0.02 -0.03,-0.07 -0.06,-0.15 -0.11,-0.22l0.07 -0.04z"/>
   <polygon id="6" class="fil0" points="7.43,2.41 7.8,1.36 7.9,1.36 7.53,2.41 "/>
   <path class="fil1" d="M3.22 0.45l-2.78 0 0 2.78 2.78 0 0 -2.78zm-1.91 1.25l0 -0.43 -0.2 0 0 0.53 0.2 -0.1zm0.26 0.15l-0.46 0.25 0 0.57 -0.26 0 0 -1.66 0.5 0c0.07,0 0.13,0.02 0.16,0.06 0.04,0.04 0.06,0.09 0.06,0.16l0 0.62zm0.38 0.82l-0.26 0 0 -1.66 0.26 0 0 1.66zm0.14 -1.44c0,-0.07 0.02,-0.12 0.06,-0.16 0.04,-0.04 0.09,-0.06 0.16,-0.06l0.29 0c0.07,0 0.12,0.02 0.16,0.06 0.04,0.04 0.06,0.09 0.06,0.16l0 0.22 -0.27 0.14 0 -0.32 -0.19 0 0 1.14 0.19 0 0 -0.24 0.27 -0.14 0 0.41c0,0.07 -0.02,0.13 -0.06,0.17 -0.04,0.04 -0.09,0.06 -0.16,0.06l-0.29 0c-0.07,0 -0.12,-0.02 -0.16,-0.06 -0.04,-0.04 -0.06,-0.1 -0.06,-0.17l0 -1.21z"/>
   <path class="fil0" d="M4.17 3.48l0 -0.09 -0.06 0 0 0.11 0.06 -0.02zm0.08 0.03l-0.14 0.04 0 0.12 -0.08 0 0 -0.33 0.15 0c0.02,0 0.04,0.01 0.05,0.01 0.01,0.01 0.02,0.02 0.02,0.04l0 0.12z"/>
   <polygon id="1" class="fil0" points="4.55,3.67 4.47,3.67 4.47,3.34 4.55,3.34 "/>
   <path id="2" class="fil0" d="M4.78 3.39c0,-0.02 0,-0.03 0.01,-0.04 0.02,0 0.03,-0.01 0.05,-0.01l0.09 0c0.02,0 0.04,0.01 0.05,0.01 0.01,0.01 0.01,0.02 0.01,0.04l0 0.04 -0.08 0.03 0 -0.07 -0.05 0 0 0.22 0.05 0 0 -0.04 0.08 -0.03 0 0.08c0,0.02 0,0.03 -0.01,0.03 -0.01,0.01 -0.03,0.02 -0.05,0.02l-0.09 0c-0.02,0 -0.03,-0.01 -0.05,-0.02 -0.01,0 -0.01,-0.01 -0.01,-0.03l0 -0.23z"/>
   <polygon id="3" class="fil0" points="5.28,3.67 5.28,3.39 5.2,3.39 5.2,3.34 5.44,3.34 5.44,3.39 5.36,3.39 5.36,3.67 "/>
   <path id="4" class="fil0" d="M5.64 3.34l0.08 0 0 0.27 0.06 0 0 -0.27 0.08 0 0 0.28c0,0.02 -0.01,0.03 -0.02,0.03 -0.01,0.01 -0.02,0.02 -0.05,0.02l-0.08 0c-0.02,0 -0.04,-0.01 -0.05,-0.02 -0.01,0 -0.02,-0.01 -0.02,-0.03l0 -0.28z"/>
   <path id="5" class="fil0" d="M6.31 3.5l-0.06 0.02 0.09 0.15 -0.08 0 -0.08 -0.12 -0.01 0 0 0.12 -0.08 0 0 -0.33 0.15 0c0.02,0 0.04,0.01 0.05,0.01 0.01,0.01 0.02,0.02 0.02,0.04l0 0.11zm-0.08 -0.03l0 -0.08 -0.06 0 0 0.1 0.06 -0.02z"/>
   <polygon id="6" class="fil0" points="6.73,3.67 6.54,3.67 6.54,3.34 6.73,3.34 6.73,3.39 6.62,3.39 6.62,3.48 6.73,3.44 6.73,3.5 6.62,3.54 6.62,3.61 6.73,3.61 "/>
   <path id="7" class="fil0" d="M7.23 3.47l0 -0.08 -0.06 0 0 0.1 0.06 -0.02zm0.08 0.2l-0.08 0 0 -0.14 -0.06 0.02 0 0.12 -0.08 0 0 -0.28c0,-0.02 0,-0.03 0.02,-0.04 0.01,0 0.02,-0.01 0.04,-0.01l0.09 0c0.02,0 0.04,0.01 0.05,0.01 0.01,0.01 0.02,0.02 0.02,0.04l0 0.28z"/>
   <polygon id="8" class="fil0" points="7.72,3.61 7.72,3.67 7.54,3.67 7.54,3.34 7.62,3.34 7.62,3.61 "/>
   <path id="9" class="fil0" d="M8.07 3.62l0 -0.11 -0.06 0.02 0 0.09 0.06 0zm0.08 -0.13l0 0.13c0,0.02 -0.01,0.03 -0.02,0.04 -0.01,0 -0.03,0.01 -0.05,0.01l-0.15 0 0 -0.33 0.15 0c0.02,0 0.04,0.01 0.05,0.01 0.01,0.01 0.02,0.02 0.02,0.04l0 0.06c0,0.02 0,0.02 -0.01,0.03 -0.01,0.01 -0.01,0.01 -0.03,0.01l0.04 0zm-0.08 -0.03l0 -0.07 -0.06 0 0 0.09 0.06 -0.02z"/>
   <path id="10" class="fil0" d="M8.38 3.34l0.08 0 0 0.27 0.06 0 0 -0.27 0.08 0 0 0.28c0,0.02 -0.01,0.03 -0.02,0.03 -0.01,0.01 -0.03,0.02 -0.05,0.02l-0.09 0c-0.02,0 -0.03,-0.01 -0.05,-0.02 -0.01,0 -0.01,-0.01 -0.01,-0.03l0 -0.28z"/>
   <path id="11" class="fil0" d="M9.04 3.67l-0.08 0 0 -0.28 -0.05 0 0 0.28 -0.08 0 0 -0.28c0,-0.02 0,-0.03 0.01,-0.04 0.01,0 0.03,-0.01 0.05,-0.01l0.07 0c0.01,0 0.02,0 0.03,0.01 0.01,0.01 0.01,0.01 0.01,0.02 0,-0.01 0.01,-0.02 0.02,-0.02 0,-0.01 0.01,-0.01 0.03,-0.01l0.07 0c0.02,0 0.03,0.01 0.04,0.01 0.01,0.01 0.02,0.02 0.02,0.04l0 0.28 -0.08 0 0 -0.28 -0.06 0 0 0.28z"/>
   <path id="12" class="fil0" d="M9.7 3.34c0.02,0 0.04,0.01 0.05,0.01 0.01,0.01 0.02,0.02 0.02,0.04l0 0.23c0,0.02 -0.01,0.03 -0.02,0.03 -0.01,0.01 -0.03,0.02 -0.05,0.02l-0.15 0 0 -0.33 0.15 0zm-0.01 0.05l-0.06 0 0 0.22 0.06 0 0 -0.22z"/>
   <polygon id="13" class="fil0" points="10.19,3.67 10,3.67 10,3.34 10.19,3.34 10.19,3.39 10.08,3.39 10.08,3.48 10.19,3.44 10.19,3.5 10.08,3.54 10.08,3.61 10.19,3.61 "/>
   <path id="14" class="fil0" d="M10.41 3.39c0,-0.02 0,-0.03 0.02,-0.04 0.01,0 0.02,-0.01 0.04,-0.01l0.09 0c0.02,0 0.04,0.01 0.05,0.01 0.01,0.01 0.02,0.02 0.02,0.04l0 0 -0.08 0.03 0 -0.03 -0.06 0 0 0.08 0.14 -0.04 0 0.19c0,0.02 -0.01,0.03 -0.02,0.03 -0.01,0.01 -0.03,0.02 -0.05,0.02l-0.09 0c-0.02,0 -0.03,-0.01 -0.04,-0.02 -0.02,0 -0.02,-0.01 -0.02,-0.03l0 -0.03 0.08 -0.03 0 0.05 0.06 0 0 -0.1 -0.14 0.05 0 -0.17z"/>
   <polygon id="15" class="fil0" points="10.94,3.67 10.86,3.67 10.86,3.34 10.94,3.34 "/>
   <path id="16" class="fil0" d="M11.17 3.39c0,-0.02 0,-0.03 0.01,-0.04 0.01,0 0.03,-0.01 0.05,-0.01l0.09 0c0.02,0 0.03,0.01 0.05,0.01 0.01,0.01 0.01,0.02 0.01,0.04l0 0.04 -0.08 0.03 0 -0.07 -0.06 0 0 0.22 0.06 0 0 -0.07 -0.03 0.01 0 -0.06 0.11 -0.03 0 0.21 -0.15 0c-0.02,0 -0.04,-0.01 -0.05,-0.02 -0.01,0 -0.01,-0.01 -0.01,-0.03l0 -0.23z"/>
   <path id="17" class="fil0" d="M11.69 3.67l-0.08 0 0 -0.33 0.08 0 0 0.03c0,-0.01 0.01,-0.02 0.02,-0.02 0.01,-0.01 0.02,-0.01 0.03,-0.01l0.03 0c0.02,0 0.03,0.01 0.04,0.01 0.01,0.01 0.02,0.02 0.02,0.04l0 0.28 -0.08 0 0 -0.28 -0.06 0 0 0.28z"/>
  </g>
 </g>
</svg>
