<?xml version="1.0" encoding="UTF-8"?>
<!DOCTYPE svg PUBLIC "-//W3C//DTD SVG 1.1//EN" "http://www.w3.org/Graphics/SVG/1.1/DTD/svg11.dtd">
<!-- Creator: CorelDRAW 2017 -->
<svg xmlns="http://www.w3.org/2000/svg" xml:space="preserve" width="339px" height="90px" version="1.1" style="shape-rendering:geometricPrecision; text-rendering:geometricPrecision; image-rendering:optimizeQuality; fill-rule:evenodd; clip-rule:evenodd"
viewBox="0 0 18.12 4.78"
 xmlns:xlink="http://www.w3.org/1999/xlink">
 <defs>
  <style type="text/css">
   <![CDATA[
    .fil1 {fill:white}
    .fil0 {fill:white;fill-rule:nonzero}
   ]]>
  </style>
 </defs>
 <g id="图层_x0020_1">
  <metadata id="CorelCorpID_0Corel-Layer"/>
  <g id="_3110217049856">
   <path class="fil0" d="M0.22 0l4.56 0 0 1.44 1.15 0.95 -1.15 0.95 0 1.44 -4.78 0 0 -4.78 0.22 0zm4.13 0.43l-3.92 0 0 3.92 3.92 0 0 -1.21 0.9 -0.75 -0.9 -0.75 0 -1.21z"/>
   <polygon class="fil1" points="4.82,2.39 4.58,2.21 4.35,2.03 4.35,2.39 4.35,2.75 4.58,2.57 "/>
   <path class="fil0" d="M5.6 0c0.03,0 0.06,0.01 0.07,0.03 0.02,0.02 0.03,0.05 0.03,0.08l0 0.59c0,0.03 -0.01,0.06 -0.02,0.08 -0.02,0.02 -0.05,0.03 -0.08,0.03l-0.26 0 0 -0.81 0.26 0zm-0.03 0.13l-0.1 0 0 0.55 0.1 0 0 -0.55z"/>
   <polygon id="1" class="fil0" points="6.15,0.81 5.83,0.81 5.83,0 6.15,0 6.15,0.13 5.96,0.13 5.96,0.34 6.15,0.24 6.15,0.39 5.96,0.48 5.96,0.68 6.15,0.68 "/>
   <path id="2" class="fil0" d="M6.26 0.11c0,-0.03 0.01,-0.06 0.03,-0.08 0.02,-0.02 0.04,-0.03 0.08,-0.03l0.15 0c0.03,0 0.06,0.01 0.08,0.03 0.01,0.02 0.02,0.05 0.02,0.08l0 0.02 -0.13 0.07 0 -0.07 -0.1 0 0 0.2 0.23 -0.12 0 0.49c0,0.03 -0.01,0.06 -0.02,0.08 -0.02,0.02 -0.05,0.03 -0.08,0.03l-0.15 0c-0.04,0 -0.06,-0.01 -0.08,-0.03 -0.02,-0.02 -0.03,-0.05 -0.03,-0.08l0 -0.08 0.13 -0.07 0 0.13 0.1 0 0 -0.25 -0.23 0.12 0 -0.44z"/>
   <polygon id="3" class="fil0" points="6.88,0.81 6.75,0.81 6.75,0 6.88,0 "/>
   <path id="4" class="fil0" d="M7.01 0.11c0,-0.03 0.01,-0.06 0.03,-0.08 0.02,-0.02 0.04,-0.03 0.08,-0.03l0.15 0c0.03,0 0.06,0.01 0.08,0.03 0.01,0.02 0.02,0.05 0.02,0.08l0 0.12 -0.13 0.06 0 -0.16 -0.1 0 0 0.55 0.1 0 0 -0.18 -0.05 0.03 0 -0.15 0.18 -0.09 0 0.52 -0.25 0c-0.04,0 -0.06,-0.01 -0.08,-0.03 -0.02,-0.02 -0.03,-0.05 -0.03,-0.08l0 -0.59z"/>
   <path id="5" class="fil0" d="M7.64 0.81l-0.14 0 0 -0.81 0.14 0 0 0.06c0,-0.02 0.01,-0.03 0.02,-0.04 0.01,-0.01 0.03,-0.02 0.05,-0.02l0.05 0c0.03,0 0.06,0.01 0.08,0.03 0.02,0.02 0.03,0.05 0.03,0.08l0 0.7 -0.14 0 0 -0.68 -0.09 0 0 0.68z"/>
   <path id="6" class="fil0" d="M8.23 0.11c0,-0.03 0,-0.06 0.02,-0.08 0.02,-0.02 0.05,-0.03 0.08,-0.03l0.15 0c0.03,0 0.06,0.01 0.08,0.03 0.02,0.02 0.03,0.05 0.03,0.08l0 0.02 -0.14 0.07 0 -0.07 -0.09 0 0 0.2 0.23 -0.12 0 0.49c0,0.03 -0.01,0.06 -0.03,0.08 -0.02,0.02 -0.05,0.03 -0.08,0.03l-0.15 0c-0.03,0 -0.06,-0.01 -0.08,-0.03 -0.02,-0.02 -0.02,-0.05 -0.02,-0.08l0 -0.08 0.13 -0.07 0 0.13 0.09 0 0 -0.25 -0.22 0.12 0 -0.44z"/>
   <polygon id="7" class="fil0" points="9.03,0.81 8.71,0.81 8.71,0 9.03,0 9.03,0.13 8.85,0.13 8.85,0.34 9.03,0.24 9.03,0.39 8.85,0.48 8.85,0.68 9.03,0.68 "/>
   <path id="8" class="fil0" d="M9.51 0.4l-0.1 0.05 0.15 0.36 -0.14 0 -0.12 -0.3 -0.02 0.01 0 0.29 -0.13 0 0 -0.81 0.25 0c0.04,0 0.06,0.01 0.08,0.03 0.02,0.02 0.03,0.05 0.03,0.08l0 0.29zm-0.13 -0.07l0 -0.2 -0.1 0 0 0.24 0.1 -0.04z"/>
   <polygon id="9" class="fil0" points="9.72,0.81 9.58,0 9.71,0 9.8,0.52 9.88,0 10.02,0 9.88,0.81 "/>
   <polygon id="10" class="fil0" points="10.22,0.81 10.09,0.81 10.09,0 10.22,0 "/>
   <path id="11" class="fil0" d="M10.35 0.11c0,-0.03 0.01,-0.06 0.03,-0.08 0.02,-0.02 0.04,-0.03 0.07,-0.03l0.15 0c0.04,0 0.06,0.01 0.08,0.03 0.02,0.02 0.03,0.05 0.03,0.08l0 0.11 -0.13 0.06 0 -0.15 -0.1 0 0 0.55 0.1 0 0 -0.12 0.13 -0.06 0 0.2c0,0.03 -0.01,0.06 -0.03,0.08 -0.02,0.02 -0.04,0.03 -0.08,0.03l-0.15 0c-0.03,0 -0.05,-0.01 -0.07,-0.03 -0.02,-0.02 -0.03,-0.05 -0.03,-0.08l0 -0.59z"/>
   <polygon id="12" class="fil0" points="11.16,0.81 10.84,0.81 10.84,0 11.16,0 11.16,0.13 10.97,0.13 10.97,0.34 11.16,0.24 11.16,0.39 10.97,0.48 10.97,0.68 11.16,0.68 "/>
   <path id="13" class="fil0" d="M11.27 0.11c0,-0.03 0.01,-0.06 0.03,-0.08 0.02,-0.02 0.04,-0.03 0.08,-0.03l0.14 0c0.04,0 0.06,0.01 0.08,0.03 0.02,0.02 0.03,0.05 0.03,0.08l0 0.02 -0.13 0.07 0 -0.07 -0.1 0 0 0.2 0.23 -0.12 0 0.49c0,0.03 -0.01,0.06 -0.03,0.08 -0.02,0.02 -0.04,0.03 -0.08,0.03l-0.14 0c-0.04,0 -0.06,-0.01 -0.08,-0.03 -0.02,-0.02 -0.03,-0.05 -0.03,-0.08l0 -0.08 0.13 -0.07 0 0.13 0.1 0 0 -0.25 -0.23 0.12 0 -0.44z"/>
   <rect class="fil1" x="12.26" width="5.86" height="0.43"/>
   <rect class="fil1" x="15.84" y="4.35" width="2.28" height="0.43"/>
   <rect class="fil1" transform="matrix(1.10478E-14 0.757736 -0.342784 1.6491E-14 18.1231 9.41922E-06)" width="6.31" height="1.26"/>
   <path class="fil0" d="M6.46 1.96l0.21 0 0 -0.34 0.21 0 0 0.34 0.02 0 0.05 -0.07 0.15 0.13 -0.04 0.08 -0.18 0 0 0.13 0.02 -0.02c0.08,0.06 0.15,0.1 0.19,0.15 0.01,0.01 0.01,0.02 0,0.05 -0.02,0.05 -0.05,0.09 -0.08,0.12 -0.02,0.02 -0.04,0.02 -0.05,0 -0.02,-0.06 -0.04,-0.12 -0.08,-0.19l0 0.81 -0.21 0 0 -0.62c-0.08,0.14 -0.14,0.22 -0.18,0.27l-0.08 -0.06c0.1,-0.2 0.18,-0.41 0.24,-0.64l-0.16 0 -0.03 -0.14zm0.61 0.17l0.7 0 0.06 -0.08 0.18 0.14 -0.05 0.09 -0.34 0 0 0.65c0.02,0.14 -0.07,0.21 -0.25,0.23 0.01,-0.08 -0.05,-0.14 -0.17,-0.15l0 -0.1c0.14,0.03 0.21,0 0.2,-0.07l0 -0.56 -0.3 0 -0.03 -0.15zm0.07 -0.41l0.55 0 0.06 -0.08 0.19 0.15 -0.06 0.08 -0.71 0 -0.03 -0.15zm-0.21 1.17c0.1,-0.15 0.17,-0.31 0.23,-0.47l0.21 0.09c-0.1,0.17 -0.22,0.32 -0.35,0.44l-0.09 -0.06zm0.8 -0.44c0.13,0.1 0.23,0.19 0.29,0.27 0.01,0.02 0.02,0.04 0,0.07 -0.05,0.07 -0.09,0.12 -0.12,0.14 -0.03,0.03 -0.05,0.03 -0.07,-0.01 -0.05,-0.14 -0.11,-0.27 -0.18,-0.41l0.08 -0.06z"/>
   <path id="1" class="fil0" d="M8.85 1.68l0.22 0 0 0.04 0.33 0 0.07 -0.08 0.23 0.14 -0.07 0.09 0 0.64 -0.22 0 0 -0.04 -0.34 0 0 0.04 -0.22 0 0 -0.83zm-0.65 0.4l0.19 0 0.08 -0.08 0.2 0.15 -0.06 0.07 0 0.44c0.02,-0.01 0.07,-0.06 0.14,-0.13l0.07 0.13c-0.14,0.19 -0.27,0.33 -0.36,0.42l-0.15 -0.17c0.06,-0.05 0.09,-0.1 0.08,-0.17l0 -0.51 -0.16 0 -0.03 -0.15zm0.87 -0.2l0 0.43 0.34 0 0 -0.43 -0.34 0zm-0.42 1.2c0.14,-0.17 0.24,-0.34 0.31,-0.51l0.22 0.1c-0.11,0.17 -0.26,0.33 -0.44,0.47l-0.09 -0.06zm0.74 -0.49c0.13,0.09 0.25,0.18 0.35,0.29 0.02,0.01 0.02,0.04 0,0.07 -0.02,0.05 -0.05,0.1 -0.1,0.15 -0.02,0.02 -0.04,0.02 -0.05,0.02 -0.01,0 -0.02,-0.01 -0.03,-0.04 -0.09,-0.19 -0.17,-0.33 -0.24,-0.42l0.07 -0.07zm-1 -0.97c0.07,0.02 0.15,0.06 0.25,0.13 0.03,0.02 0.03,0.04 0.02,0.07 -0.02,0.06 -0.04,0.11 -0.08,0.15 -0.01,0.02 -0.02,0.03 -0.03,0.03 -0.01,-0.01 -0.03,-0.02 -0.03,-0.04 -0.05,-0.07 -0.12,-0.16 -0.19,-0.26l0.06 -0.08z"/>
   <path id="2" class="fil0" d="M14.72 2.22l-0.25 0 0.2 0.13 -0.09 0.09c-0.06,0.16 -0.12,0.27 -0.18,0.34 0.1,0.06 0.24,0.1 0.42,0.13 -0.07,0.07 -0.12,0.14 -0.17,0.23 -0.16,-0.05 -0.3,-0.11 -0.42,-0.19 -0.12,0.08 -0.28,0.14 -0.47,0.19l-0.08 -0.11c0.17,-0.06 0.31,-0.13 0.41,-0.22 -0.08,-0.09 -0.13,-0.22 -0.18,-0.37l-0.06 0 -0.02 -0.14c0,0 0,0 0,0 -0.01,0.01 -0.02,0.01 -0.03,0.01l-0.08 -0.06c0.13,-0.11 0.2,-0.24 0.19,-0.38l0 -0.21 0.22 0 0 0.05 0.17 0 0.06 -0.09 0.2 0.12 -0.05 0.07 0 0.17c0.01,0.04 0.02,0.06 0.05,0.06 0.1,0 0.17,-0.01 0.22,-0.01 -0.02,0.03 -0.04,0.09 -0.06,0.18 0,0 0,0.01 0,0.01zm-1.47 -0.12l0.2 0 0.07 -0.08 0.2 0.15 -0.05 0.06 0 0.45c0.06,-0.05 0.1,-0.09 0.13,-0.12l0.07 0.13c-0.1,0.15 -0.22,0.28 -0.36,0.41l-0.15 -0.17c0.07,-0.04 0.09,-0.1 0.09,-0.17l0 -0.51 -0.17 0 -0.03 -0.15zm0.62 0.18l0.51 0 0.05 -0.06c-0.09,-0.01 -0.13,-0.07 -0.13,-0.18l0 -0.18 -0.17 0 0 0.03c0,0.16 -0.09,0.29 -0.26,0.39zm-0.42 -0.64c0.05,0.01 0.12,0.05 0.21,0.1 0.02,0.01 0.02,0.01 0.03,0.01 0.02,0.03 0.03,0.05 0.02,0.08 -0.01,0 -0.01,0.01 -0.02,0.03 -0.02,0.06 -0.04,0.1 -0.06,0.12 -0.02,0.02 -0.04,0.02 -0.07,-0.02 -0.05,-0.1 -0.11,-0.18 -0.18,-0.24l0.07 -0.08zm0.63 0.8c0.04,0.08 0.09,0.16 0.15,0.22 0.04,-0.07 0.08,-0.14 0.11,-0.22l-0.26 0z"/>
   <path id="3" class="fil0" d="M15.95 1.62l0.24 0 0 0.54 0.16 0 0.05 -0.08 0.17 0.13 -0.06 0.11 -0.32 0 0 0.83 -0.24 0 0 -0.83 -0.33 0 -0.03 -0.16 0.36 0 0 -0.54zm-0.93 0.52l0.26 0 0.05 -0.09 0.24 0.14 -0.06 0.09 0 0.46c0.02,-0.02 0.06,-0.05 0.11,-0.1 0.03,-0.03 0.05,-0.04 0.06,-0.05l0.08 0.11c-0.08,0.09 -0.21,0.23 -0.4,0.43l-0.16 -0.18c0.06,-0.05 0.08,-0.11 0.08,-0.17l0 -0.49 -0.23 0 -0.03 -0.15zm0.3 -0.48c0.09,0.05 0.16,0.1 0.21,0.16 0.04,0.03 0.04,0.05 0.02,0.08 -0.02,0.03 -0.05,0.07 -0.1,0.11 -0.02,0.02 -0.04,0.02 -0.05,0.02 -0.01,0 -0.02,-0.01 -0.03,-0.03 -0.03,-0.09 -0.08,-0.19 -0.13,-0.29l0.08 -0.05z"/>
   <polygon id="4" class="fil0" points="10.64,2.79 10.64,2.98 10.19,2.98 10.19,1.82 10.38,1.82 10.38,2.79 "/>
   <path id="5" class="fil0" d="M10.8 1.97c0,-0.05 0.01,-0.08 0.04,-0.11 0.02,-0.03 0.06,-0.04 0.11,-0.04l0.21 0c0.05,0 0.09,0.01 0.12,0.04 0.03,0.03 0.04,0.06 0.04,0.11l0 0.85c0,0.05 -0.01,0.09 -0.04,0.12 -0.03,0.03 -0.07,0.04 -0.12,0.04l-0.21 0c-0.05,0 -0.09,-0.01 -0.11,-0.04 -0.03,-0.03 -0.04,-0.07 -0.04,-0.12l0 -0.85zm0.33 0.03l-0.14 0 0 0.8 0.14 0 0 -0.8z"/>
   <path id="6" class="fil0" d="M11.53 1.97c0,-0.05 0.01,-0.08 0.04,-0.11 0.03,-0.03 0.06,-0.04 0.11,-0.04l0.21 0c0.05,0 0.09,0.01 0.12,0.04 0.03,0.03 0.04,0.06 0.04,0.11l0 0.17 -0.19 0.1 0 -0.24 -0.14 0 0 0.8 0.14 0 0 -0.27 -0.08 0.04 0 -0.21 0.27 -0.13 0 0.75 -0.37 0c-0.05,0 -0.08,-0.01 -0.11,-0.04 -0.03,-0.03 -0.04,-0.07 -0.04,-0.12l0 -0.85z"/>
   <path id="7" class="fil0" d="M12.26 1.97c0,-0.05 0.01,-0.08 0.04,-0.11 0.03,-0.03 0.07,-0.04 0.12,-0.04l0.21 0c0.05,0 0.09,0.01 0.11,0.04 0.03,0.03 0.04,0.06 0.04,0.11l0 0.85c0,0.05 -0.01,0.09 -0.04,0.12 -0.02,0.03 -0.06,0.04 -0.11,0.04l-0.21 0c-0.05,0 -0.09,-0.01 -0.12,-0.04 -0.03,-0.03 -0.04,-0.07 -0.04,-0.12l0 -0.85zm0.33 0.03l-0.14 0 0 0.8 0.14 0 0 -0.8z"/>
   <path class="fil1" d="M4.19 0.59l-3.61 0 0 3.61 3.61 0 0 -3.61zm-2.69 2.44l0 0.3 -0.57 0 0 -1.87 0.25 0 0 1.57 0.32 0zm0.07 -1.32c0,-0.08 0.01,-0.14 0.05,-0.18 0.03,-0.05 0.08,-0.07 0.14,-0.07l0.28 0c0.06,0 0.11,0.02 0.14,0.07 0.04,0.04 0.06,0.1 0.06,0.18l0 1.36c0,0.09 -0.02,0.15 -0.05,0.19 -0.04,0.05 -0.09,0.07 -0.15,0.07l-0.28 0c-0.06,0 -0.11,-0.02 -0.14,-0.07 -0.04,-0.04 -0.05,-0.1 -0.05,-0.19l0 -1.36zm0.42 0.05l-0.18 0 0 1.27 0.18 0 0 -1.27zm0.38 -0.05c0,-0.08 0.01,-0.14 0.05,-0.18 0.03,-0.05 0.08,-0.07 0.14,-0.07l0.28 0c0.06,0 0.11,0.02 0.14,0.07 0.04,0.04 0.06,0.1 0.06,0.18l0 0.27 -0.25 0.16 0 -0.38 -0.18 0 0 1.27 0.18 0 0 -0.42 -0.1 0.07 0 -0.34 0.35 -0.22 0 1.21 -0.48 0c-0.06,0 -0.11,-0.02 -0.14,-0.07 -0.04,-0.04 -0.05,-0.1 -0.05,-0.19l0 -1.36zm0.8 0c0,-0.08 0.02,-0.14 0.05,-0.18 0.04,-0.05 0.08,-0.07 0.15,-0.07l0.27 0c0.06,0 0.11,0.02 0.15,0.07 0.03,0.04 0.05,0.1 0.05,0.18l0 1.36c0,0.09 -0.02,0.15 -0.05,0.19 -0.04,0.05 -0.09,0.07 -0.15,0.07l-0.27 0c-0.07,0 -0.11,-0.02 -0.15,-0.07 -0.03,-0.04 -0.05,-0.1 -0.05,-0.19l0 -1.36zm0.42 0.05l-0.18 0 0 1.27 0.18 0 0 -1.27z"/>
   <path class="fil0" d="M5.43 4.71l0 -0.14 -0.08 0.03 0 0.11 0.08 0zm0.1 -0.16l0 0.17c0,0.02 -0.01,0.03 -0.02,0.04 -0.02,0.01 -0.04,0.02 -0.07,0.02l-0.19 0 0 -0.43 0.19 0c0.03,0 0.05,0.01 0.07,0.02 0.01,0.01 0.02,0.02 0.02,0.04l0 0.09c0,0.01 0,0.02 -0.01,0.03 -0.01,0.01 -0.02,0.02 -0.04,0.02l0.05 0zm-0.1 -0.05l0 -0.08 -0.08 0 0 0.11 0.08 -0.03z"/>
   <polygon id="1" class="fil0" points="9.17,4.71 9.17,4.78 8.93,4.78 8.93,4.35 9.03,4.35 9.03,4.71 "/>
   <path id="2" class="fil0" d="M6.23 4.56l-0.08 0.03 0.12 0.19 -0.11 0 -0.1 -0.16 -0.01 0 0 0.16 -0.1 0 0 -0.43 0.19 0c0.03,0 0.05,0.01 0.07,0.02 0.01,0.01 0.02,0.02 0.02,0.04l0 0.15zm-0.1 -0.04l0 -0.1 -0.08 0 0 0.13 0.08 -0.03z"/>
   <path id="3" class="fil0" d="M6.82 4.52l0 -0.1 -0.07 0 0 0.13 0.07 -0.03zm0.11 0.26l-0.11 0 0 -0.18 -0.07 0.02 0 0.16 -0.11 0 0 -0.37c0,-0.02 0.01,-0.03 0.03,-0.04 0.01,-0.01 0.03,-0.02 0.06,-0.02l0.11 0c0.03,0 0.05,0.01 0.07,0.02 0.01,0.01 0.02,0.02 0.02,0.04l0 0.37z"/>
   <path id="4" class="fil0" d="M7.45 4.78l-0.1 0 0 -0.43 0.1 0 0 0.04c0,-0.02 0.01,-0.02 0.02,-0.03 0.01,-0.01 0.02,-0.01 0.04,-0.01l0.03 0c0.03,0 0.05,0.01 0.07,0.02 0.01,0.01 0.02,0.02 0.02,0.04l0 0.37 -0.1 0 0 -0.36 -0.08 0 0 0.36z"/>
   <path id="5" class="fil0" d="M8.25 4.35c0.02,0 0.04,0.01 0.06,0.02 0.01,0.01 0.02,0.02 0.02,0.04l0 0.31c0,0.02 -0.01,0.03 -0.02,0.04 -0.02,0.01 -0.04,0.02 -0.06,0.02l-0.2 0 0 -0.43 0.2 0zm-0.02 0.07l-0.08 0 0 0.29 0.08 0 0 -0.29z"/>
   <path id="6" class="fil0" d="M9.56 4.41c0,-0.02 0,-0.03 0.02,-0.04 0.01,-0.01 0.03,-0.02 0.06,-0.02l0.12 0c0.02,0 0.04,0.01 0.06,0.02 0.01,0.01 0.02,0.02 0.02,0.04l0 0.31c0,0.02 -0.01,0.03 -0.02,0.04 -0.02,0.01 -0.04,0.02 -0.06,0.02l-0.12 0c-0.03,0 -0.05,-0.01 -0.06,-0.02 -0.02,-0.01 -0.02,-0.02 -0.02,-0.04l0 -0.31zm0.18 0.01l-0.08 0 0 0.29 0.08 0 0 -0.29z"/>
   <path id="7" class="fil0" d="M10.26 4.41c0,-0.02 0,-0.03 0.02,-0.04 0.01,-0.01 0.03,-0.02 0.06,-0.02l0.11 0c0.03,0 0.05,0.01 0.07,0.02 0.01,0.01 0.02,0.02 0.02,0.04l0 0.06 -0.1 0.04 0 -0.09 -0.08 0 0 0.29 0.08 0 0 -0.1 -0.05 0.02 0 -0.08 0.15 -0.05 0 0.28 -0.2 0c-0.03,0 -0.05,-0.01 -0.06,-0.02 -0.02,-0.01 -0.02,-0.02 -0.02,-0.04l0 -0.31z"/>
   <path id="8" class="fil0" d="M10.96 4.41c0,-0.02 0,-0.03 0.02,-0.04 0.01,-0.01 0.03,-0.02 0.06,-0.02l0.11 0c0.03,0 0.05,0.01 0.07,0.02 0.01,0.01 0.02,0.02 0.02,0.04l0 0.31c0,0.02 -0.01,0.03 -0.02,0.04 -0.02,0.01 -0.04,0.02 -0.07,0.02l-0.11 0c-0.03,0 -0.05,-0.01 -0.06,-0.02 -0.02,-0.01 -0.02,-0.02 -0.02,-0.04l0 -0.31zm0.17 0.01l-0.07 0 0 0.29 0.07 0 0 -0.29z"/>
   <path id="9" class="fil0" d="M12.04 4.35c0.02,0 0.04,0.01 0.06,0.02 0.01,0.01 0.02,0.02 0.02,0.04l0 0.31c0,0.02 -0.01,0.03 -0.02,0.04 -0.02,0.01 -0.04,0.02 -0.06,0.02l-0.2 0 0 -0.43 0.2 0zm-0.02 0.07l-0.08 0 0 0.29 0.08 0 0 -0.29z"/>
   <polygon id="10" class="fil0" points="12.79,4.78 12.54,4.78 12.54,4.35 12.79,4.35 12.79,4.42 12.64,4.42 12.64,4.53 12.79,4.48 12.79,4.56 12.64,4.61 12.64,4.71 12.79,4.71 "/>
   <path id="11" class="fil0" d="M13.19 4.41c0,-0.02 0.01,-0.03 0.02,-0.04 0.02,-0.01 0.04,-0.02 0.06,-0.02l0.12 0c0.03,0 0.05,0.01 0.06,0.02 0.02,0.01 0.02,0.02 0.02,0.04l0 0.01 -0.1 0.04 0 -0.04 -0.08 0 0 0.11 0.18 -0.07 0 0.26c0,0.02 0,0.03 -0.02,0.04 -0.01,0.01 -0.03,0.02 -0.06,0.02l-0.12 0c-0.02,0 -0.04,-0.01 -0.06,-0.02 -0.01,-0.01 -0.02,-0.02 -0.02,-0.04l0 -0.04 0.1 -0.04 0 0.07 0.08 0 0 -0.13 -0.18 0.06 0 -0.23z"/>
   <polygon id="12" class="fil0" points="13.99,4.78 13.89,4.78 13.89,4.35 13.99,4.35 "/>
   <path id="13" class="fil0" d="M14.41 4.41c0,-0.02 0.01,-0.03 0.02,-0.04 0.02,-0.01 0.04,-0.02 0.06,-0.02l0.12 0c0.03,0 0.05,0.01 0.06,0.02 0.02,0.01 0.02,0.02 0.02,0.04l0 0.06 -0.1 0.04 0 -0.09 -0.08 0 0 0.29 0.08 0 0 -0.1 -0.04 0.02 0 -0.08 0.14 -0.05 0 0.28 -0.2 0c-0.02,0 -0.04,-0.01 -0.06,-0.02 -0.01,-0.01 -0.02,-0.02 -0.02,-0.04l0 -0.31z"/>
   <path id="14" class="fil0" d="M15.22 4.78l-0.11 0 0 -0.43 0.11 0 0 0.04c0,-0.02 0,-0.02 0.02,-0.03 0,-0.01 0.02,-0.01 0.04,-0.01l0.03 0c0.03,0 0.05,0.01 0.06,0.02 0.02,0.01 0.03,0.02 0.03,0.04l0 0.37 -0.11 0 0 -0.36 -0.07 0 0 0.36z"/>
  </g>
 </g>
</svg>
