<?xml version="1.0" encoding="UTF-8" standalone="no"?>
<!DOCTYPE svg PUBLIC "-//W3C//DTD SVG 1.1//EN"
 "http://www.w3.org/Graphics/SVG/1.1/DTD/svg11.dtd">
<!-- Generated by graphviz version 2.40.1 (20161225.0304)
 -->
<!-- Title: controllers_diagram Pages: 1 -->
<svg width="673pt" height="597pt"
 viewBox="0.00 0.00 672.88 597.00" xmlns="http://www.w3.org/2000/svg" xmlns:xlink="http://www.w3.org/1999/xlink">
<g id="graph0" class="graph" transform="scale(1 1) rotate(0) translate(4 593)">
<title>controllers_diagram</title>
<polygon fill="transparent" stroke="transparent" points="-4,4 -4,-593 668.876,-593 668.876,4 -4,4"/>
<!-- _diagram_info -->
<g id="node1" class="node">
<title>_diagram_info</title>
<text text-anchor="start" x="408" y="-442.6" font-family="Times,serif" font-size="13.00" fill="#000000">Controllers diagram</text>
<text text-anchor="start" x="408" y="-429.6" font-family="Times,serif" font-size="13.00" fill="#000000">Date: Sep 08 2017 &#45; 15:16</text>
<text text-anchor="start" x="408" y="-416.6" font-family="Times,serif" font-size="13.00" fill="#000000">Migration version: 20170608054740</text>
<text text-anchor="start" x="408" y="-403.6" font-family="Times,serif" font-size="13.00" fill="#000000">Generated by RailRoady 1.5.3</text>
<text text-anchor="start" x="408" y="-390.6" font-family="Times,serif" font-size="13.00" fill="#000000">http://railroady.prestonlee.com</text>
</g>
<!-- Admin::ApplicationController -->
<g id="node2" class="node">
<title>Admin::ApplicationController</title>
<path fill="none" stroke="#000000" d="M188,-384.5C188,-384.5 350.3105,-384.5 350.3105,-384.5 356.3105,-384.5 362.3105,-390.5 362.3105,-396.5 362.3105,-396.5 362.3105,-462.5 362.3105,-462.5 362.3105,-468.5 356.3105,-474.5 350.3105,-474.5 350.3105,-474.5 188,-474.5 188,-474.5 182,-474.5 176,-468.5 176,-462.5 176,-462.5 176,-396.5 176,-396.5 176,-390.5 182,-384.5 188,-384.5"/>
<text text-anchor="middle" x="269.1553" y="-459.3" font-family="Times,serif" font-size="14.00" fill="#000000">Admin::ApplicationController</text>
<polyline fill="none" stroke="#000000" points="176,-452.5 362.3105,-452.5 "/>
<text text-anchor="start" x="184" y="-437.3" font-family="Times,serif" font-size="14.00" fill="#000000">authenticate_admin</text>
<polyline fill="none" stroke="#000000" points="176,-430.5 362.3105,-430.5 "/>
<polyline fill="none" stroke="#000000" points="176,-406.5 362.3105,-406.5 "/>
<text text-anchor="start" x="184" y="-391.3" font-family="Times,serif" font-size="14.00" fill="#000000">_layout</text>
</g>
<!-- Admin::GalleriesController -->
<g id="node3" class="node">
<title>Admin::GalleriesController</title>
<path fill="none" stroke="#000000" d="M28,-.5C28,-.5 174.7451,-.5 174.7451,-.5 180.7451,-.5 186.7451,-6.5 186.7451,-12.5 186.7451,-12.5 186.7451,-78.5 186.7451,-78.5 186.7451,-84.5 180.7451,-90.5 174.7451,-90.5 174.7451,-90.5 28,-90.5 28,-90.5 22,-90.5 16,-84.5 16,-78.5 16,-78.5 16,-12.5 16,-12.5 16,-6.5 22,-.5 28,-.5"/>
<text text-anchor="middle" x="101.3726" y="-75.3" font-family="Times,serif" font-size="14.00" fill="#000000">Admin::GalleriesController</text>
<polyline fill="none" stroke="#000000" points="16,-68.5 186.7451,-68.5 "/>
<text text-anchor="start" x="24" y="-53.3" font-family="Times,serif" font-size="14.00" fill="#000000">create</text>
<polyline fill="none" stroke="#000000" points="16,-46.5 186.7451,-46.5 "/>
<polyline fill="none" stroke="#000000" points="16,-22.5 186.7451,-22.5 "/>
<text text-anchor="start" x="24" y="-7.3" font-family="Times,serif" font-size="14.00" fill="#000000">_layout</text>
</g>
<!-- Admin::ImagesController -->
<g id="node4" class="node">
<title>Admin::ImagesController</title>
<path fill="none" stroke="#000000" d="M364,-16.5C364,-16.5 500.6416,-16.5 500.6416,-16.5 506.6416,-16.5 512.6416,-22.5 512.6416,-28.5 512.6416,-28.5 512.6416,-96.5 512.6416,-96.5 512.6416,-102.5 506.6416,-108.5 500.6416,-108.5 500.6416,-108.5 364,-108.5 364,-108.5 358,-108.5 352,-102.5 352,-96.5 352,-96.5 352,-28.5 352,-28.5 352,-22.5 358,-16.5 364,-16.5"/>
<text text-anchor="middle" x="432.3208" y="-93.3" font-family="Times,serif" font-size="14.00" fill="#000000">Admin::ImagesController</text>
<polyline fill="none" stroke="#000000" points="352,-86.5 512.6416,-86.5 "/>
<polyline fill="none" stroke="#000000" points="352,-62.5 512.6416,-62.5 "/>
<polyline fill="none" stroke="#000000" points="352,-38.5 512.6416,-38.5 "/>
<text text-anchor="start" x="360" y="-23.3" font-family="Times,serif" font-size="14.00" fill="#000000">_layout</text>
</g>
<!-- Admin::PagesController -->
<g id="node5" class="node">
<title>Admin::PagesController</title>
<path fill="none" stroke="#000000" d="M524,-144.5C524,-144.5 652.876,-144.5 652.876,-144.5 658.876,-144.5 664.876,-150.5 664.876,-156.5 664.876,-156.5 664.876,-224.5 664.876,-224.5 664.876,-230.5 658.876,-236.5 652.876,-236.5 652.876,-236.5 524,-236.5 524,-236.5 518,-236.5 512,-230.5 512,-224.5 512,-224.5 512,-156.5 512,-156.5 512,-150.5 518,-144.5 524,-144.5"/>
<text text-anchor="middle" x="588.438" y="-221.3" font-family="Times,serif" font-size="14.00" fill="#000000">Admin::PagesController</text>
<polyline fill="none" stroke="#000000" points="512,-214.5 664.876,-214.5 "/>
<polyline fill="none" stroke="#000000" points="512,-190.5 664.876,-190.5 "/>
<polyline fill="none" stroke="#000000" points="512,-166.5 664.876,-166.5 "/>
<text text-anchor="start" x="520" y="-151.3" font-family="Times,serif" font-size="14.00" fill="#000000">_layout</text>
</g>
<!-- Admin::UsersController -->
<g id="node6" class="node">
<title>Admin::UsersController</title>
<path fill="none" stroke="#000000" d="M524,-496.5C524,-496.5 652.0967,-496.5 652.0967,-496.5 658.0967,-496.5 664.0967,-502.5 664.0967,-508.5 664.0967,-508.5 664.0967,-576.5 664.0967,-576.5 664.0967,-582.5 658.0967,-588.5 652.0967,-588.5 652.0967,-588.5 524,-588.5 524,-588.5 518,-588.5 512,-582.5 512,-576.5 512,-576.5 512,-508.5 512,-508.5 512,-502.5 518,-496.5 524,-496.5"/>
<text text-anchor="middle" x="588.0483" y="-573.3" font-family="Times,serif" font-size="14.00" fill="#000000">Admin::UsersController</text>
<polyline fill="none" stroke="#000000" points="512,-566.5 664.0967,-566.5 "/>
<polyline fill="none" stroke="#000000" points="512,-542.5 664.0967,-542.5 "/>
<polyline fill="none" stroke="#000000" points="512,-518.5 664.0967,-518.5 "/>
<text text-anchor="start" x="520" y="-503.3" font-family="Times,serif" font-size="14.00" fill="#000000">_layout</text>
</g>
<!-- ApplicationController -->
<g id="node7" class="node">
<title>ApplicationController</title>
<path fill="none" stroke="#000000" d="M12,-496.5C12,-496.5 127.6416,-496.5 127.6416,-496.5 133.6416,-496.5 139.6416,-502.5 139.6416,-508.5 139.6416,-508.5 139.6416,-576.5 139.6416,-576.5 139.6416,-582.5 133.6416,-588.5 127.6416,-588.5 127.6416,-588.5 12,-588.5 12,-588.5 6,-588.5 0,-582.5 0,-576.5 0,-576.5 0,-508.5 0,-508.5 0,-502.5 6,-496.5 12,-496.5"/>
<text text-anchor="middle" x="69.8208" y="-573.3" font-family="Times,serif" font-size="14.00" fill="#000000">ApplicationController</text>
<polyline fill="none" stroke="#000000" points="0,-566.5 139.6416,-566.5 "/>
<polyline fill="none" stroke="#000000" points="0,-542.5 139.6416,-542.5 "/>
<polyline fill="none" stroke="#000000" points="0,-518.5 139.6416,-518.5 "/>
<text text-anchor="start" x="8" y="-503.3" font-family="Times,serif" font-size="14.00" fill="#000000">_layout</text>
</g>
<!-- GalleriesController -->
<g id="node8" class="node">
<title>GalleriesController</title>
<path fill="none" stroke="#000000" d="M364,-144.5C364,-144.5 464.0762,-144.5 464.0762,-144.5 470.0762,-144.5 476.0762,-150.5 476.0762,-156.5 476.0762,-156.5 476.0762,-334.5 476.0762,-334.5 476.0762,-340.5 470.0762,-346.5 464.0762,-346.5 464.0762,-346.5 364,-346.5 364,-346.5 358,-346.5 352,-340.5 352,-334.5 352,-334.5 352,-156.5 352,-156.5 352,-150.5 358,-144.5 364,-144.5"/>
<text text-anchor="middle" x="414.0381" y="-331.3" font-family="Times,serif" font-size="14.00" fill="#000000">GalleriesController</text>
<polyline fill="none" stroke="#000000" points="352,-324.5 476.0762,-324.5 "/>
<text text-anchor="start" x="360" y="-309.3" font-family="Times,serif" font-size="14.00" fill="#000000">index</text>
<text text-anchor="start" x="360" y="-295.3" font-family="Times,serif" font-size="14.00" fill="#000000">destroy</text>
<text text-anchor="start" x="360" y="-281.3" font-family="Times,serif" font-size="14.00" fill="#000000">edit</text>
<text text-anchor="start" x="360" y="-267.3" font-family="Times,serif" font-size="14.00" fill="#000000">create</text>
<text text-anchor="start" x="360" y="-253.3" font-family="Times,serif" font-size="14.00" fill="#000000">new</text>
<text text-anchor="start" x="360" y="-239.3" font-family="Times,serif" font-size="14.00" fill="#000000">show</text>
<text text-anchor="start" x="360" y="-225.3" font-family="Times,serif" font-size="14.00" fill="#000000">update</text>
<polyline fill="none" stroke="#000000" points="352,-218.5 476.0762,-218.5 "/>
<polyline fill="none" stroke="#000000" points="352,-194.5 476.0762,-194.5 "/>
<text text-anchor="start" x="360" y="-179.3" font-family="Times,serif" font-size="14.00" fill="#000000">_layout</text>
<text text-anchor="start" x="360" y="-165.3" font-family="Times,serif" font-size="14.00" fill="#000000">gallery_params</text>
<text text-anchor="start" x="360" y="-151.3" font-family="Times,serif" font-size="14.00" fill="#000000">set_gallery</text>
</g>
<!-- PagesController -->
<g id="node9" class="node">
<title>PagesController</title>
<path fill="none" stroke="#000000" d="M188,-128.5C188,-128.5 305.166,-128.5 305.166,-128.5 311.166,-128.5 317.166,-134.5 317.166,-140.5 317.166,-140.5 317.166,-332.5 317.166,-332.5 317.166,-338.5 311.166,-344.5 305.166,-344.5 305.166,-344.5 188,-344.5 188,-344.5 182,-344.5 176,-338.5 176,-332.5 176,-332.5 176,-140.5 176,-140.5 176,-134.5 182,-128.5 188,-128.5"/>
<text text-anchor="middle" x="246.583" y="-329.3" font-family="Times,serif" font-size="14.00" fill="#000000">PagesController</text>
<polyline fill="none" stroke="#000000" points="176,-322.5 317.166,-322.5 "/>
<text text-anchor="start" x="184" y="-307.3" font-family="Times,serif" font-size="14.00" fill="#000000">index</text>
<text text-anchor="start" x="184" y="-293.3" font-family="Times,serif" font-size="14.00" fill="#000000">destroy</text>
<text text-anchor="start" x="184" y="-279.3" font-family="Times,serif" font-size="14.00" fill="#000000">edit</text>
<text text-anchor="start" x="184" y="-265.3" font-family="Times,serif" font-size="14.00" fill="#000000">create</text>
<text text-anchor="start" x="184" y="-251.3" font-family="Times,serif" font-size="14.00" fill="#000000">new</text>
<text text-anchor="start" x="184" y="-237.3" font-family="Times,serif" font-size="14.00" fill="#000000">show</text>
<text text-anchor="start" x="184" y="-223.3" font-family="Times,serif" font-size="14.00" fill="#000000">update</text>
<polyline fill="none" stroke="#000000" points="176,-216.5 317.166,-216.5 "/>
<polyline fill="none" stroke="#000000" points="176,-192.5 317.166,-192.5 "/>
<text text-anchor="start" x="184" y="-177.3" font-family="Times,serif" font-size="14.00" fill="#000000">_layout</text>
<text text-anchor="start" x="184" y="-163.3" font-family="Times,serif" font-size="14.00" fill="#000000">menus_reject</text>
<text text-anchor="start" x="184" y="-149.3" font-family="Times,serif" font-size="14.00" fill="#000000">page_params</text>
<text text-anchor="start" x="184" y="-135.3" font-family="Times,serif" font-size="14.00" fill="#000000">reject_menus_at_page</text>
</g>
</g>
</svg>
