<?xml version="1.0" encoding="UTF-8" standalone="no"?>
<!DOCTYPE svg PUBLIC "-//W3C//DTD SVG 1.1//EN"
 "http://www.w3.org/Graphics/SVG/1.1/DTD/svg11.dtd">
<!-- Generated by graphviz version 2.40.1 (20161225.0304)
 -->
<!-- Title: models_diagram Pages: 1 -->
<svg width="913pt" height="414pt"
 viewBox="0.00 0.00 912.97 414.00" xmlns="http://www.w3.org/2000/svg" xmlns:xlink="http://www.w3.org/1999/xlink">
<g id="graph0" class="graph" transform="scale(1 1) rotate(0) translate(4 410)">
<title>models_diagram</title>
<polygon fill="transparent" stroke="transparent" points="-4,4 -4,-410 908.9656,-410 908.9656,4 -4,4"/>
<!-- _diagram_info -->
<g id="node1" class="node">
<title>_diagram_info</title>
<text text-anchor="start" x="8" y="-321.6" font-family="Times,serif" font-size="13.00" fill="#000000">Models diagram</text>
<text text-anchor="start" x="8" y="-308.6" font-family="Times,serif" font-size="13.00" fill="#000000">Date: Sep 08 2017 &#45; 15:16</text>
<text text-anchor="start" x="8" y="-295.6" font-family="Times,serif" font-size="13.00" fill="#000000">Migration version: 20170608054740</text>
<text text-anchor="start" x="8" y="-282.6" font-family="Times,serif" font-size="13.00" fill="#000000">Generated by RailRoady 1.5.3</text>
<text text-anchor="start" x="8" y="-269.6" font-family="Times,serif" font-size="13.00" fill="#000000">http://railroady.prestonlee.com</text>
</g>
<!-- ApplicationRecord -->
<g id="node2" class="node">
<title>ApplicationRecord</title>
<ellipse fill="none" stroke="#000000" cx="302.6877" cy="-299.5" rx="77.2916" ry="18"/>
<text text-anchor="middle" x="302.6877" y="-295.3" font-family="Times,serif" font-size="14.00" fill="#000000">ApplicationRecord</text>
</g>
<!-- Gallery -->
<g id="node3" class="node">
<title>Gallery</title>
<path fill="none" stroke="#000000" d="M410.1824,-235.5C410.1824,-235.5 519.1931,-235.5 519.1931,-235.5 525.1931,-235.5 531.1931,-241.5 531.1931,-247.5 531.1931,-247.5 531.1931,-351.5 531.1931,-351.5 531.1931,-357.5 525.1931,-363.5 519.1931,-363.5 519.1931,-363.5 410.1824,-363.5 410.1824,-363.5 404.1824,-363.5 398.1824,-357.5 398.1824,-351.5 398.1824,-351.5 398.1824,-247.5 398.1824,-247.5 398.1824,-241.5 404.1824,-235.5 410.1824,-235.5"/>
<text text-anchor="middle" x="464.6877" y="-348.3" font-family="Times,serif" font-size="14.00" fill="#000000">Gallery</text>
<polyline fill="none" stroke="#000000" points="398.1824,-341.5 531.1931,-341.5 "/>
<text text-anchor="start" x="406.1824" y="-326.3" font-family="Times,serif" font-size="14.00" fill="#000000">side_body :text</text>
<text text-anchor="start" x="406.1824" y="-312.3" font-family="Times,serif" font-size="14.00" fill="#000000">title :varchar</text>
<text text-anchor="start" x="406.1824" y="-298.3" font-family="Times,serif" font-size="14.00" fill="#000000">body :text</text>
<text text-anchor="start" x="406.1824" y="-284.3" font-family="Times,serif" font-size="14.00" fill="#000000">id :INTEGER</text>
<text text-anchor="start" x="406.1824" y="-270.3" font-family="Times,serif" font-size="14.00" fill="#000000">position :integer</text>
<text text-anchor="start" x="406.1824" y="-256.3" font-family="Times,serif" font-size="14.00" fill="#000000">created_at :datetime</text>
<text text-anchor="start" x="406.1824" y="-242.3" font-family="Times,serif" font-size="14.00" fill="#000000">updated_at :datetime</text>
</g>
<!-- Image -->
<g id="node4" class="node">
<title>Image</title>
<path fill="none" stroke="#000000" d="M387.2512,-.5C387.2512,-.5 542.1243,-.5 542.1243,-.5 548.1243,-.5 554.1243,-6.5 554.1243,-12.5 554.1243,-12.5 554.1243,-144.5 554.1243,-144.5 554.1243,-150.5 548.1243,-156.5 542.1243,-156.5 542.1243,-156.5 387.2512,-156.5 387.2512,-156.5 381.2512,-156.5 375.2512,-150.5 375.2512,-144.5 375.2512,-144.5 375.2512,-12.5 375.2512,-12.5 375.2512,-6.5 381.2512,-.5 387.2512,-.5"/>
<text text-anchor="middle" x="464.6877" y="-141.3" font-family="Times,serif" font-size="14.00" fill="#000000">Image</text>
<polyline fill="none" stroke="#000000" points="375.2512,-134.5 554.1243,-134.5 "/>
<text text-anchor="start" x="383.2512" y="-119.3" font-family="Times,serif" font-size="14.00" fill="#000000">updated_at :datetime</text>
<text text-anchor="start" x="383.2512" y="-105.3" font-family="Times,serif" font-size="14.00" fill="#000000">gallery_id :integer</text>
<text text-anchor="start" x="383.2512" y="-91.3" font-family="Times,serif" font-size="14.00" fill="#000000">position :integer</text>
<text text-anchor="start" x="383.2512" y="-77.3" font-family="Times,serif" font-size="14.00" fill="#000000">image_file_name :varchar</text>
<text text-anchor="start" x="383.2512" y="-63.3" font-family="Times,serif" font-size="14.00" fill="#000000">image_content_type :varchar</text>
<text text-anchor="start" x="383.2512" y="-49.3" font-family="Times,serif" font-size="14.00" fill="#000000">image_file_size :integer</text>
<text text-anchor="start" x="383.2512" y="-35.3" font-family="Times,serif" font-size="14.00" fill="#000000">image_updated_at :datetime</text>
<text text-anchor="start" x="383.2512" y="-21.3" font-family="Times,serif" font-size="14.00" fill="#000000">created_at :datetime</text>
<text text-anchor="start" x="383.2512" y="-7.3" font-family="Times,serif" font-size="14.00" fill="#000000">id :INTEGER</text>
</g>
<!-- Gallery&#45;&gt;Image -->
<g id="edge1" class="edge">
<title>Gallery&#45;&gt;Image</title>
<path fill="none" stroke="#9e71b5" d="M464.6877,-227.0843C464.6877,-207.7793 464.6877,-186.7074 464.6877,-166.6593"/>
<ellipse fill="none" stroke="#9e71b5" cx="464.6878" cy="-231.2808" rx="4" ry="4"/>
<polygon fill="#9e71b5" stroke="#9e71b5" points="464.6878,-166.5991 469.1877,-156.5991 464.6878,-161.5991 464.6877,-156.5991 464.6877,-156.5991 464.6877,-156.5991 464.6878,-161.5991 460.1877,-156.5992 464.6878,-166.5991 464.6878,-166.5991"/>
</g>
<!-- Page -->
<g id="node5" class="node">
<title>Page</title>
<path fill="none" stroke="#000000" d="M561.1824,-263.5C561.1824,-263.5 670.1931,-263.5 670.1931,-263.5 676.1931,-263.5 682.1931,-269.5 682.1931,-275.5 682.1931,-275.5 682.1931,-323.5 682.1931,-323.5 682.1931,-329.5 676.1931,-335.5 670.1931,-335.5 670.1931,-335.5 561.1824,-335.5 561.1824,-335.5 555.1824,-335.5 549.1824,-329.5 549.1824,-323.5 549.1824,-323.5 549.1824,-275.5 549.1824,-275.5 549.1824,-269.5 555.1824,-263.5 561.1824,-263.5"/>
<text text-anchor="middle" x="615.6877" y="-320.3" font-family="Times,serif" font-size="14.00" fill="#000000">Page</text>
<polyline fill="none" stroke="#000000" points="549.1824,-313.5 682.1931,-313.5 "/>
<text text-anchor="start" x="557.1824" y="-298.3" font-family="Times,serif" font-size="14.00" fill="#000000">id :INTEGER</text>
<text text-anchor="start" x="557.1824" y="-284.3" font-family="Times,serif" font-size="14.00" fill="#000000">created_at :datetime</text>
<text text-anchor="start" x="557.1824" y="-270.3" font-family="Times,serif" font-size="14.00" fill="#000000">updated_at :datetime</text>
</g>
<!-- User -->
<g id="node6" class="node">
<title>User</title>
<path fill="none" stroke="#000000" d="M712.4099,-193.5C712.4099,-193.5 892.9656,-193.5 892.9656,-193.5 898.9656,-193.5 904.9656,-199.5 904.9656,-205.5 904.9656,-205.5 904.9656,-393.5 904.9656,-393.5 904.9656,-399.5 898.9656,-405.5 892.9656,-405.5 892.9656,-405.5 712.4099,-405.5 712.4099,-405.5 706.4099,-405.5 700.4099,-399.5 700.4099,-393.5 700.4099,-393.5 700.4099,-205.5 700.4099,-205.5 700.4099,-199.5 706.4099,-193.5 712.4099,-193.5"/>
<text text-anchor="middle" x="802.6877" y="-390.3" font-family="Times,serif" font-size="14.00" fill="#000000">User</text>
<polyline fill="none" stroke="#000000" points="700.4099,-383.5 904.9656,-383.5 "/>
<text text-anchor="start" x="708.4099" y="-368.3" font-family="Times,serif" font-size="14.00" fill="#000000">updated_at :datetime</text>
<text text-anchor="start" x="708.4099" y="-354.3" font-family="Times,serif" font-size="14.00" fill="#000000">email :varchar</text>
<text text-anchor="start" x="708.4099" y="-340.3" font-family="Times,serif" font-size="14.00" fill="#000000">encrypted_password :varchar</text>
<text text-anchor="start" x="708.4099" y="-326.3" font-family="Times,serif" font-size="14.00" fill="#000000">reset_password_token :varchar</text>
<text text-anchor="start" x="708.4099" y="-312.3" font-family="Times,serif" font-size="14.00" fill="#000000">reset_password_sent_at :datetime</text>
<text text-anchor="start" x="708.4099" y="-298.3" font-family="Times,serif" font-size="14.00" fill="#000000">remember_created_at :datetime</text>
<text text-anchor="start" x="708.4099" y="-284.3" font-family="Times,serif" font-size="14.00" fill="#000000">sign_in_count :integer</text>
<text text-anchor="start" x="708.4099" y="-270.3" font-family="Times,serif" font-size="14.00" fill="#000000">current_sign_in_at :datetime</text>
<text text-anchor="start" x="708.4099" y="-256.3" font-family="Times,serif" font-size="14.00" fill="#000000">last_sign_in_at :datetime</text>
<text text-anchor="start" x="708.4099" y="-242.3" font-family="Times,serif" font-size="14.00" fill="#000000">current_sign_in_ip :varchar</text>
<text text-anchor="start" x="708.4099" y="-228.3" font-family="Times,serif" font-size="14.00" fill="#000000">last_sign_in_ip :varchar</text>
<text text-anchor="start" x="708.4099" y="-214.3" font-family="Times,serif" font-size="14.00" fill="#000000">created_at :datetime</text>
<text text-anchor="start" x="708.4099" y="-200.3" font-family="Times,serif" font-size="14.00" fill="#000000">id :INTEGER</text>
</g>
</g>
</svg>
