<?xml version="1.0" encoding="UTF-8"?>
<!DOCTYPE svg PUBLIC "-//W3C//DTD SVG 1.1//EN" "http://www.w3.org/Graphics/SVG/1.1/DTD/svg11.dtd">
<!-- Creator: CorelDRAW 2017 -->
<svg xmlns="http://www.w3.org/2000/svg" xml:space="preserve" width="130px" height="76px" version="1.1" style="shape-rendering:geometricPrecision; text-rendering:geometricPrecision; image-rendering:optimizeQuality; fill-rule:evenodd; clip-rule:evenodd"
viewBox="0 0 2.53 1.48"
 xmlns:xlink="http://www.w3.org/1999/xlink">
 <defs>
  <style type="text/css">
   <![CDATA[
    .fil0 {fill:white;fill-rule:nonzero}
   ]]>
  </style>
 </defs>
 <g id="图层_x0020_1">
  <metadata id="CorelCorpID_0Corel-Layer"/>
  <g id="_3110223811984">
   <path class="fil0" d="M0.03 0.8c0.11,-0.08 0.2,-0.17 0.24,-0.27l0.1 0.04c-0.01,0.01 -0.02,0.02 -0.03,0.03 0.09,0.07 0.18,0.12 0.28,0.14 -0.03,0.02 -0.06,0.05 -0.07,0.08 -0.09,-0.05 -0.17,-0.11 -0.23,-0.19 -0.05,0.06 -0.1,0.1 -0.16,0.14l0.22 0 0.03 -0.03 0.07 0.06 -0.02 0.02 -0.1 0 0 0.08 0.07 0 0.04 -0.04 0.07 0.07 -0.02 0.02 -0.16 0 0 0.08 0.11 0 0.04 -0.04 0.07 0.06 -0.01 0.04 -0.5 0 -0.01 -0.06 0.21 0 0 -0.08 -0.15 0 -0.01 -0.05 0.16 0 0 -0.08 -0.11 0 -0.02 -0.04c-0.02,0.02 -0.05,0.04 -0.09,0.05l-0.02 -0.03z"/>
   <path id="1" class="fil0" d="M0.67 0.78l0.1 0c0,0 0,0 0,-0.01 -0.01,0 -0.01,0 -0.01,0 0,-0.03 -0.02,-0.06 -0.03,-0.09l0.02 -0.01 -0.05 0 -0.01 -0.06 0.13 0c0,0 -0.01,-0.01 -0.02,-0.03 -0.01,-0.01 -0.01,-0.01 -0.02,-0.02l0.02 -0.02c0.01,0 0.01,0 0.01,0 0.03,0.01 0.05,0.02 0.07,0.03 0.01,0.01 0.01,0.01 0,0.03 0,0 0,0.01 -0.01,0.01l0.06 0 0.02 -0.02 0.06 0.04 -0.03 0.04 -0.06 0 0.06 0.02c-0.03,0.03 -0.05,0.06 -0.08,0.09l0.04 0 0.02 -0.03 0.05 0.04 0 -0.22 0.08 0 0 0.02 0.07 0 0.02 -0.03 0.07 0.05 -0.02 0.03 -0.06 0.17c0.04,0.04 0.06,0.09 0.06,0.14 0,0.06 -0.03,0.1 -0.08,0.1 -0.01,-0.03 -0.02,-0.04 -0.06,-0.04l0 0.1 -0.08 0 0 -0.31 -0.01 0.03 -0.32 0 -0.01 -0.05zm0.04 0.07l0.08 0 0 0.02 0.1 0 0.02 -0.03 0.08 0.05 -0.02 0.03 0 0.18 -0.08 0 0 -0.05 -0.1 0 0 0.05 -0.08 0 0 -0.25zm0.45 0.09c0,-0.04 -0.02,-0.09 -0.05,-0.13l0.04 -0.17 -0.06 0 0 0.34c0.05,0 0.07,-0.01 0.07,-0.04zm-0.34 -0.22c0.01,0.01 0.01,0.02 0,0.03 -0.01,0.01 -0.02,0.02 -0.03,0.03l0.06 0c0.03,-0.04 0.04,-0.08 0.05,-0.11l-0.14 0c0.03,0.01 0.05,0.03 0.06,0.05zm-0.03 0.2l0 0.09 0.1 0 0 -0.09 -0.1 0z"/>
   <path id="2" class="fil0" d="M1.43 0.78c0,0 0.01,-0.01 0.02,-0.02 0.01,-0.01 0.01,-0.01 0.02,-0.02l-0.12 0 -0.01 -0.04 0.16 0c0,-0.01 0.01,-0.03 0.02,-0.04 0,-0.01 0.01,-0.02 0.01,-0.02l-0.11 0c0,0.01 0,0.03 0,0.04 0,0.01 -0.01,0.01 -0.02,0.01 -0.02,-0.01 -0.03,-0.02 -0.05,-0.03 0,0 0,0 0,-0.01 0.02,-0.02 0.04,-0.05 0.05,-0.08l0.03 0.01c0,0 0,0.01 0,0.01l0.14 0c0,0 0,0 0,-0.01 -0.01,0 -0.01,-0.01 -0.03,-0.03l0.02 -0.02c0.03,0.01 0.06,0.02 0.07,0.03 0.01,0 0.01,0.01 0.01,0.02 0,0 0,0.01 -0.01,0.01l0.14 0 0.02 -0.02 0.07 0.05c0,0 0,0.01 0,0.01l-0.03 0.01c-0.03,0.03 -0.05,0.04 -0.06,0.05l-0.02 -0.01 0.01 -0.04 -0.21 0 0.07 0.02c-0.01,0 -0.01,0.01 -0.02,0.02 0,0 -0.01,0.01 -0.01,0.02l0.2 0 0.02 -0.03 0.06 0.04 -0.02 0.03 -0.11 0c-0.01,0.02 -0.03,0.04 -0.04,0.05 0.01,0.01 0.03,0.01 0.06,0.02 0,0 0.01,0 0.02,0 0.01,0 0.01,0.01 0.01,0.02 0,0.01 0,0.03 0,0.05 0,0.02 -0.01,0.02 -0.03,0.01 -0.04,-0.02 -0.09,-0.04 -0.13,-0.05 -0.02,0.01 -0.04,0.02 -0.06,0.03l0.07 0 0 0.04 0.15 0 0.02 -0.03 0.07 0.05 -0.02 0.03 -0.17 0c0.06,0.03 0.12,0.05 0.2,0.06 -0.03,0.02 -0.05,0.05 -0.06,0.08 -0.08,-0.03 -0.14,-0.07 -0.19,-0.11l0 0.12 -0.08 0 0 -0.12c-0.07,0.06 -0.14,0.09 -0.22,0.11l-0.02 -0.04c0.06,-0.02 0.12,-0.06 0.17,-0.1l-0.15 0 -0.01 -0.05 0.23 0 0 -0.04c-0.05,0.01 -0.11,0.02 -0.18,0.02l-0.01 -0.04c0.07,0 0.13,-0.02 0.18,-0.03 -0.02,-0.01 -0.06,-0.02 -0.1,-0.03 -0.01,0 -0.02,0 -0.02,-0.01zm0.18 0c0.02,-0.01 0.03,-0.02 0.04,-0.04l-0.11 0c-0.01,0.01 -0.02,0.01 -0.03,0.02 0.01,0 0.03,0.01 0.06,0.01 0.02,0 0.03,0.01 0.04,0.01z"/>
   <path id="3" class="fil0" d="M2.02 1.1l0 -0.27c-0.01,0.02 -0.03,0.04 -0.04,0.05l-0.04 -0.01c0.05,-0.1 0.09,-0.2 0.11,-0.32l0.09 0.02c0,0.01 0,0.01 -0.01,0.01 0,0.01 0,0.01 0,0.02l0.13 0 0.02 -0.03 0.06 0.04 -0.02 0.04 -0.1 0c0,0.01 0,0.02 0,0.04 0,0.01 -0.01,0.02 -0.01,0.03l0.03 0 0.02 -0.02 0.07 0.04 -0.02 0.03c0,0.16 -0.06,0.28 -0.17,0.33l-0.03 -0.02c0.05,-0.04 0.08,-0.09 0.11,-0.15 -0.01,0 -0.02,0 -0.03,-0.01 0,-0.02 -0.01,-0.04 -0.02,-0.06 -0.02,0.03 -0.03,0.05 -0.05,0.08l-0.02 -0.01 0 0.17 -0.08 0zm0.4 -0.55l0.08 0 0 0.49c0,0.04 -0.03,0.06 -0.09,0.06 0,-0.02 -0.02,-0.04 -0.05,-0.04 -0.01,0 -0.01,0 -0.01,0l-0.01 -0.04c0.06,0.01 0.08,0 0.08,-0.02l0 -0.45zm-0.09 0.09l0.07 0 0 0.33 -0.07 0 0 -0.33zm-0.2 -0.04c-0.01,0.03 -0.02,0.06 -0.03,0.08l0 0.21c0.03,-0.07 0.05,-0.15 0.05,-0.24l-0.02 0 0 -0.05zm0.11 0.26c0,-0.03 0,-0.06 0,-0.09l-0.04 0c0,0.01 0,0.02 -0.01,0.03 0,0.01 0,0.02 0,0.02 0,0.01 0,0.01 0.01,0.01 0.01,0.01 0.02,0.02 0.04,0.03z"/>
   <path class="fil0" d="M0.21 0c0.01,0 0.02,0 0.03,0.01 0.01,0.01 0.01,0.02 0.01,0.03l0 0.21c0,0.02 0,0.03 -0.01,0.03 -0.01,0.01 -0.02,0.01 -0.03,0.01l-0.09 0 0 -0.29 0.09 0zm-0.01 0.05l-0.03 0 0 0.2 0.03 0 0 -0.2z"/>
   <polygon id="1" class="fil0" points="0.41,0.29 0.3,0.29 0.3,0 0.41,0 0.41,0.05 0.35,0.05 0.35,0.12 0.41,0.09 0.41,0.14 0.35,0.18 0.35,0.25 0.41,0.25 "/>
   <path id="2" class="fil0" d="M0.45 0.04c0,-0.01 0.01,-0.02 0.01,-0.03 0.01,-0.01 0.02,-0.01 0.03,-0.01l0.06 0c0.01,0 0.02,0 0.03,0.01 0,0.01 0.01,0.02 0.01,0.03l0 0.01 -0.05 0.02 0 -0.02 -0.04 0 0 0.07 0.09 -0.04 0 0.17c0,0.02 -0.01,0.03 -0.01,0.03 -0.01,0.01 -0.02,0.01 -0.03,0.01l-0.06 0c-0.01,0 -0.02,0 -0.03,-0.01 0,0 -0.01,-0.01 -0.01,-0.03l0 -0.02 0.05 -0.03 0 0.05 0.04 0 0 -0.09 -0.09 0.04 0 -0.16z"/>
   <polygon id="3" class="fil0" points="0.68,0.29 0.63,0.29 0.63,0 0.68,0 "/>
   <path id="4" class="fil0" d="M0.73 0.04c0,-0.01 0,-0.02 0.01,-0.03 0.01,-0.01 0.01,-0.01 0.03,-0.01l0.05 0c0.01,0 0.02,0 0.03,0.01 0.01,0.01 0.01,0.02 0.01,0.03l0 0.04 -0.05 0.03 0 -0.06 -0.03 0 0 0.2 0.03 0 0 -0.07 -0.02 0.01 0 -0.05 0.07 -0.04 0 0.19 -0.09 0c-0.02,0 -0.02,0 -0.03,-0.01 -0.01,0 -0.01,-0.01 -0.01,-0.03l0 -0.21z"/>
   <path id="5" class="fil0" d="M0.96 0.29l-0.05 0 0 -0.29 0.05 0 0 0.02c0,0 0,-0.01 0,-0.01 0.01,-0.01 0.02,-0.01 0.02,-0.01l0.02 0c0.01,0 0.02,0 0.03,0.01 0.01,0.01 0.01,0.02 0.01,0.03l0 0.25 -0.05 0 0 -0.24 -0.03 0 0 0.24z"/>
   <path id="6" class="fil0" d="M1.17 0.04c0,-0.01 0,-0.02 0.01,-0.03 0.01,-0.01 0.02,-0.01 0.03,-0.01l0.05 0c0.02,0 0.03,0 0.03,0.01 0.01,0.01 0.01,0.02 0.01,0.03l0 0.01 -0.05 0.02 0 -0.02 -0.03 0 0 0.07 0.08 -0.04 0 0.17c0,0.02 0,0.03 -0.01,0.03 0,0.01 -0.01,0.01 -0.03,0.01l-0.05 0c-0.01,0 -0.02,0 -0.03,-0.01 -0.01,0 -0.01,-0.01 -0.01,-0.03l0 -0.02 0.05 -0.03 0 0.05 0.03 0 0 -0.09 -0.08 0.04 0 -0.16z"/>
   <polygon id="7" class="fil0" points="1.47,0.29 1.35,0.29 1.35,0 1.47,0 1.47,0.05 1.4,0.05 1.4,0.12 1.47,0.09 1.47,0.14 1.4,0.18 1.4,0.25 1.47,0.25 "/>
   <path id="8" class="fil0" d="M1.64 0.15l-0.04 0.01 0.06 0.13 -0.05 0 -0.05 -0.1 0 0 0 0.1 -0.05 0 0 -0.29 0.09 0c0.01,0 0.02,0 0.03,0.01 0.01,0.01 0.01,0.02 0.01,0.03l0 0.11zm-0.05 -0.03l0 -0.07 -0.03 0 0 0.09 0.03 -0.02z"/>
   <polygon id="9" class="fil0" points="1.72,0.29 1.66,0 1.71,0 1.74,0.19 1.78,0 1.82,0 1.77,0.29 "/>
   <polygon id="10" class="fil0" points="1.9,0.29 1.85,0.29 1.85,0 1.9,0 "/>
   <path id="11" class="fil0" d="M1.94 0.04c0,-0.01 0.01,-0.02 0.02,-0.03 0,-0.01 0.01,-0.01 0.02,-0.01l0.06 0c0.01,0 0.02,0 0.03,0.01 0,0.01 0.01,0.02 0.01,0.03l0 0.04 -0.05 0.02 0 -0.05 -0.04 0 0 0.2 0.04 0 0 -0.04 0.05 -0.03 0 0.07c0,0.02 -0.01,0.03 -0.01,0.03 -0.01,0.01 -0.02,0.01 -0.03,0.01l-0.06 0c-0.01,0 -0.02,0 -0.02,-0.01 -0.01,0 -0.02,-0.01 -0.02,-0.03l0 -0.21z"/>
   <polygon id="12" class="fil0" points="2.24,0.29 2.12,0.29 2.12,0 2.24,0 2.24,0.05 2.17,0.05 2.17,0.12 2.24,0.09 2.24,0.14 2.17,0.18 2.17,0.25 2.24,0.25 "/>
   <path id="13" class="fil0" d="M2.28 0.04c0,-0.01 0,-0.02 0.01,-0.03 0.01,-0.01 0.02,-0.01 0.03,-0.01l0.05 0c0.02,0 0.03,0 0.03,0.01 0.01,0.01 0.01,0.02 0.01,0.03l0 0.01 -0.05 0.02 0 -0.02 -0.03 0 0 0.07 0.08 -0.04 0 0.17c0,0.02 0,0.03 -0.01,0.03 0,0.01 -0.01,0.01 -0.03,0.01l-0.05 0c-0.01,0 -0.02,0 -0.03,-0.01 -0.01,0 -0.01,-0.01 -0.01,-0.03l0 -0.02 0.05 -0.03 0 0.05 0.03 0 0 -0.09 -0.08 0.04 0 -0.16z"/>
   <path class="fil0" d="M0.07 1.38l0 -0.03 -0.03 0 0 0.04 0.03 -0.01zm0.03 0.1l-0.03 0 0 -0.07 -0.03 0.01 0 0.06 -0.04 0 0 -0.14c0,0 0,-0.01 0.01,-0.01 0,-0.01 0.01,-0.01 0.02,-0.01l0.04 0c0.01,0 0.02,0 0.03,0.01 0,0 0,0.01 0,0.01l0 0.14z"/>
   <polygon id="1" class="fil0" points="0.32,1.45 0.32,1.48 0.23,1.48 0.23,1.32 0.27,1.32 0.27,1.45 "/>
   <polygon id="2" class="fil0" points="0.53,1.45 0.53,1.48 0.44,1.48 0.44,1.32 0.48,1.32 0.48,1.45 "/>
   <path id="3" class="fil0" d="M0.71 1.34c0,0 0.01,-0.01 0.01,-0.01 0.01,-0.01 0.02,-0.01 0.02,-0.01l0.05 0c0.01,0 0.01,0 0.02,0.01 0,0 0.01,0.01 0.01,0.01l0 0.02 -0.04 0.02 0 -0.03 -0.03 0 0 0.1 0.03 0 0 -0.03 -0.02 0 0 -0.03 0.06 -0.01 0 0.1 -0.08 0c0,0 -0.01,-0.01 -0.02,-0.01 0,0 -0.01,-0.01 -0.01,-0.02l0 -0.11z"/>
   <path id="4" class="fil0" d="M1.01 1.38l0 -0.03 -0.02 0 0 0.04 0.02 -0.01zm0.04 0.1l-0.04 0 0 -0.07 -0.02 0.01 0 0.06 -0.04 0 0 -0.14c0,0 0,-0.01 0.01,-0.01 0,-0.01 0.01,-0.01 0.02,-0.01l0.04 0c0.01,0 0.02,0 0.02,0.01 0.01,0 0.01,0.01 0.01,0.01l0 0.14z"/>
   <polygon id="5" class="fil0" points="1.27,1.45 1.27,1.48 1.18,1.48 1.18,1.32 1.22,1.32 1.22,1.45 "/>
   <polygon id="6" class="fil0" points="1.48,1.45 1.48,1.48 1.39,1.48 1.39,1.32 1.43,1.32 1.43,1.45 "/>
   <polygon id="7" class="fil0" points="1.69,1.48 1.6,1.48 1.6,1.32 1.69,1.32 1.69,1.35 1.63,1.35 1.63,1.39 1.69,1.37 1.69,1.4 1.63,1.41 1.63,1.45 1.69,1.45 "/>
   <path id="8" class="fil0" d="M1.92 1.4l-0.03 0.01 0.04 0.07 -0.04 0 -0.03 -0.06 -0.01 0 0 0.06 -0.04 0 0 -0.16 0.07 0c0.01,0 0.02,0 0.03,0.01 0,0 0.01,0.01 0.01,0.01l0 0.06zm-0.04 -0.02l0 -0.03 -0.03 0 0 0.04 0.03 -0.01z"/>
   <polygon id="9" class="fil0" points="2.08,1.48 2.04,1.48 2.04,1.32 2.08,1.32 "/>
   <polygon id="10" class="fil0" points="2.3,1.48 2.21,1.48 2.21,1.32 2.3,1.32 2.3,1.35 2.25,1.35 2.25,1.39 2.3,1.37 2.3,1.4 2.25,1.41 2.25,1.45 2.3,1.45 "/>
   <path id="11" class="fil0" d="M2.43 1.34c0,0 0,-0.01 0.01,-0.01 0,-0.01 0.01,-0.01 0.02,-0.01l0.04 0c0.01,0 0.02,0 0.02,0.01 0.01,0 0.01,0.01 0.01,0.01l0 0.01 -0.04 0.01 0 -0.01 -0.02 0 0 0.03 0.06 -0.02 0 0.09c0,0.01 0,0.02 -0.01,0.02 0,0 -0.01,0.01 -0.02,0.01l-0.04 0c-0.01,0 -0.02,-0.01 -0.02,-0.01 -0.01,0 -0.01,-0.01 -0.01,-0.02l0 -0.01 0.04 -0.01 0 0.02 0.02 0 0 -0.05 -0.06 0.03 0 -0.09z"/>
  </g>
 </g>
</svg>
