<?xml version="1.0" encoding="UTF-8"?>
<!DOCTYPE svg PUBLIC "-//W3C//DTD SVG 1.1//EN" "http://www.w3.org/Graphics/SVG/1.1/DTD/svg11.dtd">
<!-- Creator: CorelDRAW 2017 -->
<svg xmlns="http://www.w3.org/2000/svg" xml:space="preserve" width="190px" height="76px" version="1.1" style="shape-rendering:geometricPrecision; text-rendering:geometricPrecision; image-rendering:optimizeQuality; fill-rule:evenodd; clip-rule:evenodd"
viewBox="0 0 5.47 2.18"
 xmlns:xlink="http://www.w3.org/1999/xlink">
 <defs>
  <style type="text/css">
   <![CDATA[
    .fil0 {fill:white;fill-rule:nonzero}
   ]]>
  </style>
 </defs>
 <g id="图层_x0020_1">
  <metadata id="CorelCorpID_0Corel-Layer"/>
  <path class="fil0" d="M0.02 0.99l0.12 0 0 -0.18 0.11 0 0 0.18 0.01 0 0.03 -0.03 0.08 0.07 -0.02 0.04 -0.1 0 0 0.07 0.01 -0.01c0.05,0.03 0.08,0.05 0.1,0.08 0.01,0 0.01,0.01 0.01,0.02 -0.02,0.03 -0.03,0.05 -0.05,0.07 -0.01,0.01 -0.02,0.01 -0.02,0 -0.01,-0.04 -0.03,-0.07 -0.05,-0.1l0 0.43 -0.11 0 0 -0.33c-0.04,0.07 -0.07,0.12 -0.09,0.14l-0.05 -0.03c0.06,-0.11 0.1,-0.22 0.13,-0.34l-0.09 0 -0.02 -0.08zm0.33 0.09l0.38 0 0.03 -0.04 0.1 0.08 -0.02 0.04 -0.19 0 0 0.36c0.01,0.07 -0.03,0.11 -0.14,0.12 0.01,-0.05 -0.02,-0.08 -0.08,-0.09l-0.01 -0.04c0.08,0.01 0.12,-0.01 0.11,-0.04l0 -0.31 -0.16 0 -0.02 -0.08zm0.04 -0.22l0.3 0 0.03 -0.04 0.1 0.08 -0.03 0.04 -0.38 0 -0.02 -0.08zm-0.11 0.63c0.05,-0.08 0.09,-0.16 0.12,-0.25l0.11 0.05c-0.05,0.09 -0.11,0.17 -0.18,0.24l-0.05 -0.04zm0.43 -0.23c0.07,0.05 0.12,0.1 0.15,0.14 0.01,0.01 0.01,0.02 0.01,0.04 -0.03,0.04 -0.05,0.06 -0.07,0.08 -0.02,0.01 -0.03,0.01 -0.04,-0.01 -0.02,-0.08 -0.05,-0.15 -0.09,-0.22l0.04 -0.03z"/>
  <path id="1" class="fil0" d="M1.31 0.84l0.12 0 0 0.02 0.18 0 0.03 -0.04 0.13 0.08 -0.04 0.04 0 0.35 -0.12 0 0 -0.02 -0.18 0 0 0.02 -0.12 0 0 -0.45zm-0.35 0.22l0.11 0 0.04 -0.05 0.1 0.09 -0.02 0.03 0 0.24c0,-0.01 0.03,-0.03 0.07,-0.07l0.04 0.07c-0.08,0.1 -0.15,0.18 -0.2,0.23l-0.08 -0.09c0.03,-0.03 0.05,-0.06 0.05,-0.1l0 -0.27 -0.09 0 -0.02 -0.08zm0.47 -0.11l0 0.23 0.18 0 0 -0.23 -0.18 0zm-0.23 0.64c0.08,-0.09 0.13,-0.18 0.17,-0.27l0.12 0.05c-0.06,0.1 -0.14,0.18 -0.24,0.26l-0.05 -0.04zm0.4 -0.26c0.08,0.05 0.14,0.1 0.19,0.15 0.01,0.01 0.01,0.03 0,0.05 -0.01,0.02 -0.03,0.05 -0.05,0.07 -0.01,0.01 -0.02,0.02 -0.03,0.02 -0.01,0 -0.01,-0.01 -0.02,-0.02 -0.05,-0.11 -0.09,-0.19 -0.12,-0.23l0.03 -0.04zm-0.53 -0.52c0.03,0.01 0.08,0.03 0.13,0.07 0.01,0.01 0.02,0.02 0.01,0.04 -0.01,0.03 -0.02,0.05 -0.04,0.08 -0.01,0.01 -0.01,0.01 -0.02,0.01 -0.01,0 -0.01,-0.01 -0.02,-0.02 -0.02,-0.04 -0.06,-0.09 -0.1,-0.14l0.04 -0.04z"/>
  <path id="2" class="fil0" d="M4.47 1.13l-0.14 0 0.11 0.07 -0.05 0.05c-0.03,0.08 -0.06,0.14 -0.09,0.18 0.05,0.04 0.13,0.06 0.22,0.08 -0.03,0.03 -0.06,0.07 -0.09,0.12 -0.08,-0.03 -0.16,-0.06 -0.22,-0.11 -0.07,0.05 -0.16,0.08 -0.26,0.11l-0.04 -0.06c0.09,-0.03 0.17,-0.07 0.22,-0.12 -0.04,-0.05 -0.07,-0.12 -0.1,-0.2l-0.03 0 -0.01 -0.08c0,0 0,0.01 0,0.01 0,0 -0.01,0 -0.02,0l-0.04 -0.03c0.07,-0.06 0.11,-0.13 0.1,-0.21l0 -0.11 0.12 0 0 0.03 0.09 0 0.03 -0.05 0.11 0.06 -0.02 0.04 0 0.09c0,0.02 0.01,0.03 0.02,0.03 0.06,0 0.1,0 0.12,0 -0.01,0.02 -0.02,0.05 -0.03,0.09 0,0.01 0,0.01 0,0.01zm-0.79 -0.06l0.1 0 0.04 -0.05 0.11 0.09 -0.03 0.03 0 0.24c0.04,-0.03 0.06,-0.05 0.07,-0.06l0.04 0.07c-0.05,0.07 -0.11,0.15 -0.19,0.22l-0.08 -0.09c0.03,-0.03 0.05,-0.06 0.04,-0.1l0 -0.27 -0.08 0 -0.02 -0.08zm0.33 0.09l0.28 0 0.02 -0.03c-0.04,-0.01 -0.07,-0.04 -0.07,-0.1l0 -0.09 -0.09 0 0 0.01c0,0.09 -0.04,0.16 -0.14,0.21zm-0.23 -0.34c0.04,0.01 0.07,0.03 0.12,0.05 0.01,0.01 0.01,0.01 0.01,0.01 0.02,0.01 0.02,0.03 0.02,0.04 -0.01,0 -0.01,0.01 -0.01,0.02 -0.01,0.03 -0.02,0.05 -0.04,0.06 -0.01,0.02 -0.02,0.01 -0.03,-0.01 -0.03,-0.05 -0.07,-0.09 -0.1,-0.13l0.03 -0.04zm0.35 0.43c0.02,0.05 0.04,0.09 0.07,0.12 0.03,-0.04 0.05,-0.08 0.06,-0.12l-0.13 0z"/>
  <path id="3" class="fil0" d="M5.13 0.81l0.13 0 0 0.29 0.09 0 0.02 -0.05 0.1 0.08 -0.04 0.05 -0.17 0 0 0.45 -0.13 0 0 -0.45 -0.18 0 -0.01 -0.08 0.19 0 0 -0.29zm-0.5 0.28l0.14 0 0.03 -0.05 0.13 0.08 -0.04 0.04 0 0.25c0.01,-0.01 0.04,-0.03 0.07,-0.05 0.01,-0.02 0.02,-0.03 0.03,-0.03l0.04 0.06c-0.04,0.05 -0.12,0.13 -0.22,0.23l-0.08 -0.1c0.03,-0.02 0.04,-0.05 0.04,-0.09l0 -0.26 -0.12 0 -0.02 -0.08zm0.16 -0.26c0.05,0.03 0.09,0.06 0.12,0.09 0.02,0.01 0.02,0.02 0,0.04 -0.01,0.02 -0.02,0.04 -0.05,0.06 -0.01,0.01 -0.02,0.01 -0.02,0.01 -0.01,0 -0.02,-0.01 -0.02,-0.02 -0.02,-0.05 -0.04,-0.1 -0.07,-0.15l0.04 -0.03z"/>
  <polygon id="4" class="fil0" points="2.27,1.44 2.27,1.54 2.03,1.54 2.03,0.91 2.14,0.91 2.14,1.44 "/>
  <path id="5" class="fil0" d="M2.36 1c0,-0.03 0.01,-0.05 0.02,-0.06 0.02,-0.02 0.04,-0.03 0.06,-0.03l0.12 0c0.02,0 0.04,0.01 0.06,0.03 0.01,0.01 0.02,0.03 0.02,0.06l0 0.45c0,0.03 -0.01,0.05 -0.02,0.07 -0.02,0.01 -0.04,0.02 -0.06,0.02l-0.12 0c-0.02,0 -0.04,-0.01 -0.06,-0.02 -0.01,-0.02 -0.02,-0.04 -0.02,-0.07l0 -0.45zm0.18 0.01l-0.08 0 0 0.43 0.08 0 0 -0.43z"/>
  <path id="6" class="fil0" d="M2.75 1c0,-0.03 0.01,-0.05 0.02,-0.06 0.02,-0.02 0.04,-0.03 0.07,-0.03l0.11 0c0.03,0 0.05,0.01 0.06,0.03 0.02,0.01 0.02,0.03 0.02,0.06l0 0.09 -0.1 0.05 0 -0.13 -0.07 0 0 0.43 0.07 0 0 -0.14 -0.04 0.02 0 -0.11 0.14 -0.07 0 0.4 -0.19 0c-0.03,0 -0.05,-0.01 -0.07,-0.02 -0.01,-0.02 -0.02,-0.04 -0.02,-0.07l0 -0.45z"/>
  <path id="7" class="fil0" d="M3.15 1c0,-0.03 0,-0.05 0.02,-0.06 0.01,-0.02 0.03,-0.03 0.06,-0.03l0.11 0c0.03,0 0.05,0.01 0.07,0.03 0.01,0.01 0.02,0.03 0.02,0.06l0 0.45c0,0.03 -0.01,0.05 -0.02,0.07 -0.02,0.01 -0.04,0.02 -0.07,0.02l-0.11 0c-0.03,0 -0.05,-0.01 -0.06,-0.02 -0.02,-0.02 -0.02,-0.04 -0.02,-0.07l0 -0.45zm0.18 0.01l-0.08 0 0 0.43 0.08 0 0 -0.43z"/>
  <path class="fil0" d="M1.18 0c0.02,0 0.03,0.01 0.04,0.02 0.01,0.01 0.02,0.02 0.02,0.04l0 0.31c0,0.02 -0.01,0.04 -0.02,0.05 -0.01,0.01 -0.02,0.01 -0.04,0.01l-0.14 0 0 -0.43 0.14 0zm-0.01 0.07l-0.06 0 0 0.3 0.06 0 0 -0.3z"/>
  <polygon id="1" class="fil0" points="1.48,0.43 1.31,0.43 1.31,0 1.48,0 1.48,0.07 1.38,0.07 1.38,0.18 1.48,0.13 1.48,0.21 1.38,0.26 1.38,0.36 1.48,0.36 "/>
  <path id="2" class="fil0" d="M1.54 0.06c0,-0.02 0,-0.03 0.01,-0.04 0.01,-0.01 0.03,-0.02 0.04,-0.02l0.08 0c0.02,0 0.04,0.01 0.05,0.02 0.01,0.01 0.01,0.02 0.01,0.04l0 0.01 -0.07 0.04 0 -0.04 -0.05 0 0 0.11 0.12 -0.07 0 0.26c0,0.02 0,0.04 -0.01,0.05 -0.01,0.01 -0.03,0.01 -0.05,0.01l-0.08 0c-0.01,0 -0.03,0 -0.04,-0.01 -0.01,-0.01 -0.01,-0.03 -0.01,-0.05l0 -0.04 0.07 -0.03 0 0.07 0.05 0 0 -0.14 -0.12 0.06 0 -0.23z"/>
  <polygon id="3" class="fil0" points="1.87,0.43 1.8,0.43 1.8,0 1.87,0 "/>
  <path id="4" class="fil0" d="M1.94 0.06c0,-0.02 0.01,-0.03 0.02,-0.04 0.01,-0.01 0.02,-0.02 0.04,-0.02l0.08 0c0.02,0 0.03,0.01 0.04,0.02 0.01,0.01 0.02,0.02 0.02,0.04l0 0.06 -0.08 0.04 0 -0.09 -0.05 0 0 0.3 0.05 0 0 -0.1 -0.03 0.01 0 -0.08 0.11 -0.05 0 0.28 -0.14 0c-0.02,0 -0.03,0 -0.04,-0.01 -0.01,-0.01 -0.02,-0.03 -0.02,-0.05l0 -0.31z"/>
  <path id="5" class="fil0" d="M2.28 0.43l-0.07 0 0 -0.43 0.07 0 0 0.03c0,-0.01 0,-0.02 0.01,-0.02 0.01,-0.01 0.02,-0.01 0.03,-0.01l0.02 0c0.02,0 0.03,0.01 0.04,0.02 0.01,0.01 0.02,0.02 0.02,0.04l0 0.37 -0.07 0 0 -0.36 -0.05 0 0 0.36z"/>
  <path id="6" class="fil0" d="M2.59 0.06c0,-0.02 0.01,-0.03 0.02,-0.04 0.01,-0.01 0.02,-0.02 0.04,-0.02l0.08 0c0.02,0 0.03,0.01 0.04,0.02 0.01,0.01 0.02,0.02 0.02,0.04l0 0.01 -0.07 0.04 0 -0.04 -0.06 0 0 0.11 0.13 -0.07 0 0.26c0,0.02 -0.01,0.04 -0.02,0.05 -0.01,0.01 -0.02,0.01 -0.04,0.01l-0.08 0c-0.02,0 -0.03,0 -0.04,-0.01 -0.01,-0.01 -0.02,-0.03 -0.02,-0.05l0 -0.04 0.07 -0.03 0 0.07 0.06 0 0 -0.14 -0.13 0.06 0 -0.23z"/>
  <polygon id="7" class="fil0" points="3.03,0.43 2.86,0.43 2.86,0 3.03,0 3.03,0.07 2.93,0.07 2.93,0.18 3.03,0.13 3.03,0.21 2.93,0.26 2.93,0.36 3.03,0.36 "/>
  <path id="8" class="fil0" d="M3.28 0.21l-0.05 0.03 0.08 0.19 -0.07 0 -0.07 -0.16 -0.01 0.01 0 0.15 -0.07 0 0 -0.43 0.14 0c0.01,0 0.03,0.01 0.04,0.02 0.01,0.01 0.01,0.02 0.01,0.04l0 0.15zm-0.07 -0.03l0 -0.11 -0.05 0 0 0.13 0.05 -0.02z"/>
  <polygon id="9" class="fil0" points="3.4,0.43 3.32,0 3.39,0 3.44,0.28 3.49,0 3.56,0 3.48,0.43 "/>
  <polygon id="10" class="fil0" points="3.67,0.43 3.6,0.43 3.6,0 3.67,0 "/>
  <path id="11" class="fil0" d="M3.74 0.06c0,-0.02 0,-0.03 0.01,-0.04 0.01,-0.01 0.02,-0.02 0.04,-0.02l0.08 0c0.02,0 0.03,0.01 0.04,0.02 0.01,0.01 0.02,0.02 0.02,0.04l0 0.06 -0.07 0.03 0 -0.08 -0.05 0 0 0.3 0.05 0 0 -0.07 0.07 -0.03 0 0.1c0,0.02 -0.01,0.04 -0.02,0.05 -0.01,0.01 -0.02,0.01 -0.04,0.01l-0.08 0c-0.02,0 -0.03,0 -0.04,-0.01 -0.01,-0.01 -0.01,-0.03 -0.01,-0.05l0 -0.31z"/>
  <polygon id="12" class="fil0" points="4.17,0.43 4,0.43 4,0 4.17,0 4.17,0.07 4.07,0.07 4.07,0.18 4.17,0.13 4.17,0.21 4.07,0.26 4.07,0.36 4.17,0.36 "/>
  <path id="13" class="fil0" d="M4.23 0.06c0,-0.02 0.01,-0.03 0.02,-0.04 0.01,-0.01 0.02,-0.02 0.04,-0.02l0.08 0c0.02,0 0.03,0.01 0.04,0.02 0.01,0.01 0.02,0.02 0.02,0.04l0 0.01 -0.08 0.04 0 -0.04 -0.05 0 0 0.11 0.13 -0.07 0 0.26c0,0.02 -0.01,0.04 -0.02,0.05 -0.01,0.01 -0.02,0.01 -0.04,0.01l-0.08 0c-0.02,0 -0.03,0 -0.04,-0.01 -0.01,-0.01 -0.02,-0.03 -0.02,-0.05l0 -0.04 0.07 -0.03 0 0.07 0.05 0 0 -0.14 -0.12 0.06 0 -0.23z"/>
  <path class="fil0" d="M0.19 2.14l0 -0.07 -0.04 0.01 0 0.06 0.04 0zm0.06 -0.08l0 0.08c0,0.02 -0.01,0.02 -0.02,0.03 -0.01,0 -0.02,0.01 -0.03,0.01l-0.11 0 0 -0.23 0.11 0c0.01,0 0.03,0 0.03,0.01 0.01,0 0.02,0.01 0.02,0.02l0 0.05c0,0.01 -0.01,0.01 -0.01,0.02 0,0 -0.01,0 -0.02,0.01l0.03 0zm-0.06 -0.03l0 -0.05 -0.04 0 0 0.06 0.04 -0.01z"/>
  <polygon id="1" class="fil0" points="2.14,2.14 2.14,2.18 2.01,2.18 2.01,1.95 2.07,1.95 2.07,2.14 "/>
  <path id="2" class="fil0" d="M0.61 2.06l-0.04 0.02 0.06 0.1 -0.06 0 -0.05 -0.09 -0.01 0 0 0.09 -0.05 0 0 -0.23 0.1 0c0.02,0 0.03,0 0.04,0.01 0,0 0.01,0.01 0.01,0.02l0 0.08zm-0.06 -0.02l0 -0.06 -0.04 0 0 0.07 0.04 -0.01z"/>
  <path id="3" class="fil0" d="M0.92 2.04l0 -0.06 -0.04 0 0 0.07 0.04 -0.01zm0.05 0.14l-0.05 0 0 -0.1 -0.04 0.01 0 0.09 -0.06 0 0 -0.2c0,-0.01 0,-0.02 0.01,-0.02 0.01,-0.01 0.02,-0.01 0.03,-0.01l0.07 0c0.01,0 0.02,0 0.03,0.01 0.01,0 0.01,0.01 0.01,0.02l0 0.2z"/>
  <path id="4" class="fil0" d="M1.24 2.18l-0.06 0 0 -0.23 0.06 0 0 0.02c0,-0.01 0,-0.01 0.01,-0.02 0.01,0 0.01,0 0.02,0l0.02 0c0.02,0 0.03,0 0.03,0.01 0.01,0 0.02,0.01 0.02,0.02l0 0.2 -0.06 0 0 -0.2 -0.04 0 0 0.2z"/>
  <path id="5" class="fil0" d="M1.66 1.95c0.01,0 0.02,0 0.03,0.01 0.01,0 0.01,0.01 0.01,0.02l0 0.16c0,0.01 0,0.02 -0.01,0.03 -0.01,0 -0.02,0.01 -0.03,0.01l-0.11 0 0 -0.23 0.11 0zm-0.02 0.03l-0.04 0 0 0.16 0.04 0 0 -0.16z"/>
  <path id="6" class="fil0" d="M2.34 1.98c0,-0.01 0,-0.02 0.01,-0.02 0.01,-0.01 0.02,-0.01 0.03,-0.01l0.06 0c0.02,0 0.03,0 0.04,0.01 0,0 0.01,0.01 0.01,0.02l0 0.16c0,0.01 -0.01,0.02 -0.01,0.03 -0.01,0 -0.02,0.01 -0.04,0.01l-0.06 0c-0.01,0 -0.02,-0.01 -0.03,-0.01 -0.01,-0.01 -0.01,-0.02 -0.01,-0.03l0 -0.16zm0.09 0l-0.04 0 0 0.16 0.04 0 0 -0.16z"/>
  <path id="7" class="fil0" d="M2.7 1.98c0,-0.01 0,-0.02 0.01,-0.02 0.01,-0.01 0.02,-0.01 0.03,-0.01l0.07 0c0.01,0 0.02,0 0.03,0.01 0.01,0 0.01,0.01 0.01,0.02l0 0.03 -0.05 0.02 0 -0.05 -0.05 0 0 0.16 0.05 0 0 -0.05 -0.03 0.01 0 -0.04 0.08 -0.03 0 0.15 -0.11 0c-0.01,0 -0.02,-0.01 -0.03,-0.01 -0.01,-0.01 -0.01,-0.02 -0.01,-0.03l0 -0.16z"/>
  <path id="8" class="fil0" d="M3.06 1.98c0,-0.01 0.01,-0.02 0.01,-0.02 0.01,-0.01 0.02,-0.01 0.04,-0.01l0.06 0c0.01,0 0.02,0 0.03,0.01 0.01,0 0.01,0.01 0.01,0.02l0 0.16c0,0.01 0,0.02 -0.01,0.03 0,0 -0.02,0.01 -0.03,0.01l-0.06 0c-0.02,0 -0.03,-0.01 -0.04,-0.01 0,-0.01 -0.01,-0.02 -0.01,-0.03l0 -0.16zm0.1 0l-0.04 0 0 0.16 0.04 0 0 -0.16z"/>
  <path id="9" class="fil0" d="M3.63 1.95c0.02,0 0.03,0 0.03,0.01 0.01,0 0.02,0.01 0.02,0.02l0 0.16c0,0.01 -0.01,0.02 -0.02,0.03 0,0 -0.01,0.01 -0.03,0.01l-0.11 0 0 -0.23 0.11 0zm-0.01 0.03l-0.04 0 0 0.16 0.04 0 0 -0.16z"/>
  <polygon id="10" class="fil0" points="4.02,2.18 3.89,2.18 3.89,1.95 4.02,1.95 4.02,1.98 3.94,1.98 3.94,2.04 4.02,2.02 4.02,2.06 3.94,2.08 3.94,2.14 4.02,2.14 "/>
  <path id="11" class="fil0" d="M4.23 1.98c0,-0.01 0,-0.02 0.01,-0.02 0.01,-0.01 0.02,-0.01 0.03,-0.01l0.06 0c0.02,0 0.03,0 0.04,0.01 0,0 0.01,0.01 0.01,0.02l0 0.01 -0.06 0.01 0 -0.02 -0.04 0 0 0.06 0.1 -0.03 0 0.13c0,0.01 -0.01,0.02 -0.01,0.03 -0.01,0 -0.02,0.01 -0.04,0.01l-0.06 0c-0.01,0 -0.02,-0.01 -0.03,-0.01 -0.01,-0.01 -0.01,-0.02 -0.01,-0.03l0 -0.02 0.05 -0.02 0 0.04 0.04 0 0 -0.07 -0.09 0.03 0 -0.12z"/>
  <polygon id="12" class="fil0" points="4.65,2.18 4.59,2.18 4.59,1.95 4.65,1.95 "/>
  <path id="13" class="fil0" d="M4.86 1.98c0,-0.01 0,-0.02 0.01,-0.02 0.01,-0.01 0.02,-0.01 0.03,-0.01l0.06 0c0.02,0 0.03,0 0.04,0.01 0.01,0 0.01,0.01 0.01,0.02l0 0.03 -0.06 0.02 0 -0.05 -0.04 0 0 0.16 0.04 0 0 -0.05 -0.02 0.01 0 -0.04 0.08 -0.03 0 0.15 -0.11 0c-0.01,0 -0.02,-0.01 -0.03,-0.01 -0.01,-0.01 -0.01,-0.02 -0.01,-0.03l0 -0.16z"/>
  <path id="14" class="fil0" d="M5.28 2.18l-0.06 0 0 -0.23 0.06 0 0 0.02c0,-0.01 0,-0.01 0.01,-0.02 0,0 0.01,0 0.02,0l0.02 0c0.01,0 0.02,0 0.03,0.01 0.01,0 0.01,0.01 0.01,0.02l0 0.2 -0.05 0 0 -0.2 -0.04 0 0 0.2z"/>
 </g>
</svg>
