<?xml version="1.0" encoding="UTF-8"?>
<!DOCTYPE svg PUBLIC "-//W3C//DTD SVG 1.1//EN" "http://www.w3.org/Graphics/SVG/1.1/DTD/svg11.dtd">
<!-- Creator: CorelDRAW 2017 -->
<svg xmlns="http://www.w3.org/2000/svg" xml:space="preserve" width="157px" height="76px" version="1.1" style="shape-rendering:geometricPrecision; text-rendering:geometricPrecision; image-rendering:optimizeQuality; fill-rule:evenodd; clip-rule:evenodd"
viewBox="0 0 3.7 1.79"
 xmlns:xlink="http://www.w3.org/1999/xlink">
 <defs>
  <style type="text/css">
   <![CDATA[
    .fil0 {fill:white;fill-rule:nonzero}
   ]]>
  </style>
 </defs>
 <g id="图层_x0020_1">
  <metadata id="CorelCorpID_0Corel-Layer"/>
  <g id="_3110878752960">
   <path class="fil0" d="M0.57 0c0.02,0 0.03,0 0.04,0.01 0.01,0.01 0.01,0.02 0.01,0.04l0 0.26c0,0.01 0,0.03 -0.01,0.03 -0.01,0.01 -0.02,0.02 -0.04,0.02l-0.11 0 0 -0.36 0.11 0zm-0.01 0.06l-0.04 0 0 0.24 0.04 0 0 -0.24z"/>
   <polygon id="1" class="fil0" points="0.82,0.36 0.68,0.36 0.68,0 0.82,0 0.82,0.06 0.73,0.06 0.73,0.15 0.82,0.11 0.82,0.17 0.73,0.21 0.73,0.3 0.82,0.3 "/>
   <path id="2" class="fil0" d="M0.87 0.05c0,-0.02 0,-0.03 0.01,-0.04 0.01,-0.01 0.02,-0.01 0.03,-0.01l0.07 0c0.01,0 0.03,0 0.03,0.01 0.01,0.01 0.02,0.02 0.02,0.04l0 0.01 -0.06 0.03 0 -0.03 -0.04 0 0 0.09 0.1 -0.06 0 0.22c0,0.01 -0.01,0.03 -0.02,0.03 0,0.01 -0.02,0.02 -0.03,0.02l-0.07 0c-0.01,0 -0.02,-0.01 -0.03,-0.02 -0.01,0 -0.01,-0.02 -0.01,-0.03l0 -0.04 0.06 -0.03 0 0.06 0.04 0 0 -0.11 -0.1 0.05 0 -0.19z"/>
   <polygon id="3" class="fil0" points="1.14,0.36 1.08,0.36 1.08,0 1.14,0 "/>
   <path id="4" class="fil0" d="M1.2 0.05c0,-0.02 0,-0.03 0.01,-0.04 0.01,-0.01 0.02,-0.01 0.04,-0.01l0.06 0c0.02,0 0.03,0 0.04,0.01 0,0.01 0.01,0.02 0.01,0.04l0 0.05 -0.06 0.03 0 -0.07 -0.04 0 0 0.24 0.04 0 0 -0.08 -0.02 0.01 0 -0.06 0.08 -0.04 0 0.23 -0.11 0c-0.02,0 -0.03,-0.01 -0.04,-0.02 -0.01,0 -0.01,-0.02 -0.01,-0.03l0 -0.26z"/>
   <path id="5" class="fil0" d="M1.47 0.36l-0.05 0 0 -0.36 0.05 0 0 0.03c0.01,-0.01 0.01,-0.02 0.02,-0.02 0,-0.01 0.01,-0.01 0.02,-0.01l0.02 0c0.01,0 0.02,0 0.03,0.01 0.01,0.01 0.02,0.02 0.02,0.04l0 0.31 -0.06 0 0 -0.3 -0.05 0 0 0.3z"/>
   <path id="6" class="fil0" d="M1.73 0.05c0,-0.02 0.01,-0.03 0.02,-0.04 0.01,-0.01 0.02,-0.01 0.03,-0.01l0.07 0c0.01,0 0.02,0 0.03,0.01 0.01,0.01 0.02,0.02 0.02,0.04l0 0.01 -0.06 0.03 0 -0.03 -0.05 0 0 0.09 0.11 -0.06 0 0.22c0,0.01 -0.01,0.03 -0.02,0.03 -0.01,0.01 -0.02,0.02 -0.03,0.02l-0.07 0c-0.01,0 -0.02,-0.01 -0.03,-0.02 -0.01,0 -0.02,-0.02 -0.02,-0.03l0 -0.04 0.06 -0.03 0 0.06 0.05 0 0 -0.11 -0.11 0.05 0 -0.19z"/>
   <polygon id="7" class="fil0" points="2.09,0.36 1.95,0.36 1.95,0 2.09,0 2.09,0.06 2.01,0.06 2.01,0.15 2.09,0.11 2.09,0.17 2.01,0.21 2.01,0.3 2.09,0.3 "/>
   <path id="8" class="fil0" d="M2.3 0.18l-0.04 0.02 0.07 0.16 -0.06 0 -0.06 -0.14 -0.01 0.01 0 0.13 -0.06 0 0 -0.36 0.12 0c0.01,0 0.02,0 0.03,0.01 0.01,0.01 0.01,0.02 0.01,0.04l0 0.13zm-0.06 -0.04l0 -0.08 -0.04 0 0 0.11 0.04 -0.03z"/>
   <polygon id="9" class="fil0" points="2.4,0.36 2.33,0 2.39,0 2.43,0.23 2.47,0 2.53,0 2.46,0.36 "/>
   <polygon id="10" class="fil0" points="2.62,0.36 2.56,0.36 2.56,0 2.62,0 "/>
   <path id="11" class="fil0" d="M2.67 0.05c0,-0.02 0.01,-0.03 0.02,-0.04 0,-0.01 0.02,-0.01 0.03,-0.01l0.07 0c0.01,0 0.02,0 0.03,0.01 0.01,0.01 0.01,0.02 0.01,0.04l0 0.05 -0.05 0.02 0 -0.06 -0.05 0 0 0.24 0.05 0 0 -0.05 0.05 -0.03 0 0.09c0,0.01 0,0.03 -0.01,0.03 -0.01,0.01 -0.02,0.02 -0.03,0.02l-0.07 0c-0.01,0 -0.03,-0.01 -0.03,-0.02 -0.01,0 -0.02,-0.02 -0.02,-0.03l0 -0.26z"/>
   <polygon id="12" class="fil0" points="3.03,0.36 2.89,0.36 2.89,0 3.03,0 3.03,0.06 2.95,0.06 2.95,0.15 3.03,0.11 3.03,0.17 2.95,0.21 2.95,0.3 3.03,0.3 "/>
   <path id="13" class="fil0" d="M3.08 0.05c0,-0.02 0.01,-0.03 0.01,-0.04 0.01,-0.01 0.02,-0.01 0.04,-0.01l0.06 0c0.02,0 0.03,0 0.04,0.01 0.01,0.01 0.01,0.02 0.01,0.04l0 0.01 -0.06 0.03 0 -0.03 -0.04 0 0 0.09 0.1 -0.06 0 0.22c0,0.01 0,0.03 -0.01,0.03 -0.01,0.01 -0.02,0.02 -0.04,0.02l-0.06 0c-0.02,0 -0.03,-0.01 -0.04,-0.02 0,0 -0.01,-0.02 -0.01,-0.03l0 -0.04 0.06 -0.03 0 0.06 0.04 0 0 -0.11 -0.1 0.05 0 -0.19z"/>
   <polygon class="fil0" points="0.1,1.28 0.01,0.76 0.09,0.76 0.15,1.09 0.2,0.76 0.29,0.76 0.2,1.28 "/>
   <polygon id="1" class="fil0" points="0.43,1.28 0.34,1.28 0.34,0.76 0.43,0.76 "/>
   <path id="2" class="fil0" d="M0.97 0.7l0.09 0 0 0.02 0.15 0 0.03 -0.04 0.09 0.06 -0.02 0.02 0 0.35 -0.1 0 0 -0.33 -0.15 0 0 0.33 -0.09 0 0 -0.04c-0.02,0.02 -0.03,0.03 -0.04,0.04 -0.01,0.01 -0.02,0 -0.02,-0.01 -0.01,-0.02 -0.02,-0.04 -0.03,-0.07 -0.01,-0.02 -0.01,-0.03 -0.01,-0.04l0 0.36 -0.1 0 0 -0.28c-0.03,0.02 -0.06,0.04 -0.08,0.06l-0.04 -0.03c0.07,-0.07 0.13,-0.14 0.17,-0.23l-0.14 0 -0.01 -0.07 0.17 0 0.02 -0.04 0.1 0.07 -0.04 0.05c-0.02,0.03 -0.04,0.06 -0.05,0.09l0 0.01 0.02 -0.01c0.03,0.02 0.06,0.04 0.08,0.06l0 -0.33zm0.25 0.55l0.03 0c0.02,0 0.03,-0.04 0.04,-0.1l0.04 0.01c-0.01,0.05 0,0.08 0.03,0.08 -0.01,0.06 -0.04,0.09 -0.09,0.09l-0.08 0c-0.05,0.01 -0.08,-0.02 -0.08,-0.07l0 -0.05c-0.03,0.05 -0.09,0.09 -0.18,0.15l-0.04 -0.05c0.08,-0.06 0.14,-0.12 0.16,-0.16 0.03,-0.05 0.04,-0.11 0.04,-0.2l0 -0.12 0.09 0 0 0.11c0,0.03 0,0.06 0,0.08l0.02 0 0 0.2c0,0.02 0.01,0.03 0.02,0.03zm-0.44 -0.59c0.03,0.01 0.05,0.04 0.08,0.06 0.01,0.01 0.01,0.02 -0.01,0.03 0,0.01 -0.02,0.02 -0.04,0.04 -0.02,0.01 -0.03,0.01 -0.03,-0.01 -0.01,-0.04 -0.02,-0.07 -0.03,-0.11l0.03 -0.01z"/>
   <path id="3" class="fil0" d="M1.88 0.82c0.02,-0.04 0.04,-0.09 0.06,-0.15l0.11 0.05c-0.04,0.04 -0.07,0.08 -0.09,0.1l0.07 0 0.03 -0.04 0.09 0.07 -0.03 0.03c-0.03,0.03 -0.05,0.06 -0.07,0.08l-0.04 -0.01 0.01 -0.06 -0.46 0c0,0 0,0.01 0,0.02 0,0.02 0,0.02 -0.01,0.03 0,0.01 0,0.02 -0.02,0.02 -0.02,0 -0.04,0 -0.06,-0.01 -0.02,0 -0.03,-0.02 -0.01,-0.04 0.01,-0.02 0.03,-0.07 0.06,-0.13l0.04 0.02c0,0 0,0.01 0,0.02l0.05 0c0,0 0,0 0,0 -0.01,-0.03 -0.03,-0.05 -0.05,-0.09 0,0 0,0 -0.01,0l0.04 -0.04c0.03,0.02 0.06,0.03 0.09,0.05 0.01,0.01 0.02,0.02 0.01,0.03 -0.01,0.02 -0.03,0.04 -0.04,0.05l0.24 0 -0.01 0zm-0.41 0.49c0.18,-0.05 0.27,-0.14 0.28,-0.28l0.1 0.01c0,0.03 -0.01,0.05 -0.02,0.08l0.04 0 0 0.1c0,0.02 0.01,0.03 0.03,0.03l0.09 0c0.03,0.01 0.05,-0.03 0.06,-0.1l0.04 0.01c-0.01,0.05 0,0.08 0.03,0.08 -0.02,0.06 -0.05,0.09 -0.09,0.09l-0.17 0c-0.06,0.01 -0.08,-0.02 -0.08,-0.08l0 -0.03c-0.05,0.07 -0.14,0.11 -0.27,0.14l-0.04 -0.05zm0.11 -0.39l0.1 0 0 0.01 0.22 0 0.02 -0.03 0.1 0.06 -0.03 0.03 0 0.2 -0.09 0 0 -0.19 -0.22 0 0 0.19 -0.1 0 0 -0.27zm0.19 -0.26c0.03,0.03 0.05,0.05 0.07,0.07 0.01,0.01 0.01,0.02 0,0.04 -0.01,0.01 -0.03,0.03 -0.05,0.04 -0.02,0.01 -0.03,0 -0.03,-0.02 -0.01,-0.03 -0.03,-0.07 -0.04,-0.1l0.05 -0.03z"/>
   <path id="4" class="fil0" d="M2.88 0.94l-0.12 0 0.09 0.06 -0.04 0.04c-0.02,0.07 -0.05,0.12 -0.08,0.15 0.05,0.02 0.11,0.04 0.19,0.06 -0.03,0.02 -0.06,0.06 -0.08,0.1 -0.07,-0.02 -0.13,-0.05 -0.18,-0.09 -0.06,0.04 -0.13,0.07 -0.21,0.09l-0.04 -0.05c0.08,-0.03 0.14,-0.06 0.18,-0.1 -0.03,-0.04 -0.05,-0.09 -0.07,-0.16l-0.03 0 -0.01 -0.06c0,0 0,0 0,0 0,0 -0.01,0 -0.01,0l-0.04 -0.03c0.06,-0.05 0.09,-0.1 0.09,-0.16l0 -0.1 0.09 0 0 0.02 0.08 0 0.02 -0.03 0.09 0.05 -0.02 0.03 0 0.08c0,0.01 0.01,0.02 0.02,0.02 0.05,0 0.08,0 0.1,0 -0.01,0.01 -0.02,0.04 -0.02,0.07 0,0.01 0,0.01 0,0.01zm-0.66 -0.05l0.09 0 0.03 -0.04 0.09 0.07 -0.02 0.03 0 0.19c0.03,-0.02 0.05,-0.04 0.06,-0.05l0.03 0.06c-0.05,0.06 -0.1,0.12 -0.16,0.18l-0.07 -0.07c0.03,-0.02 0.04,-0.05 0.04,-0.08l0 -0.23 -0.07 0 -0.02 -0.06zm0.28 0.08l0.22 0 0.03 -0.03c-0.04,-0.01 -0.06,-0.03 -0.06,-0.08l0 -0.08 -0.08 0 0 0.01c0,0.07 -0.04,0.13 -0.11,0.18zm-0.19 -0.29c0.03,0.01 0.06,0.03 0.1,0.05 0,0 0.01,0 0.01,0 0.01,0.01 0.01,0.03 0.01,0.04 -0.01,0 -0.01,0 -0.01,0.01 -0.01,0.03 -0.02,0.04 -0.03,0.05 -0.01,0.01 -0.02,0.01 -0.03,0 -0.02,-0.05 -0.05,-0.08 -0.08,-0.11l0.03 -0.04zm0.28 0.36c0.02,0.03 0.04,0.07 0.07,0.09 0.02,-0.02 0.03,-0.06 0.04,-0.09l-0.11 0z"/>
   <path id="5" class="fil0" d="M3.42 0.67l0.1 0 0 0.24 0.08 0 0.02 -0.03 0.07 0.06 -0.02 0.04 -0.15 0 0 0.37 -0.1 0 0 -0.37 -0.15 0 -0.01 -0.07 0.16 0 0 -0.24zm-0.41 0.24l0.11 0 0.02 -0.04 0.11 0.06 -0.03 0.04 0 0.2c0.01,-0.01 0.03,-0.02 0.05,-0.04 0.02,-0.02 0.02,-0.02 0.03,-0.03l0.03 0.05c-0.03,0.04 -0.09,0.11 -0.18,0.19l-0.06 -0.08c0.02,-0.02 0.03,-0.04 0.03,-0.07l0 -0.22 -0.1 0 -0.01 -0.06zm0.13 -0.22c0.04,0.02 0.07,0.05 0.09,0.07 0.02,0.02 0.02,0.03 0.01,0.04 -0.01,0.01 -0.02,0.03 -0.04,0.05 -0.01,0.01 -0.02,0.01 -0.02,0.01 -0.01,0 -0.01,-0.01 -0.02,-0.02 -0.01,-0.04 -0.03,-0.08 -0.06,-0.13l0.04 -0.02z"/>
   <polygon class="fil0" points="0.05,1.79 0,1.6 0.05,1.6 0.08,1.72 0.11,1.6 0.15,1.6 0.1,1.79 "/>
   <polygon id="1" class="fil0" points="0.25,1.79 0.21,1.79 0.21,1.6 0.25,1.6 "/>
   <path id="2" class="fil0" d="M0.33 1.63c0,-0.01 0,-0.02 0.01,-0.02 0.01,-0.01 0.02,-0.01 0.03,-0.01l0.05 0c0.01,0 0.02,0 0.03,0.01 0,0 0.01,0.01 0.01,0.02l0 0 -0.05 0.02 0 -0.02 -0.03 0 0 0.05 0.08 -0.03 0 0.11c0,0.01 -0.01,0.02 -0.01,0.02 -0.01,0.01 -0.02,0.01 -0.03,0.01l-0.05 0c-0.01,0 -0.02,0 -0.03,-0.01 -0.01,0 -0.01,-0.01 -0.01,-0.02l0 -0.01 0.05 -0.02 0 0.03 0.03 0 0 -0.06 -0.08 0.03 0 -0.1z"/>
   <path id="3" class="fil0" d="M0.53 1.6l0.05 0 0 0.16 0.03 0 0 -0.16 0.05 0 0 0.16c0,0.01 -0.01,0.02 -0.01,0.02 -0.01,0.01 -0.02,0.01 -0.03,0.01l-0.05 0c-0.01,0 -0.02,0 -0.03,-0.01 0,0 -0.01,-0.01 -0.01,-0.02l0 -0.16z"/>
   <path id="4" class="fil0" d="M0.81 1.68l0 -0.05 -0.03 0 0 0.06 0.03 -0.01zm0.05 0.11l-0.05 0 0 -0.08 -0.03 0.01 0 0.07 -0.05 0 0 -0.16c0,-0.01 0.01,-0.02 0.01,-0.02 0.01,-0.01 0.02,-0.01 0.03,-0.01l0.05 0c0.01,0 0.02,0 0.03,0.01 0.01,0 0.01,0.01 0.01,0.02l0 0.16z"/>
   <polygon id="5" class="fil0" points="1.04,1.76 1.04,1.79 0.94,1.79 0.94,1.6 0.98,1.6 0.98,1.76 "/>
   <polygon id="6" class="fil0" points="1.23,1.79 1.19,1.79 1.19,1.6 1.23,1.6 "/>
   <path id="7" class="fil0" d="M1.4 1.6c0.01,0 0.02,0 0.03,0.01 0,0 0,0.01 0,0.02l0 0.13c0,0.01 0,0.02 0,0.02 -0.01,0.01 -0.02,0.01 -0.03,0.01l-0.09 0 0 -0.19 0.09 0zm-0.01 0.03l-0.03 0 0 0.13 0.03 0 0 -0.13z"/>
   <polygon id="8" class="fil0" points="1.62,1.79 1.51,1.79 1.51,1.6 1.62,1.6 1.62,1.63 1.56,1.63 1.56,1.68 1.62,1.66 1.62,1.69 1.56,1.71 1.56,1.76 1.62,1.76 "/>
   <path id="9" class="fil0" d="M1.74 1.79l-0.05 0 0 -0.19 0.05 0 0 0.02c0,-0.01 0,-0.01 0.01,-0.01 0,-0.01 0.01,-0.01 0.02,-0.01l0.01 0c0.01,0 0.02,0 0.03,0.01 0,0 0.01,0.01 0.01,0.02l0 0.16 -0.05 0 0 -0.16 -0.03 0 0 0.16z"/>
   <polygon id="10" class="fil0" points="1.93,1.79 1.93,1.63 1.88,1.63 1.88,1.6 2.02,1.6 2.02,1.63 1.97,1.63 1.97,1.79 "/>
   <polygon id="11" class="fil0" points="2.12,1.79 2.08,1.79 2.08,1.6 2.12,1.6 "/>
   <polygon id="12" class="fil0" points="2.23,1.79 2.23,1.63 2.19,1.63 2.19,1.6 2.32,1.6 2.32,1.63 2.28,1.63 2.28,1.79 "/>
   <path id="13" class="fil0" d="M2.39 1.6l0.04 0 0 0.08 0.03 -0.01 0 -0.07 0.05 0 0 0.16c0,0.01 0,0.02 -0.01,0.02 -0.01,0.01 -0.01,0.01 -0.03,0.01l-0.05 0c-0.01,0 -0.02,0 -0.02,-0.01 -0.01,0 -0.01,-0.01 -0.01,-0.02l0 0 0.04 -0.02 0 0.02 0.03 0 0 -0.06 -0.07 0.03 0 -0.13z"/>
   <path id="14" class="fil0" d="M2.76 1.6c0.01,0 0.02,0 0.02,0.01 0.01,0 0.01,0.01 0.01,0.02l0 0.13c0,0.01 0,0.02 -0.01,0.02 0,0.01 -0.01,0.01 -0.02,0.01l-0.09 0 0 -0.19 0.09 0zm-0.01 0.03l-0.04 0 0 0.13 0.04 0 0 -0.13z"/>
   <polygon id="15" class="fil0" points="2.98,1.79 2.87,1.79 2.87,1.6 2.98,1.6 2.98,1.63 2.91,1.63 2.91,1.68 2.98,1.66 2.98,1.69 2.91,1.71 2.91,1.76 2.98,1.76 "/>
   <path id="16" class="fil0" d="M3.05 1.63c0,-0.01 0,-0.02 0.01,-0.02 0.01,-0.01 0.02,-0.01 0.03,-0.01l0.05 0c0.01,0 0.02,0 0.03,0.01 0,0 0.01,0.01 0.01,0.02l0 0 -0.05 0.02 0 -0.02 -0.03 0 0 0.05 0.08 -0.03 0 0.11c0,0.01 -0.01,0.02 -0.01,0.02 -0.01,0.01 -0.02,0.01 -0.03,0.01l-0.05 0c-0.01,0 -0.02,0 -0.03,-0.01 -0.01,0 -0.01,-0.01 -0.01,-0.02l0 -0.01 0.05 -0.02 0 0.03 0.03 0 0 -0.06 -0.08 0.03 0 -0.1z"/>
   <polygon id="17" class="fil0" points="3.3,1.79 3.25,1.79 3.25,1.6 3.3,1.6 "/>
   <path id="18" class="fil0" d="M3.37 1.63c0,-0.01 0.01,-0.02 0.01,-0.02 0.01,-0.01 0.02,-0.01 0.03,-0.01l0.05 0c0.01,0 0.02,0 0.03,0.01 0.01,0 0.01,0.01 0.01,0.02l0 0.02 -0.05 0.02 0 -0.04 -0.03 0 0 0.13 0.03 0 0 -0.04 -0.02 0 0 -0.03 0.07 -0.02 0 0.12 -0.09 0c-0.01,0 -0.02,0 -0.03,-0.01 0,0 -0.01,-0.01 -0.01,-0.02l0 -0.13z"/>
   <path id="19" class="fil0" d="M3.62 1.79l-0.04 0 0 -0.19 0.04 0 0 0.02c0,-0.01 0.01,-0.01 0.01,-0.01 0,-0.01 0.01,-0.01 0.02,-0.01l0.01 0c0.02,0 0.02,0 0.03,0.01 0.01,0 0.01,0.01 0.01,0.02l0 0.16 -0.04 0 0 -0.16 -0.04 0 0 0.16z"/>
  </g>
 </g>
</svg>
