<?xml version="1.0" encoding="UTF-8"?>
<!DOCTYPE svg PUBLIC "-//W3C//DTD SVG 1.1//EN" "http://www.w3.org/Graphics/SVG/1.1/DTD/svg11.dtd">
<!-- Creator: CorelDRAW 2017 -->
<svg xmlns="http://www.w3.org/2000/svg" xml:space="preserve" width="199px" height="76px" version="1.1" style="shape-rendering:geometricPrecision; text-rendering:geometricPrecision; image-rendering:optimizeQuality; fill-rule:evenodd; clip-rule:evenodd"
viewBox="0 0 6 2.28"
 xmlns:xlink="http://www.w3.org/1999/xlink">
 <defs>
  <style type="text/css">
   <![CDATA[
    .fil0 {fill:white;fill-rule:nonzero}
   ]]>
  </style>
 </defs>
 <g id="图层_x0020_1">
  <metadata id="CorelCorpID_0Corel-Layer"/>
  <path class="fil0" d="M1.37 0c0.02,0 0.04,0.01 0.05,0.02 0.01,0.01 0.01,0.02 0.01,0.04l0 0.33c0,0.02 0,0.04 -0.01,0.05 -0.01,0.01 -0.03,0.02 -0.05,0.02l-0.14 0 0 -0.46 0.14 0zm-0.01 0.07l-0.06 0 0 0.31 0.06 0 0 -0.31z"/>
  <polygon id="1" class="fil0" points="1.68,0.46 1.5,0.46 1.5,0 1.68,0 1.68,0.07 1.58,0.07 1.58,0.19 1.68,0.14 1.68,0.22 1.58,0.27 1.58,0.38 1.68,0.38 "/>
  <path id="2" class="fil0" d="M1.75 0.06c0,-0.02 0,-0.03 0.01,-0.04 0.01,-0.01 0.03,-0.02 0.05,-0.02l0.08 0c0.02,0 0.03,0.01 0.05,0.02 0.01,0.01 0.01,0.02 0.01,0.04l0 0.01 -0.07 0.04 0 -0.04 -0.06 0 0 0.12 0.13 -0.07 0 0.27c0,0.02 0,0.04 -0.01,0.05 -0.02,0.01 -0.03,0.02 -0.05,0.02l-0.08 0c-0.02,0 -0.04,-0.01 -0.05,-0.02 -0.01,-0.01 -0.01,-0.03 -0.01,-0.05l0 -0.04 0.07 -0.04 0 0.07 0.06 0 0 -0.14 -0.13 0.07 0 -0.25z"/>
  <polygon id="3" class="fil0" points="2.1,0.46 2.02,0.46 2.02,0 2.1,0 "/>
  <path id="4" class="fil0" d="M2.17 0.06c0,-0.02 0.01,-0.03 0.02,-0.04 0.01,-0.01 0.02,-0.02 0.04,-0.02l0.08 0c0.02,0 0.04,0.01 0.05,0.02 0.01,0.01 0.01,0.02 0.01,0.04l0 0.07 -0.07 0.04 0 -0.1 -0.06 0 0 0.31 0.06 0 0 -0.1 -0.03 0.02 0 -0.09 0.1 -0.05 0 0.3 -0.14 0c-0.02,0 -0.03,-0.01 -0.04,-0.02 -0.01,-0.01 -0.02,-0.03 -0.02,-0.05l0 -0.33z"/>
  <path id="5" class="fil0" d="M2.52 0.46l-0.07 0 0 -0.46 0.07 0 0 0.04c0,-0.02 0.01,-0.03 0.02,-0.03 0,-0.01 0.01,-0.01 0.03,-0.01l0.02 0c0.02,0 0.03,0.01 0.05,0.02 0.01,0.01 0.01,0.02 0.01,0.04l0 0.4 -0.07 0 0 -0.39 -0.06 0 0 0.39z"/>
  <path id="6" class="fil0" d="M2.85 0.06c0,-0.02 0.01,-0.03 0.02,-0.04 0.01,-0.01 0.03,-0.02 0.04,-0.02l0.09 0c0.02,0 0.03,0.01 0.04,0.02 0.01,0.01 0.02,0.02 0.02,0.04l0 0.01 -0.08 0.04 0 -0.04 -0.05 0 0 0.12 0.13 -0.07 0 0.27c0,0.02 -0.01,0.04 -0.02,0.05 -0.01,0.01 -0.02,0.02 -0.04,0.02l-0.09 0c-0.01,0 -0.03,-0.01 -0.04,-0.02 -0.01,-0.01 -0.02,-0.03 -0.02,-0.05l0 -0.04 0.08 -0.04 0 0.07 0.05 0 0 -0.14 -0.13 0.07 0 -0.25z"/>
  <polygon id="7" class="fil0" points="3.31,0.46 3.13,0.46 3.13,0 3.31,0 3.31,0.07 3.21,0.07 3.21,0.19 3.31,0.14 3.31,0.22 3.21,0.27 3.21,0.38 3.31,0.38 "/>
  <path id="8" class="fil0" d="M3.58 0.23l-0.06 0.02 0.09 0.21 -0.08 0 -0.07 -0.17 -0.01 0 0 0.17 -0.08 0 0 -0.46 0.15 0c0.02,0 0.03,0.01 0.04,0.02 0.01,0.01 0.02,0.02 0.02,0.04l0 0.17zm-0.08 -0.05l0 -0.11 -0.05 0 0 0.14 0.05 -0.03z"/>
  <polygon id="9" class="fil0" points="3.7,0.46 3.62,0 3.69,0 3.74,0.29 3.79,0 3.87,0 3.79,0.46 "/>
  <polygon id="10" class="fil0" points="3.98,0.46 3.91,0.46 3.91,0 3.98,0 "/>
  <path id="11" class="fil0" d="M4.05 0.06c0,-0.02 0.01,-0.03 0.02,-0.04 0.01,-0.01 0.02,-0.02 0.04,-0.02l0.09 0c0.01,0 0.03,0.01 0.04,0.02 0.01,0.01 0.02,0.02 0.02,0.04l0 0.06 -0.08 0.04 0 -0.09 -0.05 0 0 0.31 0.05 0 0 -0.06 0.08 -0.04 0 0.11c0,0.02 -0.01,0.04 -0.02,0.05 -0.01,0.01 -0.02,0.02 -0.04,0.02l-0.09 0c-0.02,0 -0.03,-0.01 -0.04,-0.02 -0.01,-0.01 -0.02,-0.03 -0.02,-0.05l0 -0.33z"/>
  <polygon id="12" class="fil0" points="4.51,0.46 4.33,0.46 4.33,0 4.51,0 4.51,0.07 4.4,0.07 4.4,0.19 4.51,0.14 4.51,0.22 4.4,0.27 4.4,0.38 4.51,0.38 "/>
  <path id="13" class="fil0" d="M4.57 0.06c0,-0.02 0.01,-0.03 0.02,-0.04 0.01,-0.01 0.02,-0.02 0.04,-0.02l0.08 0c0.02,0 0.04,0.01 0.05,0.02 0.01,0.01 0.02,0.02 0.02,0.04l0 0.01 -0.08 0.04 0 -0.04 -0.05 0 0 0.12 0.13 -0.07 0 0.27c0,0.02 -0.01,0.04 -0.02,0.05 -0.01,0.01 -0.03,0.02 -0.05,0.02l-0.08 0c-0.02,0 -0.03,-0.01 -0.04,-0.02 -0.01,-0.01 -0.02,-0.03 -0.02,-0.05l0 -0.04 0.08 -0.04 0 0.07 0.05 0 0 -0.14 -0.13 0.07 0 -0.25z"/>
  <path class="fil0" d="M0.2 1.03l0.1 0 0 0.02 0.23 0 0.03 -0.04 0.11 0.08 -0.04 0.04 0 0.39 -0.1 0 0 -0.03 -0.23 0 0 0.03 -0.1 0 0 -0.49zm0.49 0.06l0.12 0 0 0.62 -0.12 0 0 -0.06 -0.55 0 -0.03 0.04 -0.11 -0.08c0.02,-0.02 0.03,-0.05 0.03,-0.09l0 -0.43 0.12 0 0 0.48 0.54 0 0 -0.48zm-0.66 -0.19l0.65 0 0.04 -0.05 0.1 0.07 -0.03 0.06 -0.74 0 -0.02 -0.08zm0.44 0.41l0 0.1 0.06 0 0 -0.1 -0.06 0zm-0.17 0l0 0.1 0.07 0 0 -0.1 -0.07 0zm0.17 -0.17l0 0.09 0.06 0 0 -0.09 -0.06 0zm-0.17 0l0 0.09 0.07 0 0 -0.09 -0.07 0z"/>
  <path id="1" class="fil0" d="M1.43 0.88l0.11 0 0 0.02 0.06 0 0.04 -0.05 0.12 0.07 -0.03 0.05 0 0.24 0.01 0 0.03 -0.05 0.1 0.08 -0.03 0.05 -0.11 0 0 0.3c0.02,0.08 -0.03,0.11 -0.13,0.11 0,-0.04 -0.03,-0.06 -0.08,-0.05l0 -0.05c0.07,0 0.1,-0.01 0.09,-0.04l0 -0.27 -0.07 0 0 0.02c0,0.18 -0.04,0.32 -0.14,0.4l-0.05 -0.02c0.06,-0.08 0.09,-0.2 0.08,-0.37l0 -0.03 -0.06 0 0 0.28c0,0.07 -0.04,0.1 -0.13,0.1 0,-0.03 -0.02,-0.05 -0.07,-0.05l-0.01 -0.04c0.07,0 0.1,-0.01 0.09,-0.04l0 -0.25 -0.06 0 0 0.03c0,0.17 -0.05,0.29 -0.17,0.38l-0.04 -0.02c0.07,-0.09 0.1,-0.21 0.1,-0.37l0 -0.02 -0.1 0 -0.02 -0.08 0.12 0 0 -0.33 0.11 0 0 0.02 0.06 0 0.03 -0.05 0.12 0.07 -0.03 0.05 0 0.24 0.06 0 0 -0.33zm0.11 0.1l0 0.23 0.07 0 0 -0.23 -0.07 0zm-0.35 0l0 0.23 0.06 0 0 -0.23 -0.06 0z"/>
  <path id="2" class="fil0" d="M2.87 0.86l0.08 0.12c-0.09,0.01 -0.18,0.03 -0.29,0.03l0 0.11 0.15 0 0.03 -0.04 0.11 0.07 -0.04 0.06 -0.25 0 0 0.12 0.23 0 0.03 -0.05 0.11 0.08 -0.03 0.06 -0.34 0 0 0.17c0.02,0.08 -0.04,0.13 -0.16,0.13 0,-0.05 -0.03,-0.07 -0.08,-0.07l-0.01 -0.06c0.09,0.01 0.13,0 0.12,-0.04l0 -0.13 -0.36 0 -0.02 -0.09 0.38 0 0 -0.12 -0.27 0 -0.02 -0.09 0.29 0 0 -0.1c-0.12,0.01 -0.22,0.01 -0.3,0.01l-0.01 -0.07c0.28,-0.02 0.5,-0.06 0.65,-0.1z"/>
  <path id="3" class="fil0" d="M3.6 0.88l0.11 0 0 0.02 0.06 0 0.04 -0.05 0.12 0.07 -0.03 0.05 0 0.24 0.01 0 0.03 -0.05 0.1 0.08 -0.03 0.05 -0.11 0 0 0.3c0.02,0.08 -0.03,0.11 -0.13,0.11 0,-0.04 -0.03,-0.06 -0.08,-0.05l0 -0.05c0.07,0 0.1,-0.01 0.09,-0.04l0 -0.27 -0.07 0 0 0.02c0,0.18 -0.04,0.32 -0.14,0.4l-0.05 -0.02c0.06,-0.08 0.09,-0.2 0.08,-0.37l0 -0.03 -0.06 0 0 0.28c0,0.07 -0.04,0.1 -0.13,0.1 0,-0.03 -0.03,-0.05 -0.07,-0.05l-0.01 -0.04c0.07,0 0.1,-0.01 0.09,-0.04l0 -0.25 -0.06 0 0 0.03c0,0.17 -0.05,0.29 -0.17,0.38l-0.04 -0.02c0.07,-0.09 0.1,-0.21 0.1,-0.37l0 -0.02 -0.1 0 -0.02 -0.08 0.12 0 0 -0.33 0.11 0 0 0.02 0.06 0 0.03 -0.05 0.12 0.07 -0.03 0.05 0 0.24 0.06 0 0 -0.33zm0.11 0.1l0 0.23 0.07 0 0 -0.23 -0.07 0zm-0.35 0l0 0.23 0.06 0 0 -0.23 -0.06 0z"/>
  <path id="4" class="fil0" d="M4.96 1.19l-0.14 0 0.11 0.07 -0.05 0.05c-0.03,0.09 -0.07,0.15 -0.1,0.19 0.05,0.04 0.13,0.06 0.23,0.08 -0.04,0.03 -0.07,0.08 -0.09,0.12 -0.09,-0.02 -0.17,-0.06 -0.24,-0.1 -0.07,0.04 -0.16,0.08 -0.26,0.1l-0.05 -0.05c0.1,-0.04 0.17,-0.08 0.23,-0.13 -0.04,-0.05 -0.07,-0.12 -0.1,-0.21l-0.03 0 -0.01 -0.08c-0.01,0 -0.01,0 -0.01,0 0,0.01 0,0.01 -0.01,0.01l-0.05 -0.04c0.08,-0.06 0.11,-0.13 0.11,-0.21l0 -0.12 0.12 0 0 0.03 0.1 0 0.03 -0.05 0.12 0.07 -0.03 0.03 0 0.1c0,0.02 0.01,0.03 0.03,0.03 0.05,0 0.1,0 0.12,0 -0.01,0.02 -0.02,0.05 -0.03,0.1 0,0 0,0 0,0.01zm-0.83 -0.07l0.11 0 0.04 -0.05 0.11 0.09 -0.03 0.03 0 0.26c0.04,-0.03 0.06,-0.05 0.08,-0.07l0.04 0.07c-0.06,0.08 -0.13,0.16 -0.2,0.24l-0.09 -0.1c0.04,-0.02 0.05,-0.06 0.05,-0.1l0 -0.28 -0.09 0 -0.02 -0.09zm0.35 0.1l0.28 0 0.03 -0.03c-0.05,-0.01 -0.07,-0.04 -0.07,-0.11l0 -0.1 -0.1 0 0 0.02c0,0.09 -0.04,0.16 -0.14,0.22zm-0.24 -0.36c0.03,0.01 0.07,0.03 0.12,0.06 0.01,0 0.01,0 0.02,0 0.01,0.02 0.01,0.03 0.01,0.05 -0.01,0 -0.01,0 -0.01,0.01 -0.01,0.04 -0.03,0.06 -0.04,0.07 -0.01,0.01 -0.02,0.01 -0.03,-0.01 -0.04,-0.05 -0.07,-0.1 -0.11,-0.14l0.04 -0.04zm0.36 0.45c0.02,0.05 0.05,0.09 0.08,0.12 0.03,-0.03 0.05,-0.07 0.06,-0.12l-0.14 0z"/>
  <path id="5" class="fil0" d="M5.65 0.85l0.14 0 0 0.3 0.09 0 0.02 -0.04 0.1 0.07 -0.03 0.06 -0.18 0 0 0.47 -0.14 0 0 -0.47 -0.19 0 -0.01 -0.09 0.2 0 0 -0.3zm-0.52 0.29l0.14 0 0.03 -0.05 0.14 0.08 -0.04 0.05 0 0.26c0.01,-0.01 0.04,-0.03 0.07,-0.06 0.01,-0.01 0.02,-0.02 0.03,-0.03l0.05 0.07c-0.05,0.05 -0.13,0.13 -0.23,0.24l-0.09 -0.1c0.03,-0.03 0.04,-0.06 0.04,-0.1l0 -0.27 -0.13 0 -0.01 -0.09zm0.17 -0.27c0.04,0.03 0.08,0.06 0.12,0.09 0.02,0.02 0.02,0.03 0,0.05 -0.01,0.02 -0.03,0.04 -0.05,0.06 -0.01,0.01 -0.02,0.01 -0.03,0.01 -0.01,0 -0.01,-0.01 -0.01,-0.02 -0.02,-0.05 -0.05,-0.1 -0.08,-0.16l0.05 -0.03z"/>
  <polygon id="6" class="fil0" points="1.8,1.7 2.08,0.93 2.15,0.93 1.88,1.7 "/>
  <path class="fil0" d="M0.24 2.14l0 -0.06 -0.05 0 0 0.08 0.05 -0.02zm0.06 0.03l-0.11 0.03 0 0.08 -0.05 0 0 -0.24 0.11 0c0.01,0 0.02,0.01 0.03,0.01 0.01,0.01 0.02,0.02 0.02,0.03l0 0.09z"/>
  <polygon id="1" class="fil0" points="0.52,2.28 0.46,2.28 0.46,2.04 0.52,2.04 "/>
  <path id="2" class="fil0" d="M0.69 2.08c0,-0.01 0,-0.02 0.01,-0.03 0.01,0 0.02,-0.01 0.03,-0.01l0.07 0c0.01,0 0.02,0.01 0.03,0.01 0.01,0.01 0.02,0.02 0.02,0.03l0 0.03 -0.06 0.02 0 -0.05 -0.05 0 0 0.16 0.05 0 0 -0.03 0.06 -0.02 0 0.06c0,0.01 -0.01,0.02 -0.02,0.02 0,0.01 -0.02,0.01 -0.03,0.01l-0.07 0c-0.01,0 -0.02,0 -0.03,-0.01 -0.01,0 -0.01,-0.01 -0.01,-0.02l0 -0.17z"/>
  <polygon id="3" class="fil0" points="1.05,2.28 1.05,2.08 1,2.08 1,2.04 1.17,2.04 1.17,2.08 1.11,2.08 1.11,2.28 "/>
  <path id="4" class="fil0" d="M1.32 2.04l0.06 0 0 0.2 0.04 0 0 -0.2 0.06 0 0 0.21c0,0.01 0,0.02 -0.01,0.02 -0.01,0.01 -0.02,0.01 -0.04,0.01l-0.06 0c-0.02,0 -0.03,0 -0.04,-0.01 0,0 -0.01,-0.01 -0.01,-0.02l0 -0.21z"/>
  <path id="5" class="fil0" d="M1.81 2.16l-0.04 0.02 0.06 0.1 -0.06 0 -0.05 -0.09 -0.01 0.01 0 0.08 -0.06 0 0 -0.24 0.11 0c0.02,0 0.03,0.01 0.04,0.01 0.01,0.01 0.01,0.02 0.01,0.03l0 0.08zm-0.06 -0.02l0 -0.06 -0.04 0 0 0.07 0.04 -0.01z"/>
  <polygon id="6" class="fil0" points="2.12,2.28 1.98,2.28 1.98,2.04 2.12,2.04 2.12,2.08 2.04,2.08 2.04,2.14 2.12,2.12 2.12,2.16 2.04,2.19 2.04,2.24 2.12,2.24 "/>
  <path id="7" class="fil0" d="M2.49 2.14l0 -0.06 -0.05 0 0 0.07 0.05 -0.01zm0.05 0.14l-0.05 0 0 -0.1 -0.05 0.02 0 0.08 -0.06 0 0 -0.2c0,-0.01 0.01,-0.02 0.02,-0.03 0,0 0.02,-0.01 0.03,-0.01l0.07 0c0.01,0 0.02,0.01 0.03,0.01 0.01,0.01 0.01,0.02 0.01,0.03l0 0.2z"/>
  <polygon id="8" class="fil0" points="2.85,2.24 2.85,2.28 2.71,2.28 2.71,2.04 2.77,2.04 2.77,2.24 "/>
  <path id="9" class="fil0" d="M3.11 2.25l0 -0.08 -0.05 0.01 0 0.07 0.05 0zm0.05 -0.09l0 0.09c0,0.01 0,0.02 -0.01,0.02 -0.01,0.01 -0.02,0.01 -0.04,0.01l-0.11 0 0 -0.24 0.12 0c0.01,0 0.02,0.01 0.03,0.01 0.01,0.01 0.01,0.02 0.01,0.03l0 0.05c0,0 0,0.01 0,0.02 -0.01,0 -0.01,0 -0.02,0.01l0.02 0zm-0.05 -0.03l0 -0.05 -0.05 0 0 0.06 0.05 -0.01z"/>
  <path id="10" class="fil0" d="M3.33 2.04l0.06 0 0 0.2 0.04 0 0 -0.2 0.06 0 0 0.21c0,0.01 0,0.02 -0.01,0.02 -0.01,0.01 -0.02,0.01 -0.04,0.01l-0.06 0c-0.02,0 -0.03,0 -0.04,-0.01 0,0 -0.01,-0.01 -0.01,-0.02l0 -0.21z"/>
  <path id="11" class="fil0" d="M3.82 2.28l-0.06 0 0 -0.2 -0.04 0 0 0.2 -0.06 0 0 -0.2c0,-0.01 0.01,-0.02 0.01,-0.03 0.01,0 0.02,-0.01 0.04,-0.01l0.05 0c0.01,0 0.02,0.01 0.02,0.01 0.01,0 0.01,0.01 0.01,0.02 0,-0.01 0,-0.02 0.01,-0.02 0.01,0 0.01,-0.01 0.02,-0.01l0.05 0c0.02,0 0.03,0.01 0.04,0.01 0.01,0.01 0.01,0.02 0.01,0.03l0 0.2 -0.06 0 0 -0.2 -0.04 0 0 0.2z"/>
  <path id="12" class="fil0" d="M4.3 2.04c0.02,0 0.03,0.01 0.04,0.01 0.01,0.01 0.01,0.02 0.01,0.03l0 0.17c0,0.01 0,0.02 -0.01,0.02 -0.01,0.01 -0.02,0.01 -0.04,0.01l-0.11 0 0 -0.24 0.11 0zm-0.01 0.04l-0.04 0 0 0.16 0.04 0 0 -0.16z"/>
  <polygon id="13" class="fil0" points="4.66,2.28 4.52,2.28 4.52,2.04 4.66,2.04 4.66,2.08 4.58,2.08 4.58,2.14 4.66,2.12 4.66,2.16 4.58,2.19 4.58,2.24 4.66,2.24 "/>
  <path id="14" class="fil0" d="M4.82 2.08c0,-0.01 0.01,-0.02 0.02,-0.03 0,0 0.02,-0.01 0.03,-0.01l0.07 0c0.01,0 0.02,0.01 0.03,0.01 0.01,0.01 0.01,0.02 0.01,0.03l0 0 -0.06 0.02 0 -0.02 -0.04 0 0 0.06 0.1 -0.03 0 0.14c0,0.01 0,0.02 -0.01,0.02 -0.01,0.01 -0.02,0.01 -0.03,0.01l-0.07 0c-0.01,0 -0.03,0 -0.03,-0.01 -0.01,0 -0.02,-0.01 -0.02,-0.02l0 -0.02 0.06 -0.02 0 0.03 0.04 0 0 -0.07 -0.1 0.03 0 -0.12z"/>
  <polygon id="15" class="fil0" points="5.21,2.28 5.15,2.28 5.15,2.04 5.21,2.04 "/>
  <path id="16" class="fil0" d="M5.38 2.08c0,-0.01 0,-0.02 0.01,-0.03 0.01,0 0.02,-0.01 0.04,-0.01l0.06 0c0.02,0 0.03,0.01 0.04,0.01 0,0.01 0.01,0.02 0.01,0.03l0 0.03 -0.06 0.02 0 -0.05 -0.04 0 0 0.16 0.04 0 0 -0.05 -0.02 0.01 0 -0.04 0.08 -0.03 0 0.15 -0.11 0c-0.02,0 -0.03,0 -0.04,-0.01 -0.01,0 -0.01,-0.01 -0.01,-0.02l0 -0.17z"/>
  <path id="17" class="fil0" d="M5.77 2.28l-0.06 0 0 -0.24 0.06 0 0 0.02c0,0 0,-0.01 0.01,-0.01 0,0 0.01,-0.01 0.02,-0.01l0.02 0c0.02,0 0.03,0.01 0.04,0.01 0,0.01 0.01,0.02 0.01,0.03l0 0.2 -0.06 0 0 -0.2 -0.04 0 0 0.2z"/>
 </g>
</svg>
