<?xml version="1.0" encoding="UTF-8"?>
<!DOCTYPE svg PUBLIC "-//W3C//DTD SVG 1.1//EN" "http://www.w3.org/Graphics/SVG/1.1/DTD/svg11.dtd">
<!-- Creator: CorelDRAW 2017 -->
<svg xmlns="http://www.w3.org/2000/svg" xml:space="preserve" width="194px" height="76px" version="1.1" style="shape-rendering:geometricPrecision; text-rendering:geometricPrecision; image-rendering:optimizeQuality; fill-rule:evenodd; clip-rule:evenodd"
viewBox="0 0 5.7 2.22"
 xmlns:xlink="http://www.w3.org/1999/xlink">
 <defs>
  <style type="text/css">
   <![CDATA[
    .fil0 {fill:white;fill-rule:nonzero}
   ]]>
  </style>
 </defs>
 <g id="图层_x0020_1">
  <metadata id="CorelCorpID_0Corel-Layer"/>
  <path class="fil0" d="M1.26 0c0.02,0 0.03,0.01 0.04,0.02 0.01,0.01 0.02,0.02 0.02,0.04l0 0.32c0,0.02 -0.01,0.04 -0.02,0.05 -0.01,0.01 -0.02,0.01 -0.04,0.01l-0.14 0 0 -0.44 0.14 0zm-0.01 0.07l-0.06 0 0 0.3 0.06 0 0 -0.3z"/>
  <polygon id="1" class="fil0" points="1.56,0.44 1.39,0.44 1.39,0 1.56,0 1.56,0.07 1.46,0.07 1.46,0.19 1.56,0.13 1.56,0.21 1.46,0.27 1.46,0.37 1.56,0.37 "/>
  <path id="2" class="fil0" d="M1.63 0.06c0,-0.02 0,-0.03 0.01,-0.04 0.01,-0.01 0.03,-0.02 0.04,-0.02l0.09 0c0.01,0 0.03,0.01 0.04,0.02 0.01,0.01 0.01,0.02 0.01,0.04l0 0.01 -0.07 0.04 0 -0.04 -0.05 0 0 0.11 0.12 -0.06 0 0.26c0,0.02 0,0.04 -0.01,0.05 -0.01,0.01 -0.03,0.01 -0.04,0.01l-0.09 0c-0.01,0 -0.03,0 -0.04,-0.01 -0.01,-0.01 -0.01,-0.03 -0.01,-0.05l0 -0.04 0.07 -0.04 0 0.07 0.05 0 0 -0.14 -0.12 0.07 0 -0.24z"/>
  <polygon id="3" class="fil0" points="1.97,0.44 1.89,0.44 1.89,0 1.97,0 "/>
  <path id="4" class="fil0" d="M2.04 0.06c0,-0.02 0,-0.03 0.01,-0.04 0.01,-0.01 0.03,-0.02 0.05,-0.02l0.08 0c0.02,0 0.03,0.01 0.04,0.02 0.01,0.01 0.02,0.02 0.02,0.04l0 0.06 -0.08 0.04 0 -0.09 -0.05 0 0 0.3 0.05 0 0 -0.1 -0.03 0.02 0 -0.08 0.11 -0.05 0 0.28 -0.14 0c-0.02,0 -0.04,0 -0.05,-0.01 -0.01,-0.01 -0.01,-0.03 -0.01,-0.05l0 -0.32z"/>
  <path id="5" class="fil0" d="M2.38 0.44l-0.07 0 0 -0.44 0.07 0 0 0.04c0,-0.02 0.01,-0.03 0.01,-0.03 0.01,-0.01 0.02,-0.01 0.03,-0.01l0.03 0c0.02,0 0.03,0.01 0.04,0.02 0.01,0.01 0.02,0.02 0.02,0.04l0 0.38 -0.08 0 0 -0.37 -0.05 0 0 0.37z"/>
  <path id="6" class="fil0" d="M2.7 0.06c0,-0.02 0.01,-0.03 0.02,-0.04 0.01,-0.01 0.02,-0.02 0.04,-0.02l0.08 0c0.02,0 0.04,0.01 0.05,0.02 0.01,0.01 0.01,0.02 0.01,0.04l0 0.01 -0.07 0.04 0 -0.04 -0.05 0 0 0.11 0.12 -0.06 0 0.26c0,0.02 0,0.04 -0.01,0.05 -0.01,0.01 -0.03,0.01 -0.05,0.01l-0.08 0c-0.02,0 -0.03,0 -0.04,-0.01 -0.01,-0.01 -0.02,-0.03 -0.02,-0.05l0 -0.04 0.08 -0.04 0 0.07 0.05 0 0 -0.14 -0.13 0.07 0 -0.24z"/>
  <polygon id="7" class="fil0" points="3.15,0.44 2.97,0.44 2.97,0 3.15,0 3.15,0.07 3.05,0.07 3.05,0.19 3.15,0.13 3.15,0.21 3.05,0.27 3.05,0.37 3.15,0.37 "/>
  <path id="8" class="fil0" d="M3.41 0.22l-0.05 0.03 0.08 0.19 -0.08 0 -0.07 -0.16 -0.01 0 0 0.16 -0.07 0 0 -0.44 0.14 0c0.02,0 0.03,0.01 0.04,0.02 0.02,0.01 0.02,0.02 0.02,0.04l0 0.16zm-0.07 -0.04l0 -0.11 -0.06 0 0 0.14 0.06 -0.03z"/>
  <polygon id="9" class="fil0" points="3.53,0.44 3.45,0 3.52,0 3.57,0.28 3.62,0 3.69,0 3.61,0.44 "/>
  <polygon id="10" class="fil0" points="3.8,0.44 3.73,0.44 3.73,0 3.8,0 "/>
  <path id="11" class="fil0" d="M3.87 0.06c0,-0.02 0.01,-0.03 0.02,-0.04 0.01,-0.01 0.02,-0.02 0.04,-0.02l0.08 0c0.02,0 0.03,0.01 0.04,0.02 0.02,0.01 0.02,0.02 0.02,0.04l0 0.06 -0.07 0.04 0 -0.09 -0.06 0 0 0.3 0.06 0 0 -0.06 0.07 -0.04 0 0.11c0,0.02 0,0.04 -0.01,0.05 -0.02,0.01 -0.03,0.01 -0.05,0.01l-0.08 0c-0.02,0 -0.03,0 -0.04,-0.01 -0.01,-0.01 -0.02,-0.03 -0.02,-0.05l0 -0.32z"/>
  <polygon id="12" class="fil0" points="4.32,0.44 4.14,0.44 4.14,0 4.32,0 4.32,0.07 4.21,0.07 4.21,0.19 4.32,0.13 4.32,0.21 4.21,0.27 4.21,0.37 4.32,0.37 "/>
  <path id="13" class="fil0" d="M4.38 0.06c0,-0.02 0,-0.03 0.01,-0.04 0.01,-0.01 0.03,-0.02 0.05,-0.02l0.08 0c0.02,0 0.03,0.01 0.04,0.02 0.01,0.01 0.02,0.02 0.02,0.04l0 0.01 -0.08 0.04 0 -0.04 -0.05 0 0 0.11 0.13 -0.06 0 0.26c0,0.02 -0.01,0.04 -0.02,0.05 -0.01,0.01 -0.02,0.01 -0.04,0.01l-0.08 0c-0.02,0 -0.04,0 -0.05,-0.01 -0.01,-0.01 -0.01,-0.03 -0.01,-0.05l0 -0.04 0.07 -0.04 0 0.07 0.05 0 0 -0.14 -0.12 0.07 0 -0.24z"/>
  <path class="fil0" d="M0.1 1.16l0.13 0 0 0.02 0.08 0c0,0 0,0 0,0 -0.01,-0.04 -0.03,-0.09 -0.06,-0.14l0.03 -0.02 -0.23 0 -0.01 -0.08 0.37 0c-0.03,-0.04 -0.05,-0.07 -0.07,-0.09l0.03 -0.03c0.05,0.02 0.09,0.04 0.13,0.06 0.01,0.01 0.01,0.02 0,0.03 0,0.01 -0.01,0.02 -0.01,0.03l0.22 0 0.03 -0.05 0.11 0.08 -0.04 0.05 -0.52 0c0.04,0.03 0.08,0.07 0.11,0.1 0.01,0 0.01,0.01 0,0.03 -0.01,0.01 -0.02,0.02 -0.04,0.03l0.12 0c0.02,-0.04 0.04,-0.1 0.06,-0.16l0.12 0.04c-0.03,0.04 -0.06,0.08 -0.1,0.12l0.16 0 0.03 -0.04 0.1 0.07 -0.03 0.05 -0.59 0 0 0.04c0,0.16 -0.06,0.28 -0.18,0.38l-0.05 -0.04c0.07,-0.08 0.1,-0.18 0.1,-0.32l0 -0.16z"/>
  <path id="1" class="fil0" d="M1.14 0.85l0.13 0 0 0.03 0.26 0 0.05 -0.06 0.13 0.08 -0.04 0.05 0 0.25 -0.13 0 0 -0.03 -0.27 0 0 0.03 -0.13 0 0 -0.35zm0.28 0.39l0.12 0 0 0.02 0.11 0 0.04 -0.05 0.12 0.08 -0.03 0.04 0 0.33 -0.12 0 0 -0.07 -0.12 0 0 0.07 -0.12 0 0 -0.42zm-0.4 0l0.12 0 0 0.02 0.1 0 0.04 -0.05 0.13 0.08 -0.04 0.04 0 0.33 -0.11 0 0 -0.07 -0.12 0 0 0.07 -0.12 0 0 -0.42zm0.25 -0.28l0 0.13 0.27 0 0 -0.13 -0.27 0zm0.27 0.38l0 0.18 0.12 0 0 -0.18 -0.12 0zm-0.4 0l0 0.17 0.12 0 0 -0.17 -0.12 0z"/>
  <path id="2" class="fil0" d="M2.26 1.56l0.35 0c0.04,0.01 0.06,-0.01 0.07,-0.04 0.01,-0.03 0.02,-0.06 0.03,-0.09l0.04 0.01c-0.01,0.06 0.01,0.1 0.04,0.1 0,0.09 -0.05,0.12 -0.13,0.12l-0.45 0c-0.09,0 -0.13,-0.05 -0.13,-0.13l0 -0.35c-0.03,0.04 -0.06,0.07 -0.09,0.1l-0.06 -0.04c0.1,-0.13 0.17,-0.27 0.21,-0.43l0.14 0.04c-0.01,0.01 -0.01,0.02 -0.02,0.04 -0.01,0.02 -0.02,0.04 -0.02,0.05l0.32 0 0.04 -0.05 0.11 0.08c0.01,0 0.01,0.01 0,0.02l-0.04 0.04 0 0.35c0.01,0.08 -0.03,0.11 -0.13,0.12 0,-0.04 -0.02,-0.06 -0.07,-0.07l0 -0.05c0.02,0.01 0.03,0.01 0.05,0.01 0.02,0 0.03,-0.01 0.03,-0.04l0 -0.33 -0.35 0c-0.02,0.02 -0.03,0.04 -0.05,0.07l0.05 0 0 0.02 0.15 0 0.04 -0.04 0.1 0.08 -0.03 0.05 0 0.19 -0.11 0 0 -0.02 -0.15 0 0 0.13c0,0.04 0.02,0.06 0.06,0.06zm-0.06 -0.37l0 0.11 0.15 0 0 -0.11 -0.15 0z"/>
  <path id="3" class="fil0" d="M3.31 1.13l0.13 0 0 -0.09 -0.14 0 -0.02 -0.08 0.16 0 0 -0.12 0.11 0 0 0.12 0.07 0 0.02 -0.04 0.09 0.06 -0.03 0.06 -0.15 0 0 0.09 0.05 0 0.02 -0.03 0.09 0.06 -0.03 0.05 -0.33 0c0,0.01 0,0.01 0.01,0.01 0,0 0,0 0,0 0.02,0.01 0.02,0.02 0.02,0.03 0,0.01 0,0.01 -0.01,0.02 0,0.01 0,0.01 0,0.01l0.24 0 0.03 -0.04 0.1 0.06 -0.03 0.06 -0.14 0 0.1 0.07c-0.03,0.02 -0.06,0.04 -0.11,0.06 0.05,0.02 0.12,0.04 0.2,0.04 -0.04,0.04 -0.07,0.08 -0.09,0.14 -0.18,-0.06 -0.3,-0.15 -0.35,-0.29 -0.02,0.02 -0.04,0.05 -0.08,0.08l0 0.08c0,0 0.02,-0.01 0.04,-0.02 0.03,-0.01 0.06,-0.01 0.07,-0.02l0.03 0.06c-0.07,0.04 -0.15,0.08 -0.24,0.13l-0.05 -0.1c0.02,-0.01 0.03,-0.03 0.03,-0.05l0 -0.01c-0.05,0.03 -0.11,0.05 -0.17,0.07l-0.04 -0.05c0.12,-0.05 0.21,-0.12 0.28,-0.19l-0.24 0 -0.02 -0.08 0.36 0c-0.01,-0.01 -0.02,-0.02 -0.03,-0.03l-0.11 0 0 -0.11c-0.05,0.03 -0.1,0.07 -0.17,0.11l-0.05 -0.11c0.03,-0.01 0.06,-0.02 0.11,-0.04 0.05,-0.02 0.09,-0.03 0.11,-0.04l0 -0.22 0.11 0 0 0.34 0.01 0c0,0 0.01,0.01 0.03,0.01 0.01,0.01 0.02,0.01 0.02,0.01l-0.01 -0.07zm-0.31 -0.25c0.03,0.02 0.06,0.04 0.1,0.07 0.02,0.01 0.02,0.02 0.01,0.03 -0.01,0.02 -0.02,0.05 -0.04,0.06 -0.01,0.02 -0.02,0.02 -0.03,0.02 0,0 -0.01,0 -0.01,-0.02 -0.02,-0.04 -0.05,-0.08 -0.08,-0.12l0.05 -0.04zm0.49 0.57c0.03,-0.03 0.05,-0.06 0.08,-0.09l-0.17 0c0.02,0.04 0.05,0.07 0.09,0.09z"/>
  <path id="4" class="fil0" d="M4.68 1.16l-0.14 0 0.11 0.08 -0.05 0.05c-0.03,0.08 -0.06,0.14 -0.1,0.18 0.06,0.03 0.13,0.06 0.23,0.08 -0.04,0.03 -0.07,0.07 -0.09,0.12 -0.09,-0.03 -0.16,-0.06 -0.23,-0.11 -0.07,0.05 -0.16,0.08 -0.26,0.11l-0.04 -0.06c0.09,-0.03 0.16,-0.07 0.22,-0.12 -0.04,-0.05 -0.07,-0.12 -0.1,-0.21l-0.03 0 -0.01 -0.07c0,0 0,0 0,0 -0.01,0 -0.01,0 -0.02,0l-0.04 -0.03c0.07,-0.06 0.11,-0.13 0.1,-0.21l0 -0.12 0.12 0 0 0.03 0.1 0 0.03 -0.04 0.11 0.06 -0.03 0.04 0 0.09c0.01,0.02 0.01,0.03 0.03,0.03 0.05,0 0.1,0 0.12,0 -0.01,0.02 -0.02,0.05 -0.03,0.1 0,0 0,0 0,0zm-0.81 -0.06l0.11 0 0.04 -0.05 0.11 0.09 -0.03 0.03 0 0.25c0.03,-0.03 0.06,-0.05 0.07,-0.07l0.04 0.07c-0.05,0.08 -0.12,0.16 -0.2,0.23l-0.08 -0.09c0.04,-0.03 0.05,-0.06 0.05,-0.1l0 -0.28 -0.09 0 -0.02 -0.08zm0.34 0.1l0.28 0 0.03 -0.04c-0.05,0 -0.07,-0.04 -0.07,-0.1l0 -0.09 -0.1 0 0 0.01c0,0.09 -0.05,0.16 -0.14,0.22zm-0.23 -0.36c0.03,0.01 0.07,0.03 0.12,0.06 0,0 0.01,0.01 0.01,0.01 0.01,0.01 0.02,0.02 0.01,0.04 0,0 0,0.01 -0.01,0.02 -0.01,0.03 -0.02,0.05 -0.03,0.06 -0.01,0.01 -0.03,0.01 -0.04,-0.01 -0.03,-0.05 -0.06,-0.1 -0.1,-0.13l0.04 -0.05zm0.35 0.44c0.02,0.05 0.04,0.09 0.08,0.12 0.02,-0.03 0.04,-0.07 0.06,-0.12l-0.14 0z"/>
  <path id="5" class="fil0" d="M5.35 0.83l0.13 0 0 0.3 0.09 0 0.03 -0.05 0.1 0.08 -0.04 0.06 -0.18 0 0 0.45 -0.13 0 0 -0.45 -0.18 0 -0.01 -0.09 0.19 0 0 -0.3zm-0.51 0.29l0.14 0 0.03 -0.05 0.14 0.08 -0.04 0.05 0 0.25c0.01,-0.01 0.03,-0.03 0.06,-0.06 0.02,-0.01 0.03,-0.02 0.04,-0.02l0.04 0.06c-0.04,0.05 -0.12,0.13 -0.22,0.23l-0.09 -0.1c0.03,-0.02 0.05,-0.05 0.04,-0.09l0 -0.27 -0.12 0 -0.02 -0.08zm0.17 -0.27c0.04,0.03 0.08,0.06 0.11,0.09 0.02,0.02 0.03,0.03 0.01,0.05 -0.01,0.02 -0.03,0.04 -0.05,0.06 -0.02,0.01 -0.02,0.01 -0.03,0.01 -0.01,0 -0.01,-0.01 -0.01,-0.02 -0.02,-0.05 -0.05,-0.1 -0.08,-0.16l0.05 -0.03z"/>
  <path class="fil0" d="M0.24 2.09l0 -0.06 -0.04 0 0 0.07 0.04 -0.01zm0.06 0.02l-0.1 0.03 0 0.08 -0.06 0 0 -0.23 0.11 0c0.01,0 0.03,0 0.03,0.01 0.01,0 0.02,0.01 0.02,0.02l0 0.09z"/>
  <path id="1" class="fil0" d="M0.62 2.08l0 -0.05 -0.04 0 0 0.07 0.04 -0.02zm0.05 0.14l-0.05 0 0 -0.1 -0.04 0.02 0 0.08 -0.06 0 0 -0.2c0,-0.01 0,-0.02 0.01,-0.02 0.01,-0.01 0.02,-0.01 0.04,-0.01l0.06 0c0.01,0 0.02,0 0.03,0.01 0.01,0 0.01,0.01 0.01,0.02l0 0.2z"/>
  <path id="2" class="fil0" d="M0.9 2.02c0,-0.01 0.01,-0.02 0.02,-0.02 0,-0.01 0.02,-0.01 0.03,-0.01l0.06 0c0.02,0 0.03,0 0.04,0.01 0.01,0 0.01,0.01 0.01,0.02l0 0.03 -0.06 0.02 0 -0.04 -0.04 0 0 0.16 0.04 0 0 -0.04 0.06 -0.02 0 0.06c0,0.01 0,0.02 -0.01,0.02 -0.01,0.01 -0.02,0.01 -0.04,0.01l-0.06 0c-0.01,0 -0.03,0 -0.03,-0.01 -0.01,0 -0.02,-0.01 -0.02,-0.02l0 -0.17z"/>
  <polygon id="3" class="fil0" points="1.34,2.22 1.29,2.22 1.29,1.99 1.34,1.99 1.34,2.08 1.4,1.99 1.46,1.99 1.4,2.09 1.48,2.22 1.42,2.22 1.36,2.13 1.34,2.16 "/>
  <path id="4" class="fil0" d="M1.77 2.08l0 -0.05 -0.04 0 0 0.07 0.04 -0.02zm0.06 0.14l-0.06 0 0 -0.1 -0.04 0.02 0 0.08 -0.05 0 0 -0.2c0,-0.01 0,-0.02 0.01,-0.02 0.01,-0.01 0.02,-0.01 0.03,-0.01l0.06 0c0.02,0 0.03,0 0.04,0.01 0.01,0 0.01,0.01 0.01,0.02l0 0.2z"/>
  <path id="5" class="fil0" d="M2.06 2.02c0,-0.01 0,-0.02 0.01,-0.02 0.01,-0.01 0.02,-0.01 0.04,-0.01l0.06 0c0.01,0 0.03,0 0.03,0.01 0.01,0 0.02,0.01 0.02,0.02l0 0.04 -0.06 0.02 0 -0.05 -0.04 0 0 0.16 0.04 0 0 -0.06 -0.02 0.01 0 -0.04 0.08 -0.03 0 0.15 -0.11 0c-0.02,0 -0.03,0 -0.04,-0.01 -0.01,0 -0.01,-0.01 -0.01,-0.02l0 -0.17z"/>
  <polygon id="6" class="fil0" points="2.5,2.22 2.45,2.22 2.45,1.99 2.5,1.99 "/>
  <path id="7" class="fil0" d="M2.79 2.22l-0.06 0 0 -0.23 0.06 0 0 0.02c0,-0.01 0,-0.01 0.01,-0.01 0,-0.01 0.01,-0.01 0.02,-0.01l0.02 0c0.02,0 0.03,0 0.04,0.01 0,0 0.01,0.01 0.01,0.02l0 0.2 -0.06 0 0 -0.19 -0.04 0 0 0.19z"/>
  <path id="8" class="fil0" d="M3.12 2.02c0,-0.01 0,-0.02 0.01,-0.02 0.01,-0.01 0.02,-0.01 0.03,-0.01l0.07 0c0.01,0 0.02,0 0.03,0.01 0.01,0 0.01,0.01 0.01,0.02l0 0.04 -0.06 0.02 0 -0.05 -0.04 0 0 0.16 0.04 0 0 -0.06 -0.02 0.01 0 -0.04 0.08 -0.03 0 0.15 -0.11 0c-0.01,0 -0.02,0 -0.03,-0.01 -0.01,0 -0.01,-0.01 -0.01,-0.02l0 -0.17z"/>
  <path id="9" class="fil0" d="M3.71 1.99c0.01,0 0.03,0 0.03,0.01 0.01,0 0.02,0.01 0.02,0.02l0 0.17c0,0.01 -0.01,0.02 -0.02,0.02 0,0.01 -0.01,0.01 -0.03,0.01l-0.11 0 0 -0.23 0.11 0zm-0.01 0.04l-0.04 0 0 0.16 0.04 0 0 -0.16z"/>
  <polygon id="10" class="fil0" points="4.12,2.22 3.99,2.22 3.99,1.99 4.12,1.99 4.12,2.03 4.04,2.03 4.04,2.09 4.12,2.06 4.12,2.1 4.04,2.13 4.04,2.19 4.12,2.19 "/>
  <path id="11" class="fil0" d="M4.35 2.02c0,-0.01 0,-0.02 0.01,-0.02 0.01,-0.01 0.02,-0.01 0.03,-0.01l0.06 0c0.02,0 0.03,0 0.04,0.01 0.01,0 0.01,0.01 0.01,0.02l0 0.01 -0.06 0.02 0 -0.02 -0.04 0 0 0.06 0.1 -0.04 0 0.14c0,0.01 0,0.02 -0.01,0.02 -0.01,0.01 -0.02,0.01 -0.04,0.01l-0.06 0c-0.01,0 -0.02,0 -0.03,-0.01 -0.01,0 -0.01,-0.01 -0.01,-0.02l0 -0.02 0.05 -0.02 0 0.04 0.04 0 0 -0.08 -0.09 0.04 0 -0.13z"/>
  <polygon id="12" class="fil0" points="4.79,2.22 4.73,2.22 4.73,1.99 4.79,1.99 "/>
  <path id="13" class="fil0" d="M5.02 2.02c0,-0.01 0,-0.02 0.01,-0.02 0.01,-0.01 0.02,-0.01 0.03,-0.01l0.06 0c0.02,0 0.03,0 0.04,0.01 0.01,0 0.01,0.01 0.01,0.02l0 0.04 -0.06 0.02 0 -0.05 -0.04 0 0 0.16 0.04 0 0 -0.06 -0.02 0.01 0 -0.04 0.08 -0.03 0 0.15 -0.11 0c-0.01,0 -0.02,0 -0.03,-0.01 -0.01,0 -0.01,-0.01 -0.01,-0.02l0 -0.17z"/>
  <path id="14" class="fil0" d="M5.46 2.22l-0.06 0 0 -0.23 0.06 0 0 0.02c0,-0.01 0,-0.01 0.01,-0.01 0,-0.01 0.01,-0.01 0.02,-0.01l0.02 0c0.01,0 0.03,0 0.03,0.01 0.01,0 0.02,0.01 0.02,0.02l0 0.2 -0.06 0 0 -0.19 -0.04 0 0 0.19z"/>
 </g>
</svg>
