<?xml version="1.0" ?><svg style="enable-background:new 0 0 48 48;" version="1.1" viewBox="0 0 48 48" xml:space="preserve" xmlns="http://www.w3.org/2000/svg" xmlns:xlink="http://www.w3.org/1999/xlink"><g id="Icons"><g><path d="M37.71392,25.31999l-0.00001-10.65c0-1.35-1.09-2.45-2.44-2.45h-22.03c-1.35,0-2.44,1.1-2.44,2.45    l-0.00002,10.44533C19.77398,27.80426,28.74395,27.87247,37.71392,25.31999z" style="fill:#CAEDFF;"/><path d="M28.67012,26.67353c0,0,7.16284-0.75731,9.34084-1.44445    c0.30934-0.0976,0.63898,0.06031,0.74158,0.36804L39.5,27.83908c0.11084,0.33247-0.0887,0.68622-0.43209,0.75624    c-1.15429,0.23536-3.58632,0.6927-4.87926,0.65352v5.94697c0,0.32264-0.26155,0.58419-0.58419,0.58419h-5.40129    c-0.32264,0-0.58419-0.26155-0.58419-0.58419v-0.77459c0-1.02088,0.4178-1.99728,1.15626-2.70218l0,0L28.67012,26.67353z" style="fill:#2E6FB7;"/><circle cx="30.45707" cy="20.15641" r="3.52135" style="fill:#2E6FB7;"/><circle cx="17.74969" cy="20.15641" r="3.52135" style="fill:#65C3E8;"/><path d="M9.83981,25.13243c2.08299,0.5121,9.69023,2.21426,15.98203,1.45389    c0.34886-0.04216,0.65312,0.2217,0.65312,0.5731v2.45442c0,0.32264-0.26155,0.58419-0.58419,0.58419h-5.43681v4.99778    c0,0.32264-0.26155,0.58419-0.58419,0.58419h-4.9212c-0.32034,0-0.58093-0.25797-0.58416-0.57829l-0.05688-5.63086    c0,0-3.66366-0.40707-5.44522-0.99206c-0.29539-0.09699-0.45421-0.41146-0.37099-0.71103l0.6457-2.32453    C9.22172,25.23829,9.53247,25.05687,9.83981,25.13243z" style="fill:#65C3E8;"/><path d="    M9.83981,25.13243c2.08299,0.5121,9.69023,2.21426,15.98203,1.45389c0.34886-0.04216,0.65312,0.2217,0.65312,0.5731v2.45442    c0,0.32264-0.26155,0.58419-0.58419,0.58419h-5.43681v4.99778c0,0.32264-0.26155,0.58419-0.58419,0.58419h-4.9212    c-0.32034,0-0.58093-0.25797-0.58416-0.57829l-0.05688-5.63086c0,0-3.66366-0.40707-5.44522-0.99206    c-0.29539-0.09699-0.45421-0.41146-0.37099-0.71103l0.6457-2.32453C9.22172,25.23829,9.53247,25.05687,9.83981,25.13243z" style="fill:none;stroke:#303030;stroke-width:0.7;stroke-linecap:round;stroke-linejoin:round;stroke-miterlimit:10;"/><path d="    M28.67012,26.67353c0,0,7.16284-0.75731,9.34084-1.44445c0.30934-0.0976,0.63898,0.06031,0.74158,0.36804L39.5,27.83908    c0.11084,0.33247-0.0887,0.68622-0.43209,0.75624c-1.15429,0.23536-3.58632,0.6927-4.87926,0.65352v5.94697    c0,0.32264-0.26155,0.58419-0.58419,0.58419h-5.40129c-0.32264,0-0.58419-0.26155-0.58419-0.58419v-0.77459    c0-1.02088,0.4178-1.99728,1.15626-2.70218l0,0L28.67012,26.67353z" style="fill:none;stroke:#303030;stroke-width:0.7;stroke-linecap:round;stroke-linejoin:round;stroke-miterlimit:10;"/><circle cx="30.45707" cy="20.15641" r="3.52135" style="fill:none;stroke:#303030;stroke-width:0.7;stroke-linecap:round;stroke-linejoin:round;stroke-miterlimit:10;"/><circle cx="17.74969" cy="20.15641" r="3.52135" style="fill:none;stroke:#303030;stroke-width:0.7;stroke-linecap:round;stroke-linejoin:round;stroke-miterlimit:10;"/><line style="fill:none;stroke:#303030;stroke-width:0.7;stroke-linecap:round;stroke-linejoin:round;stroke-miterlimit:10;" x1="28.53689" x2="26.57756" y1="27.02" y2="27.02"/><path d="    M10.80391,25.11532V14.67c0-1.35,1.09-2.45,2.44-2.45h22.03c1.35,0,2.44,1.1,2.44,2.45v10.65" style="fill:none;stroke:#303030;stroke-width:0.7;stroke-linecap:round;stroke-linejoin:round;stroke-miterlimit:10;"/><line style="fill:none;stroke:#303030;stroke-width:0.7;stroke-linecap:round;stroke-linejoin:round;stroke-miterlimit:10;" x1="19.04383" x2="24.93868" y1="14.11754" y2="14.11754"/><line style="fill:none;stroke:#303030;stroke-width:0.7;stroke-linecap:round;stroke-linejoin:round;stroke-miterlimit:10;" x1="26.93572" x2="28.28441" y1="14.11754" y2="14.11754"/></g></g></svg>