<?xml version="1.0" encoding="UTF-8"?>
<!DOCTYPE svg PUBLIC "-//W3C//DTD SVG 1.1//EN" "http://www.w3.org/Graphics/SVG/1.1/DTD/svg11.dtd">
<!-- Creator: CorelDRAW 2017 -->
<svg xmlns="http://www.w3.org/2000/svg" xml:space="preserve" width="339px" height="90px" version="1.1" style="shape-rendering:geometricPrecision; text-rendering:geometricPrecision; image-rendering:optimizeQuality; fill-rule:evenodd; clip-rule:evenodd"
viewBox="0 0 22.37 5.9"
 xmlns:xlink="http://www.w3.org/1999/xlink">
 <defs>
  <style type="text/css">
   <![CDATA[
    .fil1 {fill:white}
    .fil0 {fill:white;fill-rule:nonzero}
   ]]>
  </style>
 </defs>
 <g id="图层_x0020_1">
  <metadata id="CorelCorpID_0Corel-Layer"/>
  <g id="_1936214458176">
   <path class="fil0" d="M0.27 0l5.63 0 0 1.77 1.42 1.18 -1.42 1.18 0 1.77 -5.9 0 0 -5.9 0.27 0zm5.1 0.53l-4.84 0 0 4.84 4.84 0 0 -1.49 1.12 -0.93 -1.12 -0.93 0 -1.49z"/>
   <path class="fil0" d="M0.92 2.71c0.39,-0.16 0.62,-0.38 0.69,-0.66l-0.59 0 -0.05 -0.19 0.67 0c0.01,-0.06 0.02,-0.12 0.02,-0.18l0 -0.16 -0.54 0 -0.05 -0.18 0.43 0c0,-0.01 0,-0.02 0,-0.02 -0.01,-0.01 -0.01,-0.01 -0.01,-0.01 -0.07,-0.11 -0.14,-0.21 -0.21,-0.31l0.07 -0.08c0.11,0.04 0.2,0.09 0.3,0.15 0.03,0.01 0.03,0.05 0.02,0.1 -0.02,0.06 -0.05,0.11 -0.08,0.15 0,0 0,0 0,0.01 -0.01,0 -0.01,0 -0.01,0.01l0.34 0c0.07,-0.14 0.14,-0.28 0.2,-0.44l0.29 0.14c-0.09,0.12 -0.18,0.21 -0.26,0.3l0.15 0 0.11 -0.12 0.24 0.2 -0.05 0.1 -0.64 0 0 0.15c0,0.07 0,0.13 -0.01,0.19l0.41 0 0.11 -0.14 0.27 0.21 -0.05 0.12 -0.73 0c0.24,0.24 0.51,0.4 0.83,0.49 -0.09,0.08 -0.17,0.18 -0.22,0.31 -0.31,-0.15 -0.54,-0.36 -0.71,-0.62 -0.12,0.27 -0.4,0.47 -0.86,0.59l-0.08 -0.11z"/>
   <path id="1" class="fil0" d="M3.28 1.08l1.12 0 0.12 -0.12 0.24 0.21 -0.06 0.09 -0.51 0 0 0.42 0.42 0 0.12 -0.13 0.27 0.21 -0.05 0.12 -0.76 0 0 0.66c0.01,0.17 -0.11,0.26 -0.38,0.28 -0.02,-0.11 -0.11,-0.18 -0.28,-0.2l-0.01 -0.1c0.27,0.03 0.39,-0.01 0.36,-0.1l0 -0.54 -0.76 0 -0.06 -0.2 0.82 0 0 -0.42 -0.55 0 -0.05 -0.18z"/>
   <path id="2" class="fil0" d="M0.9 4.18c0.03,-0.01 0.09,-0.01 0.18,-0.03 0.12,-0.01 0.21,-0.02 0.28,-0.03l0 -0.29 -0.38 0 -0.05 -0.19 0.43 0 0 -0.21c-0.12,0 -0.23,0 -0.32,0l-0.04 -0.14c0.26,-0.03 0.53,-0.08 0.81,-0.16l0.12 0.24c-0.03,0 -0.07,0.01 -0.13,0.02 -0.08,0 -0.13,0.01 -0.17,0.01l0 0.24 0.35 0 0 -0.25 0 -0.31 0.27 0 0 0.39 0 0.17 0.23 0 0.09 -0.11 0.23 0.19 -0.06 0.11 -0.48 0c0,0.11 0,0.2 0.01,0.28 0.04,-0.06 0.08,-0.13 0.11,-0.21l0.26 0.15c-0.08,0.14 -0.17,0.28 -0.28,0.4 0.04,0.1 0.08,0.15 0.13,0.16 0.04,0 0.06,-0.03 0.08,-0.08 0.02,-0.03 0.04,-0.08 0.05,-0.12l0.12 0.04c-0.04,0.14 -0.02,0.23 0.06,0.25 -0.06,0.15 -0.15,0.23 -0.26,0.23 -0.16,0 -0.29,-0.09 -0.39,-0.28 -0.12,0.08 -0.26,0.16 -0.43,0.24l-0.09 -0.12c0.17,-0.1 0.32,-0.22 0.43,-0.36 -0.03,-0.1 -0.05,-0.3 -0.07,-0.58l-0.36 0 0 0.25c0.09,-0.01 0.18,-0.03 0.26,-0.05l0.04 0.15c-0.06,0.02 -0.14,0.05 -0.25,0.09 -0.02,0 -0.04,0.01 -0.05,0.01l0 0.46c0.01,0.13 -0.11,0.2 -0.35,0.22 0.01,-0.1 -0.06,-0.15 -0.19,-0.17l0 -0.11c0.04,0.01 0.11,0.01 0.18,0.01 0.07,0 0.1,-0.02 0.09,-0.07l0 -0.26c-0.13,0.04 -0.26,0.07 -0.38,0.1l-0.08 -0.28zm1.46 -1.01c0.12,0.03 0.22,0.06 0.29,0.09 0.01,0 0.02,0.03 0.01,0.07 -0.01,0.06 -0.03,0.11 -0.05,0.15 -0.03,0.04 -0.06,0.04 -0.08,0.01 -0.1,-0.1 -0.17,-0.18 -0.23,-0.23l0.06 -0.09z"/>
   <path id="3" class="fil0" d="M3.3 4.96l0 -0.98c-0.03,0.04 -0.08,0.1 -0.16,0.18 0,0.01 -0.01,0.02 -0.01,0.03l-0.1 -0.1c0.2,-0.32 0.33,-0.65 0.4,-1l0.32 0.09c-0.05,0.13 -0.11,0.25 -0.18,0.37l0 1.41 -0.27 0zm0.93 -1.66l0.3 0 0.09 -0.11 0.29 0.19 -0.09 0.09 0 1.28c0.04,0.15 -0.07,0.22 -0.32,0.22 0,-0.09 -0.08,-0.14 -0.22,-0.16l-0.01 -0.1c0.07,0.01 0.13,0.01 0.19,0.01 0.07,0 0.1,-0.04 0.09,-0.1l0 -1.15 -0.28 0 -0.04 -0.17zm-0.51 0.27l0.28 0 0 1.39 -0.28 0 0 -1.39zm0.14 -0.43c0.09,0.04 0.19,0.09 0.29,0.16 0.03,0.02 0.04,0.04 0.02,0.07 -0.03,0.06 -0.07,0.12 -0.11,0.18 -0.02,0.02 -0.04,0.02 -0.06,-0.01 -0.06,-0.1 -0.13,-0.2 -0.23,-0.32l0.09 -0.08z"/>
   <polygon class="fil1" points="5.95,2.95 5.66,2.73 5.37,2.5 5.37,2.95 5.37,3.4 5.66,3.17 "/>
   <path class="fil0" d="M6.88 0.4l0 -0.24 -0.12 0 0 0.3 0.12 -0.06zm0.16 0.6l-0.16 0 0 -0.43 -0.12 0.07 0 0.36 -0.17 0 0 -0.86c0,-0.05 0.01,-0.08 0.04,-0.1 0.02,-0.03 0.05,-0.04 0.09,-0.04l0.19 0c0.04,0 0.07,0.01 0.09,0.04 0.03,0.02 0.04,0.05 0.04,0.1l0 0.86z"/>
   <path id="1" class="fil0" d="M7.43 0.84l0 -0.32 -0.14 0.07 0 0.25 0.14 0zm0.15 -0.37l0 0.39c0,0.04 -0.01,0.08 -0.03,0.1 -0.03,0.02 -0.06,0.04 -0.11,0.04l-0.3 0 0 -1 0.31 0c0.04,0 0.08,0.01 0.1,0.04 0.02,0.02 0.03,0.05 0.03,0.1l0 0.21c0,0.03 0,0.06 -0.01,0.07 -0.01,0.02 -0.03,0.04 -0.06,0.05l0.07 0zm-0.15 -0.12l0 -0.2 -0.14 0 0 0.27 0.14 -0.07z"/>
   <path id="2" class="fil0" d="M7.68 0.14c0,-0.05 0.01,-0.08 0.03,-0.1 0.02,-0.03 0.06,-0.04 0.1,-0.04l0.18 0c0.04,0 0.08,0.01 0.1,0.04 0.02,0.02 0.03,0.05 0.03,0.1l0 0.72c0,0.04 -0.01,0.08 -0.03,0.1 -0.02,0.02 -0.06,0.04 -0.1,0.04l-0.18 0c-0.04,0 -0.08,-0.02 -0.1,-0.04 -0.02,-0.02 -0.03,-0.06 -0.03,-0.1l0 -0.72zm0.28 0.02l-0.12 0 0 0.68 0.12 0 0 -0.68z"/>
   <path id="3" class="fil0" d="M8.22 0l0.16 0 0 0.84 0.12 0 0 -0.84 0.17 0 0 0.86c0,0.04 -0.01,0.08 -0.04,0.1 -0.02,0.02 -0.05,0.04 -0.1,0.04l-0.18 0c-0.04,0 -0.07,-0.02 -0.1,-0.04 -0.02,-0.02 -0.03,-0.06 -0.03,-0.1l0 -0.86z"/>
   <polygon id="4" class="fil0" points="8.87,1 8.87,0.16 8.71,0.16 8.71,0 9.2,0 9.2,0.16 9.04,0.16 9.04,1 "/>
   <path id="5" class="fil0" d="M9.53 0l0.16 0 0 0.84 0.12 0 0 -0.84 0.17 0 0 0.86c0,0.04 -0.01,0.08 -0.04,0.1 -0.02,0.02 -0.05,0.04 -0.1,0.04l-0.18 0c-0.04,0 -0.07,-0.02 -0.1,-0.04 -0.02,-0.02 -0.03,-0.06 -0.03,-0.1l0 -0.86z"/>
   <path id="6" class="fil0" d="M10.07 0.14c0,-0.05 0.01,-0.08 0.04,-0.1 0.02,-0.03 0.05,-0.04 0.09,-0.04l0.19 0c0.04,0 0.07,0.01 0.09,0.04 0.03,0.02 0.04,0.05 0.04,0.1l0 0.02 -0.16 0.09 0 -0.09 -0.12 0 0 0.25 0.28 -0.15 0 0.6c0,0.04 -0.01,0.08 -0.03,0.1 -0.03,0.02 -0.06,0.04 -0.1,0.04l-0.19 0c-0.04,0 -0.07,-0.02 -0.09,-0.04 -0.03,-0.02 -0.04,-0.06 -0.04,-0.1l0 -0.09 0.17 -0.09 0 0.16 0.12 0 0 -0.31 -0.29 0.14 0 -0.53z"/>
   <rect class="fil1" x="11.05" width="11.32" height="0.53"/>
   <rect class="fil1" x="19.55" y="5.37" width="2.82" height="0.53"/>
   <rect class="fil1" transform="matrix(1.10478E-14 0.757735 -0.342784 1.6491E-14 22.37 -3.60395E-06)" width="7.79" height="1.56"/>
   <path class="fil0" d="M8.73 2.76l0.25 0 0 0.04 0.12 0 0 -0.15 -0.06 0 0 0.04 -0.25 0 0 -0.63 0.25 0 0 0.06 0.37 0 0.08 -0.1 0.27 0.16 -0.06 0.09 0 0.41 -0.27 0 0 -0.03 -0.07 0 0 0.15 0.1 0 0.09 -0.1 0.27 0.17 -0.06 0.08 0 0.45 -0.27 0 0 -0.05 -0.13 0 0 0.21c0.02,0 0.05,0 0.08,-0.01 0.04,0 0.07,0 0.08,0 -0.01,-0.03 -0.03,-0.06 -0.05,-0.09l0.13 -0.05c0.12,0.1 0.21,0.2 0.27,0.28 0.02,0.02 0.02,0.05 -0.01,0.07 -0.03,0.04 -0.07,0.08 -0.13,0.12 -0.05,0.04 -0.07,0.03 -0.08,-0.01 0,-0.02 -0.02,-0.06 -0.04,-0.1 -0.01,-0.03 -0.02,-0.06 -0.02,-0.07 -0.27,0.07 -0.55,0.13 -0.84,0.17l-0.08 -0.3c0.09,0 0.23,0.01 0.43,0.01l0 -0.23 -0.12 0 0 0.07 -0.25 0 0 -0.66zm-0.7 -0.25l0.25 0 0 0.04 0.11 0 0 -0.25 -0.37 0 -0.04 -0.18 0.4 0 0.08 -0.1 0.26 0.19 -0.07 0.07 0 0.5 -0.26 0 0 -0.05 -0.12 0 -0.03 0.26 0.12 0 0.09 -0.09 0.25 0.19 -0.06 0.07c0,0.14 -0.01,0.29 -0.02,0.45 0.01,0.16 -0.11,0.25 -0.37,0.26 -0.01,-0.09 -0.08,-0.15 -0.18,-0.17l-0.02 -0.1c0.05,0 0.11,0 0.18,0.01 0.03,0 0.05,0 0.06,0 0.05,0 0.07,-0.02 0.07,-0.08 0.01,-0.03 0.01,-0.09 0.01,-0.18 0.01,-0.09 0.01,-0.15 0.01,-0.19l-0.11 0 -0.11 0.13 -0.25 -0.17c0.05,-0.04 0.07,-0.1 0.08,-0.17l0.04 -0.44zm1.01 -0.21l0 0.17 0.39 0 0 -0.17 -0.39 0zm0.32 0.68l0 0.19 0.13 0 0 -0.19 -0.13 0zm-0.38 0l0 0.19 0.12 0 0 -0.19 -0.12 0z"/>
   <path id="1" class="fil0" d="M11.17 2.01l0.29 0c0,0.02 -0.01,0.07 -0.01,0.13 0,0.05 0,0.09 -0.01,0.12l0.07 0 0.08 -0.09 0.25 0.17 -0.08 0.07c-0.01,0.34 0.01,0.49 0.06,0.46 0.03,0 0.05,-0.01 0.07,-0.05 0,-0.02 0.01,-0.05 0.01,-0.08 0.01,-0.04 0.01,-0.07 0.02,-0.09l0.09 0.01c-0.02,0.16 0,0.25 0.08,0.25 -0.06,0.19 -0.15,0.28 -0.28,0.25 -0.22,0.02 -0.32,-0.24 -0.29,-0.75l-0.1 0c-0.02,0.12 -0.05,0.22 -0.1,0.3 0.05,0.03 0.1,0.07 0.14,0.1 0.02,0.01 0.02,0.03 0.01,0.06 -0.02,0.06 -0.05,0.12 -0.09,0.17 -0.02,0.03 -0.05,0.03 -0.07,0 -0.03,-0.05 -0.07,-0.09 -0.11,-0.14 -0.07,0.06 -0.14,0.12 -0.23,0.18l0.23 0.03c-0.01,0.05 -0.03,0.09 -0.04,0.13l0.3 0 0.09 -0.09 0.26 0.17 -0.09 0.1c0,0.03 0,0.07 0,0.12 -0.01,0.09 -0.01,0.14 -0.02,0.17 0.01,0.13 -0.11,0.2 -0.36,0.21 0.01,-0.09 -0.05,-0.14 -0.17,-0.16l-0.02 -0.08c0.07,0 0.13,0 0.18,0 0.06,0.01 0.09,-0.02 0.09,-0.08 0.02,-0.07 0.02,-0.14 0.02,-0.2l-0.36 0c-0.12,0.26 -0.4,0.43 -0.82,0.5l-0.06 -0.11c0.29,-0.09 0.47,-0.22 0.56,-0.39l-0.5 0 -0.02 -0.16 0.59 0c0.02,-0.05 0.03,-0.11 0.04,-0.17l0.04 0 -0.08 -0.05c0.11,-0.09 0.18,-0.19 0.22,-0.29 -0.01,-0.02 -0.03,-0.04 -0.05,-0.07 -0.03,-0.02 -0.04,-0.04 -0.06,-0.05l0.09 -0.07c0.02,0.02 0.05,0.03 0.08,0.05 0.02,-0.05 0.03,-0.11 0.03,-0.18l-0.1 0 -0.03 -0.15 0.15 0c0,-0.02 0,-0.06 0,-0.11 0,-0.06 0.01,-0.11 0.01,-0.14zm-1.02 0.6c0.05,-0.01 0.12,-0.01 0.22,-0.02 0.05,-0.01 0.09,-0.01 0.12,-0.01l0 -0.18 -0.25 0 -0.04 -0.15 0.29 0 0 -0.24 0.26 0 0 0.24 0.04 0 0.05 -0.05 0.16 0.14 -0.05 0.06 -0.2 0 0 0.16c0.07,-0.01 0.13,-0.02 0.19,-0.03l-0.01 0.14c-0.01,0.01 -0.04,0.01 -0.07,0.03 -0.04,0.01 -0.08,0.02 -0.11,0.03l0 0.24c0.03,0.12 -0.07,0.18 -0.3,0.19 0,-0.08 -0.06,-0.12 -0.17,-0.13l-0.02 -0.11c0.17,0.02 0.24,0 0.23,-0.05l0 -0.07c-0.03,0.01 -0.06,0.01 -0.1,0.02 -0.08,0.02 -0.13,0.03 -0.17,0.04l-0.07 -0.25z"/>
   <path id="2" class="fil0" d="M12.45 2.31l0.21 0c0.01,-0.09 0.02,-0.19 0.02,-0.3l0.3 0.05c-0.01,0.01 -0.02,0.03 -0.03,0.06 -0.02,0.07 -0.06,0.15 -0.11,0.24l0.11 0 0.06 -0.11 0.29 0.15 -0.08 0.11 0 0.27c0.11,-0.25 0.18,-0.51 0.23,-0.78l0.31 0.08c-0.04,0.1 -0.07,0.2 -0.12,0.29l0.14 0 0.07 -0.12 0.29 0.18 -0.07 0.1 0 1.14c0.02,0.15 -0.11,0.24 -0.39,0.25 0.01,-0.1 -0.06,-0.15 -0.19,-0.15l-0.02 -0.14c0.24,0.03 0.34,0 0.32,-0.09l0 -0.97 -0.25 0c-0.07,0.11 -0.13,0.21 -0.2,0.29l-0.12 -0.05 0 1.03 -0.26 0 0 -0.15 -0.25 0 0 0.21 -0.26 0 0 -1.59zm1.03 0.48c0.1,0.1 0.18,0.21 0.24,0.33 0.02,0.03 0.02,0.06 -0.01,0.09 -0.04,0.03 -0.09,0.06 -0.16,0.09 -0.03,0.02 -0.06,0.02 -0.06,0.02 -0.01,0 -0.02,-0.02 -0.02,-0.05 -0.03,-0.16 -0.06,-0.31 -0.09,-0.44l0.1 -0.04zm-0.77 0.33l0 0.39 0.25 0 0 -0.39 -0.25 0zm0 -0.58l0 0.4 0.25 0 0 -0.4 -0.25 0z"/>
   <path id="3" class="fil0" d="M14.83 2.06l0.29 0 0 0.05 0.6 0 0.09 -0.13 0.3 0.18 -0.09 0.11 0 0.55 -0.28 0 0 -0.05 -0.62 0 0 0.05 -0.29 0 0 -0.76zm0.64 0.86l0.25 0 0 0.05 0.26 0 0.08 -0.12 0.28 0.19 -0.07 0.09 0 0.73 -0.27 0 0 -0.15 -0.28 0 0 0.15 -0.25 0 0 -0.94zm-0.89 0l0.25 0 0 0.05 0.24 0 0.08 -0.11 0.28 0.18 -0.07 0.09 0 0.73 -0.26 0 0 -0.15 -0.27 0 0 0.15 -0.25 0 0 -0.94zm0.54 -0.62l0 0.28 0.62 0 0 -0.28 -0.62 0zm0.6 0.86l0 0.38 0.28 0 0 -0.38 -0.28 0zm-0.89 0l0 0.38 0.27 0 0 -0.38 -0.27 0z"/>
   <path id="4" class="fil0" d="M16.73 2.11l0.24 0 0 0.45 0.08 0 0 -0.54 0.24 0 0 0.52 0.04 -0.06 0.11 0.12 0 -0.44 0.24 0 0 0.05 0.06 0c0.03,-0.07 0.06,-0.15 0.07,-0.23l0.29 0.08c-0.06,0.07 -0.11,0.12 -0.15,0.15l0.24 0 0.09 -0.09 0.25 0.18 -0.08 0.09 0 0.73 -0.25 0 0 -0.05 -0.03 0 0 0.25 0.12 0 0.08 -0.11 0.21 0.19 -0.05 0.1 -0.36 0 0 0.4 -0.26 0 0 -0.4 -0.52 0 -0.04 -0.18 0.18 0c0.07,-0.08 0.13,-0.16 0.18,-0.25l-0.03 0 0 0.05 -0.24 0 0 -0.42 -0.02 0.04 -0.45 0 0 0.14c0,0.03 0,0.07 0,0.11l0.1 0 0.08 -0.12 0.26 0.18 -0.09 0.11 0 0.74 -0.23 0 0 -0.74 -0.13 0c-0.02,0.3 -0.11,0.54 -0.26,0.74l-0.12 -0.07c0.1,-0.24 0.16,-0.55 0.15,-0.95l0 -0.77zm1.32 0.62c-0.01,0.01 -0.01,0.03 -0.02,0.05 -0.01,0.05 -0.02,0.09 -0.03,0.12l0.2 0 0 -0.17 -0.15 0zm-0.22 -0.17l0 -0.07 0 -0.11 -0.15 0 0 0.18 0.15 0zm0.23 -0.07l0 0.07 0.14 0 0 -0.18 -0.14 0 0 0.11zm-0.29 0.41c0.02,-0.05 0.03,-0.11 0.04,-0.17l-0.13 0 0 0.17 0.09 0zm0.14 0.2c-0.05,0.08 -0.11,0.15 -0.18,0.22l0.18 0 0 -0.22z"/>
   <path id="5" class="fil0" d="M19.61 2.06l0.27 0 0 0.05 0.41 0 0.08 -0.09 0.25 0.17 -0.04 0.04 0 0.96 -0.26 0 0 -0.89 -0.44 0 0 0.89 -0.27 0 0 -0.91 -0.01 0.01 -0.06 0.07c-0.03,0.21 -0.07,0.41 -0.14,0.59 0.07,0.09 0.12,0.16 0.17,0.23 0.03,0.03 0.03,0.06 0.01,0.11 -0.01,0 -0.01,0.01 -0.02,0.02 -0.06,0.08 -0.1,0.13 -0.12,0.16 -0.05,0.04 -0.08,0.04 -0.1,-0.02 -0.01,-0.02 -0.02,-0.06 -0.04,-0.1 -0.01,-0.04 -0.03,-0.07 -0.04,-0.09 -0.09,0.18 -0.22,0.33 -0.38,0.45l-0.12 -0.08c0.16,-0.19 0.29,-0.41 0.37,-0.65 -0.07,-0.13 -0.14,-0.27 -0.22,-0.41l0.09 -0.06c0.07,0.06 0.13,0.13 0.2,0.21 0,-0.01 0,-0.02 0.01,-0.03 0.02,-0.1 0.03,-0.21 0.05,-0.33l-0.38 0 -0.04 -0.18 0.41 0 0.09 -0.12 0.26 0.19c0,0 0.01,0 0.01,0l0 -0.19zm0.36 0.34l0.25 0 0 0.35c0,0.09 0,0.17 -0.01,0.24l0.08 0 0 0.55c0,0.06 0.01,0.08 0.06,0.08l0.07 0c0.05,-0.01 0.09,-0.11 0.12,-0.29l0.09 0.02c-0.02,0.15 0.01,0.23 0.09,0.24 -0.03,0.17 -0.11,0.26 -0.24,0.26l-0.23 0c-0.14,0.01 -0.21,-0.06 -0.21,-0.2l0 -0.15c-0.08,0.12 -0.25,0.26 -0.52,0.41l-0.1 -0.12c0.22,-0.18 0.37,-0.33 0.44,-0.46 0.08,-0.13 0.11,-0.31 0.11,-0.55l0 -0.38z"/>
   <path class="fil0" d="M6.74 5.59l0 -0.14 -0.06 0 0 0.17 0.06 -0.03zm0.09 0.05l-0.15 0.07 0 0.18 -0.09 0 0 -0.52 0.17 0c0.02,0 0.04,0.01 0.05,0.02 0.01,0.01 0.02,0.03 0.02,0.05l0 0.2z"/>
   <polygon id="1" class="fil0" points="18.76,5.81 18.85,5.81 18.85,5.89 18.76,5.89 "/>
   <path id="2" class="fil0" d="M7.22 5.44c0,-0.02 0.01,-0.04 0.02,-0.05 0.01,-0.01 0.03,-0.02 0.05,-0.02l0.1 0c0.02,0 0.04,0.01 0.05,0.02 0.01,0.01 0.02,0.03 0.02,0.05l0 0.38c0,0.03 -0.01,0.04 -0.02,0.06 -0.01,0.01 -0.03,0.01 -0.05,0.01l-0.1 0c-0.02,0 -0.04,0 -0.05,-0.01 -0.01,-0.02 -0.02,-0.03 -0.02,-0.06l0 -0.38zm0.15 0.01l-0.06 0 0 0.36 0.06 0 0 -0.36z"/>
   <path id="3" class="fil0" d="M8.1 5.37l0 0.44 0.06 0 0 -0.44 0.09 0 0 0.45c0,0.03 -0.01,0.04 -0.02,0.06 -0.01,0.01 -0.03,0.01 -0.06,0.01l-0.06 0c-0.02,0 -0.03,0 -0.04,-0.01 -0.01,-0.01 -0.01,-0.02 -0.01,-0.04 0,0.02 -0.01,0.03 -0.02,0.04 0,0.01 -0.02,0.01 -0.03,0.01l-0.07 0c-0.03,0 -0.04,0 -0.06,-0.01 -0.01,-0.02 -0.01,-0.03 -0.01,-0.06l0 -0.45 0.08 0 0 0.44 0.07 0 0 -0.44 0.08 0z"/>
   <polygon id="4" class="fil0" points="8.86,5.89 8.66,5.89 8.66,5.37 8.86,5.37 8.86,5.46 8.74,5.46 8.74,5.59 8.86,5.53 8.86,5.62 8.74,5.68 8.74,5.81 8.86,5.81 "/>
   <path id="5" class="fil0" d="M9.49 5.63l-0.06 0.03 0.1 0.23 -0.09 0 -0.08 -0.19 -0.01 0.01 0 0.18 -0.09 0 0 -0.52 0.16 0c0.03,0 0.04,0.01 0.06,0.02 0.01,0.01 0.01,0.03 0.01,0.05l0 0.19zm-0.08 -0.05l0 -0.13 -0.06 0 0 0.16 0.06 -0.03z"/>
   <polygon id="6" class="fil0" points="9.9,5.89 9.9,5.37 10.11,5.37 10.11,5.46 9.99,5.46 9.99,5.59 10.11,5.53 10.11,5.62 9.99,5.68 9.99,5.89 "/>
   <path id="7" class="fil0" d="M10.5 5.37l0.08 0 0 0.44 0.06 0 0 -0.44 0.09 0 0 0.45c0,0.03 -0.01,0.04 -0.02,0.06 -0.01,0.01 -0.03,0.01 -0.05,0.01l-0.1 0c-0.02,0 -0.03,0 -0.05,-0.01 -0.01,-0.02 -0.01,-0.03 -0.01,-0.06l0 -0.45z"/>
   <polygon id="8" class="fil0" points="11.34,5.81 11.34,5.89 11.14,5.89 11.14,5.37 11.22,5.37 11.22,5.81 "/>
   <path id="9" class="fil0" d="M12.02 5.81l0 -0.16 -0.06 0.03 0 0.13 0.06 0zm0.09 -0.19l0 0.2c0,0.03 -0.01,0.04 -0.02,0.06 -0.01,0.01 -0.03,0.01 -0.06,0.01l-0.16 0 0 -0.52 0.17 0c0.02,0 0.04,0.01 0.05,0.02 0.01,0.01 0.02,0.03 0.02,0.05l0 0.11c0,0.02 -0.01,0.03 -0.01,0.04 -0.01,0.01 -0.02,0.02 -0.03,0.03l0.04 0zm-0.09 -0.06l0 -0.11 -0.06 0 0 0.14 0.06 -0.03z"/>
   <path id="10" class="fil0" d="M12.75 5.63l-0.06 0.03 0.09 0.23 -0.09 0 -0.08 -0.19 -0.01 0.01 0 0.18 -0.09 0 0 -0.52 0.17 0c0.02,0 0.04,0.01 0.05,0.02 0.01,0.01 0.02,0.03 0.02,0.05l0 0.19zm-0.09 -0.05l0 -0.13 -0.06 0 0 0.16 0.06 -0.03z"/>
   <path id="11" class="fil0" d="M13.3 5.58l0 -0.13 -0.06 0 0 0.16 0.06 -0.03zm0.09 0.31l-0.09 0 0 -0.22 -0.06 0.04 0 0.18 -0.08 0 0 -0.45c0,-0.02 0,-0.04 0.01,-0.05 0.02,-0.01 0.03,-0.02 0.05,-0.02l0.1 0c0.02,0 0.04,0.01 0.05,0.02 0.01,0.01 0.02,0.03 0.02,0.05l0 0.45z"/>
   <path id="12" class="fil0" d="M13.88 5.89l-0.08 0 0 -0.52 0.08 0 0 0.04c0.01,-0.01 0.01,-0.02 0.02,-0.03 0.01,0 0.02,-0.01 0.03,-0.01l0.03 0c0.02,0 0.04,0.01 0.05,0.02 0.02,0.01 0.02,0.03 0.02,0.05l0 0.45 -0.08 0 0 -0.43 -0.07 0 0 0.43z"/>
   <path id="13" class="fil0" d="M14.61 5.37c0.02,0 0.03,0.01 0.05,0.02 0.01,0.01 0.02,0.03 0.02,0.05l0 0.38c0,0.03 -0.01,0.04 -0.02,0.06 -0.02,0.01 -0.03,0.01 -0.05,0.01l-0.17 0 0 -0.52 0.17 0zm-0.02 0.08l-0.06 0 0 0.36 0.06 0 0 -0.36z"/>
   <polygon id="14" class="fil0" points="15.29,5.89 15.2,5.37 15.28,5.37 15.34,5.71 15.39,5.37 15.48,5.37 15.39,5.89 "/>
   <polygon id="15" class="fil0" points="15.94,5.89 15.85,5.89 15.85,5.37 15.94,5.37 "/>
   <path id="16" class="fil0" d="M16.34 5.44c0,-0.02 0.01,-0.04 0.02,-0.05 0.01,-0.01 0.03,-0.02 0.05,-0.02l0.1 0c0.02,0 0.04,0.01 0.05,0.02 0.01,0.01 0.02,0.03 0.02,0.05l0 0.02 -0.09 0.04 0 -0.05 -0.06 0 0 0.14 0.15 -0.08 0 0.31c0,0.03 -0.01,0.04 -0.02,0.06 -0.01,0.01 -0.03,0.01 -0.05,0.01l-0.1 0c-0.02,0 -0.04,0 -0.05,-0.01 -0.01,-0.02 -0.02,-0.03 -0.02,-0.06l0 -0.05 0.09 -0.04 0 0.08 0.06 0 0 -0.16 -0.15 0.07 0 -0.28z"/>
   <polygon id="17" class="fil0" points="17.07,5.89 16.98,5.89 16.98,5.37 17.07,5.37 "/>
   <path id="18" class="fil0" d="M17.48 5.44c0,-0.02 0,-0.04 0.02,-0.05 0.01,-0.01 0.02,-0.02 0.05,-0.02l0.09 0c0.02,0 0.04,0.01 0.05,0.02 0.02,0.01 0.02,0.03 0.02,0.05l0 0.38c0,0.03 0,0.04 -0.02,0.06 -0.01,0.01 -0.03,0.01 -0.05,0.01l-0.09 0c-0.03,0 -0.04,0 -0.05,-0.01 -0.02,-0.02 -0.02,-0.03 -0.02,-0.06l0 -0.38zm0.15 0.01l-0.07 0 0 0.36 0.07 0 0 -0.36z"/>
   <path id="19" class="fil0" d="M18.2 5.89l-0.08 0 0 -0.52 0.08 0 0 0.04c0.01,-0.01 0.01,-0.02 0.02,-0.03 0.01,0 0.02,-0.01 0.03,-0.01l0.03 0c0.03,0 0.04,0.01 0.05,0.02 0.02,0.01 0.02,0.03 0.02,0.05l0 0.45 -0.08 0 0 -0.43 -0.07 0 0 0.43z"/>
  </g>
 </g>
</svg>
