<?xml version="1.0" encoding="UTF-8"?>
<!DOCTYPE svg PUBLIC "-//W3C//DTD SVG 1.1//EN" "http://www.w3.org/Graphics/SVG/1.1/DTD/svg11.dtd">
<!-- Creator: CorelDRAW 2017 -->
<svg xmlns="http://www.w3.org/2000/svg" xml:space="preserve" width="1230px" height="473px" version="1.1" style="shape-rendering:geometricPrecision; text-rendering:geometricPrecision; image-rendering:optimizeQuality; fill-rule:evenodd; clip-rule:evenodd"
viewBox="0 0 455.69 175.4"
 xmlns:xlink="http://www.w3.org/1999/xlink">
 <defs>
  <style type="text/css">
   <![CDATA[
    .str0 {stroke:aqua;stroke-width:0.88;stroke-linejoin:round;stroke-miterlimit:22.9256}
    .fil3 {fill:none;fill-rule:nonzero}
    .fil0 {fill:#FEFEFE;fill-rule:nonzero}
    .fil1 {fill:aqua;fill-rule:nonzero}
    .fil2 {fill:aqua;fill-rule:nonzero;fill-opacity:0.400000}
   ]]>
  </style>
 </defs>
 <g id="图层_x0020_1">
  <metadata id="CorelCorpID_0Corel-Layer"/>
  <path class="fil0" d="M149.81 154.61c-0.02,-0.1 -0.06,-0.24 -0.11,-0.43 -0.02,-0.08 -0.04,-0.12 -0.04,-0.15 0.97,-0.07 2.18,-0.22 3.62,-0.43l0.15 0.54c-0.27,0.05 -0.74,0.12 -1.41,0.22l0 1.52 2.38 0c-0.04,-1.14 -0.07,-2.04 -0.07,-2.72l0.62 0c0,0.7 0.02,1.61 0.07,2.72l3.18 0 0 0.58 -3.14 0c0.04,0.36 0.08,0.71 0.1,1.05 0.08,0.6 0.16,1.08 0.26,1.44 0.6,-0.53 1.16,-1.15 1.66,-1.88l0.55 0.36c-0.82,1.02 -1.5,1.74 -2.03,2.17 0.12,0.25 0.23,0.5 0.32,0.76 0.29,0.51 0.62,0.76 0.98,0.76 0.22,0 0.39,-0.14 0.51,-0.43 0.1,-0.48 0.17,-0.89 0.22,-1.23 0.21,0.1 0.4,0.18 0.57,0.25 -0.07,0.53 -0.17,0.96 -0.29,1.27 -0.16,0.55 -0.5,0.82 -1.01,0.8 -0.58,0 -1.1,-0.39 -1.56,-1.16 -0.02,-0.05 -0.04,-0.12 -0.07,-0.22 -0.09,-0.17 -0.15,-0.3 -0.18,-0.4 -0.5,0.44 -1.23,0.86 -2.17,1.27 -0.1,-0.15 -0.22,-0.3 -0.36,-0.47 0.89,-0.41 1.66,-0.88 2.32,-1.41 -0.1,-0.51 -0.21,-1.11 -0.33,-1.81 0,-0.12 -0.01,-0.32 -0.04,-0.58 -0.02,-0.24 -0.04,-0.42 -0.07,-0.54l-2.42 0 0 1.66 1.73 -0.32c0,0.14 0,0.33 0,0.57l-1.73 0.29 0 2.03c0.02,0.63 -0.29,0.95 -0.94,0.98 -0.2,0.02 -0.56,0.03 -1.09,0.03 -0.02,-0.07 -0.05,-0.19 -0.07,-0.36 -0.05,-0.12 -0.07,-0.2 -0.07,-0.25 0.26,0 0.59,0 0.97,0 0.39,0.02 0.57,-0.13 0.54,-0.47l0 -1.81 -1.8 0.32 -0.15 -0.58c0.34,-0.07 0.99,-0.18 1.95,-0.32l0 -1.77 -1.95 0 0 -0.58 1.95 0 0 -1.45c-0.77,0.1 -1.29,0.16 -1.55,0.18zm7.27 0.8c-0.58,-0.58 -1.08,-1.02 -1.49,-1.34l0.44 -0.4c0.51,0.41 1,0.85 1.48,1.31l-0.43 0.43z"/>
  <path id="1" class="fil0" d="M164.98 161.74c-0.03,-0.22 -0.06,-0.43 -0.11,-0.65 0.12,0 0.3,0 0.54,0 0.29,0.02 0.52,0.03 0.69,0.03 0.55,0.03 0.82,-0.22 0.8,-0.76l0 -5.82 -2.25 0 0 -0.58 2.9 0 0 6.55c0.02,0.8 -0.39,1.21 -1.23,1.23 -0.49,0 -0.93,0 -1.34,0zm-5.58 -3.51c-0.09,-0.36 -0.16,-0.62 -0.21,-0.79 0.84,-1.33 1.48,-2.7 1.92,-4.13l0.61 0.18c-0.24,0.68 -0.49,1.33 -0.76,1.96l0 6.4 -0.61 0 0 -5.21c-0.15,0.27 -0.38,0.65 -0.69,1.16 -0.12,0.19 -0.21,0.34 -0.26,0.43zm3 3.51l0 -6.4 0.62 0 0 6.4 -0.62 0zm1.16 -6.76c-0.29,-0.41 -0.64,-0.86 -1.05,-1.34l0.47 -0.33c0.08,0.1 0.2,0.24 0.37,0.44 0.36,0.41 0.6,0.7 0.72,0.86l-0.51 0.37z"/>
  <path id="2" class="fil0" d="M172.14 154.36l0 -0.58 5.5 0 0 0.58 -2.31 0c-0.25,0.68 -0.51,1.3 -0.8,1.88l0.51 0 0 5.61 -0.62 0 0 -5.46c-0.62,1.18 -1.42,2.25 -2.39,3.22 -0.04,-0.05 -0.12,-0.11 -0.21,-0.18 -0.1,-0.1 -0.18,-0.18 -0.26,-0.25 1.43,-1.36 2.46,-2.96 3.12,-4.82l-2.54 0zm-1.77 7.49l0 -8.57 0.62 0 0 8.57 -0.62 0zm6.88 -2.42c-0.75,-1.06 -1.4,-1.96 -1.96,-2.68l0.48 -0.33c0.67,0.9 1.33,1.78 1.99,2.65l-0.51 0.36zm-7.82 -1.67c-0.29,-0.07 -0.47,-0.11 -0.54,-0.11 0,-0.04 0.01,-0.1 0.04,-0.18 0.26,-1.11 0.43,-1.85 0.5,-2.24l0.51 0.07c-0.1,0.58 -0.27,1.4 -0.51,2.46zm2.68 -1.05c-0.26,-0.45 -0.58,-0.91 -0.94,-1.37l0.43 -0.33c0.08,0.1 0.21,0.28 0.4,0.55 0.27,0.36 0.46,0.61 0.58,0.76l-0.47 0.39z"/>
  <path id="3" class="fil0" d="M179.14 154.65l0 -0.47 2.64 0c-0.27,-0.26 -0.53,-0.53 -0.8,-0.8l0.51 -0.21c0.31,0.24 0.63,0.52 0.94,0.83l-0.33 0.18 1.89 0c0.05,-0.05 0.11,-0.11 0.18,-0.18 0.24,-0.27 0.49,-0.54 0.76,-0.83l0.58 0.21 -0.76 0.8 2.5 0 0 0.47 -4.17 0c-0.02,0.07 -0.06,0.18 -0.11,0.33 -0.05,0.16 -0.08,0.28 -0.11,0.36l3.73 0 0 0.43 -3.91 0c-0.09,0.24 -0.21,0.47 -0.36,0.69l5.03 0 0 0.51 -5.28 0c-0.03,0.04 -0.06,0.1 -0.11,0.18 -0.07,0.09 -0.19,0.26 -0.36,0.5l4.85 0 0 4.21 -0.58 0 0 -0.51 -4.63 0 0 0.51 -0.58 0 0 -3.16c-0.44,0.44 -0.95,0.89 -1.52,1.35 -0.03,-0.08 -0.09,-0.16 -0.18,-0.26 -0.08,-0.12 -0.14,-0.2 -0.19,-0.25 1.14,-0.8 2.01,-1.66 2.61,-2.57l-2.46 0 0 -0.51 2.75 0c0.14,-0.22 0.27,-0.45 0.36,-0.69l-2.39 0 0 -0.43 2.57 0c0,-0.03 0.02,-0.07 0.04,-0.15 0.05,-0.14 0.12,-0.32 0.22,-0.54l-3.33 0zm2.1 3.44l0 0.68 4.63 0 0 -0.68 -4.63 0zm0 1.08l0 0.69 4.63 0 0 -0.69 -4.63 0zm0 1.12l0 0.62 4.63 0 0 -0.62 -4.63 0z"/>
  <polygon id="4" class="fil0" points="188.52,157.65 188.52,157 197.31,157 197.31,157.65 "/>
  <path id="5" class="fil0" d="M198.73 157.36l0 -3.65 3.51 0 0 3.65 -1.49 0 0 1.02 1.7 0 0 0.5 -1.7 0 0 0.76 0.26 -0.25c0.48,0.36 0.94,0.74 1.37,1.12l-0.36 0.33c-0.41,-0.34 -0.83,-0.69 -1.27,-1.05l0 2.06 -0.54 0 0 -2.42c-0.41,0.77 -0.95,1.41 -1.63,1.91l-0.32 -0.5c0.7,-0.48 1.31,-1.14 1.84,-1.96l-1.7 0 0 -0.5 1.81 0 0 -1.02 -1.48 0zm4.09 -3.11l0 -0.5 4.2 0 0 0.5 -1.96 0 -0.25 1.2 1.88 0 0 4.49 -0.5 0 0 -3.98 -2.65 0 0 3.98 -0.5 0 0 -4.49 1.19 0 0.25 -1.2 -1.66 0zm3.84 7.53c-0.49,-0.48 -1.11,-1.02 -1.89,-1.63 -0.31,0.61 -0.99,1.18 -2.02,1.74 -0.03,-0.05 -0.09,-0.12 -0.18,-0.22 -0.08,-0.12 -0.14,-0.2 -0.19,-0.25 0.95,-0.41 1.55,-0.86 1.81,-1.34 0.29,-0.44 0.43,-1.18 0.4,-2.24l0 -1.24 0.54 0 0 1.2c0,0.87 -0.08,1.55 -0.25,2.06l0.15 -0.14c0.09,0.07 0.24,0.19 0.43,0.36 0.8,0.58 1.33,1 1.59,1.27l-0.39 0.43zm-7.39 -7.6l0 1.12 0.98 0 0 -1.12 -0.98 0zm0 1.59l0 1.13 0.98 0 0 -1.13 -0.98 0zm1.48 0l0 1.13 0.98 0 0 -1.13 -0.98 0zm0.98 -1.59l-0.98 0 0 1.12 0.98 0 0 -1.12z"/>
  <path id="6" class="fil0" d="M208.73 159.31c-0.02,-0.02 -0.07,-0.06 -0.15,-0.1 -0.14,-0.12 -0.25,-0.2 -0.32,-0.22 0.63,-0.82 0.91,-1.87 0.87,-3.15l0 -1.45 4.41 0c-0.05,-0.36 -0.07,-0.76 -0.07,-1.19l0.54 0c0,0.14 0.01,0.34 0.04,0.58 0,0.29 0.01,0.49 0.03,0.61l1.42 0c-0.32,-0.29 -0.6,-0.54 -0.84,-0.76l0.4 -0.32c0.1,0.07 0.24,0.19 0.44,0.36 0.21,0.19 0.36,0.33 0.43,0.4l-0.4 0.32 1.27 0 0 0.47 -2.68 0c0.1,1.02 0.26,1.8 0.47,2.36 0.41,-0.46 0.77,-1.05 1.09,-1.78l0.5 0.22c-0.45,0.94 -0.9,1.65 -1.34,2.14 0.25,0.53 0.51,0.79 0.8,0.79 0.24,0 0.4,-0.14 0.47,-0.43 0.12,-0.32 0.22,-0.65 0.29,-1.02 0.15,0.08 0.31,0.15 0.51,0.22 0,0.02 -0.02,0.07 -0.04,0.15 -0.07,0.38 -0.14,0.66 -0.22,0.83 -0.19,0.53 -0.51,0.79 -0.97,0.79 -0.49,0 -0.9,-0.3 -1.23,-0.9 -0.34,0.34 -0.71,0.65 -1.12,0.94l-0.37 -0.47c0.46,-0.31 0.87,-0.65 1.23,-1.01 -0.31,-0.75 -0.51,-1.69 -0.61,-2.83l-3.91 0 0 0.98c0.05,1.45 -0.27,2.61 -0.94,3.47zm1.55 -0.68l0 -1.91 2.68 0 0 1.91 -2.68 0zm1.23 3.01c-0.85,0.04 -1.25,-0.32 -1.2,-1.09l0 -1.16 0.58 0 0 1.05c-0.05,0.48 0.23,0.7 0.84,0.65l1.51 0c0.58,0.03 0.9,-0.12 0.95,-0.43 0,-0.07 0.02,-0.18 0.07,-0.33 0.05,-0.22 0.08,-0.4 0.11,-0.54l0.54 0.22c0,0.04 -0.01,0.13 -0.04,0.25 -0.02,0.19 -0.07,0.37 -0.14,0.54 -0.12,0.58 -0.56,0.86 -1.3,0.84l-1.92 0zm-0.68 -4.49l0 1.01 1.59 0 0 -1.01 -1.59 0zm-0.77 -1.13l0 -0.47 3.08 0 0 0.47 -3.08 0zm-1.37 5.33l-0.54 -0.26c0.21,-0.29 0.51,-0.84 0.9,-1.66l0.54 0.18c-0.17,0.36 -0.42,0.84 -0.76,1.45 -0.07,0.12 -0.12,0.21 -0.14,0.29zm7.63 -0.15c-0.02,-0.05 -0.07,-0.12 -0.14,-0.22 -0.17,-0.26 -0.47,-0.68 -0.9,-1.26l0.5 -0.26c0.15,0.2 0.19,0.26 0.15,0.18 0.45,0.66 0.77,1.08 0.94,1.27l-0.55 0.29zm-3.58 -0.8c-0.02,-0.02 -0.05,-0.06 -0.07,-0.1 -0.36,-0.46 -0.66,-0.8 -0.91,-1.02l0.48 -0.32c0.12,0.12 0.28,0.3 0.5,0.54 0.22,0.22 0.39,0.4 0.51,0.54l-0.51 0.36z"/>
  <path id="7" class="fil0" d="M218.86 158.49l0 -4.82 6.78 0 0 4.82 -6.78 0zm0.62 -4.31l0 3.8 5.58 0 0 -3.8 -5.58 0zm0.58 1.52l0 -0.47 1.92 0c0.02,-0.24 0.03,-0.52 0.03,-0.83l0.55 0c0,0.33 0,0.61 0,0.83l1.88 0 0 0.47 -1.96 0c0,0.14 -0.02,0.26 -0.07,0.36 0.39,0.17 0.93,0.45 1.63,0.83 0.22,0.12 0.38,0.21 0.51,0.26l-0.33 0.47c-0.7,-0.44 -1.38,-0.81 -2.03,-1.13 -0.24,0.46 -0.88,0.85 -1.91,1.16 -0.05,-0.14 -0.15,-0.3 -0.29,-0.47 1.2,-0.34 1.85,-0.83 1.95,-1.48l-1.88 0zm1.23 5.94c-0.85,0.04 -1.25,-0.33 -1.2,-1.13l0 -1.26 0.58 0 0 1.19c-0.05,0.48 0.23,0.7 0.83,0.65l1.52 0c0.56,0.03 0.87,-0.13 0.94,-0.47 0,-0.02 0.02,-0.06 0.04,-0.11 0.05,-0.26 0.08,-0.52 0.11,-0.76l0.58 0.22c0,0.05 -0.02,0.11 -0.04,0.18 -0.02,0.27 -0.07,0.48 -0.14,0.65 -0.12,0.58 -0.56,0.86 -1.31,0.84l-1.91 0zm-2.82 -0.33l-0.55 -0.25c0.27,-0.41 0.57,-1.03 0.91,-1.85l0.54 0.18c-0.31,0.75 -0.61,1.39 -0.9,1.92zm7.7 -0.22c-0.36,-0.53 -0.77,-1.08 -1.23,-1.66l0.47 -0.33c0.32,0.44 0.75,1 1.31,1.7l-0.55 0.29zm-3.51 -0.87c-0.19,-0.21 -0.49,-0.55 -0.9,-1.01 -0.07,-0.07 -0.12,-0.13 -0.15,-0.18l0.44 -0.33c0.36,0.34 0.72,0.73 1.09,1.16l-0.48 0.36z"/>
  <polygon id="8" class="fil0" points="231.1,161.09 230.63,161.53 228.79,159.46 229.26,159.07 "/>
  <path id="9" class="fil0" d="M237.98 154.47l0 -0.5 3.52 0 0 -0.76 0.61 0 0 0.76 3.51 0 0 0.5 -3.51 0 0 0.76 3.08 0 0 0.5 -3.08 0 0 0.8 3.98 0 0 0.51 -8.54 0 0 -0.51 3.95 0 0 -0.8 -3.08 0 0 -0.5 3.08 0 0 -0.76 -3.52 0zm-0.21 7.38c-0.03,-0.05 -0.07,-0.13 -0.15,-0.25 -0.04,-0.12 -0.09,-0.22 -0.14,-0.29 2.6,-0.29 3.96,-0.88 4.05,-1.77 0.03,-0.22 0.04,-0.5 0.04,-0.84l0.61 0c0,0.37 -0.02,0.67 -0.07,0.91 0,0.02 -0.01,0.06 -0.04,0.11 0,0.12 -0.02,0.21 -0.07,0.29 0.29,0.09 0.71,0.24 1.27,0.43 1.09,0.34 1.93,0.62 2.53,0.83l-0.29 0.55c-1.47,-0.61 -2.74,-1.05 -3.8,-1.34 -0.55,0.6 -1.87,1.06 -3.94,1.37zm0.87 -1.52l0 -2.46 6.33 0 0 2.39 -0.58 0 0 -1.92 -5.17 0 0 1.99 -0.58 0z"/>
  <path id="10" class="fil0" d="M250.4 154.69c0,-0.19 -0.02,-0.39 -0.07,-0.58 1.93,-0.07 3.66,-0.2 5.18,-0.4l0.14 0.62c-0.26,0.02 -0.66,0.06 -1.19,0.11 -0.49,0.02 -0.85,0.04 -1.09,0.07l0 2.82 2.64 0 0 0.58 -2.64 0 0 2.89 2.5 0 0 0.55 -5.72 0 0 -0.55 2.61 0 0 -2.89 -2.75 0 0 -0.58 2.75 0 0 -2.78 -2.36 0.14zm-3 3.47c-0.03,-0.09 -0.07,-0.26 -0.15,-0.51 -0.02,-0.07 -0.04,-0.13 -0.07,-0.18 0.89,-1.23 1.59,-2.64 2.1,-4.23l0.62 0.18c-0.22,0.68 -0.49,1.33 -0.8,1.95l0 6.48 -0.61 0 0 -5.32c-0.25,0.49 -0.61,1.03 -1.09,1.63z"/>
  <polygon id="11" class="fil0" points="260.44,161.09 259.97,161.53 258.12,159.46 258.59,159.07 "/>
  <path id="12" class="fil0" d="M269.6 155.34l0 -0.51 1.08 0 0 -1.59 0.62 0 0 1.59 1.92 0 0 -1.59 0.57 0 0 1.59 1.31 0 0 0.51 -1.31 0 0 2.03 1.67 0 0 0.54 -1.67 0 0 2.68 -0.57 0 0 -2.68 -1.96 0c-0.05,1.09 -0.51,1.98 -1.38,2.68 -0.14,-0.15 -0.31,-0.29 -0.5,-0.44 0.79,-0.6 1.22,-1.35 1.26,-2.24l-1.48 0 0 -0.54 1.52 0c0,-0.15 0,-0.29 0,-0.44l0 -1.59 -1.08 0zm-2.54 6.4l-0.32 -0.54c0.41,-0.46 0.78,-0.86 1.12,-1.2l0 -3.04 -1.05 0 0 -0.57 1.63 0 0 3.61c0.34,0.66 0.98,0.96 1.92,0.91 1.47,0.05 3.18,0.05 5.14,0 -0.03,0.07 -0.05,0.18 -0.08,0.33 -0.05,0.14 -0.08,0.25 -0.11,0.32 -1.93,0 -3.61,-0.02 -5.06,-0.07 -1.04,0 -1.75,-0.34 -2.14,-1.01 -0.17,0.19 -0.43,0.5 -0.79,0.94 -0.12,0.14 -0.21,0.25 -0.26,0.32zm4.24 -4.88c0,0.19 0,0.36 0,0.51l1.92 0 0 -2.03 -1.92 0 0 1.52zm-2.89 -1.56c-0.42,-0.67 -0.78,-1.22 -1.09,-1.63l0.47 -0.29c0.07,0.1 0.18,0.25 0.32,0.44 0.37,0.48 0.64,0.87 0.84,1.16l-0.54 0.32z"/>
  <path id="13" class="fil0" d="M276.73 154.18l0 -0.55 4.1 0 0 0.55 -0.51 0 0 5.21 0.83 -0.15c0,0.2 0,0.38 0,0.55l-0.83 0.11 0 1.95 -0.58 0 0 -1.85c-0.55,0.08 -1.43,0.21 -2.61,0.4 -0.24,0.05 -0.42,0.09 -0.54,0.11l-0.07 -0.58c0.26,-0.05 0.51,-0.08 0.76,-0.11l0 -5.64 -0.55 0zm8.15 7.52c-0.87,-0.74 -1.49,-1.37 -1.85,-1.88 -0.38,0.56 -1.06,1.22 -2.02,1.99 -0.12,-0.14 -0.26,-0.31 -0.4,-0.5 0.87,-0.61 1.57,-1.27 2.1,-1.99 -0.7,-1.09 -1.15,-2.67 -1.34,-4.74l-0.29 0 0 -0.55 3.8 0 0 0.58c-0.27,2.08 -0.76,3.65 -1.49,4.71 0.49,0.67 1.13,1.29 1.92,1.84l-0.43 0.54zm-0.62 -7.12l-2.35 0c0.22,1.85 0.6,3.24 1.16,4.16 0.58,-0.97 0.98,-2.35 1.19,-4.16zm-6.4 5.17c0.62,-0.07 1.25,-0.17 1.88,-0.29l0 -1.37 -1.88 0 0 1.66zm0 -5.57l0 1.45 1.88 0 0 -1.45 -1.88 0zm0 1.95l0 1.45 1.88 0 0 -1.45 -1.88 0z"/>
  <path id="14" class="fil0" d="M286.69 161.75l0 -7.06 0.94 0c0.2,-0.55 0.33,-1.04 0.4,-1.45l0.65 0.11c-0.04,0.19 -0.15,0.53 -0.32,1.01 -0.05,0.15 -0.09,0.26 -0.11,0.33l1.77 0 0 6.98 -0.58 0 0 -0.72 -2.17 0 0 0.8 -0.58 0zm4.85 -0.07c-0.02,-0.22 -0.07,-0.43 -0.14,-0.62 0.46,0 0.95,0 1.48,0 0.73,0.05 1.09,-0.28 1.09,-0.98 0.05,-0.55 0.08,-1.78 0.11,-3.69 0.02,-0.55 0.03,-0.94 0.03,-1.16l-2.49 0c-0.25,0.58 -0.5,1.08 -0.76,1.49 -0.15,-0.12 -0.32,-0.22 -0.51,-0.29 0.55,-0.94 1.01,-2.01 1.37,-3.19l0.62 0.11c-0.05,0.15 -0.13,0.36 -0.25,0.65 -0.1,0.32 -0.19,0.55 -0.26,0.69l2.9 0c0,0.17 0,0.43 0,0.8 -0.05,2.07 -0.1,3.63 -0.15,4.66 -0.02,0.99 -0.54,1.5 -1.55,1.53 -0.48,0 -0.98,0 -1.49,0zm-4.27 -3.56l0 2.36 2.17 0 0 -2.36 -2.17 0zm0 -2.89l0 2.31 2.17 0 0 -2.31 -2.17 0zm5.25 3.87c-0.53,-0.77 -1,-1.42 -1.41,-1.95l0.47 -0.33c0.05,0.08 0.12,0.17 0.22,0.29 0.53,0.65 0.94,1.2 1.23,1.63l-0.51 0.36z"/>
  <path id="15" class="fil0" d="M299.77 161.56c-0.89,0 -1.34,-0.43 -1.34,-1.3l0 -5.28 0.65 0 0 5.14c-0.05,0.57 0.24,0.84 0.87,0.79l1.59 0c0.65,0.03 1.02,-0.2 1.09,-0.68 0,-0.08 0.01,-0.2 0.03,-0.37 0.05,-0.36 0.09,-0.65 0.11,-0.86 0.05,0.02 0.12,0.04 0.22,0.07 0.22,0.07 0.36,0.12 0.43,0.14 0,0.07 -0.01,0.17 -0.03,0.29 -0.05,0.48 -0.11,0.83 -0.18,1.05 -0.15,0.68 -0.65,1.01 -1.52,1.01l-1.92 0zm4.48 -2.46c-0.29,-0.72 -0.78,-1.77 -1.48,-3.15l0.58 -0.25c0.7,1.35 1.22,2.39 1.55,3.11l-0.65 0.29zm-7.52 0.54c-0.08,-0.02 -0.22,-0.07 -0.44,-0.14 -0.1,-0.02 -0.17,-0.05 -0.22,-0.07 0.41,-1.09 0.74,-2.25 0.98,-3.48l0.62 0.15c-0.22,1.11 -0.53,2.29 -0.94,3.54zm4.56 -3.72c-0.68,-1.04 -1.22,-1.84 -1.63,-2.39l0.54 -0.36c0.58,0.79 1.12,1.58 1.63,2.35l-0.54 0.4z"/>
  <path id="16" class="fil0" d="M307.62 162.07l-0.28 -0.25c0.55,-0.41 0.82,-0.9 0.79,-1.45l-0.54 0 0 -1.05 0.98 0c0,0.14 0,0.45 0,0.9 0.02,0.8 -0.29,1.42 -0.95,1.85z"/>
  <path id="17" class="fil0" d="M324.06 161.85c-0.99,-0.67 -1.67,-1.27 -2.06,-1.77 -0.39,0.5 -1.1,1.12 -2.14,1.84 -0.12,-0.19 -0.27,-0.36 -0.47,-0.5 1.04,-0.63 1.8,-1.25 2.28,-1.85 -0.5,-0.8 -0.87,-1.85 -1.08,-3.15 -0.05,0.12 -0.16,0.29 -0.33,0.51 -0.05,0.07 -0.08,0.12 -0.11,0.14 -0.07,-0.14 -0.2,-0.31 -0.39,-0.5 0.72,-0.94 1.24,-2.08 1.55,-3.41l0.62 0.11c-0.15,0.58 -0.33,1.1 -0.55,1.56l2.97 0 0 0.58 -0.72 0c-0.2,1.83 -0.62,3.22 -1.27,4.16 0.46,0.65 1.16,1.22 2.1,1.7 -0.15,0.17 -0.28,0.36 -0.4,0.58zm-8.29 -7.6l0 -0.54 4.09 0 0 0.54 -1.91 0c-0.32,0.63 -0.74,1.34 -1.27,2.14 0.72,-0.05 1.42,-0.09 2.1,-0.11l-0.65 -1.02 0.47 -0.25c0.48,0.7 0.93,1.4 1.34,2.1l-0.47 0.33 -0.4 -0.66c-0.61,0.03 -1.34,0.06 -2.21,0.11 0.07,0 0,0 -0.22,0 -0.14,0.03 -0.31,0.05 -0.5,0.08 0.02,0 -0.02,0.01 -0.11,0.03l-0.26 -0.5c0.22,-0.1 0.39,-0.27 0.51,-0.51 0.39,-0.53 0.72,-1.11 1.01,-1.74l-1.52 0zm0.11 4.75l0 -0.55 1.59 0 0 -1.08 0.58 0 0 1.08 1.7 0 0 0.55 -1.7 0 0 1.55 1.81 -0.22c0,0.17 0,0.34 0,0.51 -1.25,0.1 -2.63,0.25 -4.13,0.47l-0.1 -0.54 1.84 -0.18 0 -1.59 -1.59 0zm6.15 0.03c0.51,-0.82 0.85,-2.03 1.02,-3.62l-1.92 0 -0.11 0.22c0.22,1.54 0.56,2.67 1.01,3.4z"/>
  <path id="18" class="fil0" d="M325.99 161.78c-0.05,-0.04 -0.14,-0.14 -0.26,-0.29 -0.09,-0.12 -0.15,-0.19 -0.18,-0.21 2.1,-1.14 3.16,-2.87 3.19,-5.21 0,-0.08 0,-0.15 0,-0.22l-2.94 0 0 -0.62 2.97 0c0.05,-0.87 0.07,-1.53 0.07,-1.99l0.66 0c0,0.44 -0.03,1 -0.08,1.7 0,0.12 0,0.22 0,0.29l4.09 0c-0.05,1.72 -0.11,3.2 -0.18,4.46 0,1.27 -0.59,1.89 -1.77,1.84 -0.7,0.02 -1.23,0.04 -1.59,0.04 -0.03,-0.15 -0.05,-0.33 -0.08,-0.55 0,0.08 -0.01,0.03 -0.03,-0.14 0.41,0.02 0.94,0.03 1.59,0.03 0.82,0.08 1.24,-0.41 1.27,-1.44 0,-0.15 0.01,-0.4 0.03,-0.76 0.05,-1.33 0.08,-2.28 0.08,-2.86l-3.44 0 0 0.07c-0.05,2.73 -1.18,4.68 -3.4,5.86z"/>
  <path id="19" class="fil0" d="M343.65 161.75c-0.74,-0.41 -1.37,-0.82 -1.88,-1.23 -0.38,0.38 -0.9,0.79 -1.55,1.23 -0.08,-0.15 -0.21,-0.32 -0.4,-0.51 0.72,-0.46 1.25,-0.84 1.59,-1.16 -0.53,-0.65 -0.93,-1.52 -1.19,-2.6l-0.47 0 0 4.37 -0.58 0 0 -8.14 4.19 0c0,0.17 -0.01,0.38 -0.03,0.65 0,0.29 -0.01,0.51 -0.04,0.65 -0.05,0.77 -0.48,1.15 -1.3,1.12 -0.34,0 -0.71,0 -1.12,0 0,-0.05 -0.01,-0.09 -0.04,-0.14 0,-0.15 -0.02,-0.27 -0.07,-0.36 0.34,0 0.7,0 1.08,0 0.61,0.02 0.9,-0.18 0.87,-0.62 0.05,-0.34 0.08,-0.59 0.08,-0.76l-3.04 0 0 2.72 3.69 0 0 0.54c-0.32,1.04 -0.74,1.9 -1.27,2.57 0.36,0.34 0.98,0.71 1.85,1.12 -0.05,0.08 -0.12,0.18 -0.22,0.33 -0.07,0.1 -0.12,0.17 -0.15,0.22zm-7.95 0.06c-0.15,-0.14 -0.31,-0.28 -0.47,-0.4 0.45,-0.58 0.66,-1.64 0.61,-3.18l0 -4.56 2.46 0 0 7.13c0.02,0.58 -0.25,0.87 -0.83,0.87 -0.15,0.02 -0.4,0.03 -0.76,0.03 0,-0.19 -0.03,-0.38 -0.07,-0.58 0.19,0.03 0.42,0.04 0.68,0.04 0.29,0 0.44,-0.13 0.44,-0.4l0 -2.02 -1.38 0c0,1.35 -0.23,2.37 -0.68,3.07zm7.19 -4.33l-2.13 0c0.31,1.01 0.65,1.73 1.01,2.17 0.41,-0.49 0.79,-1.21 1.12,-2.17zm-6.51 -1.02l0 1.77 1.38 0 0 -1.77 -1.38 0zm0 -2.28l0 1.77 1.38 0 0 -1.77 -1.38 0z"/>
  <path id="20" class="fil0" d="M345.25 157.83c-0.02,-0.02 -0.06,-0.08 -0.11,-0.18 -0.09,-0.17 -0.15,-0.29 -0.18,-0.36 1.55,-0.19 2.83,-0.5 3.84,-0.91 -0.63,-0.38 -1.19,-0.88 -1.7,-1.48 -0.6,0.56 -1.11,1 -1.52,1.34 -0.15,-0.19 -0.29,-0.35 -0.44,-0.47 1.09,-0.77 1.97,-1.64 2.65,-2.61l0.61 0.18c-0.14,0.22 -0.31,0.44 -0.51,0.66l4.71 0 0 0.57c-0.92,0.85 -1.74,1.47 -2.46,1.85 0.91,0.36 2.11,0.59 3.58,0.69 -0.02,0.05 -0.06,0.14 -0.11,0.29 -0.07,0.12 -0.12,0.21 -0.14,0.29 -1.72,-0.17 -3.05,-0.49 -4.02,-0.94 -0.96,0.43 -2.36,0.79 -4.2,1.08zm4.16 3.88c0,-0.05 -0.01,-0.12 -0.03,-0.22 -0.03,-0.22 -0.05,-0.36 -0.07,-0.43 0.29,0.02 0.75,0.03 1.41,0.03 0.72,0.05 1.09,-0.29 1.12,-1.01 0.05,-0.34 0.07,-0.73 0.07,-1.16l-3.15 0c-0.14,1.35 -1.24,2.35 -3.29,3 -0.05,-0.09 -0.15,-0.24 -0.29,-0.43 -0.05,-0.07 -0.08,-0.12 -0.11,-0.15 1.88,-0.48 2.91,-1.29 3.08,-2.42l-2.5 0 0 -0.54 2.61 0c0.02,-0.1 0.03,-0.26 0.03,-0.47 0.03,-0.2 0.04,-0.35 0.04,-0.47l0.61 0c0,0.12 -0.01,0.27 -0.03,0.47 0,0.21 -0.01,0.37 -0.04,0.47l3.69 0c0,0.12 -0.01,0.31 -0.03,0.58 -0.03,0.53 -0.05,0.91 -0.08,1.15 -0.02,1.09 -0.58,1.61 -1.66,1.56 -0.36,0.03 -0.82,0.04 -1.38,0.04zm2.39 -7.17l-4.3 0c0.62,0.7 1.27,1.22 1.95,1.56 0.77,-0.34 1.56,-0.86 2.35,-1.56z"/>
  <path id="21" class="fil0" d="M355.54 154.44l0 -0.58 7.27 0 0 0.58 -3.22 0 0 2.45 3.91 0 0 0.62 -3.91 0 0 2.93c0.03,0.84 -0.38,1.26 -1.23,1.26 -0.43,0 -0.88,0 -1.34,0 0,-0.07 -0.02,-0.18 -0.07,-0.32 -0.02,-0.17 -0.05,-0.29 -0.07,-0.36 0.24,0.02 0.65,0.03 1.23,0.03 0.58,0.05 0.86,-0.2 0.83,-0.76l0 -2.78 -4.12 0 0 -0.62 4.12 0 0 -2.45 -3.4 0z"/>
  <path id="22" class="fil0" d="M365.28 154.18l-0.07 -0.51c2.17,0 4.58,-0.07 7.24,-0.21l0.11 0.5c-0.61,0.03 -1.72,0.06 -3.33,0.11l0 0.83 4.05 0 0 0.47 -4.05 0 0 0.8 3.07 0 0 3 -3.07 0 0 0.73 3.4 0 0 0.43 -3.4 0 0 0.65 4.05 0 0 0.51 -8.72 0 0 -0.51 4.09 0 0 -0.65 -3.4 0 0 -0.43 3.4 0 0 -0.73 -3.09 0 0 -3 3.09 0 0 -0.8 -4.02 0 0 -0.47 4.02 0 0 -0.79c-1.59,0.04 -2.72,0.07 -3.37,0.07zm6.45 2.43l-2.5 0 0 0.83 2.5 0 0 -0.83zm-2.5 1.27l0 0.82 2.5 0 0 -0.82 -2.5 0zm-3.09 0l0 0.82 2.51 0 0 -0.82 -2.51 0zm0 -1.27l0 0.83 2.51 0 0 -0.83 -2.51 0z"/>
  <path id="23" class="fil0" d="M377.99 158.99l0 -5.39 4.42 0 0 5.25 -0.58 0 0 -4.67 -3.26 0 0 4.81 -0.58 0zm-3.48 0.01c-0.02,-0.08 -0.07,-0.21 -0.14,-0.4 -0.02,-0.15 -0.05,-0.24 -0.07,-0.29 0.84,-0.65 1.58,-1.54 2.2,-2.68l-2.02 0 0 -0.58 2.64 0 0 0.62c-0.31,0.58 -0.63,1.08 -0.94,1.52l0 4.67 -0.58 0 0 -3.98c-0.29,0.36 -0.65,0.73 -1.09,1.12zm2.72 2.85c-0.15,-0.14 -0.29,-0.31 -0.44,-0.5 2.05,-0.92 3.05,-2.33 3.01,-4.24 0.07,-0.51 0.1,-1.22 0.1,-2.13l0.58 0c0,0.82 -0.03,1.54 -0.1,2.17 0,2.12 -1.05,3.69 -3.15,4.7zm4.05 -0.29c-0.7,0.02 -1.05,-0.31 -1.05,-1.01l0 -2.17 0.58 0 0 2.1c-0.02,0.4 0.18,0.59 0.62,0.54l0.32 0c0.39,0.02 0.62,-0.14 0.69,-0.47 0.02,-0.15 0.06,-0.51 0.11,-1.09 0.22,0.07 0.4,0.15 0.54,0.22 0,0.07 -0.01,0.19 -0.03,0.36 -0.03,0.29 -0.05,0.52 -0.08,0.69 -0.09,0.58 -0.49,0.85 -1.19,0.83l-0.51 0zm-5.28 -6.65c-0.34,-0.68 -0.59,-1.14 -0.76,-1.38l0.54 -0.25c0.19,0.28 0.45,0.74 0.76,1.37l-0.54 0.26zm1.3 3.9c-0.1,-0.12 -0.3,-0.38 -0.61,-0.79 -0.15,-0.17 -0.26,-0.29 -0.33,-0.37l0.36 -0.32c0.17,0.17 0.4,0.41 0.69,0.72 0.17,0.2 0.28,0.32 0.32,0.36l-0.43 0.4z"/>
  <path id="24" class="fil0" d="M385.45 156.75l0 -3.15 6.08 0 0 3.15 -6.08 0zm3.65 5.1l0 -3.98 3.3 0 0 3.98 -0.58 0 0 -0.58 -2.14 0 0 0.58 -0.58 0zm-4.55 0l0 -3.98 3.29 0 0 3.98 -0.58 0 0 -0.58 -2.14 0 0 0.58 -0.57 0zm1.51 -7.71l0 2.03 4.85 0 0 -2.03 -4.85 0zm3.62 4.27l0 2.39 2.14 0 0 -2.39 -2.14 0zm-4.56 0l0 2.39 2.14 0 0 -2.39 -2.14 0z"/>
  <path id="25" class="fil0" d="M397.58 158.24l0 -4.13 1.59 0c0.03,-0.12 0.06,-0.28 0.11,-0.47 0.05,-0.22 0.09,-0.38 0.11,-0.47l0.58 0.07c-0.07,0.29 -0.16,0.58 -0.25,0.87l2.42 0 0 4.13 -2.46 0c-0.32,0.5 -0.83,0.97 -1.56,1.41l1.96 0 0 -1.02 0.58 0 0 1.02 1.99 0 0 0.5 -1.99 0 0 1.7 -0.58 0 0 -1.7 -3 0 0 -0.5 0.97 0c-0.02,-0.05 -0.06,-0.1 -0.11,-0.15 -0.09,-0.12 -0.16,-0.2 -0.21,-0.25 0.6,-0.32 1.04,-0.65 1.33,-1.01l-1.48 0zm-3.25 3.57c-0.2,-0.14 -0.37,-0.25 -0.51,-0.32 0.24,-0.51 0.4,-1.01 0.47,-1.52 0.07,-0.48 0.11,-1.22 0.11,-2.21l0 -4.19 0.58 0 0 2.68 1.05 0 0 -2.9 0.54 0 0 2.9 0.58 0 0 0.5 -2.17 0 0 1.01 0 0.18 1.66 0 0 3.8 -0.55 0 0 -3.29 -1.15 0c0.02,1.3 -0.18,2.42 -0.61,3.36zm7.26 -4.08l0 -1.34 -1.48 0c0,0.51 -0.07,0.95 -0.22,1.34l1.7 0zm-3.46 -3.12l0 1.31 1.47 0 0 -1.31 -1.47 0zm3.46 0l-1.48 0 0 1.31 1.48 0 0 -1.31zm-2.23 3.12c0.14,-0.36 0.23,-0.81 0.25,-1.34l-1.48 0 0 1.34 1.23 0z"/>
  <path id="26" class="fil0" d="M403.88 158.27c-0.02,-0.12 -0.08,-0.28 -0.18,-0.47 -0.02,-0.12 -0.05,-0.21 -0.07,-0.25 0.82,-1.31 1.45,-2.74 1.88,-4.31l0.62 0.14c-0.22,0.7 -0.46,1.37 -0.73,1.99l0 6.48 -0.58 0 0 -5.17c-0.26,0.53 -0.57,1.06 -0.94,1.59zm8.22 -1.41c-1.26,-0.75 -2.21,-1.65 -2.86,-2.72 -0.65,1.04 -1.62,1.98 -2.9,2.83 -0.02,-0.07 -0.09,-0.18 -0.21,-0.33 -0.08,-0.1 -0.12,-0.17 -0.15,-0.22 1.5,-0.89 2.55,-1.97 3.15,-3.25l0.65 0.07c-0.02,0.05 -0.06,0.11 -0.11,0.18 -0.05,0.1 -0.08,0.17 -0.11,0.22 0.71,1.11 1.67,2 2.9,2.68 -0.07,0.07 -0.17,0.21 -0.29,0.43 -0.02,0.05 -0.05,0.08 -0.07,0.11zm-5.43 5.03c-0.12,-0.15 -0.29,-0.29 -0.5,-0.44 0.99,-0.69 1.45,-1.88 1.37,-3.54l0 -1.12 0.62 0 0 1.12c0.07,1.81 -0.42,3.13 -1.49,3.98zm3.48 -0.11l0 -4.99 0.61 0 0 4.99 -0.61 0z"/>
  <path id="27" class="fil0" d="M416.05 154.61l0 -0.5 2.61 0 0 -0.91 0.58 0 0 0.91 2.78 0 0 0.5 -2.78 0 0 0.94 2.17 0 0 5.47 0.8 0 0 0.54 -6.56 0 0 -0.54 0.87 0 0 -5.47 2.14 0 0 -0.94 -2.61 0zm-1.6 7.21l0 -5.03c-0.26,0.43 -0.54,0.86 -0.83,1.3 -0.02,-0.05 -0.06,-0.13 -0.11,-0.25 -0.07,-0.17 -0.13,-0.29 -0.18,-0.37 0.82,-1.2 1.48,-2.63 1.99,-4.27l0.58 0.15c-0.24,0.79 -0.53,1.56 -0.87,2.28l0 6.19 -0.58 0zm2.65 -3.01l0 0.91 3.69 0 0 -0.91 -3.69 0zm0 -1.37l0 0.9 3.69 0 0 -0.9 -3.69 0zm0 -1.42l0 0.95 3.69 0 0 -0.95 -3.69 0zm0 4.17l0 0.83 3.69 0 0 -0.83 -3.69 0z"/>
  <path id="28" class="fil0" d="M423.58 161.75l0 -7.06 0.94 0c0.2,-0.55 0.33,-1.04 0.4,-1.45l0.65 0.11c-0.04,0.19 -0.15,0.53 -0.32,1.01 -0.05,0.15 -0.09,0.26 -0.11,0.33l1.77 0 0 6.98 -0.58 0 0 -0.72 -2.17 0 0 0.8 -0.58 0zm4.85 -0.07c-0.02,-0.22 -0.07,-0.43 -0.14,-0.62 0.46,0 0.95,0 1.48,0 0.73,0.05 1.09,-0.28 1.09,-0.98 0.05,-0.55 0.08,-1.78 0.11,-3.69 0.02,-0.55 0.03,-0.94 0.03,-1.16l-2.49 0c-0.25,0.58 -0.5,1.08 -0.76,1.49 -0.15,-0.12 -0.32,-0.22 -0.51,-0.29 0.55,-0.94 1.01,-2.01 1.37,-3.19l0.62 0.11c-0.05,0.15 -0.13,0.36 -0.25,0.65 -0.1,0.32 -0.19,0.55 -0.26,0.69l2.9 0c0,0.17 0,0.43 0,0.8 -0.05,2.07 -0.1,3.63 -0.15,4.66 -0.02,0.99 -0.54,1.5 -1.55,1.53 -0.49,0 -0.98,0 -1.49,0zm-4.27 -3.56l0 2.36 2.17 0 0 -2.36 -2.17 0zm0 -2.89l0 2.31 2.17 0 0 -2.31 -2.17 0zm5.25 3.87c-0.53,-0.77 -1,-1.42 -1.41,-1.95l0.47 -0.33c0.05,0.08 0.12,0.17 0.22,0.29 0.53,0.65 0.94,1.2 1.23,1.63l-0.51 0.36z"/>
  <path id="29" class="fil0" d="M434.49 161.86l0 -2.76 5.79 0 0 2.76 -0.58 0 0 -0.44 -4.6 0 0 0.44 -0.61 0zm-1.27 -2.83c-0.03,-0.1 -0.08,-0.24 -0.15,-0.44 -0.02,-0.07 -0.05,-0.12 -0.07,-0.14 1.66,-0.19 2.92,-0.45 3.76,-0.76 -0.53,-0.29 -1.02,-0.69 -1.48,-1.19 -0.39,0.33 -0.84,0.68 -1.38,1.05 -0.04,-0.05 -0.1,-0.13 -0.18,-0.22 -0.07,-0.1 -0.13,-0.17 -0.18,-0.22 0.99,-0.55 1.81,-1.28 2.46,-2.17l0.55 0.18c-0.15,0.22 -0.31,0.4 -0.47,0.54l4.09 0 0 0.58c-0.61,0.61 -1.3,1.1 -2.07,1.49 0.77,0.26 1.96,0.44 3.55,0.54 -0.07,0.17 -0.15,0.36 -0.22,0.58 -1.86,-0.17 -3.18,-0.45 -3.98,-0.84 -1.11,0.44 -2.52,0.78 -4.23,1.02zm1.88 0.58l0 1.31 4.6 0 0 -1.31 -4.6 0zm5.68 -3.84l0 -1.05 -6.77 0 0 1.05 -0.58 0 0 -1.59 3.77 0 -0.26 -0.94 0.62 -0.07c0.07,0.29 0.16,0.62 0.25,1.01l3.55 0 0 1.59 -0.58 0zm-1.34 0.4l-3.73 0c0.58,0.6 1.16,1.02 1.74,1.27 0.72,-0.32 1.39,-0.74 1.99,-1.27z"/>
  <path id="30" class="fil0" d="M443.25 161.85c-0.07,-0.1 -0.23,-0.23 -0.47,-0.4 -0.03,-0.02 -0.04,-0.04 -0.04,-0.04 0.44,-0.6 0.73,-1.19 0.87,-1.77 0.15,-0.58 0.22,-1.42 0.22,-2.53l0 -2.6 3.47 0c-0.07,-0.12 -0.18,-0.31 -0.32,-0.58 -0.15,-0.24 -0.26,-0.42 -0.33,-0.54l0.61 -0.22c0.22,0.41 0.46,0.83 0.73,1.27l-0.26 0.07 3.11 0 0 3.94 -0.65 0 0 -0.44 -5.75 0c-0.02,1.52 -0.42,2.8 -1.19,3.84zm1.19 -4.74l0 0.32 5.75 0 0 -2.3 -5.75 0 0 1.98z"/>
  <path id="31" class="fil0" d="M454.29 162.07l-0.29 -0.25c0.56,-0.41 0.82,-0.9 0.8,-1.45l-0.54 0 0 -1.05 0.97 0c0,0.14 0,0.45 0,0.9 0.03,0.8 -0.29,1.42 -0.94,1.85z"/>
  <path id="32" class="fil0" d="M103.95 170.15l0 -3.18 4.53 0 0 3.18 -4.53 0zm-0.75 1.34l0 -0.5 6.04 0 0 0.5 -2.68 0 0 1.13 2.32 0 0 0.47 -2.32 0 0 1.23 0.14 0c0.46,0.02 1.34,0.03 2.65,0.03 -0.08,0.2 -0.14,0.38 -0.18,0.55 -0.94,0 -1.84,-0.02 -2.68,-0.04 -1.11,-0.02 -1.87,-0.45 -2.28,-1.27 -0.24,0.56 -0.61,1.09 -1.09,1.6 -0.02,-0.03 -0.07,-0.06 -0.14,-0.11 -0.05,-0.05 -0.16,-0.14 -0.33,-0.26 0.82,-0.67 1.27,-1.64 1.34,-2.89l0.58 0.07c-0.02,0.1 -0.05,0.23 -0.07,0.4 -0.05,0.24 -0.09,0.41 -0.11,0.51 0.38,0.84 0.92,1.3 1.59,1.37l0 -2.79 -2.78 0zm-2.57 -2.53l0 -0.54 1.12 0 0 -1.85 0.58 0 0 1.85 0.97 0 0 0.54 -0.97 0 0 1.67 0.9 -0.4c0,0.05 0,0.14 0,0.29 0.03,0.14 0.04,0.25 0.04,0.33l-0.94 0.39 0 2.86c0.05,0.63 -0.25,0.95 -0.87,0.98 -0.15,0.02 -0.36,0.03 -0.65,0.03 -0.03,-0.26 -0.06,-0.47 -0.11,-0.61 0.14,0 0.35,0 0.61,0 0.29,0.02 0.44,-0.13 0.44,-0.47l0 -2.53 -1.16 0.54 -0.07 -0.65c0.19,-0.08 0.47,-0.2 0.83,-0.36 0.17,-0.08 0.3,-0.12 0.4,-0.15l0 -1.92 -1.12 0zm3.9 -0.14l0 0.86 3.37 0 0 -0.86 -3.37 0zm0 -1.39l0 0.92 3.37 0 0 -0.92 -3.37 0z"/>
  <path id="33" class="fil0" d="M113.01 169.03l0 -0.55 1.16 0 0 -1.91 0.62 0 0 1.91 2.09 0 0 -1.91 0.58 0 0 1.91 1.23 0 0 0.55 -1.23 0 0 2.68 1.59 0 0 0.58 -6.44 0 0 -0.58 1.56 0 0 -2.68 -1.16 0zm-2.5 2.32c-0.07,-0.22 -0.14,-0.46 -0.21,-0.73 0.86,-1.18 1.53,-2.53 1.99,-4.05l0.61 0.18c-0.24,0.7 -0.51,1.34 -0.79,1.92l0 6.51 -0.58 0 0 -5.35c-0.27,0.43 -0.61,0.94 -1.02,1.52zm4.28 -2.32l0 2.68 2.09 0 0 -2.68 -2.09 0zm-1.74 6.12c-0.05,-0.08 -0.21,-0.22 -0.48,-0.44 0.8,-0.58 1.51,-1.23 2.14,-1.95l0.51 0.36c-0.58,0.63 -1.31,1.3 -2.17,2.03zm5.5 0c-0.25,-0.27 -0.73,-0.75 -1.45,-1.45 -0.29,-0.27 -0.5,-0.46 -0.62,-0.58l0.44 -0.4c0.67,0.63 1.38,1.29 2.13,1.99l-0.5 0.44z"/>
  <path id="34" class="fil0" d="M123.87 175.18l0 -8.03 4.59 0 0 8.03 -0.61 0 0 -0.61 -3.4 0 0 0.61 -0.58 0zm-3.66 -6.25l0 -0.55 1.34 0 0 -1.81 0.58 0 0 1.81 1.23 0 0 0.55 -1.23 0 0 1.48 0.26 -0.25c0.38,0.36 0.76,0.73 1.12,1.12l-0.4 0.4c-0.14,-0.17 -0.36,-0.41 -0.65,-0.73 -0.15,-0.17 -0.26,-0.29 -0.33,-0.36l0 4.6 -0.58 0 0 -5.03c-0.33,1.06 -0.74,1.94 -1.23,2.64 -0.02,-0.07 -0.07,-0.19 -0.14,-0.36 -0.05,-0.15 -0.1,-0.26 -0.15,-0.33 0.63,-0.82 1.13,-1.88 1.49,-3.18l-1.31 0zm4.24 3.36l0 1.81 3.4 0 0 -1.81 -3.4 0zm0 -4.6l0 1.78 3.4 0 0 -1.78 -3.4 0zm0 2.32l0 1.77 3.4 0 0 -1.77 -3.4 0z"/>
  <path id="35" class="fil0" d="M130.36 167.81l0 -0.55 7.81 0 0 0.55 -5.71 0 -0.22 1.43 4.89 0 -0.33 4.82 1.7 0 0 0.51 -8.43 0 0 -0.51 6.11 0 0.11 -1.62 -5.21 0 0.72 -4.63 -1.44 0zm6.11 1.98l-4.34 0 -0.33 2.1 4.53 0 0.14 -2.1z"/>
  <path id="36" class="fil0" d="M139.88 167.91l0 -0.47 2.79 0c-0.22,-0.27 -0.44,-0.52 -0.65,-0.76l0.47 -0.22c0.29,0.27 0.55,0.54 0.79,0.83l-0.32 0.15 1.91 0c0.29,-0.36 0.55,-0.69 0.76,-0.98l0.55 0.22c-0.05,0.05 -0.12,0.13 -0.22,0.25 -0.19,0.24 -0.34,0.41 -0.43,0.51l2.71 0 0 0.47 -3.04 0 0 0.76 2.32 0 0 3.47 -6.95 0 0 -3.47 2.35 0c0,-0.19 0,-0.45 0,-0.76l-3.04 0zm1.99 2.53c-0.02,-0.05 -0.08,-0.12 -0.18,-0.21 -0.07,-0.1 -0.13,-0.16 -0.18,-0.19 0.82,-0.21 1.27,-0.51 1.34,-0.9l-1.74 0 0 1.52 5.83 0 0 -1.52 -1.74 0 0 0.25c-0.03,0.27 0.14,0.39 0.51,0.36l1.01 0c-0.02,0.15 -0.06,0.28 -0.11,0.4l-1.12 0c-0.58,0.03 -0.86,-0.23 -0.83,-0.76l0 -0.25 -1.27 0c-0.07,0.58 -0.58,1.01 -1.52,1.3zm-2.17 2.9l0 -0.47 6.22 0 0 -0.58 0.62 0 0 0.58 1.81 0 0 0.47 -1.81 0 0 0.72c0.02,0.65 -0.34,0.99 -1.09,1.01 -0.46,0 -0.93,0 -1.41,0 -0.02,-0.07 -0.05,-0.19 -0.07,-0.36 -0.03,-0.07 -0.04,-0.13 -0.04,-0.18 0.29,0.02 0.73,0.04 1.3,0.04 0.49,0.02 0.72,-0.17 0.69,-0.58l0 -0.65 -6.22 0zm1.41 -2.24l0 0.57 5.83 0 0 -0.57 -5.83 0zm1.67 3.54c-0.49,-0.34 -0.96,-0.64 -1.41,-0.9l0.36 -0.4c0.46,0.29 0.94,0.58 1.45,0.87l-0.4 0.43zm0.68 -6.73l0 0.76 1.2 0 0 -0.76 -1.2 0z"/>
  <path id="37" class="fil0" d="M150.17 167.51l-0.07 -0.51c2.17,0 4.58,-0.07 7.24,-0.21l0.1 0.5c-0.6,0.03 -1.71,0.06 -3.32,0.11l0 0.83 4.05 0 0 0.47 -4.05 0 0 0.8 3.07 0 0 3 -3.07 0 0 0.73 3.4 0 0 0.43 -3.4 0 0 0.65 4.05 0 0 0.51 -8.72 0 0 -0.51 4.09 0 0 -0.65 -3.41 0 0 -0.43 3.41 0 0 -0.73 -3.09 0 0 -3 3.09 0 0 -0.8 -4.02 0 0 -0.47 4.02 0 0 -0.79c-1.6,0.05 -2.72,0.07 -3.37,0.07zm6.44 2.43l-2.49 0 0 0.83 2.49 0 0 -0.83zm-2.49 1.27l0 0.82 2.49 0 0 -0.82 -2.49 0zm-3.09 0l0 0.82 2.51 0 0 -0.82 -2.51 0zm0 -1.27l0 0.83 2.51 0 0 -0.83 -2.51 0z"/>
  <path id="38" class="fil0" d="M163.24 175.01c0,-0.1 -0.03,-0.25 -0.07,-0.44 -0.03,-0.1 -0.04,-0.18 -0.04,-0.25 0.53,0.05 1.17,0.07 1.92,0.07 0.89,0.02 1.35,-0.3 1.37,-0.98 0.1,-1.16 0.16,-2.07 0.18,-2.75l-6 0 0.43 -4.12 0.61 0 -0.1 1.37 6.37 0 0 0.58 -6.45 0 -0.14 1.56 5.97 0c0,0.07 0,0.17 0,0.29 -0.1,1.49 -0.18,2.55 -0.25,3.18 -0.05,1.01 -0.67,1.51 -1.85,1.49 -0.75,0 -1.4,0 -1.95,0zm-4.02 -2.29l0 -0.58 6.44 0 0 0.58 -6.44 0z"/>
  <path id="39" class="fil0" d="M172.11 175.19l0 -3.08 5.04 0 0 3.08 -0.58 0 0 -0.55 -3.85 0 0 0.55 -0.61 0zm-2.02 -0.01l0 -5.21c-0.34,0.65 -0.63,1.15 -0.87,1.49 -0.08,-0.25 -0.16,-0.47 -0.26,-0.69 0.8,-1.18 1.44,-2.58 1.92,-4.2l0.58 0.15c-0.12,0.38 -0.33,0.94 -0.61,1.66 -0.08,0.17 -0.12,0.3 -0.15,0.4l0 6.4 -0.61 0zm2.63 -2.53l0 1.49 3.85 0 0 -1.49 -3.85 0zm-1.15 -4.38l0 -0.54 2.89 0c-0.05,-0.17 -0.13,-0.39 -0.25,-0.66 -0.07,-0.16 -0.13,-0.3 -0.18,-0.39l0.61 -0.15c0.05,0.1 0.12,0.26 0.22,0.47 0.12,0.27 0.21,0.47 0.25,0.62l-0.32 0.11 2.93 0 0 0.54 -6.15 0zm0.47 2.9l0 -0.51 5.17 0 0 0.51 -5.17 0zm0 -1.45l0 -0.5 5.17 0 0 0.5 -5.17 0z"/>
  <path id="40" class="fil0" d="M181.96 168.02c0,-0.19 -0.02,-0.38 -0.07,-0.58 1.93,-0.07 3.65,-0.2 5.17,-0.4l0.15 0.62c-0.27,0.02 -0.67,0.06 -1.2,0.11 -0.48,0.02 -0.84,0.05 -1.08,0.07l0 2.82 2.64 0 0 0.58 -2.64 0 0 2.9 2.49 0 0 0.54 -5.72 0 0 -0.54 2.61 0 0 -2.9 -2.75 0 0 -0.58 2.75 0 0 -2.78 -2.35 0.14zm-3 3.47c-0.03,-0.09 -0.08,-0.26 -0.15,-0.5 -0.02,-0.08 -0.05,-0.14 -0.07,-0.18 0.89,-1.24 1.59,-2.65 2.1,-4.24l0.61 0.18c-0.22,0.68 -0.48,1.33 -0.8,1.96l0 6.47 -0.61 0 0 -5.32c-0.24,0.49 -0.6,1.03 -1.08,1.63z"/>
  <path id="41" class="fil0" d="M188.92 175.08l0 -7.06 0.94 0c0.19,-0.55 0.32,-1.04 0.39,-1.45l0.66 0.11c-0.05,0.2 -0.16,0.53 -0.33,1.02 -0.05,0.14 -0.09,0.25 -0.11,0.32l1.78 0 0 6.99 -0.58 0 0 -0.73 -2.18 0 0 0.8 -0.57 0zm4.84 -0.07c-0.02,-0.22 -0.07,-0.43 -0.14,-0.62 0.46,0 0.95,0 1.48,0 0.73,0.05 1.09,-0.28 1.09,-0.98 0.05,-0.55 0.08,-1.78 0.11,-3.69 0.02,-0.55 0.03,-0.94 0.03,-1.16l-2.49 0c-0.24,0.58 -0.5,1.08 -0.76,1.49 -0.15,-0.12 -0.32,-0.22 -0.51,-0.29 0.56,-0.94 1.01,-2 1.38,-3.19l0.61 0.11c-0.05,0.15 -0.13,0.36 -0.25,0.65 -0.1,0.32 -0.18,0.55 -0.26,0.69l2.9 0c0,0.17 0,0.44 0,0.8 -0.05,2.07 -0.1,3.63 -0.15,4.67 -0.02,0.99 -0.54,1.49 -1.55,1.52 -0.48,0 -0.98,0 -1.49,0zm-4.27 -3.56l0 2.36 2.18 0 0 -2.36 -2.18 0zm0 -2.89l0 2.31 2.18 0 0 -2.31 -2.18 0zm5.25 3.87c-0.53,-0.77 -1,-1.42 -1.41,-1.95l0.47 -0.33c0.05,0.08 0.12,0.17 0.22,0.29 0.53,0.65 0.94,1.2 1.23,1.63l-0.51 0.36z"/>
  <path id="42" class="fil0" d="M198.55 169.9l0 -0.51 3.88 0 0 -0.54 0.58 0 0 0.54 3.87 0 0 0.51 -3.87 0 0 0.87 3.17 0 0 1.34c0.03,0.58 -0.26,0.86 -0.87,0.83 -0.12,0.03 -0.37,0.04 -0.76,0.04 0,-0.17 -0.03,-0.34 -0.1,-0.51 0.24,0 0.47,0 0.68,0 0.34,0.03 0.5,-0.12 0.47,-0.43l0 -0.76 -2.59 0 0 0.69c1.03,1.2 2.39,1.98 4.08,2.31 -0.02,0.03 -0.04,0.06 -0.07,0.11 -0.12,0.22 -0.2,0.38 -0.25,0.47 -1.69,-0.53 -2.94,-1.29 -3.76,-2.28l0 2.61 -0.58 0 0 -2.57c-0.87,1.01 -2.13,1.8 -3.77,2.35 -0.07,-0.14 -0.18,-0.34 -0.32,-0.58 1.69,-0.46 3.05,-1.28 4.09,-2.46l0 -0.65 -2.61 0 0 1.66 -0.58 0 0 -2.17 3.19 0 0 -0.87 -3.88 0zm0.18 -0.91c-0.05,-0.05 -0.13,-0.12 -0.25,-0.22 -0.1,-0.09 -0.16,-0.15 -0.18,-0.18 0.72,-0.55 1.32,-1.26 1.81,-2.13l0.57 0.07c-0.14,0.29 -0.3,0.56 -0.47,0.8l2.57 0 0 0.5 -2.89 0c-0.34,0.41 -0.73,0.8 -1.16,1.16zm4.41 -0.29c-0.21,-0.14 -0.38,-0.25 -0.5,-0.32 0.53,-0.49 0.96,-1.13 1.3,-1.92l0.58 0.11c-0.05,0.14 -0.14,0.33 -0.29,0.58 -0.02,0.09 -0.05,0.15 -0.07,0.18l2.82 0 0 0.5 -3.15 0c-0.19,0.29 -0.42,0.58 -0.69,0.87zm1.99 0.48c-0.09,-0.12 -0.26,-0.32 -0.5,-0.58 -0.12,-0.12 -0.21,-0.22 -0.25,-0.29l0.39 -0.29c0.27,0.26 0.53,0.53 0.8,0.8l-0.44 0.36zm-4.08 -0.04c-0.08,-0.07 -0.2,-0.19 -0.37,-0.36 -0.17,-0.19 -0.3,-0.34 -0.39,-0.44l0.43 -0.32 0.76 0.8 -0.43 0.32z"/>
  <path id="43" class="fil0" d="M208.51 174.54l0 -7.18 3.04 0 0 7.03 -0.51 0 0 -0.43 -1.99 0 0 0.58 -0.54 0zm3.51 -2.87l-0.29 -0.54c0.89,-0.34 1.63,-0.7 2.21,-1.09 -0.41,-0.38 -0.76,-0.86 -1.05,-1.44 -0.22,0.31 -0.45,0.65 -0.69,1.01 -0.05,-0.05 -0.11,-0.12 -0.18,-0.22 -0.1,-0.09 -0.17,-0.17 -0.22,-0.21 0.7,-0.9 1.22,-1.78 1.56,-2.65l0.54 0.15c-0.12,0.29 -0.25,0.55 -0.4,0.79l2.82 0 0 0.58c-0.5,0.92 -1.01,1.6 -1.52,2.03 0.56,0.39 1.25,0.7 2.07,0.94 -0.03,0.05 -0.06,0.13 -0.11,0.25 -0.07,0.13 -0.12,0.22 -0.15,0.3 -0.91,-0.32 -1.66,-0.7 -2.24,-1.16 -0.6,0.46 -1.39,0.88 -2.35,1.26zm0.54 3.51l0 -3.4 3.55 0 0 3.4 -0.54 0 0 -0.54 -2.46 0 0 0.54 -0.55 0zm0.55 -2.89l0 1.84 2.46 0 0 -1.84 -2.46 0zm2.6 -4.27l-2.46 0 -0.07 0.07c0.38,0.72 0.78,1.27 1.19,1.63 0.53,-0.48 0.98,-1.05 1.34,-1.7zm-6.66 2.89l0 2.54 0.76 0 0 -2.54 -0.76 0zm1.23 0l0 2.54 0.76 0 0 -2.54 -0.76 0zm-1.23 -3.04l0 2.53 0.76 0 0 -2.53 -0.76 0zm1.99 0l-0.76 0 0 2.53 0.76 0 0 -2.53z"/>
  <path id="44" class="fil0" d="M220.24 175.18c-0.12,-0.24 -0.24,-0.42 -0.36,-0.54 1.3,-0.34 2.3,-0.73 3,-1.16 -0.65,-0.58 -1.21,-1.39 -1.66,-2.42l-0.4 0 0 -0.55 4.96 0 0 0.62c-0.61,1.06 -1.23,1.86 -1.89,2.39 0.58,0.38 1.49,0.71 2.72,0.97 -0.07,0.08 -0.16,0.22 -0.26,0.44 -0.04,0.07 -0.08,0.12 -0.1,0.14 -1.18,-0.33 -2.14,-0.73 -2.86,-1.19 -0.85,0.51 -1.9,0.94 -3.15,1.3zm0.57 -5.07c-0.07,-0.09 -0.21,-0.25 -0.43,-0.47 0.94,-0.33 1.36,-0.95 1.27,-1.84l0 -0.83 3.62 0 0 1.66c-0.03,0.37 0.15,0.54 0.54,0.51l0.83 0 -0.07 0.58 -0.94 0c-0.65,0.03 -0.97,-0.26 -0.94,-0.87l0 -1.34 -2.46 0 0 0.32c0.09,1.07 -0.38,1.83 -1.42,2.28zm-1.66 4.39l-0.44 -0.36c0.15,-0.17 0.21,-0.38 0.19,-0.62l0 -3.44 -1.02 0 0 -0.54 1.6 0 0 3.77c0.38,-0.39 0.72,-0.76 1.01,-1.13 0,0.03 0.01,0.05 0.03,0.08 0.08,0.19 0.16,0.36 0.26,0.5 -0.36,0.36 -0.79,0.81 -1.27,1.34 -0.14,0.1 -0.26,0.23 -0.36,0.4zm2.68 -3.44c0.44,0.89 0.95,1.59 1.56,2.1 0.63,-0.51 1.2,-1.21 1.74,-2.1l-3.3 0zm-1.99 -2.46c-0.58,-0.68 -1.02,-1.17 -1.34,-1.49l0.51 -0.36c0.1,0.1 0.25,0.27 0.47,0.51 0.41,0.43 0.7,0.75 0.87,0.94l-0.51 0.4z"/>
  <path id="45" class="fil0" d="M230.56 170.18l0 -0.57 2.6 0 0 -3.08 0.62 0 0 3.08 2.64 0 0 0.57 -2.64 0 0 5 -0.62 0 0 -5 -2.6 0zm-1.52 4.86l-0.44 -0.5c0.2,-0.22 0.29,-0.46 0.29,-0.73l0 -3.65 -1.23 0 0 -0.58 1.85 0 0 4.34c0.58,-0.38 1.11,-0.76 1.59,-1.12 0.02,0.05 0.05,0.12 0.07,0.22 0.07,0.21 0.12,0.36 0.15,0.43 -0.08,0.05 -0.18,0.12 -0.33,0.22 -0.63,0.38 -1.13,0.71 -1.52,0.98 -0.1,0.04 -0.2,0.14 -0.32,0.28 -0.05,0.05 -0.09,0.09 -0.11,0.11zm0.8 -6.52c-0.49,-0.55 -0.97,-1.05 -1.45,-1.48l0.47 -0.36c0.36,0.29 0.86,0.76 1.48,1.41l-0.5 0.43z"/>
  <path id="46" class="fil0" d="M245.88 175.08c-0.75,-0.41 -1.38,-0.82 -1.89,-1.23 -0.38,0.38 -0.9,0.79 -1.55,1.23 -0.07,-0.15 -0.21,-0.32 -0.4,-0.51 0.72,-0.46 1.25,-0.84 1.59,-1.16 -0.53,-0.65 -0.93,-1.52 -1.19,-2.6l-0.47 0 0 4.38 -0.58 0 0 -8.15 4.2 0c0,0.17 -0.02,0.39 -0.04,0.65 0,0.29 -0.01,0.51 -0.04,0.65 -0.04,0.77 -0.48,1.15 -1.3,1.13 -0.34,0 -0.71,0 -1.12,0 0,-0.05 -0.01,-0.1 -0.04,-0.15 0,-0.14 -0.02,-0.27 -0.07,-0.36 0.34,0 0.7,0 1.09,0 0.6,0.02 0.89,-0.18 0.86,-0.62 0.05,-0.34 0.08,-0.59 0.08,-0.76l-3.04 0 0 2.72 3.69 0 0 0.54c-0.31,1.04 -0.74,1.9 -1.27,2.57 0.36,0.34 0.98,0.71 1.85,1.12 -0.05,0.08 -0.12,0.18 -0.22,0.33 -0.07,0.1 -0.12,0.17 -0.14,0.22zm-7.96 0.06c-0.15,-0.14 -0.3,-0.27 -0.47,-0.4 0.46,-0.57 0.66,-1.64 0.61,-3.18l0 -4.56 2.46 0 0 7.13c0.03,0.58 -0.25,0.87 -0.83,0.87 -0.14,0.02 -0.4,0.03 -0.76,0.03 0,-0.19 -0.02,-0.38 -0.07,-0.57 0.19,0.02 0.42,0.03 0.69,0.03 0.28,0 0.43,-0.13 0.43,-0.4l0 -2.02 -1.37 0c0,1.35 -0.23,2.37 -0.69,3.07zm7.19 -4.33l-2.13 0c0.31,1.01 0.65,1.73 1.01,2.17 0.41,-0.48 0.79,-1.21 1.12,-2.17zm-6.5 -1.02l0 1.77 1.37 0 0 -1.77 -1.37 0zm0 -2.28l0 1.77 1.37 0 0 -1.77 -1.37 0z"/>
  <path id="47" class="fil0" d="M247.47 171.16c-0.02,-0.02 -0.06,-0.08 -0.1,-0.18 -0.1,-0.17 -0.16,-0.29 -0.18,-0.36 1.54,-0.19 2.82,-0.49 3.83,-0.9 -0.63,-0.39 -1.19,-0.88 -1.7,-1.49 -0.6,0.56 -1.11,1 -1.52,1.34 -0.15,-0.19 -0.29,-0.35 -0.43,-0.47 1.08,-0.77 1.96,-1.64 2.64,-2.61l0.61 0.19c-0.14,0.21 -0.31,0.43 -0.5,0.65l4.7 0 0 0.58c-0.92,0.84 -1.74,1.46 -2.46,1.84 0.92,0.36 2.11,0.59 3.58,0.69 -0.02,0.05 -0.06,0.14 -0.11,0.29 -0.07,0.12 -0.12,0.22 -0.14,0.29 -1.71,-0.17 -3.05,-0.48 -4.02,-0.94 -0.96,0.43 -2.36,0.79 -4.2,1.08zm4.17 3.88c0,-0.05 -0.02,-0.12 -0.04,-0.22 -0.03,-0.22 -0.05,-0.36 -0.07,-0.43 0.29,0.02 0.76,0.03 1.41,0.03 0.72,0.05 1.1,-0.29 1.12,-1.01 0.05,-0.34 0.07,-0.72 0.07,-1.16l-3.15 0c-0.14,1.35 -1.24,2.35 -3.29,3.01 -0.05,-0.1 -0.14,-0.25 -0.29,-0.44 -0.05,-0.07 -0.08,-0.12 -0.11,-0.14 1.89,-0.49 2.91,-1.29 3.08,-2.43l-2.5 0 0 -0.54 2.61 0c0.02,-0.1 0.03,-0.25 0.03,-0.47 0.03,-0.19 0.04,-0.35 0.04,-0.47l0.62 0c0,0.12 -0.02,0.28 -0.04,0.47 0,0.22 -0.01,0.37 -0.04,0.47l3.69 0c0,0.12 -0.01,0.31 -0.03,0.58 -0.03,0.53 -0.05,0.91 -0.07,1.16 -0.03,1.08 -0.58,1.6 -1.67,1.55 -0.36,0.03 -0.82,0.04 -1.37,0.04zm2.38 -7.17l-4.3 0c0.63,0.7 1.28,1.22 1.95,1.56 0.77,-0.34 1.56,-0.86 2.35,-1.56z"/>
  <path id="48" class="fil0" d="M258.74 175.4l-0.29 -0.25c0.55,-0.41 0.82,-0.9 0.79,-1.45l-0.54 0 0 -1.05 0.98 0c0,0.15 0,0.45 0,0.91 0.02,0.79 -0.29,1.41 -0.94,1.84z"/>
  <path id="49" class="fil0" d="M267.14 167.94c-0.02,-0.09 -0.06,-0.24 -0.11,-0.43 -0.02,-0.08 -0.03,-0.12 -0.03,-0.15 0.96,-0.07 2.17,-0.21 3.62,-0.43l0.14 0.54c-0.26,0.05 -0.74,0.12 -1.41,0.22l0 1.52 2.39 0c-0.05,-1.14 -0.07,-2.04 -0.07,-2.72l0.61 0c0,0.7 0.03,1.61 0.07,2.72l3.19 0 0 0.58 -3.15 0c0.05,0.36 0.08,0.71 0.11,1.05 0.07,0.6 0.16,1.08 0.25,1.44 0.61,-0.53 1.16,-1.15 1.67,-1.88l0.54 0.36c-0.82,1.02 -1.5,1.74 -2.03,2.18 0.12,0.24 0.23,0.49 0.33,0.76 0.29,0.5 0.61,0.76 0.98,0.76 0.21,0 0.38,-0.15 0.5,-0.44 0.1,-0.48 0.17,-0.89 0.22,-1.23 0.22,0.1 0.41,0.18 0.58,0.25 -0.07,0.54 -0.17,0.96 -0.29,1.27 -0.17,0.56 -0.51,0.82 -1.01,0.8 -0.58,0 -1.1,-0.39 -1.56,-1.16 -0.02,-0.05 -0.05,-0.12 -0.07,-0.22 -0.1,-0.17 -0.16,-0.3 -0.18,-0.4 -0.51,0.44 -1.23,0.86 -2.17,1.27 -0.1,-0.14 -0.22,-0.3 -0.37,-0.47 0.9,-0.41 1.67,-0.88 2.32,-1.41 -0.1,-0.51 -0.21,-1.11 -0.33,-1.81 0,-0.12 -0.01,-0.31 -0.03,-0.58 -0.03,-0.24 -0.05,-0.42 -0.08,-0.54l-2.42 0 0 1.66 1.74 -0.32c0,0.14 0,0.33 0,0.58l-1.74 0.28 0 2.03c0.02,0.63 -0.29,0.95 -0.94,0.98 -0.19,0.02 -0.56,0.03 -1.09,0.03 -0.02,-0.07 -0.04,-0.19 -0.07,-0.36 -0.05,-0.12 -0.07,-0.2 -0.07,-0.25 0.26,0 0.59,0 0.98,0 0.38,0.02 0.56,-0.13 0.54,-0.47l0 -1.81 -1.81 0.33 -0.15 -0.58c0.34,-0.08 0.99,-0.18 1.96,-0.33l0 -1.77 -1.96 0 0 -0.58 1.96 0 0 -1.45c-0.77,0.1 -1.29,0.16 -1.56,0.18zm7.27 0.8c-0.58,-0.58 -1.07,-1.02 -1.48,-1.34l0.43 -0.39c0.51,0.4 1,0.84 1.49,1.3l-0.44 0.43z"/>
  <path id="50" class="fil0" d="M282.31 175.07c-0.02,-0.22 -0.06,-0.43 -0.11,-0.65 0.12,0 0.3,0 0.55,0 0.29,0.02 0.51,0.04 0.68,0.04 0.56,0.02 0.82,-0.23 0.8,-0.76l0 -5.83 -2.24 0 0 -0.58 2.89 0 0 6.55c0.03,0.8 -0.39,1.21 -1.23,1.23 -0.48,0 -0.93,0 -1.34,0zm-5.57 -3.5c-0.1,-0.37 -0.17,-0.63 -0.22,-0.8 0.85,-1.33 1.49,-2.7 1.92,-4.13l0.61 0.18c-0.24,0.68 -0.49,1.33 -0.76,1.96l0 6.4 -0.61 0 0 -5.21c-0.15,0.27 -0.37,0.65 -0.69,1.16 -0.12,0.19 -0.2,0.34 -0.25,0.44zm3 3.5l0 -6.4 0.61 0 0 6.4 -0.61 0zm1.16 -6.76c-0.29,-0.41 -0.64,-0.86 -1.05,-1.34l0.47 -0.33c0.07,0.1 0.19,0.25 0.36,0.44 0.36,0.41 0.6,0.7 0.72,0.87l-0.5 0.36z"/>
  <path id="51" class="fil0" d="M286.59 167.87l0 -0.58 8.32 0 0 0.58 -3.3 0c-0.33,0.55 -0.74,1.13 -1.23,1.74l0.62 0 0 5.57 -0.65 0 0 -5.5c-0.99,1.18 -2.2,2.24 -3.62,3.18 -0.02,-0.04 -0.1,-0.14 -0.22,-0.29 -0.09,-0.12 -0.17,-0.2 -0.21,-0.25 2.07,-1.33 3.59,-2.81 4.55,-4.45l-4.26 0zm7.99 4.75c-0.48,-0.37 -1.28,-0.92 -2.39,-1.67 -0.26,-0.19 -0.45,-0.33 -0.57,-0.4l0.36 -0.47c1.28,0.82 2.29,1.5 3.04,2.03l-0.44 0.51z"/>
  <path id="52" class="fil0" d="M297.24 171.6l0 -4.49 6.54 0 0 4.49 -6.54 0zm0.65 -3.91l0 3.29 5.24 0 0 -3.29 -5.24 0zm-1.27 7.49c-0.15,-0.17 -0.3,-0.32 -0.47,-0.47 1.11,-0.79 2.07,-1.66 2.89,-2.6l0.54 0.4c-0.79,0.84 -1.78,1.73 -2.96,2.67zm7.67 -0.03c-0.53,-0.51 -1.28,-1.16 -2.24,-1.96 -0.32,-0.29 -0.56,-0.5 -0.73,-0.65l0.43 -0.43c1.21,1.01 2.22,1.87 3.05,2.57l-0.51 0.47z"/>
  <path id="53" class="fil0" d="M306.54 175.22c-0.07,-0.08 -0.23,-0.26 -0.47,-0.55 2.17,-1.25 3.33,-2.99 3.47,-5.21l-3.33 0 0 -0.58 3.41 0c0.07,-0.74 0.1,-1.54 0.1,-2.38l0.65 0c0,0.62 -0.04,1.42 -0.14,2.38l3.84 0c0,1.21 -0.05,2.66 -0.15,4.35 -0.02,1.18 -0.59,1.76 -1.7,1.73 -0.55,0.03 -1.11,0.04 -1.66,0.04 -0.03,-0.27 -0.08,-0.51 -0.15,-0.72 0.1,0 0.31,0 0.65,0 0.46,0.02 0.79,0.03 0.98,0.03 0.82,0.07 1.23,-0.31 1.23,-1.16 0.07,-1.01 0.13,-2.24 0.18,-3.69l-3.29 0c-0.17,2.51 -1.38,4.43 -3.62,5.76zm5.36 -2.57c-0.46,-0.53 -0.93,-1.02 -1.42,-1.48l0.47 -0.36c0.66,0.6 1.14,1.07 1.45,1.41l-0.5 0.43zm-3.73 -4.27c-0.51,-0.55 -0.93,-0.99 -1.27,-1.3l0.44 -0.4c0.02,0.02 0.06,0.06 0.1,0.11 0.39,0.34 0.8,0.72 1.23,1.16l-0.5 0.43z"/>
  <path id="54" class="fil0" d="M315.74 169.9l0 -0.54 2.07 0 0 -1.67c-0.34,0.05 -0.84,0.09 -1.49,0.11 -0.14,0.02 -0.25,0.04 -0.32,0.04 -0.03,-0.1 -0.06,-0.23 -0.11,-0.4 -0.03,-0.07 -0.04,-0.12 -0.04,-0.15 1.62,-0.09 3.03,-0.23 4.23,-0.4l0.15 0.55c-0.36,0.05 -0.98,0.12 -1.85,0.22l0 1.7 2.03 0 0 0.54 -2.03 0 0 1.12 0.26 -0.25c0.48,0.38 1.1,0.9 1.84,1.55l-0.43 0.44c-0.77,-0.73 -1.33,-1.23 -1.67,-1.52l0 3.91 -0.57 0 0 -4.24c-0.44,1.01 -1.07,1.96 -1.89,2.82 -0.09,-0.24 -0.19,-0.48 -0.29,-0.72 0.92,-0.82 1.63,-1.86 2.14,-3.11l-2.03 0zm5.82 5.14c-0.02,-0.29 -0.07,-0.51 -0.14,-0.65 0.43,0 0.86,0 1.3,0 0.41,0.02 0.6,-0.15 0.58,-0.51l0 -7.27 0.58 0 0 7.34c0.02,0.68 -0.32,1.03 -1.02,1.05 -0.07,0 -0.26,0 -0.58,0 -0.38,0.03 -0.62,0.04 -0.72,0.04zm-0.54 -1.96l0 -5.5 0.62 0 0 5.5 -0.62 0z"/>
  <path id="55" class="fil0" d="M325.44 174.75l0 -0.54 1.23 0 0 -2.9 6.3 0 0 2.9 1.2 0 0 0.54 -8.73 0zm0.22 -5.75l0 -0.54 4.96 0c0.51,-0.65 0.97,-1.31 1.41,-1.96l0.61 0.33c-0.19,0.24 -0.47,0.58 -0.83,1.01 -0.22,0.29 -0.37,0.5 -0.47,0.62l2.68 0 0 0.54 -8.36 0zm6.7 2.85l-1.31 0 0 2.36 1.31 0 0 -2.36zm-3.22 0l0 2.36 1.33 0 0 -2.36 -1.33 0zm-1.85 0l0 2.36 1.3 0 0 -2.36 -1.3 0zm-1.38 -0.39c-0.02,-0.05 -0.06,-0.11 -0.11,-0.19 -0.07,-0.14 -0.14,-0.26 -0.21,-0.36 1.01,-0.46 2,-0.99 2.97,-1.59l0.39 0.47c-1.03,0.63 -2.05,1.18 -3.04,1.67zm7.86 -0.08c-1.04,-0.6 -2.04,-1.13 -3.01,-1.59l0.33 -0.47c1.04,0.51 2.04,1.01 3,1.52l-0.32 0.54zm-5.39 -3c-0.46,-0.55 -0.91,-1.07 -1.34,-1.56l0.5 -0.32c0.63,0.7 1.08,1.2 1.34,1.52l-0.5 0.36z"/>
  <path id="56" class="fil0" d="M336.96 175.4l-0.29 -0.25c0.55,-0.41 0.82,-0.9 0.79,-1.45l-0.54 0 0 -1.05 0.98 0c0,0.15 0,0.45 0,0.91 0.02,0.79 -0.29,1.41 -0.94,1.84z"/>
  <path id="57" class="fil0" d="M352.2 172.57l0 -0.43 -2.64 0c-0.12,0.68 -0.36,1.22 -0.72,1.63 0.98,0.34 2.61,0.53 4.88,0.58 -0.05,0.07 -0.11,0.19 -0.18,0.36 -0.05,0.12 -0.09,0.21 -0.11,0.25 -2.44,-0.12 -4.12,-0.4 -5.07,-0.83 -0.45,0.39 -1.44,0.75 -2.96,1.09 -0.1,-0.17 -0.2,-0.35 -0.32,-0.55 1.32,-0.26 2.23,-0.52 2.71,-0.76 -0.53,-0.31 -1.05,-0.72 -1.56,-1.23l0.44 -0.32c0.53,0.48 1.06,0.87 1.59,1.15 0.36,-0.36 0.59,-0.81 0.68,-1.37l-2.96 0 0 -3.68 3.14 0 0 -0.99 -3.83 0 0 -0.5 8.14 0 0 0.5 -3.73 0c0,0.29 0,0.62 0,0.99l3.08 0 0 4.11 -0.58 0zm-5.64 -3.61l0 1.08 2.53 0c0,-0.36 0,-0.72 0,-1.08l-2.53 0zm3.1 1.55c0,0.12 -0.01,0.3 -0.03,0.54 0,0.27 -0.01,0.45 -0.04,0.55l2.61 0 0 -1.09 -2.54 0zm-0.64 1.09c0.05,-0.29 0.07,-0.65 0.07,-1.09l-2.53 0 0 1.09 2.46 0zm3.18 -2.64l-2.5 0 -0.04 1.08 2.54 0 0 -1.08z"/>
  <path id="58" class="fil0" d="M357.92 167.69l0 -0.58 5.5 0 0 0.58 -2.31 0c-0.25,0.68 -0.51,1.31 -0.8,1.88l0.51 0 0 5.61 -0.62 0 0 -5.46c-0.63,1.18 -1.42,2.26 -2.39,3.22 -0.05,-0.05 -0.12,-0.11 -0.22,-0.18 -0.09,-0.1 -0.18,-0.18 -0.25,-0.25 1.42,-1.35 2.46,-2.96 3.11,-4.82l-2.53 0zm-1.77 7.49l0 -8.57 0.62 0 0 8.57 -0.62 0zm6.88 -2.42c-0.75,-1.06 -1.4,-1.95 -1.96,-2.68l0.47 -0.32c0.68,0.89 1.34,1.77 1.99,2.64l-0.5 0.36zm-7.82 -1.67c-0.29,-0.07 -0.47,-0.1 -0.54,-0.1 0,-0.05 0.01,-0.11 0.03,-0.18 0.27,-1.11 0.44,-1.86 0.51,-2.25l0.51 0.07c-0.1,0.58 -0.27,1.4 -0.51,2.46zm2.68 -1.04c-0.27,-0.46 -0.58,-0.92 -0.94,-1.38l0.43 -0.33c0.07,0.1 0.21,0.28 0.4,0.55 0.27,0.36 0.46,0.61 0.58,0.76l-0.47 0.4z"/>
  <path id="59" class="fil0" d="M369.07 174.64l0 -2.79 -1.07 0 0 3.33 -0.55 0 0 -3.83 1.88 0 0.26 -0.98 -2.32 0 0 -0.5 5.9 0 0 0.5 -3 0 -0.26 0.98 3.01 0 0 2.89c0.02,0.56 -0.25,0.85 -0.8,0.87 -0.27,0 -0.54,0 -0.8,0 0,-0.02 -0.01,-0.07 -0.04,-0.14 -0.02,-0.17 -0.06,-0.31 -0.11,-0.4 0.32,0 0.57,0 0.77,0 0.29,0 0.42,-0.12 0.4,-0.36l0 -2.36 -1.13 0 0 2.65 -0.54 0 0 -2.65 -1.05 0 0 2.79 -0.55 0zm-4.45 -5.79l0 -0.54 0.98 0 0 -1.77 0.58 0 0 1.77 0.87 0 0 0.54 -0.87 0 0 1.96c0.29,-0.08 0.57,-0.15 0.83,-0.22 0,0.17 0.01,0.36 0.04,0.58 -0.29,0.07 -0.58,0.14 -0.87,0.21l0 2.79c0.02,0.63 -0.24,0.94 -0.8,0.94 -0.19,0 -0.39,0 -0.61,0 -0.03,-0.17 -0.06,-0.36 -0.11,-0.58 0.14,0 0.33,0 0.54,0 0.29,0.03 0.42,-0.11 0.4,-0.39l0 -2.57 -0.98 0.32 -0.11 -0.61 1.09 -0.29 0 -2.14 -0.98 0zm3.01 0.11l0 -1.88 0.58 0 0 1.38 1.66 0 0 -1.92 0.58 0 0 1.92 1.7 0 0 -1.38 0.54 0 0 1.88 -5.06 0z"/>
  <path id="60" class="fil0" d="M374.69 167.98l0 -0.47 2.65 0c-0.27,-0.26 -0.54,-0.53 -0.8,-0.79l0.51 -0.22c0.31,0.24 0.62,0.52 0.94,0.83l-0.33 0.18 1.88 0c0.05,-0.05 0.11,-0.11 0.19,-0.18 0.24,-0.26 0.49,-0.54 0.76,-0.83l0.58 0.22 -0.77 0.79 2.5 0 0 0.47 -4.16 0c-0.03,0.07 -0.06,0.18 -0.11,0.33 -0.05,0.17 -0.08,0.29 -0.11,0.36l3.73 0 0 0.43 -3.91 0c-0.1,0.24 -0.22,0.47 -0.36,0.69l5.03 0 0 0.51 -5.29 0c-0.02,0.05 -0.06,0.11 -0.1,0.18 -0.08,0.1 -0.2,0.26 -0.37,0.5l4.86 0 0 4.21 -0.58 0 0 -0.51 -4.64 0 0 0.51 -0.58 0 0 -3.15c-0.43,0.43 -0.94,0.88 -1.52,1.34 -0.02,-0.08 -0.08,-0.16 -0.18,-0.26 -0.07,-0.12 -0.13,-0.2 -0.18,-0.25 1.13,-0.8 2,-1.66 2.61,-2.57l-2.46 0 0 -0.51 2.75 0c0.14,-0.22 0.26,-0.45 0.36,-0.69l-2.39 0 0 -0.43 2.57 0c0,-0.02 0.01,-0.07 0.04,-0.15 0.04,-0.14 0.12,-0.32 0.21,-0.54l-3.33 0zm2.1 3.44l0 0.69 4.64 0 0 -0.69 -4.64 0zm0 1.08l0 0.69 4.64 0 0 -0.69 -4.64 0zm0 1.12l0 0.63 4.64 0 0 -0.63 -4.64 0z"/>
  <path id="61" class="fil0" d="M386.25 174.89c-0.82,0.03 -1.22,-0.34 -1.19,-1.08l0 -4.13 3.61 0c0,0.6 -0.02,1.23 -0.07,1.88 -0.05,0.73 -0.46,1.1 -1.23,1.12 -0.31,0 -0.64,0 -0.98,0 -0.02,-0.17 -0.06,-0.36 -0.11,-0.57 0.34,0.02 0.67,0.03 0.98,0.03 0.48,0 0.74,-0.23 0.76,-0.69 0.03,-0.09 0.04,-0.3 0.04,-0.61 0.02,-0.29 0.03,-0.5 0.03,-0.62l-2.46 0 0 3.51c-0.02,0.44 0.22,0.64 0.73,0.62l1.3 0c0.51,0 0.81,-0.16 0.9,-0.47 0.08,-0.27 0.14,-0.6 0.19,-1.01 0.21,0.09 0.42,0.16 0.61,0.21 0,0.03 -0.01,0.06 -0.04,0.11 -0.07,0.46 -0.14,0.77 -0.21,0.94 -0.12,0.51 -0.57,0.76 -1.34,0.76l-1.52 0zm3.9 0.15c-0.02,-0.22 -0.07,-0.43 -0.14,-0.65 0.31,0.02 0.7,0.03 1.15,0.03 0.44,0 0.64,-0.18 0.62,-0.54l0 -7.31 0.58 0 0 7.42c0.02,0.65 -0.32,0.99 -1.01,1.01 -0.39,0.03 -0.79,0.04 -1.2,0.04zm-1.23 -5.61c-0.7,-0.75 -1.36,-1.41 -1.99,-1.99 -0.6,0.96 -1.44,1.86 -2.53,2.68 -0.02,-0.03 -0.05,-0.06 -0.07,-0.11 -0.1,-0.17 -0.18,-0.3 -0.26,-0.4 1.24,-0.89 2.14,-1.93 2.72,-3.11l0.65 0.11 -0.22 0.36c0.61,0.55 1.33,1.23 2.17,2.03l-0.47 0.43zm0.94 3.62l0 -5.54 0.58 0 0 5.54 -0.58 0z"/>
  <path id="62" class="fil0" d="M397.83 171.78l0 -4.84 4.13 0 0 4.84 -4.13 0zm-3.76 -3.33l0 -0.5 1.45 0 0 -1.38 0.58 0 0 1.38 1.3 0 0 0.5 -1.3 0 0 0.94 0.25 -0.21c0.36,0.29 0.71,0.59 1.05,0.9l-0.36 0.36c-0.07,-0.07 -0.17,-0.15 -0.29,-0.25 -0.27,-0.26 -0.48,-0.46 -0.65,-0.58l0 2.35 -0.58 0 0 -2.67c-0.29,0.77 -0.74,1.48 -1.34,2.13 -0.02,-0.07 -0.07,-0.17 -0.15,-0.29 -0.04,-0.12 -0.09,-0.2 -0.14,-0.25 0.63,-0.65 1.16,-1.46 1.59,-2.43l-1.41 0zm3.33 6.52c-0.82,-0.01 -1.23,-0.35 -1.23,-1.05l0 -1.49 0.62 0 0 1.38c-0.03,0.41 0.24,0.6 0.79,0.58l1.52 0c0.51,0.02 0.81,-0.17 0.91,-0.58 0.04,-0.22 0.08,-0.47 0.1,-0.76 0.1,0.05 0.24,0.09 0.4,0.14 0.1,0.03 0.17,0.05 0.22,0.08 -0.07,0.36 -0.14,0.65 -0.22,0.86 -0.16,0.58 -0.59,0.86 -1.26,0.84l-1.85 0zm1.01 -4.67l0 0.97 2.97 0 0 -0.97 -2.97 0zm0 -2.89l0 1.01 2.97 0 0 -1.01 -2.97 0zm0 1.48l0 0.94 2.97 0 0 -0.94 -2.97 0zm-3.91 5.72c-0.17,-0.1 -0.35,-0.19 -0.54,-0.26 0.31,-0.51 0.59,-1.13 0.83,-1.88l0.55 0.22c-0.25,0.65 -0.52,1.29 -0.84,1.92zm7.64 -0.29c-0.46,-0.63 -0.83,-1.15 -1.12,-1.56l0.47 -0.29c0.5,0.65 0.89,1.18 1.16,1.59l-0.51 0.26zm-3.44 -0.73c-0.34,-0.43 -0.69,-0.82 -1.05,-1.16l0.44 -0.36c0.36,0.36 0.72,0.74 1.08,1.12l-0.47 0.4z"/>
  <path id="63" class="fil0" d="M404.28 168.63l0 -0.58 3.44 0 0 -1.52 0.61 0 0 1.52 3.48 0 0 0.58 -3.48 0 0 1.67 3.98 0 0 0.58 -3.58 0c0.87,1.28 2.09,2.29 3.66,3.04 -0.15,0.17 -0.28,0.34 -0.4,0.51 -1.59,-0.82 -2.81,-1.94 -3.66,-3.37l0 4.13 -0.61 0 0 -4.13c-0.87,1.52 -2.09,2.69 -3.66,3.51 -0.05,-0.07 -0.14,-0.2 -0.29,-0.4 -0.02,-0.02 -0.04,-0.04 -0.07,-0.07 1.52,-0.82 2.73,-1.89 3.62,-3.22l-3.58 0 0 -0.58 3.98 0 0 -1.67 -3.44 0z"/>
  <path id="64" class="fil0" d="M414.06 168.31l0 -0.55 3.48 0 0 -1.23 0.58 0 0 1.23 3.51 0 0 0.55 -3.51 0 0 2.49 3.98 0 0 0.54 -3.69 0c0.94,1.11 2.2,1.97 3.8,2.57 -0.05,0.08 -0.11,0.16 -0.18,0.26 -0.1,0.12 -0.17,0.21 -0.22,0.29 -1.62,-0.65 -2.85,-1.56 -3.69,-2.72l0 3.48 -0.58 0 0 -3.48c-0.92,1.14 -2.16,2.09 -3.73,2.86 -0.05,-0.1 -0.14,-0.23 -0.29,-0.4 -0.05,-0.05 -0.08,-0.08 -0.11,-0.11 1.57,-0.72 2.84,-1.64 3.8,-2.75l-3.65 0 0 -0.54 3.98 0 0 -2.49 -3.48 0zm5.53 2.21l-0.43 -0.44c0.46,-0.43 0.87,-0.89 1.23,-1.37l0.47 0.36c-0.14,0.19 -0.4,0.48 -0.76,0.87 -0.21,0.24 -0.38,0.43 -0.51,0.58zm-3.69 -0.11c-0.36,-0.49 -0.72,-0.94 -1.08,-1.38l0.43 -0.32c0.24,0.24 0.58,0.62 1.02,1.15 -0.29,-0.33 -0.24,-0.27 0.14,0.19l-0.51 0.36z"/>
  <path id="65" class="fil0" d="M423.58 175.08l0 -7.06 0.94 0c0.2,-0.55 0.33,-1.04 0.4,-1.45l0.65 0.11c-0.04,0.2 -0.15,0.53 -0.32,1.02 -0.05,0.14 -0.09,0.25 -0.11,0.32l1.77 0 0 6.99 -0.58 0 0 -0.73 -2.17 0 0 0.8 -0.58 0zm4.85 -0.07c-0.02,-0.22 -0.07,-0.43 -0.14,-0.62 0.46,0 0.95,0 1.48,0 0.73,0.05 1.09,-0.28 1.09,-0.98 0.05,-0.55 0.08,-1.78 0.11,-3.69 0.02,-0.55 0.03,-0.94 0.03,-1.16l-2.49 0c-0.25,0.58 -0.5,1.08 -0.76,1.49 -0.15,-0.12 -0.32,-0.22 -0.51,-0.29 0.55,-0.94 1.01,-2 1.37,-3.19l0.62 0.11c-0.05,0.15 -0.13,0.36 -0.25,0.65 -0.1,0.32 -0.19,0.55 -0.26,0.69l2.9 0c0,0.17 0,0.44 0,0.8 -0.05,2.07 -0.1,3.63 -0.15,4.67 -0.02,0.99 -0.54,1.49 -1.55,1.52 -0.49,0 -0.98,0 -1.49,0zm-4.27 -3.56l0 2.36 2.17 0 0 -2.36 -2.17 0zm0 -2.89l0 2.31 2.17 0 0 -2.31 -2.17 0zm5.25 3.87c-0.53,-0.77 -1,-1.42 -1.41,-1.95l0.47 -0.33c0.05,0.08 0.12,0.17 0.22,0.29 0.53,0.65 0.94,1.2 1.23,1.63l-0.51 0.36z"/>
  <path id="66" class="fil0" d="M436.58 173.45c-0.36,-0.31 -0.85,-0.7 -1.48,-1.16 -0.32,0.29 -0.71,0.59 -1.2,0.91 -0.02,-0.03 -0.04,-0.05 -0.07,-0.08 -0.14,-0.21 -0.25,-0.35 -0.32,-0.39 1.15,-0.7 2.04,-1.5 2.64,-2.39l0.58 0.18c-0.15,0.22 -0.3,0.41 -0.47,0.58l4.12 0 0 0.54c-1.16,1.86 -3.4,3.06 -6.73,3.62 -0.07,-0.19 -0.17,-0.4 -0.29,-0.62 3.07,-0.38 5.16,-1.4 6.3,-3.04l-3.84 0c-0.12,0.1 -0.21,0.21 -0.29,0.33 0.1,0.05 0.22,0.13 0.36,0.25 0.49,0.36 0.88,0.65 1.2,0.87l-0.51 0.4zm1.02 -5.32l0 -0.47 1.37 0 0 -1.12 0.55 0 0 1.12 1.95 0 0 0.47 -1.88 0c0.53,0.77 1.25,1.35 2.17,1.74 -0.1,0.14 -0.21,0.31 -0.33,0.5 -0.84,-0.45 -1.48,-1 -1.91,-1.62l0 1.66 -0.55 0 0 -1.63c-0.31,0.58 -0.88,1.14 -1.7,1.67 -0.07,-0.17 -0.19,-0.33 -0.36,-0.47 0.89,-0.49 1.57,-1.1 2.03,-1.85l-1.34 0zm-4.27 0l0 -0.47 1.81 0 0 -1.12 0.5 0 0 1.12 1.42 0 0 0.47 -1.42 0 0 0.87 0.26 -0.33c0.14,0.08 0.36,0.18 0.65,0.33 0.29,0.17 0.51,0.29 0.65,0.36l-0.33 0.43c-0.21,-0.12 -0.57,-0.32 -1.08,-0.61 -0.07,-0.03 -0.12,-0.05 -0.15,-0.07l0 1.3 -0.5 0 0 -1.63c-0.44,0.7 -1.04,1.28 -1.81,1.74 -0.03,-0.02 -0.06,-0.07 -0.11,-0.15 -0.02,-0.07 -0.11,-0.18 -0.25,-0.32 0.96,-0.48 1.65,-1.12 2.06,-1.92l-1.7 0z"/>
  <path id="67" class="fil0" d="M446.72 171.78l0 -4.84 4.13 0 0 4.84 -4.13 0zm-3.76 -3.33l0 -0.5 1.45 0 0 -1.38 0.58 0 0 1.38 1.3 0 0 0.5 -1.3 0 0 0.94 0.25 -0.21c0.36,0.29 0.71,0.59 1.05,0.9l-0.36 0.36c-0.08,-0.07 -0.17,-0.15 -0.29,-0.25 -0.27,-0.26 -0.49,-0.46 -0.65,-0.58l0 2.35 -0.58 0 0 -2.67c-0.29,0.77 -0.74,1.48 -1.34,2.13 -0.03,-0.07 -0.08,-0.17 -0.15,-0.29 -0.05,-0.12 -0.09,-0.2 -0.14,-0.25 0.63,-0.65 1.16,-1.46 1.59,-2.43l-1.41 0zm3.33 6.52c-0.82,-0.01 -1.23,-0.35 -1.23,-1.05l0 -1.49 0.62 0 0 1.38c-0.03,0.41 0.24,0.6 0.79,0.58l1.52 0c0.51,0.02 0.81,-0.17 0.91,-0.58 0.04,-0.22 0.08,-0.47 0.1,-0.76 0.1,0.05 0.23,0.09 0.4,0.14 0.1,0.03 0.17,0.05 0.22,0.08 -0.07,0.36 -0.14,0.65 -0.22,0.86 -0.17,0.58 -0.59,0.86 -1.26,0.84l-1.85 0zm1.01 -4.67l0 0.97 2.97 0 0 -0.97 -2.97 0zm0 -2.89l0 1.01 2.97 0 0 -1.01 -2.97 0zm0 1.48l0 0.94 2.97 0 0 -0.94 -2.97 0zm-3.91 5.72c-0.17,-0.1 -0.35,-0.19 -0.54,-0.26 0.31,-0.51 0.59,-1.13 0.83,-1.88l0.55 0.22c-0.25,0.65 -0.52,1.29 -0.84,1.92zm7.64 -0.29c-0.46,-0.63 -0.83,-1.15 -1.12,-1.56l0.47 -0.29c0.5,0.65 0.89,1.18 1.15,1.59l-0.5 0.26zm-3.44 -0.73c-0.34,-0.43 -0.69,-0.82 -1.05,-1.16l0.44 -0.36c0.36,0.36 0.72,0.74 1.08,1.12l-0.47 0.4z"/>
  <path id="68" class="fil0" d="M454.98 174.64l-0.8 0 0 -0.83 0.8 0 0 0.83zm0.04 -7.27l-0.15 5.32 -0.54 0 -0.15 -5.32 0.84 0z"/>
  <path class="fil1" d="M235.76 3.57l0 -2.21 -1.04 0 0 2.73 1.04 -0.52zm1.41 0.79l-2.45 1.26 0 2.95 -1.41 0 0 -8.57 2.71 0c0.36,0 0.64,0.1 0.85,0.31 0.19,0.2 0.3,0.49 0.3,0.86l0 3.19z"/>
  <polygon id="1" class="fil1" points="453.86,7.18 455.26,7.18 455.26,8.57 453.86,8.57 "/>
  <path id="2" class="fil1" d="M244.8 1.17c0,-0.37 0.1,-0.66 0.3,-0.86 0.2,-0.21 0.48,-0.31 0.84,-0.31l1.56 0c0.36,0 0.65,0.1 0.85,0.31 0.2,0.2 0.3,0.49 0.3,0.86l0 6.23c0,0.37 -0.1,0.66 -0.3,0.87 -0.2,0.2 -0.48,0.3 -0.85,0.3l-1.56 0c-0.36,0 -0.64,-0.1 -0.84,-0.3 -0.2,-0.21 -0.3,-0.5 -0.3,-0.87l0 -6.23zm2.43 0.19l-1.02 0 0 5.85 1.02 0 0 -5.85z"/>
  <path id="3" class="fil1" d="M260.26 0l0 7.2 1.02 0 0 -7.2 1.42 0 0 7.37c0,0.41 -0.1,0.71 -0.3,0.91 -0.2,0.2 -0.51,0.29 -0.93,0.29l-1.1 0c-0.26,0 -0.45,-0.07 -0.59,-0.22 -0.14,-0.14 -0.21,-0.34 -0.21,-0.61 0,0.27 -0.08,0.47 -0.22,0.61 -0.14,0.15 -0.34,0.22 -0.6,0.22l-1.19 0c-0.36,0 -0.63,-0.1 -0.83,-0.3 -0.2,-0.21 -0.3,-0.5 -0.3,-0.87l0 -7.4 1.41 0 0 7.2 1.03 0 0 -7.2 1.39 0z"/>
  <polygon id="4" class="fil1" points="273.87,8.57 270.47,8.57 270.47,0 273.87,0 273.87,1.37 271.88,1.37 271.88,3.58 273.87,2.58 273.87,4.12 271.88,5.13 271.88,7.2 273.87,7.2 "/>
  <path id="5" class="fil1" d="M285.34 4.25l-1.04 0.53 1.6 3.79 -1.47 0 -1.33 -3.17 -0.21 0.11 0 3.06 -1.41 0 0 -8.57 2.71 0c0.36,0 0.64,0.1 0.84,0.31 0.21,0.2 0.31,0.49 0.31,0.86l0 3.08zm-1.41 -0.79l0 -2.1 -1.04 0 0 2.62 1.04 -0.52z"/>
  <polygon id="6" class="fil1" points="293.1,8.57 293.1,0 296.49,0 296.49,1.37 294.51,1.37 294.51,3.58 296.49,2.58 296.49,4.12 294.51,5.13 294.51,8.57 "/>
  <path id="7" class="fil1" d="M303.96 0l1.41 0 0 7.2 1.04 0 0 -7.2 1.4 0 0 7.4c0,0.37 -0.1,0.66 -0.3,0.87 -0.2,0.2 -0.48,0.3 -0.84,0.3l-1.58 0c-0.35,0 -0.63,-0.1 -0.83,-0.3 -0.2,-0.21 -0.3,-0.5 -0.3,-0.87l0 -7.4z"/>
  <polygon id="8" class="fil1" points="318.89,7.2 318.89,8.57 315.6,8.57 315.6,0 317.01,0 317.01,7.2 "/>
  <path id="9" class="fil1" d="M331.25 7.24l0 -2.76 -1.14 0.57 0 2.19 1.14 0zm1.36 -3.23l0 3.37c0,0.41 -0.1,0.7 -0.31,0.9 -0.21,0.2 -0.52,0.29 -0.95,0.29l-2.59 0 0 -8.57 2.7 0c0.36,0 0.65,0.1 0.85,0.31 0.2,0.2 0.3,0.49 0.3,0.86l0 1.8c0,0.29 -0.05,0.52 -0.15,0.69 -0.09,0.16 -0.25,0.28 -0.45,0.35l0.6 0zm-1.36 -0.96l0 -1.73 -1.14 0 0 2.29 1.14 -0.56z"/>
  <path id="10" class="fil1" d="M344.24 4.25l-1.04 0.53 1.6 3.79 -1.47 0 -1.33 -3.17 -0.21 0.11 0 3.06 -1.41 0 0 -8.57 2.71 0c0.36,0 0.64,0.1 0.84,0.31 0.21,0.2 0.31,0.49 0.31,0.86l0 3.08zm-1.41 -0.79l0 -2.1 -1.04 0 0 2.62 1.04 -0.52z"/>
  <path id="11" class="fil1" d="M354.44 3.43l0 -2.07 -1.04 0 0 2.58 1.04 -0.51zm1.41 5.14l-1.41 0 0 -3.63 -1.04 0.53 0 3.1 -1.4 0 0 -7.4c0,-0.37 0.1,-0.66 0.3,-0.86 0.2,-0.21 0.47,-0.31 0.83,-0.31l1.57 0c0.36,0 0.64,0.1 0.85,0.31 0.2,0.2 0.3,0.49 0.3,0.86l0 7.4z"/>
  <path id="12" class="fil1" d="M365.04 8.57l-1.39 0 0 -8.57 1.39 0 0.01 0.68c0.04,-0.23 0.12,-0.4 0.26,-0.51 0.14,-0.11 0.32,-0.17 0.55,-0.17l0.48 0c0.36,0 0.64,0.1 0.84,0.31 0.21,0.2 0.31,0.49 0.31,0.86l0 7.4 -1.41 0 0 -7.2 -1.04 0 0 7.2z"/>
  <path id="13" class="fil1" d="M377.98 0c0.36,0 0.64,0.1 0.84,0.31 0.21,0.2 0.31,0.49 0.31,0.86l0 6.23c0,0.37 -0.1,0.66 -0.3,0.87 -0.2,0.2 -0.49,0.3 -0.85,0.3l-2.71 0 0 -8.57 2.71 0zm-0.26 1.36l-1.04 0 0 5.85 1.04 0 0 -5.85z"/>
  <polygon id="14" class="fil1" points="390.29,8.57 388.77,0 390.19,0 391.1,5.47 392.01,0 393.42,0 391.92,8.57 "/>
  <polygon id="15" class="fil1" points="402.01,8.57 400.6,8.57 400.6,0 402.01,0 "/>
  <path id="16" class="fil1" d="M409.79 1.17c0,-0.37 0.09,-0.66 0.29,-0.86 0.2,-0.21 0.48,-0.31 0.84,-0.31l1.57 0c0.36,0 0.64,0.1 0.84,0.31 0.21,0.2 0.31,0.49 0.31,0.86l0 0.21 -1.42 0.74 0 -0.76 -1.03 0 0 2.16 2.45 -1.26 0 5.14c0,0.37 -0.1,0.66 -0.3,0.87 -0.2,0.2 -0.49,0.3 -0.85,0.3l-1.57 0c-0.36,0 -0.64,-0.1 -0.84,-0.31 -0.2,-0.2 -0.29,-0.49 -0.29,-0.87l0 -0.8 1.4 -0.73 0 1.35 1.03 0 0 -2.69 -2.43 1.27 0 -4.62z"/>
  <polygon id="17" class="fil1" points="422.82,8.57 421.41,8.57 421.41,0 422.82,0 "/>
  <path id="18" class="fil1" d="M430.6 1.17c0,-0.37 0.09,-0.66 0.29,-0.86 0.2,-0.21 0.48,-0.31 0.84,-0.31l1.57 0c0.36,0 0.64,0.1 0.84,0.31 0.21,0.2 0.31,0.49 0.31,0.86l0 6.23c0,0.37 -0.1,0.66 -0.3,0.87 -0.2,0.2 -0.49,0.3 -0.85,0.3l-1.57 0c-0.36,0 -0.64,-0.1 -0.84,-0.3 -0.2,-0.21 -0.29,-0.5 -0.29,-0.87l0 -6.23zm2.43 0.19l-1.03 0 0 5.85 1.03 0 0 -5.85z"/>
  <path id="19" class="fil1" d="M443.63 8.57l-1.4 0 0 -8.57 1.4 0 0.01 0.68c0.03,-0.23 0.12,-0.4 0.26,-0.51 0.13,-0.11 0.32,-0.17 0.55,-0.17l0.48 0c0.36,0 0.64,0.1 0.84,0.31 0.21,0.2 0.31,0.49 0.31,0.86l0 7.4 -1.41 0 0 -7.2 -1.04 0 0 7.2z"/>
  <path class="fil2" d="M225.39 43.02l0 -15.21 -7.6 0 0 18.92 7.6 -3.71zm10.32 37.65l-10.32 0 0 -26.61 -7.6 3.89 0 22.72 -10.32 0 0 -54.24c0,-2.7 0.72,-4.82 2.19,-6.32 1.46,-1.5 3.5,-2.25 6.12,-2.25l11.53 0c2.62,0 4.67,0.75 6.17,2.25 1.49,1.5 2.23,3.62 2.23,6.32l0 54.24zm24.34 -9.77l0 -20.2 -8.33 4.15 0 16.05 8.33 0zm9.96 -23.64l0 24.71c0,2.94 -0.76,5.13 -2.28,6.56 -1.51,1.43 -3.83,2.14 -6.95,2.14l-19.01 0 0 -62.81 19.84 0c2.65,0 4.72,0.75 6.2,2.25 1.46,1.5 2.2,3.62 2.2,6.32l0 13.23c0,2.11 -0.35,3.78 -1.06,4.99 -0.71,1.2 -1.84,2.06 -3.36,2.61l4.42 0zm-9.96 -7.03l0 -12.69 -8.33 0 0 16.75 8.33 -4.06zm15.84 -13.8c0,-2.7 0.72,-4.82 2.18,-6.32 1.47,-1.5 3.5,-2.25 6.13,-2.25l11.48 0c2.65,0 4.72,0.75 6.21,2.25 1.5,1.5 2.23,3.62 2.23,6.32l0 45.63c0,2.73 -0.73,4.85 -2.2,6.36 -1.48,1.5 -3.56,2.25 -6.24,2.25l-11.48 0c-2.63,0 -4.66,-0.75 -6.13,-2.25 -1.46,-1.51 -2.18,-3.63 -2.18,-6.36l0 -45.63zm17.83 1.38l-7.52 0 0 42.9 7.52 0 0 -42.9zm16.37 -9.95l10.32 0 0 52.76 7.61 0 0 -52.76 10.31 0 0 54.2c0,2.73 -0.74,4.85 -2.2,6.36 -1.48,1.5 -3.54,2.25 -6.2,2.25l-11.52 0c-2.63,0 -4.67,-0.75 -6.13,-2.25 -1.46,-1.51 -2.19,-3.63 -2.19,-6.36l0 -54.2zm41.27 62.81l0 -52.77 -10.15 0 0 -10.04 30.62 0 0 10.04 -10.15 0 0 52.77 -10.32 0zm41.45 -62.81l10.32 0 0 52.76 7.6 0 0 -52.76 10.32 0 0 54.2c0,2.73 -0.74,4.85 -2.2,6.36 -1.48,1.5 -3.55,2.25 -6.2,2.25l-11.53 0c-2.62,0 -4.66,-0.75 -6.12,-2.25 -1.47,-1.51 -2.19,-3.63 -2.19,-6.36l0 -54.2zm34.21 8.57c0,-2.7 0.72,-4.82 2.19,-6.32 1.46,-1.5 3.5,-2.25 6.12,-2.25l11.48 0c2.65,0 4.72,0.75 6.21,2.26 1.5,1.49 2.24,3.61 2.24,6.32l0 1.55 -10.41 5.44 0 -5.62 -7.51 0 0 15.83 17.92 -9.25 0 37.67c0,2.73 -0.74,4.85 -2.21,6.36 -1.47,1.5 -3.56,2.25 -6.24,2.25l-11.48 0c-2.62,0 -4.66,-0.75 -6.12,-2.26 -1.47,-1.5 -2.19,-3.62 -2.19,-6.37l0 -5.88 10.32 -5.34 0 9.89 7.51 0 0 -19.74 -17.83 9.32 0 -33.86z"/>
  <path class="fil0" d="M7.96 103.17c2.2,1.25 4.55,2.89 7.07,4.92l-2.98 2.16 4.5 0c1.87,-2.52 3.42,-5.09 4.65,-7.7l5.96 2.5c-1.89,1.96 -3.88,3.69 -5.96,5.2l4.47 0 1.9 -1.84 3.43 3.01 -1.62 1.53 -10.92 0 0 5.33 8.11 0 2.18 -2.35 3.92 3.46 -1.87 1.56 -12.31 0c1.28,1.55 2.89,2.96 4.85,4.23 1.88,1.34 4.96,2.59 9.26,3.75l-3.99 5.82c-5.45,-2.2 -9.35,-5.58 -11.71,-10.16 -2.36,4.46 -7.31,7.91 -14.87,10.36l-1.56 -2.18c6.73,-3.12 10.68,-7.06 11.86,-11.82l-11.13 0 -0.76 -2.67 12.3 0c0.02,-0.27 0.03,-0.52 0.03,-0.72l0 -4.61 -9.94 0 -0.72 -2.7 7.06 0c-1.2,-1.97 -2.43,-3.7 -3.71,-5.2l2.5 -1.88z"/>
  <path id="1" class="fil0" d="M65.51 104.73l2.04 -1.86 3.4 3.04 -1.6 1.6 -10.29 0 0 8.17 7.45 0 2.22 -1.97 3.57 3.22 -1.67 1.67 -11.57 0 0 11.19c0,3.54 -1.43,5.3 -4.3,5.3l-3.92 0c0,-2.89 -1.56,-4.38 -4.68,-4.5l0.15 -2.39c1.86,0.13 3.68,0.32 5.43,0.55 0.65,0 0.98,-0.6 0.98,-1.8l0 -8.35 -12.76 0 -0.73 -2.92 13.49 0 0 -8.17 -11.06 0 -0.73 -2.78 24.58 0z"/>
  <path id="2" class="fil0" d="M105.96 111.22l2.08 -2.09 3.36 3.09 -1.35 1.39 -8.25 0c0.14,2.07 0.48,4.08 1.01,6.02 1.13,-1.79 2,-3.6 2.6,-5.4l5.23 2.22c-1.38,3.17 -3.32,6.05 -5.79,8.66 0.88,1.94 1.55,2.91 2.01,2.91 0.33,0 0.81,-1.47 1.46,-4.4l2.39 0.87c-0.42,1.2 -0.63,2.28 -0.63,3.26 0,1.66 0.41,2.93 1.22,3.81 -0.44,1.2 -0.98,2.09 -1.63,2.67 -0.48,0.67 -1.28,1 -2.39,1 -2.15,0 -4.36,-2.09 -6.62,-6.27 -2.31,1.85 -4.91,3.54 -7.8,5.09l-2.01 -2.04c3.16,-2.4 5.83,-4.81 7.97,-7.21 -1.2,-3.35 -1.95,-7.08 -2.25,-11.19l-6.45 0 0 3.98c1.88,-0.58 3.49,-1.17 4.86,-1.77l1.24 2.6c-1.52,1.23 -3.55,2.49 -6.1,3.78l0 8.49c0,2.98 -1.15,4.47 -3.46,4.47l-3.23 0c0,-2.19 -1.4,-3.34 -4.23,-3.43l0.15 -2.25c1.5,0.07 2.98,0.16 4.43,0.27 0.53,0 0.8,-0.59 0.8,-1.79l0 -3.16c-1.48,0.67 -3.09,1.33 -4.82,1.97l-1.87 -5.85c1.87,-0.42 4.1,-1 6.69,-1.74l0 -5.57 -6.17 0 -0.59 -2.39 6.76 0 0 -2.78c-1.78,0.21 -3.63,0.37 -5.55,0.49l-0.73 -2.6c5.51,-0.9 9.91,-2.24 13.21,-4.02l4.26 3.71c-1.73,0.62 -3.61,1.13 -5.65,1.52l0 3.68 6.31 0 0 -8.85 5.27 0.63 0 8.22 4.26 0zm-1.62 -8.74c2.17,1.18 3.89,2.36 5.16,3.54l-3.4 3.5c-1.18,-2.13 -2.43,-3.86 -3.74,-5.2l1.98 -1.84z"/>
  <path id="3" class="fil0" d="M120.36 118.63c-0.58,0.65 -1.13,1.18 -1.63,1.59l-2.19 -2.01c2.8,-4.71 4.71,-10.05 5.72,-16.01l6 1.01c-0.74,2.63 -1.64,5.05 -2.7,7.24l0 23.98 -5.2 0.56 0 -16.36zm8.21 -9.35l4.71 0.51 0 24.51 -4.71 0.62 0 -25.64zm15.15 -4.51l2.14 -1.53 3.78 2.91 -1.14 1.18 0 24.51c0,2.31 -1.11,3.46 -3.33,3.46l-2.94 0c0,-2.19 -0.99,-3.29 -2.95,-3.29l0.14 -2.32c1.29,0.48 2.49,0.73 3.6,0.73 0.47,0 0.7,-0.27 0.7,-0.8l0 -22.29 -5.58 0 -0.59 -2.56 6.17 0zm-12.41 -1.7c2.4,0.9 4.33,1.92 5.79,3.05l-3.23 3.67c-1.29,-1.61 -2.78,-3.07 -4.47,-4.36l1.91 -2.36z"/>
  <polygon id="4" class="fil0" points="222.35,120.57 186.86,120.57 186.86,117.07 222.35,117.07 "/>
  <path id="5" class="fil0" d="M235.39 112.6l0 -5.65 -7.65 0 -0.66 -2.56 8.35 0 2.18 -1.8 3.95 3.04 -1.21 1.25 0 9.12 -4.96 0.66 0 -1.46 -2.07 0 -0.66 5.02 2.11 0 2.39 -2.56 4.23 3.5 -1.49 1.35c0,8.67 -1.78,13 -5.33,13l-2.57 0c-0.05,-1.64 -1.12,-2.68 -3.22,-3.12l0.17 -2.22c1.29,0.31 2.82,0.45 4.58,0.45 0.71,0 1.11,-0.76 1.17,-2.29l0.14 -5.54 -2.56 0 0 0.07 -4.78 0c0.55,-4.32 1.04,-8.02 1.49,-11.09l4.68 0.76 0 0.07 1.72 0zm6.87 -9.77l4.3 0.52 0 0.59 7.21 0 1.83 -1.53 3.74 3.33 -1.49 1.59 0 5.62 -4.22 0.38 0 -1.01 -1.25 0 0 3.4 2.28 0 1.84 -1.59 3.57 3.18 -1.35 1.57 0 8.07 -4.51 0.41 0 -1.17 -1.83 0 0 3.88c0.81,-0.07 1.57,-0.15 2.28,-0.25 -0.16,-0.48 -0.33,-0.97 -0.52,-1.45l2.81 -1.08c1.23,1.78 2.26,3.84 3.09,6.17l-4.13 1.53c-0.09,-0.67 -0.2,-1.31 -0.34,-1.91 -4.64,1 -9.41,1.78 -14.28,2.36l-1.08 -4.75c2.71,-0.04 5.29,-0.14 7.74,-0.27l0 -4.23 -1.77 0 0 1.04 -4.65 0.55 0 -13.13 4.65 0.55 0 0.52 1.77 0 0 -3.4 -1.39 0 0 0.63 -4.3 0.51 0 -10.63zm3.92 20.75l1.77 0 0 -5.19 -1.77 0 0 5.19zm6.2 0l1.83 0 0 -5.19 -1.83 0 0 5.19zm-5.82 -13.79l7.07 0 0 -3.22 -7.07 0 0 3.22z"/>
  <path id="6" class="fil0" d="M277.17 105.91l1.6 -1.35 2.11 1.91 -0.07 -0.39 2.74 0 0 -3.71 4.78 0.46 0 3.25 1.25 0 2.57 -2.22 4.29 3.54 -1.25 1.21c0,5.53 0.23,8.29 0.69,8.29 0.38,0 0.84,-1.04 1.39,-3.12l1.56 0.35c-0.67,1.2 -1,2.2 -1,3.01 0,0.88 0.11,1.56 0.34,2.04 -0.78,1.81 -1.81,2.71 -3.08,2.71 -1.96,0 -3.21,-1.28 -3.74,-3.85 -0.33,-1.15 -0.51,-4.26 -0.56,-9.32l-2.46 0 0 1.49c0,1.04 -0.15,2.05 -0.45,3.05 1.04,0.44 2.05,0.9 3.02,1.39l-2.85 4.26c-0.71,-0.65 -1.45,-1.26 -2.21,-1.84 -1.06,1.36 -2.45,2.66 -4.16,3.88l2.14 0.32 0 2.21 5.69 0 2.49 -2.25 5.24 3.92 -1.84 1.42c0,3.83 -0.46,6.14 -1.39,6.93 -0.57,1.11 -2.01,1.66 -4.29,1.66l-2.25 0c0,-2.31 -1.16,-3.46 -3.47,-3.46l0.38 -2.25c1.09,0.34 2.63,0.52 4.64,0.52 0.56,0 0.84,-0.55 0.84,-1.64l0.1 -2.28 -6.48 0c-1.39,4.32 -6.54,7.34 -15.45,9.04l-1.29 -2.53c5.87,-1.59 9.3,-3.76 10.29,-6.51l-9.18 0 -0.62 -2.57 10.12 0 0 -3.08 2.42 0.31 -1.11 -0.86c1.6,-1.67 2.8,-3.43 3.61,-5.31 -0.76,-0.46 -1.54,-0.9 -2.33,-1.31l1.22 -2.05c0.76,0.16 1.43,0.31 2.01,0.45 0.23,-0.97 0.36,-1.94 0.38,-2.91l-2.12 0 -0.27 -1.21 -0.94 0.97 -3.78 0 0 1.7c1.25,-0.21 2.36,-0.44 3.33,-0.7l0.66 2.39c-1.25,0.67 -2.57,1.29 -3.99,1.84l0 5.13c0,2.28 -0.99,3.43 -2.98,3.43l-2.39 0c0,-1.87 -1.06,-2.83 -3.19,-2.88l0.11 -1.97c1.22,0.11 2.16,0.17 2.8,0.17 0.28,0 0.42,-0.3 0.42,-0.9l0 -1.28c-1.11,0.3 -2.25,0.57 -3.43,0.83l-1.42 -4.82c1.78,-0.14 3.39,-0.29 4.85,-0.45l0 -2.49 -3.74 0 -0.73 -2.57 4.47 0 0 -3.5 5.23 0.73 0 2.77 0.73 0z"/>
  <path id="7" class="fil0" d="M323.42 102.65l5.75 1.01c-0.46,1.87 -1.07,3.63 -1.84,5.27l4.16 0 2.25 -2.39 4.3 3.56 -0.93 1.15 0 9.6c0,7.32 -0.59,11.49 -1.77,12.51 -0.74,1.06 -2.18,1.59 -4.33,1.59l-2.56 0c0,-1.87 -1.5,-3.03 -4.48,-3.49l0.28 -2.29 5.27 0.24c0.88,0 1.39,-0.18 1.52,-0.56 0.51,-1.66 0.76,-3.64 0.76,-5.96l0 -11.33 -5.78 0c-1.32,2.34 -2.93,4.45 -4.82,6.34l-0.9 -0.69 0 16.71 -5.06 0.48 0 -2.08 -4.13 0 0 2.01 -4.85 0.66 0 -28.11 4.26 0.45c0.49,-1.66 0.79,-3.21 0.91,-4.64l5.48 1.17c-1.02,1.79 -2.11,3.3 -3.26,4.55l1.73 0 1.66 -1.91 4.54 3.29 -1.28 1.43 0 2.59c1.66,-3.49 2.7,-7.21 3.12,-11.16zm-12.31 27.35l4.13 0 0 -9.5 -4.13 0 0 9.5zm0 -11.75l4.13 0 0 -7.45 -4.13 0 0 7.45zm14.08 -1.87c2.1,1.87 3.86,3.86 5.3,5.96l-4.61 3.22c-0.9,-2.84 -1.98,-5.35 -3.23,-7.52l2.54 -1.66z"/>
  <path id="8" class="fil0" d="M349.39 102.55l6.1 0.69 0 0.94 11.12 0 2.57 -2.26 4.89 3.78 -1.49 1.6 0 8.6 -6.07 0.76 0 -1.81 -11.02 0 0 1.22 -6.1 0.8 0 -14.32zm6.1 9.53l11.02 0 0 -5.13 -11.02 0 0 5.13zm5.75 5.09l5.55 0.63 0 1.53 3.22 0 2.64 -2.26 5.02 3.88 -1.74 1.66 0 12.28 -5.64 0.65 0 -2.46 -3.5 0 0 1.67 -5.55 0.69 0 -18.27zm5.55 13.28l3.5 0 0 -8.35 -3.5 0 0 8.35zm-21.73 -13.28l5.3 0.59 0 1.57 2.88 0 2.63 -2.26 4.99 3.88 -1.8 1.66 0 11.89 -5.51 0.66 0 -2.04 -3.19 0 0 1.66 -5.3 0.66 0 -18.27zm5.3 13.17l3.19 0 0 -8.24 -3.19 0 0 8.24z"/>
  <path id="9" class="fil0" d="M384.44 103.49l4.58 0.45 0 8.83 1.59 0 0 -10.4 4.33 0.56 0 9.43 1.22 -1.04 0.83 0.72 0 -7.86 4.47 0.52 0 1.63 0.07 0c0.9,-1.34 1.68,-2.75 2.35,-4.23l5.96 1.18c-1.31,1.15 -2.6,2.17 -3.88,3.05l3.85 0 2.32 -1.97 4.44 3.46 -1.49 1.39 0 11.74 -4.57 0.59 0 -1.73 -3.47 0c-0.17,0.32 -0.33,0.62 -0.48,0.9l3.15 0.41 0 4.06 1.31 0 1.98 -2.04 3.46 3.12 -1.66 1.42 -5.09 0 0 7.14 -5.27 0.65 0 -7.79 -8.04 0 -0.69 -2.5 2.14 0 -1 -1.56c2.19,-0.78 3.83,-1.74 4.92,-2.87 0.33,-0.33 0.59,-0.64 0.8,-0.94l-1.11 0 0 0.97 -4.47 0.59 0 -0.03 -1.56 1.14 0 12.71 -4.44 0.53 0 -13.52 -2.01 0c-0.12,5.48 -1.32,9.97 -3.6,13.48l-2.15 -0.9c0.81,-2.89 1.21,-6.82 1.21,-11.82l0 -19.47zm17.02 13.86l2.21 0c0.15,-0.63 0.21,-1.26 0.21,-1.9l0 -1.29 -2.42 0 0 3.19zm6.51 -3.19l0 1.59c-0.04,0.61 -0.1,1.14 -0.17,1.6l2.71 0 0 -3.19 -2.54 0zm-6.51 -2.46l2.42 0 0 -2.91 -2.42 0 0 2.91zm6.51 -2.91l0 2.91 2.54 0 0 -2.91 -2.54 0zm-10.98 11.99l0 -5.51 -7.97 0 0 4.4 1.62 0 2.29 -2.01 4.06 3.12zm7.45 2.29c-1.13,0.92 -2.59,1.63 -4.37,2.11l4.37 0 0 -2.11z"/>
  <path id="10" class="fil0" d="M436.72 102.97l5.13 0.62 0 1.07 6.3 0 2.29 -1.77 4.4 3.44 -1.32 1.39 0 15.59 -5.02 0.59 0 -16.6 -6.65 0 0 15.77c0.6,-1.8 0.9,-3.7 0.9,-5.68l0 -7.77 4.78 0.73c0,5.01 -0.1,8.02 -0.31,9.01 -0.21,1.64 -0.53,3.14 -0.97,4.5l2.74 0.42 0 5.62c0,0.39 0.19,0.58 0.58,0.58l1.12 0c0.39,0 0.6,-0.21 0.65,-0.62l0.56 -3.84 2.01 0.3c-0.05,0.54 -0.07,0.97 -0.07,1.32 0,2.08 0.47,3.47 1.42,4.16 -0.58,1.78 -1.66,2.67 -3.26,2.67l-4.43 0c-2.04,0 -3.13,-1.04 -3.26,-3.12l0 -3.43c-0.33,0.51 -0.65,0.96 -0.97,1.35 -2.36,3.14 -5.31,5.04 -8.84,5.68l-1.18 -2.39c4.02,-2.17 6.75,-5.01 8.18,-8.52l-4.78 0.62 0 -16.36 -0.83 0.73c-0.31,4.48 -1.36,8.71 -3.19,12.69 1.41,2.21 2.51,4.19 3.29,5.92l-4.58 4.16c-0.53,-1.59 -1.09,-3.16 -1.69,-4.71 -1.48,2.21 -3.2,4.34 -5.17,6.37l-2.25 -1.62c2.24,-3.15 4.01,-6.39 5.31,-9.74 -1.25,-2.8 -2.65,-5.63 -4.2,-8.49l2.29 -1.77c1.29,1.71 2.49,3.33 3.6,4.85 0.58,-2.47 0.93,-4.98 1.04,-7.52l-7 0 -0.73 -2.6 7.97 0 1.98 -2.18 4.16 2.63 0 -4.05z"/>
  <polygon id="11" class="fil0" points="186.86,120.57 151.38,120.57 151.38,117.07 186.86,117.07 "/>
  <path id="12" class="fil3 str0" d="M7.96 103.17c2.2,1.25 4.55,2.89 7.07,4.92l-2.98 2.16 4.5 0c1.87,-2.52 3.42,-5.09 4.65,-7.7l5.96 2.5c-1.89,1.96 -3.88,3.69 -5.96,5.2l4.47 0 1.9 -1.84 3.43 3.01 -1.62 1.53 -10.92 0 0 5.33 8.11 0 2.18 -2.35 3.92 3.46 -1.87 1.56 -12.31 0c1.28,1.55 2.89,2.96 4.85,4.23 1.88,1.34 4.96,2.59 9.26,3.75l-3.99 5.82c-5.45,-2.2 -9.35,-5.58 -11.71,-10.16 -2.36,4.46 -7.31,7.91 -14.87,10.36l-1.56 -2.18c6.73,-3.12 10.68,-7.06 11.86,-11.82l-11.13 0 -0.76 -2.67 12.3 0c0.02,-0.27 0.03,-0.52 0.03,-0.72l0 -4.61 -9.94 0 -0.72 -2.7 7.06 0c-1.2,-1.97 -2.43,-3.7 -3.71,-5.2l2.5 -1.88z"/>
  <path id="13" class="fil3 str0" d="M65.51 104.73l2.04 -1.86 3.4 3.04 -1.6 1.6 -10.29 0 0 8.17 7.45 0 2.22 -1.97 3.57 3.22 -1.67 1.67 -11.57 0 0 11.19c0,3.54 -1.43,5.3 -4.3,5.3l-3.92 0c0,-2.89 -1.56,-4.38 -4.68,-4.5l0.15 -2.39c1.86,0.13 3.68,0.32 5.43,0.55 0.65,0 0.98,-0.6 0.98,-1.8l0 -8.35 -12.76 0 -0.73 -2.92 13.49 0 0 -8.17 -11.06 0 -0.73 -2.78 24.58 0z"/>
  <path id="14" class="fil3 str0" d="M105.96 111.22l2.08 -2.09 3.36 3.09 -1.35 1.39 -8.25 0c0.14,2.07 0.48,4.08 1.01,6.02 1.13,-1.79 2,-3.6 2.6,-5.4l5.23 2.22c-1.38,3.17 -3.32,6.05 -5.79,8.66 0.88,1.94 1.55,2.91 2.01,2.91 0.33,0 0.81,-1.47 1.46,-4.4l2.39 0.87c-0.42,1.2 -0.63,2.28 -0.63,3.26 0,1.66 0.41,2.93 1.22,3.81 -0.44,1.2 -0.98,2.09 -1.63,2.67 -0.48,0.67 -1.28,1 -2.39,1 -2.15,0 -4.36,-2.09 -6.62,-6.27 -2.31,1.85 -4.91,3.54 -7.8,5.09l-2.01 -2.04c3.16,-2.4 5.83,-4.81 7.97,-7.21 -1.2,-3.35 -1.95,-7.08 -2.25,-11.19l-6.45 0 0 3.98c1.88,-0.58 3.49,-1.17 4.86,-1.77l1.24 2.6c-1.52,1.23 -3.55,2.49 -6.1,3.78l0 8.49c0,2.98 -1.15,4.47 -3.46,4.47l-3.23 0c0,-2.19 -1.4,-3.34 -4.23,-3.43l0.15 -2.25c1.5,0.07 2.98,0.16 4.43,0.27 0.53,0 0.8,-0.59 0.8,-1.79l0 -3.16c-1.48,0.67 -3.09,1.33 -4.82,1.97l-1.87 -5.85c1.87,-0.42 4.1,-1 6.69,-1.74l0 -5.57 -6.17 0 -0.59 -2.39 6.76 0 0 -2.78c-1.78,0.21 -3.63,0.37 -5.55,0.49l-0.73 -2.6c5.51,-0.9 9.91,-2.24 13.21,-4.02l4.26 3.71c-1.73,0.62 -3.61,1.13 -5.65,1.52l0 3.68 6.31 0 0 -8.85 5.27 0.63 0 8.22 4.26 0zm-1.62 -8.74c2.17,1.18 3.89,2.36 5.16,3.54l-3.4 3.5c-1.18,-2.13 -2.43,-3.86 -3.74,-5.2l1.98 -1.84z"/>
  <path id="15" class="fil3 str0" d="M120.36 118.63c-0.58,0.65 -1.13,1.18 -1.63,1.59l-2.19 -2.01c2.8,-4.71 4.71,-10.05 5.72,-16.01l6 1.01c-0.74,2.63 -1.64,5.05 -2.7,7.24l0 23.98 -5.2 0.56 0 -16.36zm8.21 -9.35l4.71 0.51 0 24.51 -4.71 0.62 0 -25.64zm15.15 -4.51l2.14 -1.53 3.78 2.91 -1.14 1.18 0 24.51c0,2.31 -1.11,3.46 -3.33,3.46l-2.94 0c0,-2.19 -0.99,-3.29 -2.95,-3.29l0.14 -2.32c1.29,0.48 2.49,0.73 3.6,0.73 0.47,0 0.7,-0.27 0.7,-0.8l0 -22.29 -5.58 0 -0.59 -2.56 6.17 0zm-12.41 -1.7c2.4,0.9 4.33,1.92 5.79,3.05l-3.23 3.67c-1.29,-1.61 -2.78,-3.07 -4.47,-4.36l1.91 -2.36z"/>
  <polygon id="16" class="fil3 str0" points="222.35,120.57 186.86,120.57 186.86,117.07 222.35,117.07 "/>
  <path id="17" class="fil3 str0" d="M235.39 112.6l0 -5.65 -7.65 0 -0.66 -2.56 8.35 0 2.18 -1.8 3.95 3.04 -1.21 1.25 0 9.12 -4.96 0.66 0 -1.46 -2.07 0 -0.66 5.02 2.11 0 2.39 -2.56 4.23 3.5 -1.49 1.35c0,8.67 -1.78,13 -5.33,13l-2.57 0c-0.05,-1.64 -1.12,-2.68 -3.22,-3.12l0.17 -2.22c1.29,0.31 2.82,0.45 4.58,0.45 0.71,0 1.11,-0.76 1.17,-2.29l0.14 -5.54 -2.56 0 0 0.07 -4.78 0c0.55,-4.32 1.04,-8.02 1.49,-11.09l4.68 0.76 0 0.07 1.72 0zm6.87 -9.77l4.3 0.52 0 0.59 7.21 0 1.83 -1.53 3.74 3.33 -1.49 1.59 0 5.62 -4.22 0.38 0 -1.01 -1.25 0 0 3.4 2.28 0 1.84 -1.59 3.57 3.18 -1.35 1.57 0 8.07 -4.51 0.41 0 -1.17 -1.83 0 0 3.88c0.81,-0.07 1.57,-0.15 2.28,-0.25 -0.16,-0.48 -0.33,-0.97 -0.52,-1.45l2.81 -1.08c1.23,1.78 2.26,3.84 3.09,6.17l-4.13 1.53c-0.09,-0.67 -0.2,-1.31 -0.34,-1.91 -4.64,1 -9.41,1.78 -14.28,2.36l-1.08 -4.75c2.71,-0.04 5.29,-0.14 7.74,-0.27l0 -4.23 -1.77 0 0 1.04 -4.65 0.55 0 -13.13 4.65 0.55 0 0.52 1.77 0 0 -3.4 -1.39 0 0 0.63 -4.3 0.51 0 -10.63zm3.92 20.75l1.77 0 0 -5.19 -1.77 0 0 5.19zm6.2 0l1.83 0 0 -5.19 -1.83 0 0 5.19zm-5.82 -13.79l7.07 0 0 -3.22 -7.07 0 0 3.22z"/>
  <path id="18" class="fil3 str0" d="M277.17 105.91l1.6 -1.35 2.11 1.91 -0.07 -0.39 2.74 0 0 -3.71 4.78 0.46 0 3.25 1.25 0 2.57 -2.22 4.29 3.54 -1.25 1.21c0,5.53 0.23,8.29 0.69,8.29 0.38,0 0.84,-1.04 1.39,-3.12l1.56 0.35c-0.67,1.2 -1,2.2 -1,3.01 0,0.88 0.11,1.56 0.34,2.04 -0.78,1.81 -1.81,2.71 -3.08,2.71 -1.96,0 -3.21,-1.28 -3.74,-3.85 -0.33,-1.15 -0.51,-4.26 -0.56,-9.32l-2.46 0 0 1.49c0,1.04 -0.15,2.05 -0.45,3.05 1.04,0.44 2.05,0.9 3.02,1.39l-2.85 4.26c-0.71,-0.65 -1.45,-1.26 -2.21,-1.84 -1.06,1.36 -2.45,2.66 -4.16,3.88l2.14 0.32 0 2.21 5.69 0 2.49 -2.25 5.24 3.92 -1.84 1.42c0,3.83 -0.46,6.14 -1.39,6.93 -0.57,1.11 -2.01,1.66 -4.29,1.66l-2.25 0c0,-2.31 -1.16,-3.46 -3.47,-3.46l0.38 -2.25c1.09,0.34 2.63,0.52 4.64,0.52 0.56,0 0.84,-0.55 0.84,-1.64l0.1 -2.28 -6.48 0c-1.39,4.32 -6.54,7.34 -15.45,9.04l-1.29 -2.53c5.87,-1.59 9.3,-3.76 10.29,-6.51l-9.18 0 -0.62 -2.57 10.12 0 0 -3.08 2.42 0.31 -1.11 -0.86c1.6,-1.67 2.8,-3.43 3.61,-5.31 -0.76,-0.46 -1.54,-0.9 -2.33,-1.31l1.22 -2.05c0.76,0.16 1.43,0.31 2.01,0.45 0.23,-0.97 0.36,-1.94 0.38,-2.91l-2.12 0 -0.27 -1.21 -0.94 0.97 -3.78 0 0 1.7c1.25,-0.21 2.36,-0.44 3.33,-0.7l0.66 2.39c-1.25,0.67 -2.57,1.29 -3.99,1.84l0 5.13c0,2.28 -0.99,3.43 -2.98,3.43l-2.39 0c0,-1.87 -1.06,-2.83 -3.19,-2.88l0.11 -1.97c1.22,0.11 2.16,0.17 2.8,0.17 0.28,0 0.42,-0.3 0.42,-0.9l0 -1.28c-1.11,0.3 -2.25,0.57 -3.43,0.83l-1.42 -4.82c1.78,-0.14 3.39,-0.29 4.85,-0.45l0 -2.49 -3.74 0 -0.73 -2.57 4.47 0 0 -3.5 5.23 0.73 0 2.77 0.73 0z"/>
  <path id="19" class="fil3 str0" d="M323.42 102.65l5.75 1.01c-0.46,1.87 -1.07,3.63 -1.84,5.27l4.16 0 2.25 -2.39 4.3 3.56 -0.93 1.15 0 9.6c0,7.32 -0.59,11.49 -1.77,12.51 -0.74,1.06 -2.18,1.59 -4.33,1.59l-2.56 0c0,-1.87 -1.5,-3.03 -4.48,-3.49l0.28 -2.29 5.27 0.24c0.88,0 1.39,-0.18 1.52,-0.56 0.51,-1.66 0.76,-3.64 0.76,-5.96l0 -11.33 -5.78 0c-1.32,2.34 -2.93,4.45 -4.82,6.34l-0.9 -0.69 0 16.71 -5.06 0.48 0 -2.08 -4.13 0 0 2.01 -4.85 0.66 0 -28.11 4.26 0.45c0.49,-1.66 0.79,-3.21 0.91,-4.64l5.48 1.17c-1.02,1.79 -2.11,3.3 -3.26,4.55l1.73 0 1.66 -1.91 4.54 3.29 -1.28 1.43 0 2.59c1.66,-3.49 2.7,-7.21 3.12,-11.16zm-12.31 27.35l4.13 0 0 -9.5 -4.13 0 0 9.5zm0 -11.75l4.13 0 0 -7.45 -4.13 0 0 7.45zm14.08 -1.87c2.1,1.87 3.86,3.86 5.3,5.96l-4.61 3.22c-0.9,-2.84 -1.98,-5.35 -3.23,-7.52l2.54 -1.66z"/>
  <path id="20" class="fil3 str0" d="M349.39 102.55l6.1 0.69 0 0.94 11.12 0 2.57 -2.26 4.89 3.78 -1.49 1.6 0 8.6 -6.07 0.76 0 -1.81 -11.02 0 0 1.22 -6.1 0.8 0 -14.32zm6.1 9.53l11.02 0 0 -5.13 -11.02 0 0 5.13zm5.75 5.09l5.55 0.63 0 1.53 3.22 0 2.64 -2.26 5.02 3.88 -1.74 1.66 0 12.28 -5.64 0.65 0 -2.46 -3.5 0 0 1.67 -5.55 0.69 0 -18.27zm5.55 13.28l3.5 0 0 -8.35 -3.5 0 0 8.35zm-21.73 -13.28l5.3 0.59 0 1.57 2.88 0 2.63 -2.26 4.99 3.88 -1.8 1.66 0 11.89 -5.51 0.66 0 -2.04 -3.19 0 0 1.66 -5.3 0.66 0 -18.27zm5.3 13.17l3.19 0 0 -8.24 -3.19 0 0 8.24z"/>
  <path id="21" class="fil3 str0" d="M384.44 103.49l4.58 0.45 0 8.83 1.59 0 0 -10.4 4.33 0.56 0 9.43 1.22 -1.04 0.83 0.72 0 -7.86 4.47 0.52 0 1.63 0.07 0c0.9,-1.34 1.68,-2.75 2.35,-4.23l5.96 1.18c-1.31,1.15 -2.6,2.17 -3.88,3.05l3.85 0 2.32 -1.97 4.44 3.46 -1.49 1.39 0 11.74 -4.57 0.59 0 -1.73 -3.47 0c-0.17,0.32 -0.33,0.62 -0.48,0.9l3.15 0.41 0 4.06 1.31 0 1.98 -2.04 3.46 3.12 -1.66 1.42 -5.09 0 0 7.14 -5.27 0.65 0 -7.79 -8.04 0 -0.69 -2.5 2.14 0 -1 -1.56c2.19,-0.78 3.83,-1.74 4.92,-2.87 0.33,-0.33 0.59,-0.64 0.8,-0.94l-1.11 0 0 0.97 -4.47 0.59 0 -0.03 -1.56 1.14 0 12.71 -4.44 0.53 0 -13.52 -2.01 0c-0.12,5.48 -1.32,9.97 -3.6,13.48l-2.15 -0.9c0.81,-2.89 1.21,-6.82 1.21,-11.82l0 -19.47zm17.02 13.86l2.21 0c0.15,-0.63 0.21,-1.26 0.21,-1.9l0 -1.29 -2.42 0 0 3.19zm6.51 -3.19l0 1.59c-0.04,0.61 -0.1,1.14 -0.17,1.6l2.71 0 0 -3.19 -2.54 0zm-6.51 -2.46l2.42 0 0 -2.91 -2.42 0 0 2.91zm6.51 -2.91l0 2.91 2.54 0 0 -2.91 -2.54 0zm-10.98 11.99l0 -5.51 -7.97 0 0 4.4 1.62 0 2.29 -2.01 4.06 3.12zm7.45 2.29c-1.13,0.92 -2.59,1.63 -4.37,2.11l4.37 0 0 -2.11z"/>
  <path id="22" class="fil3 str0" d="M436.72 102.97l5.13 0.62 0 1.07 6.3 0 2.29 -1.77 4.4 3.44 -1.32 1.39 0 15.59 -5.02 0.59 0 -16.6 -6.65 0 0 15.77c0.6,-1.8 0.9,-3.7 0.9,-5.68l0 -7.77 4.78 0.73c0,5.01 -0.1,8.02 -0.31,9.01 -0.21,1.64 -0.53,3.14 -0.97,4.5l2.74 0.42 0 5.62c0,0.39 0.19,0.58 0.58,0.58l1.12 0c0.39,0 0.6,-0.21 0.65,-0.62l0.56 -3.84 2.01 0.3c-0.05,0.54 -0.07,0.97 -0.07,1.32 0,2.08 0.47,3.47 1.42,4.16 -0.58,1.78 -1.66,2.67 -3.26,2.67l-4.43 0c-2.04,0 -3.13,-1.04 -3.26,-3.12l0 -3.43c-0.33,0.51 -0.65,0.96 -0.97,1.35 -2.36,3.14 -5.31,5.04 -8.84,5.68l-1.18 -2.39c4.02,-2.17 6.75,-5.01 8.18,-8.52l-4.78 0.62 0 -16.36 -0.83 0.73c-0.31,4.48 -1.36,8.71 -3.19,12.69 1.41,2.21 2.51,4.19 3.29,5.92l-4.58 4.16c-0.53,-1.59 -1.09,-3.16 -1.69,-4.71 -1.48,2.21 -3.2,4.34 -5.17,6.37l-2.25 -1.62c2.24,-3.15 4.01,-6.39 5.31,-9.74 -1.25,-2.8 -2.65,-5.63 -4.2,-8.49l2.29 -1.77c1.29,1.71 2.49,3.33 3.6,4.85 0.58,-2.47 0.93,-4.98 1.04,-7.52l-7 0 -0.73 -2.6 7.97 0 1.98 -2.18 4.16 2.63 0 -4.05z"/>
  <polygon id="23" class="fil3 str0" points="186.86,120.57 151.38,120.57 151.38,117.07 186.86,117.07 "/>
 </g>
</svg>
