<?xml version="1.0" encoding="UTF-8"?>
<!DOCTYPE svg PUBLIC "-//W3C//DTD SVG 1.1//EN" "http://www.w3.org/Graphics/SVG/1.1/DTD/svg11.dtd">
<!-- Creator: CorelDRAW 2017 -->
<svg xmlns="http://www.w3.org/2000/svg" xml:space="preserve" width="1225px" height="399px" version="1.1" style="shape-rendering:geometricPrecision; text-rendering:geometricPrecision; image-rendering:optimizeQuality; fill-rule:evenodd; clip-rule:evenodd"
viewBox="0 0 659.55 214.68"
 xmlns:xlink="http://www.w3.org/1999/xlink">
 <defs>
  <style type="text/css">
   <![CDATA[
    .str0 {stroke:aqua;stroke-width:1.27;stroke-linejoin:round;stroke-miterlimit:22.9256}
    .fil3 {fill:none;fill-rule:nonzero}
    .fil0 {fill:#FEFEFE;fill-rule:nonzero}
    .fil1 {fill:aqua;fill-rule:nonzero}
    .fil2 {fill:aqua;fill-rule:nonzero;fill-opacity:0.400000}
   ]]>
  </style>
 </defs>
 <g id="图层_x0020_1">
  <metadata id="CorelCorpID_0Corel-Layer"/>
  <path class="fil0" d="M7.04 209.85c-0.1,-0.18 -0.31,-0.37 -0.63,-0.58 0.67,-0.59 1.09,-1.17 1.27,-1.73 0.2,-0.53 0.31,-1.44 0.31,-2.74l0 -2.27 4.46 0 0 5.74c0.04,0.88 -0.4,1.33 -1.31,1.37 -0.18,0 -0.47,0.02 -0.9,0.05 -0.24,0 -0.4,0 -0.47,0 -0.03,-0.07 -0.07,-0.23 -0.1,-0.47 -0.04,-0.18 -0.06,-0.3 -0.06,-0.37 0.32,0.03 0.76,0.05 1.32,0.05 0.52,0.04 0.77,-0.22 0.73,-0.78l0 -0.64 -3.09 0c-0.21,0.84 -0.72,1.63 -1.53,2.37zm-6.04 -5.48l0 -0.68 1.84 0c-0.1,-0.17 -0.35,-0.53 -0.73,-1.05 -0.14,-0.21 -0.25,-0.37 -0.32,-0.47l0.74 -0.32c0.28,0.35 0.63,0.84 1.05,1.47l-0.74 0.37 1.74 0c0.07,-0.14 0.19,-0.33 0.37,-0.58 0.35,-0.56 0.61,-1 0.79,-1.31l0.78 0.31c-0.35,0.46 -0.7,0.98 -1.05,1.58l1.79 0 0 0.68 -2.73 0 0 1.37c0,0.18 -0.02,0.4 -0.06,0.68 0,0.28 0,0.48 0,0.58l1.47 0 0 -1.84 0.79 0 0 2.58 -2.42 0c-0.14,1.19 -1.05,2.19 -2.73,3 -0.04,-0.04 -0.11,-0.11 -0.21,-0.22 -0.18,-0.13 -0.3,-0.24 -0.37,-0.31 1.51,-0.77 2.35,-1.59 2.53,-2.47l-2.06 0 0 -2.58 0.79 0 0 1.84 1.37 0c0.07,-0.35 0.11,-0.75 0.11,-1.21l0 -1.42 -2.74 0zm1.21 7.06l0 -0.74 4.31 0 0 -0.79 0.85 0 0 0.79 4.57 0 0 0.74 -4.57 0 0 1.58 5.89 0 0 0.79 -12.62 0 0 -0.79 5.88 0 0 -1.58 -4.31 0zm6.56 -6.1c0,0.56 -0.03,1.05 -0.1,1.47l2.99 0 0 -1.47 -2.89 0zm0.01 -2.11l0 1.43 2.88 0 0 -1.43 -2.88 0z"/>
  <path id="1" class="fil0" d="M19.52 211.84l0 -3.52 6.72 0 0 3.52 -6.72 0zm0.05 -6.1c-0.25,-0.14 -0.51,-0.26 -0.79,-0.37 0.67,-1.01 1.19,-2.07 1.58,-3.15l0.78 0.15c-0.07,0.22 -0.17,0.5 -0.31,0.85 -0.07,0.17 -0.12,0.31 -0.16,0.42l2.05 0 0 -1.84 0.85 0 0 1.84 3.2 0 0 0.73 -3.2 0 0 1.91 3.83 0 0 0.73 -8.88 0 0 -0.73 4.2 0 0 -1.91 -2.42 0c-0.21,0.49 -0.45,0.95 -0.73,1.37zm-4.36 8.36l-0.53 -0.79c0.39,-0.38 0.97,-0.93 1.74,-1.63l0 -4.47 -1.53 0 0 -0.84 2.42 0 0 5.26c0.74,1.01 1.84,1.51 3.31,1.47 2.32,0 4.61,0 6.89,0 -0.03,0.18 -0.1,0.39 -0.21,0.63 -0.03,0.11 -0.07,0.18 -0.11,0.21 -3.57,0 -5.85,-0.01 -6.83,-0.05 -1.47,0 -2.65,-0.51 -3.52,-1.53 -0.53,0.46 -1.07,1.04 -1.63,1.74zm5.15 -5.04l0 2.05 5.04 0 0 -2.05 -5.04 0zm-3.26 -4.21c-0.07,-0.1 -0.2,-0.26 -0.37,-0.47 -0.53,-0.81 -0.95,-1.42 -1.26,-1.84l0.73 -0.48c0.53,0.74 1.09,1.51 1.69,2.32l-0.79 0.47z"/>
  <path id="2" class="fil0" d="M29.77 204.27l0 -0.74 3.53 0c-0.14,-0.14 -0.37,-0.39 -0.69,-0.74 -0.31,-0.35 -0.54,-0.59 -0.68,-0.73l0.79 -0.37c0.7,0.7 1.16,1.19 1.36,1.47l-0.68 0.37 3.31 0c0.04,-0.04 0.07,-0.07 0.11,-0.11 0.73,-0.8 1.23,-1.36 1.47,-1.68l0.84 0.37c-0.03,0.04 -0.1,0.12 -0.21,0.26 -0.45,0.53 -0.82,0.91 -1.1,1.16l3.36 0 0 0.74 -5.57 0c-0.11,0.53 -0.23,1 -0.37,1.43l5.42 0 0 0.73 -5.63 0c-0.21,0.53 -0.42,1.02 -0.63,1.47l7.31 0 0 0.74 -7.68 0c-0.35,0.53 -0.75,1.05 -1.21,1.58l7.47 0 0 0.68 -3.58 0 0 2.25 4.84 0 0 0.74 -10.94 0 0 -0.74 5.21 0 0 -2.25 -3.26 0 0 -0.37c-0.81,0.84 -1.84,1.63 -3.1,2.37 -0.04,-0.04 -0.14,-0.16 -0.32,-0.37 -0.1,-0.1 -0.17,-0.19 -0.21,-0.26 1.89,-1.19 3.24,-2.4 4.05,-3.63l-3.84 0 0 -0.74 4.31 0c0.28,-0.45 0.5,-0.94 0.63,-1.47l-3.99 0 0 -0.73 4.26 0c0.03,-0.11 0.07,-0.27 0.1,-0.48 0.14,-0.42 0.23,-0.74 0.27,-0.95l-4.95 0z"/>
  <path id="3" class="fil0" d="M46.35 208.32c-1.16,0.03 -1.72,-0.55 -1.69,-1.74l0 -4.15 9.26 0 0 3.42 -8.42 0 0 0.63c-0.03,0.77 0.34,1.14 1.11,1.1l6.78 0c0.74,0.04 1.16,-0.23 1.26,-0.79 0,-0.07 0.02,-0.17 0.05,-0.31 0.11,-0.42 0.18,-0.76 0.22,-1 0.31,0.14 0.59,0.24 0.84,0.31 -0.07,0.43 -0.18,0.9 -0.32,1.42 -0.17,0.77 -0.79,1.14 -1.84,1.11l-7.25 0zm5.47 6.05l0 -3.16 -4.58 0c-0.07,1.37 -1,2.44 -2.78,3.21 -0.08,-0.07 -0.18,-0.19 -0.32,-0.37 -0.17,-0.18 -0.3,-0.3 -0.37,-0.37 1.69,-0.63 2.54,-1.45 2.58,-2.47l-3.1 0 0 -0.79 3.2 0c0.04,-0.45 0.06,-0.95 0.06,-1.47l0.89 0c0,0.17 -0.02,0.45 -0.05,0.84 0,0.28 0,0.49 0,0.63l4.47 0 0 -1.47 0.89 0 0 1.47 3.1 0 0 0.79 -3.1 0 0 3.16 -0.89 0zm-6.32 -11.21l0 1.96 7.58 0 0 -1.96 -7.58 0z"/>
  <path id="4" class="fil0" d="M61.56 210.63c-0.03,-0.07 -0.12,-0.21 -0.26,-0.42 -0.14,-0.21 -0.24,-0.35 -0.31,-0.42 1.15,-0.56 2.2,-1.16 3.15,-1.79l0 -5.99 0.89 0 0 5.31c1.41,-1.06 2.65,-2.3 3.74,-3.74l0.79 0.58c-1.3,1.61 -2.81,3.05 -4.53,4.31l0 3.53c-0.03,0.73 0.37,1.08 1.21,1.05l1.37 0c0.77,0 1.21,-0.27 1.32,-0.79 0.1,-0.42 0.2,-1.19 0.31,-2.31l0.89 0.31c-0.14,1.12 -0.24,1.89 -0.31,2.31 -0.18,0.92 -0.89,1.35 -2.16,1.32l-1.68 0c-1.3,0.07 -1.91,-0.53 -1.84,-1.79l0 -3c-0.84,0.53 -1.7,1.04 -2.58,1.53zm-3.73 -1.42c-0.04,-0.14 -0.13,-0.31 -0.27,-0.52 -0.1,-0.25 -0.18,-0.4 -0.21,-0.48 1.51,-1.75 2.7,-3.85 3.58,-6.3l0.94 0.31c-0.52,1.16 -1.05,2.25 -1.58,3.26l0 8.83 -0.89 0 0 -7.36c-0.45,0.81 -0.98,1.56 -1.57,2.26z"/>
  <path id="5" class="fil0" d="M72.08 213.95l0 -5.95 1.95 0 0 -6.2 0.84 0 0 2.47 2.63 0 0 0.79 -2.63 0 0 2.94 2.16 0 0 5.79 -0.84 0 0 -0.79 -3.27 0 0 0.95 -0.84 0zm5.52 -7.31l-0.15 -0.84 1.89 -0.21c-0.07,-1.69 -0.1,-2.97 -0.1,-3.84l0.84 0c0,0.73 0.03,1.87 0.1,3.42 -0.07,-1.09 -0.07,-0.99 0,0.31l3.84 -0.47 0.05 0.79 -3.84 0.47c0.11,1.58 0.27,2.84 0.48,3.79 0.94,-0.95 1.73,-1.99 2.36,-3.11l0.79 0.48c-1.01,1.5 -1.98,2.7 -2.89,3.57 0.28,0.77 0.63,1.39 1.05,1.84 0.28,0.32 0.53,0.48 0.74,0.48 0.31,0 0.5,-0.2 0.58,-0.58 0.14,-0.46 0.24,-1.07 0.31,-1.84 0.28,0.1 0.54,0.21 0.79,0.31 -0.11,0.7 -0.21,1.25 -0.32,1.63 -0.21,0.95 -0.64,1.42 -1.31,1.42 -0.67,0 -1.23,-0.38 -1.68,-1.16 -0.32,-0.35 -0.6,-0.84 -0.84,-1.47 -0.49,0.46 -1.35,1.05 -2.58,1.79 -0.04,-0.03 -0.07,-0.07 -0.11,-0.1 -0.21,-0.32 -0.36,-0.5 -0.47,-0.53 1.09,-0.63 2.05,-1.31 2.89,-2.05 -0.31,-1.09 -0.52,-2.54 -0.63,-4.37l-1.79 0.27zm-4.68 2.15l0 3.53 3.27 0 0 -3.53 -3.27 0zm9.99 -4.52c-0.66,-0.56 -1.27,-1.05 -1.84,-1.47l0.48 -0.58c0.49,0.32 1.12,0.79 1.89,1.42l-0.53 0.63z"/>
  <path id="6" class="fil0" d="M86.39 213.43l0 -10.43 4.43 0 0 10.21 -0.74 0 0 -0.63 -2.9 0 0 0.85 -0.79 0zm5.11 -4.16l-0.42 -0.79c1.29,-0.49 2.36,-1.02 3.2,-1.58 -0.59,-0.56 -1.1,-1.26 -1.52,-2.1 -0.32,0.45 -0.65,0.94 -1,1.47 -0.07,-0.07 -0.16,-0.18 -0.26,-0.32 -0.14,-0.14 -0.25,-0.24 -0.32,-0.31 1.02,-1.3 1.77,-2.58 2.26,-3.84l0.79 0.21c-0.17,0.42 -0.37,0.81 -0.58,1.16l4.1 0 0 0.84c-0.73,1.33 -1.47,2.31 -2.21,2.94 0.81,0.56 1.81,1.02 3,1.37 -0.03,0.07 -0.09,0.19 -0.16,0.37 -0.1,0.17 -0.17,0.31 -0.21,0.42 -1.33,-0.46 -2.41,-1.02 -3.26,-1.68 -0.87,0.66 -2.01,1.28 -3.41,1.84zm0.79 5.1l0 -4.94 5.15 0 0 4.94 -0.79 0 0 -0.79 -3.57 0 0 0.79 -0.79 0zm0.79 -4.21l0 2.68 3.57 0 0 -2.68 -3.57 0zm3.78 -6.2l-3.58 0 -0.1 0.1c0.56,1.05 1.14,1.84 1.73,2.37 0.78,-0.7 1.42,-1.53 1.95,-2.47zm-9.68 4.2l0 3.69 1.11 0 0 -3.69 -1.11 0zm1.79 0l0 3.69 1.11 0 0 -3.69 -1.11 0zm-1.79 -4.42l0 3.68 1.11 0 0 -3.68 -1.11 0zm2.9 0l-1.11 0 0 3.68 1.11 0 0 -3.68z"/>
  <path id="7" class="fil0" d="M100.87 214.26l0 -11.73 10.99 0 0 10.05c0.04,1.01 -0.47,1.54 -1.52,1.57 -0.49,0.04 -1.11,0.06 -1.84,0.06 -0.04,-0.11 -0.07,-0.32 -0.11,-0.63 -0.03,-0.14 -0.05,-0.25 -0.05,-0.32 0.63,0.07 1.16,0.11 1.58,0.11 0.73,0 1.1,-0.3 1.1,-0.9l0 -9.09 -9.31 0 0 10.88 -0.84 0zm5.88 -2.05c-0.21,-0.17 -0.43,-0.31 -0.68,-0.42 0.74,-1.05 1.39,-2.12 1.95,-3.21 -0.18,-0.28 -0.42,-0.72 -0.74,-1.31 -0.46,-0.81 -0.79,-1.4 -1,-1.79l0.69 -0.31c0.1,0.21 0.29,0.54 0.57,0.99 0.39,0.71 0.69,1.23 0.9,1.58 0.49,-1.02 0.91,-2.01 1.26,-2.99l0.74 0.31c-0.57,1.4 -1.07,2.56 -1.53,3.47 0.56,0.98 1.1,1.98 1.63,3l-0.79 0.42c-0.17,-0.39 -0.49,-1 -0.94,-1.84 -0.18,-0.28 -0.3,-0.51 -0.37,-0.68 -0.49,0.94 -1.06,1.87 -1.69,2.78zm-1.2 -0.95c-0.11,-0.21 -0.27,-0.5 -0.48,-0.89 -0.28,-0.56 -0.49,-0.96 -0.63,-1.21 -0.56,1.05 -1.14,2.02 -1.74,2.89 -0.17,-0.17 -0.4,-0.33 -0.68,-0.47 0.63,-0.91 1.3,-2 2,-3.26 -0.18,-0.35 -0.46,-0.88 -0.84,-1.58 -0.39,-0.66 -0.68,-1.17 -0.89,-1.52l0.63 -0.42c0.17,0.28 0.43,0.72 0.79,1.31 0.31,0.56 0.56,1 0.73,1.32 0.46,-0.95 0.84,-1.86 1.16,-2.74l0.73 0.26c-0.49,1.34 -0.96,2.44 -1.42,3.32l1.37 2.57 -0.73 0.42z"/>
  <path id="8" class="fil0" d="M119.64 214.37l0 -4.78 6.32 0 0 4.78 -0.84 0 0 -0.74 -4.64 0 0 0.74 -0.84 0zm7 -5.21c-1.51,-0.42 -2.77,-0.96 -3.79,-1.63 -1.01,0.67 -2.36,1.26 -4.04,1.79 -0.11,-0.28 -0.25,-0.55 -0.42,-0.79 1.61,-0.49 2.87,-1 3.78,-1.53 -0.59,-0.59 -1.15,-1.27 -1.68,-2.05 -0.32,0.46 -0.72,0.93 -1.21,1.42 -0.04,-0.03 -0.12,-0.12 -0.26,-0.26 -0.15,-0.17 -0.25,-0.3 -0.32,-0.37 1.16,-1.12 2.05,-2.43 2.68,-3.94l0.9 0.16c-0.21,0.42 -0.42,0.82 -0.63,1.21l4.46 0 0 0.84c-0.66,1.19 -1.5,2.19 -2.52,2.99 0.95,0.57 2.09,1 3.42,1.32 -0.04,0.07 -0.09,0.21 -0.16,0.42 -0.11,0.18 -0.18,0.32 -0.21,0.42zm-12.2 -2.21l-0.26 -0.84c0.24,-0.17 0.46,-0.4 0.63,-0.68 0.67,-0.98 1.33,-2.21 2,-3.68l0.89 0.26c-1.01,1.82 -1.82,3.19 -2.42,4.1 0.11,0 0.32,0 0.63,0 0.49,-0.03 0.86,-0.05 1.11,-0.05 0.07,-0.1 0.17,-0.28 0.31,-0.53 0.28,-0.49 0.49,-0.84 0.63,-1.05l0.79 0.32c-0.87,1.47 -1.91,3.05 -3.1,4.73 0.28,-0.04 0.72,-0.07 1.32,-0.1 0.59,-0.08 1.01,-0.11 1.26,-0.11 0,0.07 0,0.17 0,0.31 -0.04,0.21 -0.06,0.37 -0.06,0.48 -0.98,0.03 -1.8,0.08 -2.47,0.16 -0.31,0.03 -0.63,0.08 -0.94,0.15l-0.32 -0.84c0.25,-0.14 0.49,-0.38 0.74,-0.73 0.1,-0.14 0.24,-0.36 0.42,-0.64 0.14,-0.2 0.46,-0.68 0.94,-1.41 -0.77,0.03 -1.47,0.08 -2.1,0.15zm6.04 3.37l0 2.57 4.64 0 0 -2.57 -4.64 0zm4.74 -6.36l-4 0 -0.2 0.26c0.52,0.95 1.15,1.7 1.89,2.26 0.84,-0.6 1.61,-1.44 2.31,-2.52zm-10.83 9.41l-0.16 -0.79c0.6,-0.07 1.54,-0.21 2.84,-0.42 0.63,-0.11 1.1,-0.18 1.42,-0.21 -0.03,0.14 -0.05,0.42 -0.05,0.84 -1.3,0.14 -2.65,0.33 -4.05,0.58z"/>
  <path id="9" class="fil0" d="M140.59 214.05c-3.16,-0.74 -5.18,-2.12 -6.05,-4.16l-1.48 0 0 3.32 2.47 -0.69c0,0.21 0,0.46 0,0.74 -0.88,0.31 -1.61,0.56 -2.21,0.73 -0.1,0.07 -0.29,0.16 -0.57,0.27 -0.18,0.07 -0.3,0.12 -0.37,0.15l-0.48 -0.68c0.22,-0.24 0.32,-0.59 0.32,-1.05l0 -2.79 -1.73 0c-0.07,1.76 -0.52,3.23 -1.37,4.42 -0.03,-0.04 -0.13,-0.14 -0.31,-0.32 -0.17,-0.14 -0.3,-0.24 -0.37,-0.31 0.56,-0.81 0.91,-1.61 1.05,-2.42 0.18,-0.81 0.27,-2.07 0.27,-3.79l0 -5.04 10.46 0 0 2.85 -9.62 0 0 1.83c0,0.77 -0.02,1.47 -0.06,2.1l2.89 0 0 -1.63 -2.26 0 0 -0.69 2.26 0 0 -1.15 0.84 0 0 1.15 2.8 0 0 -1.15 0.84 0 0 1.15 2.42 0 0 0.69 -2.42 0 0 1.63 2.99 0 0 0.68 -5.52 0c0.45,0.74 0.96,1.33 1.52,1.79 1.3,-0.63 2.18,-1.07 2.64,-1.31l0.47 0.63c-0.28,0.17 -1.09,0.56 -2.42,1.15 0.63,0.42 1.79,0.81 3.47,1.16 -0.21,0.28 -0.37,0.53 -0.47,0.74zm-9.99 -10.94l0 1.43 8.83 0 0 -1.43 -8.83 0zm3.67 4.47l0 1.63 2.8 0 0 -1.63 -2.8 0z"/>
  <path id="10" class="fil0" d="M142.65 207.22l0 -0.89 12.72 0 0 0.89 -5.73 0 0 5.31c0.04,1.05 -0.47,1.59 -1.52,1.63 -0.56,0 -1.19,0 -1.89,0 0,-0.04 -0.02,-0.11 -0.06,-0.21 -0.03,-0.32 -0.09,-0.56 -0.16,-0.74 0.6,0 1.16,0 1.69,0 0.7,0.04 1.03,-0.24 1,-0.84l0 -5.15 -6.05 0zm1.42 -3.74l0 -0.84 9.88 0 0 0.84 -9.88 0zm-0.64 9.73c-0.24,-0.21 -0.5,-0.37 -0.78,-0.47 0.98,-1.23 1.91,-2.63 2.78,-4.21l0.84 0.47c-0.87,1.51 -1.82,2.91 -2.84,4.21zm11.1 -0.26c-0.74,-1.05 -1.72,-2.35 -2.95,-3.89l0.79 -0.48c0.42,0.53 1.05,1.33 1.9,2.42 0.49,0.63 0.86,1.11 1.1,1.42l-0.84 0.53z"/>
  <path id="11" class="fil0" d="M157.02 203.38l0 -0.85 12.35 0 0 0.85 -5.94 0 -0.68 1.83 5.94 0 0 9.16 -0.84 0 0 -0.79 -9.31 0 0 0.79 -0.84 0 0 -9.16 4.1 0 0.63 -1.83 -5.41 0zm10.83 2.62l-2.32 0 0 6.84 2.32 0 0 -6.84zm-9.31 0l0 6.84 2.26 0 0 -6.84 -2.26 0zm3.1 2.53l0 1.84 3.05 0 0 -1.84 -3.05 0zm0 -2.53l0 1.85 3.05 0 0 -1.85 -3.05 0zm0 5.1l0 1.74 3.05 0 0 -1.74 -3.05 0z"/>
  <path id="12" class="fil0" d="M173.58 214.68l-0.42 -0.37c0.81,-0.59 1.19,-1.29 1.16,-2.1l-0.79 0 0 -1.52 1.42 0c0,0.21 0,0.64 0,1.31 0.03,1.16 -0.42,2.05 -1.37,2.68z"/>
  <path id="13" class="fil0" d="M185.68 203.85l0 -0.74 2.79 0 0 -1.31 0.84 0 0 1.31 2.63 0 0 0.74 -2.63 0 0 0.53c0,0.21 0,0.4 0,0.58l2.26 0 0 0.68 -2.31 0c-0.04,0.42 -0.11,0.83 -0.21,1.21l2.99 0 0 0.69 -3.2 0c-0.42,1.01 -1.39,1.96 -2.89,2.84 -0.15,-0.21 -0.36,-0.43 -0.64,-0.63 1.27,-0.71 2.11,-1.44 2.53,-2.21l-2.32 0 0 -0.69 2.63 0c0.14,-0.38 0.23,-0.79 0.27,-1.21l-2.37 0 0 -0.68 2.42 0c0,-0.18 0,-0.39 0,-0.64l0 -0.47 -2.79 0zm5.58 10.51l0 -3.94 -3.15 0 0 3.15 -0.84 0 0 -3.89 3.99 0 0 -1.1 0.9 0 0 1.1 4.14 0 0 2.52c0.04,0.88 -0.42,1.34 -1.36,1.37 -0.53,0 -1.04,0 -1.53,0 -0.03,-0.24 -0.11,-0.49 -0.21,-0.73 0.49,0 0.95,0 1.37,0 0.59,0 0.87,-0.23 0.84,-0.69l0 -1.73 -3.25 0 0 3.94 -0.9 0zm1.64 -5.46l0 -6.37 4.31 0 0 0.79 -1.11 1.74c0.95,0.56 1.42,1.19 1.42,1.89 0,0.88 -0.51,1.33 -1.52,1.37 -0.42,0.03 -0.86,0.05 -1.32,0.05 -0.03,-0.28 -0.1,-0.54 -0.21,-0.79 0.11,0 0.32,0 0.64,0 0.31,0.04 0.54,0.05 0.68,0.05 0.59,0 0.91,-0.24 0.94,-0.73 0,-0.53 -0.52,-1.09 -1.57,-1.69l1.15 -1.94 -2.57 0 0 5.63 -0.84 0z"/>
  <path id="14" class="fil0" d="M199.57 213.1l-0.1 -0.78 1 -0.11 0 -9.57 4.47 0 0 8.99 0.79 -0.1 0 0.84c-1.89,0.21 -3.95,0.45 -6.16,0.73zm5.85 1.27c-0.22,-0.21 -0.44,-0.44 -0.69,-0.68 1.72,-1.33 2.59,-3.7 2.63,-7.1l0.05 -1.21 -1.58 0 0 -0.79 1.58 0c0.04,-0.59 0.06,-1.49 0.06,-2.68l0.89 0c-0.04,0.53 -0.05,1.42 -0.05,2.68l3.2 0c-0.07,2.84 -0.15,5.45 -0.26,7.84 0,1.12 -0.56,1.68 -1.68,1.68 -0.42,0 -0.98,0 -1.68,0 0,-0.03 0,-0.09 0,-0.16 -0.04,-0.17 -0.11,-0.42 -0.22,-0.73 0.64,0.03 1.18,0.05 1.64,0.05 0.73,0 1.12,-0.32 1.15,-0.95 0,-0.42 0.02,-1.21 0.06,-2.36 0.06,-2.18 0.12,-3.7 0.15,-4.58l-2.42 0 -0.05 1.26c-0.03,3.58 -0.96,6.15 -2.78,7.73zm-4.11 -2.27c0.95,-0.1 1.88,-0.2 2.79,-0.31l0 -2.26 -2.79 0 0 2.57zm0 -8.67l0 2.31 2.79 0 0 -2.31 -2.79 0zm0 3.04l0 2.32 2.79 0 0 -2.32 -2.79 0z"/>
  <path id="15" class="fil0" d="M213.88 213.74l0 -0.84 2.11 0 0 -4.94 0.89 0 0 4.94 2.96 0 0 -7.11 0.89 0 0 2.84 3.89 0 0 0.84 -3.89 0 0 3.43 5.26 0 0 0.84 -12.11 0zm11.95 -6.42c-2.53,-1.3 -4.44,-2.77 -5.74,-4.42 -1.36,1.76 -3.33,3.28 -5.89,4.58 -0.03,-0.07 -0.12,-0.21 -0.26,-0.42 -0.14,-0.18 -0.24,-0.3 -0.31,-0.37 2.94,-1.44 5.03,-3.08 6.26,-4.94l0.99 0.16c-0.03,0.03 -0.07,0.1 -0.1,0.21 -0.07,0.07 -0.13,0.12 -0.16,0.15 1.37,1.76 3.3,3.16 5.78,4.21 -0.24,0.32 -0.43,0.6 -0.57,0.84z"/>
  <path id="16" class="fil0" d="M227.89 213.53l0 -0.74 4.2 0 0 -10.78 0.9 0 0 10.78 2.47 0 0 -10.78 0.89 0 0 10.78 4.21 0 0 0.74 -12.67 0zm9.99 -3.47l-0.79 -0.32c0.52,-1.05 1.24,-2.77 2.16,-5.15l0.84 0.26c-0.71,1.89 -1.44,3.63 -2.21,5.21zm-7.47 0c-0.52,-1.55 -1.17,-3.28 -1.94,-5.21l0.78 -0.32c0.78,1.9 1.44,3.63 2,5.21l-0.84 0.32z"/>
  <path id="17" class="fil0" d="M250.35 207.58l0 1.27 3.47 0 0 0.68 -3.47 0 0 1.27 3.89 0 0 0.68 -3.89 0 0 1.21 -0.84 0 0 -1.21 -3.31 0 0 -0.68 3.31 0 0 -1.27 -2.89 0 0 -0.68 2.89 0 0 -1.27 -2.68 0 0 -0.69 2.68 0 0 -1.25 -3.36 0 0 -0.74 3.36 0 0 -1.25 -2.68 0 0 -0.69 2.68 0 0 -1.15 0.84 0 0 1.15 3.21 0 0 1.94 1.15 0 0 0.74 -1.15 0 0 1.94 -3.21 0zm4.15 6.31c-2.21,0 -3.96,-0.02 -5.25,-0.05 -2.21,-0.04 -3.83,-0.5 -4.84,-1.37 -0.32,0.35 -0.91,0.95 -1.79,1.79 0.03,-0.04 0,0 -0.1,0.1 -0.15,-0.28 -0.32,-0.52 -0.53,-0.73 0.77,-0.6 1.37,-1.2 1.79,-1.79 -0.56,-0.77 -1.06,-1.74 -1.48,-2.89l0.69 -0.37c0.38,1.02 0.8,1.84 1.26,2.47 0.42,-0.88 0.7,-2 0.84,-3.37l-2.68 0 0 -0.89 2.63 -3.14 -2.68 0 0 -0.74 3.62 0 0 0.79 -2.68 3.25 2.58 0 0 0.58c-0.14,1.82 -0.49,3.24 -1.05,4.26 0.87,0.84 2.38,1.26 4.52,1.26 1.47,0 3.28,0 5.42,0 -0.08,0.14 -0.16,0.42 -0.27,0.84zm-4.15 -8.25l0 1.25 2.36 0 0 -1.25 -2.36 0zm2.36 -1.99l-2.36 0 0 1.25 2.36 0 0 -1.25z"/>
  <path id="18" class="fil0" d="M256.41 213.58l0 -0.74 6.78 0c1.09,-2.34 2.02,-4.64 2.79,-6.88l0.99 0.31c-0.91,2.42 -1.83,4.61 -2.78,6.57l4.68 0 0 0.74 -12.46 0zm0.36 -8.47l0 -0.84 11.78 0 0 0.84 -11.78 0zm3.63 6.68c-0.73,-2.1 -1.42,-3.91 -2.05,-5.42l0.9 -0.31c0.07,0.21 0.19,0.53 0.36,0.94 0.77,1.93 1.35,3.39 1.74,4.37l-0.95 0.42zm2.26 -7.52c-0.24,-0.73 -0.52,-1.49 -0.84,-2.26l0.95 -0.26c0.07,0.17 0.17,0.44 0.32,0.79 0.2,0.63 0.38,1.1 0.52,1.42l-0.95 0.31z"/>
  <path id="19" class="fil0" d="M275.39 211l0 -3.62 3.17 0 0 -1.58 -2.68 0 0 -3.32 6.2 0 0 3.32 -2.68 0 0 1.58 3.15 0 0 3.62 -3.15 0 0 1.84 2.21 0 -0.74 -1.05 0.74 -0.37c0.13,0.21 0.35,0.52 0.63,0.94 0.45,0.67 0.8,1.2 1.05,1.58l-0.74 0.42 -0.47 -0.79c-2.59,0.11 -5.03,0.23 -7.31,0.37l-0.1 -0.89c1.26,-0.04 2.55,-0.09 3.89,-0.16l0 -1.89 -3.17 0zm-3.51 -4.57l-0.21 2.31 2.68 0c-0.07,1.82 -0.14,3.03 -0.21,3.63 0,1.26 -0.65,1.84 -1.94,1.73 -0.28,0.04 -0.65,0.05 -1.11,0.05 -0.03,-0.28 -0.08,-0.57 -0.16,-0.89 0.39,0 0.78,0 1.16,0 0.81,0.07 1.21,-0.26 1.21,-1 0.11,-0.8 0.16,-1.72 0.16,-2.73l-2.68 0 0.36 -3.83 2.53 0 0 -2.43 -2.84 0 0 -0.74 3.63 0 0 3.9 -2.58 0zm4.84 -3.27l0 1.9 4.52 0 0 -1.9 -4.52 0zm-0.54 4.96l0 2.14 2.38 0 0 -2.14 -2.38 0zm5.58 0l-2.36 0 0 2.14 2.36 0 0 -2.14z"/>
  <path id="20" class="fil0" d="M291.39 214.05c-0.03,-0.14 -0.08,-0.35 -0.16,-0.63 -0.03,-0.14 -0.07,-0.25 -0.1,-0.32 0.42,0.04 1.16,0.06 2.21,0.06 0.98,0.03 1.49,-0.27 1.52,-0.9 0.07,-0.49 0.11,-1.03 0.11,-1.63l-4.58 0c-0.17,1.79 -1.84,3.05 -4.99,3.79 -0.04,-0.07 -0.12,-0.21 -0.26,-0.42 -0.11,-0.21 -0.2,-0.37 -0.27,-0.48 2.88,-0.49 4.42,-1.45 4.63,-2.89l-3.94 0 0 -0.79 4.1 0c0,-0.28 0.02,-0.54 0.05,-0.78l0.89 0c0,0.06 0,0.19 0,0.36 -0.03,0.18 -0.05,0.32 -0.05,0.42l5.36 0c-0.03,0.91 -0.08,1.76 -0.15,2.53 -0.04,1.15 -0.79,1.71 -2.26,1.68 -0.42,0 -1.13,0 -2.11,0zm-1.89 -5.1c-0.18,-0.24 -0.37,-0.47 -0.58,-0.68 1.12,-0.56 1.89,-1.16 2.31,-1.79 -0.17,-0.1 -0.43,-0.26 -0.78,-0.47 -0.21,-0.1 -0.37,-0.19 -0.48,-0.26l0.42 -0.58 1.16 0.63c0.18,-0.46 0.28,-1.02 0.32,-1.68l-1.63 0 0 -0.74 1.68 0c0,-0.52 0,-1.05 0,-1.58l0.89 0c0,0.18 -0.01,0.44 -0.05,0.79 0,0.35 -0.02,0.62 -0.05,0.79l2.68 0c0,1.68 0.03,2.95 0.1,3.79 0.14,0.59 0.37,0.89 0.69,0.89 0.17,0 0.31,-0.17 0.42,-0.53 0,-0.1 0.02,-0.28 0.05,-0.52 0.07,-0.42 0.12,-0.75 0.16,-1 0.07,0 0.17,0.03 0.31,0.11 0.14,0.03 0.25,0.07 0.32,0.1 -0.04,0.7 -0.12,1.23 -0.26,1.58 -0.14,0.73 -0.49,1.1 -1.06,1.1 -0.77,-0.03 -1.24,-0.56 -1.42,-1.57 -0.06,-0.88 -0.1,-1.95 -0.1,-3.21l-1.95 0c-0.07,0.84 -0.21,1.52 -0.42,2.05l1.69 0.94 -0.53 0.74 -1.47 -0.95c-0.49,0.71 -1.3,1.39 -2.42,2.05zm-4.36 -4.72l0 -0.74 2 0 0 -1.68 0.84 0 0 1.68 1.52 0 0 0.74 -1.52 0 0 1.42c0.52,-0.11 1.03,-0.22 1.52,-0.32 0,0.45 0,0.7 0,0.73 -0.49,0.11 -1,0.22 -1.52,0.32l0 1.26c0.03,0.91 -0.4,1.37 -1.32,1.37 -0.38,0 -0.77,0 -1.15,0 -0.04,-0.28 -0.11,-0.54 -0.21,-0.79 0.42,0 0.8,0 1.15,0 0.49,0.04 0.72,-0.19 0.69,-0.68l0 -1 -1.95 0.42 -0.16 -0.79c0.14,-0.03 0.37,-0.07 0.69,-0.11 0.63,-0.1 1.1,-0.19 1.42,-0.26l0 -1.57 -2 0z"/>
  <path id="21" class="fil0" d="M300.87 206.96l0 -4.59 8.83 0 0 4.59 -8.83 0zm5.31 7.41l0 -5.79 4.78 0 0 5.79 -0.84 0 0 -0.84 -3.1 0 0 0.84 -0.84 0zm-6.63 0l0 -5.79 4.79 0 0 5.79 -0.84 0 0 -0.84 -3.1 0 0 0.84 -0.85 0zm2.21 -11.21l0 2.95 7.05 0 0 -2.95 -7.05 0zm5.26 6.21l0 3.47 3.1 0 0 -3.47 -3.1 0zm-6.62 0l0 3.47 3.1 0 0 -3.47 -3.1 0z"/>
  <path id="22" class="fil0" d="M318.5 209.11l0 -6 2.31 0c0.03,-0.17 0.09,-0.4 0.15,-0.68 0.08,-0.32 0.13,-0.54 0.16,-0.68l0.84 0.1c-0.1,0.42 -0.22,0.84 -0.36,1.26l3.52 0 0 6 -3.58 0c-0.45,0.74 -1.21,1.42 -2.26,2.05l2.84 0 0 -1.47 0.84 0 0 1.47 2.89 0 0 0.74 -2.89 0 0 2.47 -0.84 0 0 -2.47 -4.36 0 0 -0.74 1.42 0c-0.03,-0.07 -0.09,-0.14 -0.16,-0.21 -0.14,-0.17 -0.24,-0.3 -0.31,-0.37 0.87,-0.45 1.52,-0.94 1.94,-1.47l-2.15 0zm-4.74 5.2c-0.28,-0.21 -0.52,-0.37 -0.73,-0.47 0.35,-0.74 0.57,-1.47 0.68,-2.21 0.11,-0.7 0.16,-1.77 0.16,-3.21l0 -6.09 0.84 0 0 3.89 1.53 0 0 -4.2 0.79 0 0 4.2 0.84 0 0 0.74 -3.16 0 0 1.46 0 0.27 2.41 0 0 5.52 -0.79 0 0 -4.79 -1.68 0c0.04,1.89 -0.26,3.52 -0.89,4.89zm10.57 -5.93l0 -1.95 -2.16 0c0,0.74 -0.11,1.38 -0.31,1.95l2.47 0zm-5.04 -4.53l0 1.9 2.14 0 0 -1.9 -2.14 0zm5.04 0l-2.16 0 0 1.9 2.16 0 0 -1.9zm-3.26 4.53c0.21,-0.53 0.34,-1.18 0.37,-1.95l-2.15 0 0 1.95 1.78 0z"/>
  <path id="23" class="fil0" d="M338.64 214.31c-0.56,0.04 -0.98,-0.26 -1.26,-0.89 -0.42,-0.6 -0.61,-2.11 -0.57,-4.52l0 -0.53 -8.26 0 0 -0.79 9.15 0 0 1.32c-0.04,2.17 0.12,3.54 0.47,4.1 0.11,0.24 0.26,0.38 0.47,0.42 0.25,-0.04 0.41,-0.23 0.48,-0.58 0,-0.07 0.02,-0.21 0.05,-0.42 0.07,-0.63 0.12,-1.16 0.16,-1.58 0.28,0.11 0.54,0.19 0.79,0.27 0,0.56 -0.07,1.2 -0.21,1.94 -0.14,0.84 -0.56,1.26 -1.27,1.26zm-10.78 -6.67c-0.03,-0.07 -0.12,-0.21 -0.26,-0.42 -0.14,-0.22 -0.23,-0.35 -0.26,-0.42 1.29,-1.41 2.33,-3.09 3.1,-5.05l0.89 0.16c-0.17,0.45 -0.37,0.87 -0.58,1.26l8.68 0 0 0.84 -9.05 0c-0.59,1.16 -1.43,2.36 -2.52,3.63zm2.26 -1.48l0 -0.79 8.31 0 0 0.79 -8.31 0z"/>
  <path id="24" class="fil0" d="M344.44 205.75l0 -0.79 4.2 0 0 -1.53 0.9 0 0 1.53 4.36 0 0 0.79 -4.36 0 0 1.67 3.52 0 0 4.31 -0.89 0 0 -3.57 -6.11 0 0 3.57 -0.89 0 0 -4.31 3.47 0 0 -1.67 -4.2 0zm-2.27 8.62c-0.28,-0.21 -0.53,-0.41 -0.74,-0.58 0.53,-0.88 0.88,-1.77 1.05,-2.68 0.18,-0.88 0.27,-2.21 0.27,-4l0 -4.57c3.71,0 7.34,-0.16 10.88,-0.48l0.32 0.84c-2.88,0.21 -6.31,0.36 -10.31,0.43l0 3.83c0,1.86 -0.11,3.28 -0.31,4.26 -0.18,0.95 -0.56,1.93 -1.16,2.95zm2 0.05c-0.03,-0.11 -0.12,-0.28 -0.26,-0.53 -0.07,-0.14 -0.12,-0.24 -0.16,-0.31 3.09,-0.49 4.7,-1.54 4.84,-3.16 0.1,-0.42 0.16,-0.87 0.16,-1.36l0.84 0c0,0.52 -0.04,1 -0.11,1.42 -0.03,0.31 -0.1,0.59 -0.21,0.84 0.84,0.35 2.05,0.89 3.63,1.63 0.56,0.24 0.98,0.44 1.26,0.58l-0.47 0.78c-2.03,-1.05 -3.61,-1.82 -4.73,-2.31 -0.67,1.09 -2.26,1.89 -4.79,2.42z"/>
  <path id="25" class="fil0" d="M357.59 212.16c0.1,-1.16 0.74,-1.79 1.89,-1.89 1.12,0.1 1.74,0.73 1.84,1.89 -0.1,1.05 -0.72,1.63 -1.84,1.73 -1.15,-0.1 -1.79,-0.68 -1.89,-1.73zm0.58 0c0.07,0.7 0.51,1.09 1.31,1.16 0.77,-0.07 1.19,-0.46 1.27,-1.16 -0.08,-0.81 -0.5,-1.24 -1.27,-1.32 -0.8,0.08 -1.24,0.51 -1.31,1.32z"/>
  <path class="fil1" d="M0.64 1.7c0,-0.54 0.14,-0.96 0.43,-1.25 0.29,-0.3 0.69,-0.45 1.21,-0.45l2.28 0c0.53,0 0.94,0.15 1.23,0.45 0.3,0.29 0.45,0.71 0.45,1.25l0 0.31 -2.07 1.08 0 -1.12 -1.49 0 0 3.14 3.56 -1.83 0 7.47c0,0.54 -0.15,0.96 -0.44,1.26 -0.29,0.3 -0.71,0.45 -1.24,0.45l-2.28 0c-0.52,0 -0.92,-0.15 -1.21,-0.45 -0.29,-0.3 -0.43,-0.72 -0.43,-1.27l0 -1.16 2.04 -1.06 0 1.96 1.49 0 0 -3.91 -3.53 1.84 0 -6.71z"/>
  <polygon id="1" class="fil1" points="321.09,10.43 323.12,10.43 323.12,12.46 321.09,12.46 "/>
  <path id="2" class="fil1" d="M21.08 5.19l0 -3.22 -1.5 0 0 3.97 1.5 -0.75zm2.05 1.15l-3.55 1.83 0 4.29 -2.05 0 0 -12.46 3.93 0c0.53,0 0.94,0.15 1.23,0.45 0.29,0.29 0.44,0.71 0.44,1.25l0 4.64z"/>
  <polygon id="3" class="fil1" points="39.17,12.46 34.24,12.46 34.24,0 39.17,0 39.17,1.99 36.29,1.99 36.29,5.21 39.17,3.75 39.17,5.98 36.29,7.45 36.29,10.46 39.17,10.46 "/>
  <path id="4" class="fil1" d="M50.22 1.7c0,-0.54 0.15,-0.96 0.44,-1.25 0.29,-0.3 0.69,-0.45 1.21,-0.45l2.28 0c0.52,0 0.93,0.15 1.23,0.45 0.29,0.29 0.44,0.71 0.44,1.25l0 1.62 -2.06 1.04 0 -2.39 -1.49 0 0 8.51 1.49 0 0 -1.76 2.06 -1.06 0 3.08c0,0.55 -0.15,0.97 -0.44,1.27 -0.29,0.3 -0.7,0.45 -1.23,0.45l-2.28 0c-0.52,0 -0.92,-0.15 -1.21,-0.45 -0.29,-0.3 -0.44,-0.72 -0.44,-1.26l0 -9.05z"/>
  <polygon id="5" class="fil1" points="69.16,12.46 67.11,12.46 67.11,0 69.16,0 "/>
  <path id="6" class="fil1" d="M84.03 4.99l0 -3.02 -1.51 0 0 3.76 1.51 -0.74zm2.05 7.47l-2.05 0 0 -5.28 -1.51 0.77 0 4.51 -2.04 0 0 -10.76c0,-0.54 0.14,-0.96 0.43,-1.25 0.29,-0.3 0.69,-0.45 1.21,-0.45l2.29 0c0.52,0 0.93,0.15 1.22,0.45 0.3,0.29 0.45,0.71 0.45,1.25l0 10.76z"/>
  <polygon id="7" class="fil1" points="102.17,10.46 102.17,12.46 97.39,12.46 97.39,0 99.43,0 99.43,10.46 "/>
  <path id="8" class="fil1" d="M116.49 1.7c0,-0.54 0.14,-0.96 0.43,-1.25 0.29,-0.3 0.69,-0.45 1.21,-0.45l2.28 0c0.53,0 0.94,0.15 1.23,0.45 0.3,0.29 0.44,0.71 0.44,1.25l0 1.62 -2.06 1.04 0 -2.39 -1.49 0 0 8.51 1.49 0 0 -1.76 2.06 -1.06 0 3.08c0,0.55 -0.14,0.97 -0.43,1.27 -0.29,0.3 -0.71,0.45 -1.24,0.45l-2.28 0c-0.52,0 -0.92,-0.15 -1.21,-0.45 -0.29,-0.3 -0.43,-0.72 -0.43,-1.26l0 -9.05z"/>
  <path id="9" class="fil1" d="M133.38 0l2.05 0 0 10.46 1.5 0 0 -10.46 2.05 0 0 10.75c0,0.54 -0.15,0.96 -0.44,1.26 -0.29,0.3 -0.7,0.45 -1.23,0.45l-2.28 0c-0.52,0 -0.93,-0.15 -1.22,-0.45 -0.29,-0.3 -0.43,-0.72 -0.43,-1.26l0 -10.75z"/>
  <path id="10" class="fil1" d="M150.27 1.7c0,-0.54 0.15,-0.96 0.44,-1.25 0.29,-0.3 0.69,-0.45 1.21,-0.45l2.28 0c0.52,0 0.93,0.15 1.23,0.45 0.3,0.29 0.44,0.71 0.44,1.25l0 0.31 -2.06 1.08 0 -1.12 -1.49 0 0 3.14 3.55 -1.83 0 7.47c0,0.54 -0.14,0.96 -0.43,1.26 -0.3,0.3 -0.71,0.45 -1.24,0.45l-2.28 0c-0.52,0 -0.92,-0.15 -1.21,-0.45 -0.29,-0.3 -0.44,-0.72 -0.44,-1.27l0 -1.16 2.05 -1.06 0 1.96 1.49 0 0 -3.91 -3.54 1.84 0 -6.71z"/>
  <polygon id="11" class="fil1" points="168.55,12.46 168.55,1.99 166.53,1.99 166.53,0 172.61,0 172.61,1.99 170.59,1.99 170.59,12.46 "/>
  <path id="12" class="fil1" d="M183.27 1.7c0,-0.54 0.14,-0.96 0.43,-1.25 0.29,-0.3 0.7,-0.45 1.22,-0.45l2.27 0c0.53,0 0.94,0.15 1.24,0.45 0.29,0.29 0.44,0.71 0.44,1.25l0 9.05c0,0.54 -0.15,0.96 -0.44,1.26 -0.29,0.3 -0.7,0.45 -1.24,0.45l-2.27 0c-0.52,0 -0.93,-0.15 -1.22,-0.45 -0.29,-0.3 -0.43,-0.72 -0.43,-1.26l0 -9.05zm3.54 0.27l-1.49 0 0 8.51 1.49 0 0 -8.51z"/>
  <path id="13" class="fil1" d="M205.73 12.46l-2.01 0 0 -10.47 -1.51 0 0 10.47 -2.05 0 0 -10.76c0,-0.54 0.15,-0.96 0.44,-1.25 0.29,-0.3 0.69,-0.45 1.21,-0.45l1.73 0c0.37,0 0.66,0.1 0.87,0.32 0.21,0.21 0.31,0.5 0.31,0.88 0,-0.38 0.1,-0.68 0.31,-0.89 0.2,-0.21 0.49,-0.31 0.86,-0.31l1.72 0c0.52,0 0.93,0.15 1.23,0.45 0.29,0.29 0.44,0.71 0.44,1.25l0 10.76 -2.06 0 0 -10.47 -1.49 0 0 10.47z"/>
  <path id="14" class="fil1" d="M228.09 0c0.52,0 0.93,0.15 1.23,0.45 0.29,0.29 0.44,0.71 0.44,1.25l0 9.05c0,0.54 -0.15,0.96 -0.44,1.26 -0.29,0.3 -0.7,0.45 -1.23,0.45l-3.93 0 0 -12.46 3.93 0zm-0.38 1.97l-1.5 0 0 8.51 1.5 0 0 -8.51z"/>
  <polygon id="15" class="fil1" points="245.98,12.46 241.05,12.46 241.05,0 245.98,0 245.98,1.99 243.1,1.99 243.1,5.21 245.98,3.75 245.98,5.98 243.1,7.45 243.1,10.46 245.98,10.46 "/>
  <path id="16" class="fil1" d="M257.03 1.7c0,-0.54 0.15,-0.96 0.44,-1.25 0.29,-0.3 0.69,-0.45 1.21,-0.45l2.28 0c0.53,0 0.94,0.15 1.23,0.45 0.3,0.29 0.44,0.71 0.44,1.25l0 0.31 -2.06 1.08 0 -1.12 -1.49 0 0 3.14 3.55 -1.83 0 7.47c0,0.54 -0.14,0.96 -0.43,1.26 -0.3,0.3 -0.71,0.45 -1.24,0.45l-2.28 0c-0.52,0 -0.92,-0.15 -1.21,-0.45 -0.29,-0.3 -0.44,-0.72 -0.44,-1.27l0 -1.16 2.05 -1.06 0 1.96 1.49 0 0 -3.91 -3.54 1.84 0 -6.71z"/>
  <polygon id="17" class="fil1" points="275.97,12.46 273.93,12.46 273.93,0 275.97,0 "/>
  <path id="18" class="fil1" d="M287.27 1.7c0,-0.54 0.15,-0.96 0.44,-1.25 0.29,-0.3 0.69,-0.45 1.21,-0.45l2.28 0c0.52,0 0.93,0.15 1.23,0.45 0.29,0.29 0.44,0.71 0.44,1.25l0 1.78 -2.06 1.04 0 -2.55 -1.49 0 0 8.51 1.49 0 0 -2.8 -0.83 0.43 0 -2.25 2.89 -1.45 0 8.05 -3.95 0c-0.52,0 -0.92,-0.15 -1.21,-0.45 -0.29,-0.3 -0.44,-0.72 -0.44,-1.26l0 -9.05z"/>
  <path id="19" class="fil1" d="M306.23 12.46l-2.03 0 0 -12.46 2.03 0 0.01 0.98c0.05,-0.33 0.17,-0.57 0.37,-0.73 0.2,-0.17 0.47,-0.25 0.81,-0.25l0.7 0c0.52,0 0.93,0.15 1.22,0.45 0.3,0.29 0.44,0.71 0.44,1.25l0 10.76 -2.04 0 0 -10.47 -1.51 0 0 10.47z"/>
  <path class="fil2" d="M41.4 22.57l0 76.67 10.92 0 0 -76.67 15.12 0 0 78.49c0,4.36 -1.07,7.59 -3.22,9.67 -2.13,2.08 -5.44,3.11 -9.89,3.11l-11.74 0c-2.7,0 -4.8,-0.77 -6.29,-2.32 -1.52,-1.54 -2.26,-3.71 -2.26,-6.49 0,2.78 -0.77,4.95 -2.28,6.49 -1.51,1.55 -3.66,2.32 -6.4,2.32l-12.65 0c-3.81,0 -6.77,-1.09 -8.9,-3.27 -2.12,-2.19 -3.17,-5.28 -3.17,-9.24l0 -78.76 14.99 0 0 76.67 11.04 0 0 -76.67 14.73 0zm70.81 91.27l-36.12 0 0 -91.27 36.12 0 0 14.6 -21.13 0 0 23.56 21.13 -10.65 0 16.31 -21.13 10.78 0 22.07 21.13 0 0 14.6zm33.6 -14.2l0 -29.35 -12.1 6.03 0 23.32 12.1 0zm14.46 -34.35l0 35.9c0,4.28 -1.09,7.46 -3.31,9.54 -2.19,2.08 -5.56,3.11 -10.1,3.11l-27.62 0 0 -91.27 28.82 0c3.86,0 6.86,1.1 9.01,3.27 2.13,2.19 3.2,5.26 3.2,9.18l0 19.23c0,3.07 -0.5,5.5 -1.53,7.25 -1.03,1.75 -2.68,3 -4.89,3.79l6.42 0zm-14.46 -10.21l0 -18.43 -12.1 0 0 24.33 12.1 -5.9zm49.31 -20.06c0,-3.92 1.05,-6.99 3.17,-9.18 2.13,-2.17 5.09,-3.27 8.9,-3.27l16.68 0c3.86,0 6.86,1.1 9.03,3.29 2.17,2.17 3.25,5.24 3.25,9.19l0 2.25 -15.13 7.89 0 -8.15 -10.91 0 0 22.99 26.04 -13.43 0 54.73c0,3.96 -1.08,7.05 -3.2,9.24 -2.15,2.18 -5.18,3.27 -9.08,3.27l-16.68 0c-3.81,0 -6.77,-1.09 -8.9,-3.29 -2.12,-2.17 -3.17,-5.26 -3.17,-9.25l0 -8.54 14.99 -7.76 0 14.38 10.91 0 0 -28.7 -25.9 13.55 0 -49.21zm85.82 78.82l-36.12 0 0 -91.27 36.12 0 0 14.6 -21.13 0 0 23.56 21.13 -10.65 0 16.31 -21.13 10.78 0 22.07 21.13 0 0 14.6zm48.06 -46.05l-11.07 5.66 17.1 40.39 -15.67 0 -14.16 -33.77 -2.24 1.16 0 32.61 -14.99 0 0 -91.27 28.82 0c3.82,0 6.8,1.1 8.97,3.27 2.17,2.19 3.24,5.26 3.24,9.18l0 32.77zm-14.99 -8.39l0 -22.36 -11.05 0 0 27.88 11.05 -5.52zm33.26 54.44l-16.17 -91.27 15.1 0 9.75 58.26 9.69 -58.26 15.04 0 -16.05 91.27 -17.36 0zm50.74 0l-14.99 0 0 -91.27 14.99 0 0 91.27zm8.69 -78.82c0,-3.92 1.06,-6.99 3.18,-9.18 2.13,-2.17 5.09,-3.27 8.9,-3.27l16.68 0c3.86,0 6.86,1.1 9.03,3.27 2.17,2.19 3.24,5.26 3.24,9.21l0 11.88 -15.12 7.58 0 -17.47 -10.92 0 0 62.34 10.92 0 0 -12.91 15.12 -7.76 0 22.59c0,3.99 -1.07,7.08 -3.2,9.27 -2.14,2.18 -5.17,3.27 -9.07,3.27l-16.68 0c-3.81,0 -6.77,-1.09 -8.9,-3.27 -2.12,-2.19 -3.18,-5.28 -3.18,-9.24l0 -66.31zm85.83 78.82l-36.12 0 0 -91.27 36.12 0 0 14.6 -21.13 0 0 23.56 21.13 -10.65 0 16.31 -21.13 10.78 0 22.07 21.13 0 0 14.6z"/>
  <path class="fil0" d="M0.64 140.21l7.46 0.81 0 1.86 28.44 0 3.08 -3.22 7.85 4.93 -2.62 2.12 0 35.45c0,3.82 -1.71,5.74 -5.14,5.74l-4.48 0c0,-3.4 -1.63,-5.09 -4.88,-5.09l0.2 -3.27c1.57,0.13 3.39,0.2 5.44,0.2 0.84,0 1.26,-0.59 1.26,-1.76l0 -4.54 -4.69 4.79c-0.97,-2.71 -2.06,-5.25 -3.27,-7.6 -2.82,4.93 -6.21,9.43 -10.17,13.5l-2.57 -2.13c2.08,-3.15 3.91,-6.36 5.49,-9.61l-4.28 4.43c-0.68,-1.95 -1.38,-3.84 -2.12,-5.69 -1.74,3.09 -3.7,5.96 -5.89,8.61l-1.65 -1.31 0 9.07 -7.46 0.91 0 -48.2zm18.48 23.72c1.48,2.35 2.65,4.72 3.52,7.1 1.11,-2.35 2.05,-4.72 2.82,-7.1 -1.24,-1.88 -2.51,-3.64 -3.82,-5.28l2.52 -2.98c1,0.84 1.97,1.71 2.91,2.62 0.77,-3.09 1.37,-6.23 1.77,-9.42l8.41 1.52 0 -3.48 -29.15 0 0 6.75 1.3 -1.56c1.51,1.37 2.94,2.88 4.28,4.53 0.44,-2.56 0.77,-5.13 1.01,-7.76l8.56 1.52c-1.04,4.86 -2.42,9.37 -4.13,13.54zm-6.95 -0.25c-1.27,-2.46 -2.64,-4.73 -4.07,-6.85l0 18.58c1.64,-3.76 2.99,-7.67 4.07,-11.73zm20.34 0.65c1.99,2.45 3.56,4.95 4.74,7.51l0 -21.05c-1.22,4.76 -2.79,9.28 -4.74,13.54z"/>
  <path id="1" class="fil0" d="M69.54 147.52l6.95 3.62c1.35,-3.73 2.22,-7.65 2.63,-11.79l7.75 1.32c-0.3,1.23 -0.66,2.45 -1.06,3.62l7.25 0 2.52 -3.02 7.51 5.34 -2.47 1.71c-1.88,3.55 -4.12,6.68 -6.7,9.36 3.18,1.75 6.53,3.21 10.02,4.39l-3.48 7.39c-1.14,-0.53 -2.25,-1.05 -3.32,-1.55l4.98 3.88 -2.16 2.16 0 13.3 -7.86 0.95 0 -3.37 -7.95 0 0 2.72 -7.66 0.95 0 -20.59c-0.43,0.09 -0.82,0.2 -1.16,0.3l-1.4 -3.08c4.13,-2.04 7.6,-4.28 10.42,-6.69 -1.31,-1.48 -2.4,-2.98 -3.27,-4.53 -1.35,2.05 -2.84,3.91 -4.48,5.59l-2.82 -2.26c0.8,-1.45 1.49,-2.93 2.06,-4.44 -3.66,5.14 -7.42,9.77 -11.28,13.9 2.58,-0.6 5.15,-1.31 7.71,-2.12l1.55 3.38c-4.16,2.65 -9.16,5.23 -15,7.75l-3.37 -7.15c0.77,-0.13 1.5,-0.26 2.22,-0.4 1.87,-2.55 3.58,-5.14 5.13,-7.75 -1.98,0.6 -3.79,1.07 -5.44,1.41l-1.66 -6.3 0.9 0c2.59,-5.07 4.33,-10.31 5.24,-15.71l8.36 2.46c-2.32,5.31 -4.89,9.59 -7.7,12.84 1.34,-0.16 2.6,-0.37 3.77,-0.65 1.18,-2.28 2.27,-4.6 3.27,-6.94zm3.68 26.78l1.62 3.28c-4.44,3.29 -9.78,6.48 -16.02,9.56l-3.37 -7.2c5.87,-1.27 11.8,-3.15 17.77,-5.64zm18.88 6.45l0 -7.36 -7.95 0 0 7.36 7.95 0zm-7.85 -32.53c-0.3,0.64 -0.6,1.29 -0.91,1.96 1.65,1.48 3.36,2.84 5.13,4.08 1.62,-1.91 2.88,-3.93 3.79,-6.04l-8.01 0zm-5.34 18.88l5.24 0.66 0 1.7 7.86 0 3.12 -2.66c-2.52,-1.37 -4.76,-2.87 -6.7,-4.49 -2.89,2.06 -6.07,3.65 -9.52,4.79z"/>
  <path id="2" class="fil0" d="M118.51 149.68l0 -9.82 7.5 0.95 0 7.96 1.82 -1.81 3.57 3.17 -0.65 -2.36 9.11 0 0 -7.91 8.41 1.06 0 6.85 5.13 0 2.98 -2.57 4.98 4.18 -2.22 2.21 -10.87 0 0 8.01 1.61 0 3.38 -2.42 6.69 5.24 -2.31 1.86c-1.69,4.13 -4.22,7.79 -7.61,10.98 3.63,2.28 7.12,4.11 10.48,5.49l-5.9 6.9c-4.03,-2.29 -7.55,-4.84 -10.57,-7.66 -4.2,2.69 -9.18,4.97 -14.96,6.85l-2.21 -2.67c5.27,-2.75 9.67,-5.55 13.19,-8.41 -2.95,-3.55 -4.85,-7.5 -5.68,-11.83l-2.47 0 -1.16 -4.33 9.11 0 0 -8.01 -7.56 0 -1.96 1.81 -4.33 0 0 8.77c1.48,-0.51 2.81,-1.04 3.98,-1.62l1.57 3.33c-1.45,1.31 -3.29,2.65 -5.55,4.03l0 13.19c0,4.3 -1.95,6.45 -5.84,6.45l-3.37 0c0,-2.73 -1.31,-4.15 -3.93,-4.28l0.25 -3.83c1.52,0.37 2.87,0.55 4.08,0.55 0.87,0 1.31,-0.47 1.31,-1.41l0 -6.6c-1.31,0.61 -2.69,1.25 -4.12,1.92l-2.43 -7.61c1.85,-0.4 4.03,-0.98 6.55,-1.76l0 -11.13 -4.88 0 -0.96 -3.72 5.84 0zm26.29 21.55c2.15,-2.42 3.7,-4.85 4.68,-7.3l-10.63 0c1.38,2.55 3.36,4.98 5.95,7.3z"/>
  <path id="3" class="fil0" d="M208.87 151.44l3.22 -2.92 5.19 4.69 -2.37 2.41 -14.85 0c2.24,3.93 4.63,7.1 7.15,9.51 3.35,3.43 6.71,6.23 10.07,8.42l-6.65 8.06c-4.8,-4.54 -9.16,-11.05 -13.09,-19.54l0 25.12 -9.01 1.11 0 -22.46c-3.93,6.14 -9.46,11.48 -16.57,16.02l-3.28 -3.47c6.78,-5.69 11.87,-13.26 15.27,-22.77l-13.7 0 -1.01 -4.18 19.29 0 0 -11.78 9.01 1.01 0 10.77 11.33 0zm-5.49 -12.04c3.69,1.95 6.65,3.9 8.87,5.85l-5.5 5.58c-2.14,-3.38 -4.41,-6.17 -6.79,-8.35l3.42 -3.08z"/>
  <polygon id="4" class="fil0" points="322.02,166.5 270.45,166.5 270.45,161.41 322.02,161.41 "/>
  <path id="5" class="fil0" d="M367.46 146.76l2.97 -2.77 4.93 4.53 -2.36 2.36 -19.99 0 -2.32 4.99 18.03 0 3.12 -2.77 5.03 4.53 -2.36 2.37 -25.73 0 -2.22 4.74 13.74 0 3.78 -2.62 7.35 5.33 -2.46 1.97 -9.06 8.16c3.15,1.11 6.07,2.28 8.75,3.52l-5.93 7.25c-6.82,-4.29 -15.6,-8.32 -26.34,-12.09l2.26 -4.12c5.55,0.97 10.7,2.16 15.47,3.57l6.29 -6.95 -18.23 0 -0.05 -0.09 -6.05 0c1.31,-3.03 2.57,-5.92 3.79,-8.67l-10.53 0 -1.01 -4.13 13.35 0c0.76,-1.75 1.52,-3.4 2.26,-4.99l-12.74 0 -1.05 -4.12 15.71 0c0.97,-2.08 1.92,-4.1 2.87,-6.04l8.35 1.36 -2.16 4.68 12.54 0z"/>
  <path id="6" class="fil0" d="M422.82 147.52l0 -2.22 -26.09 0 0 2.22 26.09 0zm-26.09 -5.8l26.74 0 2.22 -2.16 6.44 4.88 -1.36 1.56 0 5.04 -3.82 0.65 4.12 4.39c-3.82,0.53 -8.43,0.92 -13.84,1.16l0 2.51 4.88 0 2.78 -2.42 5.39 4.13 -1.62 1.77 0 6.69 -0.9 0.1 5.58 3.42 -2.32 1.82 0 8.51c0,2.65 -1.42,3.97 -4.28,3.97l-3.77 0c0,-2.27 -1.95,-3.42 -5.84,-3.42l0.2 -2.46c0.8,0.1 1.7,0.16 2.67,0.2 0,-0.41 -0.04,-0.78 -0.1,-1.11 -5.37,1.35 -10.09,2.28 -14.15,2.82l-1.36 -5.38c2.18,0 4.23,-0.06 6.14,-0.16l0 -2.57 -7.81 0 0 10.37 -6.54 0.86 0 -14.91c-1.04,6.32 -3.5,11.36 -7.41,15.11l-3.47 -2.87c0.97,-1.88 1.75,-3.96 2.32,-6.24 0.57,-2.55 0.85,-5 0.85,-7.35l0 -30.82 8.26 1.16 0 0.75zm5.99 30.56l7.81 0 0 -2.61 -5.49 0 0 0.65 -5.94 0.71 0 -12.99 5.94 0.75 0 0.96 5.49 0 0 -2.27c-3.76,0.11 -7.81,0.15 -12.13,0.15l-0.96 -3.77c10.07,-0.3 18.53,-1.04 25.38,-2.22l0 -0.6 -26.09 0 0 13.54c0,2.32 -0.13,4.46 -0.4,6.4l6.39 0.81 0 0.49zm17.89 9.78c0.76,0.03 1.54,0.05 2.31,0.05 1.14,0 1.71,-0.42 1.71,-1.26l0 -5.19 -3.28 0c1.18,1.62 2.15,3.28 2.93,4.99l-3.67 1.41zm-0.46 -6.4l-2.92 0 0 1.87c0.6,-0.11 1.16,-0.19 1.66,-0.25 -0.16,-0.41 -0.35,-0.78 -0.55,-1.11l1.81 -0.51zm-2.92 -3.38l6.8 0 1.81 -2.06 -3.43 0.41 0 -0.96 -5.18 0 0 2.61zm-6.7 -8.95l-5.49 0 0 2.96 5.49 0 0 -2.96zm11.88 2.96l0 -2.96 -5.18 0 0 2.96 5.18 0z"/>
  <path id="7" class="fil0" d="M448.77 165.19c-1.14,1.14 -2.24,2.09 -3.32,2.87l-2.92 -2.72c4.8,-7.15 8.07,-15.27 9.81,-24.37l9.53 1.6c-1.32,3.84 -2.8,7.34 -4.49,10.53l0 32.88 -8.61 1.01 0 -21.8zm16.52 -24.17l8.91 1.31 0 12.28c1.92,-2.38 3.75,-4.96 5.49,-7.75l8.96 5.34c-4.56,5.2 -9.38,9.41 -14.45,12.63l0 12.54c0,1.11 0.37,1.7 1.11,1.76l3.98 0c1,0 1.61,-0.88 1.81,-2.66l1.66 -7.15 4.24 0.95c-0.48,1.52 -0.71,2.91 -0.71,4.18 0,3.09 1.2,5.31 3.62,6.65 -1.31,3.86 -4.09,5.79 -8.35,5.79l-10.02 0c-3.97,0 -6.05,-1.93 -6.25,-5.79l0 -11.64c-1.85,0.74 -3.7,1.37 -5.54,1.87l-1.76 -3.57c2.54,-1.18 4.99,-2.65 7.3,-4.43l0 -22.31z"/>
  <path id="8" class="fil0" d="M525.58 140.46l8.36 1.46c-0.67,2.73 -1.56,5.28 -2.67,7.66l6.04 0 3.28 -3.47 6.25 5.18 -1.36 1.66 0 13.95c0,10.64 -0.86,16.7 -2.57,18.18 -1.08,1.54 -3.17,2.31 -6.3,2.31l-3.72 0c0,-2.71 -2.17,-4.41 -6.5,-5.08l0.4 -3.32 7.65 0.35c1.28,0 2.02,-0.27 2.22,-0.81 0.74,-2.41 1.11,-5.3 1.11,-8.66l0 -16.47 -8.41 0c-1.91,3.4 -4.25,6.47 -7,9.22l-1.31 -1.01 0 24.28 -7.35 0.7 0 -3.02 -5.99 0 0 2.92 -7.05 0.95 0 -40.83 6.19 0.65c0.7,-2.42 1.14,-4.67 1.31,-6.75l7.96 1.71c-1.48,2.59 -3.06,4.79 -4.73,6.6l2.51 0 2.42 -2.76 6.6 4.77 -1.87 2.07 0 3.78c2.42,-5.07 3.93,-10.48 4.53,-16.22zm-17.87 39.73l5.99 0 0 -13.79 -5.99 0 0 13.79zm0 -17.07l5.99 0 0 -10.83 -5.99 0 0 10.83zm20.44 -2.71c3.05,2.71 5.62,5.6 7.7,8.65l-6.69 4.68c-1.31,-4.12 -2.87,-7.76 -4.69,-10.92l3.68 -2.41z"/>
  <path id="9" class="fil0" d="M593.59 146.96l3.52 -2.97 7.15 4.73 -3.27 1.61 -5.59 5.69 -3.48 -1.46 1.56 -3.73 -28.6 0c-0.57,2.49 -1.37,5.02 -2.41,7.61l-6.95 -3.72c2.68,-3.36 4.75,-6.99 6.19,-10.88l4.23 1.21c-0.1,0.67 -0.21,1.31 -0.3,1.91l12.89 0c-1.14,-1.78 -2.32,-3.35 -3.52,-4.74l3.82 -2.77c2.28,1.22 4.74,2.86 7.35,4.94l-3.58 2.57 10.99 0zm0.75 10.88l2.97 -2.87 4.93 4.42 -2.11 2.13 -14.8 0 0 7.09 8.35 0 2.98 -2.67 4.88 4.33 -2.26 2.17 -13.95 0 0 7.6 18.37 0 -2.16 7 -21.3 0c-6.38,0 -11.06,-2.36 -14.05,-7.1 -1.92,2.99 -4.13,5.71 -6.64,8.16l-3.73 -3.02c4.13,-6.38 6.63,-13.35 7.5,-20.9l9.07 1.62c-0.91,3.38 -2.1,6.57 -3.58,9.56 2.31,2.66 5.07,4.18 8.26,4.58l0 -18.42 -13.1 0 -0.9 -3.68 31.27 0z"/>
  <path id="10" class="fil0" d="M623.92 139.86l6.9 0.76 0 7.3 1.71 0 3.02 -2.87 5.09 4.43 -2.42 2.26 -7.4 0 0 5.39 3.57 0 2.97 -2.76 4.99 4.42 -2.22 2.22 -9.31 0 0 4.48 2.27 0 3.01 -2.77 6.15 4.63 -1.77 1.71 0 6.55c0,6.11 -2.02,9.17 -6.09,9.17l-3.01 0c0,-1.11 -0.19,-2.02 -0.56,-2.72l0 4.89 -6.9 0.85 0 -18.34 -2.72 0 0 15.41 -6.6 0.81 0 -22.35 6.6 0.75 0 1.41 2.72 0 0 -4.48 -10.27 0 -0.91 -3.88 11.18 0 0 -5.39 -4.18 0c-0.94,1.95 -2.05,3.72 -3.33,5.29l-2.87 -2.31c1.18,-4.17 1.9,-8.72 2.17,-13.65l7.35 1.31c-0.43,1.95 -0.97,3.79 -1.61,5.54l2.47 0 0 -8.06zm6.9 38.17c0.6,0.1 1.21,0.22 1.81,0.36 0.77,0 1.16,-1.45 1.16,-4.34l0 -4.59 -2.97 0 0 8.57zm11.73 -34.6l6.65 0.81 0 32.43 -6.65 0.8 0 -34.04zm9.31 -3.06l7.06 0.9 0 39.38c0,4.66 -1.99,7 -5.95,7l-3.47 0c0,-3.22 -1.88,-4.92 -5.64,-5.09l0.25 -3.32c2.42,0.1 4.6,0.15 6.55,0.15 0.8,0 1.2,-0.52 1.2,-1.56l0 -37.46z"/>
  <polygon id="11" class="fil0" points="270.45,166.5 218.89,166.5 218.89,161.41 270.45,161.41 "/>
  <path id="12" class="fil3 str0" d="M0.64 140.21l7.46 0.81 0 1.86 28.44 0 3.08 -3.22 7.85 4.93 -2.62 2.12 0 35.45c0,3.82 -1.71,5.74 -5.14,5.74l-4.48 0c0,-3.4 -1.63,-5.09 -4.88,-5.09l0.2 -3.27c1.57,0.13 3.39,0.2 5.44,0.2 0.84,0 1.26,-0.59 1.26,-1.76l0 -4.54 -4.69 4.79c-0.97,-2.71 -2.06,-5.25 -3.27,-7.6 -2.82,4.93 -6.21,9.43 -10.17,13.5l-2.57 -2.13c2.08,-3.15 3.91,-6.36 5.49,-9.61l-4.28 4.43c-0.68,-1.95 -1.38,-3.84 -2.12,-5.69 -1.74,3.09 -3.7,5.96 -5.89,8.61l-1.65 -1.31 0 9.07 -7.46 0.91 0 -48.2zm18.48 23.72c1.48,2.35 2.65,4.72 3.52,7.1 1.11,-2.35 2.05,-4.72 2.82,-7.1 -1.24,-1.88 -2.51,-3.64 -3.82,-5.28l2.52 -2.98c1,0.84 1.97,1.71 2.91,2.62 0.77,-3.09 1.37,-6.23 1.77,-9.42l8.41 1.52 0 -3.48 -29.15 0 0 6.75 1.3 -1.56c1.51,1.37 2.94,2.88 4.28,4.53 0.44,-2.56 0.77,-5.13 1.01,-7.76l8.56 1.52c-1.04,4.86 -2.42,9.37 -4.13,13.54zm-6.95 -0.25c-1.27,-2.46 -2.64,-4.73 -4.07,-6.85l0 18.58c1.64,-3.76 2.99,-7.67 4.07,-11.73zm20.34 0.65c1.99,2.45 3.56,4.95 4.74,7.51l0 -21.05c-1.22,4.76 -2.79,9.28 -4.74,13.54z"/>
  <path id="13" class="fil3 str0" d="M69.54 147.52l6.95 3.62c1.35,-3.73 2.22,-7.65 2.63,-11.79l7.75 1.32c-0.3,1.23 -0.66,2.45 -1.06,3.62l7.25 0 2.52 -3.02 7.51 5.34 -2.47 1.71c-1.88,3.55 -4.12,6.68 -6.7,9.36 3.18,1.75 6.53,3.21 10.02,4.39l-3.48 7.39c-1.14,-0.53 -2.25,-1.05 -3.32,-1.55l4.98 3.88 -2.16 2.16 0 13.3 -7.86 0.95 0 -3.37 -7.95 0 0 2.72 -7.66 0.95 0 -20.59c-0.43,0.09 -0.82,0.2 -1.16,0.3l-1.4 -3.08c4.13,-2.04 7.6,-4.28 10.42,-6.69 -1.31,-1.48 -2.4,-2.98 -3.27,-4.53 -1.35,2.05 -2.84,3.91 -4.48,5.59l-2.82 -2.26c0.8,-1.45 1.49,-2.93 2.06,-4.44 -3.66,5.14 -7.42,9.77 -11.28,13.9 2.58,-0.6 5.15,-1.31 7.71,-2.12l1.55 3.38c-4.16,2.65 -9.16,5.23 -15,7.75l-3.37 -7.15c0.77,-0.13 1.5,-0.26 2.22,-0.4 1.87,-2.55 3.58,-5.14 5.13,-7.75 -1.98,0.6 -3.79,1.07 -5.44,1.41l-1.66 -6.3 0.9 0c2.59,-5.07 4.33,-10.31 5.24,-15.71l8.36 2.46c-2.32,5.31 -4.89,9.59 -7.7,12.84 1.34,-0.16 2.6,-0.37 3.77,-0.65 1.18,-2.28 2.27,-4.6 3.27,-6.94zm3.68 26.78l1.62 3.28c-4.44,3.29 -9.78,6.48 -16.02,9.56l-3.37 -7.2c5.87,-1.27 11.8,-3.15 17.77,-5.64zm18.88 6.45l0 -7.36 -7.95 0 0 7.36 7.95 0zm-7.85 -32.53c-0.3,0.64 -0.6,1.29 -0.91,1.96 1.65,1.48 3.36,2.84 5.13,4.08 1.62,-1.91 2.88,-3.93 3.79,-6.04l-8.01 0zm-5.34 18.88l5.24 0.66 0 1.7 7.86 0 3.12 -2.66c-2.52,-1.37 -4.76,-2.87 -6.7,-4.49 -2.89,2.06 -6.07,3.65 -9.52,4.79z"/>
  <path id="14" class="fil3 str0" d="M118.51 149.68l0 -9.82 7.5 0.95 0 7.96 1.82 -1.81 3.57 3.17 -0.65 -2.36 9.11 0 0 -7.91 8.41 1.06 0 6.85 5.13 0 2.98 -2.57 4.98 4.18 -2.22 2.21 -10.87 0 0 8.01 1.61 0 3.38 -2.42 6.69 5.24 -2.31 1.86c-1.69,4.13 -4.22,7.79 -7.61,10.98 3.63,2.28 7.12,4.11 10.48,5.49l-5.9 6.9c-4.03,-2.29 -7.55,-4.84 -10.57,-7.66 -4.2,2.69 -9.18,4.97 -14.96,6.85l-2.21 -2.67c5.27,-2.75 9.67,-5.55 13.19,-8.41 -2.95,-3.55 -4.85,-7.5 -5.68,-11.83l-2.47 0 -1.16 -4.33 9.11 0 0 -8.01 -7.56 0 -1.96 1.81 -4.33 0 0 8.77c1.48,-0.51 2.81,-1.04 3.98,-1.62l1.57 3.33c-1.45,1.31 -3.29,2.65 -5.55,4.03l0 13.19c0,4.3 -1.95,6.45 -5.84,6.45l-3.37 0c0,-2.73 -1.31,-4.15 -3.93,-4.28l0.25 -3.83c1.52,0.37 2.87,0.55 4.08,0.55 0.87,0 1.31,-0.47 1.31,-1.41l0 -6.6c-1.31,0.61 -2.69,1.25 -4.12,1.92l-2.43 -7.61c1.85,-0.4 4.03,-0.98 6.55,-1.76l0 -11.13 -4.88 0 -0.96 -3.72 5.84 0zm26.29 21.55c2.15,-2.42 3.7,-4.85 4.68,-7.3l-10.63 0c1.38,2.55 3.36,4.98 5.95,7.3z"/>
  <path id="15" class="fil3 str0" d="M208.87 151.44l3.22 -2.92 5.19 4.69 -2.37 2.41 -14.85 0c2.24,3.93 4.63,7.1 7.15,9.51 3.35,3.43 6.71,6.23 10.07,8.42l-6.65 8.06c-4.8,-4.54 -9.16,-11.05 -13.09,-19.54l0 25.12 -9.01 1.11 0 -22.46c-3.93,6.14 -9.46,11.48 -16.57,16.02l-3.28 -3.47c6.78,-5.69 11.87,-13.26 15.27,-22.77l-13.7 0 -1.01 -4.18 19.29 0 0 -11.78 9.01 1.01 0 10.77 11.33 0zm-5.49 -12.04c3.69,1.95 6.65,3.9 8.87,5.85l-5.5 5.58c-2.14,-3.38 -4.41,-6.17 -6.79,-8.35l3.42 -3.08z"/>
  <polygon id="16" class="fil3 str0" points="322.02,166.5 270.45,166.5 270.45,161.41 322.02,161.41 "/>
  <path id="17" class="fil3 str0" d="M367.46 146.76l2.97 -2.77 4.93 4.53 -2.36 2.36 -19.99 0 -2.32 4.99 18.03 0 3.12 -2.77 5.03 4.53 -2.36 2.37 -25.73 0 -2.22 4.74 13.74 0 3.78 -2.62 7.35 5.33 -2.46 1.97 -9.06 8.16c3.15,1.11 6.07,2.28 8.75,3.52l-5.93 7.25c-6.82,-4.29 -15.6,-8.32 -26.34,-12.09l2.26 -4.12c5.55,0.97 10.7,2.16 15.47,3.57l6.29 -6.95 -18.23 0 -0.05 -0.09 -6.05 0c1.31,-3.03 2.57,-5.92 3.79,-8.67l-10.53 0 -1.01 -4.13 13.35 0c0.76,-1.75 1.52,-3.4 2.26,-4.99l-12.74 0 -1.05 -4.12 15.71 0c0.97,-2.08 1.92,-4.1 2.87,-6.04l8.35 1.36 -2.16 4.68 12.54 0z"/>
  <path id="18" class="fil3 str0" d="M422.82 147.52l0 -2.22 -26.09 0 0 2.22 26.09 0zm-26.09 -5.8l26.74 0 2.22 -2.16 6.44 4.88 -1.36 1.56 0 5.04 -3.82 0.65 4.12 4.39c-3.82,0.53 -8.43,0.92 -13.84,1.16l0 2.51 4.88 0 2.78 -2.42 5.39 4.13 -1.62 1.77 0 6.69 -0.9 0.1 5.58 3.42 -2.32 1.82 0 8.51c0,2.65 -1.42,3.97 -4.28,3.97l-3.77 0c0,-2.27 -1.95,-3.42 -5.84,-3.42l0.2 -2.46c0.8,0.1 1.7,0.16 2.67,0.2 0,-0.41 -0.04,-0.78 -0.1,-1.11 -5.37,1.35 -10.09,2.28 -14.15,2.82l-1.36 -5.38c2.18,0 4.23,-0.06 6.14,-0.16l0 -2.57 -7.81 0 0 10.37 -6.54 0.86 0 -14.91c-1.04,6.32 -3.5,11.36 -7.41,15.11l-3.47 -2.87c0.97,-1.88 1.75,-3.96 2.32,-6.24 0.57,-2.55 0.85,-5 0.85,-7.35l0 -30.82 8.26 1.16 0 0.75zm5.99 30.56l7.81 0 0 -2.61 -5.49 0 0 0.65 -5.94 0.71 0 -12.99 5.94 0.75 0 0.96 5.49 0 0 -2.27c-3.76,0.11 -7.81,0.15 -12.13,0.15l-0.96 -3.77c10.07,-0.3 18.53,-1.04 25.38,-2.22l0 -0.6 -26.09 0 0 13.54c0,2.32 -0.13,4.46 -0.4,6.4l6.39 0.81 0 0.49zm17.89 9.78c0.76,0.03 1.54,0.05 2.31,0.05 1.14,0 1.71,-0.42 1.71,-1.26l0 -5.19 -3.28 0c1.18,1.62 2.15,3.28 2.93,4.99l-3.67 1.41zm-0.46 -6.4l-2.92 0 0 1.87c0.6,-0.11 1.16,-0.19 1.66,-0.25 -0.16,-0.41 -0.35,-0.78 -0.55,-1.11l1.81 -0.51zm-2.92 -3.38l6.8 0 1.81 -2.06 -3.43 0.41 0 -0.96 -5.18 0 0 2.61zm-6.7 -8.95l-5.49 0 0 2.96 5.49 0 0 -2.96zm11.88 2.96l0 -2.96 -5.18 0 0 2.96 5.18 0z"/>
  <path id="19" class="fil3 str0" d="M448.77 165.19c-1.14,1.14 -2.24,2.09 -3.32,2.87l-2.92 -2.72c4.8,-7.15 8.07,-15.27 9.81,-24.37l9.53 1.6c-1.32,3.84 -2.8,7.34 -4.49,10.53l0 32.88 -8.61 1.01 0 -21.8zm16.52 -24.17l8.91 1.31 0 12.28c1.92,-2.38 3.75,-4.96 5.49,-7.75l8.96 5.34c-4.56,5.2 -9.38,9.41 -14.45,12.63l0 12.54c0,1.11 0.37,1.7 1.11,1.76l3.98 0c1,0 1.61,-0.88 1.81,-2.66l1.66 -7.15 4.24 0.95c-0.48,1.52 -0.71,2.91 -0.71,4.18 0,3.09 1.2,5.31 3.62,6.65 -1.31,3.86 -4.09,5.79 -8.35,5.79l-10.02 0c-3.97,0 -6.05,-1.93 -6.25,-5.79l0 -11.64c-1.85,0.74 -3.7,1.37 -5.54,1.87l-1.76 -3.57c2.54,-1.18 4.99,-2.65 7.3,-4.43l0 -22.31z"/>
  <path id="20" class="fil3 str0" d="M525.58 140.46l8.36 1.46c-0.67,2.73 -1.56,5.28 -2.67,7.66l6.04 0 3.28 -3.47 6.25 5.18 -1.36 1.66 0 13.95c0,10.64 -0.86,16.7 -2.57,18.18 -1.08,1.54 -3.17,2.31 -6.3,2.31l-3.72 0c0,-2.71 -2.17,-4.41 -6.5,-5.08l0.4 -3.32 7.65 0.35c1.28,0 2.02,-0.27 2.22,-0.81 0.74,-2.41 1.11,-5.3 1.11,-8.66l0 -16.47 -8.41 0c-1.91,3.4 -4.25,6.47 -7,9.22l-1.31 -1.01 0 24.28 -7.35 0.7 0 -3.02 -5.99 0 0 2.92 -7.05 0.95 0 -40.83 6.19 0.65c0.7,-2.42 1.14,-4.67 1.31,-6.75l7.96 1.71c-1.48,2.59 -3.06,4.79 -4.73,6.6l2.51 0 2.42 -2.76 6.6 4.77 -1.87 2.07 0 3.78c2.42,-5.07 3.93,-10.48 4.53,-16.22zm-17.87 39.73l5.99 0 0 -13.79 -5.99 0 0 13.79zm0 -17.07l5.99 0 0 -10.83 -5.99 0 0 10.83zm20.44 -2.71c3.05,2.71 5.62,5.6 7.7,8.65l-6.69 4.68c-1.31,-4.12 -2.87,-7.76 -4.69,-10.92l3.68 -2.41z"/>
  <path id="21" class="fil3 str0" d="M593.59 146.96l3.52 -2.97 7.15 4.73 -3.27 1.61 -5.59 5.69 -3.48 -1.46 1.56 -3.73 -28.6 0c-0.57,2.49 -1.37,5.02 -2.41,7.61l-6.95 -3.72c2.68,-3.36 4.75,-6.99 6.19,-10.88l4.23 1.21c-0.1,0.67 -0.21,1.31 -0.3,1.91l12.89 0c-1.14,-1.78 -2.32,-3.35 -3.52,-4.74l3.82 -2.77c2.28,1.22 4.74,2.86 7.35,4.94l-3.58 2.57 10.99 0zm0.75 10.88l2.97 -2.87 4.93 4.42 -2.11 2.13 -14.8 0 0 7.09 8.35 0 2.98 -2.67 4.88 4.33 -2.26 2.17 -13.95 0 0 7.6 18.37 0 -2.16 7 -21.3 0c-6.38,0 -11.06,-2.36 -14.05,-7.1 -1.92,2.99 -4.13,5.71 -6.64,8.16l-3.73 -3.02c4.13,-6.38 6.63,-13.35 7.5,-20.9l9.07 1.62c-0.91,3.38 -2.1,6.57 -3.58,9.56 2.31,2.66 5.07,4.18 8.26,4.58l0 -18.42 -13.1 0 -0.9 -3.68 31.27 0z"/>
  <path id="22" class="fil3 str0" d="M623.92 139.86l6.9 0.76 0 7.3 1.71 0 3.02 -2.87 5.09 4.43 -2.42 2.26 -7.4 0 0 5.39 3.57 0 2.97 -2.76 4.99 4.42 -2.22 2.22 -9.31 0 0 4.48 2.27 0 3.01 -2.77 6.15 4.63 -1.77 1.71 0 6.55c0,6.11 -2.02,9.17 -6.09,9.17l-3.01 0c0,-1.11 -0.19,-2.02 -0.56,-2.72l0 4.89 -6.9 0.85 0 -18.34 -2.72 0 0 15.41 -6.6 0.81 0 -22.35 6.6 0.75 0 1.41 2.72 0 0 -4.48 -10.27 0 -0.91 -3.88 11.18 0 0 -5.39 -4.18 0c-0.94,1.95 -2.05,3.72 -3.33,5.29l-2.87 -2.31c1.18,-4.17 1.9,-8.72 2.17,-13.65l7.35 1.31c-0.43,1.95 -0.97,3.79 -1.61,5.54l2.47 0 0 -8.06zm6.9 38.17c0.6,0.1 1.21,0.22 1.81,0.36 0.77,0 1.16,-1.45 1.16,-4.34l0 -4.59 -2.97 0 0 8.57zm11.73 -34.6l6.65 0.81 0 32.43 -6.65 0.8 0 -34.04zm9.31 -3.06l7.06 0.9 0 39.38c0,4.66 -1.99,7 -5.95,7l-3.47 0c0,-3.22 -1.88,-4.92 -5.64,-5.09l0.25 -3.32c2.42,0.1 4.6,0.15 6.55,0.15 0.8,0 1.2,-0.52 1.2,-1.56l0 -37.46z"/>
  <polygon id="23" class="fil3 str0" points="270.45,166.5 218.89,166.5 218.89,161.41 270.45,161.41 "/>
 </g>
</svg>
