<?xml version="1.0" encoding="UTF-8"?>
<!DOCTYPE svg PUBLIC "-//W3C//DTD SVG 1.1//EN" "http://www.w3.org/Graphics/SVG/1.1/DTD/svg11.dtd">
<!-- Creator: CorelDRAW 2017 -->
<svg xmlns="http://www.w3.org/2000/svg" xml:space="preserve" width="339px" height="90px" version="1.1" style="shape-rendering:geometricPrecision; text-rendering:geometricPrecision; image-rendering:optimizeQuality; fill-rule:evenodd; clip-rule:evenodd"
viewBox="0 0 35.7 9.41"
 xmlns:xlink="http://www.w3.org/1999/xlink">
 <defs>
  <style type="text/css">
   <![CDATA[
    .fil1 {fill:white}
    .fil0 {fill:white;fill-rule:nonzero}
   ]]>
  </style>
 </defs>
 <g id="图层_x0020_1">
  <metadata id="CorelCorpID_0Corel-Layer"/>
  <g id="_1936292831008">
   <path class="fil0" d="M0.43 0l8.98 0 0 2.83 2.27 1.88 -2.27 1.88 0 2.82 -9.41 0 0 -9.41 0.43 0zm8.13 0.85l-7.71 0 0 7.71 7.71 0 0 -2.37 1.79 -1.48 -1.79 -1.48 0 -2.38z"/>
   <path class="fil0" d="M3.24 3.59c0.26,0.14 0.5,0.29 0.71,0.45 0.05,0.03 0.05,0.07 0.03,0.12 -0.06,0.11 -0.13,0.21 -0.21,0.31 -0.05,0.06 -0.09,0.05 -0.13,-0.02 -0.02,-0.05 -0.07,-0.13 -0.14,-0.24 -0.57,0.1 -1.08,0.18 -1.55,0.23l-0.13 -0.46c0.12,0.01 0.23,-0.04 0.31,-0.13 0.1,-0.11 0.17,-0.23 0.22,-0.36l-0.79 0 -0.07 -0.3 2.29 0 0.19 -0.22 0.42 0.34 -0.1 0.18 -1.64 0 0.23 0.07c-0.14,0.18 -0.27,0.31 -0.4,0.42 0.26,0 0.53,-0.02 0.81,-0.04 -0.01,-0.03 -0.04,-0.07 -0.07,-0.12 -0.05,-0.06 -0.09,-0.1 -0.11,-0.13l0.13 -0.1zm-1.86 -0.78c0.57,-0.35 1.01,-0.8 1.31,-1.35l0.55 0.17c-0.02,0.02 -0.06,0.07 -0.11,0.14 0.03,-0.04 0.02,-0.03 -0.03,0.03 0.42,0.35 0.89,0.58 1.41,0.68 -0.14,0.14 -0.26,0.3 -0.36,0.48 -0.49,-0.28 -0.9,-0.61 -1.22,-1 -0.23,0.25 -0.48,0.47 -0.76,0.65l1 0 0.11 -0.14 0.39 0.31 -0.08 0.13 -1.42 0 -0.06 -0.25c-0.18,0.11 -0.37,0.22 -0.57,0.31l-0.16 -0.16z"/>
   <path id="1" class="fil0" d="M5.22 1.52l0.44 0 0 0.07 1.57 0 0.12 -0.14 0.43 0.26 -0.09 0.1 0 0.63 -0.44 0 0 -0.05 -1.59 0 0 0.28c0,0.19 -0.01,0.37 -0.04,0.55l0.38 0 0 -0.26 -0.29 0 0 -0.27 0.29 0 0 -0.22 0.42 0 0 0.22 0.35 0 0 -0.24 0.43 0 0 0.24 0.14 0 0.1 -0.13 0.34 0.24 -0.11 0.16 -0.47 0 0 0.26 0.29 0 0.11 -0.15 0.34 0.26 -0.1 0.16 -0.37 0 0.2 0.19c-0.1,0.07 -0.23,0.14 -0.4,0.22 0.18,0.08 0.4,0.13 0.65,0.17 -0.11,0.1 -0.22,0.26 -0.32,0.46 -0.56,-0.2 -0.95,-0.54 -1.15,-1.04l-0.24 0 0 0.47 0.33 -0.07 0.06 0.24c-0.23,0.13 -0.5,0.26 -0.8,0.4l-0.17 -0.39c0.1,-0.06 0.15,-0.15 0.15,-0.25l0 -0.4 -0.21 0c-0.09,0.36 -0.26,0.67 -0.52,0.94l-0.18 -0.12c0.24,-0.38 0.36,-0.92 0.35,-1.64l0 -1.15zm0.44 0.34l0 0.26 1.59 0 0 -0.26 -1.59 0zm0.76 1.1l0 0.26 0.35 0 0 -0.26 -0.35 0zm0.32 0.53c0.08,0.11 0.18,0.2 0.3,0.28 0.01,-0.01 0.02,-0.02 0.03,-0.03 0.09,-0.12 0.16,-0.2 0.2,-0.25l-0.53 0z"/>
   <path id="2" class="fil0" d="M3.24 7.03c0.26,0.14 0.5,0.29 0.71,0.45 0.05,0.03 0.05,0.07 0.03,0.12 -0.06,0.11 -0.13,0.21 -0.21,0.31 -0.05,0.06 -0.09,0.05 -0.13,-0.02 -0.02,-0.05 -0.07,-0.13 -0.14,-0.24 -0.57,0.1 -1.08,0.18 -1.55,0.23l-0.13 -0.46c0.12,0 0.23,-0.04 0.31,-0.13 0.1,-0.11 0.17,-0.23 0.22,-0.36l-0.79 0 -0.07 -0.3 2.29 0 0.19 -0.22 0.42 0.34 -0.1 0.18 -1.64 0 0.23 0.07c-0.14,0.18 -0.27,0.31 -0.4,0.42 0.26,0 0.53,-0.02 0.81,-0.04 -0.01,-0.03 -0.04,-0.07 -0.07,-0.12 -0.05,-0.06 -0.09,-0.1 -0.11,-0.13l0.13 -0.1zm-1.86 -0.78c0.57,-0.35 1.01,-0.8 1.31,-1.35l0.55 0.17c-0.02,0.02 -0.06,0.07 -0.11,0.14 0.03,-0.04 0.02,-0.03 -0.03,0.03 0.42,0.35 0.89,0.58 1.41,0.68 -0.14,0.14 -0.26,0.3 -0.36,0.48 -0.49,-0.28 -0.9,-0.61 -1.22,-1 -0.23,0.25 -0.48,0.47 -0.76,0.65l1 0 0.11 -0.14 0.39 0.31 -0.08 0.13 -1.42 0 -0.06 -0.25c-0.18,0.11 -0.37,0.22 -0.57,0.31l-0.16 -0.16z"/>
   <path id="3" class="fil0" d="M7.2 5.25l0.52 0.1c-0.12,0.64 -0.31,1.15 -0.58,1.55 0.24,0.21 0.51,0.38 0.82,0.52 -0.17,0.13 -0.3,0.29 -0.42,0.49 -0.28,-0.18 -0.52,-0.38 -0.72,-0.58 -0.23,0.22 -0.52,0.42 -0.86,0.6l-0.21 -0.18c0.31,-0.19 0.58,-0.44 0.8,-0.76 -0.23,-0.34 -0.42,-0.82 -0.57,-1.43l0.27 -0.08c0.14,0.41 0.33,0.77 0.57,1.07 0.2,-0.39 0.32,-0.82 0.38,-1.3zm-2.31 0.6l0.4 0 0.15 -0.16 0.39 0.31 -0.09 0.1 0 0.88c0.07,-0.06 0.18,-0.17 0.31,-0.32l0.14 0.24c-0.19,0.29 -0.46,0.63 -0.8,1.01l-0.27 -0.38c0.13,-0.11 0.19,-0.24 0.18,-0.4l0 -0.98 -0.36 0 -0.05 -0.3zm1.65 -0.96c0.23,0.18 0.38,0.32 0.46,0.41 0.05,0.04 0.05,0.09 0,0.14 -0.08,0.09 -0.15,0.17 -0.23,0.23 -0.06,0.06 -0.1,0.05 -0.13,-0.02 -0.08,-0.23 -0.17,-0.45 -0.27,-0.66l0.17 -0.1zm-1.27 0.05c0.18,0.08 0.34,0.16 0.47,0.26 0.04,0.03 0.05,0.08 0.02,0.14 -0.05,0.14 -0.1,0.23 -0.16,0.28 -0.05,0.05 -0.09,0.05 -0.13,-0.02 -0.11,-0.21 -0.21,-0.38 -0.33,-0.52l0.13 -0.14z"/>
   <polygon class="fil1" points="9.5,4.71 9.03,4.35 8.56,3.99 8.56,4.71 8.56,5.42 9.03,5.06 "/>
   <path class="fil0" d="M10.52 0.22c0,-0.07 0.02,-0.12 0.05,-0.16 0.04,-0.04 0.09,-0.06 0.16,-0.06l0.29 0c0.07,0 0.12,0.02 0.16,0.06 0.03,0.04 0.05,0.09 0.05,0.16l0 0.2 -0.26 0.14 0 -0.31 -0.19 0 0 1.09 0.19 0 0 -0.23 0.26 -0.13 0 0.39c0,0.07 -0.02,0.12 -0.05,0.16 -0.04,0.04 -0.09,0.06 -0.16,0.06l-0.29 0c-0.07,0 -0.12,-0.02 -0.16,-0.06 -0.03,-0.04 -0.05,-0.09 -0.05,-0.16l0 -1.15z"/>
   <path id="1" class="fil0" d="M20.21 1.59c-0.06,0 -0.11,-0.02 -0.15,-0.06 -0.04,-0.04 -0.06,-0.09 -0.06,-0.16l0 -0.54c0,-0.05 0.01,-0.09 0.03,-0.12 0.02,-0.04 0.05,-0.06 0.09,-0.07 -0.04,-0.01 -0.07,-0.03 -0.09,-0.05 -0.02,-0.03 -0.03,-0.07 -0.03,-0.11l0 -0.26c0,-0.07 0.02,-0.13 0.06,-0.16 0.04,-0.04 0.09,-0.06 0.15,-0.06l0.3 0c0.06,0 0.12,0.02 0.15,0.06 0.04,0.04 0.06,0.09 0.06,0.16l0 0.05 -0.26 0.14 0 -0.16 -0.2 0 0 0.31 0.09 -0.05 0 0.29 -0.09 0.04 0 0.5 0.2 0 0 -0.19 -0.07 0.04 0 -0.29 0.4 -0.2 0 0.29 -0.07 0.04 0 0.34c0,0.07 -0.02,0.12 -0.06,0.16 -0.03,0.04 -0.09,0.06 -0.15,0.06l-0.3 0z"/>
   <polygon id="2" class="fil0" points="21.96,1.59 21.33,1.59 21.33,0 21.96,0 21.96,0.25 21.59,0.25 21.59,0.66 21.96,0.48 21.96,0.76 21.59,0.95 21.59,1.34 21.96,1.34 "/>
   <path id="3" class="fil0" d="M11.38 0.22c0,-0.07 0.02,-0.12 0.06,-0.16 0.03,-0.04 0.08,-0.06 0.15,-0.06l0.29 0c0.07,0 0.12,0.02 0.16,0.06 0.04,0.04 0.05,0.09 0.05,0.16l0 1.15c0,0.07 -0.01,0.12 -0.05,0.16 -0.04,0.04 -0.09,0.06 -0.16,0.06l-0.29 0c-0.07,0 -0.12,-0.02 -0.15,-0.06 -0.04,-0.04 -0.06,-0.09 -0.06,-0.16l0 -1.15zm0.45 0.03l-0.19 0 0 1.09 0.19 0 0 -1.09z"/>
   <path id="4" class="fil0" d="M12.51 1.59l-0.26 0 0 -1.59 0.26 0 0 0.13c0,-0.05 0.02,-0.08 0.05,-0.1 0.02,-0.02 0.06,-0.03 0.1,-0.03l0.09 0c0.06,0 0.12,0.02 0.15,0.06 0.04,0.04 0.06,0.09 0.06,0.16l0 1.37 -0.26 0 0 -1.34 -0.19 0 0 1.34z"/>
   <polygon id="5" class="fil0" points="13.11,1.59 13.11,0 13.74,0 13.74,0.25 13.37,0.25 13.37,0.66 13.74,0.48 13.74,0.76 13.37,0.95 13.37,1.59 "/>
   <polygon id="6" class="fil0" points="14.47,1.59 13.84,1.59 13.84,0 14.47,0 14.47,0.25 14.1,0.25 14.1,0.66 14.47,0.48 14.47,0.76 14.1,0.95 14.1,1.34 14.47,1.34 "/>
   <path id="7" class="fil0" d="M15.3 0.79l-0.19 0.1 0.3 0.7 -0.28 0 -0.24 -0.59 -0.04 0.02 0 0.57 -0.26 0 0 -1.59 0.5 0c0.07,0 0.12,0.02 0.16,0.06 0.03,0.04 0.05,0.09 0.05,0.16l0 0.57zm-0.26 -0.15l0 -0.39 -0.19 0 0 0.49 0.19 -0.1z"/>
   <polygon id="8" class="fil0" points="16.08,1.59 15.45,1.59 15.45,0 16.08,0 16.08,0.25 15.71,0.25 15.71,0.66 16.08,0.48 16.08,0.76 15.71,0.95 15.71,1.34 16.08,1.34 "/>
   <path id="9" class="fil0" d="M16.46 1.59l-0.26 0 0 -1.59 0.26 0 0 0.13c0.01,-0.05 0.03,-0.08 0.05,-0.1 0.03,-0.02 0.06,-0.03 0.1,-0.03l0.09 0c0.07,0 0.12,0.02 0.16,0.06 0.04,0.04 0.06,0.09 0.06,0.16l0 1.37 -0.27 0 0 -1.34 -0.19 0 0 1.34z"/>
   <path id="10" class="fil0" d="M17.07 0.22c0,-0.07 0.02,-0.12 0.05,-0.16 0.04,-0.04 0.09,-0.06 0.16,-0.06l0.29 0c0.06,0 0.12,0.02 0.15,0.06 0.04,0.04 0.06,0.09 0.06,0.16l0 0.2 -0.26 0.14 0 -0.31 -0.19 0 0 1.09 0.19 0 0 -0.23 0.26 -0.13 0 0.39c0,0.07 -0.02,0.12 -0.05,0.16 -0.04,0.04 -0.09,0.06 -0.16,0.06l-0.29 0c-0.07,0 -0.12,-0.02 -0.16,-0.06 -0.03,-0.04 -0.05,-0.09 -0.05,-0.16l0 -1.15z"/>
   <polygon id="11" class="fil0" points="18.56,1.59 17.93,1.59 17.93,0 18.56,0 18.56,0.25 18.19,0.25 18.19,0.66 18.56,0.48 18.56,0.76 18.19,0.95 18.19,1.34 18.56,1.34 "/>
   <path id="12" class="fil0" d="M18.68 0.22c0,-0.07 0.02,-0.12 0.06,-0.16 0.03,-0.04 0.08,-0.06 0.15,-0.06l0.29 0c0.07,0 0.12,0.02 0.16,0.06 0.04,0.04 0.06,0.09 0.06,0.16l0 0.04 -0.27 0.13 0 -0.14 -0.19 0 0 0.4 0.46 -0.23 0 0.95c0,0.07 -0.02,0.12 -0.06,0.16 -0.04,0.04 -0.09,0.06 -0.16,0.06l-0.29 0c-0.07,0 -0.12,-0.02 -0.15,-0.06 -0.04,-0.04 -0.06,-0.09 -0.06,-0.16l0 -0.15 0.26 -0.13 0 0.25 0.19 0 0 -0.5 -0.45 0.23 0 -0.85z"/>
   <polygon id="13" class="fil0" points="22.22,0.77 22,0 22.27,0 22.38,0.41 22.5,0 22.77,0 22.55,0.77 22.78,1.59 22.51,1.59 22.38,1.14 22.25,1.59 21.99,1.59 "/>
   <polygon id="14" class="fil0" points="23.56,0 23.56,1.59 23.3,1.59 23.3,0.85 23.1,0.95 23.1,1.59 22.84,1.59 22.84,0 23.1,0 23.1,0.67 23.3,0.57 23.3,0 "/>
   <polygon id="15" class="fil0" points="23.97,1.59 23.71,1.59 23.71,0 23.97,0 "/>
   <path id="16" class="fil0" d="M24.59 1.34l0 -0.51 -0.21 0.11 0 0.4 0.21 0zm0.25 -0.6l0 0.63c0,0.07 -0.02,0.13 -0.06,0.16 -0.03,0.04 -0.09,0.06 -0.17,0.06l-0.48 0 0 -1.59 0.5 0c0.07,0 0.12,0.02 0.16,0.06 0.03,0.04 0.05,0.09 0.05,0.16l0 0.33c0,0.06 -0.01,0.1 -0.03,0.13 -0.01,0.03 -0.04,0.05 -0.08,0.06l0.11 0zm-0.25 -0.17l0 -0.32 -0.21 0 0 0.42 0.21 -0.1z"/>
   <polygon id="17" class="fil0" points="25.25,1.59 24.99,1.59 24.99,0 25.25,0 "/>
   <polygon id="18" class="fil0" points="25.58,1.59 25.58,0.25 25.33,0.25 25.33,0 26.1,0 26.1,0.25 25.84,0.25 25.84,1.59 "/>
   <polygon id="19" class="fil0" points="26.43,1.59 26.17,1.59 26.17,0 26.43,0 "/>
   <path id="20" class="fil0" d="M26.59 0.22c0,-0.07 0.01,-0.12 0.05,-0.16 0.04,-0.04 0.09,-0.06 0.16,-0.06l0.29 0c0.06,0 0.12,0.02 0.15,0.06 0.04,0.04 0.06,0.09 0.06,0.16l0 1.15c0,0.07 -0.02,0.12 -0.06,0.16 -0.03,0.04 -0.09,0.06 -0.15,0.06l-0.29 0c-0.07,0 -0.12,-0.02 -0.16,-0.06 -0.04,-0.04 -0.05,-0.09 -0.05,-0.16l0 -1.15zm0.45 0.03l-0.19 0 0 1.09 0.19 0 0 -1.09z"/>
   <path id="21" class="fil0" d="M27.71 1.59l-0.26 0 0 -1.59 0.26 0 0 0.13c0.01,-0.05 0.03,-0.08 0.05,-0.1 0.03,-0.02 0.06,-0.03 0.1,-0.03l0.09 0c0.07,0 0.12,0.02 0.16,0.06 0.04,0.04 0.06,0.09 0.06,0.16l0 1.37 -0.27 0 0 -1.34 -0.19 0 0 1.34z"/>
   <rect class="fil1" x="28.94" width="6.76" height="0.85"/>
   <rect class="fil1" x="31.2" y="8.56" width="4.5" height="0.85"/>
   <rect class="fil1" transform="matrix(1.10478E-14 0.757735 -0.342784 1.6491E-14 35.6963 -5.75089E-06)" width="12.42" height="2.48"/>
   <path class="fil0" d="M12.74 3.66l0.96 0c0.07,-0.16 0.13,-0.31 0.18,-0.47l0.58 0.14c-0.02,0.03 -0.04,0.06 -0.05,0.11 -0.03,0.04 -0.07,0.11 -0.13,0.22l0.91 0 0.13 -0.17 0.4 0.28 -0.11 0.18 -1.5 0c-0.03,0.04 -0.06,0.09 -0.1,0.16 -0.06,0.07 -0.09,0.12 -0.12,0.15l0.89 0 0.14 -0.18 0.47 0.31 -0.13 0.14 0 1.31c0.04,0.22 -0.14,0.35 -0.56,0.37 -0.02,-0.15 -0.14,-0.25 -0.35,-0.28l-0.01 -0.17c0.07,0.01 0.19,0.01 0.35,0.01 0.07,0 0.1,-0.04 0.1,-0.11l0 -0.13 -0.91 0 0 0.68 -0.47 0 0 -1.39c-0.18,0.17 -0.36,0.32 -0.54,0.45l-0.19 -0.16c0.37,-0.34 0.66,-0.73 0.87,-1.16l-0.74 0 -0.07 -0.29zm1.14 1.36l0 0.22 0.91 0 0 -0.22 -0.91 0zm0 -0.47l0 0.19 0.91 0 0 -0.19 -0.91 0z"/>
   <path id="1" class="fil0" d="M17.28 5.72c0.22,0 0.46,-0.01 0.71,-0.03l0 -0.63 -0.21 0 0 0.13 -0.4 0 0 -1.48 0.4 0 0 0.09 0.21 0 0 -0.6 0.41 0 0 0.6 0.2 0 0.12 -0.17 0.43 0.27 -0.13 0.17 0 1.12 -0.4 0 0 -0.13 -0.22 0 0 0.61c0.03,0 0.08,0 0.14,-0.01 0.05,0 0.09,0 0.12,0 -0.03,-0.1 -0.06,-0.19 -0.11,-0.29l0.18 -0.1c0.21,0.24 0.37,0.44 0.47,0.59 0.02,0.04 0.02,0.08 -0.01,0.13 -0.07,0.09 -0.16,0.16 -0.25,0.22 -0.06,0.04 -0.1,0.03 -0.12,-0.04 -0.02,-0.1 -0.05,-0.2 -0.07,-0.28 -0.52,0.13 -0.98,0.23 -1.37,0.3l-0.1 -0.47zm-1.17 -1.41c0.13,-0.1 0.28,-0.24 0.44,-0.42 -0.08,-0.17 -0.2,-0.34 -0.33,-0.52l0.15 -0.14c0.17,0.12 0.3,0.25 0.41,0.37 0.07,-0.06 0.14,-0.17 0.22,-0.32 0.02,-0.03 0.03,-0.06 0.04,-0.08l0.36 0.25c-0.12,0.16 -0.26,0.31 -0.4,0.45 0.08,0.16 0.13,0.32 0.16,0.5 0.04,0.36 0.06,0.8 0.04,1.35 0.01,0.31 -0.18,0.47 -0.56,0.47 0.01,-0.16 -0.09,-0.25 -0.29,-0.25l-0.03 -0.17c0.09,0 0.17,0 0.25,0 0.12,-0.01 0.19,-0.07 0.2,-0.17 0,-0.05 0,-0.14 0,-0.27 0.01,-0.16 0.01,-0.27 0.01,-0.34 -0.16,0.18 -0.34,0.33 -0.54,0.46l-0.14 -0.15c0.23,-0.25 0.44,-0.54 0.63,-0.89 -0.01,-0.08 -0.02,-0.16 -0.05,-0.24 -0.14,0.1 -0.28,0.2 -0.42,0.29l-0.15 -0.18zm2.29 -0.23l0 0.7 0.22 0 0 -0.7 -0.22 0zm-0.62 0l0 0.7 0.21 0 0 -0.7 -0.21 0z"/>
   <path id="2" class="fil0" d="M19.76 4.29c0.11,-0.02 0.18,-0.05 0.22,-0.11 0.06,-0.08 0.15,-0.24 0.27,-0.46l-0.45 0 -0.04 -0.3 1.26 0 0.12 -0.16 0.37 0.27 -0.1 0.19 -0.66 0c-0.05,0.06 -0.12,0.15 -0.22,0.26 -0.12,0.14 -0.2,0.25 -0.26,0.31 0.07,-0.01 0.18,-0.01 0.34,-0.01 0.15,-0.01 0.26,-0.02 0.33,-0.02 -0.01,-0.03 -0.04,-0.08 -0.09,-0.14 -0.06,-0.08 -0.1,-0.14 -0.12,-0.18l0.18 -0.12c0.18,0.12 0.36,0.27 0.55,0.46 0.04,0.04 0.05,0.09 0.03,0.15 -0.05,0.08 -0.11,0.16 -0.2,0.25 -0.06,0.06 -0.1,0.05 -0.14,-0.03 -0.02,-0.05 -0.05,-0.1 -0.08,-0.16 -0.09,0.02 -0.25,0.05 -0.47,0.08 -0.4,0.07 -0.65,0.11 -0.75,0.12l-0.09 -0.4zm2.32 -1.03l0.45 0 0 2.6c0.01,0.25 -0.17,0.37 -0.54,0.36 0.02,-0.15 -0.09,-0.23 -0.31,-0.23l-0.03 -0.19c0.31,0.03 0.46,-0.01 0.43,-0.13l0 -2.41zm-2.28 1.67l0.55 0 0 -0.28 0.48 0 0 0.28 0.13 0 0.11 -0.14 0.34 0.29 -0.1 0.15 -0.48 0 0 0.32c0.21,-0.01 0.4,-0.04 0.59,-0.06l-0.01 0.24c-0.15,0.04 -0.37,0.08 -0.68,0.13 -0.4,0.07 -0.71,0.13 -0.92,0.18l-0.09 -0.4c0.06,0 0.15,-0.01 0.27,-0.02 0.16,-0.01 0.28,-0.02 0.36,-0.03l0 -0.36 -0.49 0 -0.06 -0.3zm1.71 0.51l0 -1.81 0.43 0 0 1.81 -0.43 0z"/>
   <path id="3" class="fil0" d="M23.32 3.68l0.34 0c0.02,-0.14 0.03,-0.3 0.04,-0.48l0.48 0.08c-0.01,0.03 -0.03,0.06 -0.06,0.1 -0.03,0.12 -0.09,0.24 -0.16,0.38l0.16 0 0.11 -0.17 0.45 0.25 -0.12 0.16 0 0.43c0.17,-0.4 0.29,-0.81 0.36,-1.24l0.49 0.13c-0.05,0.16 -0.11,0.32 -0.18,0.47l0.22 0 0.11 -0.2 0.47 0.29 -0.11 0.16 0 1.81c0.02,0.25 -0.18,0.38 -0.62,0.4 0.01,-0.15 -0.1,-0.23 -0.31,-0.23l-0.03 -0.22c0.37,0.04 0.54,-0.01 0.51,-0.14l0 -1.57 -0.4 0c-0.11,0.19 -0.21,0.34 -0.31,0.47l-0.2 -0.08 0 1.65 -0.42 0 0 -0.24 -0.39 0 0 0.33 -0.43 0 0 -2.54zm1.66 0.78c0.15,0.16 0.28,0.33 0.37,0.51 0.04,0.06 0.04,0.11 -0.01,0.14 -0.06,0.06 -0.14,0.11 -0.25,0.16 -0.06,0.03 -0.09,0.03 -0.1,0.03 -0.02,0 -0.03,-0.03 -0.04,-0.08 -0.04,-0.26 -0.09,-0.49 -0.14,-0.7l0.17 -0.06zm-1.23 0.51l0 0.63 0.39 0 0 -0.63 -0.39 0zm0 -0.91l0 0.63 0.39 0 0 -0.63 -0.39 0z"/>
   <path id="4" class="fil0" d="M27.87 3.14c0.12,0.04 0.27,0.11 0.44,0.21 0.07,0.04 0.08,0.09 0.04,0.16 -0.02,0.06 -0.07,0.13 -0.16,0.24l0.82 0 0.13 -0.2 0.42 0.3 -0.13 0.23 -1.52 0c0,0.15 -0.01,0.28 -0.03,0.4l0.73 0 0.11 -0.17 0.51 0.3 -0.15 0.19c-0.03,0.47 -0.07,0.83 -0.1,1.1 0,0.21 -0.2,0.32 -0.59,0.34 0,-0.16 -0.1,-0.23 -0.29,-0.22l-0.02 -0.2c0.29,0.02 0.44,-0.01 0.45,-0.1 0.02,-0.1 0.05,-0.42 0.09,-0.94l-0.79 0c-0.11,0.64 -0.45,1.14 -1.03,1.5l-0.19 -0.17c0.53,-0.39 0.8,-1.06 0.8,-2.03l-0.71 0 -0.07 -0.33 1.36 0c-0.07,-0.18 -0.17,-0.33 -0.29,-0.46l0.17 -0.15z"/>
   <path id="5" class="fil0" d="M29.98 5.18c0.25,0.03 0.39,0.01 0.42,-0.07 0.18,-0.33 0.34,-0.62 0.46,-0.85l0.16 0.08c-0.02,0.07 -0.05,0.15 -0.07,0.25l0.69 0 0 -0.52 -0.55 0 -0.08 -0.3 0.63 0 0 -0.54 0.45 0 0 0.54 0.31 0 0.11 -0.15 0.36 0.24 -0.1 0.21 -0.68 0 0 0.52 0.46 0 0.13 -0.2 0.38 0.29 -0.11 0.2 -1.14 0 0.23 0.08c-0.2,0.33 -0.38,0.58 -0.51,0.75 0.25,0 0.51,-0.01 0.78,-0.03 -0.06,-0.14 -0.12,-0.28 -0.19,-0.44l0.17 -0.11c0.25,0.24 0.45,0.46 0.6,0.67 0.05,0.06 0.05,0.11 0,0.14 -0.06,0.09 -0.15,0.18 -0.25,0.27 -0.08,0.05 -0.13,0.04 -0.16,-0.05 -0.02,-0.08 -0.05,-0.16 -0.08,-0.23 -0.34,0.07 -0.8,0.16 -1.36,0.24l-0.13 -0.44c0.15,-0.04 0.26,-0.11 0.33,-0.22 0.11,-0.19 0.21,-0.4 0.3,-0.63l-0.61 0 -0.04 -0.18c-0.01,0.04 -0.03,0.11 -0.06,0.19 -0.05,0.18 -0.09,0.29 -0.12,0.35 -0.07,0.2 -0.08,0.45 -0.03,0.76 0.01,0.1 -0.02,0.16 -0.1,0.17 -0.06,0.01 -0.15,0.02 -0.29,0.02 -0.09,-0.01 -0.12,-0.06 -0.09,-0.16 0.01,-0.04 0.02,-0.11 0.04,-0.19 0.01,-0.08 0.03,-0.14 0.03,-0.18 0.05,-0.15 -0.05,-0.23 -0.28,-0.25l-0.01 -0.23zm0.42 -1.91c0.01,0 0.03,0 0.04,0.01 0.24,0.09 0.38,0.15 0.44,0.2 0.04,0.01 0.06,0.06 0.04,0.12 0,0.01 0,0.03 -0.01,0.04 -0.05,0.11 -0.08,0.18 -0.11,0.22 -0.02,0.06 -0.06,0.06 -0.12,0 -0.11,-0.14 -0.23,-0.29 -0.38,-0.44l0.1 -0.15zm-0.31 0.7c0.19,0.06 0.35,0.14 0.48,0.21 0.04,0.02 0.06,0.06 0.04,0.11 -0.03,0.09 -0.06,0.18 -0.12,0.27 -0.03,0.06 -0.07,0.06 -0.11,0.01 -0.12,-0.17 -0.25,-0.32 -0.38,-0.45l0.09 -0.15z"/>
   <polygon class="fil0" points="10.65,9.41 10.52,9.41 10.52,8.57 10.65,8.57 "/>
   <polygon id="1" class="fil0" points="30.38,9.27 30.51,9.27 30.51,9.41 30.38,9.41 "/>
   <path id="2" class="fil0" d="M11.55 9.41l-0.14 0 0 -0.84 0.14 0 0 0.07c0,-0.02 0.01,-0.04 0.02,-0.05 0.02,-0.01 0.04,-0.02 0.06,-0.02l0.05 0c0.03,0 0.06,0.01 0.08,0.03 0.02,0.02 0.03,0.05 0.03,0.09l0 0.72 -0.14 0 0 -0.7 -0.1 0 0 0.7z"/>
   <path id="3" class="fil0" d="M12.54 8.69c0,-0.04 0.01,-0.07 0.03,-0.09 0.02,-0.02 0.05,-0.03 0.08,-0.03l0.15 0c0.04,0 0.07,0.01 0.09,0.03 0.02,0.02 0.03,0.05 0.03,0.09l0 0.02 -0.14 0.07 0 -0.08 -0.1 0 0 0.21 0.24 -0.12 0 0.5c0,0.04 -0.01,0.07 -0.03,0.09 -0.02,0.02 -0.05,0.03 -0.09,0.03l-0.15 0c-0.03,0 -0.06,-0.01 -0.08,-0.03 -0.02,-0.02 -0.03,-0.05 -0.03,-0.09l0 -0.08 0.14 -0.07 0 0.13 0.1 0 0 -0.26 -0.24 0.13 0 -0.45z"/>
   <polygon id="4" class="fil0" points="13.81,9.41 13.67,9.41 13.67,8.57 13.81,8.57 "/>
   <path id="5" class="fil0" d="M14.57 8.69c0,-0.04 0.01,-0.07 0.02,-0.09 0.02,-0.02 0.05,-0.03 0.09,-0.03l0.15 0c0.03,0 0.06,0.01 0.08,0.03 0.02,0.02 0.03,0.05 0.03,0.09l0 0.12 -0.14 0.06 0 -0.17 -0.1 0 0 0.57 0.1 0 0 -0.18 -0.05 0.02 0 -0.15 0.19 -0.09 0 0.54 -0.26 0c-0.04,0 -0.07,-0.01 -0.09,-0.03 -0.01,-0.02 -0.02,-0.05 -0.02,-0.09l0 -0.6z"/>
   <polygon id="6" class="fil0" points="16.07,8.57 16.07,9.41 15.94,9.41 15.94,9.02 15.83,9.07 15.83,9.41 15.7,9.41 15.7,8.57 15.83,8.57 15.83,8.92 15.94,8.87 15.94,8.57 "/>
   <polygon id="7" class="fil0" points="16.92,9.41 16.92,8.71 16.79,8.71 16.79,8.57 17.19,8.57 17.19,8.71 17.06,8.71 17.06,9.41 "/>
   <path id="8" class="fil0" d="M18.39 8.91l0 -0.21 -0.1 0 0 0.26 0.1 -0.05zm0.13 0.5l-0.13 0 0 -0.36 -0.1 0.05 0 0.31 -0.14 0 0 -0.72c0,-0.04 0.01,-0.07 0.03,-0.09 0.02,-0.02 0.04,-0.03 0.08,-0.03l0.15 0c0.04,0 0.06,0.01 0.08,0.03 0.02,0.02 0.03,0.05 0.03,0.09l0 0.72z"/>
   <path id="9" class="fil0" d="M19.42 9.41l-0.14 0 0 -0.84 0.14 0 0 0.07c0,-0.02 0.01,-0.04 0.02,-0.05 0.02,-0.01 0.03,-0.02 0.06,-0.02l0.04 0c0.04,0 0.07,0.01 0.09,0.03 0.01,0.02 0.02,0.05 0.02,0.09l0 0.72 -0.13 0 0 -0.7 -0.1 0 0 0.7z"/>
   <path id="10" class="fil0" d="M20.67 8.57c0.04,0 0.07,0.01 0.09,0.03 0.02,0.02 0.03,0.05 0.03,0.09l0 0.6c0,0.04 -0.01,0.07 -0.03,0.09 -0.02,0.02 -0.05,0.03 -0.09,0.03l-0.26 0 0 -0.84 0.26 0zm-0.02 0.13l-0.1 0 0 0.57 0.1 0 0 -0.57z"/>
   <path id="11" class="fil0" d="M21.78 8.69c0,-0.04 0.01,-0.07 0.03,-0.09 0.02,-0.02 0.05,-0.03 0.08,-0.03l0.15 0c0.04,0 0.07,0.01 0.09,0.03 0.02,0.02 0.03,0.05 0.03,0.09l0 0.1 -0.14 0.07 0 -0.16 -0.1 0 0 0.57 0.1 0 0 -0.11 0.14 -0.08 0 0.21c0,0.04 -0.01,0.07 -0.03,0.09 -0.02,0.02 -0.05,0.03 -0.09,0.03l-0.15 0c-0.03,0 -0.06,-0.01 -0.08,-0.03 -0.02,-0.02 -0.03,-0.05 -0.03,-0.09l0 -0.6z"/>
   <path id="12" class="fil0" d="M23.29 8.99l-0.1 0.05 0.15 0.37 -0.14 0 -0.13 -0.31 -0.02 0.01 0 0.3 -0.14 0 0 -0.84 0.27 0c0.03,0 0.06,0.01 0.08,0.03 0.02,0.02 0.03,0.05 0.03,0.09l0 0.3zm-0.14 -0.08l0 -0.21 -0.1 0 0 0.26 0.1 -0.05z"/>
   <polygon id="13" class="fil0" points="24.37,9.41 24.04,9.41 24.04,8.57 24.37,8.57 24.37,8.71 24.18,8.71 24.18,8.92 24.37,8.82 24.37,8.97 24.18,9.07 24.18,9.27 24.37,9.27 "/>
   <path id="14" class="fil0" d="M25.35 8.91l0 -0.21 -0.1 0 0 0.26 0.1 -0.05zm0.14 0.5l-0.14 0 0 -0.36 -0.1 0.05 0 0.31 -0.14 0 0 -0.72c0,-0.04 0.01,-0.07 0.03,-0.09 0.02,-0.02 0.05,-0.03 0.08,-0.03l0.16 0c0.03,0 0.06,0.01 0.08,0.03 0.02,0.02 0.03,0.05 0.03,0.09l0 0.72z"/>
   <polygon id="15" class="fil0" points="26.34,9.41 26.34,8.71 26.2,8.71 26.2,8.57 26.61,8.57 26.61,8.71 26.47,8.71 26.47,9.41 "/>
   <polygon id="16" class="fil0" points="27.46,9.41 27.32,9.41 27.32,8.57 27.46,8.57 "/>
   <polygon id="17" class="fil0" points="28.31,9.41 28.16,8.57 28.3,8.57 28.38,9.1 28.47,8.57 28.61,8.57 28.46,9.41 "/>
   <polygon id="18" class="fil0" points="29.64,9.41 29.31,9.41 29.31,8.57 29.64,8.57 29.64,8.71 29.45,8.71 29.45,8.92 29.64,8.82 29.64,8.97 29.45,9.07 29.45,9.27 29.64,9.27 "/>
  </g>
 </g>
</svg>
