<?xml version="1.0" encoding="UTF-8"?>
<!DOCTYPE svg PUBLIC "-//W3C//DTD SVG 1.1//EN" "http://www.w3.org/Graphics/SVG/1.1/DTD/svg11.dtd">
<!-- Creator: CorelDRAW 2017 -->
<svg xmlns="http://www.w3.org/2000/svg" xml:space="preserve" width="101px" height="82px" version="1.1" style="shape-rendering:geometricPrecision; text-rendering:geometricPrecision; image-rendering:optimizeQuality; fill-rule:evenodd; clip-rule:evenodd"
viewBox="0 0 1.42 1.15"
 xmlns:xlink="http://www.w3.org/1999/xlink">
 <defs>
  <style type="text/css">
   <![CDATA[
    .fil1 {fill:white}
    .fil0 {fill:white;fill-rule:nonzero}
   ]]>
  </style>
 </defs>
 <g id="图层_x0020_1">
  <metadata id="CorelCorpID_0Corel-Layer"/>
  <g id="_1936693264992">
   <path class="fil0" d="M0.05 0l1.1 0 0 0.34 0.27 0.23 -0.27 0.23 0 0.35 -1.15 0 0 -1.15 0.05 0zm0.99 0.1l-0.94 0 0 0.94 0.94 0 0 -0.29 0.22 -0.18 -0.22 -0.18 0 -0.29z"/>
   <path class="fil0" d="M0.18 0.53c0.07,-0.03 0.12,-0.08 0.13,-0.13l-0.11 0 -0.01 -0.04 0.13 0c0,-0.01 0,-0.02 0,-0.03l0 -0.03 -0.1 0 -0.01 -0.04 0.08 0c0,0 0,0 0,0 0,0 0,-0.01 0,-0.01 -0.01,-0.02 -0.03,-0.04 -0.04,-0.06l0.01 -0.01c0.02,0.01 0.04,0.02 0.06,0.03 0.01,0 0.01,0.01 0,0.02 0,0.01 -0.01,0.02 -0.01,0.03 0,0 0,0 0,0 0,0 0,0 0,0l0.06 0c0.02,-0.03 0.03,-0.06 0.04,-0.09l0.06 0.03c-0.02,0.02 -0.04,0.04 -0.05,0.06l0.03 0 0.02 -0.02 0.05 0.04 -0.02 0.02 -0.12 0 0 0.02c0,0.02 0,0.03 0,0.04l0.08 0 0.02 -0.03 0.05 0.05 -0.01 0.02 -0.14 0c0.05,0.04 0.1,0.08 0.16,0.09 -0.02,0.02 -0.03,0.04 -0.04,0.06 -0.06,-0.03 -0.11,-0.07 -0.14,-0.12 -0.02,0.06 -0.08,0.09 -0.17,0.12l-0.01 -0.02z"/>
   <path id="1" class="fil0" d="M0.64 0.21l0.22 0 0.02 -0.02 0.05 0.04 -0.02 0.02 -0.1 0 0 0.08 0.09 0 0.02 -0.03 0.05 0.04 -0.01 0.02 -0.15 0 0 0.13c0.01,0.04 -0.02,0.05 -0.07,0.06 0,-0.02 -0.02,-0.04 -0.05,-0.04l-0.01 -0.02c0.06,0 0.08,0 0.07,-0.02l0 -0.11 -0.14 0 -0.01 -0.03 0.15 0 0 -0.08 -0.1 0 -0.01 -0.04z"/>
   <path id="2" class="fil0" d="M0.17 0.81c0.01,0 0.02,0 0.04,0 0.02,0 0.04,-0.01 0.05,-0.01l0 -0.06 -0.07 0 -0.01 -0.03 0.08 0 0 -0.04c-0.02,0 -0.04,0 -0.06,0l-0.01 -0.03c0.06,-0.01 0.11,-0.02 0.16,-0.03l0.03 0.04c-0.01,0 -0.02,0.01 -0.03,0.01 -0.02,0 -0.03,0 -0.03,0l0 0.05 0.07 0 0 -0.05 0 -0.06 0.05 0 0 0.08 0 0.03 0.04 0 0.02 -0.02 0.04 0.03 -0.01 0.02 -0.09 0c0,0.03 0,0.04 0,0.06 0.01,-0.01 0.02,-0.03 0.02,-0.04l0.05 0.03c-0.01,0.03 -0.03,0.05 -0.05,0.07 0.01,0.02 0.02,0.03 0.02,0.04 0.01,0 0.02,-0.01 0.02,-0.02 0,-0.01 0.01,-0.01 0.01,-0.02l0.02 0.01c-0.01,0.02 0,0.04 0.01,0.04 -0.01,0.03 -0.02,0.05 -0.05,0.05 -0.03,0 -0.05,-0.02 -0.07,-0.06 -0.03,0.02 -0.05,0.03 -0.08,0.05l-0.02 -0.02c0.03,-0.02 0.06,-0.05 0.08,-0.07 -0.01,-0.02 -0.01,-0.06 -0.01,-0.12l-0.07 0 0 0.05c0.01,0 0.03,0 0.05,-0.01l0 0.03c-0.01,0.01 -0.02,0.01 -0.04,0.02 -0.01,0 -0.01,0 -0.01,0l0 0.09c0,0.03 -0.02,0.04 -0.07,0.04 0,-0.01 -0.01,-0.03 -0.04,-0.03l0 -0.02c0.01,0 0.02,0 0.04,0 0.01,0 0.02,0 0.01,-0.01l0 -0.05c-0.02,0.01 -0.05,0.01 -0.07,0.02l-0.02 -0.06zm0.29 -0.19c0.02,0 0.04,0.01 0.05,0.01 0.01,0 0.01,0.01 0.01,0.02 0,0.01 -0.01,0.02 -0.01,0.03 -0.01,0 -0.01,0 -0.02,0 -0.02,-0.02 -0.03,-0.04 -0.04,-0.05l0.01 -0.01z"/>
   <path id="3" class="fil0" d="M0.64 0.96l0 -0.19c0,0.01 -0.01,0.02 -0.03,0.04 0,0 0,0 0,0l-0.02 -0.02c0.04,-0.06 0.06,-0.12 0.08,-0.19l0.06 0.02c-0.01,0.02 -0.02,0.05 -0.04,0.07l0 0.27 -0.05 0zm0.18 -0.32l0.06 0 0.02 -0.02 0.05 0.04 -0.01 0.02 0 0.24c0,0.03 -0.02,0.05 -0.07,0.05 0,-0.02 -0.01,-0.03 -0.04,-0.04l0 -0.01c0.01,0 0.03,0 0.04,0 0.01,0 0.02,-0.01 0.01,-0.02l0 -0.22 -0.05 0 -0.01 -0.04zm-0.1 0.05l0.06 0 0 0.27 -0.06 0 0 -0.27zm0.03 -0.08c0.02,0.01 0.04,0.02 0.06,0.03 0,0 0,0.01 0,0.01 -0.01,0.02 -0.01,0.03 -0.02,0.04 0,0 -0.01,0 -0.01,0 -0.01,-0.02 -0.03,-0.04 -0.05,-0.06l0.02 -0.02z"/>
   <polygon class="fil1" points="1.16,0.57 1.1,0.53 1.04,0.49 1.04,0.57 1.04,0.66 1.1,0.62 "/>
  </g>
 </g>
</svg>
