<?xml version="1.0" encoding="UTF-8"?>
<!DOCTYPE svg PUBLIC "-//W3C//DTD SVG 1.1//EN" "http://www.w3.org/Graphics/SVG/1.1/DTD/svg11.dtd">
<!-- Creator: CorelDRAW 2017 -->
<svg xmlns="http://www.w3.org/2000/svg" xml:space="preserve" width="1883px" height="276px" version="1.1" style="shape-rendering:geometricPrecision; text-rendering:geometricPrecision; image-rendering:optimizeQuality; fill-rule:evenodd; clip-rule:evenodd"
viewBox="0 0 1643.78 240.55"
 xmlns:xlink="http://www.w3.org/1999/xlink">
 <defs>
  <style type="text/css">
   <![CDATA[
    .str0 {stroke:aqua;stroke-width:2.06;stroke-linejoin:round;stroke-miterlimit:22.9256}
    .fil3 {fill:none;fill-rule:nonzero}
    .fil0 {fill:#FEFEFE;fill-rule:nonzero}
    .fil1 {fill:aqua;fill-rule:nonzero}
    .fil2 {fill:aqua;fill-rule:nonzero;fill-opacity:0.400000}
   ]]>
  </style>
 </defs>
 <g id="图层_x0020_1">
  <metadata id="CorelCorpID_0Corel-Layer"/>
  <path class="fil0" d="M595.28 226.65c-0.45,-0.45 -0.79,-0.77 -1.02,-0.94 2.05,-1.99 3.56,-4.04 4.52,-6.14l1.45 0.17c-0.34,0.68 -0.7,1.34 -1.1,1.96l5.8 0 0 1.28 -1.96 2.3 4.01 0 0 12.29c0.05,1.42 -0.6,2.16 -1.96,2.21 -0.63,0 -1.2,0 -1.71,0 -0.06,-0.17 -0.11,-0.45 -0.17,-0.85 -0.06,-0.17 -0.08,-0.31 -0.08,-0.43 0.45,0 0.93,0 1.44,0 0.86,0.06 1.26,-0.31 1.2,-1.1l0 -2.48 -3.59 0 0 4.09 -1.28 0 0 -4.09 -3.67 0c-0.11,1.71 -0.82,3.41 -2.13,5.12 -0.4,-0.34 -0.77,-0.63 -1.11,-0.85 0.91,-1.09 1.48,-2.17 1.71,-3.24 0.28,-1.03 0.42,-2.85 0.42,-5.46l0 -4.69 -0.77 0.85zm-7.58 -3.99l0 -1.2 6.91 0 0 1.2 -2.9 0c-0.23,1.36 -0.74,3.07 -1.53,5.11l3.75 0 0 9.29 -3.67 0 0 1.54 -1.19 0 0 -8.44c-0.17,0.34 -0.46,0.85 -0.85,1.53 -0.23,0.4 -0.4,0.68 -0.52,0.85 -0.23,-0.45 -0.48,-0.88 -0.76,-1.27 1.7,-2.62 2.87,-5.49 3.49,-8.61l-2.73 0zm5.03 13.21l0 -6.91 -2.47 0 0 6.91 2.47 0zm10.66 -12.97l-5.03 0c-0.57,0.85 -1.19,1.64 -1.88,2.38l4.95 0 1.96 -2.38zm-1.28 7.77l0 3.15 3.59 0 0 -3.15 -3.59 0zm3.59 -4.19l-3.59 0 0 3.08 3.59 0 0 -3.08zm-8.36 4.19c0,1.24 -0.03,2.29 -0.09,3.15l3.58 0 0 -3.15 -3.49 0zm-0.01 -4.19l0 3.08 3.5 0 0 -3.08 -3.5 0z"/>
  <path id="1" class="fil0" d="M617.4 227.67l0 -6.9 11.5 0 0 6.9 -11.5 0zm-1.89 4.26l0 -1.28 6.91 0 0 -2.38 1.45 0 0 2.38 6.82 0 0 1.28 -5.89 0c1.31,2.28 3.3,4.07 5.97,5.37 -0.23,0.17 -0.51,0.54 -0.85,1.11 -2.9,-1.42 -4.92,-3.44 -6.05,-6.05l0 7.67 -1.45 0 0 -7.59c-1.37,2.73 -3.5,4.84 -6.4,6.31 -0.05,-0.06 -0.11,-0.14 -0.17,-0.26 -0.34,-0.45 -0.59,-0.76 -0.77,-0.93 2.85,-1.31 4.95,-3.18 6.32,-5.63l-5.89 0zm3.34 -9.88l0 4.26 8.69 0 0 -4.26 -8.69 0zm-6.16 17.99l0 -12.11c-0.57,1.08 -1.25,2.19 -2.04,3.33 -0.06,-0.17 -0.14,-0.4 -0.26,-0.68 -0.17,-0.4 -0.28,-0.68 -0.34,-0.86 1.93,-3.01 3.38,-6.33 4.35,-9.97l1.45 0.43c-0.12,0.22 -0.23,0.59 -0.34,1.1 -0.57,1.71 -1.05,2.96 -1.45,3.76l0 15 -1.37 0z"/>
  <polygon id="2" class="fil0" points="634.12,222.81 634.12,221.44 652.96,221.44 652.96,222.81 645.29,222.81 645.29,229.04 652.28,229.04 652.28,230.4 645.29,230.4 645.29,237.48 653.81,237.48 653.81,238.68 633.18,238.68 633.18,237.48 636.51,237.48 636.51,226.15 638.04,226.15 638.04,237.48 643.75,237.48 643.75,222.81 "/>
  <path id="3" class="fil0" d="M664.39 226.65c-0.46,-0.45 -0.79,-0.77 -1.02,-0.94 2.04,-1.99 3.55,-4.04 4.52,-6.14l1.45 0.17c-0.34,0.68 -0.71,1.34 -1.11,1.96l5.8 0 0 1.28 -1.96 2.3 4.01 0 0 12.29c0.06,1.42 -0.59,2.16 -1.96,2.21 -0.62,0 -1.19,0 -1.7,0 -0.06,-0.17 -0.12,-0.45 -0.18,-0.85 -0.05,-0.17 -0.08,-0.31 -0.08,-0.43 0.46,0 0.94,0 1.45,0 0.85,0.06 1.25,-0.31 1.19,-1.1l0 -2.48 -3.58 0 0 4.09 -1.28 0 0 -4.09 -3.68 0c-0.11,1.71 -0.82,3.41 -2.13,5.12 -0.39,-0.34 -0.76,-0.63 -1.11,-0.85 0.91,-1.09 1.48,-2.17 1.71,-3.24 0.28,-1.03 0.43,-2.85 0.43,-5.46l0 -4.69 -0.77 0.85zm-7.58 -3.99l0 -1.2 6.9 0 0 1.2 -2.89 0c-0.23,1.36 -0.75,3.07 -1.54,5.11l3.75 0 0 9.29 -3.67 0 0 1.54 -1.19 0 0 -8.44c-0.17,0.34 -0.45,0.85 -0.85,1.53 -0.23,0.4 -0.4,0.68 -0.51,0.85 -0.23,-0.45 -0.49,-0.88 -0.77,-1.27 1.71,-2.62 2.87,-5.49 3.5,-8.61l-2.73 0zm5.03 13.21l0 -6.91 -2.48 0 0 6.91 2.48 0zm10.66 -12.97l-5.03 0c-0.57,0.85 -1.2,1.64 -1.88,2.38l4.95 0 1.96 -2.38zm-1.28 7.77l0 3.15 3.58 0 0 -3.15 -3.58 0zm3.58 -4.19l-3.58 0 0 3.08 3.58 0 0 -3.08zm-8.36 4.19c0,1.24 -0.03,2.29 -0.08,3.15l3.58 0 0 -3.15 -3.5 0zm0 -4.19l0 3.08 3.5 0 0 -3.08 -3.5 0z"/>
  <path id="4" class="fil0" d="M679.93 223.66l0 -1.28 6.56 0c0.51,-0.85 0.97,-1.79 1.37,-2.81l1.53 0.34c-0.4,0.85 -0.82,1.67 -1.28,2.47l11.41 0 0 1.28 -12.09 0c-0.57,0.97 -1.17,1.88 -1.79,2.74l11.5 0 0 10.84c0.06,1.59 -0.8,2.38 -2.56,2.38 -0.85,0.06 -1.9,0.08 -3.15,0.08 0,-0.11 -0.06,-0.33 -0.17,-0.67 -0.06,-0.35 -0.12,-0.6 -0.17,-0.77 0.45,0.06 1.45,0.08 2.98,0.08 1.2,0.06 1.73,-0.4 1.62,-1.36l0 -1.62 -10.82 0 0 4.69 -1.44 0 0 -10.93c-1.03,1.2 -2.16,2.34 -3.42,3.42 -0.33,-0.57 -0.62,-1 -0.85,-1.28 2.79,-2.34 4.98,-4.87 6.56,-7.6l-5.79 0zm4.94 7.77l0 2.74 10.82 0 0 -2.74 -10.82 0zm0 -3.84l0 2.65 10.82 0 0 -2.65 -10.82 0z"/>
  <path id="5" class="fil0" d="M712.43 240.12l-1.03 -1.11c2.34,-1.47 4.1,-2.98 5.29,-4.51 -1.08,-1.65 -1.88,-3.98 -2.39,-6.99l-0.85 1.36c-0.29,-0.46 -0.6,-0.83 -0.94,-1.11 1.54,-2.33 2.67,-5.03 3.41,-8.1l1.37 0.26c-0.35,1.3 -0.74,2.55 -1.2,3.75l6.57 0 0 1.28 -1.62 0c-0.46,4.2 -1.37,7.41 -2.73,9.63 1.02,1.48 2.55,2.82 4.6,4.01 -0.28,0.4 -0.56,0.82 -0.85,1.28 -1.99,-1.37 -3.52,-2.73 -4.6,-4.1 -0.91,1.25 -2.59,2.71 -5.03,4.35zm-1.37 -1.96c-0.34,-0.34 -0.82,-0.82 -1.45,-1.45 -0.62,-0.62 -1.08,-1.07 -1.36,-1.36 -1.08,1.48 -2.84,3.04 -5.28,4.69 -0.29,-0.45 -0.58,-0.88 -0.86,-1.28 2.33,-1.36 4.06,-2.84 5.2,-4.43 -1.08,-1.14 -2.13,-2.25 -3.15,-3.33l1.02 -0.85c0.45,0.51 1.14,1.19 2.04,2.04 0.4,0.4 0.72,0.72 0.94,0.94 0.69,-1.02 1.31,-2.18 1.88,-3.49l1.28 0.51c-0.06,0.11 -0.15,0.31 -0.26,0.6 -0.79,1.59 -1.45,2.72 -1.96,3.4 1.02,1.03 2.05,2.05 3.07,3.07l-1.11 0.94zm6.4 -4.94c1.13,-1.88 1.87,-4.63 2.21,-8.27l-4.09 0 -0.34 0.68c0.51,3.3 1.25,5.83 2.22,7.59zm-14.67 -8.95l0 -1.28 5.12 0c-0.17,-0.34 -0.51,-0.99 -1.02,-1.96 -0.17,-0.45 -0.32,-0.77 -0.43,-0.94l1.28 -0.51c0.17,0.23 0.42,0.71 0.77,1.45 0.34,0.69 0.59,1.19 0.76,1.54l-1.11 0.42 4.86 0 0 1.28 -10.23 0zm0.51 6.22l-0.93 -0.94c1.07,-0.96 2.24,-2.33 3.49,-4.09l1.11 0.77c-1.02,1.48 -2.24,2.9 -3.67,4.26zm8.62 -0.51c-0.63,-0.91 -1.74,-2.19 -3.33,-3.84l1.02 -0.77c1.59,1.71 2.7,2.96 3.33,3.76l-1.02 0.85z"/>
  <path id="6" class="fil0" d="M726.17 239.79l0 -16.62 2.21 0c0.46,-1.31 0.77,-2.45 0.94,-3.41l1.54 0.25c-0.12,0.46 -0.37,1.25 -0.77,2.39 -0.11,0.34 -0.2,0.6 -0.26,0.77l4.18 0 0 16.45 -1.36 0 0 -1.71 -5.12 0 0 1.88 -1.36 0zm11.42 -0.17c-0.06,-0.51 -0.17,-0.99 -0.34,-1.45 1.08,0 2.25,0 3.5,0 1.7,0.11 2.55,-0.65 2.55,-2.3 0.12,-1.31 0.2,-4.21 0.26,-8.7 0.06,-1.3 0.08,-2.21 0.08,-2.72l-5.88 0c-0.56,1.36 -1.16,2.52 -1.79,3.49 -0.34,-0.28 -0.73,-0.51 -1.19,-0.68 1.31,-2.22 2.39,-4.72 3.24,-7.5l1.45 0.25c-0.12,0.34 -0.31,0.85 -0.6,1.54 -0.23,0.74 -0.43,1.27 -0.59,1.62l6.82 0c0,0.4 0,1.02 0,1.87 -0.12,4.89 -0.23,8.55 -0.35,11 -0.05,2.33 -1.28,3.52 -3.66,3.58 -1.14,0 -2.3,0 -3.5,0zm-10.06 -8.37l0 5.56 5.12 0 0 -5.56 -5.12 0zm0 -6.8l0 5.44 5.12 0 0 -5.44 -5.12 0zm12.36 9.11c-1.25,-1.82 -2.36,-3.35 -3.32,-4.6l1.11 -0.77c0.11,0.17 0.28,0.4 0.51,0.68 1.25,1.53 2.22,2.81 2.9,3.84l-1.2 0.85z"/>
  <path id="7" class="fil0" d="M748.69 233.98l0 -1.36 10.32 0c0.68,-1.48 0.99,-4.01 0.94,-7.59l1.53 0c0,3.24 -0.29,5.77 -0.85,7.59l8.1 0 0 1.36 -8.62 0c0,0.06 -0.05,0.17 -0.16,0.34 -0.06,0.17 -0.12,0.32 -0.17,0.43 2.72,1.19 5.59,2.44 8.61,3.75l-0.86 1.28c-1.81,-0.85 -4.15,-1.9 -6.99,-3.16 -0.68,-0.34 -1.22,-0.59 -1.62,-0.76 -1.65,1.82 -4.83,3.24 -9.55,4.26 -0.22,-0.45 -0.51,-0.94 -0.85,-1.45 5.63,-0.97 8.95,-2.53 9.98,-4.69l-9.81 0zm0.35 -7.67l0 -3.84 9.46 0c-0.35,-0.91 -0.74,-1.71 -1.2,-2.39l1.45 -0.51c0.23,0.4 0.57,1.02 1.02,1.88 0.11,0.34 0.23,0.59 0.34,0.76l-0.85 0.26 8.95 0 0 3.84 -1.45 0 0 -2.56 -16.27 0 0 2.56 -1.45 0zm6.13 5.37c-0.22,-0.11 -0.59,-0.31 -1.11,-0.59 -0.68,-0.4 -1.73,-0.94 -3.15,-1.62l0.77 -1.11c0.34,0.17 0.85,0.43 1.53,0.77 1.14,0.57 2.05,1.02 2.73,1.36l-0.77 1.19zm1.96 -3.07c-1.42,-0.9 -2.81,-1.7 -4.17,-2.38l0.76 -1.02c0.51,0.22 1.23,0.59 2.13,1.1 0.91,0.46 1.59,0.83 2.05,1.11l-0.77 1.19z"/>
  <path id="8" class="fil0" d="M785.02 236.2l0 -6.65 -2.97 0.51 0 6.22c-0.12,1.31 0.54,1.91 1.96,1.79l4.17 0c1.37,0.06 2.13,-0.37 2.31,-1.27 0,-0.12 0.02,-0.29 0.08,-0.52 0.12,-0.62 0.2,-1.13 0.26,-1.53 0.11,0.06 0.34,0.14 0.68,0.25 0.23,0.06 0.4,0.12 0.51,0.17 0,0.4 -0.08,1.03 -0.25,1.88 0.17,-0.57 0.14,-0.48 -0.09,0.25 -0.28,1.49 -1.34,2.17 -3.15,2.05l-4.95 0c-1.93,0.06 -2.87,-0.82 -2.81,-2.64l0 -6.31 -1.28 0.17 -0.17 -1.11 1.45 -0.34 0 -2.73 1.28 0 0 2.48 2.97 -0.6 0 -3.75 1.28 0 0 3.49 4.44 -0.93c0,0.91 -0.03,2.27 -0.09,4.09 -0.06,0.45 -0.08,0.79 -0.08,1.02 0,1.59 -0.72,2.39 -2.13,2.39 -0.52,0.06 -1,0.08 -1.46,0.08 -0.05,-0.51 -0.14,-0.93 -0.25,-1.28 0.62,0 1.08,0 1.36,0 0.85,0.06 1.28,-0.36 1.28,-1.27 0,-0.29 0,-0.86 0,-1.71 0.06,-0.85 0.09,-1.45 0.09,-1.79l-3.16 0.68 0 6.91 -1.28 0zm-9.45 -13.13c-0.12,-0.28 -0.26,-0.71 -0.43,-1.28 -0.29,-0.85 -0.48,-1.47 -0.6,-1.87l1.36 -0.34c0.12,0.28 0.29,0.82 0.52,1.62 0.22,0.74 0.36,1.28 0.42,1.62l-1.27 0.25zm3.75 0.1l0 1.19 -4.52 0c0,1.31 -0.03,2.47 -0.09,3.5l3.92 0c0,0.57 -0.03,1.42 -0.08,2.56 -0.06,2.84 -0.11,4.83 -0.17,5.96 0,1.94 -0.85,2.9 -2.56,2.9 -0.34,0.06 -0.85,0.09 -1.54,0.09 0,-0.17 -0.05,-0.49 -0.17,-0.94 -0.05,-0.17 -0.08,-0.31 -0.08,-0.43 0.45,0 0.96,0 1.54,0 0.96,0.12 1.44,-0.42 1.44,-1.62 0.17,-1.87 0.26,-4.32 0.26,-7.33l-2.56 0c0,0.46 0,0.85 0,1.19 -0.11,4.33 -0.94,7.51 -2.47,9.55 -0.4,-0.39 -0.77,-0.71 -1.11,-0.94 1.42,-1.81 2.16,-4.66 2.22,-8.52 0.11,-1.99 0.17,-3.98 0.17,-5.97l-1.79 0 0 -1.19 7.59 0zm0.42 3.58c-0.17,-0.28 -0.51,-0.6 -1.02,-0.94 1.7,-1.82 2.98,-3.86 3.83,-6.14l1.45 0.26c-0.11,0.28 -0.31,0.71 -0.59,1.28 -0.29,0.51 -0.49,0.91 -0.6,1.19l9.04 0 0 1.2 -9.81 0c-0.79,1.3 -1.56,2.35 -2.3,3.15z"/>
  <path id="9" class="fil0" d="M814.54 233.13c-3.24,-0.62 -5.68,-1.3 -7.33,-2.04 -1.65,0.85 -4.01,1.62 -7.08,2.3l-0.59 -1.2c2.55,-0.51 4.68,-1.1 6.39,-1.79 -1.08,-0.68 -2.04,-1.5 -2.9,-2.47 -0.11,0.12 -0.28,0.29 -0.51,0.51 -0.68,0.74 -1.28,1.31 -1.79,1.71 -0.06,-0.11 -0.2,-0.28 -0.43,-0.51 -0.17,-0.23 -0.31,-0.4 -0.42,-0.51 1.64,-1.2 3.1,-2.9 4.34,-5.12l1.28 0.34c-0.22,0.4 -0.48,0.83 -0.76,1.28l7.93 0 0 1.28c-1.14,1.42 -2.48,2.59 -4.01,3.49 1.87,0.69 4.01,1.14 6.39,1.37 -0.17,0.4 -0.34,0.85 -0.51,1.36zm-12.95 6.91l0 -6.4 10.91 0 0 6.4 -1.36 0 0 -1.1 -8.1 0 0 1.1 -1.45 0zm-7.07 -17.14l0 -1.2 5.79 0 0 -2.04 1.37 0 0 2.04 6.12 0 0 -2.04 1.36 0 0 2.04 5.8 0 0 1.2 -5.8 0 0 1.62 -1.36 0 0 -1.62 -6.12 0 0 1.62 -1.37 0 0 -1.62 -5.79 0zm8.52 11.94l0 2.9 8.1 0 0 -2.9 -8.1 0zm8.09 -8.1l-7.16 0c-0.06,0.06 -0.08,0.11 -0.08,0.17 1.08,1.31 2.21,2.24 3.4,2.81 1.48,-0.79 2.76,-1.79 3.84,-2.98zm-14.92 13.13l-1.36 -0.51c0.79,-1.65 1.64,-3.81 2.55,-6.48 0.46,0.22 0.89,0.42 1.28,0.59 -0.23,0.57 -0.56,1.43 -1.02,2.56 -0.68,1.71 -1.17,2.98 -1.45,3.84zm1.36 -8.27c-0.05,-0.06 -0.17,-0.14 -0.33,-0.26 -1.25,-0.91 -2.22,-1.56 -2.9,-1.96l0.76 -1.02c1.25,0.74 2.36,1.45 3.33,2.13l-0.86 1.11zm1.46 -3.92c-0.69,-0.51 -1.6,-1.17 -2.73,-1.96 -0.17,-0.12 -0.31,-0.2 -0.43,-0.26l0.85 -1.02c1.2,0.74 2.28,1.45 3.24,2.13l-0.93 1.11z"/>
  <path id="10" class="fil0" d="M832.79 232.95c0,-0.05 -0.02,-0.16 -0.08,-0.33 -0.06,-0.35 -0.12,-0.69 -0.17,-1.03 0.45,0.06 0.94,0.09 1.45,0.09 0.91,0.05 1.36,-0.54 1.36,-1.79 0,-0.46 0.03,-1.17 0.09,-2.13 0.05,-1.2 0.11,-2.05 0.17,-2.56l-3.75 1.28 0 9.12 -1.45 0 0 -8.61 -3.49 1.19 0 7.93c-0.12,1.37 0.62,1.99 2.21,1.88l4.61 0c1.59,0.05 2.47,-0.46 2.64,-1.54 0.17,-0.85 0.31,-1.79 0.42,-2.81 0.17,0.06 0.4,0.14 0.69,0.25 0.28,0.12 0.51,0.2 0.68,0.26 0,0.17 -0.03,0.4 -0.09,0.68 -0.11,1.02 -0.25,1.79 -0.42,2.3 -0.34,1.48 -1.51,2.19 -3.5,2.13l-5.54 0c-2.16,0.06 -3.18,-0.85 -3.07,-2.72l0 -7.93 -1.7 0.59 -0.26 -1.36 1.96 -0.6 0 -5.03 1.37 0 0 4.52 3.49 -1.19 0 -5.88 1.45 0 0 5.45 5.11 -1.7c0,0.28 -0.02,0.74 -0.08,1.36 -0.06,2.79 -0.12,4.52 -0.17,5.2 -0.06,2.05 -0.83,3.01 -2.31,2.9 -0.51,0.06 -1.05,0.08 -1.62,0.08zm-14.91 -6.04l0 -1.28 2.3 0 0 -5.88 1.37 0 0 5.88 2.21 0 0 1.28 -2.21 0 0 8.27 2.81 -0.85c0,0.22 0.03,0.65 0.08,1.28 -1.76,0.57 -4.03,1.22 -6.82,1.96l-0.33 -1.2c0.9,-0.22 1.87,-0.51 2.89,-0.85l0 -8.61 -2.3 0z"/>
  <path id="11" class="fil0" d="M844.58 240.55l-0.68 -0.6c1.31,-0.96 1.93,-2.1 1.88,-3.41l-1.28 0 0 -2.47 2.3 0c0,0.34 0,1.05 0,2.13 0.06,1.88 -0.68,3.33 -2.22,4.35z"/>
  <path id="12" class="fil0" d="M864.29 222.38l0 -1.45 18.92 0 0 1.45 -10.74 0 -0.94 5.63 9.12 0 0 9.56 3.5 0 0 1.37 -20.63 0 0 -1.37 4.77 0 1.45 -8.2 -4.86 0 0 -1.36 5.12 0 0.94 -5.63 -6.65 0zm14.83 6.99l-7.84 0 -1.45 8.2 9.29 0 0 -8.2z"/>
  <path id="13" class="fil0" d="M892.27 239.03l0 -1.37 7.59 0c1.48,-3.75 2.79,-7.5 3.92,-11.25l1.53 0.51c-1.58,4.54 -2.89,8.13 -3.92,10.74l5.89 0 0 1.37 -15.01 0zm-5.2 -7.6c-0.05,-0.29 -0.19,-0.65 -0.42,-1.11 -0.06,-0.28 -0.11,-0.48 -0.17,-0.6 1.99,-3.01 3.52,-6.36 4.6,-10.06l1.45 0.43c-0.51,1.59 -1.08,3.07 -1.7,4.43l0 15.6 -1.37 0 0 -12.7c-0.68,1.42 -1.48,2.76 -2.39,4.01zm12.71 -7.93c-0.23,-0.51 -0.57,-1.36 -1.03,-2.56 -0.23,-0.4 -0.37,-0.71 -0.43,-0.93l1.46 -0.35c0.56,1.31 1.02,2.48 1.36,3.5l-1.36 0.34zm6.9 0.08l0 1.36 -13.81 0 0 -1.36 13.81 0zm-9.8 12.28c-0.74,-2.73 -1.65,-5.71 -2.73,-8.95l1.36 -0.43c0.46,1.31 1.17,3.5 2.13,6.57 0.29,1.02 0.52,1.79 0.68,2.3l-1.44 0.51z"/>
  <polygon id="14" class="fil0" points="909.51,230.15 909.51,228.61 930.23,228.61 930.23,230.15 "/>
  <path id="15" class="fil0" d="M938.6 225.3l0 -1.28 5.97 0 0 -4.27 1.36 0 0 4.27 6.48 0 0 1.28 -5.54 0c1.48,4.14 3.63,7.32 6.48,9.54 -0.06,0.05 -0.12,0.14 -0.17,0.25 -0.4,0.51 -0.66,0.88 -0.77,1.11 -3.07,-2.9 -5.23,-6.39 -6.48,-10.48l0 8.77 3.49 0 0 1.37 -3.49 0 0 4.18 -1.36 0 0 -4.18 -3.5 0 0 -1.37 3.5 0 0 -8.77c-1.25,4.2 -3.41,7.81 -6.48,10.82 0,-0.06 -0.06,-0.11 -0.17,-0.17 -0.34,-0.57 -0.63,-0.94 -0.86,-1.11 3.07,-2.67 5.23,-5.99 6.48,-9.96l-4.94 0zm-3.33 14.74l0 -12.19c-0.17,0.23 -0.4,0.59 -0.68,1.11 -0.29,0.45 -0.8,1.22 -1.54,2.3 -0.28,-0.68 -0.48,-1.22 -0.59,-1.62 2.04,-2.84 3.63,-6.14 4.77,-9.89l1.37 0.34c-0.63,1.82 -1.29,3.49 -1.96,5.03l0 14.92 -1.37 0z"/>
  <path id="16" class="fil0" d="M957.55 222.57l0 -1.37 16.88 0 0 1.37 -7.93 0c-0.06,2.38 -0.23,4.11 -0.51,5.19l10.06 0 0 1.45 -8.19 0 0 7.07c-0.11,1.14 0.54,1.68 1.96,1.62l2.65 0c1.25,0.06 1.93,-0.46 2.04,-1.53 0.06,-0.46 0.14,-1.31 0.26,-2.56 0.51,0.22 0.99,0.4 1.45,0.51 -0.06,0.34 -0.12,0.79 -0.17,1.36 -0.06,0.63 -0.12,1.11 -0.18,1.45 -0.17,1.48 -1.24,2.19 -3.23,2.13l-3.33 0c-1.99,0.06 -2.95,-0.85 -2.9,-2.72l0 -7.33 -0.68 0c-0.91,4.61 -3.86,8.24 -8.86,10.91l-1.11 -1.19c4.83,-2.5 7.64,-5.74 8.43,-9.72l-8.26 0 0 -1.45 8.61 0c0.28,-1.53 0.45,-3.26 0.51,-5.19l-7.5 0z"/>
  <path id="17" class="fil0" d="M998.91 227.85c-2.28,-0.51 -3.98,-1.08 -5.12,-1.7 -1.19,0.68 -2.93,1.28 -5.2,1.78 -0.06,-0.11 -0.2,-0.39 -0.43,-0.85 -0.05,-0.17 -0.11,-0.28 -0.17,-0.34 1.88,-0.34 3.41,-0.79 4.61,-1.36 -0.69,-0.52 -1.31,-1.17 -1.88,-1.96 -0.51,0.62 -1.11,1.19 -1.79,1.7 -0.28,-0.28 -0.54,-0.59 -0.77,-0.94 1.65,-1.36 2.9,-2.92 3.75,-4.68l1.2 0.34c-0.17,0.45 -0.43,0.91 -0.77,1.36l5.54 0 0 1.19c-0.85,1.26 -1.82,2.28 -2.89,3.07 1.07,0.51 2.55,0.89 4.43,1.11 -0.06,0.17 -0.17,0.45 -0.34,0.86 -0.06,0.16 -0.12,0.31 -0.17,0.42zm-10.07 1.88l0 -1.02 4.26 0 0 -1.28 1.28 0 0 1.28 4.26 0 0 1.02 -4.26 0 0 1.86 3.58 0 0 1.02 -3.58 0 0 1.88 4.69 0 0 1.11 -4.69 0 0 1.88 -1.28 0 0 -1.88 -4.69 0 0 -1.11 4.69 0 0 -1.88 -3.67 0 0 -1.02 3.67 0 0 -1.86 -4.26 0zm-4.69 10.05l-0.94 -1.02c0.4,-0.46 1,-1.08 1.79,-1.88 0.35,-0.4 0.63,-0.71 0.86,-0.94l0 -7.41 -1.45 0 0 -1.28 2.73 0 0 8.69c1.25,1.48 2.87,2.16 4.86,2.05 0.11,0 0.31,0 0.59,0 2.73,0.11 5,0.14 6.82,0.09 -0.17,0.39 -0.31,0.85 -0.42,1.36 -2.51,0 -4.89,-0.06 -7.17,-0.17 -2.44,-0.06 -4.2,-0.8 -5.28,-2.22 -0.46,0.46 -1.25,1.37 -2.39,2.73zm-4.68 -6.31l-0.43 -1.28c0.4,-0.33 0.85,-0.88 1.37,-1.61 0.22,-0.4 0.62,-1.03 1.19,-1.88 0.17,-0.4 0.31,-0.68 0.42,-0.85 -0.9,0 -1.93,0.06 -3.06,0.17l-0.34 -1.28c0.28,-0.29 0.65,-0.79 1.1,-1.53 1.25,-2.28 2.13,-4.07 2.65,-5.38l1.36 0.52c-0.17,0.28 -0.4,0.74 -0.68,1.36 -1.14,2.1 -2.11,3.78 -2.9,5.03l2.56 -0.17c0.34,-0.68 0.68,-1.36 1.02,-2.05l1.19 0.52c-1.99,3.57 -3.38,5.91 -4.17,6.99 0.05,0 0.14,0 0.25,0 0.97,-0.06 2.05,-0.17 3.24,-0.35 -0.05,0.23 -0.08,0.63 -0.08,1.2 -2.22,0.22 -3.78,0.42 -4.69,0.59zm17.13 -11.16l-5.03 0 -0.17 0.26c0.91,1.13 1.71,1.87 2.39,2.21 0.91,-0.45 1.85,-1.28 2.81,-2.47zm-17.73 15.43l-0.25 -1.2c2.67,-0.45 4.63,-0.79 5.88,-1.02 0,0.12 0,0.31 0,0.6 -0.06,0.28 -0.09,0.51 -0.09,0.68 -0.45,0.06 -1.36,0.23 -2.73,0.51 -1.42,0.23 -2.35,0.37 -2.81,0.43zm7.5 -13.39c-0.51,-1.7 -0.99,-3.09 -1.45,-4.17l1.2 -0.43c0.23,0.51 0.54,1.36 0.94,2.56 0.28,0.74 0.48,1.27 0.59,1.62l-1.28 0.42z"/>
  <path id="18" class="fil0" d="M1001.9 237.99l-0.17 -1.28 1.62 -0.17 0 -15.51 7.26 0 0 14.58 1.27 -0.17 0 1.36c-3.07,0.34 -6.4,0.74 -9.98,1.19zm9.47 2.06c-0.34,-0.34 -0.71,-0.71 -1.11,-1.11 2.78,-2.16 4.21,-6 4.26,-11.51l0.09 -1.96 -2.56 0 0 -1.28 2.56 0c0.06,-0.96 0.08,-2.41 0.08,-4.35l1.45 0c-0.06,0.86 -0.08,2.31 -0.08,4.35l5.2 0c-0.12,4.61 -0.26,8.84 -0.43,12.7 0,1.82 -0.91,2.73 -2.73,2.73 -0.68,0 -1.59,0 -2.72,0 0,-0.05 0,-0.14 0,-0.25 -0.06,-0.29 -0.18,-0.68 -0.35,-1.2 1.03,0.06 1.91,0.09 2.65,0.09 1.19,0 1.82,-0.51 1.87,-1.53 0,-0.69 0.03,-1.97 0.09,-3.84 0.11,-3.53 0.2,-6 0.25,-7.42l-3.92 0 -0.08 2.05c-0.06,5.79 -1.57,9.97 -4.52,12.53zm-6.66 -3.68c1.54,-0.17 3.05,-0.34 4.53,-0.51l0 -3.67 -4.53 0 0 4.18zm0 -14.06l0 3.74 4.53 0 0 -3.74 -4.53 0zm0 4.93l0 3.76 4.53 0 0 -3.76 -4.53 0z"/>
  <path id="19" class="fil0" d="M1026.05 239.88c-0.12,-0.12 -0.31,-0.35 -0.6,-0.69 -0.22,-0.28 -0.37,-0.45 -0.42,-0.51 4.94,-2.67 7.44,-6.76 7.5,-12.27 0,-0.17 0,-0.34 0,-0.52l-6.91 0 0 -1.44 6.99 0c0.12,-2.05 0.17,-3.61 0.17,-4.69l1.54 0c0,1.02 -0.06,2.36 -0.17,4 0,0.29 0,0.52 0,0.69l9.63 0c-0.11,4.03 -0.26,7.53 -0.43,10.48 0,3.01 -1.39,4.46 -4.17,4.35 -1.65,0.06 -2.9,0.08 -3.75,0.08 -0.06,-0.33 -0.11,-0.76 -0.17,-1.27 0,0.17 -0.03,0.05 -0.09,-0.35 0.97,0.06 2.22,0.09 3.75,0.09 1.93,0.17 2.93,-0.97 2.99,-3.41 0,-0.34 0.02,-0.94 0.08,-1.79 0.12,-3.13 0.17,-5.37 0.17,-6.74l-8.1 0 0 0.18c-0.11,6.42 -2.78,11.02 -8.01,13.81z"/>
  <path id="20" class="fil0" d="M1050.79 236.46c0.17,-1.88 1.19,-2.9 3.07,-3.07 1.82,0.17 2.81,1.19 2.98,3.07 -0.17,1.7 -1.16,2.64 -2.98,2.81 -1.88,-0.17 -2.9,-1.11 -3.07,-2.81zm0.94 0c0.11,1.14 0.82,1.76 2.13,1.87 1.25,-0.11 1.93,-0.73 2.05,-1.87 -0.12,-1.31 -0.8,-2.02 -2.05,-2.13 -1.31,0.11 -2.02,0.82 -2.13,2.13z"/>
  <polygon class="fil1" points="582.96,195.38 579.64,195.38 579.64,175.19 582.96,175.19 "/>
  <polygon id="1" class="fil1" points="1060.85,192.09 1064.14,192.09 1064.14,195.38 1060.85,195.38 "/>
  <path id="2" class="fil1" d="M604.62 195.38l-3.29 0 0 -20.19 3.29 0 0.01 1.59c0.09,-0.53 0.29,-0.93 0.61,-1.2 0.33,-0.26 0.76,-0.39 1.31,-0.39l1.13 0c0.85,0 1.51,0.24 1.98,0.72 0.48,0.48 0.72,1.16 0.72,2.03l0 17.44 -3.32 0 0 -16.96 -2.44 0 0 16.96z"/>
  <path id="3" class="fil1" d="M628.69 177.94c0,-0.87 0.24,-1.55 0.71,-2.03 0.47,-0.48 1.12,-0.72 1.97,-0.72l3.69 0c0.85,0 1.51,0.24 1.99,0.72 0.48,0.48 0.72,1.16 0.72,2.03l0 0.5 -3.34 1.75 0 -1.8 -2.42 0 0 5.08 5.76 -2.97 0 12.11c0,0.88 -0.24,1.56 -0.71,2.05 -0.47,0.48 -1.14,0.72 -2,0.72l-3.69 0c-0.85,0 -1.5,-0.24 -1.97,-0.73 -0.47,-0.48 -0.71,-1.16 -0.71,-2.04l0 -1.9 3.32 -1.71 0 3.18 2.42 0 0 -6.35 -5.74 3 0 -10.89z"/>
  <polygon id="4" class="fil1" points="659.4,195.38 656.08,195.38 656.08,175.19 659.4,175.19 "/>
  <path id="5" class="fil1" d="M677.72 177.94c0,-0.87 0.23,-1.55 0.7,-2.03 0.47,-0.48 1.13,-0.72 1.97,-0.72l3.69 0c0.85,0 1.52,0.24 2,0.72 0.48,0.48 0.72,1.16 0.72,2.03l0 2.89 -3.35 1.69 0 -4.13 -2.42 0 0 13.79 2.42 0 0 -4.55 -1.33 0.7 0 -3.64 4.68 -2.36 0 13.05 -6.41 0c-0.84,0 -1.5,-0.24 -1.97,-0.72 -0.47,-0.49 -0.7,-1.17 -0.7,-2.05l0 -14.67z"/>
  <polygon id="6" class="fil1" points="714.22,175.19 714.22,195.38 710.93,195.38 710.93,186.01 708.43,187.3 708.43,195.38 705.14,195.38 705.14,175.19 708.43,175.19 708.43,183.66 710.93,182.41 710.93,175.19 "/>
  <polygon id="7" class="fil1" points="734.8,195.38 734.8,178.42 731.53,178.42 731.53,175.19 741.38,175.19 741.38,178.42 738.12,178.42 738.12,195.38 "/>
  <path id="8" class="fil1" d="M770.28 183.28l0 -4.89 -2.44 0 0 6.08 2.44 -1.19zm3.32 12.1l-3.32 0 0 -8.56 -2.44 1.26 0 7.3 -3.32 0 0 -17.44c0,-0.87 0.23,-1.55 0.7,-2.03 0.47,-0.48 1.13,-0.72 1.97,-0.72l3.71 0c0.84,0 1.5,0.24 1.98,0.72 0.48,0.48 0.72,1.16 0.72,2.03l0 17.44z"/>
  <path id="9" class="fil1" d="M795.26 195.38l-3.29 0 0 -20.19 3.29 0 0.01 1.59c0.08,-0.53 0.29,-0.93 0.61,-1.2 0.32,-0.26 0.76,-0.39 1.31,-0.39l1.13 0c0.84,0 1.5,0.24 1.98,0.72 0.48,0.48 0.72,1.16 0.72,2.03l0 17.44 -3.32 0 0 -16.96 -2.44 0 0 16.96z"/>
  <path id="10" class="fil1" d="M825.74 175.19c0.84,0 1.5,0.24 1.98,0.72 0.48,0.48 0.72,1.16 0.72,2.03l0 14.67c0,0.88 -0.24,1.56 -0.71,2.05 -0.48,0.48 -1.14,0.72 -1.99,0.72l-6.38 0 0 -20.19 6.38 0zm-0.62 3.2l-2.44 0 0 13.79 2.44 0 0 -13.79z"/>
  <path id="11" class="fil1" d="M852.54 177.94c0,-0.87 0.23,-1.55 0.7,-2.03 0.47,-0.48 1.13,-0.72 1.97,-0.72l3.69 0c0.86,0 1.52,0.24 2,0.72 0.48,0.48 0.72,1.16 0.72,2.03l0 2.63 -3.35 1.68 0 -3.86 -2.41 0 0 13.79 2.41 0 0 -2.86 3.35 -1.71 0 5c0,0.88 -0.24,1.56 -0.71,2.05 -0.47,0.48 -1.14,0.72 -2.01,0.72l-3.69 0c-0.84,0 -1.5,-0.24 -1.97,-0.72 -0.47,-0.49 -0.7,-1.17 -0.7,-2.05l0 -14.67z"/>
  <path id="12" class="fil1" d="M889.01 185.19l-2.45 1.25 3.78 8.94 -3.46 0 -3.14 -7.47 -0.49 0.25 0 7.22 -3.32 0 0 -20.19 6.38 0c0.84,0 1.5,0.24 1.98,0.72 0.48,0.48 0.72,1.16 0.72,2.03l0 7.25zm-3.32 -1.86l0 -4.94 -2.44 0 0 6.16 2.44 -1.22z"/>
  <polygon id="13" class="fil1" points="915.28,195.38 907.29,195.38 907.29,175.19 915.28,175.19 915.28,178.42 910.61,178.42 910.61,183.63 915.28,181.27 915.28,184.88 910.61,187.27 910.61,192.15 915.28,192.15 "/>
  <path id="14" class="fil1" d="M938.99 183.28l0 -4.89 -2.44 0 0 6.08 2.44 -1.19zm3.32 12.1l-3.32 0 0 -8.56 -2.44 1.26 0 7.3 -3.32 0 0 -17.44c0,-0.87 0.23,-1.55 0.71,-2.03 0.47,-0.48 1.12,-0.72 1.96,-0.72l3.71 0c0.84,0 1.5,0.24 1.98,0.72 0.48,0.48 0.72,1.16 0.72,2.03l0 17.44z"/>
  <polygon id="15" class="fil1" points="962.89,195.38 962.89,178.42 959.63,178.42 959.63,175.19 969.47,175.19 969.47,178.42 966.21,178.42 966.21,195.38 "/>
  <polygon id="16" class="fil1" points="990.11,195.38 986.79,195.38 986.79,175.19 990.11,175.19 "/>
  <polygon id="17" class="fil1" points="1010.61,195.38 1007.03,175.19 1010.37,175.19 1012.53,188.08 1014.67,175.19 1018,175.19 1014.45,195.38 "/>
  <polygon id="18" class="fil1" points="1042.9,195.38 1034.91,195.38 1034.91,175.19 1042.9,175.19 1042.9,178.42 1038.23,178.42 1038.23,183.63 1042.9,181.27 1042.9,184.88 1038.23,187.27 1038.23,192.15 1042.9,192.15 "/>
  <path class="fil2" d="M0 20.19c0,-6.37 1.71,-11.34 5.15,-14.89 3.45,-3.52 8.25,-5.3 14.43,-5.3l27.04 0c6.26,0 11.13,1.78 14.65,5.3 3.51,3.55 5.26,8.52 5.26,14.92l0 19.26 -24.53 12.3 0 -28.33 -17.69 0 0 101.07 17.69 0 0 -20.93 24.53 -12.58 0 36.64c0,6.47 -1.75,11.48 -5.19,15.03 -3.49,3.52 -8.39,5.3 -14.72,5.3l-27.04 0c-6.18,0 -10.98,-1.78 -14.43,-5.3 -3.44,-3.55 -5.15,-8.56 -5.15,-14.99l0 -107.5zm903.17 127.79c-6.18,0 -10.98,-1.78 -14.43,-5.3 -3.44,-3.55 -5.15,-8.56 -5.15,-14.99l0 -50.33c0,-4.9 0.82,-8.81 2.49,-11.69 1.67,-2.88 4.34,-4.94 7.96,-6.22 -3.62,-0.88 -6.29,-2.52 -7.96,-4.94 -1.67,-2.38 -2.49,-5.75 -2.49,-10.16l0 -24.13c0,-6.47 1.71,-11.44 5.15,-14.96 3.45,-3.52 8.25,-5.26 14.43,-5.26l27.15 0c6.26,0 11.13,1.78 14.61,5.33 3.45,3.52 5.19,8.49 5.19,14.89l0 5.12 -24.31 12.58 0 -14.47 -17.91 0 0 28.51 7.68 -4.06 0 26.44 -7.68 4.27 0 45.91 17.91 0 0 -17.06 -6.01 2.99 0 -26.4 36.68 -18.45 0 26.44 -6.36 3.45 0 32.16c0,6.47 -1.74,11.48 -5.19,15.03 -3.48,3.52 -8.35,5.3 -14.61,5.3l-27.15 0zm162.22 0l-58.56 0 0 -147.98 58.56 0 0 23.67 -34.26 0 0 38.2 34.26 -17.27 0 26.44 -34.26 17.48 0 35.79 34.26 0 0 23.67zm-985.01 -127.79c0,-6.37 1.7,-11.34 5.15,-14.89 3.45,-3.52 8.24,-5.3 14.43,-5.3l27.04 0c6.25,0 11.12,1.78 14.64,5.3 3.52,3.55 5.26,8.52 5.26,14.89l0 107.5c0,6.43 -1.74,11.44 -5.19,14.99 -3.48,3.52 -8.38,5.3 -14.71,5.3l-27.04 0c-6.19,0 -10.98,-1.78 -14.43,-5.3 -3.45,-3.55 -5.15,-8.56 -5.15,-14.99l0 -107.5zm42 3.26l-17.7 0 0 101.07 17.7 0 0 -101.07zm62.89 124.53l-24.09 0 0 -147.98 24.09 0 0.11 11.69c0.6,-3.91 2.09,-6.82 4.48,-8.78 2.34,-1.95 5.54,-2.91 9.55,-2.91l8.32 0c6.18,0 11.02,1.78 14.5,5.3 3.52,3.55 5.26,8.52 5.26,14.89l0 127.79 -24.31 0 0 -124.31 -17.91 0 0 124.31zm56.49 0l0 -147.98 58.61 0 0 23.67 -34.3 0 0 38.2 34.3 -17.27 0 26.44 -34.3 17.48 0 59.46 -24.31 0zm125.94 0l-58.57 0 0 -147.98 58.57 0 0 23.67 -34.26 0 0 38.2 34.26 -17.27 0 26.44 -34.26 17.48 0 35.79 34.26 0 0 23.67zm77.92 -74.67l-17.95 9.17 27.72 65.5 -25.41 0 -22.95 -54.77 -3.63 1.89 0 52.88 -24.3 0 0 -147.98 46.73 0c6.18,0 11.01,1.78 14.53,5.3 3.52,3.55 5.26,8.52 5.26,14.89l0 53.12zm-24.31 -13.61l0 -36.25 -17.91 0 0 45.21 17.91 -8.96zm96.73 88.28l-58.57 0 0 -147.98 58.57 0 0 23.67 -34.26 0 0 38.2 34.26 -17.27 0 26.44 -34.26 17.48 0 35.79 34.26 0 0 23.67zm35.7 0l-24.09 0 0 -147.98 24.09 0 0.11 11.69c0.6,-3.91 2.09,-6.82 4.48,-8.78 2.34,-1.95 5.54,-2.91 9.55,-2.91l8.32 0c6.18,0 11.02,1.78 14.5,5.3 3.52,3.55 5.26,8.52 5.26,14.89l0 127.79 -24.31 0 0 -124.31 -17.91 0 0 124.31zm56.28 -127.79c0,-6.37 1.71,-11.34 5.15,-14.89 3.45,-3.52 8.25,-5.3 14.43,-5.3l27.05 0c6.25,0 11.12,1.78 14.64,5.3 3.52,3.55 5.26,8.52 5.26,14.92l0 19.26 -24.52 12.3 0 -28.33 -17.7 0 0 101.07 17.7 0 0 -20.93 24.52 -12.58 0 36.64c0,6.47 -1.74,11.48 -5.19,15.03 -3.48,3.52 -8.39,5.3 -14.71,5.3l-27.05 0c-6.18,0 -10.98,-1.78 -14.43,-5.3 -3.44,-3.55 -5.15,-8.56 -5.15,-14.99l0 -107.5zm139.15 127.79l-58.56 0 0 -147.98 58.56 0 0 23.67 -34.25 0 0 38.2 34.25 -17.27 0 26.44 -34.25 17.48 0 35.79 34.25 0 0 23.67zm11.19 -127.79c0,-6.37 1.7,-11.34 5.15,-14.89 3.45,-3.52 8.25,-5.3 14.43,-5.3l27.04 0c6.26,0 11.13,1.78 14.64,5.33 3.52,3.52 5.26,8.49 5.26,14.89l0 3.66 -24.52 12.79 0 -13.22 -17.69 0 0 37.28 42.21 -21.78 0 88.74c0,6.43 -1.74,11.44 -5.18,14.99 -3.49,3.52 -8.39,5.3 -14.72,5.3l-27.04 0c-6.18,0 -10.98,-1.78 -14.43,-5.33 -3.45,-3.52 -5.15,-8.53 -5.15,-15l0 -13.86 24.31 -12.58 0 23.31 17.69 0 0 -46.52 -42 21.97 0 -79.78zm329.86 51.67l-20.72 -71.86 24.99 0 10.62 37.92 11.12 -37.92 24.99 0 -20.72 71.86 21.96 76.12 -24.98 0 -12.16 -42.29 -12.08 42.29 -24.98 0 21.96 -76.12zm124.51 -71.86l0 147.98 -24.09 0 0 -68.63 -18.34 9.39 0 59.24 -24.09 0 0 -147.98 24.09 0 0 62.08 18.34 -9.16 0 -52.92 24.09 0zm38.59 147.98l-24.31 0 0 -147.98 24.31 0 0 147.98zm57.38 -23.03l0 -47.59 -19.62 9.78 0 37.81 19.62 0zm23.45 -55.69l0 58.21c0,6.93 -1.77,12.08 -5.36,15.46 -3.56,3.38 -9.03,5.05 -16.39,5.05l-44.77 0 0 -147.98 46.73 0c6.25,0 11.12,1.78 14.61,5.3 3.44,3.55 5.18,8.52 5.18,14.89l0 31.16c0,4.98 -0.81,8.92 -2.48,11.76 -1.67,2.85 -4.34,4.87 -7.93,6.15l10.41 0zm-23.45 -16.56l0 -29.88 -19.62 0 0 39.44 19.62 -9.56zm61.82 95.28l-24.3 0 0 -147.98 24.3 0 0 147.98zm30.73 0l0 -124.31 -23.91 0 0 -23.67 72.14 0 0 23.67 -23.92 0 0 124.31 -24.31 0zm79.31 0l-24.3 0 0 -147.98 24.3 0 0 147.98zm14.1 -127.79c0,-6.37 1.71,-11.34 5.15,-14.89 3.45,-3.52 8.25,-5.3 14.43,-5.3l27.05 0c6.25,0 11.12,1.78 14.64,5.3 3.52,3.55 5.26,8.52 5.26,14.89l0 107.5c0,6.43 -1.74,11.44 -5.19,14.99 -3.48,3.52 -8.39,5.3 -14.71,5.3l-27.05 0c-6.18,0 -10.98,-1.78 -14.43,-5.3 -3.44,-3.55 -5.15,-8.56 -5.15,-14.99l0 -107.5zm42.01 3.26l-17.7 0 0 101.07 17.7 0 0 -101.07zm62.89 124.53l-24.1 0 0 -147.98 24.1 0 0.1 11.69c0.61,-3.91 2.1,-6.82 4.48,-8.78 2.35,-1.95 5.55,-2.91 9.56,-2.91l8.32 0c6.18,0 11.01,1.78 14.5,5.3 3.51,3.55 5.26,8.52 5.26,14.89l0 127.79 -24.31 0 0 -124.31 -17.91 0 0 124.31z"/>
  <path class="fil0" d="M379.16 64.6l3.91 -3.43c-0.48,-0.32 -0.92,-0.66 -1.31,-0.98 -2.94,-2.56 -6.2,-6.09 -9.79,-10.61 -5.06,5.56 -11.2,10.56 -18.45,15.02l25.64 0zm-2.29 -21.22c4.69,3.53 9,6.42 12.98,8.65 6.04,3.54 12.84,6.45 20.41,8.74l-9.88 12.98c-2.55,-1.36 -5.69,-3.4 -9.39,-6.13l-3.35 3.28 -38.45 0 -0.81 -3.28c-4.14,2.23 -8.52,4.33 -13.16,6.29l-4.32 -5.72c14.91,-8.37 25.78,-19.21 32.58,-32.49l16.08 3.76c-0.86,1.41 -1.77,2.72 -2.69,3.92zm16.57 34.54l4.66 -4.17 7.59 6.86 -3.68 3.59 -30.04 0c-4.52,5.6 -10.06,10.75 -16.65,15.43 13.05,-0.27 23.02,-1.01 29.87,-2.2 -1.46,-2.35 -3.09,-4.63 -4.89,-6.86l6.69 -3.59c4.31,3.14 8.19,6.53 11.68,10.11 2.94,3.05 4.82,5.23 5.64,6.54l-12.16 7.92c-0.77,-2.34 -1.73,-4.62 -2.88,-6.86 -3.8,0.98 -8.56,2.02 -14.28,3.1 -8.71,1.52 -19.42,2.91 -32.17,4.17l-1.79 -12.17 3.35 0c4.78,-5.11 8.32,-10.31 10.6,-15.59l-17.22 0 -1.63 -6.28 57.31 0z"/>
  <path id="1" class="fil0" d="M428.92 35.29l13.14 1.88 0 2.29 42.45 0 5.72 -4.33 10.85 8.41 -3.02 3.51 0 11.11 -14.2 1.78 0 -2.85 -32.58 0 11.11 1.39 0 5.55 7.26 0 0 -6.86 13.15 1.71 0 5.15 2.04 0 4.82 -4.66 8.08 7.19 -3.76 3.43 -11.18 0 0 8.57 5.38 0 4.82 -4.65 8.08 7.18 -3.75 3.43 -5.64 0 8.99 4.82c-3.76,2.23 -7.97,4.25 -12.65,6.04 4.23,2.34 8.79,4.28 13.62,5.79l-9.79 12.34c-12.74,-7.84 -21.47,-17.51 -26.21,-28.99l-6.45 0 0 15.51c4.62,-0.64 8.9,-1.52 12.82,-2.6l2.7 6.45c-9.16,4.08 -18.65,7.28 -28.5,9.63l-2.7 -12c0.77,0 1.48,-0.03 2.13,-0.09l0 -16.9 -4 0c-0.54,5.12 -1.61,9.53 -3.19,13.23 -2.06,5.61 -5.2,10.73 -9.39,15.35l-5.71 -3.91c3.7,-10.13 5.56,-21.3 5.56,-33.49l0 -40.41zm52.08 55.43c0.98,-0.97 1.91,-1.95 2.78,-2.94 1.08,-1.18 1.99,-2.28 2.69,-3.26l-11.43 0c1.63,2.29 3.62,4.36 5.96,6.2zm-31.75 -26.69l0 -6.94 -7.19 0 0 6.94 7.19 0zm20.4 14.53l0 -8.57 -7.26 0 0 8.57 7.26 0zm-20.4 0l0 -8.57 -7.19 0 0 8.57 7.19 0zm-7.19 -27.67l41.8 0 0 -5.4 -41.8 0 0 5.4z"/>
  <path id="2" class="fil0" d="M563.09 64.6l3.91 -3.43c-0.48,-0.32 -0.92,-0.66 -1.3,-0.98 -2.95,-2.56 -6.21,-6.09 -9.8,-10.61 -5.06,5.56 -11.2,10.56 -18.45,15.02l25.64 0zm-2.29 -21.22c4.69,3.53 9,6.42 12.98,8.65 6.04,3.54 12.84,6.45 20.41,8.74l-9.88 12.98c-2.55,-1.36 -5.68,-3.4 -9.39,-6.13l-3.34 3.28 -38.46 0 -0.81 -3.28c-4.14,2.23 -8.52,4.33 -13.15,6.29l-4.32 -5.72c14.91,-8.37 25.77,-19.21 32.57,-32.49l16.08 3.76c-0.86,1.41 -1.77,2.72 -2.69,3.92zm16.57 34.54l4.66 -4.17 7.59 6.86 -3.68 3.59 -30.04 0c-4.51,5.6 -10.06,10.75 -16.65,15.43 13.05,-0.27 23.02,-1.01 29.87,-2.2 -1.46,-2.35 -3.09,-4.63 -4.89,-6.86l6.69 -3.59c4.31,3.14 8.19,6.53 11.68,10.11 2.94,3.05 4.82,5.23 5.64,6.54l-12.16 7.92c-0.77,-2.34 -1.73,-4.62 -2.87,-6.86 -3.81,0.98 -8.57,2.02 -14.29,3.1 -8.71,1.52 -19.42,2.91 -32.17,4.17l-1.78 -12.17 3.34 0c4.78,-5.11 8.32,-10.31 10.6,-15.59l-17.22 0 -1.63 -6.28 57.31 0z"/>
  <path id="3" class="fil0" d="M615.54 61.74l5.88 -5.87 10.77 8.32 -4.08 3.43 0 26.04c2.88,-1.35 5.71,-2.85 8.5,-4.48l3.09 6.28c-5.44,5.71 -12.03,11.27 -19.76,16.67l-6.12 -13.07c0.87,-0.27 1.69,-0.52 2.46,-0.74l0 -23.11 -0.09 0 0 -6.45 -7.1 0 -1.63 -7.02 8.08 0zm54.62 -22.36l12.73 4.4c-3.31,15.47 -8.81,28.91 -16.49,40.34 -0.21,0.38 -0.44,0.68 -0.66,0.89 5.67,6.22 12.44,11.68 20.33,16.41l-6.44 11.77c-8.06,-4.09 -15.38,-10.02 -21.97,-17.81 -5.98,6.76 -12.86,12.61 -20.65,17.55l-5.39 -5.14c7.4,-6.53 13.78,-13.74 19.1,-21.64 -0.43,-0.65 -0.86,-1.29 -1.29,-1.95 -7.36,-11.54 -12.42,-24.8 -15.19,-39.77l6.52 -2.2c4.42,11.97 10.05,22.84 16.9,32.58 5.02,-9.08 9.18,-20.9 12.5,-35.43zm-17.88 -4.25c1.9,1.63 5.98,5.76 12.25,12.41 -3.33,2.18 -6.65,4.43 -9.96,6.77 -2.29,-5.28 -4.96,-10.31 -8.02,-15.1l5.73 -4.08zm-36.09 1.39c6.69,2.66 12.08,5.77 16.17,9.31l-8.42 9.54c-3.8,-4.46 -8.18,-8.48 -13.14,-12.08l5.39 -6.77z"/>
  <polygon id="4" class="fil0" points="855.25,78.41 771.64,78.41 771.64,70.16 855.25,70.16 "/>
  <path id="5" class="fil0" d="M932.27 45.98l4.81 -4.23 8.01 6.85 -3.51 3.6 -43.11 0c-1.31,2.45 -2.56,4.76 -3.76,6.93l0 0.9 28.49 0 6.7 -6.52 11.68 9.05 -4 3.6 0 37.3c0,6.1 -3.05,9.15 -9.15,9.15l-8.17 0c0,-5.33 -3.09,-7.99 -9.31,-7.99l0.34 -5.73c3.71,0.54 7.2,0.82 10.53,0.82 1.26,0 1.88,-0.65 1.88,-1.96l0 -4.49 -28.99 0 0 18.13 -14.12 1.54 0 -33.55c-2.88,3.43 -5.85,6.45 -8.9,9.06l-5.46 -3.1c7.56,-10.72 13.48,-21.77 17.79,-33.14l-14.53 0 -1.55 -6.22 18.2 0c1.25,-3.86 2.28,-7.66 3.1,-11.43l15.43 4.58c-1.09,2.39 -2.12,4.68 -3.09,6.85l30.69 0zm-8.57 41.16l0 -7.27 -28.99 0 0 7.27 28.99 0zm0 -13.47l0 -7.43 -28.99 0 0 7.43 28.99 0z"/>
  <path id="6" class="fil0" d="M986.76 46.4l12.16 1.31 0 3.66 4.99 0 0 -16.98 12.4 1.56 0 15.42 4.25 0 5.56 -5.71 10.77 8.25 -3.68 3.51 0 24.5 -11.51 1.46 0 -4.65 -5.39 0 0 18.78c1.97,-0.17 3.71,-0.42 5.23,-0.74 -0.98,-3.05 -2.01,-5.88 -3.1,-8.49l5.88 -4.24c4.13,5.05 8.49,11.81 13.06,20.24l-11.19 8.17c-0.64,-2.61 -1.32,-5.06 -2.03,-7.35 -2.83,0.81 -6.14,1.69 -9.88,2.61 -7.19,1.57 -16.03,3.05 -26.53,4.42l-2.05 -13.48c6.91,0 12.98,-0.11 18.21,-0.33l0 -19.59 -4.99 0 0 7.99 -12.16 1.48 0 -41.8zm12.16 26.36l4.99 0 0 -15.17 -4.99 0 0 15.17zm17.39 -15.17l0 15.17 5.39 0 0 -15.17 -5.39 0zm-49.55 -22.3c2.61,2.46 4.92,5.12 6.94,8 1.2,-2.51 2.15,-5.03 2.86,-7.59l11.42 2.77c-1.25,5.02 -4.16,10.05 -8.73,15.1 3.16,7.74 4.82,16.61 4.98,26.63 0,12.79 -0.59,20.97 -1.79,24.57 -1.15,5.82 -4.63,8.74 -10.45,8.74l-5.8 0c0,-4.03 -2.31,-6.64 -6.94,-7.84l0.24 -4.5c3.05,0.39 6.05,0.57 8.98,0.57 1.91,0 3.1,-0.97 3.6,-2.92 0.6,-2.9 0.92,-7.39 0.98,-13.48 -3.43,3.6 -7.25,6.51 -11.43,8.74l-4.5 -4.99c5.73,-5.6 10.67,-12.79 14.87,-21.55 -0.28,-2.12 -0.66,-4.13 -1.15,-6.04 -2.39,1.95 -4.98,3.92 -7.76,5.88l-4.57 -4c3.81,-3.44 7.05,-6.99 9.71,-10.7 -1.85,-4.94 -4.23,-9.33 -7.17,-13.14l5.71 -4.25z"/>
  <path id="7" class="fil0" d="M1083.38 39.21l4.98 -4.66 8 7.2 -3.43 3.42 -16.01 0c-2.66,6.26 -5.86,12.06 -9.62,17.39 4.79,-0.43 9.71,-0.94 14.78,-1.54 -1.37,-2.57 -2.76,-4.96 -4.17,-7.19l5.55 -4c4.42,3.8 9.1,8.73 14.04,14.77l0 -23.59 11.43 1.39 0 52.41 -11.43 1.39 0 -29.32 -9.39 6.87c-0.92,-2.07 -1.82,-4.08 -2.69,-6.05 -2.02,0.66 -3.99,1.31 -5.96,1.97l0 9.71 3.02 0 4.83 -4.4 8.08 7.17 -3.77 3.77 -12.16 0 0 8.25c5.5,-0.99 10.13,-1.94 13.88,-2.87l2.69 5.72c-8.11,4.4 -21.71,9.23 -40.82,14.45l-4.08 -12.9c4.2,-0.55 9.14,-1.31 14.86,-2.29l0 -10.36 -11.51 0 -1.55 -6.54 13.06 0 0 -6.12c-3.15,0.76 -6.29,1.47 -9.4,2.12l-4.48 -11.84c1.53,-0.06 3.05,-0.14 4.57,-0.24 2.83,-5.99 4.93,-12.04 6.28,-18.13l-9.88 0 -1.46 -5.96 31.76 0zm30.2 -3.18l12.02 1.55 0 63.76c0,7.57 -3.25,11.36 -9.73,11.36l-5.71 0c0,-5.23 -3.35,-7.99 -10.05,-8.25l0.34 -5.39c4.13,0.16 7.83,0.25 11.1,0.25 1.35,0 2.03,-0.85 2.03,-2.54l0 -60.74z"/>
  <path id="8" class="fil0" d="M1207.75 47.95l4.91 -4.49 7.91 7.19 -3.66 3.66 -42.22 0 0 13.31 22.12 0 6.05 -4.97 12 9.05 -4.17 3.43c0,4.74 -0.18,9.73 -0.57,14.95 -0.54,10.06 -2.38,16.32 -5.55,18.77 -2.82,2.62 -6.77,3.92 -11.84,3.92l-6.28 0c0,-6.2 -3.38,-9.38 -10.12,-9.55l0.66 -5.14c3.52,0.86 8.48,1.31 14.85,1.31 1.36,0 2.23,-0.63 2.6,-1.88 0.72,-0.99 1.29,-4.47 1.72,-10.45 0.44,-3.82 0.65,-8.19 0.65,-13.15l-22.19 0c-0.66,16.06 -10.13,29.06 -28.43,39.02l-4.15 -5.05c12.3,-9.74 18.45,-22.13 18.45,-37.15l0 -16.42 -16.82 0 -1.55 -6.36 34.28 0c-2.12,-3.11 -4.26,-5.77 -6.44,-8l7.51 -5.31c5.6,3.48 9.85,6.56 12.74,9.22l-4.82 4.09 22.36 0z"/>
  <path id="9" class="fil0" d="M1295.97 51.62l4.89 -4.82 7.93 7.19 -3.26 3.35 -15.52 0 0 12.82 9.79 0 4.65 -4.42 7.77 6.95 -3.43 3.5 -27.93 0 8.82 3.11c-5.33,6.53 -11.45,12.65 -18.37,18.38 7.84,-0.39 14.81,-1.05 20.9,-1.97 -1.35,-2.72 -2.75,-5.25 -4.16,-7.59l5.47 -3.92c6.04,4.74 12.5,11.08 19.35,19.02l-12.9 9.48c-1.63,-4.09 -3.29,-7.9 -4.98,-11.44 -12.24,5.17 -23.06,8.87 -32.42,11.1l-2.52 -9.71 -13.96 10.94c-2.12,-8.93 -5.57,-16.65 -10.29,-23.19l23.1 -30.94 4.83 2.2 -4.25 8.5 16.65 0 0 -12.82 -12.82 0 -1.38 -5.72 14.2 0 0 -16.16 13.88 1.71 0 14.45 5.96 0zm-37.72 20.91l-9.39 18.7c3.31,2.28 6.83,5.26 10.53,8.97l-0.57 -2.29 3.02 0c4.24,-5.82 8.2,-13.05 11.83,-21.72l-14.53 0 -0.89 -3.66zm-11.93 -36.01c6.48,3.69 11.62,7.37 15.44,11.02l-9.71 9.88c-3.6,-6.42 -7.36,-11.62 -11.27,-15.59l5.54 -5.31zm-7.58 16.48c5.38,3.45 9.69,6.93 12.89,10.45l-9.22 9.31c-2.66,-6.25 -5.49,-11.37 -8.49,-15.34l4.82 -4.42z"/>
  <polygon id="10" class="fil0" points="771.64,78.41 688.04,78.41 688.04,70.16 771.64,70.16 "/>
  <path id="11" class="fil3 str0" d="M379.16 64.6l3.91 -3.43c-0.48,-0.32 -0.92,-0.66 -1.31,-0.98 -2.94,-2.56 -6.2,-6.09 -9.79,-10.61 -5.06,5.56 -11.2,10.56 -18.45,15.02l25.64 0zm-2.29 -21.22c4.69,3.53 9,6.42 12.98,8.65 6.04,3.54 12.84,6.45 20.41,8.74l-9.88 12.98c-2.55,-1.36 -5.69,-3.4 -9.39,-6.13l-3.35 3.28 -38.45 0 -0.81 -3.28c-4.14,2.23 -8.52,4.33 -13.16,6.29l-4.32 -5.72c14.91,-8.37 25.78,-19.21 32.58,-32.49l16.08 3.76c-0.86,1.41 -1.77,2.72 -2.69,3.92zm16.57 34.54l4.66 -4.17 7.59 6.86 -3.68 3.59 -30.04 0c-4.52,5.6 -10.06,10.75 -16.65,15.43 13.05,-0.27 23.02,-1.01 29.87,-2.2 -1.46,-2.35 -3.09,-4.63 -4.89,-6.86l6.69 -3.59c4.31,3.14 8.19,6.53 11.68,10.11 2.94,3.05 4.82,5.23 5.64,6.54l-12.16 7.92c-0.77,-2.34 -1.73,-4.62 -2.88,-6.86 -3.8,0.98 -8.56,2.02 -14.28,3.1 -8.71,1.52 -19.42,2.91 -32.17,4.17l-1.79 -12.17 3.35 0c4.78,-5.11 8.32,-10.31 10.6,-15.59l-17.22 0 -1.63 -6.28 57.31 0z"/>
  <path id="12" class="fil3 str0" d="M428.92 35.29l13.14 1.88 0 2.29 42.45 0 5.72 -4.33 10.85 8.41 -3.02 3.51 0 11.11 -14.2 1.78 0 -2.85 -32.58 0 11.11 1.39 0 5.55 7.26 0 0 -6.86 13.15 1.71 0 5.15 2.04 0 4.82 -4.66 8.08 7.19 -3.76 3.43 -11.18 0 0 8.57 5.38 0 4.82 -4.65 8.08 7.18 -3.75 3.43 -5.64 0 8.99 4.82c-3.76,2.23 -7.97,4.25 -12.65,6.04 4.23,2.34 8.79,4.28 13.62,5.79l-9.79 12.34c-12.74,-7.84 -21.47,-17.51 -26.21,-28.99l-6.45 0 0 15.51c4.62,-0.64 8.9,-1.52 12.82,-2.6l2.7 6.45c-9.16,4.08 -18.65,7.28 -28.5,9.63l-2.7 -12c0.77,0 1.48,-0.03 2.13,-0.09l0 -16.9 -4 0c-0.54,5.12 -1.61,9.53 -3.19,13.23 -2.06,5.61 -5.2,10.73 -9.39,15.35l-5.71 -3.91c3.7,-10.13 5.56,-21.3 5.56,-33.49l0 -40.41zm52.08 55.43c0.98,-0.97 1.91,-1.95 2.78,-2.94 1.08,-1.18 1.99,-2.28 2.69,-3.26l-11.43 0c1.63,2.29 3.62,4.36 5.96,6.2zm-31.75 -26.69l0 -6.94 -7.19 0 0 6.94 7.19 0zm20.4 14.53l0 -8.57 -7.26 0 0 8.57 7.26 0zm-20.4 0l0 -8.57 -7.19 0 0 8.57 7.19 0zm-7.19 -27.67l41.8 0 0 -5.4 -41.8 0 0 5.4z"/>
  <path id="13" class="fil3 str0" d="M563.09 64.6l3.91 -3.43c-0.48,-0.32 -0.92,-0.66 -1.3,-0.98 -2.95,-2.56 -6.21,-6.09 -9.8,-10.61 -5.06,5.56 -11.2,10.56 -18.45,15.02l25.64 0zm-2.29 -21.22c4.69,3.53 9,6.42 12.98,8.65 6.04,3.54 12.84,6.45 20.41,8.74l-9.88 12.98c-2.55,-1.36 -5.68,-3.4 -9.39,-6.13l-3.34 3.28 -38.46 0 -0.81 -3.28c-4.14,2.23 -8.52,4.33 -13.15,6.29l-4.32 -5.72c14.91,-8.37 25.77,-19.21 32.57,-32.49l16.08 3.76c-0.86,1.41 -1.77,2.72 -2.69,3.92zm16.57 34.54l4.66 -4.17 7.59 6.86 -3.68 3.59 -30.04 0c-4.51,5.6 -10.06,10.75 -16.65,15.43 13.05,-0.27 23.02,-1.01 29.87,-2.2 -1.46,-2.35 -3.09,-4.63 -4.89,-6.86l6.69 -3.59c4.31,3.14 8.19,6.53 11.68,10.11 2.94,3.05 4.82,5.23 5.64,6.54l-12.16 7.92c-0.77,-2.34 -1.73,-4.62 -2.87,-6.86 -3.81,0.98 -8.57,2.02 -14.29,3.1 -8.71,1.52 -19.42,2.91 -32.17,4.17l-1.78 -12.17 3.34 0c4.78,-5.11 8.32,-10.31 10.6,-15.59l-17.22 0 -1.63 -6.28 57.31 0z"/>
  <path id="14" class="fil3 str0" d="M615.54 61.74l5.88 -5.87 10.77 8.32 -4.08 3.43 0 26.04c2.88,-1.35 5.71,-2.85 8.5,-4.48l3.09 6.28c-5.44,5.71 -12.03,11.27 -19.76,16.67l-6.12 -13.07c0.87,-0.27 1.69,-0.52 2.46,-0.74l0 -23.11 -0.09 0 0 -6.45 -7.1 0 -1.63 -7.02 8.08 0zm54.62 -22.36l12.73 4.4c-3.31,15.47 -8.81,28.91 -16.49,40.34 -0.21,0.38 -0.44,0.68 -0.66,0.89 5.67,6.22 12.44,11.68 20.33,16.41l-6.44 11.77c-8.06,-4.09 -15.38,-10.02 -21.97,-17.81 -5.98,6.76 -12.86,12.61 -20.65,17.55l-5.39 -5.14c7.4,-6.53 13.78,-13.74 19.1,-21.64 -0.43,-0.65 -0.86,-1.29 -1.29,-1.95 -7.36,-11.54 -12.42,-24.8 -15.19,-39.77l6.52 -2.2c4.42,11.97 10.05,22.84 16.9,32.58 5.02,-9.08 9.18,-20.9 12.5,-35.43zm-17.88 -4.25c1.9,1.63 5.98,5.76 12.25,12.41 -3.33,2.18 -6.65,4.43 -9.96,6.77 -2.29,-5.28 -4.96,-10.31 -8.02,-15.1l5.73 -4.08zm-36.09 1.39c6.69,2.66 12.08,5.77 16.17,9.31l-8.42 9.54c-3.8,-4.46 -8.18,-8.48 -13.14,-12.08l5.39 -6.77z"/>
  <polygon id="15" class="fil3 str0" points="855.25,78.41 771.64,78.41 771.64,70.16 855.25,70.16 "/>
  <path id="16" class="fil3 str0" d="M932.27 45.98l4.81 -4.23 8.01 6.85 -3.51 3.6 -43.11 0c-1.31,2.45 -2.56,4.76 -3.76,6.93l0 0.9 28.49 0 6.7 -6.52 11.68 9.05 -4 3.6 0 37.3c0,6.1 -3.05,9.15 -9.15,9.15l-8.17 0c0,-5.33 -3.09,-7.99 -9.31,-7.99l0.34 -5.73c3.71,0.54 7.2,0.82 10.53,0.82 1.26,0 1.88,-0.65 1.88,-1.96l0 -4.49 -28.99 0 0 18.13 -14.12 1.54 0 -33.55c-2.88,3.43 -5.85,6.45 -8.9,9.06l-5.46 -3.1c7.56,-10.72 13.48,-21.77 17.79,-33.14l-14.53 0 -1.55 -6.22 18.2 0c1.25,-3.86 2.28,-7.66 3.1,-11.43l15.43 4.58c-1.09,2.39 -2.12,4.68 -3.09,6.85l30.69 0zm-8.57 41.16l0 -7.27 -28.99 0 0 7.27 28.99 0zm0 -13.47l0 -7.43 -28.99 0 0 7.43 28.99 0z"/>
  <path id="17" class="fil3 str0" d="M986.76 46.4l12.16 1.31 0 3.66 4.99 0 0 -16.98 12.4 1.56 0 15.42 4.25 0 5.56 -5.71 10.77 8.25 -3.68 3.51 0 24.5 -11.51 1.46 0 -4.65 -5.39 0 0 18.78c1.97,-0.17 3.71,-0.42 5.23,-0.74 -0.98,-3.05 -2.01,-5.88 -3.1,-8.49l5.88 -4.24c4.13,5.05 8.49,11.81 13.06,20.24l-11.19 8.17c-0.64,-2.61 -1.32,-5.06 -2.03,-7.35 -2.83,0.81 -6.14,1.69 -9.88,2.61 -7.19,1.57 -16.03,3.05 -26.53,4.42l-2.05 -13.48c6.91,0 12.98,-0.11 18.21,-0.33l0 -19.59 -4.99 0 0 7.99 -12.16 1.48 0 -41.8zm12.16 26.36l4.99 0 0 -15.17 -4.99 0 0 15.17zm17.39 -15.17l0 15.17 5.39 0 0 -15.17 -5.39 0zm-49.55 -22.3c2.61,2.46 4.92,5.12 6.94,8 1.2,-2.51 2.15,-5.03 2.86,-7.59l11.42 2.77c-1.25,5.02 -4.16,10.05 -8.73,15.1 3.16,7.74 4.82,16.61 4.98,26.63 0,12.79 -0.59,20.97 -1.79,24.57 -1.15,5.82 -4.63,8.74 -10.45,8.74l-5.8 0c0,-4.03 -2.31,-6.64 -6.94,-7.84l0.24 -4.5c3.05,0.39 6.05,0.57 8.98,0.57 1.91,0 3.1,-0.97 3.6,-2.92 0.6,-2.9 0.92,-7.39 0.98,-13.48 -3.43,3.6 -7.25,6.51 -11.43,8.74l-4.5 -4.99c5.73,-5.6 10.67,-12.79 14.87,-21.55 -0.28,-2.12 -0.66,-4.13 -1.15,-6.04 -2.39,1.95 -4.98,3.92 -7.76,5.88l-4.57 -4c3.81,-3.44 7.05,-6.99 9.71,-10.7 -1.85,-4.94 -4.23,-9.33 -7.17,-13.14l5.71 -4.25z"/>
  <path id="18" class="fil3 str0" d="M1083.38 39.21l4.98 -4.66 8 7.2 -3.43 3.42 -16.01 0c-2.66,6.26 -5.86,12.06 -9.62,17.39 4.79,-0.43 9.71,-0.94 14.78,-1.54 -1.37,-2.57 -2.76,-4.96 -4.17,-7.19l5.55 -4c4.42,3.8 9.1,8.73 14.04,14.77l0 -23.59 11.43 1.39 0 52.41 -11.43 1.39 0 -29.32 -9.39 6.87c-0.92,-2.07 -1.82,-4.08 -2.69,-6.05 -2.02,0.66 -3.99,1.31 -5.96,1.97l0 9.71 3.02 0 4.83 -4.4 8.08 7.17 -3.77 3.77 -12.16 0 0 8.25c5.5,-0.99 10.13,-1.94 13.88,-2.87l2.69 5.72c-8.11,4.4 -21.71,9.23 -40.82,14.45l-4.08 -12.9c4.2,-0.55 9.14,-1.31 14.86,-2.29l0 -10.36 -11.51 0 -1.55 -6.54 13.06 0 0 -6.12c-3.15,0.76 -6.29,1.47 -9.4,2.12l-4.48 -11.84c1.53,-0.06 3.05,-0.14 4.57,-0.24 2.83,-5.99 4.93,-12.04 6.28,-18.13l-9.88 0 -1.46 -5.96 31.76 0zm30.2 -3.18l12.02 1.55 0 63.76c0,7.57 -3.25,11.36 -9.73,11.36l-5.71 0c0,-5.23 -3.35,-7.99 -10.05,-8.25l0.34 -5.39c4.13,0.16 7.83,0.25 11.1,0.25 1.35,0 2.03,-0.85 2.03,-2.54l0 -60.74z"/>
  <path id="19" class="fil3 str0" d="M1207.75 47.95l4.91 -4.49 7.91 7.19 -3.66 3.66 -42.22 0 0 13.31 22.12 0 6.05 -4.97 12 9.05 -4.17 3.43c0,4.74 -0.18,9.73 -0.57,14.95 -0.54,10.06 -2.38,16.32 -5.55,18.77 -2.82,2.62 -6.77,3.92 -11.84,3.92l-6.28 0c0,-6.2 -3.38,-9.38 -10.12,-9.55l0.66 -5.14c3.52,0.86 8.48,1.31 14.85,1.31 1.36,0 2.23,-0.63 2.6,-1.88 0.72,-0.99 1.29,-4.47 1.72,-10.45 0.44,-3.82 0.65,-8.19 0.65,-13.15l-22.19 0c-0.66,16.06 -10.13,29.06 -28.43,39.02l-4.15 -5.05c12.3,-9.74 18.45,-22.13 18.45,-37.15l0 -16.42 -16.82 0 -1.55 -6.36 34.28 0c-2.12,-3.11 -4.26,-5.77 -6.44,-8l7.51 -5.31c5.6,3.48 9.85,6.56 12.74,9.22l-4.82 4.09 22.36 0z"/>
  <path id="20" class="fil3 str0" d="M1295.97 51.62l4.89 -4.82 7.93 7.19 -3.26 3.35 -15.52 0 0 12.82 9.79 0 4.65 -4.42 7.77 6.95 -3.43 3.5 -27.93 0 8.82 3.11c-5.33,6.53 -11.45,12.65 -18.37,18.38 7.84,-0.39 14.81,-1.05 20.9,-1.97 -1.35,-2.72 -2.75,-5.25 -4.16,-7.59l5.47 -3.92c6.04,4.74 12.5,11.08 19.35,19.02l-12.9 9.48c-1.63,-4.09 -3.29,-7.9 -4.98,-11.44 -12.24,5.17 -23.06,8.87 -32.42,11.1l-2.52 -9.71 -13.96 10.94c-2.12,-8.93 -5.57,-16.65 -10.29,-23.19l23.1 -30.94 4.83 2.2 -4.25 8.5 16.65 0 0 -12.82 -12.82 0 -1.38 -5.72 14.2 0 0 -16.16 13.88 1.71 0 14.45 5.96 0zm-37.72 20.91l-9.39 18.7c3.31,2.28 6.83,5.26 10.53,8.97l-0.57 -2.29 3.02 0c4.24,-5.82 8.2,-13.05 11.83,-21.72l-14.53 0 -0.89 -3.66zm-11.93 -36.01c6.48,3.69 11.62,7.37 15.44,11.02l-9.71 9.88c-3.6,-6.42 -7.36,-11.62 -11.27,-15.59l5.54 -5.31zm-7.58 16.48c5.38,3.45 9.69,6.93 12.89,10.45l-9.22 9.31c-2.66,-6.25 -5.49,-11.37 -8.49,-15.34l4.82 -4.42z"/>
  <polygon id="21" class="fil3 str0" points="771.64,78.41 688.04,78.41 688.04,70.16 771.64,70.16 "/>
 </g>
</svg>
