<?xml version="1.0" encoding="UTF-8"?>
<!DOCTYPE svg PUBLIC "-//W3C//DTD SVG 1.1//EN" "http://www.w3.org/Graphics/SVG/1.1/DTD/svg11.dtd">
<!-- Creator: CorelDRAW 2017 -->
<svg xmlns="http://www.w3.org/2000/svg" xml:space="preserve" width="339px" height="90px" version="1.1" style="shape-rendering:geometricPrecision; text-rendering:geometricPrecision; image-rendering:optimizeQuality; fill-rule:evenodd; clip-rule:evenodd"
viewBox="0 0 27.5 7.25"
 xmlns:xlink="http://www.w3.org/1999/xlink">
 <defs>
  <style type="text/css">
   <![CDATA[
    .fil1 {fill:white}
    .fil0 {fill:white;fill-rule:nonzero}
   ]]>
  </style>
 </defs>
 <g id="图层_x0020_1">
  <metadata id="CorelCorpID_0Corel-Layer"/>
  <g id="_1936292876320">
   <path class="fil0" d="M0.33 0l6.92 0 0 2.18 1.75 1.45 -1.75 1.44 0 2.18 -7.25 0 0 -7.25 0.33 0zm6.27 0.66l-5.94 0 0 5.94 5.94 0 0 -1.83 1.37 -1.14 -1.37 -1.14 0 -1.83z"/>
   <path class="fil0" d="M2.12 3c0.13,-0.19 0.24,-0.4 0.32,-0.64 -0.01,-0.03 -0.03,-0.07 -0.06,-0.12 -0.06,-0.15 -0.1,-0.24 -0.13,-0.28 -0.01,0.03 -0.03,0.07 -0.05,0.13 -0.03,0.07 -0.05,0.13 -0.06,0.16 0.02,0.03 0.05,0.08 0.09,0.14 0.02,0.03 0.03,0.05 0.04,0.07 0.04,0.05 0.05,0.1 0.02,0.14 -0.05,0.08 -0.1,0.15 -0.14,0.21 -0.03,0.02 -0.05,0.03 -0.07,0.03 -0.02,-0.01 -0.04,-0.03 -0.05,-0.07 -0.02,-0.06 -0.04,-0.11 -0.06,-0.17 -0.09,0.15 -0.19,0.28 -0.29,0.37l-0.06 -0.02 0 0.51 -0.33 0 0 -2.27 0.33 0 0 0.07 1.31 0 0.11 -0.13 0.34 0.24 -0.1 0.11 0 1.71c0.04,0.18 -0.09,0.27 -0.39,0.27 -0.01,-0.11 -0.1,-0.18 -0.27,-0.2l-0.01 -0.12c0.03,0 0.08,0.01 0.16,0.01 0.03,0 0.05,0 0.07,0 0.07,0 0.11,-0.04 0.11,-0.13l0 -0.28c-0.01,0 -0.01,0.01 -0.01,0.01 -0.04,0.07 -0.08,0.14 -0.14,0.21 -0.04,0.04 -0.06,0.05 -0.07,0.03 -0.02,0 -0.04,-0.02 -0.06,-0.08 -0.01,-0.02 -0.02,-0.05 -0.04,-0.1 -0.03,-0.07 -0.05,-0.12 -0.06,-0.15 -0.11,0.2 -0.22,0.33 -0.31,0.41l-0.14 -0.07zm-0.37 -1.3c0.02,0.02 0.04,0.05 0.08,0.1 0.05,0.07 0.09,0.13 0.11,0.16 0.03,-0.13 0.06,-0.26 0.08,-0.39l0.32 0.08c-0.01,0.04 -0.02,0.08 -0.04,0.13 -0.01,0.02 -0.01,0.03 -0.01,0.04l0.05 -0.03c0.06,0.07 0.12,0.16 0.2,0.26 0.04,-0.16 0.08,-0.32 0.11,-0.47l0.3 0.09 0 -0.18 -1.33 0 0 0.3 0.13 -0.09zm-0.13 1.07c0.08,-0.12 0.15,-0.28 0.22,-0.48 -0.07,-0.19 -0.14,-0.35 -0.22,-0.49l0 0.97zm1.3 -0.17c0.01,0.02 0.02,0.03 0.03,0.05l0 -0.89c-0.06,0.2 -0.13,0.39 -0.21,0.57l0.18 0.27z"/>
   <path id="1" class="fil0" d="M5.95 2.57c-0.23,-0.09 -0.42,-0.19 -0.55,-0.29 -0.14,0.09 -0.29,0.17 -0.47,0.23l0.24 0 0 0.06 0.41 0 0.07 -0.11 0.34 0.2 -0.09 0.11 0 0.69 -0.33 0 0 -0.13 -0.4 0 0 0.13 -0.33 0 0 -0.92c-0.04,0 -0.08,0.01 -0.11,0.03l-0.1 -0.13c0.21,-0.09 0.4,-0.2 0.57,-0.35 -0.04,-0.04 -0.08,-0.11 -0.14,-0.2 -0.02,-0.01 -0.03,-0.03 -0.03,-0.04 -0.03,0.05 -0.08,0.12 -0.15,0.21 -0.03,0.03 -0.05,0.06 -0.06,0.07l-0.17 -0.08c0.16,-0.27 0.27,-0.58 0.33,-0.94l0.39 0.08c-0.03,0.07 -0.06,0.14 -0.09,0.21l0.31 0 0.1 -0.14 0.32 0.23c0.03,0.02 0.03,0.04 0,0.06l-0.11 0.09c-0.09,0.17 -0.19,0.32 -0.29,0.44 0.16,0.09 0.33,0.14 0.53,0.16 -0.08,0.09 -0.14,0.19 -0.19,0.33zm-2.15 -0.06c0.1,-0.02 0.18,-0.06 0.23,-0.12 0.04,-0.06 0.1,-0.14 0.17,-0.26 0.01,-0.03 0.03,-0.05 0.03,-0.06 -0.12,0.03 -0.24,0.06 -0.36,0.08l-0.08 -0.26c0.09,-0.03 0.15,-0.09 0.18,-0.16 0.09,-0.19 0.16,-0.4 0.22,-0.62l0.35 0.12c-0.03,0.05 -0.04,0.07 -0.03,0.05 -0.15,0.27 -0.26,0.46 -0.34,0.57 0.02,0 0.04,0 0.08,0 0.04,-0.01 0.07,-0.01 0.1,-0.01l0.13 -0.3 0.32 0.15c-0.17,0.28 -0.34,0.54 -0.53,0.79 0.03,0 0.08,-0.01 0.15,-0.02 0.08,-0.01 0.15,-0.02 0.2,-0.02l-0.01 0.21c-0.29,0.04 -0.53,0.09 -0.73,0.15l-0.08 -0.29zm-0.03 0.47c0.24,-0.03 0.56,-0.09 0.95,-0.16l0.02 0.19c-0.26,0.1 -0.55,0.19 -0.88,0.29l-0.09 -0.32zm1.4 -0.18l0 0.32 0.4 0 0 -0.32 -0.4 0zm-0.01 -1.15c0.06,0.1 0.14,0.18 0.22,0.25 0.05,-0.08 0.11,-0.17 0.15,-0.27l-0.36 0c0,0 0,0.01 0,0.01 -0.01,0 -0.01,0.01 -0.01,0.01z"/>
   <path id="2" class="fil0" d="M1.99 4.13l0.5 0 0 -0.34 0.34 0 0 0.34 0.23 0 0.08 -0.13 0.27 0.2 -0.1 0.17 -0.48 0 0 0.34 0.06 0 0.09 -0.14 0.35 0.25 -0.1 0.12c-0.08,0.22 -0.18,0.42 -0.3,0.6 0.14,0.08 0.33,0.16 0.55,0.23 -0.1,0.08 -0.2,0.2 -0.3,0.35 -0.21,-0.1 -0.38,-0.21 -0.51,-0.32 -0.22,0.15 -0.46,0.26 -0.72,0.33l-0.1 -0.15c0.25,-0.1 0.46,-0.23 0.63,-0.38 -0.13,-0.18 -0.22,-0.4 -0.27,-0.65l-0.12 0 -0.04 -0.24 0.44 0 0 -0.34 -0.4 0 0.06 0.05 -0.1 0.15 -0.24 0 0 0.32c0.06,-0.01 0.13,-0.03 0.2,-0.05l0.03 0.17c-0.08,0.04 -0.15,0.07 -0.23,0.11l0 0.69c0.02,0.2 -0.11,0.3 -0.39,0.31 0.01,-0.12 -0.06,-0.17 -0.2,-0.17l-0.02 -0.15c0.19,0.02 0.29,-0.02 0.27,-0.1l0 -0.43c-0.04,0.01 -0.09,0.03 -0.16,0.07 -0.05,0.01 -0.09,0.02 -0.11,0.04l-0.11 -0.33c0.04,-0.01 0.09,-0.02 0.16,-0.03 0.1,-0.02 0.18,-0.04 0.22,-0.05l0 -0.4 -0.29 0 -0.04 -0.24 0.33 0 0 -0.54 0.34 0 0 0.54 0.01 0 0.07 -0.11 0.13 0.1 -0.03 -0.19zm0.46 0.82c0.05,0.14 0.13,0.27 0.23,0.39 0.08,-0.12 0.14,-0.25 0.18,-0.39l-0.41 0z"/>
   <path id="3" class="fil0" d="M3.74 5.76c0.4,-0.34 0.69,-0.71 0.86,-1.09l-0.67 0 -0.06 -0.24 0.87 0 0 -0.64 0.37 0 0 0.64 0.52 0 0.12 -0.15 0.31 0.25 -0.09 0.14 -0.75 0c0.22,0.36 0.52,0.61 0.89,0.77 -0.1,0.11 -0.19,0.25 -0.29,0.41 -0.31,-0.25 -0.55,-0.54 -0.71,-0.86l0 1.12 -0.37 0 0 -0.96c-0.25,0.3 -0.54,0.55 -0.86,0.73l-0.14 -0.12zm1.61 -1.89c0.13,0.08 0.24,0.15 0.32,0.22 0.04,0.03 0.05,0.06 0.01,0.09 -0.04,0.07 -0.09,0.13 -0.17,0.19 -0.04,0.04 -0.07,0.04 -0.08,-0.02 -0.05,-0.12 -0.12,-0.24 -0.22,-0.38l0.14 -0.1z"/>
   <polygon class="fil1" points="7.32,3.63 6.96,3.35 6.6,3.08 6.6,3.63 6.6,4.18 6.96,3.9 "/>
   <path class="fil0" d="M8.65 0l0 1.03 0.15 0 0 -1.03 0.2 0 0 1.05c0,0.06 -0.01,0.1 -0.04,0.13 -0.03,0.03 -0.07,0.04 -0.13,0.04l-0.16 0c-0.04,0 -0.07,-0.01 -0.09,-0.03 -0.02,-0.02 -0.03,-0.05 -0.03,-0.08 0,0.03 -0.01,0.06 -0.03,0.08 -0.02,0.02 -0.05,0.03 -0.08,0.03l-0.17 0c-0.05,0 -0.09,-0.01 -0.12,-0.04 -0.03,-0.03 -0.04,-0.07 -0.04,-0.12l0 -1.06 0.2 0 0 1.03 0.14 0 0 -1.03 0.2 0z"/>
   <polygon id="1" class="fil0" points="9.6,1.22 9.12,1.22 9.12,0 9.6,0 9.6,0.2 9.32,0.2 9.32,0.51 9.6,0.37 9.6,0.59 9.32,0.73 9.32,1.03 9.6,1.03 "/>
   <path id="2" class="fil0" d="M10.05 1.03l0 -0.39 -0.16 0.08 0 0.31 0.16 0zm0.2 -0.46l0 0.48c0,0.06 -0.02,0.1 -0.05,0.13 -0.03,0.03 -0.07,0.04 -0.13,0.04l-0.37 0 0 -1.22 0.38 0c0.05,0 0.09,0.02 0.12,0.04 0.03,0.03 0.05,0.07 0.05,0.13l0 0.26c0,0.04 -0.01,0.07 -0.02,0.09 -0.02,0.03 -0.04,0.04 -0.07,0.05l0.09 0zm-0.2 -0.13l0 -0.25 -0.16 0 0 0.33 0.16 -0.08z"/>
   <path id="3" class="fil0" d="M10.71 0.17c0,-0.06 0.02,-0.1 0.05,-0.13 0.03,-0.02 0.06,-0.04 0.12,-0.04l0.22 0c0.05,0 0.09,0.02 0.12,0.04 0.03,0.03 0.04,0.07 0.04,0.13l0 0.03 -0.2 0.1 0 -0.11 -0.14 0 0 0.31 0.34 -0.18 0 0.74c0,0.05 -0.01,0.09 -0.04,0.12 -0.03,0.03 -0.07,0.04 -0.12,0.04l-0.22 0c-0.06,0 -0.09,-0.01 -0.12,-0.04 -0.03,-0.03 -0.05,-0.07 -0.05,-0.12l0 -0.12 0.21 -0.1 0 0.19 0.14 0 0 -0.38 -0.35 0.18 0 -0.66z"/>
   <polygon id="4" class="fil0" points="11.87,1.22 11.38,1.22 11.38,0 11.87,0 11.87,0.2 11.58,0.2 11.58,0.51 11.87,0.37 11.87,0.59 11.58,0.73 11.58,1.03 11.87,1.03 "/>
   <path id="5" class="fil0" d="M12.51 0.61l-0.15 0.07 0.23 0.54 -0.21 0 -0.19 -0.45 -0.03 0.02 0 0.43 -0.2 0 0 -1.22 0.39 0c0.05,0 0.09,0.02 0.12,0.04 0.03,0.03 0.04,0.07 0.04,0.13l0 0.44zm-0.2 -0.12l0 -0.3 -0.15 0 0 0.38 0.15 -0.08z"/>
   <polygon id="6" class="fil0" points="12.75,1.22 12.54,0 12.74,0 12.87,0.78 13,0 13.2,0 12.99,1.22 "/>
   <polygon id="7" class="fil0" points="13.44,1.22 13.23,1.22 13.23,0 13.44,0 "/>
   <path id="8" class="fil0" d="M13.55 0.17c0,-0.06 0.02,-0.1 0.04,-0.13 0.03,-0.02 0.07,-0.04 0.12,-0.04l0.23 0c0.05,0 0.09,0.02 0.12,0.04 0.03,0.03 0.04,0.07 0.04,0.13l0 0.16 -0.2 0.1 0 -0.24 -0.15 0 0 0.84 0.15 0 0 -0.17 0.2 -0.11 0 0.31c0,0.05 -0.01,0.09 -0.04,0.12 -0.03,0.03 -0.07,0.04 -0.12,0.04l-0.23 0c-0.05,0 -0.09,-0.01 -0.12,-0.04 -0.02,-0.03 -0.04,-0.07 -0.04,-0.12l0 -0.89z"/>
   <polygon id="9" class="fil0" points="14.7,1.22 14.22,1.22 14.22,0 14.7,0 14.7,0.2 14.42,0.2 14.42,0.51 14.7,0.37 14.7,0.59 14.42,0.73 14.42,1.03 14.7,1.03 "/>
   <rect class="fil1" x="15.43" width="12.08" height="0.66"/>
   <rect class="fil1" x="24.04" y="6.6" width="3.46" height="0.66"/>
   <rect class="fil1" transform="matrix(1.10478E-14 0.757735 -0.342784 1.6491E-14 27.504 -4.43106E-06)" width="9.57" height="1.91"/>
   <path class="fil0" d="M10.51 4.22c0.03,0.01 0.07,0.01 0.12,0.02 0.19,0.03 0.33,0.06 0.42,0.08 0.07,-0.13 0.13,-0.24 0.17,-0.34l-0.53 0 -0.12 0.17 -0.39 -0.21c0.07,-0.09 0.12,-0.17 0.14,-0.24l0.05 -0.2 -0.52 0 -0.07 -0.23 0.66 0 0.07 -0.26 -0.43 0 -0.06 -0.23 0.55 0 0.1 -0.33 0.39 0 -0.1 0.33 0.5 0 0.14 -0.15 0.3 0.27 -0.07 0.11 -0.93 0 -0.07 0.26 0.87 0 0.13 -0.17 0.33 0.26 -0.07 0.14 -1.33 0 -0.07 0.26 0.57 0 0.15 -0.16 0.38 0.25c-0.1,0.06 -0.17,0.13 -0.23,0.21 -0.01,0.01 -0.02,0.02 -0.03,0.04 -0.1,0.12 -0.17,0.21 -0.23,0.28 0.08,0.02 0.15,0.04 0.2,0.06 0.06,0.01 0.08,0.04 0.08,0.09 0,0.04 -0.01,0.11 -0.01,0.21 -0.01,0.04 -0.01,0.07 -0.01,0.09 -0.02,0.04 -0.05,0.06 -0.1,0.04 -0.34,-0.18 -0.67,-0.36 -0.98,-0.54l0.03 -0.11z"/>
   <path id="1" class="fil0" d="M12.97 3.96l0.32 0 0 0.05 0.35 0 0 -0.12 -0.21 0 0 0.03 -0.32 0 0 -0.55 0.32 0 0 0.05 0.21 0 0 -0.09c-0.18,0 -0.37,0 -0.58,0l-0.04 -0.14c0.45,-0.01 0.87,-0.04 1.26,-0.09l0 -0.04 -1.3 0 0 0.33c0,0.58 -0.14,1.03 -0.42,1.37l-0.13 -0.1c0.15,-0.3 0.22,-0.72 0.22,-1.27l0 -0.88 0.33 0 0 0.05 1.29 0 0.09 -0.11 0.33 0.2 -0.08 0.08 0 0.39 -0.12 0 0.13 0.17c-0.1,0.02 -0.21,0.02 -0.33,0.02l0.29 0.18 -0.07 0.07 0 0.36 -0.02 0 0.26 0.16 -0.07 0.1 0 0.35c0.03,0.18 -0.09,0.28 -0.36,0.3 0,-0.08 -0.06,-0.13 -0.18,-0.14l-0.02 -0.12c0.16,0.01 0.24,-0.02 0.23,-0.08l0 -0.31 -0.39 0 0 0.13c0.03,0 0.06,0 0.09,-0.01 -0.02,-0.01 -0.02,-0.03 -0.02,-0.05l0.09 -0.04c0,0.01 0.02,0.02 0.04,0.03 0.07,0.06 0.12,0.11 0.15,0.14 0.02,0.02 0.02,0.04 0,0.06 -0.06,0.05 -0.09,0.08 -0.11,0.1 -0.04,0 -0.06,-0.01 -0.07,-0.03 0,-0.02 -0.01,-0.03 -0.02,-0.05 -0.23,0.06 -0.46,0.1 -0.71,0.13l-0.07 -0.26c0.11,0 0.21,0 0.31,0l0 -0.15 -0.35 0 0 0.62 -0.32 0 0 -0.84zm0.01 -1.21l0 0.13 1.3 0 0 -0.13 -1.3 0zm0.98 1.26l0.38 0 0.06 -0.09 -0.21 0 0 -0.03 -0.23 0 0 0.12zm0 -0.43l0 0.15 0.23 0 0 -0.15 -0.23 0zm-0.53 0l0 0.15 0.21 0 0 -0.15 -0.21 0zm0.53 -0.16l0.23 0 0.09 -0.11c-0.1,0.01 -0.21,0.01 -0.32,0.01l0 0.1z"/>
   <path id="2" class="fil0" d="M15.89 4c0.13,-0.09 0.25,-0.18 0.37,-0.29l0 -1.21 0.35 0 0 0.86c0.15,-0.18 0.29,-0.37 0.41,-0.57l0.36 0.23c-0.22,0.27 -0.48,0.53 -0.77,0.75l0 0.56c-0.01,0.08 0.02,0.11 0.08,0.11l0.28 0c0.08,0 0.13,-0.04 0.15,-0.12 0.01,-0.03 0.02,-0.08 0.03,-0.13 0.01,-0.05 0.02,-0.1 0.02,-0.13l0.12 0.03c-0.03,0.19 0.02,0.3 0.14,0.32 -0.04,0.25 -0.14,0.36 -0.29,0.33l-0.6 0c-0.2,0 -0.29,-0.09 -0.28,-0.29l0 -0.45c-0.08,0.06 -0.17,0.11 -0.26,0.15l-0.11 -0.15zm-0.41 0.77l0 -1.2c-0.08,0.1 -0.16,0.2 -0.26,0.3l-0.14 -0.12c0.28,-0.39 0.49,-0.82 0.62,-1.29l0.38 0.14c-0.08,0.16 -0.16,0.31 -0.25,0.47l0 1.7 -0.35 0z"/>
   <path id="3" class="fil0" d="M17.97 2.84l0.26 0c0.01,-0.11 0.02,-0.23 0.03,-0.37l0.37 0.06c-0.01,0.02 -0.02,0.04 -0.04,0.08 -0.03,0.08 -0.07,0.18 -0.13,0.29l0.13 0 0.08 -0.13 0.34 0.19 -0.08 0.13 0 0.32c0.12,-0.3 0.21,-0.62 0.27,-0.95l0.38 0.1c-0.04,0.12 -0.08,0.24 -0.14,0.36l0.17 0 0.08 -0.15 0.37 0.22 -0.09 0.13 0 1.39c0.02,0.19 -0.14,0.29 -0.48,0.31 0.01,-0.12 -0.07,-0.18 -0.24,-0.18l-0.02 -0.17c0.29,0.03 0.42,-0.01 0.39,-0.11l0 -1.21 -0.31 0c-0.08,0.14 -0.16,0.26 -0.24,0.36l-0.14 -0.06 0 1.28 -0.33 0 0 -0.19 -0.3 0 0 0.26 -0.33 0 0 -1.96zm1.27 0.59c0.12,0.13 0.22,0.26 0.29,0.4 0.04,0.05 0.03,0.08 -0.01,0.11 -0.04,0.04 -0.11,0.08 -0.19,0.12 -0.04,0.02 -0.07,0.03 -0.08,0.02 -0.01,0 -0.02,-0.02 -0.03,-0.06 -0.03,-0.2 -0.07,-0.38 -0.11,-0.54l0.13 -0.05zm-0.94 0.4l0 0.49 0.3 0 0 -0.49 -0.3 0zm0 -0.7l0 0.48 0.3 0 0 -0.48 -0.3 0z"/>
   <path id="4" class="fil0" d="M20.44 4.69c0.25,-0.28 0.41,-0.63 0.48,-1.06l0.4 0.07c-0.04,0.13 -0.08,0.25 -0.12,0.36 0.06,0.11 0.16,0.2 0.29,0.28l0 -0.86 -0.61 0 -0.04 -0.23 1.28 0 0.08 -0.13 0.31 0.19 -0.1 0.17 -0.57 0 0 0.32 0.34 0 0.08 -0.12 0.27 0.19 -0.09 0.16 -0.6 0 0 0.38c0.3,0 0.62,0 0.95,-0.02 -0.06,0.12 -0.1,0.24 -0.11,0.35 -0.41,0 -0.73,-0.01 -0.96,-0.03 -0.28,-0.02 -0.5,-0.16 -0.64,-0.42 -0.12,0.19 -0.28,0.35 -0.46,0.49l-0.18 -0.09zm0.39 -2.02c0,0 0,0.01 0,0.03 0,0.02 0.01,0.04 0.01,0.06l0.7 0c-0.01,-0.03 -0.04,-0.07 -0.08,-0.13 -0.03,-0.06 -0.06,-0.1 -0.08,-0.12l0.12 -0.11c0.13,0.05 0.24,0.1 0.34,0.17 0.05,0.02 0.06,0.05 0.03,0.11 0,0.01 -0.01,0.03 -0.03,0.06 0,0 -0.01,0.01 -0.02,0.02l0.58 0 0.1 -0.13 0.32 0.25 -0.12 0.11c-0.06,0.09 -0.13,0.17 -0.19,0.24l-0.14 -0.03c0.02,-0.07 0.03,-0.14 0.04,-0.2l-1.54 0c0,0.02 0.01,0.06 0.01,0.12 0,0.05 -0.02,0.08 -0.06,0.08 -0.07,0.02 -0.14,0.02 -0.22,0.02 -0.07,0 -0.08,-0.03 -0.05,-0.1 0.04,-0.12 0.08,-0.27 0.12,-0.46l0.16 0.01z"/>
   <path id="5" class="fil0" d="M24.61 4.23l0 -0.82 -0.06 0.11 -0.48 0 0 0.18 0.14 0 0.09 -0.12 0.31 0.24 -0.09 0.11 0 0.48c0.02,0.16 -0.08,0.24 -0.31,0.26 0,-0.1 -0.04,-0.15 -0.14,-0.14l0 0.24 -0.31 0 0 -0.85 -0.16 0 0 0.7 -0.3 0 0 -0.96 0.3 0 0 0.04 0.16 0 0 -0.18 -0.5 0 -0.06 -0.22 0.56 0 0 -0.25 -0.25 0c-0.05,0.08 -0.11,0.16 -0.18,0.22l-0.13 -0.08c0.09,-0.19 0.16,-0.41 0.21,-0.63l0.29 0.1c0,0.02 -0.02,0.06 -0.05,0.11 0,0.02 -0.01,0.04 -0.01,0.06l0.12 0 0 -0.33 0.31 0 0 0.33 0.1 0 0.1 -0.13 0.27 0.22 -0.07 0.13 -0.4 0 0 0.25 0.18 0 0.1 -0.13 0.26 0.21 0 -0.61 0.29 0 0 1.46 -0.29 0zm0.42 -1.72l0.32 0 0 1.99c0.01,0.18 -0.11,0.27 -0.36,0.28 0,-0.12 -0.08,-0.17 -0.24,-0.17l-0.02 -0.15c0.22,0.02 0.32,-0.01 0.3,-0.1l0 -1.85zm-0.96 1.89c0.12,0 0.17,-0.04 0.15,-0.12l0 -0.36 -0.15 0 0 0.48z"/>
   <path class="fil0" d="M8.1 6.69c0,-0.03 0.01,-0.05 0.03,-0.06 0.01,-0.02 0.03,-0.03 0.06,-0.03l0.12 0c0.02,0 0.04,0.01 0.06,0.03 0.01,0.01 0.02,0.03 0.02,0.06l0 0.02 -0.1 0.05 0 -0.05 -0.08 0 0 0.16 0.18 -0.1 0 0.39c0,0.03 -0.01,0.05 -0.02,0.06 -0.02,0.02 -0.04,0.03 -0.06,0.03l-0.12 0c-0.03,0 -0.05,-0.01 -0.06,-0.03 -0.02,-0.01 -0.03,-0.03 -0.03,-0.06l0 -0.06 0.11 -0.06 0 0.11 0.08 0 0 -0.21 -0.19 0.1 0 -0.35z"/>
   <polygon id="1" class="fil0" points="23.07,7.14 23.17,7.14 23.17,7.25 23.07,7.25 "/>
   <path id="2" class="fil0" d="M9.08 6.87l0 -0.16 -0.08 0 0 0.2 0.08 -0.04zm0.1 0.06l-0.18 0.1 0 0.22 -0.11 0 0 -0.65 0.2 0c0.03,0 0.05,0.01 0.07,0.03 0.01,0.01 0.02,0.03 0.02,0.06l0 0.24z"/>
   <polygon id="3" class="fil0" points="9.93,7.25 9.67,7.25 9.67,6.6 9.93,6.6 9.93,6.71 9.78,6.71 9.78,6.87 9.93,6.8 9.93,6.91 9.78,6.99 9.78,7.14 9.93,7.14 "/>
   <path id="4" class="fil0" d="M10.41 6.69c0,-0.03 0.01,-0.05 0.03,-0.06 0.01,-0.02 0.03,-0.03 0.06,-0.03l0.12 0c0.02,0 0.04,0.01 0.06,0.03 0.01,0.01 0.02,0.03 0.02,0.06l0 0.09 -0.1 0.05 0 -0.12 -0.08 0 0 0.44 0.08 0 0 -0.1 0.1 -0.05 0 0.16c0,0.03 -0.01,0.05 -0.02,0.06 -0.02,0.02 -0.04,0.03 -0.06,0.03l-0.12 0c-0.03,0 -0.05,-0.01 -0.06,-0.03 -0.02,-0.01 -0.03,-0.03 -0.03,-0.06l0 -0.47z"/>
   <polygon id="5" class="fil0" points="11.31,7.25 11.2,7.25 11.2,6.6 11.31,6.6 "/>
   <path id="6" class="fil0" d="M11.99 6.86l0 -0.15 -0.08 0 0 0.19 0.08 -0.04zm0.11 0.39l-0.11 0 0 -0.27 -0.08 0.03 0 0.24 -0.1 0 0 -0.56c0,-0.03 0.01,-0.05 0.02,-0.06 0.02,-0.02 0.04,-0.03 0.06,-0.03l0.12 0c0.03,0 0.05,0.01 0.06,0.03 0.02,0.01 0.03,0.03 0.03,0.06l0 0.56z"/>
   <polygon id="7" class="fil0" points="12.85,7.14 12.85,7.25 12.6,7.25 12.6,6.6 12.7,6.6 12.7,7.14 "/>
   <path id="8" class="fil0" d="M13.5 6.69c0,-0.03 0.01,-0.05 0.02,-0.06 0.02,-0.02 0.04,-0.03 0.07,-0.03l0.11 0c0.03,0 0.05,0.01 0.07,0.03 0.01,0.01 0.02,0.03 0.02,0.06l0 0.09 -0.11 0.05 0 -0.12 -0.07 0 0 0.44 0.07 0 0 -0.1 0.11 -0.05 0 0.16c0,0.03 -0.01,0.05 -0.02,0.06 -0.02,0.02 -0.04,0.03 -0.07,0.03l-0.11 0c-0.03,0 -0.05,-0.01 -0.07,-0.03 -0.01,-0.01 -0.02,-0.03 -0.02,-0.06l0 -0.47z"/>
   <path id="9" class="fil0" d="M14.29 6.6l0.11 0 0 0.54 0.07 0 0 -0.54 0.11 0 0 0.56c0,0.03 -0.01,0.05 -0.02,0.06 -0.02,0.02 -0.04,0.03 -0.07,0.03l-0.11 0c-0.03,0 -0.05,-0.01 -0.07,-0.03 -0.01,-0.01 -0.02,-0.03 -0.02,-0.06l0 -0.56z"/>
   <path id="10" class="fil0" d="M15.08 6.69c0,-0.03 0.01,-0.05 0.02,-0.06 0.02,-0.02 0.04,-0.03 0.06,-0.03l0.12 0c0.03,0 0.05,0.01 0.07,0.03 0.01,0.01 0.02,0.03 0.02,0.06l0 0.02 -0.11 0.05 0 -0.05 -0.08 0 0 0.16 0.19 -0.1 0 0.39c0,0.03 -0.01,0.05 -0.02,0.06 -0.02,0.02 -0.04,0.03 -0.07,0.03l-0.12 0c-0.02,0 -0.04,-0.01 -0.06,-0.03 -0.01,-0.01 -0.02,-0.03 -0.02,-0.06l0 -0.06 0.1 -0.06 0 0.11 0.08 0 0 -0.21 -0.18 0.1 0 -0.35z"/>
   <polygon id="11" class="fil0" points="15.94,7.25 15.94,6.71 15.84,6.71 15.84,6.6 16.15,6.6 16.15,6.71 16.05,6.71 16.05,7.25 "/>
   <path id="12" class="fil0" d="M16.62 6.69c0,-0.03 0,-0.05 0.02,-0.06 0.01,-0.02 0.03,-0.03 0.06,-0.03l0.12 0c0.03,0 0.05,0.01 0.06,0.03 0.02,0.01 0.03,0.03 0.03,0.06l0 0.47c0,0.03 -0.01,0.05 -0.03,0.06 -0.01,0.02 -0.03,0.03 -0.06,0.03l-0.12 0c-0.03,0 -0.05,-0.01 -0.06,-0.03 -0.02,-0.01 -0.02,-0.03 -0.02,-0.06l0 -0.47zm0.18 0.02l-0.08 0 0 0.44 0.08 0 0 -0.44z"/>
   <path id="13" class="fil0" d="M17.69 7.25l-0.1 0 0 -0.54 -0.08 0 0 0.54 -0.1 0 0 -0.56c0,-0.03 0,-0.05 0.02,-0.06 0.01,-0.02 0.03,-0.03 0.06,-0.03l0.09 0c0.02,0 0.03,0.01 0.04,0.02 0.02,0.01 0.02,0.03 0.02,0.05 0,-0.02 0.01,-0.04 0.02,-0.05 0.01,-0.01 0.02,-0.02 0.04,-0.02l0.09 0c0.03,0 0.05,0.01 0.06,0.03 0.02,0.01 0.03,0.03 0.03,0.06l0 0.56 -0.11 0 0 -0.54 -0.08 0 0 0.54z"/>
   <path id="14" class="fil0" d="M18.76 6.6c0.03,0 0.05,0.01 0.07,0.03 0.01,0.01 0.02,0.03 0.02,0.06l0 0.47c0,0.03 -0.01,0.05 -0.02,0.06 -0.02,0.02 -0.04,0.03 -0.07,0.03l-0.2 0 0 -0.65 0.2 0zm-0.02 0.11l-0.07 0 0 0.44 0.07 0 0 -0.44z"/>
   <polygon id="15" class="fil0" points="19.6,7.25 19.35,7.25 19.35,6.6 19.6,6.6 19.6,6.71 19.46,6.71 19.46,6.87 19.6,6.8 19.6,6.91 19.46,6.99 19.46,7.14 19.6,7.14 "/>
   <path id="16" class="fil0" d="M20.09 6.69c0,-0.03 0.01,-0.05 0.02,-0.06 0.02,-0.02 0.04,-0.03 0.07,-0.03l0.11 0c0.03,0 0.05,0.01 0.07,0.03 0.01,0.01 0.02,0.03 0.02,0.06l0 0.02 -0.11 0.05 0 -0.05 -0.07 0 0 0.16 0.18 -0.1 0 0.39c0,0.03 -0.01,0.05 -0.02,0.06 -0.02,0.02 -0.04,0.03 -0.07,0.03l-0.11 0c-0.03,0 -0.05,-0.01 -0.07,-0.03 -0.01,-0.01 -0.02,-0.03 -0.02,-0.06l0 -0.06 0.11 -0.06 0 0.11 0.07 0 0 -0.21 -0.18 0.1 0 -0.35z"/>
   <polygon id="17" class="fil0" points="20.99,7.25 20.88,7.25 20.88,6.6 20.99,6.6 "/>
   <path id="18" class="fil0" d="M21.49 6.69c0,-0.03 0,-0.05 0.02,-0.06 0.01,-0.02 0.03,-0.03 0.06,-0.03l0.12 0c0.03,0 0.05,0.01 0.06,0.03 0.02,0.01 0.03,0.03 0.03,0.06l0 0.09 -0.11 0.06 0 -0.13 -0.08 0 0 0.44 0.08 0 0 -0.15 -0.04 0.02 0 -0.11 0.15 -0.08 0 0.42 -0.21 0c-0.03,0 -0.05,-0.01 -0.06,-0.03 -0.02,-0.01 -0.02,-0.03 -0.02,-0.06l0 -0.47z"/>
   <path id="19" class="fil0" d="M22.38 7.25l-0.1 0 0 -0.65 0.1 0 0 0.06c0,-0.02 0.01,-0.03 0.02,-0.04 0.01,-0.01 0.03,-0.02 0.04,-0.02l0.04 0c0.03,0 0.05,0.01 0.06,0.03 0.02,0.01 0.03,0.03 0.03,0.06l0 0.56 -0.11 0 0 -0.54 -0.08 0 0 0.54z"/>
  </g>
 </g>
</svg>
