<?xml version="1.0" encoding="UTF-8"?>
<!DOCTYPE svg PUBLIC "-//W3C//DTD SVG 1.1//EN" "http://www.w3.org/Graphics/SVG/1.1/DTD/svg11.dtd">
<!-- Creator: CorelDRAW 2017 -->
<svg xmlns="http://www.w3.org/2000/svg" xml:space="preserve" width="733px" height="673px" version="1.1" style="shape-rendering:geometricPrecision; text-rendering:geometricPrecision; image-rendering:optimizeQuality; fill-rule:evenodd; clip-rule:evenodd"
viewBox="0 0 239.34 219.81"
 xmlns:xlink="http://www.w3.org/1999/xlink">
 <defs>
  <style type="text/css">
   <![CDATA[
    .fil11 {fill:#FEFEFE;fill-rule:nonzero}
    .fil9 {fill:#E8422F;fill-rule:nonzero}
    .fil0 {fill:#EEF5E1;fill-rule:nonzero}
    .fil2 {fill:#DBEBC7;fill-rule:nonzero}
    .fil5 {fill:#4D72AB;fill-rule:nonzero}
    .fil10 {fill:#2A3047;fill-rule:nonzero}
    .fil1 {fill:#272A3D;fill-rule:nonzero}
    .fil3 {fill:#002594;fill-rule:nonzero}
    .fil6 {fill:#0036E8;fill-rule:nonzero}
    .fil4 {fill:#00C8FF;fill-rule:nonzero}
    .fil7 {fill:#5CFFFF;fill-rule:nonzero}
    .fil8 {fill:#96C8FF;fill-rule:nonzero}
   ]]>
  </style>
 </defs>
 <g id="图层_x0020_1">
  <metadata id="CorelCorpID_0Corel-Layer"/>
  <g id="_2625484571920">
   <g>
    <path class="fil0" d="M51.01 177.43c0,0 1.31,-0.19 1.61,0.85 0.31,1.05 -1.52,1 -1.52,1l-0.09 -1.85z"/>
    <polygon class="fil1" points="31.26,168.93 40.42,175.05 51.35,177.13 51.49,179.84 40.37,179.38 29.56,175.12 "/>
   </g>
   <g>
    <g>
     <path class="fil2" d="M107.65 15.68l0 -3.14 -1.25 0c-0.21,-1.12 -0.65,-2.16 -1.27,-3.07l0.88 -0.88 -2.22 -2.22 -0.88 0.88c-0.91,-0.62 -1.95,-1.06 -3.07,-1.27l0 -1.25 -3.14 0 0 1.25c-1.12,0.21 -2.16,0.65 -3.07,1.27l-0.88 -0.88 -2.23 2.22 0.88 0.88c-0.61,0.91 -1.05,1.95 -1.26,3.07l-1.25 0 0 3.14 1.25 0c0.21,1.12 0.65,2.16 1.26,3.07l-0.88 0.88 2.23 2.23 0.88 -0.88c0.91,0.61 1.95,1.05 3.07,1.26l0 1.25 3.14 0 0 -1.25c1.12,-0.21 2.16,-0.65 3.07,-1.26l0.88 0.88 2.22 -2.23 -0.88 -0.88c0.62,-0.91 1.06,-1.95 1.27,-3.07l1.25 0zm-9.38 3.76l0 0c-2.94,0 -5.33,-2.39 -5.33,-5.33 0,-2.94 2.39,-5.32 5.33,-5.32 2.94,0 5.32,2.38 5.32,5.32 0,2.94 -2.38,5.33 -5.32,5.33z"/>
     <path class="fil2" d="M98.27 12.87c-0.69,0 -1.25,0.55 -1.25,1.24 0,0.69 0.56,1.25 1.25,1.25 0.69,0 1.25,-0.56 1.25,-1.25 0,-0.69 -0.56,-1.24 -1.25,-1.24z"/>
    </g>
    <g>
     <path class="fil2" d="M88.25 6.48l0 -1.86 -0.74 0c-0.13,-0.66 -0.38,-1.28 -0.75,-1.82l0.52 -0.52 -1.32 -1.31 -0.52 0.52c-0.53,-0.37 -1.15,-0.62 -1.81,-0.75l0 -0.74 -1.86 0 0 0.74c-0.66,0.13 -1.28,0.38 -1.82,0.75l-0.52 -0.52 -1.31 1.31 0.52 0.52c-0.37,0.54 -0.63,1.16 -0.75,1.82l-0.74 0 0 1.86 0.74 0c0.12,0.66 0.38,1.28 0.75,1.82l-0.52 0.52 1.31 1.31 0.52 -0.52c0.54,0.37 1.16,0.62 1.82,0.75l0 0.74 1.86 0 0 -0.74c0.66,-0.13 1.28,-0.38 1.81,-0.75l0.52 0.52 1.32 -1.31 -0.52 -0.52c0.37,-0.54 0.62,-1.16 0.75,-1.82l0.74 0zm-5.55 2.22l0 0c-1.74,0 -3.15,-1.41 -3.15,-3.15 0,-1.74 1.41,-3.15 3.15,-3.15 1.74,0 3.15,1.41 3.15,3.15 0,1.74 -1.41,3.15 -3.15,3.15z"/>
     <path class="fil2" d="M82.7 4.81c-0.41,0 -0.74,0.33 -0.74,0.74 0,0.41 0.33,0.74 0.74,0.74 0.41,0 0.74,-0.33 0.74,-0.74 0,-0.41 -0.33,-0.74 -0.74,-0.74z"/>
    </g>
    <g>
     <path class="fil2" d="M90.63 27.34l0 -3.06 -1.21 0c-0.21,-1.1 -0.64,-2.11 -1.24,-3l0.86 -0.85 -2.17 -2.17 -0.85 0.86c-0.89,-0.6 -1.9,-1.03 -2.99,-1.24l0 -1.21 -3.07 0 0 1.21c-1.09,0.21 -2.1,0.64 -2.99,1.24l-0.86 -0.86 -2.16 2.17 0.85 0.85c-0.6,0.89 -1.02,1.9 -1.23,3l-1.22 0 0 3.06 1.22 0c0.21,1.09 0.63,2.1 1.23,2.99l-0.85 0.86 2.16 2.16 0.86 -0.85c0.89,0.6 1.9,1.02 2.99,1.23l0 1.22 3.07 0 0 -1.22c1.09,-0.21 2.1,-0.63 2.99,-1.23l0.85 0.85 2.17 -2.16 -0.86 -0.86c0.6,-0.89 1.03,-1.9 1.24,-2.99l1.21 0zm-9.14 3.66l0 0c-2.86,0 -5.19,-2.33 -5.19,-5.19 0,-2.87 2.33,-5.19 5.19,-5.19 2.87,0 5.19,2.32 5.19,5.19 0,2.86 -2.32,5.19 -5.19,5.19z"/>
     <path class="fil2" d="M81.49 24.59c-0.67,0 -1.21,0.55 -1.21,1.22 0,0.67 0.54,1.21 1.21,1.21 0.67,0 1.22,-0.54 1.22,-1.21 0,-0.67 -0.55,-1.22 -1.22,-1.22z"/>
    </g>
    <g>
     <path class="fil2" d="M166.76 109.48l1.32 2.86 1.13 -0.53c0.67,0.92 1.51,1.68 2.45,2.25l-0.43 1.16 2.96 1.08 0.42 -1.17c1.09,0.18 2.21,0.14 3.32,-0.14l0.53 1.13 2.85 -1.33 -0.53 -1.13c0.93,-0.67 1.68,-1.5 2.25,-2.44l1.17 0.42 1.08 -2.95 -1.17 -0.43c0.17,-1.08 0.13,-2.21 -0.15,-3.31l1.13 -0.53 -1.33 -2.85 -1.13 0.52c-0.66,-0.92 -1.5,-1.68 -2.44,-2.24l0.43 -1.17 -2.96 -1.08 -0.43 1.17c-1.08,-0.18 -2.21,-0.13 -3.31,0.14l-0.53 -1.13 -2.85 1.33 0.53 1.13c-0.93,0.67 -1.69,1.5 -2.25,2.45l-1.17 -0.43 -1.08 2.95 1.17 0.43c-0.17,1.09 -0.13,2.21 0.15,3.32l-1.13 0.52zm6.92 -7.36l0 0c2.66,-1.24 5.83,-0.08 7.07,2.58 1.24,2.67 0.09,5.84 -2.58,7.08 -2.67,1.24 -5.83,0.08 -7.07,-2.58 -1.25,-2.67 -0.09,-5.84 2.58,-7.08z"/>
     <path class="fil2" d="M176.45 108.08c0.62,-0.29 0.89,-1.03 0.6,-1.65 -0.29,-0.63 -1.03,-0.9 -1.65,-0.61 -0.63,0.29 -0.9,1.03 -0.61,1.66 0.29,0.62 1.04,0.89 1.66,0.6z"/>
    </g>
    <g>
     <path class="fil2" d="M188.23 109.64l0.78 1.69 0.67 -0.31c0.4,0.54 0.89,0.99 1.45,1.33l-0.25 0.69 1.74 0.64 0.26 -0.7c0.64,0.11 1.31,0.08 1.96,-0.08l0.31 0.67 1.69 -0.79 -0.31 -0.67c0.54,-0.39 0.99,-0.88 1.33,-1.44l0.69 0.25 0.63 -1.75 -0.69 -0.25c0.11,-0.64 0.08,-1.31 -0.08,-1.96l0.67 -0.31 -0.79 -1.69 -0.67 0.31c-0.39,-0.55 -0.89,-1 -1.44,-1.33l0.25 -0.69 -1.75 -0.64 -0.25 0.69c-0.64,-0.1 -1.31,-0.08 -1.96,0.09l-0.32 -0.67 -1.68 0.78 0.31 0.67c-0.55,0.4 -1,0.89 -1.33,1.45l-0.69 -0.25 -0.64 1.75 0.69 0.25c-0.1,0.64 -0.08,1.31 0.09,1.96l-0.67 0.31zm4.09 -4.35l0 0c1.58,-0.74 3.45,-0.05 4.19,1.52 0.73,1.58 0.05,3.46 -1.53,4.19 -1.58,0.73 -3.45,0.05 -4.18,-1.53 -0.74,-1.57 -0.05,-3.45 1.52,-4.18z"/>
     <path class="fil2" d="M193.96 108.81c0.37,-0.17 0.53,-0.61 0.36,-0.98 -0.17,-0.37 -0.61,-0.53 -0.98,-0.35 -0.37,0.17 -0.53,0.61 -0.36,0.97 0.18,0.37 0.61,0.53 0.98,0.36z"/>
    </g>
    <g>
     <path class="fil2" d="M177.27 91.74l1.29 2.78 1.1 -0.52c0.65,0.9 1.46,1.64 2.38,2.19l-0.41 1.14 2.87 1.05 0.42 -1.14c1.06,0.17 2.16,0.13 3.23,-0.14l0.52 1.1 2.77 -1.29 -0.51 -1.1c0.9,-0.65 1.64,-1.47 2.19,-2.38l1.14 0.41 1.05 -2.88 -1.14 -0.41c0.17,-1.06 0.13,-2.16 -0.14,-3.24l1.1 -0.51 -1.29 -2.78 -1.1 0.52c-0.65,-0.9 -1.47,-1.64 -2.39,-2.19l0.42 -1.14 -2.88 -1.05 -0.42 1.14c-1.05,-0.17 -2.15,-0.13 -3.23,0.14l-0.51 -1.1 -2.78 1.29 0.51 1.1c-0.89,0.65 -1.63,1.47 -2.18,2.38l-1.14 -0.41 -1.05 2.88 1.14 0.41c-0.18,1.06 -0.13,2.16 0.14,3.23l-1.1 0.52zm6.74 -7.18l0 0c2.6,-1.2 5.68,-0.08 6.89,2.52 1.21,2.6 0.08,5.68 -2.51,6.89 -2.6,1.21 -5.69,0.09 -6.9,-2.51 -1.21,-2.6 -0.08,-5.69 2.52,-6.9z"/>
     <path class="fil2" d="M186.71 90.37c0.61,-0.28 0.87,-1 0.59,-1.61 -0.28,-0.61 -1.01,-0.87 -1.61,-0.59 -0.61,0.28 -0.88,1 -0.59,1.61 0.28,0.61 1,0.87 1.61,0.59z"/>
    </g>
    <g>
     <path class="fil2" d="M60.41 125.29l0.68 -1.73 -0.68 -0.27c0.12,-0.66 0.11,-1.33 -0.04,-1.96l0.68 -0.3 -0.74 -1.7 -0.68 0.29c-0.36,-0.54 -0.84,-1 -1.41,-1.36l0.27 -0.69 -1.73 -0.68 -0.27 0.68c-0.66,-0.12 -1.33,-0.11 -1.96,0.04l-0.3 -0.68 -1.7 0.74 0.29 0.68c-0.54,0.36 -1,0.84 -1.36,1.41l-0.69 -0.27 -0.68 1.73 0.68 0.27c-0.12,0.66 -0.11,1.33 0.03,1.97l-0.67 0.29 0.74 1.71 0.67 -0.3c0.37,0.54 0.85,1 1.42,1.37l-0.27 0.68 1.73 0.69 0.27 -0.69c0.66,0.12 1.33,0.11 1.96,-0.03l0.3 0.67 1.7 -0.74 -0.29 -0.67c0.54,-0.37 1,-0.85 1.36,-1.42l0.69 0.27zm-5.98 0.03l0 0c-1.62,-0.64 -2.41,-2.47 -1.77,-4.08 0.64,-1.62 2.47,-2.42 4.09,-1.78 1.61,0.64 2.41,2.47 1.77,4.09 -0.64,1.62 -2.47,2.41 -4.09,1.77z"/>
     <path class="fil2" d="M55.86 121.71c-0.38,-0.15 -0.81,0.03 -0.96,0.41 -0.15,0.38 0.04,0.81 0.42,0.96 0.38,0.15 0.81,-0.04 0.95,-0.42 0.15,-0.38 -0.03,-0.8 -0.41,-0.95z"/>
    </g>
    <g>
     <path class="fil2" d="M55.13 142.68l1.13 -2.85 -1.13 -0.44c0.2,-1.09 0.18,-2.19 -0.05,-3.24l1.11 -0.48 -1.22 -2.81 -1.11 0.48c-0.61,-0.88 -1.4,-1.65 -2.33,-2.24l0.44 -1.13 -2.85 -1.13 -0.44 1.13c-1.09,-0.2 -2.19,-0.18 -3.24,0.05l-0.48 -1.11 -2.81 1.22 0.48 1.11c-0.88,0.61 -1.65,1.39 -2.24,2.33l-1.14 -0.44 -1.12 2.85 1.13 0.44c-0.2,1.09 -0.18,2.19 0.05,3.24l-1.11 0.48 1.22 2.81 1.11 -0.48c0.61,0.88 1.39,1.65 2.33,2.24l-0.44 1.13 2.85 1.13 0.44 -1.13c1.09,0.2 2.19,0.18 3.24,-0.05l0.48 1.11 2.81 -1.22 -0.48 -1.11c0.88,-0.61 1.65,-1.39 2.24,-2.33l1.13 0.44zm-9.84 0.05l0 0c-2.67,-1.05 -3.97,-4.06 -2.92,-6.73 1.05,-2.66 4.06,-3.97 6.73,-2.92 2.66,1.05 3.97,4.06 2.92,6.73 -1.05,2.67 -4.06,3.97 -6.73,2.92z"/>
     <path class="fil2" d="M47.64 136.78c-0.62,-0.25 -1.33,0.06 -1.57,0.68 -0.25,0.62 0.06,1.33 0.68,1.57 0.62,0.25 1.33,-0.06 1.57,-0.68 0.25,-0.62 -0.06,-1.33 -0.68,-1.57z"/>
    </g>
   </g>
   <path class="fil3" d="M200.27 201.39c0,1.71 -37.08,3.1 -82.82,3.1 -45.74,0 -82.82,-1.39 -82.82,-3.1 0,-1.72 37.08,-3.11 82.82,-3.11 45.74,0 82.82,1.39 82.82,3.11z"/>
   <g>
    <path class="fil0" d="M179.7 163.44c0,0 -1.32,-0.12 -1.56,0.94 -0.24,1.05 1.57,0.91 1.57,0.91l-0.01 -1.85z"/>
    <polygon class="fil1" points="198.56,160.23 188.94,163.11 179.42,163.11 179.42,165.46 188.99,166.64 200.8,165.46 "/>
   </g>
   <path class="fil4" d="M121.84 50.9c-5.28,-1.47 -8.79,4.05 -13.91,2.11l0 -8.07 0 -17.91 -71.26 0 0 71.26 17.91 0 8.07 0c1.94,-5.12 -3.58,-8.63 -2.11,-13.91 1.44,-5.14 6.95,-6.76 11.76,-6.91 -0.26,-0.01 -0.51,-0.02 -0.77,-0.02l1.53 0c-0.25,0 -0.5,0.01 -0.76,0.02 4.81,0.15 10.32,1.77 11.76,6.91 1.47,5.28 -4.06,8.79 -2.11,13.91l8.07 0 17.91 0 0 -17.91 0 -8.07c5.12,-1.95 8.63,3.58 13.91,2.1 5.14,-1.43 6.76,-6.94 6.91,-11.75 -0.15,-4.81 -1.77,-10.32 -6.91,-11.76z"/>
   <polygon class="fil5" points="86.57,219.81 60.04,219.81 60.04,218.64 86.57,218.64 "/>
   <polygon class="fil3" points="239.34,209.51 197.07,209.51 197.07,208.35 239.34,208.35 "/>
   <path class="fil6" d="M188.4 130.12l-17.9 0 -8.07 0c-1.95,-5.12 3.57,-8.63 2.1,-13.9 -1.43,-5.15 -6.95,-6.76 -11.76,-6.91 -4.8,0.15 -10.32,1.76 -11.75,6.91 -1.47,5.27 4.05,8.78 2.1,13.9l-8.07 0 -17.91 0 0 17.91 0 8.07c5.13,1.95 8.64,-3.57 13.91,-2.1 5.15,1.43 6.76,6.95 6.91,11.76 0.01,-0.26 0.02,-0.52 0.02,-0.77l0 1.53c0,-0.25 -0.01,-0.51 -0.02,-0.76 -0.15,4.8 -1.76,10.32 -6.91,11.75 -5.27,1.47 -8.78,-4.05 -13.91,-2.1l0 8.07 0 17.91 71.26 0 0 -71.27z"/>
   <path class="fil7" d="M103.58 39.69l3.82 17.49 1.72 7.89c5.42,0.8 7.67,-5.34 13.14,-5.03 5.33,0.31 8.09,5.35 9.26,10.01 -0.04,-0.25 -0.09,-0.5 -0.15,-0.75l0.33 1.5c-0.05,-0.25 -0.12,-0.5 -0.18,-0.75 0.88,4.73 0.48,10.46 -4.24,12.96 -4.84,2.57 -9.45,-2.08 -14.04,0.92l1.72 7.88 3.82 17.5 17.5 -3.82 7.88 -1.73c0.81,-5.42 -5.33,-7.67 -5.02,-13.14 0.31,-5.33 5.35,-8.08 10.01,-9.25 -0.25,0.04 -0.5,0.09 -0.75,0.14l1.5 -0.32c-0.25,0.05 -0.5,0.11 -0.75,0.18 4.73,-0.88 10.46,-0.48 12.96,4.24 2.57,4.84 -2.08,9.45 0.91,14.04l7.89 -1.73 17.49 -3.82 -15.2 -69.62 -69.62 15.21z"/>
   <path class="fil8" d="M131.16 154c-5.28,-1.47 -8.79,4.05 -13.91,2.1l0 -8.07 0 -17.91 -17.91 0 -8.07 0 0 0c-1.95,-5.12 3.58,-8.63 2.1,-13.9 -1.43,-5.15 -6.95,-6.76 -11.75,-6.91 -4.81,0.15 -10.32,1.76 -11.76,6.91 -1.47,5.27 4.05,8.78 2.11,13.9l0 0 -8.07 0 0 0 -17.91 0 0 0 0 71.26 0 0 0 0.01 71.26 0 0 -0.01 0 -17.9 0 -8.07c5.12,-1.95 8.63,3.57 13.91,2.1 5.14,-1.44 6.76,-6.95 6.91,-11.76 -0.15,-4.8 -1.77,-10.32 -6.91,-11.75z"/>
   <g>
    <g>
     <path class="fil1" d="M120.05 78.81c0,0 1.26,-0.64 0.9,-2.32 0,0 -1.18,1.44 -3.96,1.79 -2.77,0.35 -3.55,4.49 -1.17,6.25 2.38,1.77 3.26,-1.85 3.26,-1.85l0.42 -2.15 0.55 -1.72z"/>
     <path class="fil0" d="M120.05 78.81c-1.74,0.03 -1.39,0.98 -1.39,0.98l0.43 1.97 -1.07 0.37 -0.77 -0.75c-1.2,-0.29 -0.67,1.22 -0.67,1.22l-1.39 1.27 -0.39 1.26 3.31 2.92 1.26 -2.37 2.32 -0.7 -0.63 -2.35 1.14 -0.31 -2.15 -3.51z"/>
    </g>
    <g>
     <g>
      <polygon class="fil1" points="101.62,128.17 102.03,129.29 104.26,130.15 98.64,130.11 98.89,128.17 "/>
     </g>
     <polygon class="fil1" points="106.01,107.04 105.18,116.71 98.64,128.34 101.92,128.34 108.8,120.22 113.26,107.59 "/>
    </g>
    <g>
     <g>
      <polygon class="fil1" points="122.75,128.17 123.17,129.29 125.4,130.15 119.77,130.11 119.79,128.6 "/>
     </g>
     <polygon class="fil1" points="111.86,109.24 117.84,117.97 119.49,128.7 123.11,128.7 122.28,115.92 118.35,105.5 "/>
    </g>
    <path class="fil1" d="M117.84 109.5l-12.34 -1.75 5.01 -18.79c0.63,-2.3 2.26,-4.21 4.44,-5.19l4 4.48 0.54 5.89 -1.65 15.36z"/>
    <path class="fil9" d="M117.58 90.55c0,0 -0.09,-0.8 0.05,-1.92l1.14 0.04c0,0 0.14,0.86 -0.05,1.92l0.04 0.92c0,0 0.34,2.8 0.54,5.12 0.2,2.32 -0.3,10.12 -0.3,10.12l-1.26 2.21 -1.42 -1.89c0,0 0.37,-8.8 1.22,-15.13l0.04 -1.39z"/>
    <g>
     <path class="fil0" d="M135.18 85.64c0,0 1.16,-0.62 1.8,0.25 0.64,0.87 -1.08,1.45 -1.08,1.45l-0.72 -1.7z"/>
     <polygon class="fil1" points="114.88,86.69 125.14,86.75 135.39,85.25 136.45,87.73 125.95,90.49 115.4,93.05 "/>
    </g>
   </g>
   <g>
    <polygon class="fil10" points="65.54,219.22 64.45,219.22 64.45,92.11 65.54,92.11 "/>
    <polygon class="fil10" points="82.71,219.22 81.61,219.22 81.61,92.11 82.71,92.11 "/>
    <polygon class="fil10" points="82.16,97.68 64.45,97.68 64.45,98.78 82.16,98.78 "/>
    <polygon class="fil10" points="82.16,107.04 64.45,107.04 64.45,108.13 82.16,108.13 "/>
    <polygon class="fil10" points="82.16,116.4 64.45,116.4 64.45,117.49 82.16,117.49 "/>
    <polygon class="fil10" points="82.16,125.75 64.45,125.75 64.45,126.85 82.16,126.85 "/>
    <polygon class="fil10" points="82.16,135.11 64.45,135.11 64.45,136.2 82.16,136.2 "/>
    <polygon class="fil10" points="82.16,144.47 64.45,144.47 64.45,145.56 82.16,145.56 "/>
    <polygon class="fil10" points="82.16,153.83 64.45,153.83 64.45,154.92 82.16,154.92 "/>
    <polygon class="fil10" points="82.16,163.18 64.45,163.18 64.45,164.28 82.16,164.28 "/>
    <polygon class="fil10" points="82.16,172.54 64.45,172.54 64.45,173.63 82.16,173.63 "/>
    <polygon class="fil10" points="82.16,181.9 64.45,181.9 64.45,182.99 82.16,182.99 "/>
    <polygon class="fil10" points="82.16,191.25 64.45,191.25 64.45,192.35 82.16,192.35 "/>
    <polygon class="fil10" points="82.16,200.61 64.45,200.61 64.45,201.7 82.16,201.7 "/>
    <polygon class="fil10" points="82.16,209.97 64.45,209.97 64.45,211.06 82.16,211.06 "/>
   </g>
   <g>
    <path class="fil0" d="M68.89 83.79c0,0 -0.56,7.81 2.48,16.71l1.55 0c0,0 -0.82,-12.16 -0.58,-16.71l-3.45 0z"/>
    <path class="fil1" d="M71.37 100.5l0 6.81c0,0 2.17,0.4 2.17,-1.44 0,-1.85 -0.62,-5.37 -0.62,-5.37l-1.55 0z"/>
    <path class="fil0" d="M78.83 83.79c0,0 0.56,7.81 -2.48,16.71l-1.55 0c0,0 0.82,-12.16 0.58,-16.71l3.45 0z"/>
    <path class="fil1" d="M76.35 100.5l0 6.81c0,0 -2.17,0.4 -2.17,-1.44 0,-1.85 0.62,-5.37 0.62,-5.37l1.55 0z"/>
    <g>
     <path class="fil1" d="M72.02 48.34c-2.41,0.14 -3.29,1.35 -3.57,3.71 -0.27,2.22 0.91,3.75 3.17,3.98 0,0 3.34,0.51 3.15,-5.48 0,0 -0.1,-2.37 -2.75,-2.21z"/>
     <path class="fil1" d="M71.18 50.26c0,1.06 -0.87,1.93 -1.93,1.93 -1.07,0 -1.93,-0.87 -1.93,-1.93 0,-1.07 0.86,-1.93 1.93,-1.93 1.06,0 1.93,0.86 1.93,1.93z"/>
     <path class="fil0" d="M74.15 49.07l2.52 3.44 -0.72 0.4 0.72 1.2 -2 1.6 0.16 1.31 -3.21 0 0 -0.99c0,0 1.74,0.11 1.71,-2.79 0,0 -1.57,-2.42 0,-2.1 0,0 1.7,-0.79 0.82,-2.07z"/>
    </g>
    <polygon class="fil1" points="69.76,62.19 59.49,52.25 60.18,42.3 62.25,42.3 62.75,51.07 72.54,59.3 "/>
    <polygon class="fil1" points="77.39,66.15 79.62,59.14 78.03,57.04 73.65,57.04 69.27,57.04 67.68,59.14 69.92,66.15 67.09,76.88 73.65,76.88 80.22,76.88 "/>
    <polygon class="fil1" points="73.65,76.88 67.31,76.88 67.31,87.46 73.65,87.46 79.99,87.46 79.99,76.88 "/>
    <path class="fil0" d="M60.34 42.3c0,0 -0.21,-1.18 0.86,-1.28 1.07,-0.11 0.83,1.28 0.83,1.28l-1.69 0z"/>
    <g>
     <polygon class="fil1" points="76.48,62.19 86.74,52.25 86.05,42.3 83.99,42.3 83.49,51.07 73.7,59.3 "/>
     <path class="fil0" d="M85.89 42.3c0,0 0.22,-1.18 -0.85,-1.28 -1.07,-0.11 -0.83,1.28 -0.83,1.28l1.68 0z"/>
    </g>
   </g>
   <g>
    <polygon class="fil11" points="21.72,28.56 16.21,28.56 16.21,28.06 21.72,28.06 "/>
    <polygon class="fil11" points="19.21,31.06 18.71,31.06 18.71,25.56 19.21,25.56 "/>
   </g>
   <g>
    <polygon class="fil11" points="17.57,102.8 13.17,102.8 13.17,102.3 17.57,102.3 "/>
    <polygon class="fil11" points="15.62,104.74 15.12,104.74 15.12,100.35 15.62,100.35 "/>
   </g>
   <g>
    <polygon class="fil11" points="137.66,5.44 133.27,5.44 133.27,4.94 137.66,4.94 "/>
    <polygon class="fil11" points="135.72,7.39 135.22,7.39 135.22,2.99 135.72,2.99 "/>
   </g>
   <g>
    <polygon class="fil11" points="202.8,68.97 197.29,68.97 197.29,68.46 202.8,68.46 "/>
    <polygon class="fil11" points="200.29,71.47 199.79,71.47 199.79,65.96 200.29,65.96 "/>
   </g>
   <path class="fil11" d="M35.02 116.59c-1.6,0 -2.91,-1.3 -2.91,-2.91 0,-1.61 1.31,-2.92 2.91,-2.92 1.61,0 2.92,1.31 2.92,2.92 0,1.61 -1.31,2.91 -2.92,2.91zm0 -5.33l0 0c-1.33,0 -2.41,1.09 -2.41,2.42 0,1.33 1.08,2.42 2.41,2.42 1.34,0 2.42,-1.09 2.42,-2.42 0,-1.33 -1.08,-2.42 -2.42,-2.42z"/>
   <path class="fil11" d="M212.43 113.53c0,1.09 -0.89,1.98 -1.98,1.98 -1.1,0 -1.99,-0.89 -1.99,-1.98 0,-1.1 0.89,-1.99 1.99,-1.99 1.09,0 1.98,0.89 1.98,1.99z"/>
   <g>
    <path class="fil11" d="M189.35 106.02l-0.11 -0.49c0.01,0 1.08,-0.24 2.82,-0.93l0.19 0.47c-1.78,0.7 -2.86,0.94 -2.9,0.95zm5.65 -2.2l0 0 -0.22 -0.44c0.87,-0.44 1.75,-0.93 2.6,-1.45l0.26 0.43c-0.87,0.53 -1.75,1.02 -2.64,1.46zm5.17 -3.12l0 0 -0.29 -0.41c0.8,-0.57 1.6,-1.17 2.37,-1.81l0.31 0.39c-0.78,0.64 -1.58,1.26 -2.39,1.83zm4.66 -3.82l0 0 -0.34 -0.36c0.72,-0.67 1.43,-1.38 2.11,-2.11l0.36 0.34c-0.69,0.74 -1.4,1.45 -2.13,2.13zm4.13 -4.39l0 0 -0.38 -0.31c0.62,-0.76 1.24,-1.55 1.83,-2.35l0.41 0.29c-0.6,0.81 -1.23,1.61 -1.86,2.37zm3.57 -4.84l0 0 -0.41 -0.27c0.53,-0.82 1.06,-1.68 1.57,-2.54l0.43 0.25c-0.51,0.87 -1.04,1.73 -1.59,2.56zm3.04 -5.2l0 0 -0.45 -0.23c0.45,-0.87 0.89,-1.77 1.31,-2.68l0.45 0.21c-0.42,0.92 -0.86,1.83 -1.31,2.7zm2.51 -5.46l0 0 -0.46 -0.19c0.37,-0.91 0.72,-1.85 1.06,-2.79l0.47 0.17c-0.34,0.95 -0.7,1.89 -1.07,2.81zm2.03 -5.66l0 0 -0.48 -0.15c0.3,-0.93 0.58,-1.9 0.85,-2.87l0.48 0.14c-0.27,0.97 -0.55,1.94 -0.85,2.88zm1.59 -5.79l0 0 -0.48 -0.12c0.23,-0.95 0.44,-1.94 0.64,-2.92l0.49 0.1c-0.2,0.99 -0.42,1.98 -0.65,2.94zm1.21 -5.89l0 0 -0.5 -0.09c0.14,-0.77 0.26,-1.55 0.38,-2.34l0.49 0.07c-0.12,0.8 -0.24,1.58 -0.37,2.36z"/>
    <polygon class="fil11" points="191.28,107.3 188.59,105.87 190.09,103.22 190.53,103.46 189.28,105.67 191.51,106.86 "/>
   </g>
   <path class="fil11" d="M129.99 17.22c0,1.1 -0.88,1.99 -1.98,1.99 -1.1,0 -1.99,-0.89 -1.99,-1.99 0,-1.1 0.89,-1.99 1.99,-1.99 1.1,0 1.98,0.89 1.98,1.99z"/>
   <g>
    <path class="fil11" d="M10.7 148.67l-0.3 -0.4 2.4 -1.8 0.3 0.4 -2.4 1.8zm4.8 -3.59l0 0 -0.3 -0.4 2.41 -1.8 0.3 0.4 -2.41 1.8zm4.81 -3.59l0 0 -0.3 -0.4 2.4 -1.8 0.3 0.41 -2.4 1.79zm4.81 -3.59l0 0 -0.3 -0.4 2.4 -1.79 0.3 0.4 -2.4 1.79zm4.8 -3.59l0 0 -0.29 -0.4 2.4 -1.79 0.3 0.4 -2.41 1.79zm4.81 -3.59l0 0 -0.3 -0.4 2.41 -1.79 0.3 0.4 -2.41 1.79z"/>
    <polygon class="fil11" points="37,130.97 36.52,130.86 36.99,128.76 34.84,128.62 34.88,128.12 37.6,128.29 "/>
   </g>
   <g>
    <path class="fil11" d="M8.26 51.97c-0.58,-0.82 -1.13,-1.67 -1.63,-2.54l0.43 -0.25c0.49,0.85 1.03,1.7 1.6,2.5l-0.4 0.29zm-3.01 -5.23l0 0c-0.41,-0.92 -0.79,-1.86 -1.11,-2.82l0.47 -0.16c0.32,0.94 0.69,1.87 1.1,2.77l-0.46 0.21zm-1.94 -5.72l0 0c-0.23,-0.97 -0.42,-1.97 -0.56,-2.97l0.5 -0.07c0.13,0.98 0.32,1.97 0.54,2.93l-0.48 0.11zm-0.82 -5.98l0 0c-0.02,-0.43 -0.03,-0.86 -0.03,-1.29 0,-0.58 0.02,-1.16 0.05,-1.73l0.5 0.03c-0.03,0.56 -0.05,1.13 -0.05,1.7 0,0.42 0.01,0.85 0.03,1.27l-0.5 0.02zm0.82 -5.95l0 0 -0.49 -0.07c0.14,-1 0.34,-1.99 0.59,-2.97l0.48 0.13c-0.24,0.95 -0.43,1.93 -0.58,2.91zm1.44 -5.76l0 0 -0.47 -0.17c0.34,-0.94 0.73,-1.88 1.15,-2.79l0.46 0.21c-0.42,0.89 -0.81,1.82 -1.14,2.75zm2.53 -5.38l0 0 -0.43 -0.25c0.51,-0.87 1.07,-1.72 1.66,-2.53l0.4 0.3c-0.58,0.8 -1.13,1.63 -1.63,2.48zm3.5 -4.8l0 0 -0.38 -0.33c0.67,-0.75 1.38,-1.48 2.11,-2.16l0.34 0.36c-0.72,0.67 -1.42,1.39 -2.07,2.13zm4.34 -4.05l0 0 -0.3 -0.4c0.8,-0.61 1.63,-1.19 2.48,-1.72l0.27 0.43c-0.84,0.52 -1.66,1.09 -2.45,1.69zm35.81 -1.39l0 0c-0.7,-0.45 -1.42,-0.88 -2.14,-1.27l0.24 -0.44c0.73,0.4 1.47,0.83 2.17,1.29l-0.27 0.42zm-30.77 -1.76l0 0 -0.22 -0.45c0.9,-0.44 1.83,-0.85 2.76,-1.21l0.18 0.46c-0.92,0.36 -1.83,0.76 -2.72,1.2zm25.95 -0.8l0 0c-0.91,-0.39 -1.85,-0.73 -2.79,-1.03l0.15 -0.48c0.95,0.3 1.91,0.65 2.83,1.05l-0.19 0.46zm-20.4 -1.33l0 0 -0.14 -0.48c0.97,-0.27 1.96,-0.49 2.95,-0.66l0.09 0.49c-0.97,0.17 -1.95,0.39 -2.9,0.65zm14.73 -0.45l0 0c-0.97,-0.21 -1.96,-0.36 -2.94,-0.47l0.06 -0.5c1,0.11 2,0.27 2.98,0.48l-0.1 0.49zm-8.88 -0.57l0 0 -0.04 -0.5c0.82,-0.07 1.64,-0.11 2.49,-0.1 0.18,0 0.35,0 0.53,0.01l-0.01 0.5c-0.18,-0.01 -0.35,-0.01 -0.53,-0.01 -0.81,0 -1.64,0.03 -2.44,0.1z"/>
    <polygon class="fil11" points="48.94,8.24 48.86,7.75 50.99,7.42 50.34,5.38 50.82,5.23 51.65,7.83 "/>
   </g>
   <polygon class="fil3" points="42.27,209.52 0,209.52 0,208.36 42.27,208.36 "/>
   <g>
    <g>
     <path class="fil1" d="M46.18 167.87c0,0 1.42,0.55 2.51,-0.96 0,0 -2.01,0.1 -4.3,-1.87 -2.29,-1.96 -6.16,0.41 -5.85,3.6 0.31,3.18 3.84,1.26 3.84,1.26l2.03 -1.21 1.77 -0.82z"/>
     <path class="fil0" d="M46.18 167.87c-1.28,-1.36 -1.79,-0.4 -1.79,-0.4l-1.26 1.78 -1.08 -0.59 0.05 -1.16c-0.65,-1.17 -1.47,0.35 -1.47,0.35l-2.02 -0.2 -1.29 0.6 -0.5 4.95 3.25 -1.35 2.23 1.35 1.56 -1.75 1.07 0.69 1.25 -4.27z"/>
    </g>
    <path class="fil1" d="M20.51 186.18l-8.95 -10.66 19.58 -8.15c2.39,-0.97 5.09,-0.83 7.36,0.39l-1.2 6.38 -4.7 4.33 -12.09 7.71z"/>
    <path class="fil9" d="M34.59 174.85c0,0 0.22,-0.83 0.8,-1.91l1.14 0.48c0,0 -0.2,0.92 -0.8,1.91l-0.31 0.95c0,0 -0.74,2.95 -1.43,5.37 -0.69,2.42 -4.21,10.09 -4.21,10.09l-2.12 1.75 -0.7 -2.46c0,0 3.77,-8.73 7.06,-14.79l0.57 -1.39z"/>
    <g>
     <polygon class="fil1" points="7.59,206.8 8.04,208.01 10.45,208.94 4.37,208.9 4.39,207.26 "/>
    </g>
    <g>
     <g>
      <polygon class="fil1" points="27.26,206.8 27.71,208.01 30.12,208.94 24.04,208.9 24.05,207.26 "/>
     </g>
     <polygon class="fil1" points="16.51,181.64 26.2,192.39 23.73,207.38 27.64,207.38 32.52,190.38 20.47,172.28 "/>
    </g>
    <g>
     <path class="fil0" d="M48.1 187.88c0,0 1.25,0.43 1.04,1.49 -0.22,1.07 -1.81,0.19 -1.81,0.19l0.77 -1.68z"/>
     <polygon class="fil1" points="34.47,171.24 39.78,180.89 48.53,187.77 47.42,190.23 37.75,184.71 30.12,175.95 "/>
    </g>
    <path class="fil1" d="M18.67 178.07l0.05 -0.03 -0.25 -1.58c0,0 -1.62,-1.83 -4.72,-0.94 -3.09,0.9 -2.86,4.01 -2.86,4.01l3.58 16.42 -10.44 11.43 3.1 1.19 14.01 -10.67 -2.47 -19.83z"/>
   </g>
   <g>
    <g>
     <path class="fil1" d="M189.46 160.3c0,0 -1.47,0.43 -2.43,-1.17 0,0 1.99,0.27 4.44,-1.51 2.43,-1.78 6.11,0.91 5.54,4.05 -0.57,3.15 -3.93,0.95 -3.93,0.95l-1.92 -1.37 -1.7 -0.95z"/>
     <path class="fil0" d="M189.46 160.3c1.38,-1.26 1.81,-0.26 1.81,-0.26l1.12 1.87 1.12 -0.5 0.04 -1.16c0.74,-1.11 1.44,0.47 1.44,0.47l2.03 -0.03 1.24 0.7 -0.4 4.77 -2.63 -1.4 -2.34 1.15 -1.41 -1.86 -1.12 0.6 -0.9 -4.35z"/>
    </g>
    <path class="fil1" d="M214.49 183.83l8.9 -10.09 -18.54 -12.57c-2.14,-1.44 -4.81,-1.87 -7.29,-1.15l-0.14 6.49 3.69 5.22 13.38 12.1z"/>
    <path class="fil9" d="M199.34 168.63c0,0 0.01,-0.86 -0.26,-2.05l-1.22 0.15c0,0 -0.06,0.94 0.25,2.06l0.05 1c0,0 -0.07,3.03 -0.05,5.55 0.02,2.52 1.37,10.85 1.37,10.85l1.57 2.25 1.33 -2.18c0,0 -1.3,-9.42 -2.86,-16.14l-0.18 -1.49z"/>
    <g>
     <g>
      <polygon class="fil1" points="226.69,206.79 226.25,208 223.83,208.93 229.91,208.88 229.9,207.25 "/>
     </g>
     <polygon class="fil1" points="224.06,176.45 226.87,195.29 230.25,207.37 227.16,208.56 221.94,195.99 215.81,176.45 "/>
    </g>
    <g>
     <g>
      <polygon class="fil1" points="209.7,206.79 209.25,208 206.84,208.93 212.91,208.88 212.9,207.25 "/>
     </g>
     <polygon class="fil1" points="221.61,182.39 215.81,189.81 213.22,207.37 209.31,207.37 209.87,187.55 216.48,172.26 "/>
    </g>
    <g>
     <path class="fil0" d="M180.84 171.34c0,0 -1.32,-0.1 -1.55,0.96 -0.23,1.06 1.58,0.89 1.58,0.89l-0.03 -1.85z"/>
     <polygon class="fil1" points="199.87,163.98 190.56,169.33 180.48,171.06 180.53,173.77 191.8,172.86 202.94,170.36 "/>
    </g>
    <path class="fil1" d="M223.03 173.77c0,0 0.92,0.25 1.41,5.19 0.45,4.56 -7.38,-0.82 -7.38,-0.82l0 -3.33 2.85 -1.61 3.12 0.57z"/>
   </g>
  </g>
 </g>
</svg>
