<?xml version="1.0" encoding="UTF-8"?>
<!DOCTYPE svg PUBLIC "-//W3C//DTD SVG 1.1//EN" "http://www.w3.org/Graphics/SVG/1.1/DTD/svg11.dtd">
<!-- Creator: CorelDRAW 2017 -->
<svg xmlns="http://www.w3.org/2000/svg" xml:space="preserve" width="101px" height="82px" version="1.1" style="shape-rendering:geometricPrecision; text-rendering:geometricPrecision; image-rendering:optimizeQuality; fill-rule:evenodd; clip-rule:evenodd"
viewBox="0 0 1.58 1.28"
 xmlns:xlink="http://www.w3.org/1999/xlink">
 <defs>
  <style type="text/css">
   <![CDATA[
    .fil1 {fill:white}
    .fil0 {fill:white;fill-rule:nonzero}
   ]]>
  </style>
 </defs>
 <g id="图层_x0020_1">
  <metadata id="CorelCorpID_0Corel-Layer"/>
  <g id="_1936284982480">
   <path class="fil0" d="M0.06 0l1.22 0 0 0.38 0.3 0.26 -0.3 0.25 0 0.39 -1.28 0 0 -1.28 0.06 0zm1.1 0.12l-1.04 0 0 1.04 1.04 0 0 -0.32 0.24 -0.2 -0.24 -0.2 0 -0.32z"/>
   <path class="fil0" d="M0.59 0.36l-0.07 0 0.05 0.04 -0.02 0.02c-0.02,0.04 -0.03,0.07 -0.05,0.09 0.03,0.02 0.06,0.03 0.11,0.04 -0.02,0.01 -0.03,0.03 -0.04,0.06 -0.05,-0.02 -0.08,-0.03 -0.12,-0.05 -0.03,0.02 -0.07,0.03 -0.12,0.05l-0.02 -0.03c0.04,-0.02 0.08,-0.04 0.11,-0.06 -0.02,-0.03 -0.04,-0.06 -0.05,-0.1l-0.02 0 0 -0.04c0,0 0,0 0,0 -0.01,0 -0.01,0.01 -0.01,0.01l-0.02 -0.02c0.03,-0.03 0.05,-0.06 0.05,-0.1l0 -0.06 0.06 0 0 0.01 0.04 0 0.02 -0.02 0.05 0.03 -0.01 0.02 0 0.05c0,0.01 0,0.01 0.01,0.01 0.03,0 0.05,0 0.06,0 0,0.01 -0.01,0.03 -0.01,0.05 0,0 0,0 0,0zm-0.4 -0.03l0.05 0 0.02 -0.02 0.06 0.04 -0.02 0.01 0 0.12c0.02,-0.01 0.03,-0.02 0.04,-0.03l0.02 0.04c-0.03,0.04 -0.06,0.07 -0.1,0.11l-0.04 -0.05c0.02,-0.01 0.03,-0.03 0.02,-0.04l0 -0.14 -0.04 0 -0.01 -0.04zm0.17 0.05l0.13 0 0.02 -0.02c-0.03,0 -0.04,-0.02 -0.04,-0.05l0 -0.05 -0.04 0 0 0.01c0,0.04 -0.03,0.08 -0.07,0.11zm-0.12 -0.18c0.02,0.01 0.04,0.02 0.06,0.03 0.01,0 0.01,0.01 0.01,0.01 0.01,0 0.01,0.01 0,0.02 0,0 0,0 0,0 -0.01,0.02 -0.01,0.03 -0.02,0.04 0,0 -0.01,0 -0.01,-0.01 -0.02,-0.02 -0.04,-0.05 -0.05,-0.06l0.01 -0.03zm0.17 0.22c0.01,0.02 0.03,0.04 0.04,0.06 0.01,-0.02 0.02,-0.04 0.03,-0.06l-0.07 0z"/>
   <path id="1" class="fil0" d="M0.91 0.2l0.07 0 0 0.15 0.04 0 0.01 -0.03 0.05 0.04 -0.02 0.03 -0.08 0 0 0.22 -0.07 0 0 -0.22 -0.09 0 0 -0.04 0.09 0 0 -0.15zm-0.25 0.14l0.07 0 0.02 -0.02 0.06 0.03 -0.02 0.03 0 0.12c0.01,-0.01 0.02,-0.01 0.04,-0.03 0,0 0.01,-0.01 0.01,-0.01l0.02 0.03c-0.02,0.02 -0.05,0.06 -0.11,0.11l-0.04 -0.04c0.02,-0.02 0.02,-0.03 0.02,-0.05l0 -0.13 -0.06 0 -0.01 -0.04zm0.09 -0.13c0.02,0.01 0.04,0.03 0.05,0.04 0.01,0.01 0.01,0.02 0,0.03 0,0 -0.01,0.01 -0.02,0.02 -0.01,0.01 -0.01,0.01 -0.01,0.01 -0.01,0 -0.01,0 -0.01,-0.01 -0.01,-0.02 -0.02,-0.05 -0.04,-0.08l0.03 -0.01z"/>
   <path id="2" class="fil0" d="M0.2 0.81l0.17 0 0 -0.03 0.04 0 -0.02 -0.01c0.02,-0.03 0.04,-0.07 0.04,-0.11l0.06 0.02c0,0.01 -0.01,0.02 -0.02,0.03l0.07 0 0.02 -0.02 0.04 0.03 -0.01 0.02 -0.1 0c0.02,0.01 0.03,0.01 0.04,0.02 0.01,0 0.01,0 0,0.01 0,0.01 0,0.02 -0.01,0.03 0,0 -0.01,0 -0.01,0 -0.01,-0.02 -0.02,-0.03 -0.04,-0.05l0.01 -0.01 -0.03 0c-0.01,0.01 -0.02,0.03 -0.03,0.04l0.01 0 0 0.03 0.1 0 0.02 -0.03 0.05 0.04 -0.01 0.02 -0.16 0 0 0.03 0.07 0 0.01 -0.02 0.06 0.03c0,0 0,0 0,0.01l-0.01 0.01 0 0.03c0,0.03 -0.02,0.04 -0.06,0.04 0.03,0.02 0.06,0.03 0.11,0.04 -0.02,0.02 -0.03,0.04 -0.04,0.06 -0.06,-0.02 -0.11,-0.06 -0.14,-0.09l0 0.1 -0.06 0 0 -0.09c-0.04,0.03 -0.1,0.06 -0.16,0.08l-0.02 -0.03c0.07,-0.03 0.13,-0.07 0.18,-0.12l0 -0.01 -0.07 0 0 0.06 -0.05 0 0 -0.11 0.05 0 0 0.01 0.07 0 0 -0.03 -0.16 0 -0.01 -0.03zm0 -0.03c0.03,-0.03 0.04,-0.07 0.06,-0.12l0.06 0.02c-0.01,0.01 -0.01,0.02 -0.02,0.03l0.05 0 0.01 -0.02 0.04 0.03 -0.01 0.02 -0.08 0c0.01,0 0.01,0.01 0.02,0.01 0.01,0 0.01,0.01 0.02,0.01 0,0 0,0 0,0.01 0,0 0,0.01 -0.01,0.02 0,0 0,0.01 0,0.01 -0.01,0 -0.01,0 -0.02,0 0,-0.01 -0.01,-0.02 -0.02,-0.04 -0.01,0 -0.01,-0.01 -0.01,-0.01l0 -0.01 -0.01 0c-0.02,0.02 -0.04,0.04 -0.06,0.06l-0.02 -0.02zm0.23 0.15c0.02,0.02 0.05,0.03 0.07,0.04 0,-0.01 -0.01,-0.02 -0.03,-0.02l-0.01 -0.02c0.03,0 0.04,0 0.04,-0.01l0 -0.01 -0.07 0 0 0.02z"/>
   <path id="3" class="fil0" d="M0.66 1.03c0.03,-0.02 0.06,-0.04 0.09,-0.07 -0.01,-0.04 -0.02,-0.08 -0.03,-0.12l-0.04 0.01 -0.02 -0.04 0.06 -0.01c0,-0.02 0,-0.04 0,-0.06l0 -0.06 0.06 0 0 0.08 0 0.03 0.06 -0.01 0.02 -0.02 0.05 0.03 -0.01 0.03 -0.12 0.01c0.01,0.03 0.01,0.06 0.02,0.08 0.02,-0.02 0.03,-0.05 0.04,-0.07l0.06 0.03c-0.03,0.04 -0.05,0.07 -0.08,0.09 0,0.01 0.01,0.02 0.02,0.03 0.01,0.01 0.02,0.01 0.03,0 0.01,-0.02 0.01,-0.02 0.01,-0.03l0.03 0.01c-0.01,0.03 -0.01,0.05 0.01,0.06 -0.01,0.03 -0.03,0.04 -0.05,0.04 -0.03,0 -0.06,-0.01 -0.09,-0.05 0,0 0,-0.01 -0.01,-0.01 0,-0.01 0,-0.01 0,-0.01 -0.03,0.02 -0.06,0.03 -0.09,0.05l-0.02 -0.02zm0.33 -0.36l0.06 0 0 0.36c0,0.03 -0.02,0.05 -0.07,0.05 0,-0.03 -0.01,-0.04 -0.04,-0.04l0 -0.02c0.04,0 0.05,0 0.05,-0.02l0 -0.33zm-0.08 0.3l0 -0.25 0.06 0 0 0.25 -0.06 0zm-0.09 -0.29c0.01,0.01 0.03,0.02 0.04,0.04 0.01,0 0.01,0.01 0.01,0.02 -0.01,0.01 -0.02,0.01 -0.03,0.02 -0.01,0.01 -0.02,0.01 -0.02,0 0,-0.01 0,-0.01 0,-0.01 -0.01,-0.02 -0.02,-0.04 -0.03,-0.06l0.03 -0.01z"/>
   <polygon class="fil1" points="1.29,0.64 1.22,0.59 1.16,0.54 1.16,0.64 1.16,0.74 1.22,0.69 "/>
  </g>
 </g>
</svg>
