<?xml version="1.0" encoding="UTF-8"?>
<!DOCTYPE svg PUBLIC "-//W3C//DTD SVG 1.1//EN" "http://www.w3.org/Graphics/SVG/1.1/DTD/svg11.dtd">
<!-- Creator: CorelDRAW 2017 -->
<svg xmlns="http://www.w3.org/2000/svg" xml:space="preserve" width="101px" height="82px" version="1.1" style="shape-rendering:geometricPrecision; text-rendering:geometricPrecision; image-rendering:optimizeQuality; fill-rule:evenodd; clip-rule:evenodd"
viewBox="0 0 1.53 1.23"
 xmlns:xlink="http://www.w3.org/1999/xlink">
 <defs>
  <style type="text/css">
   <![CDATA[
    .fil1 {fill:white}
    .fil0 {fill:white;fill-rule:nonzero}
   ]]>
  </style>
 </defs>
 <g id="图层_x0020_1">
  <metadata id="CorelCorpID_0Corel-Layer"/>
  <g id="_1936306955632">
   <path class="fil0" d="M0.06 0l1.17 0 0 0.37 0.3 0.25 -0.3 0.24 0 0.37 -1.23 0 0 -1.23 0.06 0zm1.06 0.11l-1.01 0 0 1.01 1.01 0 0 -0.31 0.23 -0.19 -0.23 -0.2 0 -0.31z"/>
   <path class="fil0" d="M0.42 0.47c0.04,0.02 0.07,0.04 0.1,0.06 0,0 0,0.01 0,0.01 -0.01,0.02 -0.02,0.03 -0.03,0.04 0,0.01 -0.01,0.01 -0.01,0 -0.01,0 -0.01,-0.02 -0.02,-0.03 -0.08,0.01 -0.14,0.02 -0.2,0.03l-0.02 -0.06c0.01,0 0.03,0 0.04,-0.02 0.01,-0.01 0.02,-0.03 0.03,-0.04l-0.11 0 -0.01 -0.04 0.3 0 0.03 -0.03 0.05 0.04 -0.01 0.03 -0.21 0 0.03 0.01c-0.02,0.02 -0.04,0.04 -0.06,0.05 0.04,0 0.07,0 0.11,-0.01 0,0 -0.01,0 -0.01,-0.01 -0.01,-0.01 -0.01,-0.01 -0.01,-0.02l0.01 -0.01zm-0.24 -0.1c0.08,-0.05 0.13,-0.11 0.17,-0.18l0.07 0.02c0,0.01 0,0.01 -0.01,0.02 0,0 0,0 0,0 0.05,0.05 0.11,0.08 0.18,0.09 -0.02,0.02 -0.03,0.04 -0.05,0.07 -0.06,-0.04 -0.12,-0.08 -0.16,-0.13 -0.03,0.03 -0.06,0.06 -0.1,0.08l0.13 0 0.02 -0.02 0.05 0.04 -0.01 0.02 -0.19 0 0 -0.03c-0.03,0.01 -0.05,0.03 -0.08,0.04l-0.02 -0.02z"/>
   <path id="1" class="fil0" d="M0.68 0.2l0.06 0 0 0.01 0.21 0 0.01 -0.02 0.06 0.03 -0.02 0.02 0 0.08 -0.05 0 0 -0.01 -0.21 0 0 0.04c0,0.02 0,0.05 -0.01,0.07l0.05 0 0 -0.03 -0.03 0 0 -0.04 0.03 0 0 -0.03 0.06 0 0 0.03 0.04 0 0 -0.03 0.06 0 0 0.03 0.02 0 0.01 -0.02 0.05 0.04 -0.02 0.02 -0.06 0 0 0.03 0.04 0 0.01 -0.02 0.05 0.04 -0.02 0.02 -0.04 0 0.02 0.02c-0.01,0.01 -0.03,0.02 -0.05,0.03 0.02,0.01 0.05,0.02 0.08,0.02 -0.01,0.01 -0.02,0.04 -0.04,0.06 -0.07,-0.02 -0.12,-0.07 -0.15,-0.13l-0.03 0 0 0.06 0.04 -0.01 0.01 0.03c-0.03,0.02 -0.06,0.03 -0.1,0.05l-0.02 -0.05c0.01,-0.01 0.01,-0.02 0.01,-0.03l0 -0.05 -0.02 0c-0.01,0.04 -0.04,0.08 -0.07,0.12l-0.02 -0.02c0.03,-0.05 0.04,-0.12 0.04,-0.21l0 -0.15zm0.06 0.04l0 0.04 0.21 0 0 -0.04 -0.21 0zm0.1 0.15l0 0.03 0.04 0 0 -0.03 -0.04 0zm0.04 0.07c0.01,0.01 0.02,0.02 0.04,0.03 0,0 0,0 0,0 0.02,-0.02 0.03,-0.03 0.03,-0.03l-0.07 0z"/>
   <path id="2" class="fil0" d="M0.42 0.92c0.04,0.02 0.07,0.04 0.1,0.06 0,0 0,0.01 0,0.01 -0.01,0.02 -0.02,0.03 -0.03,0.04 0,0.01 -0.01,0.01 -0.01,0 -0.01,-0.01 -0.01,-0.02 -0.02,-0.03 -0.08,0.01 -0.14,0.02 -0.2,0.03l-0.02 -0.06c0.01,0 0.03,-0.01 0.04,-0.02 0.01,-0.01 0.02,-0.03 0.03,-0.04l-0.11 0 -0.01 -0.04 0.3 0 0.03 -0.03 0.05 0.04 -0.01 0.03 -0.21 0 0.03 0.01c-0.02,0.02 -0.04,0.04 -0.06,0.05 0.04,0 0.07,0 0.11,-0.01 0,0 -0.01,0 -0.01,-0.01 -0.01,-0.01 -0.01,-0.01 -0.01,-0.02l0.01 -0.01zm-0.24 -0.1c0.08,-0.05 0.13,-0.11 0.17,-0.18l0.07 0.02c0,0.01 0,0.01 -0.01,0.02 0,0 0,0 0,0 0.05,0.05 0.11,0.08 0.18,0.09 -0.02,0.02 -0.03,0.04 -0.05,0.07 -0.06,-0.04 -0.12,-0.08 -0.16,-0.13 -0.03,0.03 -0.06,0.06 -0.1,0.08l0.13 0 0.02 -0.02 0.05 0.04 -0.01 0.02 -0.19 0 0 -0.03c-0.03,0.01 -0.05,0.03 -0.08,0.04l-0.02 -0.02z"/>
   <path id="3" class="fil0" d="M0.94 0.69l0.07 0.01c-0.02,0.08 -0.04,0.15 -0.08,0.2 0.03,0.03 0.07,0.05 0.11,0.07 -0.02,0.02 -0.04,0.04 -0.05,0.06 -0.04,-0.02 -0.07,-0.05 -0.1,-0.07 -0.03,0.03 -0.07,0.05 -0.11,0.08l-0.03 -0.03c0.04,-0.02 0.08,-0.05 0.11,-0.1 -0.03,-0.04 -0.06,-0.1 -0.08,-0.18l0.04 -0.01c0.02,0.05 0.04,0.1 0.07,0.14 0.03,-0.05 0.04,-0.11 0.05,-0.17zm-0.3 0.08l0.05 0 0.02 -0.03 0.05 0.04 -0.01 0.02 0 0.11c0.01,-0.01 0.02,-0.02 0.04,-0.04l0.02 0.03c-0.03,0.04 -0.06,0.08 -0.11,0.13l-0.03 -0.05c0.02,-0.01 0.02,-0.03 0.02,-0.05l0 -0.13 -0.04 0 -0.01 -0.03zm0.21 -0.13c0.03,0.02 0.06,0.04 0.07,0.05 0,0.01 0,0.01 0,0.02 -0.01,0.01 -0.03,0.02 -0.04,0.03 0,0.01 -0.01,0.01 -0.01,0 -0.01,-0.03 -0.02,-0.06 -0.04,-0.09l0.02 -0.01zm-0.16 0.01c0.02,0.01 0.04,0.02 0.06,0.03 0.01,0 0.01,0.01 0,0.02 0,0.02 -0.01,0.03 -0.02,0.03 0,0.01 -0.01,0.01 -0.02,0 -0.01,-0.03 -0.02,-0.05 -0.04,-0.07l0.02 -0.01z"/>
   <polygon class="fil1" points="1.24,0.62 1.18,0.57 1.12,0.52 1.12,0.62 1.12,0.71 1.18,0.66 "/>
  </g>
 </g>
</svg>
