<?xml version="1.0" encoding="UTF-8"?>
<!DOCTYPE svg PUBLIC "-//W3C//DTD SVG 1.1//EN" "http://www.w3.org/Graphics/SVG/1.1/DTD/svg11.dtd">
<!-- Creator: CorelDRAW 2017 -->
<svg xmlns="http://www.w3.org/2000/svg" xml:space="preserve" width="101px" height="82px" version="1.1" style="shape-rendering:geometricPrecision; text-rendering:geometricPrecision; image-rendering:optimizeQuality; fill-rule:evenodd; clip-rule:evenodd"
viewBox="0 0 1.47 1.19"
 xmlns:xlink="http://www.w3.org/1999/xlink">
 <defs>
  <style type="text/css">
   <![CDATA[
    .fil1 {fill:white}
    .fil0 {fill:white;fill-rule:nonzero}
   ]]>
  </style>
 </defs>
 <g id="图层_x0020_1">
  <metadata id="CorelCorpID_0Corel-Layer"/>
  <g id="_1936693242848">
   <path class="fil0" d="M0.05 0l1.14 0 0 0.36 0.28 0.23 -0.28 0.24 0 0.36 -1.19 0 0 -1.19 0.05 0zm1.03 0.11l-0.97 0 0 0.97 0.97 0 0 -0.3 0.22 -0.19 -0.22 -0.18 0 -0.3z"/>
   <path class="fil0" d="M0.35 0.49c0.02,-0.03 0.04,-0.07 0.05,-0.1 0,-0.01 -0.01,-0.02 -0.01,-0.02 -0.01,-0.03 -0.02,-0.04 -0.02,-0.05 0,0.01 -0.01,0.01 -0.01,0.02 0,0.01 -0.01,0.02 -0.01,0.03 0,0 0.01,0.01 0.01,0.02 0.01,0.01 0.01,0.01 0.01,0.01 0.01,0.01 0.01,0.02 0,0.02 0,0.02 -0.01,0.03 -0.02,0.04 0,0 -0.01,0 -0.01,0 0,0 -0.01,0 -0.01,-0.01 0,-0.01 0,-0.02 -0.01,-0.03 -0.01,0.03 -0.03,0.05 -0.04,0.07l-0.01 -0.01 0 0.09 -0.06 0 0 -0.37 0.06 0 0 0.01 0.21 0 0.02 -0.03 0.05 0.04 -0.01 0.02 0 0.28c0,0.03 -0.02,0.05 -0.07,0.05 0,-0.02 -0.01,-0.03 -0.04,-0.04l0 -0.02c0,0 0.01,0 0.02,0.01 0.01,0 0.01,0 0.01,0 0.02,0 0.02,-0.01 0.02,-0.03l0 -0.04c0,0 0,0 0,0 0,0.01 -0.01,0.02 -0.02,0.04 -0.01,0 -0.01,0 -0.01,0 -0.01,0 -0.01,0 -0.01,-0.01 0,-0.01 -0.01,-0.01 -0.01,-0.02 0,-0.01 -0.01,-0.02 -0.01,-0.03 -0.02,0.04 -0.04,0.06 -0.05,0.07l-0.02 -0.01zm-0.06 -0.21c0,0 0,0.01 0.01,0.01 0.01,0.02 0.01,0.03 0.02,0.03 0,-0.02 0.01,-0.04 0.01,-0.06l0.05 0.01c0,0.01 0,0.01 0,0.02 0,0 -0.01,0.01 -0.01,0.01l0.01 -0.01c0.01,0.01 0.02,0.03 0.04,0.05 0,-0.03 0.01,-0.06 0.01,-0.08l0.05 0.01 0 -0.03 -0.21 0 0 0.05 0.02 -0.01zm-0.02 0.17c0.01,-0.02 0.02,-0.04 0.03,-0.08 -0.01,-0.03 -0.02,-0.05 -0.03,-0.08l0 0.16zm0.21 -0.03c0,0.01 0,0.01 0,0.01l0 -0.14c-0.01,0.03 -0.02,0.06 -0.03,0.09l0.03 0.04z"/>
   <path id="1" class="fil0" d="M0.97 0.42c-0.03,-0.01 -0.06,-0.03 -0.09,-0.05 -0.02,0.02 -0.04,0.03 -0.07,0.04l0.04 0 0 0.01 0.06 0 0.02 -0.02 0.05 0.03 -0.01 0.02 0 0.12 -0.06 0 0 -0.02 -0.06 0 0 0.02 -0.06 0 0 -0.15c0,0 -0.01,0 -0.02,0l-0.01 -0.02c0.03,-0.02 0.06,-0.03 0.09,-0.06 -0.01,0 -0.01,-0.02 -0.02,-0.03 0,0 -0.01,-0.01 -0.01,-0.01 0,0.01 -0.01,0.02 -0.02,0.04 -0.01,0 -0.01,0.01 -0.01,0.01l-0.03 -0.01c0.03,-0.05 0.04,-0.1 0.05,-0.16l0.07 0.02c-0.01,0.01 -0.01,0.02 -0.02,0.03l0.06 0 0.01 -0.02 0.05 0.03c0.01,0.01 0.01,0.01 0,0.01l-0.01 0.02c-0.02,0.03 -0.03,0.05 -0.05,0.07 0.02,0.01 0.05,0.02 0.08,0.03 -0.01,0.01 -0.02,0.03 -0.03,0.05zm-0.35 -0.01c0.02,0 0.03,-0.01 0.04,-0.02 0.01,-0.01 0.02,-0.02 0.03,-0.04 0,-0.01 0,-0.01 0,-0.01 -0.02,0 -0.04,0.01 -0.06,0.01l-0.01 -0.04c0.01,-0.01 0.02,-0.01 0.03,-0.03 0.01,-0.03 0.03,-0.06 0.04,-0.1l0.05 0.02c0,0.01 0,0.01 0,0.01 -0.03,0.04 -0.04,0.07 -0.06,0.09 0,0 0.01,0 0.02,0 0,0 0.01,0 0.01,0l0.02 -0.05 0.06 0.03c-0.03,0.04 -0.06,0.09 -0.09,0.13 0,0 0.01,-0.01 0.02,-0.01 0.02,0 0.03,0 0.04,0l-0.01 0.03c-0.04,0.01 -0.08,0.02 -0.11,0.03l-0.02 -0.05zm0 0.08c0.04,-0.01 0.09,-0.02 0.15,-0.03l0.01 0.03c-0.05,0.02 -0.09,0.03 -0.15,0.05l-0.01 -0.05zm0.23 -0.03l0 0.05 0.06 0 0 -0.05 -0.06 0zm-0.01 -0.19c0.01,0.02 0.03,0.03 0.04,0.04 0.01,-0.01 0.02,-0.03 0.03,-0.04l-0.06 0c0,0 0,0 0,0 -0.01,0 -0.01,0 -0.01,0z"/>
   <path id="2" class="fil0" d="M0.33 0.68l0.08 0 0 -0.06 0.05 0 0 0.06 0.04 0 0.01 -0.02 0.05 0.03 -0.02 0.03 -0.08 0 0 0.05 0.01 0 0.02 -0.02 0.06 0.04 -0.02 0.02c-0.01,0.04 -0.03,0.07 -0.05,0.1 0.02,0.01 0.05,0.02 0.09,0.03 -0.02,0.02 -0.03,0.04 -0.05,0.06 -0.03,-0.02 -0.06,-0.03 -0.08,-0.05 -0.04,0.02 -0.08,0.04 -0.12,0.05l-0.02 -0.02c0.04,-0.02 0.08,-0.04 0.11,-0.06 -0.03,-0.03 -0.04,-0.07 -0.05,-0.11l-0.02 0 0 -0.04 0.07 0 0 -0.05 -0.07 0 0.01 0 -0.01 0.03 -0.04 0 0 0.05c0.01,0 0.02,0 0.03,-0.01l0 0.03c-0.01,0.01 -0.02,0.01 -0.03,0.02l0 0.11c0,0.03 -0.02,0.05 -0.07,0.05 0,-0.02 -0.01,-0.03 -0.03,-0.03l0 -0.02c0.03,0 0.04,0 0.04,-0.02l0 -0.07c-0.01,0 -0.01,0.01 -0.03,0.01 0,0.01 -0.01,0.01 -0.01,0.01l-0.02 -0.05c0,-0.01 0.01,-0.01 0.02,-0.01 0.02,0 0.03,0 0.04,-0.01l0 -0.06 -0.05 0 0 -0.04 0.05 0 0 -0.09 0.06 0 0 0.09 0 0 0.01 -0.02 0.02 0.02 0 -0.03zm0.07 0.13c0.01,0.02 0.02,0.04 0.04,0.06 0.01,-0.02 0.02,-0.04 0.03,-0.06l-0.07 0z"/>
   <path id="3" class="fil0" d="M0.61 0.94c0.07,-0.05 0.11,-0.11 0.14,-0.18l-0.11 0 -0.01 -0.03 0.15 0 0 -0.11 0.06 0 0 0.11 0.08 0 0.02 -0.03 0.05 0.04 -0.01 0.02 -0.13 0c0.04,0.06 0.09,0.1 0.15,0.13 -0.02,0.02 -0.03,0.04 -0.05,0.07 -0.05,-0.04 -0.09,-0.09 -0.11,-0.14l0 0.18 -0.06 0 0 -0.16c-0.05,0.05 -0.09,0.09 -0.14,0.12l-0.03 -0.02zm0.26 -0.31c0.03,0.02 0.04,0.03 0.06,0.04 0.01,0 0.01,0.01 0,0.01 -0.01,0.02 -0.02,0.03 -0.03,0.04 -0.01,0 -0.01,0 -0.01,-0.01 -0.01,-0.02 -0.02,-0.04 -0.04,-0.06l0.02 -0.02z"/>
   <polygon class="fil1" points="1.2,0.59 1.14,0.55 1.08,0.5 1.08,0.59 1.08,0.68 1.14,0.64 "/>
  </g>
 </g>
</svg>
