<?xml version="1.0" encoding="UTF-8"?>
<!DOCTYPE svg PUBLIC "-//W3C//DTD SVG 1.1//EN" "http://www.w3.org/Graphics/SVG/1.1/DTD/svg11.dtd">
<!-- Creator: CorelDRAW 2017 -->
<svg xmlns="http://www.w3.org/2000/svg" xml:space="preserve" width="1567px" height="233px" version="1.1" style="shape-rendering:geometricPrecision; text-rendering:geometricPrecision; image-rendering:optimizeQuality; fill-rule:evenodd; clip-rule:evenodd"
viewBox="0 0 947.62 140.63"
 xmlns:xlink="http://www.w3.org/1999/xlink">
 <defs>
  <style type="text/css">
   <![CDATA[
    .str0 {stroke:aqua;stroke-width:1.43;stroke-linejoin:round;stroke-miterlimit:22.9256}
    .fil3 {fill:none;fill-rule:nonzero}
    .fil0 {fill:#FEFEFE;fill-rule:nonzero}
    .fil1 {fill:aqua;fill-rule:nonzero}
    .fil2 {fill:aqua;fill-rule:nonzero;fill-opacity:0.400000}
   ]]>
  </style>
 </defs>
 <g id="图层_x0020_1">
  <metadata id="CorelCorpID_0Corel-Layer"/>
  <path class="fil0" d="M8.86 128.99l0 -0.89 4.31 0c0.31,-0.75 0.55,-1.42 0.71,-2.01l1.06 0.12c-0.08,0.36 -0.24,0.85 -0.47,1.48 -0.08,0.19 -0.14,0.33 -0.18,0.41l6.97 0 0 0.89 -7.32 0c-0.08,0.16 -0.18,0.39 -0.3,0.71 -0.28,0.63 -0.47,1.11 -0.59,1.42l9.15 0 0 0.95 -9.5 0c-0.12,0.2 -0.26,0.49 -0.42,0.88 -0.23,0.51 -0.41,0.87 -0.53,1.06l8.74 0 0 1.07 -3.9 3.42 2.3 0.95 -0.59 0.88c-2.47,-1.18 -5.07,-2.36 -7.79,-3.54l0.53 -0.77c1.42,0.59 2.92,1.26 4.49,2.01l3.66 -3.07 -8.56 0 0 -0.95c0.08,-0.19 0.21,-0.49 0.41,-0.88 0.24,-0.47 0.41,-0.82 0.53,-1.06l-3.6 0 0 -0.95 3.96 0c0,-0.03 0.02,-0.07 0.06,-0.11 0.39,-0.87 0.67,-1.55 0.82,-2.02l-3.95 0z"/>
  <path id="1" class="fil0" d="M28.12 129.7l0 -0.95 4.67 0c-0.28,-0.83 -0.58,-1.61 -0.89,-2.36l0.94 -0.3c0.12,0.32 0.34,0.81 0.65,1.48 0.16,0.39 0.28,0.69 0.36,0.89l-0.95 0.29 4.79 0 0 0.95 -4.31 0 0 3.66 3.84 0 0 0.95 -3.84 0 0 4.25 4.78 0 0 0.89 -10.93 0 0 -0.89 5.14 0 0 -4.25 -3.84 0 0 -0.95 3.84 0 0 -3.66 -4.25 0zm-2.83 10.46l-1.01 -0.36c0.71,-1.81 1.3,-3.56 1.77,-5.26 0.16,0.08 0.42,0.2 0.77,0.36 0.08,0.04 0.14,0.06 0.18,0.06 -0.67,1.93 -1.24,3.66 -1.71,5.2zm1.71 -10.93c-0.16,-0.12 -0.37,-0.3 -0.65,-0.53 -0.79,-0.63 -1.4,-1.11 -1.83,-1.42l0.65 -0.77c0.23,0.2 0.61,0.47 1.12,0.83 0.63,0.47 1.1,0.85 1.42,1.12l-0.71 0.77zm-0.71 3.84c-0.08,-0.08 -0.22,-0.2 -0.41,-0.36 -0.83,-0.74 -1.5,-1.28 -2.01,-1.59l0.65 -0.71c0.12,0.08 0.29,0.2 0.53,0.35 0.83,0.63 1.48,1.15 1.95,1.54l-0.71 0.77z"/>
  <polygon id="2" class="fil0" points="45.44,139.03 44.67,139.74 41.66,136.38 42.42,135.73 "/>
  <path id="3" class="fil0" d="M61.92 140.21l0 -7.08 7.2 0 0 5.43c0.04,0.98 -0.49,1.49 -1.59,1.53 -0.16,0 -0.43,0 -0.83,0 -0.47,0.04 -0.8,0.06 -1,0.06 0,-0.04 0,-0.08 0,-0.12 -0.04,-0.24 -0.12,-0.51 -0.24,-0.82 0.44,0.03 1.03,0.05 1.77,0.05 0.71,0.04 1.05,-0.23 1.01,-0.82l0 -0.71 -5.44 0 0 2.48 -0.88 0zm-0.36 -11.93l0 -0.77 3.49 0 0 -1.36 0.88 0 0 1.36 3.9 0 0 0.77 -3.9 0 0 1.12 3.55 0 0 0.77 -3.55 0 0 1.12 4.14 0 0 0.77 -8.74 0 0 -0.77 3.72 0 0 -1.12 -3.13 0 0 -0.77 3.13 0 0 -1.12 -3.49 0zm-1.11 8.15c-0.11,-0.19 -0.31,-0.47 -0.59,-0.82 -0.43,-0.59 -0.74,-1.01 -0.94,-1.24l0 5.84 -0.89 0 0 -6.02c-0.47,1.58 -1.1,2.87 -1.89,3.9 -0.04,-0.16 -0.15,-0.43 -0.35,-0.83 -0.04,-0.04 -0.06,-0.08 -0.06,-0.12 1.02,-1.34 1.79,-2.93 2.3,-4.78l-2.12 0 0 -0.83 2.12 0 0 -5.25 0.89 0 0 5.25 1.95 0 0 0.83 -1.95 0 0 1.77 0.59 -0.41c0.28,0.35 0.73,0.94 1.36,1.77 0.16,0.2 0.27,0.33 0.35,0.41l-0.77 0.53zm2.35 -0.65l0 1.24 5.44 0 0 -1.24 -5.44 0zm0 -1.88l0 1.17 5.44 0 0 -1.17 -5.44 0zm-5.95 -3.25c-0.2,-0.71 -0.54,-1.66 -1.01,-2.84l0.71 -0.23c0.04,0.11 0.12,0.29 0.24,0.53 0.43,1.06 0.71,1.81 0.82,2.24l-0.76 0.3zm3.19 0l-0.72 -0.3c0.44,-0.94 0.81,-1.87 1.13,-2.77l0.71 0.23c-0.16,0.51 -0.54,1.46 -1.12,2.84z"/>
  <polygon id="4" class="fil0" points="72.86,128.22 72.86,127.22 84.85,127.22 84.85,128.22 79.42,128.22 79.42,132.6 86.03,132.6 86.03,133.6 79.42,133.6 79.42,140.28 78.35,140.28 78.35,133.6 71.74,133.6 71.74,132.6 78.35,132.6 78.35,128.22 "/>
  <polygon id="5" class="fil0" points="93.31,139.03 92.54,139.74 89.53,136.38 90.29,135.73 "/>
  <path id="6" class="fil0" d="M104.02 129.11l0 -0.95 6.55 0c-0.12,-0.51 -0.3,-1.1 -0.53,-1.77l1 -0.23c0.04,0.15 0.14,0.45 0.3,0.88 0.15,0.51 0.27,0.89 0.35,1.12l6.03 0 0 0.95 -7.27 0 0.41 0.17c-1.26,1.26 -2.61,2.5 -4.07,3.73 0.91,-0.04 2.44,-0.08 4.61,-0.12 1.53,-0.08 2.6,-0.12 3.19,-0.12 -0.67,-0.67 -1.34,-1.28 -2.01,-1.83l0.71 -0.59c0.98,0.78 2.32,1.99 4.01,3.6l-0.82 0.65 -1.01 -1 -2.6 0.06 0 4.31c-0.03,0.79 0.36,1.14 1.18,1.06l1.24 0c0.91,0 1.4,-0.29 1.48,-0.88 0.12,-0.71 0.18,-1.24 0.18,-1.6 0.16,0.08 0.39,0.18 0.71,0.3 0.15,0.04 0.25,0.08 0.29,0.12 -0.04,0.7 -0.14,1.24 -0.29,1.59 -0.12,0.99 -0.89,1.46 -2.31,1.42l-1.59 0c-1.3,0.04 -1.93,-0.54 -1.89,-1.71l0 -4.56 -2.42 0.06c-0.04,1.97 -0.4,3.35 -1.07,4.14 -0.58,0.83 -1.91,1.62 -3.95,2.36 -0.08,-0.08 -0.18,-0.21 -0.3,-0.41 -0.15,-0.2 -0.27,-0.35 -0.35,-0.47 1.89,-0.56 3.13,-1.21 3.72,-1.95 0.63,-0.71 0.94,-1.91 0.94,-3.61l-1.29 0.06c-0.75,0 -1.28,0.06 -1.6,0.18l-0.53 -1.01c0.55,-0.27 0.96,-0.54 1.24,-0.82 1.1,-0.87 2.18,-1.91 3.25,-3.13l-5.49 0z"/>
  <path id="7" class="fil0" d="M125.16 138.5c-0.08,-0.08 -0.2,-0.17 -0.35,-0.29 -0.16,-0.16 -0.28,-0.26 -0.36,-0.3 1.1,-1.1 1.72,-2.5 1.83,-4.19l-1.95 0 0 6.56 -0.88 0 0 -7.39 2.77 0c0.04,-0.43 0.06,-1 0.06,-1.71l-3.19 0 0 -0.83 10.64 0 0 0.83 -3.25 0c0,0.55 0,1.12 0,1.71l2.77 0 0 5.67c0.04,1.03 -0.47,1.54 -1.53,1.54 -0.12,0 -0.36,0 -0.71,0 -0.43,0.04 -0.73,0.06 -0.89,0.06 0,-0.12 -0.04,-0.34 -0.12,-0.65 -0.03,-0.12 -0.05,-0.22 -0.05,-0.3 0.15,0 0.41,0.02 0.76,0.06 0.36,0 0.59,0 0.71,0 0.59,0 0.89,-0.25 0.89,-0.77l0 -4.78 -1.95 0c0,0.51 -0.06,0.99 -0.18,1.42 0.4,0.35 0.89,0.84 1.48,1.47 0.27,0.28 0.47,0.48 0.59,0.59l-0.65 0.65c-0.51,-0.63 -1.04,-1.24 -1.6,-1.83 -0.31,0.99 -0.88,1.89 -1.71,2.72 -0.08,-0.12 -0.23,-0.24 -0.47,-0.35 -0.08,-0.04 -0.14,-0.08 -0.18,-0.12 1.18,-1.22 1.81,-2.74 1.89,-4.55l-2.42 0c0,0.12 -0.02,0.29 -0.06,0.53 0,0.24 -0.02,0.41 -0.06,0.53 0.55,0.56 1.07,1.07 1.54,1.54l-0.59 0.65c-0.04,-0.04 -0.08,-0.1 -0.12,-0.18 -0.32,-0.35 -0.67,-0.73 -1.06,-1.12 -0.28,1.02 -0.81,1.97 -1.6,2.83zm-2.07 -9.92l0 -0.83 2.78 0 0 -1.59 0.94 0 0 1.59 3.2 0 0 -1.59 0.95 0 0 1.59 2.77 0 0 0.83 -2.77 0 0 1.18 -0.95 0 0 -1.18 -3.2 0 0 1.18 -0.94 0 0 -1.18 -2.78 0zm-2.3 11.58l-1 -0.3c0.39,-1.3 0.86,-3.13 1.41,-5.49 0.32,0.15 0.63,0.27 0.95,0.35 -0.2,0.71 -0.49,1.91 -0.89,3.6 -0.23,0.83 -0.39,1.44 -0.47,1.84zm6.38 -8.98c0,0.67 -0.02,1.24 -0.06,1.71l2.48 0c0,-0.63 0,-1.2 0,-1.71l-2.42 0zm-5.2 -2.13c-0.71,-0.79 -1.39,-1.47 -2.07,-2.07l0.72 -0.59c0.27,0.28 0.74,0.71 1.41,1.3 0.32,0.28 0.55,0.5 0.71,0.65l-0.77 0.71zm-0.29 3.9c-0.16,-0.16 -0.4,-0.37 -0.71,-0.65 -0.67,-0.63 -1.14,-1.06 -1.42,-1.3l0.65 -0.59c0.28,0.2 0.65,0.49 1.12,0.89 0.51,0.39 0.89,0.7 1.12,0.94l-0.76 0.71z"/>
  <path id="8" class="fil0" d="M140.23 128.22c0,-0.08 -0.02,-0.17 -0.06,-0.29 -0.03,-0.28 -0.08,-0.48 -0.11,-0.6 2.67,-0.03 5.67,-0.19 8.97,-0.47l0.18 0.95c-0.43,0 -1.08,0.04 -1.95,0.12 -0.94,0.03 -1.65,0.07 -2.13,0.12l0 2.65 4.73 0 0 0.89 -4.73 0 0 2.66 3.66 0 0 6.03 -1 0 0 -0.89 -6.31 0 0 0.89 -1.01 0 0 -6.03 3.66 0 0 -2.66 -4.6 0 0 -0.89 4.6 0 0 -2.6c-0.43,0 -1.08,0.02 -1.95,0.06 -0.86,0 -1.51,0.02 -1.95,0.06zm1.25 6.92l0 3.42 6.31 0 0 -3.42 -6.31 0zm-4.55 5.02l-1.07 -0.42c0.63,-1.42 1.26,-3.19 1.89,-5.31 0.12,0.04 0.28,0.09 0.48,0.17 0.23,0.12 0.39,0.2 0.47,0.24 -0.16,0.51 -0.42,1.3 -0.77,2.36 -0.43,1.26 -0.77,2.25 -1,2.96zm1 -7.21c-0.87,-0.75 -1.67,-1.42 -2.42,-2.01l0.65 -0.71c0.27,0.2 0.69,0.51 1.24,0.95 0.55,0.39 0.96,0.71 1.24,0.94l-0.71 0.83zm0.41 -3.84c-0.9,-0.87 -1.67,-1.53 -2.3,-2.01l0.65 -0.71c0.04,0.04 0.12,0.1 0.24,0.18 0.94,0.75 1.65,1.34 2.12,1.77l-0.71 0.77z"/>
  <path id="9" class="fil0" d="M152.41 140.16c-0.08,-0.08 -0.22,-0.24 -0.41,-0.47 -0.16,-0.2 -0.26,-0.32 -0.3,-0.36 3.43,-1.85 5.16,-4.68 5.2,-8.5 0,-0.12 0,-0.24 0,-0.36l-4.79 0 0 -1 4.85 0c0.08,-1.42 0.12,-2.5 0.12,-3.25l1.06 0c0,0.71 -0.04,1.64 -0.12,2.78 0,0.19 0,0.35 0,0.47l6.67 0c-0.08,2.8 -0.17,5.22 -0.29,7.27 0,2.08 -0.97,3.09 -2.9,3.01 -1.14,0.04 -2,0.06 -2.59,0.06 -0.04,-0.24 -0.08,-0.54 -0.12,-0.89 0,0.12 -0.02,0.04 -0.06,-0.24 0.67,0.04 1.53,0.06 2.6,0.06 1.34,0.12 2.02,-0.67 2.06,-2.36 0,-0.24 0.02,-0.65 0.06,-1.24 0.08,-2.17 0.12,-3.72 0.12,-4.67l-5.61 0 0 0.12c-0.08,4.45 -1.93,7.64 -5.55,9.57z"/>
  <path id="10" class="fil0" d="M168.07 140.1l0 -11.52 1.53 0c0.32,-0.9 0.54,-1.69 0.65,-2.36l1.07 0.18c-0.08,0.31 -0.26,0.87 -0.53,1.65 -0.08,0.24 -0.14,0.42 -0.18,0.53l2.9 0 0 11.4 -0.95 0 0 -1.18 -3.54 0 0 1.3 -0.95 0zm7.91 -0.12c-0.04,-0.35 -0.11,-0.69 -0.23,-1 0.75,0 1.55,0 2.42,0 1.18,0.08 1.77,-0.45 1.77,-1.6 0.08,-0.9 0.14,-2.91 0.18,-6.02 0.04,-0.91 0.06,-1.54 0.06,-1.89l-4.08 0c-0.39,0.95 -0.8,1.75 -1.24,2.42 -0.23,-0.19 -0.51,-0.35 -0.82,-0.47 0.9,-1.54 1.65,-3.27 2.24,-5.2l1 0.18c-0.08,0.24 -0.21,0.59 -0.41,1.06 -0.16,0.51 -0.3,0.89 -0.41,1.12l4.72 0c0,0.28 0,0.71 0,1.3 -0.08,3.39 -0.16,5.93 -0.23,7.62 -0.04,1.62 -0.89,2.44 -2.54,2.48 -0.79,0 -1.6,0 -2.43,0zm-6.96 -5.79l0 3.84 3.54 0 0 -3.84 -3.54 0zm0 -4.72l0 3.77 3.54 0 0 -3.77 -3.54 0zm8.56 6.31c-0.87,-1.26 -1.64,-2.32 -2.3,-3.18l0.76 -0.54c0.08,0.12 0.2,0.28 0.36,0.48 0.86,1.06 1.53,1.95 2.01,2.65l-0.83 0.59z"/>
  <path id="11" class="fil0" d="M187.28 140.27c-0.2,-0.39 -0.4,-0.69 -0.59,-0.89 2.12,-0.55 3.75,-1.18 4.9,-1.89 -1.06,-0.94 -1.97,-2.26 -2.72,-3.95l-0.65 0 0 -0.89 8.09 0 0 1.01c-0.98,1.73 -2,3.03 -3.07,3.9 0.95,0.62 2.42,1.15 4.43,1.59 -0.12,0.12 -0.26,0.35 -0.41,0.71 -0.08,0.11 -0.14,0.19 -0.18,0.23 -1.93,-0.55 -3.49,-1.2 -4.66,-1.95 -1.38,0.83 -3.1,1.54 -5.14,2.13zm0.94 -8.27c-0.12,-0.16 -0.36,-0.41 -0.71,-0.77 1.53,-0.55 2.22,-1.55 2.07,-3.01l0 -1.36 5.9 0 0 2.72c-0.04,0.6 0.25,0.87 0.88,0.83l1.36 0 -0.12 0.95 -1.53 0c-1.06,0.04 -1.58,-0.43 -1.54,-1.42l0 -2.19 -4.01 0 0 0.53c0.16,1.73 -0.61,2.97 -2.3,3.72zm-2.72 7.15l-0.71 -0.58c0.24,-0.28 0.33,-0.61 0.3,-1.01l0 -5.61 -1.66 0 0 -0.89 2.6 0 0 6.15c0.63,-0.63 1.18,-1.24 1.65,-1.83 0,0.04 0.02,0.07 0.06,0.11 0.12,0.32 0.26,0.59 0.41,0.83 -0.58,0.59 -1.28,1.32 -2.06,2.18 -0.24,0.16 -0.43,0.38 -0.59,0.65zm4.38 -5.61c0.7,1.46 1.55,2.6 2.54,3.42 1.02,-0.82 1.96,-1.96 2.83,-3.42l-5.37 0zm-3.25 -4.02c-0.95,-1.1 -1.68,-1.91 -2.19,-2.42l0.83 -0.59c0.16,0.16 0.41,0.44 0.77,0.83 0.67,0.71 1.14,1.22 1.41,1.53l-0.82 0.65z"/>
  <path id="12" class="fil0" d="M204.11 132.11l0 -0.94 4.26 0 0 -5.02 1 0 0 5.02 4.31 0 0 0.94 -4.31 0 0 8.16 -1 0 0 -8.16 -4.26 0zm-2.48 7.93l-0.71 -0.82c0.32,-0.36 0.48,-0.75 0.48,-1.18l0 -5.97 -2.01 0 0 -0.95 3.01 0 0 7.09c0.95,-0.63 1.81,-1.24 2.6,-1.83 0.04,0.08 0.08,0.2 0.12,0.36 0.12,0.35 0.19,0.59 0.23,0.7 -0.11,0.08 -0.29,0.2 -0.53,0.36 -1.02,0.63 -1.85,1.16 -2.48,1.59 -0.16,0.08 -0.33,0.24 -0.53,0.48 -0.08,0.07 -0.14,0.13 -0.18,0.17zm1.31 -10.63c-0.79,-0.91 -1.58,-1.72 -2.36,-2.43l0.76 -0.59c0.59,0.48 1.4,1.24 2.42,2.31l-0.82 0.71z"/>
  <path id="13" class="fil0" d="M215.71 131.65l0 -0.83 6.32 0 0 -0.89 0.95 0 0 0.89 6.32 0 0 0.83 -6.32 0 0 1.42 5.18 0 0 2.19c0.04,0.94 -0.43,1.4 -1.41,1.36 -0.2,0.04 -0.61,0.06 -1.24,0.06 0,-0.28 -0.06,-0.55 -0.18,-0.83 0.39,0 0.77,0 1.12,0 0.55,0.04 0.81,-0.2 0.77,-0.71l0 -1.24 -4.24 0 0 1.12c1.69,1.97 3.91,3.23 6.67,3.78 -0.04,0.04 -0.08,0.1 -0.12,0.18 -0.19,0.35 -0.33,0.61 -0.41,0.77 -2.76,-0.87 -4.8,-2.11 -6.14,-3.72l0 4.25 -0.95 0 0 -4.19c-1.42,1.65 -3.46,2.93 -6.14,3.84 -0.12,-0.24 -0.29,-0.56 -0.53,-0.95 2.76,-0.75 4.98,-2.09 6.67,-4.02l0 -1.06 -4.25 0 0 2.72 -0.95 0 0 -3.55 5.2 0 0 -1.42 -6.32 0zm0.29 -1.48c-0.08,-0.08 -0.22,-0.2 -0.41,-0.36 -0.16,-0.15 -0.26,-0.25 -0.3,-0.29 1.18,-0.91 2.17,-2.07 2.96,-3.49l0.94 0.12c-0.24,0.47 -0.49,0.91 -0.77,1.3l4.2 0 0 0.83 -4.73 0c-0.55,0.67 -1.18,1.3 -1.89,1.89zm7.21 -0.47c-0.36,-0.24 -0.63,-0.42 -0.83,-0.54 0.87,-0.78 1.57,-1.83 2.13,-3.13l0.94 0.18c-0.08,0.24 -0.24,0.55 -0.47,0.95 -0.04,0.15 -0.08,0.25 -0.12,0.29l4.61 0 0 0.83 -5.14 0c-0.32,0.47 -0.69,0.94 -1.12,1.42zm3.24 0.77c-0.15,-0.2 -0.43,-0.51 -0.82,-0.95 -0.2,-0.19 -0.34,-0.35 -0.42,-0.47l0.65 -0.47c0.44,0.43 0.87,0.87 1.3,1.3l-0.71 0.59zm-6.67 -0.06c-0.12,-0.12 -0.31,-0.31 -0.59,-0.59 -0.28,-0.32 -0.49,-0.55 -0.65,-0.71l0.71 -0.53 1.24 1.3 -0.71 0.53z"/>
  <path id="14" class="fil0" d="M231.6 131.77l-0.12 -0.95 2.31 -0.35c-0.04,-0.59 -0.08,-1.56 -0.12,-2.89 -0.04,-0.63 -0.06,-1.11 -0.06,-1.42l1.01 0c0,1.57 0.03,2.97 0.11,4.19l4.79 -0.83 0.12 0.89 -4.85 0.83c0.12,1.81 0.32,3.17 0.59,4.07 0.95,-0.82 1.89,-1.95 2.84,-3.36l0.82 0.47c-1.02,1.61 -2.14,2.93 -3.36,3.96 0.27,0.78 0.67,1.51 1.18,2.18 0.35,0.39 0.73,0.59 1.12,0.59 0.32,0 0.53,-0.22 0.65,-0.65 0.2,-0.67 0.36,-1.36 0.47,-2.07 0.04,0 0.1,0.04 0.18,0.12 0.12,0.04 0.36,0.14 0.71,0.3 -0.16,0.94 -0.33,1.61 -0.53,2.01 -0.28,0.82 -0.75,1.25 -1.42,1.3 -0.79,0.03 -1.44,-0.34 -1.95,-1.13 -0.51,-0.55 -0.92,-1.24 -1.24,-2.06 -0.86,0.7 -1.89,1.3 -3.07,1.77 -0.04,-0.08 -0.14,-0.2 -0.3,-0.36 -0.11,-0.15 -0.21,-0.27 -0.29,-0.35 1.26,-0.59 2.38,-1.26 3.37,-2.01 -0.36,-1.18 -0.59,-2.74 -0.71,-4.66l-2.25 0.41zm9.45 8.32c-0.04,-0.35 -0.12,-0.7 -0.24,-1.06 0.59,0.04 1.16,0.06 1.71,0.06 0.87,0.04 1.28,-0.31 1.25,-1.06l0 -11.75 0.94 0 0 11.99c0.04,1.18 -0.55,1.77 -1.77,1.77 -0.36,0.04 -0.99,0.05 -1.89,0.05zm-0.41 -3.66l0 -8.74 0.94 0 0 8.74 -0.94 0zm-2.89 -7.38c-0.48,-0.43 -1.17,-0.98 -2.07,-1.65l0.65 -0.65c0.86,0.63 1.55,1.16 2.07,1.59l-0.65 0.71z"/>
  <path id="15" class="fil0" d="M248.1 140.28l0 -13.42 12.63 0 0 13.41 -1 0 0 -0.7 -10.69 0 0 0.71 -0.94 0zm0.94 -12.53l0 10.93 10.69 0 0 -10.93 -10.69 0zm1 3.61l0 -0.89 5.62 0 0 -2 0.94 0 0 2 2.36 0 0 0.89 -2.36 0 0 4.67c0.04,1.14 -0.57,1.73 -1.83,1.77 -0.63,0 -1.18,0 -1.65,0 -0.04,-0.28 -0.12,-0.59 -0.24,-0.95 0.63,0.04 1.18,0.06 1.65,0.06 0.79,0.04 1.16,-0.29 1.13,-1l0 -4.31c-1.03,1.89 -2.82,3.64 -5.38,5.25 -0.19,-0.31 -0.41,-0.61 -0.65,-0.88 2.32,-1.22 4.08,-2.76 5.26,-4.61l-4.85 0z"/>
  <path id="16" class="fil0" d="M263.93 140.27l0 -13.29 4.61 0 0 0.95 -1.42 3.83c0.99,1.15 1.48,2.35 1.48,3.61 0.04,1.14 -0.47,1.79 -1.54,1.95 -0.43,0.08 -0.9,0.11 -1.42,0.11 -0.03,-0.23 -0.09,-0.55 -0.17,-0.94 -0.04,-0.04 -0.06,-0.08 -0.06,-0.12 0.31,0.04 0.73,0.06 1.24,0.06 0.71,-0.04 1.04,-0.43 1,-1.18 0.04,-1.02 -0.45,-2.15 -1.47,-3.37l1.41 -4.07 -2.71 0 0 12.46 -0.95 0zm4.02 -0.06c-0.04,-0.03 -0.1,-0.1 -0.18,-0.17 -0.24,-0.28 -0.45,-0.49 -0.65,-0.65 2.95,-2.05 4.47,-5.24 4.55,-9.57 0.08,-0.83 0.12,-1.99 0.12,-3.49l1 0c0,0.2 0,0.6 0,1.19 -0.04,0.86 -0.06,1.51 -0.06,1.95 0.4,4.6 2.01,7.81 4.84,9.62 -0.08,0.08 -0.19,0.22 -0.35,0.42 -0.16,0.19 -0.3,0.35 -0.41,0.47 -2.56,-1.85 -4.06,-4.53 -4.49,-8.03 -0.32,3.46 -1.78,6.22 -4.37,8.26z"/>
  <path id="17" class="fil0" d="M282.01 140.63l-0.47 -0.42c0.91,-0.66 1.34,-1.45 1.3,-2.36l-0.88 0 0 -1.71 1.59 0c0,0.24 0,0.73 0,1.48 0.04,1.3 -0.47,2.3 -1.54,3.01z"/>
  <path id="18" class="fil0" d="M299.81 133.72l0 -4.79 8.91 0 0 4.79 -8.91 0zm0.46 4.54l0 -3.66 7.92 0 0 3.66 -7.92 0zm0.36 -8.68l0 3.55 7.2 0 0 -3.55 -7.2 0zm-5.38 0.36l0 -0.89 1.59 0 0 -2.83 0.89 0 0 2.83 1.3 0 0 0.89 -1.3 0 0 3.37 1.42 -0.42c0,0.44 0.02,0.73 0.06,0.89 -0.12,0.04 -0.34,0.1 -0.65,0.18 -0.36,0.11 -0.63,0.19 -0.83,0.23l0 4.31c0.04,1.07 -0.45,1.58 -1.48,1.54 -0.23,0.04 -0.53,0.06 -0.88,0.06 0,-0.08 -0.02,-0.24 -0.06,-0.47 -0.04,-0.2 -0.08,-0.36 -0.12,-0.48 0.2,0 0.49,0 0.89,0 0.55,0.04 0.8,-0.21 0.76,-0.77l0 -3.89 -1.65 0.47 -0.12 -0.95c0.2,-0.07 0.49,-0.15 0.89,-0.23 0.39,-0.12 0.69,-0.2 0.88,-0.24l0 -3.6 -1.59 0zm6.57 2.36l0 -1.95 4.89 0 0 1.95 -4.89 0zm-2.61 -4.19l0 -0.65 4.67 0c-0.04,-0.19 -0.1,-0.53 -0.18,-1 -0.04,-0.12 -0.06,-0.2 -0.06,-0.24l0.95 -0.11c0.04,0.11 0.07,0.31 0.11,0.58 0.04,0.16 0.1,0.42 0.18,0.77l4.43 0 0 0.65 -10.1 0zm-0.35 11.63l0 -0.71 10.51 0 0 0.71 -10.51 0zm2.3 -4.49l0 0.89 6.14 0 0 -0.89 -6.14 0zm0 1.48l0 0.94 6.14 0 0 -0.94 -6.14 0zm1.42 -5.85l0 0.89 3.3 0 0 -0.89 -3.3 0z"/>
  <path id="19" class="fil0" d="M324.55 139.69c-3.38,-1.26 -5.67,-3.41 -6.85,-6.44l-2.89 0 0 5.43c0.51,-0.15 1.3,-0.49 2.36,-1 0.51,-0.24 0.91,-0.41 1.18,-0.53 0,0.47 0.02,0.84 0.06,1.12 -1.22,0.39 -2.32,0.85 -3.31,1.36 -0.39,0.15 -0.76,0.35 -1.12,0.59l-0.65 -0.89c0.28,-0.27 0.42,-0.63 0.42,-1.06l0 -5.02 -2.54 0 0 -0.95 2.54 0 0 -6.14 1.06 0 0 6.14 10.34 0 0 0.95 -6.44 0c1.14,2.68 3.32,4.49 6.55,5.43 -0.23,0.32 -0.47,0.65 -0.71,1.01zm-8.02 -8.57c-0.04,-0.12 -0.16,-0.32 -0.36,-0.59 -0.08,-0.12 -0.14,-0.22 -0.18,-0.3 2.56,-0.9 4.99,-2.02 7.27,-3.36l0.59 0.76c-2.01,1.22 -4.45,2.39 -7.32,3.49z"/>
  <path id="20" class="fil0" d="M327.94 140.33c-0.12,-0.08 -0.26,-0.17 -0.42,-0.29 -0.23,-0.16 -0.41,-0.28 -0.53,-0.36 0.71,-1.02 1.16,-2 1.36,-2.95 0.24,-0.91 0.36,-2.34 0.36,-4.31l0 -5.44 11.75 0 0 11.34c0.08,1.19 -0.55,1.77 -1.89,1.77 -0.51,0.05 -1.1,0.07 -1.77,0.07 0,-0.16 -0.04,-0.4 -0.12,-0.71 -0.04,-0.16 -0.06,-0.28 -0.06,-0.36 0.51,0.04 1.08,0.06 1.71,0.06 0.75,0 1.12,-0.32 1.12,-0.94l0 -2.66 -4.48 0 0 4.49 -1 0 0 -4.49 -4.38 0c-0.08,1.57 -0.63,3.17 -1.65,4.78zm11.51 -12.4l-4.48 0 0 2.89 4.48 0 0 -2.89zm-4.48 3.84l0 2.89 4.48 0 0 -2.89 -4.48 0zm-5.26 0.71c0,0.27 -0.02,0.69 -0.06,1.24 0,0.43 0,0.75 0,0.94l4.32 0 0 -2.89 -4.26 0 0 0.71zm0 -4.55l0 2.89 4.26 0 0 -2.89 -4.26 0z"/>
  <path id="21" class="fil0" d="M347.5 133.66l0 -0.95 6.32 0 0 -1.65 0.94 0 0 1.65 2.48 0 0 0.95 -2.48 0 0 4.61c0.04,1.17 -0.59,1.79 -1.89,1.82 -0.2,0 -0.51,0.02 -0.94,0.07 -0.4,0 -0.67,0 -0.83,0 0,-0.05 -0.02,-0.1 -0.06,-0.18 0,-0.16 -0.06,-0.45 -0.18,-0.89 0.4,0.04 0.97,0.06 1.71,0.06 0.83,0 1.25,-0.34 1.25,-1l0 -4.49 -6.32 0zm-4.02 2.6c-0.12,-0.32 -0.28,-0.61 -0.47,-0.89 1.45,-1.3 2.66,-2.89 3.6,-4.78l0.88 0.41c-0.39,0.75 -0.8,1.46 -1.24,2.13l0 7.14 -1 0 0 -5.84c-0.59,0.74 -1.18,1.35 -1.77,1.83zm7.03 -5.09c-0.04,-0.04 -0.08,-0.08 -0.12,-0.11 -0.16,-0.12 -0.39,-0.28 -0.71,-0.48 1.1,-1.3 1.95,-2.79 2.54,-4.49l1 0.12c-0.15,0.47 -0.33,0.93 -0.53,1.36l4.55 0 0 0.83 -4.96 0c-0.47,0.9 -1.06,1.83 -1.77,2.77zm-6.79 -0.06c-0.2,-0.23 -0.42,-0.47 -0.65,-0.7 1.18,-1.22 2.08,-2.66 2.71,-4.32l1.01 0.12c-0.16,0.44 -0.36,0.89 -0.59,1.36l4.19 0 0 0.83 -4.67 0c-0.51,0.94 -1.18,1.85 -2,2.71zm6.49 6.33c-0.67,-1.06 -1.28,-1.87 -1.83,-2.42l0.77 -0.53c0.79,0.9 1.42,1.69 1.89,2.36l-0.83 0.59zm4.37 -6.73c0,0 -0.02,-0.02 -0.06,-0.06 -0.55,-0.63 -1,-1.11 -1.36,-1.42l0.65 -0.59c0.12,0.12 0.28,0.27 0.48,0.47 0.19,0.16 0.53,0.49 1,1l-0.71 0.6zm-6.55 0c-0.47,-0.56 -0.93,-1.05 -1.36,-1.48l0.71 -0.53c0.47,0.43 0.92,0.92 1.36,1.47l-0.71 0.54z"/>
  <path id="22" class="fil0" d="M361.15 130.94l0 -4.14 9.86 0 0 4.14 -9.86 0zm-2.19 2.47l0 -0.94 14.3 0 0 0.94 -10.16 0 -0.59 1.72 8.74 0c-0.04,0.55 -0.1,1.24 -0.18,2.07 -0.04,0.31 -0.06,0.55 -0.06,0.71 -0.12,1.38 -1.12,2.06 -3.01,2.06 -0.95,0.04 -1.99,0.06 -3.13,0.06 0,-0.04 -0.02,-0.11 -0.06,-0.23 0,-0.16 -0.06,-0.46 -0.18,-0.89 0.67,0.04 1.74,0.06 3.19,0.06 1.42,0.08 2.13,-0.33 2.13,-1.24 0.12,-0.47 0.18,-1.04 0.18,-1.71l-8.98 0 0.89 -2.61 -3.08 0zm3.19 -5.72l0 2.36 7.86 0 0 -2.36 -7.86 0z"/>
  <path id="23" class="fil0" d="M380.77 132.42l0 -0.89 6.67 0 0 0.89 -2.83 0 0 2.59 3.54 0 0 0.89 -3.54 0 0 2.66 4.37 0 0 0.89 -9.8 0 0 -0.89 4.43 0 0 -2.66 -3.55 0 0 -0.89 3.55 0 0 -2.59 -2.84 0zm7.79 -0.59c-1.92,-1.22 -3.4,-2.68 -4.43,-4.37 -1.06,1.65 -2.55,3.17 -4.48,4.54 -0.16,-0.27 -0.4,-0.57 -0.71,-0.88 2.36,-1.46 4.01,-3.15 4.96,-5.08l1 0.12 -0.24 0.47c1.07,1.81 2.59,3.25 4.55,4.31 -0.04,0.04 -0.1,0.12 -0.17,0.24 -0.24,0.27 -0.4,0.49 -0.48,0.65zm-11.69 7.5l-0.71 -0.77c0.32,-0.19 0.48,-0.63 0.48,-1.3l0 -5.37 -1.77 0 0 -0.95 2.77 0 0 6.74c0.12,-0.08 0.29,-0.2 0.53,-0.36 0.63,-0.43 1.1,-0.75 1.42,-0.94 0,0.39 0.04,0.75 0.12,1.06 -1.03,0.67 -1.97,1.3 -2.84,1.89zm1 -9.86c-0.23,-0.32 -0.7,-0.89 -1.41,-1.72 -0.32,-0.35 -0.53,-0.61 -0.65,-0.77l0.76 -0.59c0.2,0.24 0.56,0.65 1.07,1.24 0.51,0.59 0.86,1.01 1.06,1.24l-0.83 0.6z"/>
  <path id="24" class="fil0" d="M404.76 132.71c-1.58,-0.39 -2.84,-0.85 -3.78,-1.36 -0.99,0.59 -2.25,1.08 -3.78,1.48 -0.12,-0.32 -0.26,-0.61 -0.42,-0.89 1.38,-0.35 2.5,-0.75 3.37,-1.18 -0.91,-0.71 -1.67,-1.71 -2.3,-3.01l-0.65 0 0 -0.83 7.14 0 0 0.89c-0.7,1.26 -1.53,2.24 -2.48,2.95 0.83,0.39 1.91,0.75 3.25,1.06 -0.04,0.16 -0.12,0.36 -0.23,0.59 -0.05,0.12 -0.08,0.22 -0.12,0.3zm-13.59 -4.79l-0.12 -0.88c1.78,-0.04 3.53,-0.12 5.26,-0.24l0.12 0.77c-0.32,0.04 -0.79,0.08 -1.42,0.12 -0.31,0.04 -0.55,0.06 -0.71,0.06l0 4.13 2.07 0 0 0.83 -2.07 0 0 1.65 0.47 -0.41c0.91,0.9 1.52,1.53 1.84,1.89l-0.66 0.59c-0.11,-0.12 -0.31,-0.32 -0.58,-0.59 -0.52,-0.56 -0.87,-0.97 -1.07,-1.24l0 5.67 -0.88 0 0 -5.85c-0.56,1.42 -1.3,2.68 -2.25,3.78 -0.04,-0.08 -0.1,-0.2 -0.18,-0.36 -0.07,-0.23 -0.17,-0.43 -0.29,-0.58 1.14,-1.23 2.03,-2.74 2.66,-4.55l-2.31 0 0 -0.83 2.37 0 0 -4.07c-0.04,0 -0.1,0 -0.18,0 -0.63,0.07 -1.32,0.11 -2.07,0.11zm5.97 7.04l0 -0.89 3.31 0 0 -1.47 0.94 0 0 1.47 3.19 0 0 0.89 -3.19 0 0 1.94 3.84 0 0 0.83 -3.84 0 0 2.54 -0.94 0 0 -2.54 -3.96 0 0 -0.83 3.96 0 0 -1.94 -3.31 0zm6.26 -7.21l-4.67 0c0.71,1.14 1.46,1.97 2.25,2.48 0.78,-0.47 1.59,-1.3 2.42,-2.48zm-7.92 3.55l-0.7 -0.36c0.43,-0.71 0.78,-1.46 1.06,-2.24l0.77 0.23c-0.28,0.75 -0.65,1.54 -1.13,2.37zm-3.42 -0.06c-0.39,-0.95 -0.73,-1.7 -1.01,-2.25l0.71 -0.29c0.04,0.12 0.1,0.27 0.18,0.47 0.39,0.75 0.67,1.36 0.83,1.83l-0.71 0.24z"/>
  <path id="25" class="fil0" d="M409.02 131.95l0 -5.15 9.92 0 0 5.15 -9.92 0zm5.96 8.32l0 -6.5 5.38 0 0 6.5 -0.95 0 0 -0.94 -3.48 0 0 0.94 -0.95 0zm-7.43 0l0 -6.5 5.37 0 0 6.5 -0.94 0 0 -0.94 -3.49 0 0 0.94 -0.94 0zm2.47 -12.58l0 3.31 7.92 0 0 -3.31 -7.92 0zm5.91 6.97l0 3.9 3.48 0 0 -3.9 -3.48 0zm-7.44 0l0 3.9 3.49 0 0 -3.9 -3.49 0z"/>
  <path id="26" class="fil0" d="M428.82 134.37l0 -6.74 2.6 0c0.04,-0.19 0.1,-0.45 0.17,-0.77 0.08,-0.35 0.14,-0.61 0.18,-0.76l0.94 0.11c-0.11,0.48 -0.25,0.95 -0.41,1.42l3.95 0 0 6.74 -4.01 0c-0.51,0.83 -1.36,1.6 -2.54,2.3l3.19 0 0 -1.65 0.95 0 0 1.65 3.24 0 0 0.83 -3.24 0 0 2.78 -0.95 0 0 -2.78 -4.89 0 0 -0.83 1.59 0c-0.04,-0.07 -0.1,-0.16 -0.18,-0.23 -0.15,-0.2 -0.27,-0.34 -0.35,-0.42 0.98,-0.51 1.71,-1.06 2.18,-1.65l-2.42 0zm-5.32 5.84c-0.31,-0.24 -0.59,-0.41 -0.82,-0.53 0.39,-0.83 0.65,-1.65 0.76,-2.48 0.12,-0.79 0.18,-1.99 0.18,-3.6l0 -6.84 0.95 0 0 4.36 1.71 0 0 -4.72 0.89 0 0 4.72 0.94 0 0 0.83 -3.54 0 0 1.65 0 0.29 2.7 0 0 6.2 -0.88 0 0 -5.37 -1.89 0c0.04,2.12 -0.29,3.95 -1,5.49zm11.87 -6.67l0 -2.18 -2.42 0c0,0.83 -0.12,1.55 -0.36,2.18l2.78 0zm-5.66 -5.08l0 2.14 2.41 0 0 -2.14 -2.41 0zm5.66 0l-2.43 0 0 2.14 2.43 0 0 -2.14zm-3.65 5.08c0.23,-0.59 0.37,-1.31 0.41,-2.18l-2.42 0 0 2.18 2.01 0z"/>
  <path id="27" class="fil0" d="M440.81 137.79c0.12,-1.3 0.83,-2.01 2.13,-2.12 1.26,0.11 1.95,0.82 2.07,2.12 -0.12,1.18 -0.81,1.83 -2.07,1.95 -1.3,-0.12 -2.01,-0.77 -2.13,-1.95zm0.65 0c0.08,0.79 0.58,1.22 1.48,1.3 0.87,-0.08 1.34,-0.51 1.42,-1.3 -0.08,-0.9 -0.55,-1.39 -1.42,-1.47 -0.9,0.08 -1.4,0.57 -1.48,1.47z"/>
  <path class="fil1" d="M525.32 128.24c0,-0.6 0.16,-1.07 0.48,-1.4 0.33,-0.34 0.78,-0.51 1.37,-0.51l2.55 0c0.6,0 1.06,0.17 1.39,0.51 0.33,0.33 0.5,0.8 0.5,1.41l0 0.34 -2.32 1.21 0 -1.25 -1.68 0 0 3.53 4 -2.06 0 8.39c0,0.6 -0.17,1.08 -0.49,1.41 -0.33,0.34 -0.8,0.5 -1.4,0.5l-2.55 0c-0.59,0 -1.04,-0.16 -1.37,-0.5 -0.32,-0.33 -0.48,-0.81 -0.48,-1.42l0 -1.31 2.29 -1.19 0 2.21 1.68 0 0 -4.4 -3.97 2.08 0 -7.55z"/>
  <polygon id="1" class="fil1" points="945.31,138.05 947.59,138.05 947.59,140.32 945.31,140.32 "/>
  <path id="2" class="fil1" d="M550.54 140.32l-2.26 0 0 -11.75 -1.69 0 0 11.75 -2.3 0 0 -12.08c0,-0.6 0.16,-1.07 0.49,-1.4 0.32,-0.34 0.78,-0.51 1.36,-0.51l1.94 0c0.42,0 0.75,0.12 0.98,0.36 0.23,0.24 0.35,0.57 0.35,1 0,-0.44 0.12,-0.77 0.35,-1.01 0.23,-0.23 0.55,-0.35 0.96,-0.35l1.94 0c0.58,0 1.04,0.17 1.37,0.51 0.34,0.33 0.5,0.8 0.5,1.4l0 12.08 -2.32 0 0 -11.75 -1.67 0 0 11.75z"/>
  <path id="3" class="fil1" d="M571.2 131.94l0 -3.39 -1.69 0 0 4.21 1.69 -0.82zm2.3 8.38l-2.3 0 0 -5.92 -1.69 0.87 0 5.05 -2.3 0 0 -12.08c0,-0.6 0.16,-1.07 0.49,-1.4 0.33,-0.34 0.78,-0.51 1.36,-0.51l2.57 0c0.59,0 1.04,0.17 1.37,0.51 0.34,0.33 0.5,0.8 0.5,1.4l0 12.08z"/>
  <polygon id="4" class="fil1" points="591.58,138.09 591.58,140.32 586.21,140.32 586.21,126.33 588.5,126.33 588.5,138.09 "/>
  <polygon id="5" class="fil1" points="609.01,138.09 609.01,140.32 603.64,140.32 603.64,126.33 605.94,126.33 605.94,138.09 "/>
  <path id="6" class="fil1" d="M634.23 138.15l0 -4.5 -1.86 0.92 0 3.58 1.86 0zm2.21 -5.27l0 5.51c0,0.65 -0.16,1.14 -0.5,1.46 -0.34,0.32 -0.86,0.47 -1.55,0.47l-4.24 0 0 -13.99 4.42 0c0.59,0 1.05,0.17 1.38,0.51 0.33,0.33 0.49,0.8 0.49,1.4l0 2.95c0,0.47 -0.07,0.84 -0.23,1.11 -0.16,0.27 -0.41,0.46 -0.75,0.58l0.98 0zm-2.21 -1.56l0 -2.83 -1.86 0 0 3.73 1.86 -0.9z"/>
  <path id="7" class="fil1" d="M649.13 126.33l2.3 0 0 11.76 1.69 0 0 -11.76 2.3 0 0 12.08c0,0.6 -0.17,1.08 -0.49,1.41 -0.33,0.34 -0.79,0.5 -1.38,0.5l-2.57 0c-0.58,0 -1.04,-0.16 -1.36,-0.5 -0.33,-0.33 -0.49,-0.81 -0.49,-1.41l0 -12.08z"/>
  <polygon id="8" class="fil1" points="669.67,140.32 669.67,128.57 667.41,128.57 667.41,126.33 674.23,126.33 674.23,128.57 671.97,128.57 671.97,140.32 "/>
  <polygon id="9" class="fil1" points="700.84,140.32 695.3,140.32 695.3,126.33 700.84,126.33 700.84,128.57 697.6,128.57 697.6,132.18 700.84,130.55 700.84,133.05 697.6,134.7 697.6,138.09 700.84,138.09 "/>
  <polygon id="10" class="fil1" points="714.54,133.13 712.58,126.33 714.94,126.33 715.95,129.92 717,126.33 719.36,126.33 717.4,133.13 719.48,140.32 717.12,140.32 715.97,136.33 714.83,140.32 712.46,140.32 "/>
  <path id="11" class="fil1" d="M731.36 128.24c0,-0.6 0.16,-1.07 0.48,-1.4 0.33,-0.34 0.78,-0.51 1.37,-0.51l2.56 0c0.59,0 1.05,0.17 1.38,0.51 0.33,0.33 0.5,0.8 0.5,1.41l0 1.82 -2.32 1.16 0 -2.68 -1.67 0 0 9.56 1.67 0 0 -1.98 2.32 -1.19 0 3.46c0,0.61 -0.17,1.09 -0.49,1.42 -0.33,0.34 -0.8,0.5 -1.39,0.5l-2.56 0c-0.59,0 -1.04,-0.16 -1.37,-0.5 -0.32,-0.33 -0.48,-0.81 -0.48,-1.41l0 -10.17z"/>
  <polygon id="12" class="fil1" points="755.87,140.32 750.33,140.32 750.33,126.33 755.87,126.33 755.87,128.57 752.63,128.57 752.63,132.18 755.87,130.55 755.87,133.05 752.63,134.7 752.63,138.09 755.87,138.09 "/>
  <polygon id="13" class="fil1" points="773.67,138.09 773.67,140.32 768.3,140.32 768.3,126.33 770.6,126.33 770.6,138.09 "/>
  <polygon id="14" class="fil1" points="791.11,138.09 791.11,140.32 785.74,140.32 785.74,126.33 788.04,126.33 788.04,138.09 "/>
  <polygon id="15" class="fil1" points="808.72,140.32 803.18,140.32 803.18,126.33 808.72,126.33 808.72,128.57 805.48,128.57 805.48,132.18 808.72,130.55 808.72,133.05 805.48,134.7 805.48,138.09 808.72,138.09 "/>
  <path id="16" class="fil1" d="M823.45 140.32l-2.28 0 0 -13.99 2.28 0 0.01 1.11c0.05,-0.37 0.19,-0.64 0.42,-0.83 0.22,-0.18 0.52,-0.28 0.9,-0.28l0.79 0c0.58,0 1.04,0.17 1.37,0.51 0.33,0.33 0.5,0.8 0.5,1.4l0 12.08 -2.3 0 0 -11.75 -1.69 0 0 11.75z"/>
  <polygon id="17" class="fil1" points="841.69,140.32 841.69,128.57 839.43,128.57 839.43,126.33 846.25,126.33 846.25,128.57 843.99,128.57 843.99,140.32 "/>
  <polygon id="18" class="fil1" points="868.87,140.32 868.87,128.57 866.61,128.57 866.61,126.33 873.43,126.33 873.43,128.57 871.17,128.57 871.17,140.32 "/>
  <polygon id="19" class="fil1" points="890.96,140.32 885.43,140.32 885.43,126.33 890.96,126.33 890.96,128.57 887.73,128.57 887.73,132.18 890.96,130.55 890.96,133.05 887.73,134.7 887.73,138.09 890.96,138.09 "/>
  <path id="20" class="fil1" d="M907.39 131.94l0 -3.39 -1.69 0 0 4.21 1.69 -0.82zm2.3 8.38l-2.3 0 0 -5.92 -1.69 0.87 0 5.05 -2.3 0 0 -12.08c0,-0.6 0.16,-1.07 0.48,-1.4 0.33,-0.34 0.78,-0.51 1.37,-0.51l2.57 0c0.58,0 1.04,0.17 1.37,0.51 0.33,0.33 0.5,0.8 0.5,1.4l0 12.08z"/>
  <path id="21" class="fil1" d="M928.64 140.32l-2.26 0 0 -11.75 -1.69 0 0 11.75 -2.3 0 0 -12.08c0,-0.6 0.16,-1.07 0.49,-1.4 0.32,-0.34 0.78,-0.51 1.36,-0.51l1.94 0c0.42,0 0.75,0.12 0.98,0.36 0.23,0.24 0.35,0.57 0.35,1 0,-0.44 0.12,-0.77 0.35,-1.01 0.23,-0.23 0.55,-0.35 0.96,-0.35l1.94 0c0.59,0 1.04,0.17 1.37,0.51 0.34,0.33 0.5,0.8 0.5,1.4l0 12.08 -2.32 0 0 -11.75 -1.67 0 0 11.75z"/>
  <path class="fil2" d="M32.37 0c4.29,0 7.64,1.23 10.07,3.67 2.44,2.46 3.65,5.91 3.65,10.31l0 74.48c0,4.45 -1.21,7.92 -3.6,10.39 -2.41,2.43 -5.78,3.66 -10.12,3.66l-32.37 0 0 -102.51 32.37 0zm-3.12 16.25l-12.41 0 0 70.02 12.41 0 0 -70.02zm77.06 86.26l-40.58 0 0 -102.51 40.58 0 0 16.4 -23.74 0 0 26.46 23.74 -11.96 0 18.31 -23.74 12.12 0 24.79 23.74 0 0 16.39zm17.65 -88.53c0,-4.4 1.18,-7.85 3.57,-10.31 2.39,-2.44 5.71,-3.67 9.99,-3.67l18.74 0c4.33,0 7.7,1.23 10.14,3.69 2.44,2.44 3.64,5.89 3.64,10.32l0 2.53 -16.98 8.87 0 -9.16 -12.26 0 0 25.82 29.24 -15.09 0 61.48c0,4.45 -1.2,7.92 -3.59,10.39 -2.41,2.43 -5.81,3.66 -10.19,3.66l-18.74 0c-4.28,0 -7.6,-1.23 -9.99,-3.69 -2.39,-2.44 -3.57,-5.91 -3.57,-10.39l0 -9.6 16.84 -8.71 0 16.15 12.26 0 0 -32.23 -29.1 15.21 0 -55.27zm82.57 88.53l-16.84 0 0 -102.51 16.84 0 0 102.51zm19.67 -88.53c0,-4.4 1.18,-7.85 3.57,-10.31 2.39,-2.44 5.71,-3.67 10,-3.67l18.73 0c4.33,0 7.71,1.23 10.15,3.67 2.43,2.46 3.64,5.91 3.64,10.34l0 14.65 -16.99 8.56 0 -20.97 -12.26 0 0 70.02 12.26 0 0 -23.07 -6.77 3.52 0 -18.47 23.76 -11.96 0 66.22 -32.52 0c-4.29,0 -7.61,-1.23 -10,-3.66 -2.39,-2.47 -3.57,-5.94 -3.57,-10.39l0 -74.48zm82.72 88.53l-16.69 0 0 -102.51 16.69 0 0.08 8.1c0.41,-2.71 1.45,-4.73 3.1,-6.08 1.62,-1.35 3.84,-2.02 6.62,-2.02l5.76 0c4.29,0 7.63,1.23 10.05,3.67 2.43,2.46 3.64,5.91 3.64,10.31l0 88.53 -16.84 0 0 -86.11 -12.41 0 0 86.11zm277.44 -16.39l0 16.39 -39.35 0 0 -102.51 16.84 0 0 86.12 22.51 0zm44.39 -45.06l0 -24.81 -12.41 0 0 30.87 12.41 -6.06zm16.83 61.45l-16.83 0 0 -43.42 -12.41 6.35 0 37.07 -16.84 0 0 -88.53c0,-4.4 1.18,-7.85 3.57,-10.31 2.39,-2.44 5.71,-3.67 9.99,-3.67l18.81 0c4.29,0 7.63,1.23 10.07,3.67 2.44,2.46 3.64,5.91 3.64,10.31l0 88.53zm36.64 0l-16.69 0 0 -102.51 16.69 0 0.07 8.1c0.42,-2.71 1.45,-4.73 3.1,-6.08 1.63,-1.35 3.84,-2.02 6.63,-2.02l5.76 0c4.28,0 7.63,1.23 10.04,3.67 2.44,2.46 3.64,5.91 3.64,10.31l0 88.53 -16.83 0 0 -86.11 -12.41 0 0 86.11zm65.88 0l-16.69 0 0 -102.51 16.69 0 0.07 8.1c0.42,-2.71 1.45,-4.73 3.1,-6.08 1.63,-1.35 3.84,-2.02 6.63,-2.02l5.76 0c4.28,0 7.63,1.23 10.04,3.67 2.44,2.46 3.65,5.91 3.65,10.31l0 88.53 -16.84 0 0 -86.11 -12.41 0 0 86.11zm65.88 0l-16.84 0 0 -102.51 16.84 0 0 102.51zm36.66 0l-16.69 0 0 -102.51 16.69 0 0.07 8.1c0.42,-2.71 1.45,-4.73 3.1,-6.08 1.63,-1.35 3.84,-2.02 6.63,-2.02l5.76 0c4.28,0 7.63,1.23 10.04,3.67 2.44,2.46 3.64,5.91 3.64,10.31l0 88.53 -16.83 0 0 -86.11 -12.41 0 0 86.11zm48.89 -88.53c0,-4.4 1.18,-7.85 3.57,-10.31 2.39,-2.44 5.71,-3.67 10,-3.67l18.73 0c4.33,0 7.71,1.23 10.14,3.67 2.44,2.46 3.65,5.91 3.65,10.34l0 14.65 -16.99 8.56 0 -20.97 -12.26 0 0 70.02 12.26 0 0 -23.07 -6.77 3.52 0 -18.47 23.76 -11.96 0 66.22 -32.52 0c-4.29,0 -7.61,-1.23 -10,-3.66 -2.39,-2.47 -3.57,-5.94 -3.57,-10.39l0 -74.48zm-500.46 88.53c-4.28,0 -7.61,-1.23 -9.99,-3.66 -2.39,-2.47 -3.57,-5.94 -3.57,-10.39l0 -34.86c0,-3.4 0.56,-6.11 1.72,-8.1 1.16,-2 3,-3.43 5.51,-4.31 -2.51,-0.62 -4.35,-1.75 -5.51,-3.42 -1.16,-1.65 -1.72,-3.99 -1.72,-7.05l0 -16.71c0,-4.48 1.18,-7.93 3.57,-10.37 2.38,-2.43 5.71,-3.64 9.99,-3.64l18.81 0c4.33,0 7.71,1.23 10.12,3.69 2.39,2.44 3.59,5.89 3.59,10.32l0 3.54 -16.84 8.72 0 -10.02 -12.4 0 0 19.74 5.31 -2.8 0 18.31 -5.31 2.96 0 31.81 12.4 0 0 -11.82 -4.16 2.07 0 -18.3 25.41 -12.77 0 18.31 -4.41 2.39 0 22.28c0,4.48 -1.2,7.95 -3.59,10.42 -2.41,2.43 -5.79,3.66 -10.12,3.66l-18.81 0zm110.96 -59.8l0 -26.46 -12.41 0 0 32.67 12.41 -6.21zm16.84 9.46l-29.25 15.07 0 35.27 -16.84 0 0 -102.51 32.38 0c4.33,0 7.7,1.23 10.12,3.67 2.38,2.46 3.59,5.91 3.59,10.31l0 38.19z"/>
  <path class="fil0" d="M131.38 50.38l3.62 -2.94 7.35 5.71 -2.54 2.09c-1.7,4.19 -4.25,7.92 -7.64,11.2 3.73,1.73 7.74,2.9 11.99,3.51l-4.92 9.16c-5.43,-2.12 -9.99,-4.6 -13.69,-7.46 -4.56,2.97 -10.03,5.46 -16.4,7.46l-2.49 -2.95c5.66,-2.93 10.33,-5.91 14.03,-8.92 -3.35,-3.74 -5.62,-7.97 -6.79,-12.68l-3.39 0 -1.08 -4.18 21.95 0zm-12.1 4.18c1.7,3.17 3.86,5.83 6.5,7.97 2.38,-2.63 4.1,-5.3 5.15,-7.97l-11.65 0zm-5.54 -28.56l7.91 1.02 0 0.62 7.97 0 3.05 -2.6 6.12 5.43 -2.26 2.65 0 0.23 0.05 0 0 5.94c0,0.75 0.55,1.13 1.65,1.13l4.18 -0.17 0.9 7.01 -7.97 0c-4.49,0 -6.73,-1.41 -6.73,-4.24l0 -3.5 -0.06 0 0 -7.47 -6.9 0 0 3.05c-0.15,5.32 -3.4,10.13 -9.73,14.43l-3.68 -2.09c3.66,-2.99 5.5,-7.24 5.5,-12.78l0 -8.66zm-17.71 19.23l4.07 -4.24 7.47 5.88 -2.77 2.31 0 15.23c2.14,-1.17 4.27,-2.44 6.39,-3.8l2.03 4.36c-3.77,4.33 -8.33,8.58 -13.68,12.73l-4.36 -9.06c0.5,-0.15 0.94,-0.31 1.35,-0.51l0 -18.04 -5.3 0 -1.14 -4.86 5.94 0zm-0.23 -17.59c4.49,1.74 8.11,3.73 10.86,5.99l-5.48 6.17c-2.49,-2.98 -5.38,-5.69 -8.66,-8.15l3.28 -4.01z"/>
  <path id="1" class="fil0" d="M160.7 43.93l4.01 -4.19 7.47 5.78 -3.22 2.37 0 19c2.52,-0.9 5.01,-1.92 7.46,-3.05l2.15 4.35c-4.22,3.7 -9.27,7.32 -15.15,10.86l-4.36 -9.1c0.53,-0.12 1.06,-0.25 1.58,-0.4l0 -16.35 -0.11 0 0 -4.41 -5.83 0 -1.13 -4.86 7.13 0zm38.35 -0.4l3.56 -3.05 5.94 4.98 -2.6 2.59 -10.92 0 0 29.93 -9.73 1.19 0 -31.12 -11.43 0 -1.07 -4.52 12.5 0 0 -18.89 9.73 1.08 0 17.81 4.02 0zm-37.78 -17.42c4.52,1.92 8.16,4.15 10.91,6.67l-5.88 6.63c-2.56,-3.17 -5.52,-6.04 -8.88,-8.61l3.85 -4.69z"/>
  <path id="2" class="fil0" d="M263.49 30.58l3.11 -2.88 5.26 4.63 -2.49 2.37 -8.65 0c1.74,1.03 3.23,2.04 4.47,3.06l-6.9 4.64c-1.25,-2.49 -2.73,-4.79 -4.47,-6.9 -1.62,1.69 -3.34,3.17 -5.14,4.41l0.61 0.05 0 3.12 13.19 0 3.45 -3.12 5.48 4.99 -2.43 2.49 -19.69 0 0 3.22 10.52 0 3.17 -2.71 8.26 5.65 -2.21 1.81c-0.07,0.83 -0.28,2.55 -0.61,5.15 -0.5,3.73 -2.34,5.59 -5.55,5.59l-2.03 0c3.62,1.93 7.16,3.5 10.63,4.71l-5.6 7.57c-6.79,-3.99 -11.95,-8.07 -15.5,-12.22 -0.41,-0.49 -0.77,-0.94 -1.08,-1.35l0 13.63 -9.55 1.19 0 -12.5c-6.3,4.82 -12.8,8.35 -19.51,10.57l-2.61 -4.12c7.92,-3.74 15.29,-9.4 22.12,-16.97l0 -1.93 -8.6 0 0 8.99 -9.67 1.19 0 -16.62 9.67 1.18 0 1.19 8.6 0 0 -3.22 -20.2 0 -1.07 -4.36 21.27 0 0 -4.24 5.71 0.68 -2.21 -1.24c4.07,-4.19 6.81,-8.59 8.21,-13.19l8.42 2.55c-0.63,1.01 -1.28,2 -1.92,2.94l5.54 0zm-14.2 27.38c2.42,2.56 5.59,4.91 9.51,7.06 -0.38,-2.03 -1.94,-3.08 -4.7,-3.16l0.29 -3.28c1.84,0.71 3.03,1.07 3.56,1.07 0.98,0 1.53,-0.62 1.64,-1.87 0.08,-0.94 0.15,-1.95 0.22,-3.05l-10.52 0 0 3.23zm-10.68 -27.38l3.11 -2.88 5.26 4.63 -2.44 2.37 -8.65 0c1.69,1.03 3.11,2 4.24,2.95l-7.18 4.81c-1.05,-2.42 -2.34,-4.62 -3.84,-6.62 -2.27,2.34 -4.64,4.26 -7.14,5.77l-4.46 -2.49c4.86,-4.42 8.12,-9.03 9.78,-13.86l8.27 2.44c-0.65,0.97 -1.31,1.94 -1.99,2.88l5.04 0z"/>
  <path id="3" class="fil0" d="M306.11 35.05l6.1 4.18 -2.2 2.83 -13.41 1.98c0.26,3.13 0.77,6.13 1.53,9 1.51,-2.65 2.85,-5.42 4.01,-8.32l8.94 3.28c-2.75,5.47 -5.86,10.26 -9.33,14.37 1.58,3.28 2.81,4.91 3.68,4.91 0.49,0 1.28,-2.61 2.37,-7.85l3.34 1.18c-0.53,1.85 -0.79,3.47 -0.79,4.87 0,3.05 0.55,5.39 1.64,7.01 -0.68,1.77 -1.47,3.1 -2.38,3.96 -0.75,1.02 -1.95,1.53 -3.62,1.53 -3.35,0 -6.8,-3.06 -10.34,-9.16 -3.25,2.93 -6.76,5.44 -10.53,7.52l-2.72 -3.9c3.74,-3.21 7.06,-6.74 9.97,-10.58 -1.94,-5.06 -3.17,-10.62 -3.74,-16.69l-5.94 0.85 -1.58 -4.36 7.24 -1.01 0 -13.86 8.14 1.02 0 11.71 6.84 -0.96 2.78 -3.51zm-5.43 -9.33c2.9,1.43 5.56,3.14 7.97,5.14l-5.88 5.66c-1.28,-2.61 -3.04,-5.07 -5.26,-7.41l3.17 -3.39zm11.93 4.18l8.03 0.9 0 35.25 -8.03 0.95 0 -37.1zm11.31 -3.62l8.77 1.18 0 43c0,5.05 -2.21,7.58 -6.62,7.58l-3.79 0c0,-3.58 -2.1,-5.46 -6.33,-5.6l0.23 -3.46c2.34,0.12 4.42,0.18 6.27,0.18 0.98,0 1.47,-0.57 1.47,-1.7l0 -41.18z"/>
  <polygon id="4" class="fil0" points="398.08,54.23 337.27,54.23 337.27,48.23 398.08,48.23 "/>
  <polygon id="5" class="fil0" points="458.89,54.23 398.08,54.23 398.08,48.23 458.89,48.23 "/>
  <path id="6" class="fil0" d="M489.73 22.94l10.88 1.47 0 45.8c0,5.65 -2.52,8.49 -7.54,8.49l-6 0c0,-5.27 -3.24,-7.94 -9.68,-8.02l0.17 -4.34c4.24,0.56 7.52,0.83 9.86,0.83 1.54,0 2.31,-0.87 2.31,-2.61l0 -41.62zm20.08 9.91c5.66,8.36 10.18,17.58 13.54,27.68l-11.64 7.06c-1.46,-11.05 -4.14,-21.72 -8.02,-32.01l6.12 -2.73zm-35.16 -0.06l10.69 3.27c-3.67,15.56 -8.86,26.03 -15.55,31.41l-4.4 -3.45c2.3,-4.63 4.3,-9.85 6,-15.67 1.54,-5.43 2.63,-10.61 3.26,-15.56z"/>
  <path id="7" class="fil0" d="M581.81 25.55l3.5 -3.27 5.82 5.23 -2.67 2.67 -20.31 0c-1.86,3.16 -4.04,6.03 -6.53,8.61l15.2 0 4.81 -3.87 9.32 6.9 -3.44 3.03 0 27.73c0,4.67 -1.92,7.01 -5.76,7.01l-5.23 0c0,-3.57 -1.4,-5.5 -4.22,-5.83l0 3.39 -9.02 0.89 0 -34.5 -4.04 0 0 33.67 -9.08 0.89 0 -34.56 -4.28 0 0 35.57 -9.51 1.19 0 -45.31 9.51 1.07 0 2.73 8.02 0c1.3,-2.89 2.31,-5.76 3.03,-8.61l-22.51 0 -1.13 -4.63 48.52 0zm-9.51 17.99l0 25.96c1.55,0.15 2.99,0.23 4.34,0.23 0.87,0 1.31,-0.62 1.31,-1.85l0 -24.34 -5.65 0z"/>
  <path id="8" class="fil0" d="M617.53 43.25l3.2 -2.74 4.03 3.68 -0.23 -1.01 11.05 0 0 -4.04 -8.5 0 -1.01 -4.09 9.51 0 0 -3.51 -8.97 0c-2.77,3.73 -5.92,6.97 -9.45,9.74l0 1.97 0.37 0zm27.13 -11.71l0 3.51 3.63 0 2.84 -2.44 4.7 4.16 -2.44 2.37 -8.73 0 0 4.04 4.69 0 3.15 -2.9 5.17 4.57 -2.32 2.31 -6.23 0 7.18 5.41 -1.9 2.37 0 17.99c0,3.57 -1.77,5.35 -5.28,5.35l-4.82 0c0,-2.86 -1.56,-4.27 -4.69,-4.27l0.06 -3.51c1.47,0.2 2.85,0.29 4.16,0.29 0.83,0 1.24,-0.48 1.24,-1.48l0 -0.95 -9.91 0 0 9.2 -9.09 1.2 0 -31.24 9.09 1.01 0 1.55 9.62 0 3.57 -2.92 -22.81 0 -0.36 -1.31 -1.9 1.91 -6.12 0 0 0.64c2.97,2.39 5.89,5.44 8.74,9.16l-6.06 6.94c-0.63,-2.85 -1.52,-5.48 -2.68,-7.9l0 21.08 -7.65 1.02 0 -15.27c-1.74,3.21 -3.51,5.82 -5.29,7.84l-3.14 -3.32c2.93,-6.46 4.98,-13.19 6.17,-20.19l-4.99 0 -1.07 -4.51 8.32 0 0 -2.74 -4.94 1.49c-1.02,-5.46 -2.12,-9.59 -3.26,-12.36l4.75 -1.07c1.35,1.91 2.5,3.94 3.45,6.12l0 -11.28 7.65 0.89 0 10.21c0.08,-0.19 0.14,-0.36 0.18,-0.47 0.96,-2.34 1.71,-4.58 2.26,-6.72l6.05 3.28 -0.83 -3.15 10.76 0 0 -3.87 9.08 1.19 0 2.68 4.81 0 2.91 -2.44 4.63 4.16 -2.37 2.37 -9.98 0zm0.41 32.66l0 -2.96 -9.91 0 0 2.96 9.91 0zm0 -7.12l0 -2.79 -9.91 0 0 2.79 9.91 0z"/>
  <path id="9" class="fil0" d="M698.96 23.52l9.86 1.73c-0.79,3.21 -1.84,6.22 -3.15,9.03l7.13 0 3.86 -4.1 7.37 6.11 -1.61 1.96 0 16.46c0,12.55 -1.01,19.69 -3.03,21.43 -1.26,1.82 -3.74,2.73 -7.43,2.73l-4.38 0c0,-3.2 -2.56,-5.2 -7.67,-5.99l0.48 -3.92 9.02 0.41c1.51,0 2.38,-0.31 2.61,-0.95 0.88,-2.85 1.31,-6.25 1.31,-10.22l0 -19.41 -9.91 0c-2.26,4 -5.02,7.62 -8.26,10.86l-1.54 -1.18 0 28.63 -8.68 0.83 0 -3.57 -7.06 0 0 3.45 -8.31 1.12 0 -48.16 7.3 0.77c0.83,-2.85 1.34,-5.5 1.55,-7.96l9.38 2.02c-1.74,3.05 -3.61,5.65 -5.58,7.78l2.97 0 2.85 -3.26 7.78 5.64 -2.2 2.44 0 4.45c2.85,-5.98 4.63,-12.36 5.34,-19.13zm-21.08 46.86l7.06 0 0 -16.27 -7.06 0 0 16.27zm0 -20.13l7.06 0 0 -12.77 -7.06 0 0 12.77zm24.11 -3.2c3.6,3.2 6.63,6.6 9.08,10.2l-7.89 5.53c-1.54,-4.87 -3.39,-9.17 -5.53,-12.89l4.34 -2.84z"/>
  <path id="10" class="fil0" d="M736.57 23.05l8.8 0.95 0 1.9 33.67 0 4.34 -3.68 8.19 6.3 -2.5 2.66 0 47.34 -9.43 1.13 0 -3.27 -34.27 0 0 2.32 -8.8 1.06 0 -56.71zm8.8 48.76l34.27 0 0 -29.28 -1.37 1.3 -6.6 0 0 19.67c0,4.9 -2.19,7.35 -6.59,7.35l-3.92 0c0,-3.4 -2.18,-5.18 -6.53,-5.34l0.24 -3.5c2.09,0.16 4,0.24 5.7,0.24 1.11,0 1.66,-0.52 1.66,-1.55l0 -7.65c-3.52,4.66 -8.34,8.76 -14.43,12.28l-2.43 -2.55 0 9.03zm0 -11.16c5.46,-4.36 9.6,-9.97 12.4,-16.82l-9.2 0 -1.06 -4.32 14.72 0 0 -8.56 9.44 1.19 0 7.37 1.07 0 3.03 -2.62 3.87 3.45 0 -9.93 -34.27 0 0 30.24z"/>
  <path id="11" class="fil0" d="M834.53 23.23l10.15 1.31c0,6.21 -0.37,11.83 -1.12,16.86 -0.08,0.64 -0.18,1.27 -0.31,1.91 1.67,5.22 3.74,10.05 6.25,14.48 2.68,5.03 5.36,9.03 8,12l-7.06 9.5c-4.28,-7.28 -7.54,-14.77 -9.8,-22.44 -0.15,-0.56 -0.32,-1.1 -0.47,-1.61 -3.21,9.22 -8.26,17.14 -15.15,23.75l-3.2 -2.85c3.8,-6.14 6.85,-13.28 9.14,-21.43 2.3,-6.46 3.49,-16.95 3.57,-31.48zm-15.21 3.38l3.33 -3.61 7.96 6.4 -2.79 1.67 -8.14 12.11c4.59,4.39 6.89,9.81 6.89,16.21 0,6.22 -2.8,9.33 -8.37,9.33l-3.21 0c0,-2.58 -0.71,-4.29 -2.14,-5.16l0 15.02 -8.25 1.01 0 -56.95 8.25 0.94 0 3.03 6.47 0zm-6.47 4.51l0 28.75c0.87,0.08 1.7,0.12 2.49,0.12 2.26,0 3.39,-0.91 3.39,-2.74 0,-4.51 -0.93,-9.04 -2.79,-13.59l3.32 -12.54 -6.41 0z"/>
  <path id="12" class="fil3 str0" d="M131.38 50.38l3.62 -2.94 7.35 5.71 -2.54 2.09c-1.7,4.19 -4.25,7.92 -7.64,11.2 3.73,1.73 7.74,2.9 11.99,3.51l-4.92 9.16c-5.43,-2.12 -9.99,-4.6 -13.69,-7.46 -4.56,2.97 -10.03,5.46 -16.4,7.46l-2.49 -2.95c5.66,-2.93 10.33,-5.91 14.03,-8.92 -3.35,-3.74 -5.62,-7.97 -6.79,-12.68l-3.39 0 -1.08 -4.18 21.95 0zm-12.1 4.18c1.7,3.17 3.86,5.83 6.5,7.97 2.38,-2.63 4.1,-5.3 5.15,-7.97l-11.65 0zm-5.54 -28.56l7.91 1.02 0 0.62 7.97 0 3.05 -2.6 6.12 5.43 -2.26 2.65 0 0.23 0.05 0 0 5.94c0,0.75 0.55,1.13 1.65,1.13l4.18 -0.17 0.9 7.01 -7.97 0c-4.49,0 -6.73,-1.41 -6.73,-4.24l0 -3.5 -0.06 0 0 -7.47 -6.9 0 0 3.05c-0.15,5.32 -3.4,10.13 -9.73,14.43l-3.68 -2.09c3.66,-2.99 5.5,-7.24 5.5,-12.78l0 -8.66zm-17.71 19.23l4.07 -4.24 7.47 5.88 -2.77 2.31 0 15.23c2.14,-1.17 4.27,-2.44 6.39,-3.8l2.03 4.36c-3.77,4.33 -8.33,8.58 -13.68,12.73l-4.36 -9.06c0.5,-0.15 0.94,-0.31 1.35,-0.51l0 -18.04 -5.3 0 -1.14 -4.86 5.94 0zm-0.23 -17.59c4.49,1.74 8.11,3.73 10.86,5.99l-5.48 6.17c-2.49,-2.98 -5.38,-5.69 -8.66,-8.15l3.28 -4.01z"/>
  <path id="13" class="fil3 str0" d="M160.7 43.93l4.01 -4.19 7.47 5.78 -3.22 2.37 0 19c2.52,-0.9 5.01,-1.92 7.46,-3.05l2.15 4.35c-4.22,3.7 -9.27,7.32 -15.15,10.86l-4.36 -9.1c0.53,-0.12 1.06,-0.25 1.58,-0.4l0 -16.35 -0.11 0 0 -4.41 -5.83 0 -1.13 -4.86 7.13 0zm38.35 -0.4l3.56 -3.05 5.94 4.98 -2.6 2.59 -10.92 0 0 29.93 -9.73 1.19 0 -31.12 -11.43 0 -1.07 -4.52 12.5 0 0 -18.89 9.73 1.08 0 17.81 4.02 0zm-37.78 -17.42c4.52,1.92 8.16,4.15 10.91,6.67l-5.88 6.63c-2.56,-3.17 -5.52,-6.04 -8.88,-8.61l3.85 -4.69z"/>
  <path id="14" class="fil3 str0" d="M263.49 30.58l3.11 -2.88 5.26 4.63 -2.49 2.37 -8.65 0c1.74,1.03 3.23,2.04 4.47,3.06l-6.9 4.64c-1.25,-2.49 -2.73,-4.79 -4.47,-6.9 -1.62,1.69 -3.34,3.17 -5.14,4.41l0.61 0.05 0 3.12 13.19 0 3.45 -3.12 5.48 4.99 -2.43 2.49 -19.69 0 0 3.22 10.52 0 3.17 -2.71 8.26 5.65 -2.21 1.81c-0.07,0.83 -0.28,2.55 -0.61,5.15 -0.5,3.73 -2.34,5.59 -5.55,5.59l-2.03 0c3.62,1.93 7.16,3.5 10.63,4.71l-5.6 7.57c-6.79,-3.99 -11.95,-8.07 -15.5,-12.22 -0.41,-0.49 -0.77,-0.94 -1.08,-1.35l0 13.63 -9.55 1.19 0 -12.5c-6.3,4.82 -12.8,8.35 -19.51,10.57l-2.61 -4.12c7.92,-3.74 15.29,-9.4 22.12,-16.97l0 -1.93 -8.6 0 0 8.99 -9.67 1.19 0 -16.62 9.67 1.18 0 1.19 8.6 0 0 -3.22 -20.2 0 -1.07 -4.36 21.27 0 0 -4.24 5.71 0.68 -2.21 -1.24c4.07,-4.19 6.81,-8.59 8.21,-13.19l8.42 2.55c-0.63,1.01 -1.28,2 -1.92,2.94l5.54 0zm-14.2 27.38c2.42,2.56 5.59,4.91 9.51,7.06 -0.38,-2.03 -1.94,-3.08 -4.7,-3.16l0.29 -3.28c1.84,0.71 3.03,1.07 3.56,1.07 0.98,0 1.53,-0.62 1.64,-1.87 0.08,-0.94 0.15,-1.95 0.22,-3.05l-10.52 0 0 3.23zm-10.68 -27.38l3.11 -2.88 5.26 4.63 -2.44 2.37 -8.65 0c1.69,1.03 3.11,2 4.24,2.95l-7.18 4.81c-1.05,-2.42 -2.34,-4.62 -3.84,-6.62 -2.27,2.34 -4.64,4.26 -7.14,5.77l-4.46 -2.49c4.86,-4.42 8.12,-9.03 9.78,-13.86l8.27 2.44c-0.65,0.97 -1.31,1.94 -1.99,2.88l5.04 0z"/>
  <path id="15" class="fil3 str0" d="M306.11 35.05l6.1 4.18 -2.2 2.83 -13.41 1.98c0.26,3.13 0.77,6.13 1.53,9 1.51,-2.65 2.85,-5.42 4.01,-8.32l8.94 3.28c-2.75,5.47 -5.86,10.26 -9.33,14.37 1.58,3.28 2.81,4.91 3.68,4.91 0.49,0 1.28,-2.61 2.37,-7.85l3.34 1.18c-0.53,1.85 -0.79,3.47 -0.79,4.87 0,3.05 0.55,5.39 1.64,7.01 -0.68,1.77 -1.47,3.1 -2.38,3.96 -0.75,1.02 -1.95,1.53 -3.62,1.53 -3.35,0 -6.8,-3.06 -10.34,-9.16 -3.25,2.93 -6.76,5.44 -10.53,7.52l-2.72 -3.9c3.74,-3.21 7.06,-6.74 9.97,-10.58 -1.94,-5.06 -3.17,-10.62 -3.74,-16.69l-5.94 0.85 -1.58 -4.36 7.24 -1.01 0 -13.86 8.14 1.02 0 11.71 6.84 -0.96 2.78 -3.51zm-5.43 -9.33c2.9,1.43 5.56,3.14 7.97,5.14l-5.88 5.66c-1.28,-2.61 -3.04,-5.07 -5.26,-7.41l3.17 -3.39zm11.93 4.18l8.03 0.9 0 35.25 -8.03 0.95 0 -37.1zm11.31 -3.62l8.77 1.18 0 43c0,5.05 -2.21,7.58 -6.62,7.58l-3.79 0c0,-3.58 -2.1,-5.46 -6.33,-5.6l0.23 -3.46c2.34,0.12 4.42,0.18 6.27,0.18 0.98,0 1.47,-0.57 1.47,-1.7l0 -41.18z"/>
  <polygon id="16" class="fil3 str0" points="398.08,54.23 337.27,54.23 337.27,48.23 398.08,48.23 "/>
  <polygon id="17" class="fil3 str0" points="458.89,54.23 398.08,54.23 398.08,48.23 458.89,48.23 "/>
  <path id="18" class="fil3 str0" d="M489.73 22.94l10.88 1.47 0 45.8c0,5.65 -2.52,8.49 -7.54,8.49l-6 0c0,-5.27 -3.24,-7.94 -9.68,-8.02l0.17 -4.34c4.24,0.56 7.52,0.83 9.86,0.83 1.54,0 2.31,-0.87 2.31,-2.61l0 -41.62zm20.08 9.91c5.66,8.36 10.18,17.58 13.54,27.68l-11.64 7.06c-1.46,-11.05 -4.14,-21.72 -8.02,-32.01l6.12 -2.73zm-35.16 -0.06l10.69 3.27c-3.67,15.56 -8.86,26.03 -15.55,31.41l-4.4 -3.45c2.3,-4.63 4.3,-9.85 6,-15.67 1.54,-5.43 2.63,-10.61 3.26,-15.56z"/>
  <path id="19" class="fil3 str0" d="M581.81 25.55l3.5 -3.27 5.82 5.23 -2.67 2.67 -20.31 0c-1.86,3.16 -4.04,6.03 -6.53,8.61l15.2 0 4.81 -3.87 9.32 6.9 -3.44 3.03 0 27.73c0,4.67 -1.92,7.01 -5.76,7.01l-5.23 0c0,-3.57 -1.4,-5.5 -4.22,-5.83l0 3.39 -9.02 0.89 0 -34.5 -4.04 0 0 33.67 -9.08 0.89 0 -34.56 -4.28 0 0 35.57 -9.51 1.19 0 -45.31 9.51 1.07 0 2.73 8.02 0c1.3,-2.89 2.31,-5.76 3.03,-8.61l-22.51 0 -1.13 -4.63 48.52 0zm-9.51 17.99l0 25.96c1.55,0.15 2.99,0.23 4.34,0.23 0.87,0 1.31,-0.62 1.31,-1.85l0 -24.34 -5.65 0z"/>
  <path id="20" class="fil3 str0" d="M617.53 43.25l3.2 -2.74 4.03 3.68 -0.23 -1.01 11.05 0 0 -4.04 -8.5 0 -1.01 -4.09 9.51 0 0 -3.51 -8.97 0c-2.77,3.73 -5.92,6.97 -9.45,9.74l0 1.97 0.37 0zm27.13 -11.71l0 3.51 3.63 0 2.84 -2.44 4.7 4.16 -2.44 2.37 -8.73 0 0 4.04 4.69 0 3.15 -2.9 5.17 4.57 -2.32 2.31 -6.23 0 7.18 5.41 -1.9 2.37 0 17.99c0,3.57 -1.77,5.35 -5.28,5.35l-4.82 0c0,-2.86 -1.56,-4.27 -4.69,-4.27l0.06 -3.51c1.47,0.2 2.85,0.29 4.16,0.29 0.83,0 1.24,-0.48 1.24,-1.48l0 -0.95 -9.91 0 0 9.2 -9.09 1.2 0 -31.24 9.09 1.01 0 1.55 9.62 0 3.57 -2.92 -22.81 0 -0.36 -1.31 -1.9 1.91 -6.12 0 0 0.64c2.97,2.39 5.89,5.44 8.74,9.16l-6.06 6.94c-0.63,-2.85 -1.52,-5.48 -2.68,-7.9l0 21.08 -7.65 1.02 0 -15.27c-1.74,3.21 -3.51,5.82 -5.29,7.84l-3.14 -3.32c2.93,-6.46 4.98,-13.19 6.17,-20.19l-4.99 0 -1.07 -4.51 8.32 0 0 -2.74 -4.94 1.49c-1.02,-5.46 -2.12,-9.59 -3.26,-12.36l4.75 -1.07c1.35,1.91 2.5,3.94 3.45,6.12l0 -11.28 7.65 0.89 0 10.21c0.08,-0.19 0.14,-0.36 0.18,-0.47 0.96,-2.34 1.71,-4.58 2.26,-6.72l6.05 3.28 -0.83 -3.15 10.76 0 0 -3.87 9.08 1.19 0 2.68 4.81 0 2.91 -2.44 4.63 4.16 -2.37 2.37 -9.98 0zm0.41 32.66l0 -2.96 -9.91 0 0 2.96 9.91 0zm0 -7.12l0 -2.79 -9.91 0 0 2.79 9.91 0z"/>
  <path id="21" class="fil3 str0" d="M698.96 23.52l9.86 1.73c-0.79,3.21 -1.84,6.22 -3.15,9.03l7.13 0 3.86 -4.1 7.37 6.11 -1.61 1.96 0 16.46c0,12.55 -1.01,19.69 -3.03,21.43 -1.26,1.82 -3.74,2.73 -7.43,2.73l-4.38 0c0,-3.2 -2.56,-5.2 -7.67,-5.99l0.48 -3.92 9.02 0.41c1.51,0 2.38,-0.31 2.61,-0.95 0.88,-2.85 1.31,-6.25 1.31,-10.22l0 -19.41 -9.91 0c-2.26,4 -5.02,7.62 -8.26,10.86l-1.54 -1.18 0 28.63 -8.68 0.83 0 -3.57 -7.06 0 0 3.45 -8.31 1.12 0 -48.16 7.3 0.77c0.83,-2.85 1.34,-5.5 1.55,-7.96l9.38 2.02c-1.74,3.05 -3.61,5.65 -5.58,7.78l2.97 0 2.85 -3.26 7.78 5.64 -2.2 2.44 0 4.45c2.85,-5.98 4.63,-12.36 5.34,-19.13zm-21.08 46.86l7.06 0 0 -16.27 -7.06 0 0 16.27zm0 -20.13l7.06 0 0 -12.77 -7.06 0 0 12.77zm24.11 -3.2c3.6,3.2 6.63,6.6 9.08,10.2l-7.89 5.53c-1.54,-4.87 -3.39,-9.17 -5.53,-12.89l4.34 -2.84z"/>
  <path id="22" class="fil3 str0" d="M736.57 23.05l8.8 0.95 0 1.9 33.67 0 4.34 -3.68 8.19 6.3 -2.5 2.66 0 47.34 -9.43 1.13 0 -3.27 -34.27 0 0 2.32 -8.8 1.06 0 -56.71zm8.8 48.76l34.27 0 0 -29.28 -1.37 1.3 -6.6 0 0 19.67c0,4.9 -2.19,7.35 -6.59,7.35l-3.92 0c0,-3.4 -2.18,-5.18 -6.53,-5.34l0.24 -3.5c2.09,0.16 4,0.24 5.7,0.24 1.11,0 1.66,-0.52 1.66,-1.55l0 -7.65c-3.52,4.66 -8.34,8.76 -14.43,12.28l-2.43 -2.55 0 9.03zm0 -11.16c5.46,-4.36 9.6,-9.97 12.4,-16.82l-9.2 0 -1.06 -4.32 14.72 0 0 -8.56 9.44 1.19 0 7.37 1.07 0 3.03 -2.62 3.87 3.45 0 -9.93 -34.27 0 0 30.24z"/>
  <path id="23" class="fil3 str0" d="M834.53 23.23l10.15 1.31c0,6.21 -0.37,11.83 -1.12,16.86 -0.08,0.64 -0.18,1.27 -0.31,1.91 1.67,5.22 3.74,10.05 6.25,14.48 2.68,5.03 5.36,9.03 8,12l-7.06 9.5c-4.28,-7.28 -7.54,-14.77 -9.8,-22.44 -0.15,-0.56 -0.32,-1.1 -0.47,-1.61 -3.21,9.22 -8.26,17.14 -15.15,23.75l-3.2 -2.85c3.8,-6.14 6.85,-13.28 9.14,-21.43 2.3,-6.46 3.49,-16.95 3.57,-31.48zm-15.21 3.38l3.33 -3.61 7.96 6.4 -2.79 1.67 -8.14 12.11c4.59,4.39 6.89,9.81 6.89,16.21 0,6.22 -2.8,9.33 -8.37,9.33l-3.21 0c0,-2.58 -0.71,-4.29 -2.14,-5.16l0 15.02 -8.25 1.01 0 -56.95 8.25 0.94 0 3.03 6.47 0zm-6.47 4.51l0 28.75c0.87,0.08 1.7,0.12 2.49,0.12 2.26,0 3.39,-0.91 3.39,-2.74 0,-4.51 -0.93,-9.04 -2.79,-13.59l3.32 -12.54 -6.41 0z"/>
 </g>
</svg>
