<?xml version="1.0" encoding="UTF-8"?>
<!DOCTYPE svg PUBLIC "-//W3C//DTD SVG 1.1//EN" "http://www.w3.org/Graphics/SVG/1.1/DTD/svg11.dtd">
<!-- Creator: CorelDRAW 2017 -->
<svg xmlns="http://www.w3.org/2000/svg" xml:space="preserve" width="339px" height="90px" version="1.1" style="shape-rendering:geometricPrecision; text-rendering:geometricPrecision; image-rendering:optimizeQuality; fill-rule:evenodd; clip-rule:evenodd"
viewBox="0 0 50.84 13.41"
 xmlns:xlink="http://www.w3.org/1999/xlink">
 <defs>
  <style type="text/css">
   <![CDATA[
    .fil1 {fill:white}
    .fil0 {fill:white;fill-rule:nonzero}
   ]]>
  </style>
 </defs>
 <g id="图层_x0020_1">
  <metadata id="CorelCorpID_0Corel-Layer"/>
  <g id="_1936220640464">
   <path class="fil0" d="M0.61 0l12.8 0 0 4.03 3.23 2.67 -3.23 2.68 0 4.03 -13.41 0 0 -13.41 0.61 0zm11.59 1.21l-10.99 0 0 10.99 10.99 0 0 -3.39 2.54 -2.11 -2.54 -2.1 0 -3.39z"/>
   <path class="fil0" d="M6.14 3.79l-0.71 0 0.57 0.37 -0.26 0.25c-0.16,0.43 -0.33,0.75 -0.52,0.96 0.3,0.16 0.69,0.28 1.18,0.37 -0.18,0.17 -0.34,0.38 -0.46,0.62 -0.44,-0.13 -0.83,-0.31 -1.17,-0.53 -0.36,0.22 -0.8,0.4 -1.33,0.53l-0.22 -0.29c0.48,-0.17 0.86,-0.38 1.14,-0.63 -0.21,-0.25 -0.37,-0.6 -0.5,-1.04l-0.16 0 -0.06 -0.39c-0.01,0 -0.01,0.01 -0.01,0.02 -0.02,0.01 -0.04,0.02 -0.08,0.02l-0.22 -0.19c0.37,-0.3 0.55,-0.65 0.53,-1.05l0 -0.6 0.61 0 0 0.15 0.48 0 0.16 -0.24 0.57 0.33 -0.12 0.18 0 0.5c0.01,0.09 0.05,0.14 0.12,0.14 0.29,0 0.49,0 0.63,-0.01 -0.06,0.09 -0.12,0.26 -0.17,0.49 0,0.01 0,0.03 0,0.04zm-4.13 -0.33l0.55 0 0.2 -0.24 0.57 0.44 -0.15 0.17 0 1.25c0.18,-0.14 0.3,-0.25 0.37,-0.34l0.2 0.37c-0.28,0.41 -0.61,0.79 -1.01,1.16l-0.42 -0.48c0.18,-0.12 0.26,-0.28 0.24,-0.47l0 -1.44 -0.46 0 -0.09 -0.42zm1.74 0.49l1.42 0 0.15 -0.16c-0.25,-0.04 -0.37,-0.21 -0.37,-0.52l0 -0.49 -0.48 0 0 0.07c0,0.45 -0.24,0.82 -0.72,1.1zm-1.19 -1.8c0.16,0.05 0.36,0.15 0.61,0.3 0.03,0.01 0.06,0.02 0.07,0.03 0.07,0.06 0.09,0.13 0.05,0.21 -0.01,0.01 -0.02,0.04 -0.03,0.09 -0.06,0.16 -0.12,0.27 -0.19,0.33 -0.06,0.07 -0.12,0.06 -0.18,-0.04 -0.16,-0.28 -0.33,-0.51 -0.51,-0.7l0.18 -0.22zm1.78 2.25c0.11,0.24 0.25,0.45 0.41,0.62 0.13,-0.18 0.24,-0.39 0.31,-0.62l-0.72 0z"/>
   <path id="1" class="fil0" d="M9.57 2.1l0.68 0 0 1.52 0.46 0 0.13 -0.24 0.49 0.39 -0.18 0.29 -0.9 0 0 2.34 -0.68 0 0 -2.34 -0.92 0 -0.07 -0.44 0.99 0 0 -1.52zm-2.59 1.47l0.71 0 0.15 -0.26 0.68 0.41 -0.18 0.23 0 1.29c0.06,-0.05 0.17,-0.14 0.33,-0.27 0.07,-0.08 0.13,-0.13 0.16,-0.15l0.22 0.31c-0.22,0.26 -0.6,0.66 -1.14,1.21l-0.42 -0.51c0.15,-0.14 0.22,-0.29 0.2,-0.46l0 -1.38 -0.64 0 -0.07 -0.42zm0.84 -1.36c0.23,0.15 0.43,0.3 0.59,0.46 0.1,0.07 0.11,0.14 0.04,0.22 -0.05,0.1 -0.14,0.2 -0.28,0.31 -0.06,0.05 -0.1,0.07 -0.13,0.06 -0.03,0 -0.06,-0.04 -0.07,-0.1 -0.1,-0.25 -0.23,-0.52 -0.39,-0.8l0.24 -0.15z"/>
   <path id="2" class="fil0" d="M2.1 8.47l1.78 0 0 -0.26 0.46 0 -0.27 -0.13c0.23,-0.35 0.39,-0.73 0.49,-1.12l0.59 0.18c-0.05,0.11 -0.1,0.21 -0.16,0.3l0.69 0 0.15 -0.22 0.46 0.31 -0.15 0.26 -0.97 0c0.16,0.05 0.29,0.1 0.4,0.16 0.06,0.01 0.08,0.06 0.04,0.13 -0.02,0.08 -0.07,0.17 -0.15,0.28 -0.05,0.05 -0.09,0.05 -0.14,0 -0.09,-0.15 -0.22,-0.31 -0.39,-0.48l0.09 -0.09 -0.29 0c-0.1,0.13 -0.22,0.27 -0.37,0.42l0.15 0 0 0.26 1.06 0 0.19 -0.26 0.55 0.4 -0.13 0.24 -1.67 0 0 0.3 0.7 0 0.18 -0.26 0.59 0.33c0.04,0.03 0.04,0.06 0,0.09l-0.15 0.19 0 0.25c0.04,0.3 -0.15,0.46 -0.57,0.48 0.28,0.15 0.65,0.27 1.1,0.37 -0.18,0.18 -0.31,0.4 -0.4,0.64 -0.62,-0.27 -1.11,-0.59 -1.45,-0.95l0 1.01 -0.63 0 0 -0.88c-0.44,0.3 -1,0.57 -1.69,0.79l-0.16 -0.28c0.73,-0.29 1.35,-0.72 1.85,-1.27l0 -0.14 -0.7 0 0 0.67 -0.6 0 0 -1.13 0.6 0 0 0.09 0.7 0 0 -0.3 -1.69 0 -0.09 -0.38zm-0.02 -0.26c0.28,-0.34 0.49,-0.75 0.63,-1.23l0.6 0.16c-0.05,0.11 -0.1,0.21 -0.16,0.3l0.53 0 0.15 -0.2 0.42 0.33 -0.15 0.22 -0.81 0c0.05,0.01 0.12,0.04 0.19,0.09 0.08,0.04 0.14,0.06 0.16,0.07 0.05,0.03 0.06,0.08 0.04,0.15 -0.01,0.02 -0.04,0.08 -0.09,0.16 -0.03,0.05 -0.04,0.09 -0.06,0.12 -0.05,0.07 -0.1,0.06 -0.16,-0.02 -0.05,-0.08 -0.14,-0.19 -0.26,-0.33 -0.05,-0.07 -0.09,-0.11 -0.11,-0.15l0.07 -0.09 -0.16 0c-0.16,0.21 -0.35,0.4 -0.57,0.59l-0.26 -0.17zm2.43 1.54c0.26,0.21 0.5,0.37 0.73,0.48 -0.02,-0.16 -0.14,-0.24 -0.35,-0.26l-0.03 -0.22c0.25,0.03 0.38,0 0.36,-0.07l0 -0.16 -0.71 0 0 0.23z"/>
   <path id="3" class="fil0" d="M6.96 10.8c0.33,-0.21 0.64,-0.45 0.94,-0.72 -0.15,-0.39 -0.25,-0.8 -0.3,-1.23l-0.51 0.08 -0.15 -0.41 0.62 -0.11c-0.02,-0.22 -0.03,-0.43 -0.03,-0.64l0 -0.66 0.64 0 0 0.84 0 0.37 0.7 -0.11 0.15 -0.26 0.53 0.31 -0.15 0.3 -1.19 0.18c0.03,0.3 0.09,0.57 0.16,0.83 0.19,-0.24 0.35,-0.5 0.5,-0.77l0.55 0.38c-0.26,0.35 -0.53,0.65 -0.83,0.9 0.07,0.11 0.14,0.23 0.22,0.34 0.13,0.13 0.23,0.11 0.32,-0.08 0.06,-0.11 0.09,-0.19 0.11,-0.26l0.27 0.15c-0.09,0.28 -0.05,0.47 0.13,0.55 -0.12,0.32 -0.3,0.48 -0.55,0.48 -0.32,0 -0.61,-0.18 -0.88,-0.55 -0.01,-0.02 -0.04,-0.06 -0.08,-0.11 -0.02,-0.05 -0.04,-0.09 -0.07,-0.11 -0.27,0.17 -0.57,0.34 -0.9,0.51l-0.2 -0.2zm3.44 -3.73l0.64 0 0 3.73c0.02,0.32 -0.22,0.49 -0.72,0.52 -0.01,-0.25 -0.15,-0.37 -0.42,-0.35l-0.04 -0.28c0.39,0.04 0.57,-0.02 0.54,-0.16l0 -3.46zm-0.85 3.16l0 -2.7 0.59 0 0 2.7 -0.59 0zm-0.97 -3.09c0.18,0.11 0.35,0.25 0.49,0.41 0.08,0.06 0.09,0.12 0.04,0.18 -0.1,0.1 -0.2,0.19 -0.31,0.26 -0.13,0.06 -0.19,0.04 -0.21,-0.06 0,-0.01 0,-0.02 -0.01,-0.03 -0.1,-0.28 -0.18,-0.49 -0.24,-0.61l0.24 -0.15z"/>
   <polygon class="fil1" points="13.53,6.7 12.86,6.2 12.2,5.69 12.2,6.7 12.2,7.72 12.86,7.21 "/>
   <path class="fil0" d="M15.7 0c0.09,0 0.17,0.03 0.22,0.08 0.05,0.06 0.08,0.13 0.08,0.23l0 1.64c0,0.1 -0.03,0.18 -0.08,0.23 -0.05,0.06 -0.13,0.08 -0.22,0.08l-0.72 0 0 -2.26 0.72 0zm-0.07 0.36l-0.28 0 0 1.54 0.28 0 0 -1.54z"/>
   <polygon id="1" class="fil0" points="17.11,2.26 16.22,2.26 16.22,0 17.11,0 17.11,0.36 16.59,0.36 16.59,0.95 17.11,0.68 17.11,1.09 16.59,1.35 16.59,1.9 17.11,1.9 "/>
   <path id="2" class="fil0" d="M17.28 0.31c0,-0.1 0.03,-0.17 0.08,-0.23 0.05,-0.05 0.13,-0.08 0.22,-0.08l0.41 0c0.1,0 0.17,0.03 0.23,0.08 0.05,0.06 0.08,0.13 0.08,0.23l0 0.06 -0.38 0.19 0 -0.2 -0.27 0 0 0.57 0.65 -0.33 0 1.35c0,0.1 -0.03,0.18 -0.08,0.23 -0.05,0.06 -0.13,0.08 -0.23,0.08l-0.41 0c-0.09,0 -0.17,-0.02 -0.22,-0.08 -0.05,-0.05 -0.08,-0.13 -0.08,-0.23l0 -0.21 0.37 -0.19 0 0.35 0.27 0 0 -0.71 -0.64 0.34 0 -1.22z"/>
   <polygon id="3" class="fil0" points="18.89,2.26 18.51,2.26 18.51,0 18.89,0 "/>
   <path id="4" class="fil0" d="M19.1 0.31c0,-0.1 0.03,-0.17 0.08,-0.23 0.05,-0.05 0.13,-0.08 0.22,-0.08l0.41 0c0.1,0 0.17,0.03 0.23,0.08 0.05,0.06 0.08,0.13 0.08,0.23l0 0.32 -0.38 0.19 0 -0.46 -0.27 0 0 1.54 0.27 0 0 -0.5 -0.15 0.07 0 -0.4 0.53 -0.27 0 1.46 -0.72 0c-0.09,0 -0.17,-0.02 -0.22,-0.08 -0.05,-0.05 -0.08,-0.13 -0.08,-0.23l0 -1.64z"/>
   <path id="5" class="fil0" d="M20.71 2.26l-0.37 0 0 -2.26 0.37 0 0 0.18c0.01,-0.06 0.03,-0.1 0.07,-0.13 0.03,-0.03 0.08,-0.05 0.14,-0.05l0.13 0c0.1,0 0.17,0.03 0.22,0.08 0.06,0.06 0.08,0.13 0.08,0.23l0 1.95 -0.37 0 0 -1.9 -0.27 0 0 1.9z"/>
   <polygon id="6" class="fil0" points="26.18,1.9 26.18,2.26 25.31,2.26 25.31,0 25.68,0 25.68,1.9 "/>
   <path id="7" class="fil0" d="M26.94 0.91l0 -0.55 -0.28 0 0 0.68 0.28 -0.13zm0.37 1.35l-0.37 0 0 -0.96 -0.28 0.14 0 0.82 -0.37 0 0 -1.95c0,-0.1 0.03,-0.17 0.08,-0.23 0.05,-0.05 0.13,-0.08 0.22,-0.08l0.42 0c0.09,0 0.16,0.03 0.22,0.08 0.05,0.06 0.08,0.13 0.08,0.23l0 1.95z"/>
   <path id="8" class="fil0" d="M27.9 2.26l-0.37 0 0 -2.26 0.37 0 0 0.18c0.01,-0.06 0.03,-0.1 0.07,-0.13 0.03,-0.03 0.08,-0.05 0.14,-0.05l0.13 0c0.1,0 0.17,0.03 0.22,0.08 0.06,0.06 0.08,0.13 0.08,0.23l0 1.95 -0.37 0 0 -1.9 -0.27 0 0 1.9z"/>
   <path id="9" class="fil0" d="M29.13 2.26l-0.36 0 0 -2.26 0.36 0 0.01 0.18c0.01,-0.06 0.03,-0.1 0.06,-0.13 0.04,-0.03 0.09,-0.05 0.15,-0.05l0.13 0c0.09,0 0.17,0.03 0.22,0.08 0.05,0.06 0.08,0.13 0.08,0.23l0 1.95 -0.37 0 0 -1.9 -0.28 0 0 1.9z"/>
   <polygon id="10" class="fil0" points="30.37,2.26 30,2.26 30,0 30.37,0 "/>
   <path id="11" class="fil0" d="M30.96 2.26l-0.37 0 0 -2.26 0.37 0 0 0.18c0.01,-0.06 0.03,-0.1 0.07,-0.13 0.04,-0.03 0.09,-0.05 0.15,-0.05l0.12 0c0.1,0 0.17,0.03 0.23,0.08 0.05,0.06 0.08,0.13 0.08,0.23l0 1.95 -0.38 0 0 -1.9 -0.27 0 0 1.9z"/>
   <path id="12" class="fil0" d="M31.82 0.31c0,-0.1 0.03,-0.17 0.08,-0.23 0.05,-0.05 0.13,-0.08 0.22,-0.08l0.41 0c0.1,0 0.17,0.03 0.23,0.08 0.05,0.06 0.08,0.13 0.08,0.23l0 0.32 -0.38 0.19 0 -0.46 -0.27 0 0 1.54 0.27 0 0 -0.5 -0.15 0.07 0 -0.4 0.53 -0.27 0 1.46 -0.72 0c-0.09,0 -0.17,-0.02 -0.22,-0.08 -0.05,-0.05 -0.08,-0.13 -0.08,-0.23l0 -1.64z"/>
   <path id="13" class="fil0" d="M22.52 2.26c-0.09,0 -0.16,-0.02 -0.22,-0.08 -0.05,-0.05 -0.08,-0.13 -0.08,-0.23l0 -0.77c0,-0.07 0.02,-0.13 0.04,-0.18 0.03,-0.04 0.07,-0.07 0.12,-0.09 -0.05,-0.01 -0.09,-0.04 -0.12,-0.08 -0.02,-0.03 -0.04,-0.08 -0.04,-0.15l0 -0.37c0,-0.1 0.03,-0.18 0.08,-0.23 0.06,-0.05 0.13,-0.08 0.22,-0.08l0.42 0c0.09,0 0.17,0.03 0.22,0.08 0.05,0.06 0.08,0.13 0.08,0.23l0 0.08 -0.37 0.19 0 -0.22 -0.27 0 0 0.44 0.11 -0.07 0 0.41 -0.11 0.06 0 0.7 0.27 0 0 -0.26 -0.09 0.05 0 -0.4 0.56 -0.29 0 0.41 -0.1 0.05 0 0.49c0,0.1 -0.03,0.18 -0.08,0.23 -0.05,0.06 -0.13,0.08 -0.22,0.08l-0.42 0z"/>
   <path id="14" class="fil0" d="M24.75 0.94l0 -0.58 -0.27 0 0 0.72 0.27 -0.14zm0.38 0.21l-0.65 0.33 0 0.78 -0.37 0 0 -2.26 0.71 0c0.1,0 0.17,0.03 0.23,0.08 0.05,0.06 0.08,0.13 0.08,0.23l0 0.84z"/>
   <rect class="fil1" x="34.39" width="16.45" height="1.21"/>
   <rect class="fil1" x="44.44" y="12.2" width="6.4" height="1.21"/>
   <rect class="fil1" transform="matrix(1.10478E-14 0.757735 -0.342784 1.6491E-14 50.8393 -8.19051E-06)" width="17.7" height="3.54"/>
   <path class="fil0" d="M19.87 4.67l0.72 0 0 3.61c0.03,0.33 -0.25,0.51 -0.83,0.53 0,-0.23 -0.14,-0.35 -0.44,-0.35l-0.03 -0.28c0.43,0.04 0.62,-0.01 0.58,-0.14l0 -3.37zm1.36 1.03c0.35,0.35 0.7,0.77 1.05,1.29 0.09,0.13 0.09,0.24 0.02,0.33 -0.12,0.15 -0.26,0.27 -0.4,0.37 -0.15,0.08 -0.25,0.05 -0.3,-0.11 -0.21,-0.66 -0.44,-1.23 -0.7,-1.71l0.33 -0.17zm-3.1 2.02c0.29,-0.63 0.53,-1.31 0.71,-2.04l0.74 0.23c-0.34,0.79 -0.71,1.44 -1.1,1.93l-0.35 -0.12z"/>
   <path id="1" class="fil0" d="M23.06 4.82l3.64 0 0.2 -0.24 0.46 0.35 -0.2 0.3 -1.43 0c-0.19,0.25 -0.35,0.47 -0.5,0.66l1.07 0 0.2 -0.26 0.59 0.4c0.03,0.03 0.03,0.06 0,0.1l-0.1 0.09 0 2.22c-0.03,0.3 -0.29,0.45 -0.77,0.48 -0.02,-0.18 -0.16,-0.28 -0.4,-0.29l-0.02 -0.17 -0.41 0 0 -2.17 -0.38 0 0 2.17 -0.57 0 0 -2.17 -0.39 0 0 2.56 -0.64 0 0 -3.09 0.64 0 0 0.13 0.68 0c0.02,-0.05 0.04,-0.13 0.08,-0.24 0.04,-0.19 0.08,-0.33 0.11,-0.42l-1.79 0 -0.07 -0.41zm2.9 3.57c0.3,0.01 0.43,-0.03 0.39,-0.13l0 -1.97 -0.39 0 0 2.1z"/>
   <path id="2" class="fil0" d="M29.88 4.93l0.78 0 0 -0.37 0.6 0 0 0.37 0.46 0 0.09 -0.15 0.37 0.26 -0.13 0.22 -0.79 0 0 0.26 0.37 0 0.08 -0.15 0.36 0.24 -0.14 0.24 -0.67 0 0 0.26 0.59 0 0.11 -0.17 0.39 0.26 -0.15 0.26 -2.32 0 -0.05 -0.22 -0.13 0.22 -0.46 0 0 0.36 0.15 -0.09c0.17,0.15 0.33,0.31 0.48,0.5 0.01,0 0.01,0 0.01,0.02 0.02,0.01 0.02,0.02 0.02,0.03l0 -0.66 0.61 0 0 0.09 0.86 0 0.11 -0.2 0.65 0.31 -0.13 0.21 0 1.41c0.05,0.28 -0.18,0.43 -0.68,0.44 0.01,-0.17 -0.09,-0.26 -0.31,-0.27l-0.04 -0.22c0.33,0.01 0.47,-0.02 0.42,-0.1l0 -0.09 -0.88 0 0 0.66 -0.61 0 0 -1.5c0,0 0,0 -0.02,0.02 0,0.01 0,0.02 -0.01,0.03 -0.11,0.11 -0.2,0.19 -0.26,0.22 -0.05,0.04 -0.09,0.05 -0.11,0.04 -0.03,-0.01 -0.04,-0.05 -0.06,-0.11 -0.02,-0.1 -0.06,-0.25 -0.12,-0.44 -0.04,-0.1 -0.07,-0.17 -0.08,-0.22l0 1.96 -0.57 0 0 -1.59c-0.22,0.49 -0.4,0.82 -0.55,0.99l-0.29 -0.13c0.24,-0.49 0.44,-1.05 0.6,-1.67l-0.4 0 -0.08 -0.41 0.72 0 0 -1.49 0.57 0 0 1.12c0.09,-0.25 0.16,-0.51 0.22,-0.77l0.46 0.19 -0.04 -0.17zm0.06 0.59l0.72 0 0 -0.26 -0.7 0 -0.02 -0.11c-0.17,0.26 -0.33,0.48 -0.48,0.66l-0.22 -0.07 0 0.31 0.13 0 0.09 -0.18 0.33 0.26 0 -0.02 0.87 0 0 -0.26 -0.63 0 -0.09 -0.33zm-1.75 -0.53c0.14,0.12 0.27,0.27 0.39,0.44 0.06,0.08 0.05,0.15 -0.02,0.2 -0.06,0.06 -0.14,0.12 -0.24,0.18 -0.05,0.03 -0.08,0.03 -0.11,0.02 -0.01,-0.01 -0.02,-0.05 -0.03,-0.13 -0.04,-0.19 -0.1,-0.4 -0.19,-0.62l0.2 -0.09zm2.32 2.62l0 0.26 0.88 0 0 -0.26 -0.88 0zm0 -0.57l0 0.24 0.88 0 0 -0.24 -0.88 0z"/>
   <path id="3" class="fil0" d="M33.22 5.24l0.48 0c0.02,-0.19 0.04,-0.42 0.05,-0.68l0.68 0.11c-0.01,0.04 -0.04,0.09 -0.07,0.15 -0.05,0.16 -0.13,0.34 -0.24,0.53l0.24 0 0.14 -0.24 0.65 0.35 -0.17 0.24 0 0.61c0.24,-0.56 0.41,-1.15 0.52,-1.76l0.7 0.18c-0.08,0.23 -0.16,0.45 -0.26,0.66l0.31 0 0.15 -0.28 0.68 0.41 -0.17 0.24 0 2.57c0.04,0.36 -0.25,0.55 -0.88,0.57 0.01,-0.22 -0.14,-0.33 -0.44,-0.33l-0.04 -0.31c0.53,0.06 0.77,-0.01 0.72,-0.2l0 -2.23 -0.57 0c-0.15,0.26 -0.3,0.48 -0.44,0.66l-0.28 -0.11 0 2.36 -0.6 0 0 -0.35 -0.56 0 0 0.47 -0.6 0 0 -3.62zm2.35 1.11c0.22,0.23 0.4,0.47 0.53,0.73 0.06,0.09 0.06,0.15 -0.02,0.2 -0.08,0.08 -0.2,0.15 -0.34,0.22 -0.09,0.04 -0.14,0.05 -0.15,0.04 -0.03,0 -0.04,-0.04 -0.06,-0.11 -0.06,-0.37 -0.13,-0.7 -0.2,-0.99l0.24 -0.09zm-1.75 0.73l0 0.9 0.56 0 0 -0.9 -0.56 0zm0 -1.3l0 0.9 0.56 0 0 -0.9 -0.56 0z"/>
   <path id="4" class="fil0" d="M38.06 4.69l0.64 0 0 0.11 2.48 0 0.17 -0.24 0.68 0.41 -0.15 0.22 0 3.64 -0.66 0 0 -0.22 -2.52 0 0 0.2 -0.64 0 0 -4.12zm0.68 3c0.4,-0.46 0.7,-0.94 0.88,-1.45l-0.77 0 -0.06 -0.43 1.23 0 0 -0.46 0.59 0 0 0.46 0.04 0 0.13 -0.18 0.44 0.33 0 -0.72 -2.52 0 0 2.94 2.52 0 0 -2.18 -0.15 0.24 -0.46 0 0 1.3c0.05,0.39 -0.17,0.58 -0.66,0.55 0,-0.17 -0.12,-0.25 -0.35,-0.25l-0.02 -0.24c0.33,0.05 0.48,-0.01 0.44,-0.17l0 -0.72c-0.25,0.45 -0.6,0.82 -1.04,1.14l-0.24 -0.16z"/>
   <path id="5" class="fil0" d="M42.99 4.73l0.61 0 0 0.11 0.47 0 0.17 -0.22 0.59 0.4c0.06,0.05 0.06,0.09 0,0.13l-0.22 0.17 -0.46 0.86c0.38,0.29 0.55,0.61 0.53,0.96 0.01,0.49 -0.23,0.75 -0.73,0.79 -0.03,-0.17 -0.15,-0.27 -0.35,-0.3l0 1.23 -0.61 0 0 -4.13zm3.53 4.13c-0.39,-0.45 -0.67,-0.95 -0.83,-1.48 -0.22,0.58 -0.69,1.09 -1.4,1.52l-0.23 -0.26c0.8,-0.72 1.2,-1.6 1.19,-2.64l0 -1.36 0.66 0 0 1.38c0,0.16 0,0.31 -0.02,0.45 0.27,0.76 0.7,1.36 1.27,1.79 -0.24,0.14 -0.46,0.35 -0.64,0.6zm-2.43 -1.74c0.01,-0.25 -0.1,-0.55 -0.35,-0.9l0.26 -0.98 -0.4 0 0 2.12c0.35,0.02 0.52,-0.06 0.49,-0.24z"/>
   <path class="fil0" d="M14.98 12.37c0,-0.05 0.01,-0.09 0.04,-0.12 0.03,-0.03 0.07,-0.04 0.11,-0.04l0.22 0c0.05,0 0.09,0.01 0.12,0.04 0.03,0.03 0.04,0.07 0.04,0.12l0 0.03 -0.2 0.1 0 -0.1 -0.14 0 0 0.3 0.34 -0.18 0 0.71c0,0.05 -0.01,0.1 -0.04,0.12 -0.03,0.03 -0.07,0.05 -0.12,0.05l-0.22 0c-0.04,0 -0.08,-0.02 -0.11,-0.05 -0.03,-0.02 -0.04,-0.07 -0.04,-0.12l0 -0.11 0.19 -0.1 0 0.19 0.14 0 0 -0.38 -0.33 0.18 0 -0.64z"/>
   <polygon id="1" class="fil0" points="43.24,13.2 43.43,13.2 43.43,13.4 43.24,13.4 "/>
   <path id="2" class="fil0" d="M16.83 13.4l-0.19 0 0 -1 -0.15 0 0 1 -0.19 0 0 -1.03c0,-0.05 0.01,-0.09 0.04,-0.12 0.03,-0.03 0.07,-0.04 0.11,-0.04l0.17 0c0.03,0 0.06,0.01 0.08,0.03 0.02,0.02 0.03,0.05 0.03,0.08 0,-0.03 0.01,-0.06 0.03,-0.08 0.02,-0.02 0.05,-0.03 0.08,-0.03l0.17 0c0.05,0 0.09,0.01 0.11,0.04 0.03,0.03 0.05,0.07 0.05,0.12l0 1.03 -0.2 0 0 -1 -0.14 0 0 1z"/>
   <path id="3" class="fil0" d="M18.29 12.68l0 -0.28 -0.14 0 0 0.35 0.14 -0.07zm0.2 0.72l-0.2 0 0 -0.51 -0.14 0.08 0 0.43 -0.2 0 0 -1.03c0,-0.05 0.02,-0.09 0.04,-0.12 0.03,-0.03 0.07,-0.04 0.12,-0.04l0.22 0c0.05,0 0.09,0.01 0.11,0.04 0.03,0.03 0.05,0.07 0.05,0.12l0 1.03z"/>
   <polygon id="4" class="fil0" points="19.73,13.21 19.73,13.4 19.27,13.4 19.27,12.21 19.47,12.21 19.47,13.21 "/>
   <polygon id="5" class="fil0" points="20.92,13.21 20.92,13.4 20.46,13.4 20.46,12.21 20.66,12.21 20.66,13.21 "/>
   <path id="6" class="fil0" d="M22.34 13.21l0 -0.38 -0.16 0.08 0 0.3 0.16 0zm0.19 -0.45l0 0.47c0,0.06 -0.01,0.1 -0.04,0.13 -0.03,0.02 -0.08,0.04 -0.13,0.04l-0.36 0 0 -1.19 0.37 0c0.05,0 0.09,0.01 0.12,0.04 0.03,0.03 0.04,0.07 0.04,0.12l0 0.25c0,0.04 -0.01,0.07 -0.02,0.1 -0.01,0.02 -0.04,0.03 -0.06,0.04l0.08 0zm-0.19 -0.13l0 -0.24 -0.16 0 0 0.32 0.16 -0.08z"/>
   <path id="7" class="fil0" d="M23.32 12.21l0.19 0 0 1 0.14 0 0 -1 0.2 0 0 1.02c0,0.05 -0.01,0.1 -0.04,0.12 -0.03,0.03 -0.07,0.05 -0.12,0.05l-0.22 0c-0.05,0 -0.09,-0.02 -0.11,-0.05 -0.03,-0.02 -0.04,-0.07 -0.04,-0.12l0 -1.02z"/>
   <polygon id="8" class="fil0" points="24.77,13.4 24.77,12.4 24.58,12.4 24.58,12.21 25.16,12.21 25.16,12.4 24.96,12.4 24.96,13.4 "/>
   <polygon id="9" class="fil0" points="26.7,13.4 26.23,13.4 26.23,12.21 26.7,12.21 26.7,12.4 26.42,12.4 26.42,12.71 26.7,12.57 26.7,12.78 26.42,12.92 26.42,13.21 26.7,13.21 "/>
   <polygon id="10" class="fil0" points="27.57,12.79 27.4,12.21 27.6,12.21 27.69,12.51 27.78,12.21 27.98,12.21 27.81,12.79 27.99,13.4 27.79,13.4 27.69,13.06 27.59,13.4 27.39,13.4 "/>
   <path id="11" class="fil0" d="M28.7 12.37c0,-0.05 0.02,-0.09 0.05,-0.12 0.02,-0.03 0.06,-0.04 0.11,-0.04l0.22 0c0.05,0 0.09,0.01 0.12,0.04 0.02,0.03 0.04,0.07 0.04,0.12l0 0.16 -0.2 0.09 0 -0.22 -0.14 0 0 0.81 0.14 0 0 -0.17 0.2 -0.1 0 0.29c0,0.05 -0.02,0.1 -0.04,0.12 -0.03,0.03 -0.07,0.05 -0.12,0.05l-0.22 0c-0.05,0 -0.09,-0.02 -0.11,-0.05 -0.03,-0.02 -0.05,-0.07 -0.05,-0.12l0 -0.86z"/>
   <polygon id="12" class="fil0" points="30.49,13.4 30.02,13.4 30.02,12.21 30.49,12.21 30.49,12.4 30.22,12.4 30.22,12.71 30.49,12.57 30.49,12.78 30.22,12.92 30.22,13.21 30.49,13.21 "/>
   <polygon id="13" class="fil0" points="31.72,13.21 31.72,13.4 31.26,13.4 31.26,12.21 31.45,12.21 31.45,13.21 "/>
   <polygon id="14" class="fil0" points="32.9,13.21 32.9,13.4 32.45,13.4 32.45,12.21 32.64,12.21 32.64,13.21 "/>
   <polygon id="15" class="fil0" points="34.11,13.4 33.64,13.4 33.64,12.21 34.11,12.21 34.11,12.4 33.83,12.4 33.83,12.71 34.11,12.57 34.11,12.78 33.83,12.92 33.83,13.21 34.11,13.21 "/>
   <path id="16" class="fil0" d="M35.07 13.4l-0.19 0 0 -1.19 0.19 0 0 0.09c0,-0.03 0.02,-0.05 0.04,-0.07 0.01,-0.01 0.04,-0.02 0.07,-0.02l0.07 0c0.05,0 0.09,0.01 0.12,0.04 0.02,0.03 0.04,0.07 0.04,0.12l0 1.03 -0.2 0 0 -1 -0.14 0 0 1z"/>
   <polygon id="17" class="fil0" points="36.33,13.4 36.33,12.4 36.14,12.4 36.14,12.21 36.71,12.21 36.71,12.4 36.52,12.4 36.52,13.4 "/>
   <polygon id="18" class="fil0" points="37.92,13.4 37.92,12.4 37.72,12.4 37.72,12.21 38.3,12.21 38.3,12.4 38.11,12.4 38.11,13.4 "/>
   <polygon id="19" class="fil0" points="39.5,13.4 39.03,13.4 39.03,12.21 39.5,12.21 39.5,12.4 39.22,12.4 39.22,12.71 39.5,12.57 39.5,12.78 39.22,12.92 39.22,13.21 39.5,13.21 "/>
   <path id="20" class="fil0" d="M40.6 12.68l0 -0.28 -0.14 0 0 0.35 0.14 -0.07zm0.2 0.72l-0.2 0 0 -0.51 -0.14 0.08 0 0.43 -0.2 0 0 -1.03c0,-0.05 0.02,-0.09 0.05,-0.12 0.02,-0.03 0.06,-0.04 0.11,-0.04l0.22 0c0.05,0 0.09,0.01 0.12,0.04 0.02,0.03 0.04,0.07 0.04,0.12l0 1.03z"/>
   <path id="21" class="fil0" d="M42.12 13.4l-0.2 0 0 -1 -0.14 0 0 1 -0.19 0 0 -1.03c0,-0.05 0.01,-0.09 0.04,-0.12 0.03,-0.03 0.06,-0.04 0.11,-0.04l0.17 0c0.03,0 0.06,0.01 0.08,0.03 0.02,0.02 0.03,0.05 0.03,0.08 0,-0.03 0.01,-0.06 0.03,-0.08 0.02,-0.02 0.05,-0.03 0.08,-0.03l0.17 0c0.05,0 0.08,0.01 0.11,0.04 0.03,0.03 0.05,0.07 0.05,0.12l0 1.03 -0.2 0 0 -1 -0.14 0 0 1z"/>
  </g>
 </g>
</svg>
